%TF.GenerationSoftware,KiCad,Pcbnew,(5.1.6)-1*%
%TF.CreationDate,2021-05-29T12:16:40-05:00*%
%TF.ProjectId,Sapphire_AnalogMic,53617070-6869-4726-955f-416e616c6f67,rev?*%
%TF.SameCoordinates,Original*%
%TF.FileFunction,Legend,Bot*%
%TF.FilePolarity,Positive*%
%FSLAX46Y46*%
G04 Gerber Fmt 4.6, Leading zero omitted, Abs format (unit mm)*
G04 Created by KiCad (PCBNEW (5.1.6)-1) date 2021-05-29 12:16:40*
%MOMM*%
%LPD*%
G01*
G04 APERTURE LIST*
%ADD10C,0.127000*%
%ADD11C,0.010000*%
%ADD12C,0.120000*%
G04 APERTURE END LIST*
D10*
X127193523Y-107584119D02*
X127120952Y-107608309D01*
X127000000Y-107608309D01*
X126951619Y-107584119D01*
X126927428Y-107559928D01*
X126903238Y-107511547D01*
X126903238Y-107463166D01*
X126927428Y-107414785D01*
X126951619Y-107390595D01*
X127000000Y-107366404D01*
X127096761Y-107342214D01*
X127145142Y-107318023D01*
X127169333Y-107293833D01*
X127193523Y-107245452D01*
X127193523Y-107197071D01*
X127169333Y-107148690D01*
X127145142Y-107124500D01*
X127096761Y-107100309D01*
X126975809Y-107100309D01*
X126903238Y-107124500D01*
X126467809Y-107608309D02*
X126467809Y-107342214D01*
X126492000Y-107293833D01*
X126540380Y-107269642D01*
X126637142Y-107269642D01*
X126685523Y-107293833D01*
X126467809Y-107584119D02*
X126516190Y-107608309D01*
X126637142Y-107608309D01*
X126685523Y-107584119D01*
X126709714Y-107535738D01*
X126709714Y-107487357D01*
X126685523Y-107438976D01*
X126637142Y-107414785D01*
X126516190Y-107414785D01*
X126467809Y-107390595D01*
X126225904Y-107269642D02*
X126225904Y-107777642D01*
X126225904Y-107293833D02*
X126177523Y-107269642D01*
X126080761Y-107269642D01*
X126032380Y-107293833D01*
X126008190Y-107318023D01*
X125984000Y-107366404D01*
X125984000Y-107511547D01*
X126008190Y-107559928D01*
X126032380Y-107584119D01*
X126080761Y-107608309D01*
X126177523Y-107608309D01*
X126225904Y-107584119D01*
X125766285Y-107269642D02*
X125766285Y-107777642D01*
X125766285Y-107293833D02*
X125717904Y-107269642D01*
X125621142Y-107269642D01*
X125572761Y-107293833D01*
X125548571Y-107318023D01*
X125524380Y-107366404D01*
X125524380Y-107511547D01*
X125548571Y-107559928D01*
X125572761Y-107584119D01*
X125621142Y-107608309D01*
X125717904Y-107608309D01*
X125766285Y-107584119D01*
X125306666Y-107608309D02*
X125306666Y-107100309D01*
X125088952Y-107608309D02*
X125088952Y-107342214D01*
X125113142Y-107293833D01*
X125161523Y-107269642D01*
X125234095Y-107269642D01*
X125282476Y-107293833D01*
X125306666Y-107318023D01*
X124847047Y-107608309D02*
X124847047Y-107269642D01*
X124847047Y-107100309D02*
X124871238Y-107124500D01*
X124847047Y-107148690D01*
X124822857Y-107124500D01*
X124847047Y-107100309D01*
X124847047Y-107148690D01*
X124605142Y-107608309D02*
X124605142Y-107269642D01*
X124605142Y-107366404D02*
X124580952Y-107318023D01*
X124556761Y-107293833D01*
X124508380Y-107269642D01*
X124460000Y-107269642D01*
X124097142Y-107584119D02*
X124145523Y-107608309D01*
X124242285Y-107608309D01*
X124290666Y-107584119D01*
X124314857Y-107535738D01*
X124314857Y-107342214D01*
X124290666Y-107293833D01*
X124242285Y-107269642D01*
X124145523Y-107269642D01*
X124097142Y-107293833D01*
X124072952Y-107342214D01*
X124072952Y-107390595D01*
X124314857Y-107438976D01*
X123468190Y-107608309D02*
X123468190Y-107100309D01*
X123298857Y-107463166D01*
X123129523Y-107100309D01*
X123129523Y-107608309D01*
X122887619Y-107608309D02*
X122887619Y-107269642D01*
X122887619Y-107100309D02*
X122911809Y-107124500D01*
X122887619Y-107148690D01*
X122863428Y-107124500D01*
X122887619Y-107100309D01*
X122887619Y-107148690D01*
X122645714Y-107269642D02*
X122645714Y-107608309D01*
X122645714Y-107318023D02*
X122621523Y-107293833D01*
X122573142Y-107269642D01*
X122500571Y-107269642D01*
X122452190Y-107293833D01*
X122428000Y-107342214D01*
X122428000Y-107608309D01*
X122186095Y-107608309D02*
X122186095Y-107269642D01*
X122186095Y-107100309D02*
X122210285Y-107124500D01*
X122186095Y-107148690D01*
X122161904Y-107124500D01*
X122186095Y-107100309D01*
X122186095Y-107148690D01*
X121581333Y-107463166D02*
X121339428Y-107463166D01*
X121629714Y-107608309D02*
X121460380Y-107100309D01*
X121291047Y-107608309D01*
X121121714Y-107269642D02*
X121121714Y-107608309D01*
X121121714Y-107318023D02*
X121097523Y-107293833D01*
X121049142Y-107269642D01*
X120976571Y-107269642D01*
X120928190Y-107293833D01*
X120904000Y-107342214D01*
X120904000Y-107608309D01*
X120444380Y-107608309D02*
X120444380Y-107342214D01*
X120468571Y-107293833D01*
X120516952Y-107269642D01*
X120613714Y-107269642D01*
X120662095Y-107293833D01*
X120444380Y-107584119D02*
X120492761Y-107608309D01*
X120613714Y-107608309D01*
X120662095Y-107584119D01*
X120686285Y-107535738D01*
X120686285Y-107487357D01*
X120662095Y-107438976D01*
X120613714Y-107414785D01*
X120492761Y-107414785D01*
X120444380Y-107390595D01*
X120129904Y-107608309D02*
X120178285Y-107584119D01*
X120202476Y-107535738D01*
X120202476Y-107100309D01*
X119863809Y-107608309D02*
X119912190Y-107584119D01*
X119936380Y-107559928D01*
X119960571Y-107511547D01*
X119960571Y-107366404D01*
X119936380Y-107318023D01*
X119912190Y-107293833D01*
X119863809Y-107269642D01*
X119791238Y-107269642D01*
X119742857Y-107293833D01*
X119718666Y-107318023D01*
X119694476Y-107366404D01*
X119694476Y-107511547D01*
X119718666Y-107559928D01*
X119742857Y-107584119D01*
X119791238Y-107608309D01*
X119863809Y-107608309D01*
X119259047Y-107269642D02*
X119259047Y-107680880D01*
X119283238Y-107729261D01*
X119307428Y-107753452D01*
X119355809Y-107777642D01*
X119428380Y-107777642D01*
X119476761Y-107753452D01*
X119259047Y-107584119D02*
X119307428Y-107608309D01*
X119404190Y-107608309D01*
X119452571Y-107584119D01*
X119476761Y-107559928D01*
X119500952Y-107511547D01*
X119500952Y-107366404D01*
X119476761Y-107318023D01*
X119452571Y-107293833D01*
X119404190Y-107269642D01*
X119307428Y-107269642D01*
X119259047Y-107293833D01*
X118460761Y-107342214D02*
X118388190Y-107366404D01*
X118364000Y-107390595D01*
X118339809Y-107438976D01*
X118339809Y-107511547D01*
X118364000Y-107559928D01*
X118388190Y-107584119D01*
X118436571Y-107608309D01*
X118630095Y-107608309D01*
X118630095Y-107100309D01*
X118460761Y-107100309D01*
X118412380Y-107124500D01*
X118388190Y-107148690D01*
X118364000Y-107197071D01*
X118364000Y-107245452D01*
X118388190Y-107293833D01*
X118412380Y-107318023D01*
X118460761Y-107342214D01*
X118630095Y-107342214D01*
X118049523Y-107608309D02*
X118097904Y-107584119D01*
X118122095Y-107559928D01*
X118146285Y-107511547D01*
X118146285Y-107366404D01*
X118122095Y-107318023D01*
X118097904Y-107293833D01*
X118049523Y-107269642D01*
X117976952Y-107269642D01*
X117928571Y-107293833D01*
X117904380Y-107318023D01*
X117880190Y-107366404D01*
X117880190Y-107511547D01*
X117904380Y-107559928D01*
X117928571Y-107584119D01*
X117976952Y-107608309D01*
X118049523Y-107608309D01*
X117444761Y-107608309D02*
X117444761Y-107342214D01*
X117468952Y-107293833D01*
X117517333Y-107269642D01*
X117614095Y-107269642D01*
X117662476Y-107293833D01*
X117444761Y-107584119D02*
X117493142Y-107608309D01*
X117614095Y-107608309D01*
X117662476Y-107584119D01*
X117686666Y-107535738D01*
X117686666Y-107487357D01*
X117662476Y-107438976D01*
X117614095Y-107414785D01*
X117493142Y-107414785D01*
X117444761Y-107390595D01*
X117202857Y-107608309D02*
X117202857Y-107269642D01*
X117202857Y-107366404D02*
X117178666Y-107318023D01*
X117154476Y-107293833D01*
X117106095Y-107269642D01*
X117057714Y-107269642D01*
X116670666Y-107608309D02*
X116670666Y-107100309D01*
X116670666Y-107584119D02*
X116719047Y-107608309D01*
X116815809Y-107608309D01*
X116864190Y-107584119D01*
X116888380Y-107559928D01*
X116912571Y-107511547D01*
X116912571Y-107366404D01*
X116888380Y-107318023D01*
X116864190Y-107293833D01*
X116815809Y-107269642D01*
X116719047Y-107269642D01*
X116670666Y-107293833D01*
X125596952Y-108497309D02*
X125766285Y-108255404D01*
X125887238Y-108497309D02*
X125887238Y-107989309D01*
X125693714Y-107989309D01*
X125645333Y-108013500D01*
X125621142Y-108037690D01*
X125596952Y-108086071D01*
X125596952Y-108158642D01*
X125621142Y-108207023D01*
X125645333Y-108231214D01*
X125693714Y-108255404D01*
X125887238Y-108255404D01*
X125185714Y-108473119D02*
X125234095Y-108497309D01*
X125330857Y-108497309D01*
X125379238Y-108473119D01*
X125403428Y-108424738D01*
X125403428Y-108231214D01*
X125379238Y-108182833D01*
X125330857Y-108158642D01*
X125234095Y-108158642D01*
X125185714Y-108182833D01*
X125161523Y-108231214D01*
X125161523Y-108279595D01*
X125403428Y-108327976D01*
X124992190Y-108158642D02*
X124871238Y-108497309D01*
X124750285Y-108158642D01*
X123903619Y-108497309D02*
X124193904Y-108497309D01*
X124048761Y-108497309D02*
X124048761Y-107989309D01*
X124097142Y-108061880D01*
X124145523Y-108110261D01*
X124193904Y-108134452D01*
X123323047Y-108037690D02*
X123298857Y-108013500D01*
X123250476Y-107989309D01*
X123129523Y-107989309D01*
X123081142Y-108013500D01*
X123056952Y-108037690D01*
X123032761Y-108086071D01*
X123032761Y-108134452D01*
X123056952Y-108207023D01*
X123347238Y-108497309D01*
X123032761Y-108497309D01*
X122742476Y-108207023D02*
X122790857Y-108182833D01*
X122815047Y-108158642D01*
X122839238Y-108110261D01*
X122839238Y-108086071D01*
X122815047Y-108037690D01*
X122790857Y-108013500D01*
X122742476Y-107989309D01*
X122645714Y-107989309D01*
X122597333Y-108013500D01*
X122573142Y-108037690D01*
X122548952Y-108086071D01*
X122548952Y-108110261D01*
X122573142Y-108158642D01*
X122597333Y-108182833D01*
X122645714Y-108207023D01*
X122742476Y-108207023D01*
X122790857Y-108231214D01*
X122815047Y-108255404D01*
X122839238Y-108303785D01*
X122839238Y-108400547D01*
X122815047Y-108448928D01*
X122790857Y-108473119D01*
X122742476Y-108497309D01*
X122645714Y-108497309D01*
X122597333Y-108473119D01*
X122573142Y-108448928D01*
X122548952Y-108400547D01*
X122548952Y-108303785D01*
X122573142Y-108255404D01*
X122597333Y-108231214D01*
X122645714Y-108207023D01*
X122331238Y-108303785D02*
X121944190Y-108303785D01*
X121702285Y-108497309D02*
X121702285Y-107989309D01*
X121532952Y-108352166D01*
X121363619Y-107989309D01*
X121363619Y-108497309D01*
X120904000Y-108497309D02*
X120904000Y-108231214D01*
X120928190Y-108182833D01*
X120976571Y-108158642D01*
X121073333Y-108158642D01*
X121121714Y-108182833D01*
X120904000Y-108473119D02*
X120952380Y-108497309D01*
X121073333Y-108497309D01*
X121121714Y-108473119D01*
X121145904Y-108424738D01*
X121145904Y-108376357D01*
X121121714Y-108327976D01*
X121073333Y-108303785D01*
X120952380Y-108303785D01*
X120904000Y-108279595D01*
X120710476Y-108158642D02*
X120589523Y-108497309D01*
X120468571Y-108158642D02*
X120589523Y-108497309D01*
X120637904Y-108618261D01*
X120662095Y-108642452D01*
X120710476Y-108666642D01*
X120275047Y-108303785D02*
X119888000Y-108303785D01*
X119670285Y-108037690D02*
X119646095Y-108013500D01*
X119597714Y-107989309D01*
X119476761Y-107989309D01*
X119428380Y-108013500D01*
X119404190Y-108037690D01*
X119380000Y-108086071D01*
X119380000Y-108134452D01*
X119404190Y-108207023D01*
X119694476Y-108497309D01*
X119380000Y-108497309D01*
X119065523Y-107989309D02*
X119017142Y-107989309D01*
X118968761Y-108013500D01*
X118944571Y-108037690D01*
X118920380Y-108086071D01*
X118896190Y-108182833D01*
X118896190Y-108303785D01*
X118920380Y-108400547D01*
X118944571Y-108448928D01*
X118968761Y-108473119D01*
X119017142Y-108497309D01*
X119065523Y-108497309D01*
X119113904Y-108473119D01*
X119138095Y-108448928D01*
X119162285Y-108400547D01*
X119186476Y-108303785D01*
X119186476Y-108182833D01*
X119162285Y-108086071D01*
X119138095Y-108037690D01*
X119113904Y-108013500D01*
X119065523Y-107989309D01*
X118702666Y-108037690D02*
X118678476Y-108013500D01*
X118630095Y-107989309D01*
X118509142Y-107989309D01*
X118460761Y-108013500D01*
X118436571Y-108037690D01*
X118412380Y-108086071D01*
X118412380Y-108134452D01*
X118436571Y-108207023D01*
X118726857Y-108497309D01*
X118412380Y-108497309D01*
X117928571Y-108497309D02*
X118218857Y-108497309D01*
X118073714Y-108497309D02*
X118073714Y-107989309D01*
X118122095Y-108061880D01*
X118170476Y-108110261D01*
X118218857Y-108134452D01*
D11*
%TO.C,G\u002A\u002A\u002A*%
G36*
X127855852Y-101180654D02*
G01*
X127737955Y-101192070D01*
X127703876Y-101197408D01*
X127498151Y-101247510D01*
X127301957Y-101323015D01*
X127117368Y-101422108D01*
X126946458Y-101542972D01*
X126791299Y-101683793D01*
X126653967Y-101842753D01*
X126536533Y-102018037D01*
X126441074Y-102207830D01*
X126388018Y-102349637D01*
X126342603Y-102521824D01*
X126317332Y-102698326D01*
X126311250Y-102886737D01*
X126313020Y-102946600D01*
X126326228Y-103116291D01*
X126352033Y-103268951D01*
X126392779Y-103413842D01*
X126450807Y-103560228D01*
X126488113Y-103639055D01*
X126596649Y-103826984D01*
X126726431Y-103996848D01*
X126876301Y-104147746D01*
X127045105Y-104278779D01*
X127231687Y-104389048D01*
X127434891Y-104477653D01*
X127649111Y-104542616D01*
X127705066Y-104552335D01*
X127781954Y-104560373D01*
X127872523Y-104566488D01*
X127969521Y-104570440D01*
X128065696Y-104571989D01*
X128153795Y-104570894D01*
X128226567Y-104566913D01*
X128260618Y-104562920D01*
X128477272Y-104515106D01*
X128682067Y-104442590D01*
X128873378Y-104346730D01*
X129049582Y-104228882D01*
X129209059Y-104090405D01*
X129350183Y-103932653D01*
X129471334Y-103756985D01*
X129570887Y-103564757D01*
X129627106Y-103420333D01*
X129677382Y-103231725D01*
X129705263Y-103032018D01*
X129707461Y-102951690D01*
X129643545Y-102951690D01*
X129623156Y-103144049D01*
X129580263Y-103333298D01*
X129514872Y-103517209D01*
X129426991Y-103693553D01*
X129316626Y-103860100D01*
X129183783Y-104014622D01*
X129028471Y-104154889D01*
X128987777Y-104186242D01*
X128810961Y-104301320D01*
X128622198Y-104392226D01*
X128424689Y-104457714D01*
X128221637Y-104496539D01*
X128178278Y-104501217D01*
X128129254Y-104505993D01*
X128093166Y-104509890D01*
X128077336Y-104512115D01*
X128077173Y-104512189D01*
X128061354Y-104513256D01*
X128024083Y-104512355D01*
X127972037Y-104509827D01*
X127911892Y-104506010D01*
X127850324Y-104501243D01*
X127834789Y-104499879D01*
X127687206Y-104477217D01*
X127531704Y-104436567D01*
X127379140Y-104381009D01*
X127315663Y-104352597D01*
X127198331Y-104292850D01*
X127098466Y-104232444D01*
X127005996Y-104164555D01*
X126910846Y-104082360D01*
X126894832Y-104067547D01*
X126749637Y-103913504D01*
X126627431Y-103744638D01*
X126528797Y-103563280D01*
X126454315Y-103371765D01*
X126404565Y-103172424D01*
X126380129Y-102967590D01*
X126381587Y-102759595D01*
X126409521Y-102550773D01*
X126464510Y-102343456D01*
X126465066Y-102341795D01*
X126543817Y-102150472D01*
X126646902Y-101971357D01*
X126772252Y-101806695D01*
X126917796Y-101658729D01*
X127081463Y-101529705D01*
X127261183Y-101421867D01*
X127354651Y-101377365D01*
X127554745Y-101304800D01*
X127759620Y-101259153D01*
X127966766Y-101240132D01*
X128173670Y-101247445D01*
X128377821Y-101280799D01*
X128576706Y-101339902D01*
X128767814Y-101424462D01*
X128948633Y-101534186D01*
X128995701Y-101568342D01*
X129155588Y-101705337D01*
X129292916Y-101857054D01*
X129407694Y-102021263D01*
X129499926Y-102195736D01*
X129569621Y-102378245D01*
X129616784Y-102566559D01*
X129641424Y-102758450D01*
X129643545Y-102951690D01*
X129707461Y-102951690D01*
X129710871Y-102827126D01*
X129694332Y-102622963D01*
X129655767Y-102425443D01*
X129602931Y-102259800D01*
X129511774Y-102061767D01*
X129398169Y-101879510D01*
X129263931Y-101714565D01*
X129110874Y-101568470D01*
X128940811Y-101442761D01*
X128755557Y-101338974D01*
X128556925Y-101258646D01*
X128358569Y-101205684D01*
X128248575Y-101189080D01*
X128121339Y-101179288D01*
X127987039Y-101176437D01*
X127855852Y-101180654D01*
G37*
X127855852Y-101180654D02*
X127737955Y-101192070D01*
X127703876Y-101197408D01*
X127498151Y-101247510D01*
X127301957Y-101323015D01*
X127117368Y-101422108D01*
X126946458Y-101542972D01*
X126791299Y-101683793D01*
X126653967Y-101842753D01*
X126536533Y-102018037D01*
X126441074Y-102207830D01*
X126388018Y-102349637D01*
X126342603Y-102521824D01*
X126317332Y-102698326D01*
X126311250Y-102886737D01*
X126313020Y-102946600D01*
X126326228Y-103116291D01*
X126352033Y-103268951D01*
X126392779Y-103413842D01*
X126450807Y-103560228D01*
X126488113Y-103639055D01*
X126596649Y-103826984D01*
X126726431Y-103996848D01*
X126876301Y-104147746D01*
X127045105Y-104278779D01*
X127231687Y-104389048D01*
X127434891Y-104477653D01*
X127649111Y-104542616D01*
X127705066Y-104552335D01*
X127781954Y-104560373D01*
X127872523Y-104566488D01*
X127969521Y-104570440D01*
X128065696Y-104571989D01*
X128153795Y-104570894D01*
X128226567Y-104566913D01*
X128260618Y-104562920D01*
X128477272Y-104515106D01*
X128682067Y-104442590D01*
X128873378Y-104346730D01*
X129049582Y-104228882D01*
X129209059Y-104090405D01*
X129350183Y-103932653D01*
X129471334Y-103756985D01*
X129570887Y-103564757D01*
X129627106Y-103420333D01*
X129677382Y-103231725D01*
X129705263Y-103032018D01*
X129707461Y-102951690D01*
X129643545Y-102951690D01*
X129623156Y-103144049D01*
X129580263Y-103333298D01*
X129514872Y-103517209D01*
X129426991Y-103693553D01*
X129316626Y-103860100D01*
X129183783Y-104014622D01*
X129028471Y-104154889D01*
X128987777Y-104186242D01*
X128810961Y-104301320D01*
X128622198Y-104392226D01*
X128424689Y-104457714D01*
X128221637Y-104496539D01*
X128178278Y-104501217D01*
X128129254Y-104505993D01*
X128093166Y-104509890D01*
X128077336Y-104512115D01*
X128077173Y-104512189D01*
X128061354Y-104513256D01*
X128024083Y-104512355D01*
X127972037Y-104509827D01*
X127911892Y-104506010D01*
X127850324Y-104501243D01*
X127834789Y-104499879D01*
X127687206Y-104477217D01*
X127531704Y-104436567D01*
X127379140Y-104381009D01*
X127315663Y-104352597D01*
X127198331Y-104292850D01*
X127098466Y-104232444D01*
X127005996Y-104164555D01*
X126910846Y-104082360D01*
X126894832Y-104067547D01*
X126749637Y-103913504D01*
X126627431Y-103744638D01*
X126528797Y-103563280D01*
X126454315Y-103371765D01*
X126404565Y-103172424D01*
X126380129Y-102967590D01*
X126381587Y-102759595D01*
X126409521Y-102550773D01*
X126464510Y-102343456D01*
X126465066Y-102341795D01*
X126543817Y-102150472D01*
X126646902Y-101971357D01*
X126772252Y-101806695D01*
X126917796Y-101658729D01*
X127081463Y-101529705D01*
X127261183Y-101421867D01*
X127354651Y-101377365D01*
X127554745Y-101304800D01*
X127759620Y-101259153D01*
X127966766Y-101240132D01*
X128173670Y-101247445D01*
X128377821Y-101280799D01*
X128576706Y-101339902D01*
X128767814Y-101424462D01*
X128948633Y-101534186D01*
X128995701Y-101568342D01*
X129155588Y-101705337D01*
X129292916Y-101857054D01*
X129407694Y-102021263D01*
X129499926Y-102195736D01*
X129569621Y-102378245D01*
X129616784Y-102566559D01*
X129641424Y-102758450D01*
X129643545Y-102951690D01*
X129707461Y-102951690D01*
X129710871Y-102827126D01*
X129694332Y-102622963D01*
X129655767Y-102425443D01*
X129602931Y-102259800D01*
X129511774Y-102061767D01*
X129398169Y-101879510D01*
X129263931Y-101714565D01*
X129110874Y-101568470D01*
X128940811Y-101442761D01*
X128755557Y-101338974D01*
X128556925Y-101258646D01*
X128358569Y-101205684D01*
X128248575Y-101189080D01*
X128121339Y-101179288D01*
X127987039Y-101176437D01*
X127855852Y-101180654D01*
G36*
X124818603Y-101845435D02*
G01*
X124689079Y-101861210D01*
X124566146Y-101888525D01*
X124458513Y-101926184D01*
X124428405Y-101940387D01*
X124371474Y-101969431D01*
X124380770Y-102112799D01*
X124387864Y-102220585D01*
X124393770Y-102303468D01*
X124399029Y-102364714D01*
X124404182Y-102407589D01*
X124409771Y-102435360D01*
X124416334Y-102451292D01*
X124424414Y-102458653D01*
X124434551Y-102460707D01*
X124438377Y-102460778D01*
X124454231Y-102457782D01*
X124466148Y-102445208D01*
X124476695Y-102417680D01*
X124488437Y-102369820D01*
X124493920Y-102344361D01*
X124518673Y-102248635D01*
X124549764Y-102161459D01*
X124584482Y-102089407D01*
X124619566Y-102039640D01*
X124682937Y-101990934D01*
X124764101Y-101957798D01*
X124856508Y-101941527D01*
X124953604Y-101943414D01*
X125029683Y-101958698D01*
X125112726Y-101995322D01*
X125183185Y-102050700D01*
X125236929Y-102119802D01*
X125269829Y-102197599D01*
X125278366Y-102261585D01*
X125266168Y-102339371D01*
X125228377Y-102415451D01*
X125166107Y-102489991D01*
X125131469Y-102522523D01*
X125094090Y-102551901D01*
X125048871Y-102581291D01*
X124990711Y-102613860D01*
X124914511Y-102652776D01*
X124864064Y-102677545D01*
X124735164Y-102742273D01*
X124629750Y-102800205D01*
X124544658Y-102853830D01*
X124476724Y-102905641D01*
X124422784Y-102958129D01*
X124379674Y-103013784D01*
X124344230Y-103075099D01*
X124335032Y-103094084D01*
X124317751Y-103134438D01*
X124306786Y-103171714D01*
X124300746Y-103214421D01*
X124298241Y-103271065D01*
X124297847Y-103321555D01*
X124298632Y-103392451D01*
X124302030Y-103443583D01*
X124309398Y-103483383D01*
X124322090Y-103520282D01*
X124334147Y-103547366D01*
X124394581Y-103643593D01*
X124478748Y-103727520D01*
X124584185Y-103797347D01*
X124708428Y-103851276D01*
X124778855Y-103872235D01*
X124871234Y-103888991D01*
X124978861Y-103897699D01*
X125090765Y-103898243D01*
X125195975Y-103890505D01*
X125271389Y-103877464D01*
X125324558Y-103861727D01*
X125385883Y-103838964D01*
X125449485Y-103811952D01*
X125509490Y-103783467D01*
X125560021Y-103756285D01*
X125595201Y-103733184D01*
X125608943Y-103717971D01*
X125613285Y-103696373D01*
X125620765Y-103652602D01*
X125630440Y-103592408D01*
X125641372Y-103521543D01*
X125644923Y-103497944D01*
X125656142Y-103423902D01*
X125666439Y-103357731D01*
X125674845Y-103305523D01*
X125680395Y-103273368D01*
X125681336Y-103268639D01*
X125682113Y-103245967D01*
X125665869Y-103237691D01*
X125647366Y-103236889D01*
X125616725Y-103241937D01*
X125602066Y-103262857D01*
X125598206Y-103278499D01*
X125578631Y-103339880D01*
X125544285Y-103412719D01*
X125500099Y-103488264D01*
X125451000Y-103557763D01*
X125420965Y-103593210D01*
X125326541Y-103680491D01*
X125227919Y-103741192D01*
X125121600Y-103776945D01*
X125004085Y-103789382D01*
X125000488Y-103789411D01*
X124887001Y-103779642D01*
X124789418Y-103750034D01*
X124709649Y-103702165D01*
X124649606Y-103637613D01*
X124611201Y-103557957D01*
X124596345Y-103464775D01*
X124596228Y-103455611D01*
X124605094Y-103353610D01*
X124633878Y-103265267D01*
X124685520Y-103183654D01*
X124735061Y-103128602D01*
X124767777Y-103097205D01*
X124800186Y-103069969D01*
X124836829Y-103044112D01*
X124882246Y-103016855D01*
X124940976Y-102985418D01*
X125017561Y-102947019D01*
X125086313Y-102913498D01*
X125204908Y-102854203D01*
X125300107Y-102801957D01*
X125375092Y-102754311D01*
X125433045Y-102708819D01*
X125477146Y-102663034D01*
X125510578Y-102614510D01*
X125532534Y-102570331D01*
X125552493Y-102498843D01*
X125560626Y-102411851D01*
X125557293Y-102319307D01*
X125542850Y-102231164D01*
X125517664Y-102157389D01*
X125460265Y-102069118D01*
X125380010Y-101991431D01*
X125281192Y-101927196D01*
X125168100Y-101879281D01*
X125062582Y-101853292D01*
X124946007Y-101842397D01*
X124818603Y-101845435D01*
G37*
X124818603Y-101845435D02*
X124689079Y-101861210D01*
X124566146Y-101888525D01*
X124458513Y-101926184D01*
X124428405Y-101940387D01*
X124371474Y-101969431D01*
X124380770Y-102112799D01*
X124387864Y-102220585D01*
X124393770Y-102303468D01*
X124399029Y-102364714D01*
X124404182Y-102407589D01*
X124409771Y-102435360D01*
X124416334Y-102451292D01*
X124424414Y-102458653D01*
X124434551Y-102460707D01*
X124438377Y-102460778D01*
X124454231Y-102457782D01*
X124466148Y-102445208D01*
X124476695Y-102417680D01*
X124488437Y-102369820D01*
X124493920Y-102344361D01*
X124518673Y-102248635D01*
X124549764Y-102161459D01*
X124584482Y-102089407D01*
X124619566Y-102039640D01*
X124682937Y-101990934D01*
X124764101Y-101957798D01*
X124856508Y-101941527D01*
X124953604Y-101943414D01*
X125029683Y-101958698D01*
X125112726Y-101995322D01*
X125183185Y-102050700D01*
X125236929Y-102119802D01*
X125269829Y-102197599D01*
X125278366Y-102261585D01*
X125266168Y-102339371D01*
X125228377Y-102415451D01*
X125166107Y-102489991D01*
X125131469Y-102522523D01*
X125094090Y-102551901D01*
X125048871Y-102581291D01*
X124990711Y-102613860D01*
X124914511Y-102652776D01*
X124864064Y-102677545D01*
X124735164Y-102742273D01*
X124629750Y-102800205D01*
X124544658Y-102853830D01*
X124476724Y-102905641D01*
X124422784Y-102958129D01*
X124379674Y-103013784D01*
X124344230Y-103075099D01*
X124335032Y-103094084D01*
X124317751Y-103134438D01*
X124306786Y-103171714D01*
X124300746Y-103214421D01*
X124298241Y-103271065D01*
X124297847Y-103321555D01*
X124298632Y-103392451D01*
X124302030Y-103443583D01*
X124309398Y-103483383D01*
X124322090Y-103520282D01*
X124334147Y-103547366D01*
X124394581Y-103643593D01*
X124478748Y-103727520D01*
X124584185Y-103797347D01*
X124708428Y-103851276D01*
X124778855Y-103872235D01*
X124871234Y-103888991D01*
X124978861Y-103897699D01*
X125090765Y-103898243D01*
X125195975Y-103890505D01*
X125271389Y-103877464D01*
X125324558Y-103861727D01*
X125385883Y-103838964D01*
X125449485Y-103811952D01*
X125509490Y-103783467D01*
X125560021Y-103756285D01*
X125595201Y-103733184D01*
X125608943Y-103717971D01*
X125613285Y-103696373D01*
X125620765Y-103652602D01*
X125630440Y-103592408D01*
X125641372Y-103521543D01*
X125644923Y-103497944D01*
X125656142Y-103423902D01*
X125666439Y-103357731D01*
X125674845Y-103305523D01*
X125680395Y-103273368D01*
X125681336Y-103268639D01*
X125682113Y-103245967D01*
X125665869Y-103237691D01*
X125647366Y-103236889D01*
X125616725Y-103241937D01*
X125602066Y-103262857D01*
X125598206Y-103278499D01*
X125578631Y-103339880D01*
X125544285Y-103412719D01*
X125500099Y-103488264D01*
X125451000Y-103557763D01*
X125420965Y-103593210D01*
X125326541Y-103680491D01*
X125227919Y-103741192D01*
X125121600Y-103776945D01*
X125004085Y-103789382D01*
X125000488Y-103789411D01*
X124887001Y-103779642D01*
X124789418Y-103750034D01*
X124709649Y-103702165D01*
X124649606Y-103637613D01*
X124611201Y-103557957D01*
X124596345Y-103464775D01*
X124596228Y-103455611D01*
X124605094Y-103353610D01*
X124633878Y-103265267D01*
X124685520Y-103183654D01*
X124735061Y-103128602D01*
X124767777Y-103097205D01*
X124800186Y-103069969D01*
X124836829Y-103044112D01*
X124882246Y-103016855D01*
X124940976Y-102985418D01*
X125017561Y-102947019D01*
X125086313Y-102913498D01*
X125204908Y-102854203D01*
X125300107Y-102801957D01*
X125375092Y-102754311D01*
X125433045Y-102708819D01*
X125477146Y-102663034D01*
X125510578Y-102614510D01*
X125532534Y-102570331D01*
X125552493Y-102498843D01*
X125560626Y-102411851D01*
X125557293Y-102319307D01*
X125542850Y-102231164D01*
X125517664Y-102157389D01*
X125460265Y-102069118D01*
X125380010Y-101991431D01*
X125281192Y-101927196D01*
X125168100Y-101879281D01*
X125062582Y-101853292D01*
X124946007Y-101842397D01*
X124818603Y-101845435D01*
G36*
X120957302Y-101882266D02*
G01*
X120851651Y-101882503D01*
X120768724Y-101883088D01*
X120705771Y-101884175D01*
X120660043Y-101885921D01*
X120628791Y-101888480D01*
X120609266Y-101892008D01*
X120598718Y-101896660D01*
X120594397Y-101902592D01*
X120593556Y-101909958D01*
X120593556Y-101910175D01*
X120605393Y-101935388D01*
X120632361Y-101946706D01*
X120724405Y-101967944D01*
X120793307Y-101986673D01*
X120843744Y-102005158D01*
X120880389Y-102025663D01*
X120907918Y-102050453D01*
X120931005Y-102081791D01*
X120939278Y-102095364D01*
X120946427Y-102108658D01*
X120952257Y-102123768D01*
X120956902Y-102143540D01*
X120960495Y-102170817D01*
X120963172Y-102208445D01*
X120965066Y-102259267D01*
X120966311Y-102326128D01*
X120967042Y-102411873D01*
X120967392Y-102519346D01*
X120967497Y-102651391D01*
X120967500Y-102693611D01*
X120967458Y-102832906D01*
X120967229Y-102947036D01*
X120966655Y-103039056D01*
X120965581Y-103112024D01*
X120963850Y-103168997D01*
X120961306Y-103213030D01*
X120957793Y-103247181D01*
X120953153Y-103274506D01*
X120947231Y-103298061D01*
X120939870Y-103320904D01*
X120934652Y-103335667D01*
X120877896Y-103460545D01*
X120804836Y-103562524D01*
X120714543Y-103642374D01*
X120606087Y-103700860D01*
X120478540Y-103738752D01*
X120438333Y-103745923D01*
X120299235Y-103757002D01*
X120173227Y-103745634D01*
X120061819Y-103712430D01*
X119966522Y-103657998D01*
X119888844Y-103582947D01*
X119837971Y-103503736D01*
X119816909Y-103459581D01*
X119799681Y-103416059D01*
X119785913Y-103369810D01*
X119775233Y-103317473D01*
X119767265Y-103255688D01*
X119761637Y-103181094D01*
X119757975Y-103090330D01*
X119755906Y-102980035D01*
X119755056Y-102846849D01*
X119754974Y-102757111D01*
X119755352Y-102611795D01*
X119756634Y-102491650D01*
X119759235Y-102393627D01*
X119763570Y-102314678D01*
X119770052Y-102251756D01*
X119779098Y-102201812D01*
X119791120Y-102161798D01*
X119806534Y-102128668D01*
X119825753Y-102099372D01*
X119848137Y-102072064D01*
X119879098Y-102039453D01*
X119910218Y-102014635D01*
X119947274Y-101995048D01*
X119996039Y-101978126D01*
X120062290Y-101961304D01*
X120131417Y-101946268D01*
X120162668Y-101931380D01*
X120170222Y-101910175D01*
X120169330Y-101902120D01*
X120164641Y-101895781D01*
X120153135Y-101890954D01*
X120131795Y-101887434D01*
X120097602Y-101885014D01*
X120047537Y-101883488D01*
X119978581Y-101882652D01*
X119887716Y-101882298D01*
X119771922Y-101882222D01*
X119349815Y-101882222D01*
X119354324Y-101913450D01*
X119367437Y-101938799D01*
X119401488Y-101953289D01*
X119406489Y-101954368D01*
X119475357Y-101982093D01*
X119536719Y-102033734D01*
X119553434Y-102054199D01*
X119569143Y-102078966D01*
X119582417Y-102109451D01*
X119593570Y-102148372D01*
X119602919Y-102198448D01*
X119610779Y-102262396D01*
X119617466Y-102342933D01*
X119623295Y-102442778D01*
X119628582Y-102564648D01*
X119633642Y-102711261D01*
X119635061Y-102757111D01*
X119640213Y-102909173D01*
X119645855Y-103043383D01*
X119651864Y-103157616D01*
X119658115Y-103249743D01*
X119664482Y-103317637D01*
X119670055Y-103355506D01*
X119709988Y-103492328D01*
X119770472Y-103609851D01*
X119851846Y-103708452D01*
X119954447Y-103788511D01*
X120078612Y-103850405D01*
X120126486Y-103867604D01*
X120175504Y-103878282D01*
X120245752Y-103886522D01*
X120330334Y-103892187D01*
X120422350Y-103895143D01*
X120514904Y-103895255D01*
X120601099Y-103892389D01*
X120674035Y-103886409D01*
X120718709Y-103879179D01*
X120844805Y-103840248D01*
X120956749Y-103784741D01*
X121050650Y-103715168D01*
X121122617Y-103634033D01*
X121139038Y-103608345D01*
X121157342Y-103576489D01*
X121172644Y-103546979D01*
X121185249Y-103516983D01*
X121195465Y-103483674D01*
X121203600Y-103444222D01*
X121209960Y-103395798D01*
X121214852Y-103335572D01*
X121218583Y-103260715D01*
X121221461Y-103168398D01*
X121223793Y-103055792D01*
X121225885Y-102920067D01*
X121227601Y-102792389D01*
X121235740Y-102171500D01*
X121270954Y-102101181D01*
X121304158Y-102048258D01*
X121346178Y-102010210D01*
X121403388Y-101982879D01*
X121482159Y-101962107D01*
X121484998Y-101961526D01*
X121535106Y-101949765D01*
X121563429Y-101937958D01*
X121576222Y-101922855D01*
X121578787Y-101912802D01*
X121583296Y-101882222D01*
X121088426Y-101882222D01*
X120957302Y-101882266D01*
G37*
X120957302Y-101882266D02*
X120851651Y-101882503D01*
X120768724Y-101883088D01*
X120705771Y-101884175D01*
X120660043Y-101885921D01*
X120628791Y-101888480D01*
X120609266Y-101892008D01*
X120598718Y-101896660D01*
X120594397Y-101902592D01*
X120593556Y-101909958D01*
X120593556Y-101910175D01*
X120605393Y-101935388D01*
X120632361Y-101946706D01*
X120724405Y-101967944D01*
X120793307Y-101986673D01*
X120843744Y-102005158D01*
X120880389Y-102025663D01*
X120907918Y-102050453D01*
X120931005Y-102081791D01*
X120939278Y-102095364D01*
X120946427Y-102108658D01*
X120952257Y-102123768D01*
X120956902Y-102143540D01*
X120960495Y-102170817D01*
X120963172Y-102208445D01*
X120965066Y-102259267D01*
X120966311Y-102326128D01*
X120967042Y-102411873D01*
X120967392Y-102519346D01*
X120967497Y-102651391D01*
X120967500Y-102693611D01*
X120967458Y-102832906D01*
X120967229Y-102947036D01*
X120966655Y-103039056D01*
X120965581Y-103112024D01*
X120963850Y-103168997D01*
X120961306Y-103213030D01*
X120957793Y-103247181D01*
X120953153Y-103274506D01*
X120947231Y-103298061D01*
X120939870Y-103320904D01*
X120934652Y-103335667D01*
X120877896Y-103460545D01*
X120804836Y-103562524D01*
X120714543Y-103642374D01*
X120606087Y-103700860D01*
X120478540Y-103738752D01*
X120438333Y-103745923D01*
X120299235Y-103757002D01*
X120173227Y-103745634D01*
X120061819Y-103712430D01*
X119966522Y-103657998D01*
X119888844Y-103582947D01*
X119837971Y-103503736D01*
X119816909Y-103459581D01*
X119799681Y-103416059D01*
X119785913Y-103369810D01*
X119775233Y-103317473D01*
X119767265Y-103255688D01*
X119761637Y-103181094D01*
X119757975Y-103090330D01*
X119755906Y-102980035D01*
X119755056Y-102846849D01*
X119754974Y-102757111D01*
X119755352Y-102611795D01*
X119756634Y-102491650D01*
X119759235Y-102393627D01*
X119763570Y-102314678D01*
X119770052Y-102251756D01*
X119779098Y-102201812D01*
X119791120Y-102161798D01*
X119806534Y-102128668D01*
X119825753Y-102099372D01*
X119848137Y-102072064D01*
X119879098Y-102039453D01*
X119910218Y-102014635D01*
X119947274Y-101995048D01*
X119996039Y-101978126D01*
X120062290Y-101961304D01*
X120131417Y-101946268D01*
X120162668Y-101931380D01*
X120170222Y-101910175D01*
X120169330Y-101902120D01*
X120164641Y-101895781D01*
X120153135Y-101890954D01*
X120131795Y-101887434D01*
X120097602Y-101885014D01*
X120047537Y-101883488D01*
X119978581Y-101882652D01*
X119887716Y-101882298D01*
X119771922Y-101882222D01*
X119349815Y-101882222D01*
X119354324Y-101913450D01*
X119367437Y-101938799D01*
X119401488Y-101953289D01*
X119406489Y-101954368D01*
X119475357Y-101982093D01*
X119536719Y-102033734D01*
X119553434Y-102054199D01*
X119569143Y-102078966D01*
X119582417Y-102109451D01*
X119593570Y-102148372D01*
X119602919Y-102198448D01*
X119610779Y-102262396D01*
X119617466Y-102342933D01*
X119623295Y-102442778D01*
X119628582Y-102564648D01*
X119633642Y-102711261D01*
X119635061Y-102757111D01*
X119640213Y-102909173D01*
X119645855Y-103043383D01*
X119651864Y-103157616D01*
X119658115Y-103249743D01*
X119664482Y-103317637D01*
X119670055Y-103355506D01*
X119709988Y-103492328D01*
X119770472Y-103609851D01*
X119851846Y-103708452D01*
X119954447Y-103788511D01*
X120078612Y-103850405D01*
X120126486Y-103867604D01*
X120175504Y-103878282D01*
X120245752Y-103886522D01*
X120330334Y-103892187D01*
X120422350Y-103895143D01*
X120514904Y-103895255D01*
X120601099Y-103892389D01*
X120674035Y-103886409D01*
X120718709Y-103879179D01*
X120844805Y-103840248D01*
X120956749Y-103784741D01*
X121050650Y-103715168D01*
X121122617Y-103634033D01*
X121139038Y-103608345D01*
X121157342Y-103576489D01*
X121172644Y-103546979D01*
X121185249Y-103516983D01*
X121195465Y-103483674D01*
X121203600Y-103444222D01*
X121209960Y-103395798D01*
X121214852Y-103335572D01*
X121218583Y-103260715D01*
X121221461Y-103168398D01*
X121223793Y-103055792D01*
X121225885Y-102920067D01*
X121227601Y-102792389D01*
X121235740Y-102171500D01*
X121270954Y-102101181D01*
X121304158Y-102048258D01*
X121346178Y-102010210D01*
X121403388Y-101982879D01*
X121482159Y-101962107D01*
X121484998Y-101961526D01*
X121535106Y-101949765D01*
X121563429Y-101937958D01*
X121576222Y-101922855D01*
X121578787Y-101912802D01*
X121583296Y-101882222D01*
X121088426Y-101882222D01*
X120957302Y-101882266D01*
G36*
X121943495Y-101882288D02*
G01*
X121864257Y-101882689D01*
X121806569Y-101883727D01*
X121767096Y-101885704D01*
X121742501Y-101888925D01*
X121729450Y-101893692D01*
X121724606Y-101900307D01*
X121724633Y-101909074D01*
X121724991Y-101911515D01*
X121737219Y-101933304D01*
X121769651Y-101952844D01*
X121805021Y-101966278D01*
X121854680Y-101985683D01*
X121898608Y-102007290D01*
X121916479Y-102018578D01*
X121962820Y-102068908D01*
X121993975Y-102134673D01*
X122004667Y-102201200D01*
X122003548Y-102231442D01*
X122000384Y-102286062D01*
X121995461Y-102361311D01*
X121989067Y-102453443D01*
X121981489Y-102558708D01*
X121973013Y-102673360D01*
X121963928Y-102793649D01*
X121954519Y-102915829D01*
X121945075Y-103036152D01*
X121935882Y-103150868D01*
X121927228Y-103256231D01*
X121919399Y-103348493D01*
X121912683Y-103423906D01*
X121907366Y-103478721D01*
X121905481Y-103495897D01*
X121890035Y-103591832D01*
X121867058Y-103664135D01*
X121833219Y-103717084D01*
X121785187Y-103754955D01*
X121719631Y-103782025D01*
X121673056Y-103794282D01*
X121628615Y-103807134D01*
X121605697Y-103822233D01*
X121597991Y-103841141D01*
X121593482Y-103871889D01*
X122074241Y-103871889D01*
X122203369Y-103871830D01*
X122307059Y-103871552D01*
X122388096Y-103870899D01*
X122449264Y-103869717D01*
X122493348Y-103867850D01*
X122523132Y-103865145D01*
X122541401Y-103861446D01*
X122550940Y-103856599D01*
X122554532Y-103850449D01*
X122555000Y-103845176D01*
X122542597Y-103817428D01*
X122507722Y-103802937D01*
X122485852Y-103801333D01*
X122437766Y-103794342D01*
X122379812Y-103776355D01*
X122323483Y-103751857D01*
X122280274Y-103725330D01*
X122271787Y-103717846D01*
X122255119Y-103700315D01*
X122241409Y-103682363D01*
X122230566Y-103661423D01*
X122222503Y-103634931D01*
X122217129Y-103600320D01*
X122214356Y-103555025D01*
X122214095Y-103496481D01*
X122216256Y-103422121D01*
X122220751Y-103329380D01*
X122227491Y-103215692D01*
X122236386Y-103078492D01*
X122245089Y-102948670D01*
X122253935Y-102817971D01*
X122262301Y-102695187D01*
X122269977Y-102583348D01*
X122276753Y-102485486D01*
X122282416Y-102404632D01*
X122286758Y-102343817D01*
X122289568Y-102306073D01*
X122290494Y-102295141D01*
X122296340Y-102300764D01*
X122311605Y-102330095D01*
X122335194Y-102380649D01*
X122366008Y-102449944D01*
X122402954Y-102535496D01*
X122444934Y-102634822D01*
X122490852Y-102745439D01*
X122511628Y-102796085D01*
X122590391Y-102988727D01*
X122659207Y-103156898D01*
X122718795Y-103302257D01*
X122769872Y-103426466D01*
X122813155Y-103531183D01*
X122849362Y-103618067D01*
X122879210Y-103688780D01*
X122903417Y-103744979D01*
X122922700Y-103788325D01*
X122937776Y-103820477D01*
X122949363Y-103843095D01*
X122958178Y-103857839D01*
X122964939Y-103866367D01*
X122970364Y-103870341D01*
X122975169Y-103871418D01*
X122976489Y-103871427D01*
X122985618Y-103862881D01*
X123002023Y-103836760D01*
X123026224Y-103791998D01*
X123058739Y-103727529D01*
X123100088Y-103642286D01*
X123150788Y-103535205D01*
X123211360Y-103405220D01*
X123282321Y-103251263D01*
X123344398Y-103115645D01*
X123406993Y-102978795D01*
X123466227Y-102849740D01*
X123521047Y-102730744D01*
X123570399Y-102624074D01*
X123613232Y-102531992D01*
X123648492Y-102456764D01*
X123675125Y-102400654D01*
X123692079Y-102365927D01*
X123698196Y-102354823D01*
X123700642Y-102367152D01*
X123703766Y-102404659D01*
X123707415Y-102464310D01*
X123711435Y-102543073D01*
X123715675Y-102637915D01*
X123719980Y-102745805D01*
X123724197Y-102863708D01*
X123724787Y-102881300D01*
X123730133Y-103042373D01*
X123734540Y-103177678D01*
X123737997Y-103289653D01*
X123740494Y-103380738D01*
X123742021Y-103453370D01*
X123742567Y-103509988D01*
X123742121Y-103553030D01*
X123740673Y-103584937D01*
X123738212Y-103608145D01*
X123734728Y-103625095D01*
X123730211Y-103638224D01*
X123724649Y-103649970D01*
X123721443Y-103656145D01*
X123685922Y-103699633D01*
X123629477Y-103740098D01*
X123559362Y-103772957D01*
X123514556Y-103786909D01*
X123459153Y-103801340D01*
X123425668Y-103811919D01*
X123408599Y-103821460D01*
X123402439Y-103832777D01*
X123401667Y-103844617D01*
X123402695Y-103852488D01*
X123407792Y-103858678D01*
X123419978Y-103863390D01*
X123442272Y-103866826D01*
X123477693Y-103869185D01*
X123529263Y-103870670D01*
X123599999Y-103871481D01*
X123692922Y-103871820D01*
X123810889Y-103871889D01*
X123928949Y-103871828D01*
X124021809Y-103871507D01*
X124092491Y-103870720D01*
X124144019Y-103869260D01*
X124179413Y-103866922D01*
X124201697Y-103863497D01*
X124213893Y-103858781D01*
X124219022Y-103852566D01*
X124220109Y-103844647D01*
X124220111Y-103843935D01*
X124207791Y-103818223D01*
X124181306Y-103806639D01*
X124121857Y-103786095D01*
X124061578Y-103755160D01*
X124010385Y-103719624D01*
X123981164Y-103689766D01*
X123964548Y-103665129D01*
X123950433Y-103639938D01*
X123938320Y-103611300D01*
X123927712Y-103576319D01*
X123918109Y-103532100D01*
X123909012Y-103475751D01*
X123899923Y-103404375D01*
X123890343Y-103315079D01*
X123879773Y-103204967D01*
X123867714Y-103071147D01*
X123860578Y-102989944D01*
X123844488Y-102802746D01*
X123831302Y-102641958D01*
X123820928Y-102505927D01*
X123813270Y-102393000D01*
X123808235Y-102301525D01*
X123805727Y-102229848D01*
X123805654Y-102176317D01*
X123807921Y-102139279D01*
X123811070Y-102121438D01*
X123835040Y-102067424D01*
X123876681Y-102023736D01*
X123938900Y-101988498D01*
X124024602Y-101959834D01*
X124082528Y-101946249D01*
X124113774Y-101931386D01*
X124121333Y-101910175D01*
X124120262Y-101901136D01*
X124114758Y-101894288D01*
X124101383Y-101889330D01*
X124076701Y-101885955D01*
X124037275Y-101883862D01*
X123979667Y-101882744D01*
X123900441Y-101882299D01*
X123805343Y-101882222D01*
X123696632Y-101882516D01*
X123613300Y-101883740D01*
X123552505Y-101886412D01*
X123511406Y-101891045D01*
X123487163Y-101898158D01*
X123476934Y-101908265D01*
X123477879Y-101921881D01*
X123487156Y-101939524D01*
X123487423Y-101939946D01*
X123498824Y-101979666D01*
X123496879Y-102035795D01*
X123482008Y-102100106D01*
X123478757Y-102109753D01*
X123468500Y-102134753D01*
X123447495Y-102182506D01*
X123417017Y-102250230D01*
X123378336Y-102335144D01*
X123332727Y-102434467D01*
X123281461Y-102545416D01*
X123225812Y-102665210D01*
X123167053Y-102791067D01*
X123165575Y-102794224D01*
X122874081Y-103416947D01*
X122642553Y-102836557D01*
X122577419Y-102672965D01*
X122522190Y-102533400D01*
X122476123Y-102415750D01*
X122438480Y-102317903D01*
X122408519Y-102237749D01*
X122385500Y-102173176D01*
X122368682Y-102122073D01*
X122357324Y-102082328D01*
X122350687Y-102051830D01*
X122348029Y-102028467D01*
X122348610Y-102010128D01*
X122349888Y-102002167D01*
X122359280Y-101956350D01*
X122366620Y-101921028D01*
X122374759Y-101882222D01*
X122047620Y-101882222D01*
X121943495Y-101882288D01*
G37*
X121943495Y-101882288D02*
X121864257Y-101882689D01*
X121806569Y-101883727D01*
X121767096Y-101885704D01*
X121742501Y-101888925D01*
X121729450Y-101893692D01*
X121724606Y-101900307D01*
X121724633Y-101909074D01*
X121724991Y-101911515D01*
X121737219Y-101933304D01*
X121769651Y-101952844D01*
X121805021Y-101966278D01*
X121854680Y-101985683D01*
X121898608Y-102007290D01*
X121916479Y-102018578D01*
X121962820Y-102068908D01*
X121993975Y-102134673D01*
X122004667Y-102201200D01*
X122003548Y-102231442D01*
X122000384Y-102286062D01*
X121995461Y-102361311D01*
X121989067Y-102453443D01*
X121981489Y-102558708D01*
X121973013Y-102673360D01*
X121963928Y-102793649D01*
X121954519Y-102915829D01*
X121945075Y-103036152D01*
X121935882Y-103150868D01*
X121927228Y-103256231D01*
X121919399Y-103348493D01*
X121912683Y-103423906D01*
X121907366Y-103478721D01*
X121905481Y-103495897D01*
X121890035Y-103591832D01*
X121867058Y-103664135D01*
X121833219Y-103717084D01*
X121785187Y-103754955D01*
X121719631Y-103782025D01*
X121673056Y-103794282D01*
X121628615Y-103807134D01*
X121605697Y-103822233D01*
X121597991Y-103841141D01*
X121593482Y-103871889D01*
X122074241Y-103871889D01*
X122203369Y-103871830D01*
X122307059Y-103871552D01*
X122388096Y-103870899D01*
X122449264Y-103869717D01*
X122493348Y-103867850D01*
X122523132Y-103865145D01*
X122541401Y-103861446D01*
X122550940Y-103856599D01*
X122554532Y-103850449D01*
X122555000Y-103845176D01*
X122542597Y-103817428D01*
X122507722Y-103802937D01*
X122485852Y-103801333D01*
X122437766Y-103794342D01*
X122379812Y-103776355D01*
X122323483Y-103751857D01*
X122280274Y-103725330D01*
X122271787Y-103717846D01*
X122255119Y-103700315D01*
X122241409Y-103682363D01*
X122230566Y-103661423D01*
X122222503Y-103634931D01*
X122217129Y-103600320D01*
X122214356Y-103555025D01*
X122214095Y-103496481D01*
X122216256Y-103422121D01*
X122220751Y-103329380D01*
X122227491Y-103215692D01*
X122236386Y-103078492D01*
X122245089Y-102948670D01*
X122253935Y-102817971D01*
X122262301Y-102695187D01*
X122269977Y-102583348D01*
X122276753Y-102485486D01*
X122282416Y-102404632D01*
X122286758Y-102343817D01*
X122289568Y-102306073D01*
X122290494Y-102295141D01*
X122296340Y-102300764D01*
X122311605Y-102330095D01*
X122335194Y-102380649D01*
X122366008Y-102449944D01*
X122402954Y-102535496D01*
X122444934Y-102634822D01*
X122490852Y-102745439D01*
X122511628Y-102796085D01*
X122590391Y-102988727D01*
X122659207Y-103156898D01*
X122718795Y-103302257D01*
X122769872Y-103426466D01*
X122813155Y-103531183D01*
X122849362Y-103618067D01*
X122879210Y-103688780D01*
X122903417Y-103744979D01*
X122922700Y-103788325D01*
X122937776Y-103820477D01*
X122949363Y-103843095D01*
X122958178Y-103857839D01*
X122964939Y-103866367D01*
X122970364Y-103870341D01*
X122975169Y-103871418D01*
X122976489Y-103871427D01*
X122985618Y-103862881D01*
X123002023Y-103836760D01*
X123026224Y-103791998D01*
X123058739Y-103727529D01*
X123100088Y-103642286D01*
X123150788Y-103535205D01*
X123211360Y-103405220D01*
X123282321Y-103251263D01*
X123344398Y-103115645D01*
X123406993Y-102978795D01*
X123466227Y-102849740D01*
X123521047Y-102730744D01*
X123570399Y-102624074D01*
X123613232Y-102531992D01*
X123648492Y-102456764D01*
X123675125Y-102400654D01*
X123692079Y-102365927D01*
X123698196Y-102354823D01*
X123700642Y-102367152D01*
X123703766Y-102404659D01*
X123707415Y-102464310D01*
X123711435Y-102543073D01*
X123715675Y-102637915D01*
X123719980Y-102745805D01*
X123724197Y-102863708D01*
X123724787Y-102881300D01*
X123730133Y-103042373D01*
X123734540Y-103177678D01*
X123737997Y-103289653D01*
X123740494Y-103380738D01*
X123742021Y-103453370D01*
X123742567Y-103509988D01*
X123742121Y-103553030D01*
X123740673Y-103584937D01*
X123738212Y-103608145D01*
X123734728Y-103625095D01*
X123730211Y-103638224D01*
X123724649Y-103649970D01*
X123721443Y-103656145D01*
X123685922Y-103699633D01*
X123629477Y-103740098D01*
X123559362Y-103772957D01*
X123514556Y-103786909D01*
X123459153Y-103801340D01*
X123425668Y-103811919D01*
X123408599Y-103821460D01*
X123402439Y-103832777D01*
X123401667Y-103844617D01*
X123402695Y-103852488D01*
X123407792Y-103858678D01*
X123419978Y-103863390D01*
X123442272Y-103866826D01*
X123477693Y-103869185D01*
X123529263Y-103870670D01*
X123599999Y-103871481D01*
X123692922Y-103871820D01*
X123810889Y-103871889D01*
X123928949Y-103871828D01*
X124021809Y-103871507D01*
X124092491Y-103870720D01*
X124144019Y-103869260D01*
X124179413Y-103866922D01*
X124201697Y-103863497D01*
X124213893Y-103858781D01*
X124219022Y-103852566D01*
X124220109Y-103844647D01*
X124220111Y-103843935D01*
X124207791Y-103818223D01*
X124181306Y-103806639D01*
X124121857Y-103786095D01*
X124061578Y-103755160D01*
X124010385Y-103719624D01*
X123981164Y-103689766D01*
X123964548Y-103665129D01*
X123950433Y-103639938D01*
X123938320Y-103611300D01*
X123927712Y-103576319D01*
X123918109Y-103532100D01*
X123909012Y-103475751D01*
X123899923Y-103404375D01*
X123890343Y-103315079D01*
X123879773Y-103204967D01*
X123867714Y-103071147D01*
X123860578Y-102989944D01*
X123844488Y-102802746D01*
X123831302Y-102641958D01*
X123820928Y-102505927D01*
X123813270Y-102393000D01*
X123808235Y-102301525D01*
X123805727Y-102229848D01*
X123805654Y-102176317D01*
X123807921Y-102139279D01*
X123811070Y-102121438D01*
X123835040Y-102067424D01*
X123876681Y-102023736D01*
X123938900Y-101988498D01*
X124024602Y-101959834D01*
X124082528Y-101946249D01*
X124113774Y-101931386D01*
X124121333Y-101910175D01*
X124120262Y-101901136D01*
X124114758Y-101894288D01*
X124101383Y-101889330D01*
X124076701Y-101885955D01*
X124037275Y-101883862D01*
X123979667Y-101882744D01*
X123900441Y-101882299D01*
X123805343Y-101882222D01*
X123696632Y-101882516D01*
X123613300Y-101883740D01*
X123552505Y-101886412D01*
X123511406Y-101891045D01*
X123487163Y-101898158D01*
X123476934Y-101908265D01*
X123477879Y-101921881D01*
X123487156Y-101939524D01*
X123487423Y-101939946D01*
X123498824Y-101979666D01*
X123496879Y-102035795D01*
X123482008Y-102100106D01*
X123478757Y-102109753D01*
X123468500Y-102134753D01*
X123447495Y-102182506D01*
X123417017Y-102250230D01*
X123378336Y-102335144D01*
X123332727Y-102434467D01*
X123281461Y-102545416D01*
X123225812Y-102665210D01*
X123167053Y-102791067D01*
X123165575Y-102794224D01*
X122874081Y-103416947D01*
X122642553Y-102836557D01*
X122577419Y-102672965D01*
X122522190Y-102533400D01*
X122476123Y-102415750D01*
X122438480Y-102317903D01*
X122408519Y-102237749D01*
X122385500Y-102173176D01*
X122368682Y-102122073D01*
X122357324Y-102082328D01*
X122350687Y-102051830D01*
X122348029Y-102028467D01*
X122348610Y-102010128D01*
X122349888Y-102002167D01*
X122359280Y-101956350D01*
X122366620Y-101921028D01*
X122374759Y-101882222D01*
X122047620Y-101882222D01*
X121943495Y-101882288D01*
G36*
X119269051Y-103644680D02*
G01*
X119239913Y-103669181D01*
X119213638Y-103720762D01*
X119210879Y-103773237D01*
X119230555Y-103819630D01*
X119268121Y-103851244D01*
X119320734Y-103869257D01*
X119369655Y-103863471D01*
X119388974Y-103855385D01*
X119422960Y-103824888D01*
X119445024Y-103777199D01*
X119449558Y-103743859D01*
X119415191Y-103743859D01*
X119406912Y-103779836D01*
X119405705Y-103782770D01*
X119393888Y-103808684D01*
X119387877Y-103810008D01*
X119385128Y-103797805D01*
X119351308Y-103797805D01*
X119344786Y-103830344D01*
X119328672Y-103845518D01*
X119309369Y-103838897D01*
X119303297Y-103831025D01*
X119305847Y-103812486D01*
X119322893Y-103785487D01*
X119323162Y-103785164D01*
X119337652Y-103767772D01*
X119282993Y-103767772D01*
X119276456Y-103784586D01*
X119260800Y-103792301D01*
X119248235Y-103779458D01*
X119242872Y-103753701D01*
X119246531Y-103728929D01*
X119254211Y-103709096D01*
X119262142Y-103712596D01*
X119273315Y-103732742D01*
X119282993Y-103767772D01*
X119337652Y-103767772D01*
X119350839Y-103751944D01*
X119351308Y-103797805D01*
X119385128Y-103797805D01*
X119383581Y-103790944D01*
X119381019Y-103752038D01*
X119382671Y-103720388D01*
X119383242Y-103716667D01*
X119351778Y-103716667D01*
X119340349Y-103729186D01*
X119330611Y-103730778D01*
X119311833Y-103723158D01*
X119309445Y-103716667D01*
X119320874Y-103704147D01*
X119330611Y-103702555D01*
X119349390Y-103710175D01*
X119351778Y-103716667D01*
X119383242Y-103716667D01*
X119386758Y-103693763D01*
X119393163Y-103693183D01*
X119404796Y-103712215D01*
X119415191Y-103743859D01*
X119449558Y-103743859D01*
X119450556Y-103736528D01*
X119438327Y-103691812D01*
X119428584Y-103681389D01*
X119281222Y-103681389D01*
X119274167Y-103688444D01*
X119267111Y-103681389D01*
X119274167Y-103674333D01*
X119281222Y-103681389D01*
X119428584Y-103681389D01*
X119417045Y-103669046D01*
X119353736Y-103669046D01*
X119334993Y-103671489D01*
X119330611Y-103671582D01*
X119306512Y-103670057D01*
X119304390Y-103665640D01*
X119305648Y-103665077D01*
X119333661Y-103662286D01*
X119347982Y-103664554D01*
X119353736Y-103669046D01*
X119417045Y-103669046D01*
X119406611Y-103657886D01*
X119362858Y-103637134D01*
X119314520Y-103631938D01*
X119269051Y-103644680D01*
G37*
X119269051Y-103644680D02*
X119239913Y-103669181D01*
X119213638Y-103720762D01*
X119210879Y-103773237D01*
X119230555Y-103819630D01*
X119268121Y-103851244D01*
X119320734Y-103869257D01*
X119369655Y-103863471D01*
X119388974Y-103855385D01*
X119422960Y-103824888D01*
X119445024Y-103777199D01*
X119449558Y-103743859D01*
X119415191Y-103743859D01*
X119406912Y-103779836D01*
X119405705Y-103782770D01*
X119393888Y-103808684D01*
X119387877Y-103810008D01*
X119385128Y-103797805D01*
X119351308Y-103797805D01*
X119344786Y-103830344D01*
X119328672Y-103845518D01*
X119309369Y-103838897D01*
X119303297Y-103831025D01*
X119305847Y-103812486D01*
X119322893Y-103785487D01*
X119323162Y-103785164D01*
X119337652Y-103767772D01*
X119282993Y-103767772D01*
X119276456Y-103784586D01*
X119260800Y-103792301D01*
X119248235Y-103779458D01*
X119242872Y-103753701D01*
X119246531Y-103728929D01*
X119254211Y-103709096D01*
X119262142Y-103712596D01*
X119273315Y-103732742D01*
X119282993Y-103767772D01*
X119337652Y-103767772D01*
X119350839Y-103751944D01*
X119351308Y-103797805D01*
X119385128Y-103797805D01*
X119383581Y-103790944D01*
X119381019Y-103752038D01*
X119382671Y-103720388D01*
X119383242Y-103716667D01*
X119351778Y-103716667D01*
X119340349Y-103729186D01*
X119330611Y-103730778D01*
X119311833Y-103723158D01*
X119309445Y-103716667D01*
X119320874Y-103704147D01*
X119330611Y-103702555D01*
X119349390Y-103710175D01*
X119351778Y-103716667D01*
X119383242Y-103716667D01*
X119386758Y-103693763D01*
X119393163Y-103693183D01*
X119404796Y-103712215D01*
X119415191Y-103743859D01*
X119449558Y-103743859D01*
X119450556Y-103736528D01*
X119438327Y-103691812D01*
X119428584Y-103681389D01*
X119281222Y-103681389D01*
X119274167Y-103688444D01*
X119267111Y-103681389D01*
X119274167Y-103674333D01*
X119281222Y-103681389D01*
X119428584Y-103681389D01*
X119417045Y-103669046D01*
X119353736Y-103669046D01*
X119334993Y-103671489D01*
X119330611Y-103671582D01*
X119306512Y-103670057D01*
X119304390Y-103665640D01*
X119305648Y-103665077D01*
X119333661Y-103662286D01*
X119347982Y-103664554D01*
X119353736Y-103669046D01*
X119417045Y-103669046D01*
X119406611Y-103657886D01*
X119362858Y-103637134D01*
X119314520Y-103631938D01*
X119269051Y-103644680D01*
G36*
X127877419Y-101313612D02*
G01*
X127790244Y-101324154D01*
X127587237Y-101367958D01*
X127396413Y-101435685D01*
X127219098Y-101525401D01*
X127056616Y-101635174D01*
X126910291Y-101763073D01*
X126781449Y-101907163D01*
X126671412Y-102065514D01*
X126581507Y-102236192D01*
X126513057Y-102417265D01*
X126467388Y-102606801D01*
X126445822Y-102802867D01*
X126449686Y-103003530D01*
X126480303Y-103206859D01*
X126485130Y-103228312D01*
X126544351Y-103423597D01*
X126627240Y-103606398D01*
X126731692Y-103775200D01*
X126855600Y-103928489D01*
X126996859Y-104064751D01*
X127153361Y-104182472D01*
X127323002Y-104280138D01*
X127503675Y-104356235D01*
X127693273Y-104409248D01*
X127889691Y-104437663D01*
X128090823Y-104439968D01*
X128162632Y-104434254D01*
X128372291Y-104398693D01*
X128572343Y-104336688D01*
X128761821Y-104248626D01*
X128939761Y-104134896D01*
X128975556Y-104107801D01*
X129124292Y-103976163D01*
X129252514Y-103828047D01*
X129306192Y-103746352D01*
X129046111Y-103746352D01*
X129046111Y-103893629D01*
X126979607Y-103893055D01*
X126978465Y-103826028D01*
X126978906Y-103785491D01*
X126986743Y-103764673D01*
X127009054Y-103756326D01*
X127049389Y-103753383D01*
X127070534Y-103744801D01*
X127077502Y-103717451D01*
X127077611Y-103711060D01*
X127088821Y-103674808D01*
X127116920Y-103654884D01*
X127151695Y-103656629D01*
X127164442Y-103650636D01*
X127169259Y-103619023D01*
X127169333Y-103612343D01*
X127171789Y-103578295D01*
X127182955Y-103564080D01*
X127204611Y-103561444D01*
X127239889Y-103561444D01*
X127239889Y-102683468D01*
X127143435Y-102694728D01*
X127138745Y-102626260D01*
X127137926Y-102567295D01*
X127147227Y-102528701D01*
X127169600Y-102503549D01*
X127197199Y-102489148D01*
X127227328Y-102472766D01*
X127238795Y-102450329D01*
X127239450Y-102419876D01*
X127238539Y-102381907D01*
X127238156Y-102326128D01*
X127238356Y-102262947D01*
X127238522Y-102245583D01*
X127239800Y-102185904D01*
X127242798Y-102149100D01*
X127248685Y-102129829D01*
X127258628Y-102122749D01*
X127265517Y-102122111D01*
X127286879Y-102110285D01*
X127312352Y-102073704D01*
X127332544Y-102034102D01*
X127385928Y-101945331D01*
X127459507Y-101857510D01*
X127545967Y-101777878D01*
X127637990Y-101713676D01*
X127677742Y-101692475D01*
X127729636Y-101669012D01*
X127774129Y-101651424D01*
X127803350Y-101642752D01*
X127807463Y-101642333D01*
X127824491Y-101635908D01*
X127831672Y-101612171D01*
X127832556Y-101588593D01*
X127832556Y-101534853D01*
X127925161Y-101512695D01*
X127978683Y-101501160D01*
X128018200Y-101497616D01*
X128056781Y-101502085D01*
X128101549Y-101512987D01*
X128155254Y-101530950D01*
X128183114Y-101548870D01*
X128186833Y-101557135D01*
X128189311Y-101590747D01*
X128190361Y-101604191D01*
X128206011Y-101626842D01*
X128249230Y-101652085D01*
X128272223Y-101662057D01*
X128408830Y-101730535D01*
X128523675Y-101816313D01*
X128618242Y-101920685D01*
X128680138Y-102018155D01*
X128713068Y-102073011D01*
X128741260Y-102107887D01*
X128759279Y-102119171D01*
X128770550Y-102123001D01*
X128778115Y-102133547D01*
X128782679Y-102155539D01*
X128784947Y-102193706D01*
X128785625Y-102252779D01*
X128785577Y-102295530D01*
X128785056Y-102467774D01*
X128835722Y-102494932D01*
X128864636Y-102512061D01*
X128879571Y-102529665D01*
X128884915Y-102557153D01*
X128885111Y-102600795D01*
X128883833Y-102679500D01*
X128834445Y-102686555D01*
X128785056Y-102693611D01*
X128782668Y-103127528D01*
X128780280Y-103561444D01*
X128814418Y-103561444D01*
X128837649Y-103565409D01*
X128847073Y-103582807D01*
X128848556Y-103610238D01*
X128850514Y-103642705D01*
X128862124Y-103655217D01*
X128891994Y-103655597D01*
X128897945Y-103655141D01*
X128930367Y-103654328D01*
X128944163Y-103664081D01*
X128947288Y-103692201D01*
X128947333Y-103703588D01*
X128948929Y-103737788D01*
X128959017Y-103751429D01*
X128985555Y-103752171D01*
X128996722Y-103751139D01*
X129046111Y-103746352D01*
X129306192Y-103746352D01*
X129362689Y-103660369D01*
X129418589Y-103554389D01*
X129492578Y-103380918D01*
X129542411Y-103211201D01*
X129569743Y-103037576D01*
X129576229Y-102852386D01*
X129575646Y-102827667D01*
X129556257Y-102623025D01*
X129511665Y-102427468D01*
X129443686Y-102242527D01*
X129354138Y-102069731D01*
X129244838Y-101910612D01*
X129117603Y-101766698D01*
X128974251Y-101639521D01*
X128816597Y-101530610D01*
X128646460Y-101441496D01*
X128465657Y-101373709D01*
X128276004Y-101328779D01*
X128079319Y-101308237D01*
X127877419Y-101313612D01*
G37*
X127877419Y-101313612D02*
X127790244Y-101324154D01*
X127587237Y-101367958D01*
X127396413Y-101435685D01*
X127219098Y-101525401D01*
X127056616Y-101635174D01*
X126910291Y-101763073D01*
X126781449Y-101907163D01*
X126671412Y-102065514D01*
X126581507Y-102236192D01*
X126513057Y-102417265D01*
X126467388Y-102606801D01*
X126445822Y-102802867D01*
X126449686Y-103003530D01*
X126480303Y-103206859D01*
X126485130Y-103228312D01*
X126544351Y-103423597D01*
X126627240Y-103606398D01*
X126731692Y-103775200D01*
X126855600Y-103928489D01*
X126996859Y-104064751D01*
X127153361Y-104182472D01*
X127323002Y-104280138D01*
X127503675Y-104356235D01*
X127693273Y-104409248D01*
X127889691Y-104437663D01*
X128090823Y-104439968D01*
X128162632Y-104434254D01*
X128372291Y-104398693D01*
X128572343Y-104336688D01*
X128761821Y-104248626D01*
X128939761Y-104134896D01*
X128975556Y-104107801D01*
X129124292Y-103976163D01*
X129252514Y-103828047D01*
X129306192Y-103746352D01*
X129046111Y-103746352D01*
X129046111Y-103893629D01*
X126979607Y-103893055D01*
X126978465Y-103826028D01*
X126978906Y-103785491D01*
X126986743Y-103764673D01*
X127009054Y-103756326D01*
X127049389Y-103753383D01*
X127070534Y-103744801D01*
X127077502Y-103717451D01*
X127077611Y-103711060D01*
X127088821Y-103674808D01*
X127116920Y-103654884D01*
X127151695Y-103656629D01*
X127164442Y-103650636D01*
X127169259Y-103619023D01*
X127169333Y-103612343D01*
X127171789Y-103578295D01*
X127182955Y-103564080D01*
X127204611Y-103561444D01*
X127239889Y-103561444D01*
X127239889Y-102683468D01*
X127143435Y-102694728D01*
X127138745Y-102626260D01*
X127137926Y-102567295D01*
X127147227Y-102528701D01*
X127169600Y-102503549D01*
X127197199Y-102489148D01*
X127227328Y-102472766D01*
X127238795Y-102450329D01*
X127239450Y-102419876D01*
X127238539Y-102381907D01*
X127238156Y-102326128D01*
X127238356Y-102262947D01*
X127238522Y-102245583D01*
X127239800Y-102185904D01*
X127242798Y-102149100D01*
X127248685Y-102129829D01*
X127258628Y-102122749D01*
X127265517Y-102122111D01*
X127286879Y-102110285D01*
X127312352Y-102073704D01*
X127332544Y-102034102D01*
X127385928Y-101945331D01*
X127459507Y-101857510D01*
X127545967Y-101777878D01*
X127637990Y-101713676D01*
X127677742Y-101692475D01*
X127729636Y-101669012D01*
X127774129Y-101651424D01*
X127803350Y-101642752D01*
X127807463Y-101642333D01*
X127824491Y-101635908D01*
X127831672Y-101612171D01*
X127832556Y-101588593D01*
X127832556Y-101534853D01*
X127925161Y-101512695D01*
X127978683Y-101501160D01*
X128018200Y-101497616D01*
X128056781Y-101502085D01*
X128101549Y-101512987D01*
X128155254Y-101530950D01*
X128183114Y-101548870D01*
X128186833Y-101557135D01*
X128189311Y-101590747D01*
X128190361Y-101604191D01*
X128206011Y-101626842D01*
X128249230Y-101652085D01*
X128272223Y-101662057D01*
X128408830Y-101730535D01*
X128523675Y-101816313D01*
X128618242Y-101920685D01*
X128680138Y-102018155D01*
X128713068Y-102073011D01*
X128741260Y-102107887D01*
X128759279Y-102119171D01*
X128770550Y-102123001D01*
X128778115Y-102133547D01*
X128782679Y-102155539D01*
X128784947Y-102193706D01*
X128785625Y-102252779D01*
X128785577Y-102295530D01*
X128785056Y-102467774D01*
X128835722Y-102494932D01*
X128864636Y-102512061D01*
X128879571Y-102529665D01*
X128884915Y-102557153D01*
X128885111Y-102600795D01*
X128883833Y-102679500D01*
X128834445Y-102686555D01*
X128785056Y-102693611D01*
X128782668Y-103127528D01*
X128780280Y-103561444D01*
X128814418Y-103561444D01*
X128837649Y-103565409D01*
X128847073Y-103582807D01*
X128848556Y-103610238D01*
X128850514Y-103642705D01*
X128862124Y-103655217D01*
X128891994Y-103655597D01*
X128897945Y-103655141D01*
X128930367Y-103654328D01*
X128944163Y-103664081D01*
X128947288Y-103692201D01*
X128947333Y-103703588D01*
X128948929Y-103737788D01*
X128959017Y-103751429D01*
X128985555Y-103752171D01*
X128996722Y-103751139D01*
X129046111Y-103746352D01*
X129306192Y-103746352D01*
X129362689Y-103660369D01*
X129418589Y-103554389D01*
X129492578Y-103380918D01*
X129542411Y-103211201D01*
X129569743Y-103037576D01*
X129576229Y-102852386D01*
X129575646Y-102827667D01*
X129556257Y-102623025D01*
X129511665Y-102427468D01*
X129443686Y-102242527D01*
X129354138Y-102069731D01*
X129244838Y-101910612D01*
X129117603Y-101766698D01*
X128974251Y-101639521D01*
X128816597Y-101530610D01*
X128646460Y-101441496D01*
X128465657Y-101373709D01*
X128276004Y-101328779D01*
X128079319Y-101308237D01*
X127877419Y-101313612D01*
G36*
X127028222Y-103850722D02*
G01*
X127995360Y-103850722D01*
X128158308Y-103850621D01*
X128313132Y-103850331D01*
X128457496Y-103849867D01*
X128589061Y-103849247D01*
X128705491Y-103848487D01*
X128804450Y-103847604D01*
X128883598Y-103846615D01*
X128940601Y-103845536D01*
X128973120Y-103844385D01*
X128979907Y-103843667D01*
X128995463Y-103825177D01*
X128997019Y-103815444D01*
X128994359Y-103811298D01*
X128985248Y-103807695D01*
X128967804Y-103804587D01*
X128940146Y-103801927D01*
X128900392Y-103799667D01*
X128846660Y-103797761D01*
X128777068Y-103796160D01*
X128689734Y-103794818D01*
X128582778Y-103793687D01*
X128454316Y-103792720D01*
X128302467Y-103791869D01*
X128125349Y-103791087D01*
X128012472Y-103790654D01*
X127028222Y-103787030D01*
X127028222Y-103850722D01*
G37*
X127028222Y-103850722D02*
X127995360Y-103850722D01*
X128158308Y-103850621D01*
X128313132Y-103850331D01*
X128457496Y-103849867D01*
X128589061Y-103849247D01*
X128705491Y-103848487D01*
X128804450Y-103847604D01*
X128883598Y-103846615D01*
X128940601Y-103845536D01*
X128973120Y-103844385D01*
X128979907Y-103843667D01*
X128995463Y-103825177D01*
X128997019Y-103815444D01*
X128994359Y-103811298D01*
X128985248Y-103807695D01*
X128967804Y-103804587D01*
X128940146Y-103801927D01*
X128900392Y-103799667D01*
X128846660Y-103797761D01*
X128777068Y-103796160D01*
X128689734Y-103794818D01*
X128582778Y-103793687D01*
X128454316Y-103792720D01*
X128302467Y-103791869D01*
X128125349Y-103791087D01*
X128012472Y-103790654D01*
X127028222Y-103787030D01*
X127028222Y-103850722D01*
G36*
X127129547Y-103734220D02*
G01*
X127134056Y-103765884D01*
X128011746Y-103765982D01*
X128191413Y-103765959D01*
X128344918Y-103765811D01*
X128474321Y-103765482D01*
X128581684Y-103764917D01*
X128669066Y-103764061D01*
X128738528Y-103762857D01*
X128792130Y-103761251D01*
X128831933Y-103759187D01*
X128859997Y-103756609D01*
X128878383Y-103753463D01*
X128889150Y-103749692D01*
X128894360Y-103745241D01*
X128895684Y-103742190D01*
X128897169Y-103717676D01*
X128894058Y-103710428D01*
X128878934Y-103709043D01*
X128838007Y-103707736D01*
X128773699Y-103706527D01*
X128688429Y-103705440D01*
X128584617Y-103704494D01*
X128464683Y-103703711D01*
X128331049Y-103703114D01*
X128186132Y-103702723D01*
X128032355Y-103702559D01*
X128005611Y-103702555D01*
X127125037Y-103702555D01*
X127129547Y-103734220D01*
G37*
X127129547Y-103734220D02*
X127134056Y-103765884D01*
X128011746Y-103765982D01*
X128191413Y-103765959D01*
X128344918Y-103765811D01*
X128474321Y-103765482D01*
X128581684Y-103764917D01*
X128669066Y-103764061D01*
X128738528Y-103762857D01*
X128792130Y-103761251D01*
X128831933Y-103759187D01*
X128859997Y-103756609D01*
X128878383Y-103753463D01*
X128889150Y-103749692D01*
X128894360Y-103745241D01*
X128895684Y-103742190D01*
X128897169Y-103717676D01*
X128894058Y-103710428D01*
X128878934Y-103709043D01*
X128838007Y-103707736D01*
X128773699Y-103706527D01*
X128688429Y-103705440D01*
X128584617Y-103704494D01*
X128464683Y-103703711D01*
X128331049Y-103703114D01*
X128186132Y-103702723D01*
X128032355Y-103702559D01*
X128005611Y-103702555D01*
X127125037Y-103702555D01*
X127129547Y-103734220D01*
G36*
X128001889Y-103610492D02*
G01*
X127833536Y-103610634D01*
X127691218Y-103610850D01*
X127572750Y-103611220D01*
X127475944Y-103611824D01*
X127398615Y-103612741D01*
X127338574Y-103614053D01*
X127293637Y-103615839D01*
X127261616Y-103618179D01*
X127240325Y-103621153D01*
X127227578Y-103624841D01*
X127221187Y-103629324D01*
X127218967Y-103634681D01*
X127218722Y-103639169D01*
X127219299Y-103645177D01*
X127222475Y-103650274D01*
X127230423Y-103654548D01*
X127245315Y-103658085D01*
X127269323Y-103660971D01*
X127304618Y-103663295D01*
X127353372Y-103665143D01*
X127417757Y-103666602D01*
X127499944Y-103667758D01*
X127602106Y-103668698D01*
X127726414Y-103669510D01*
X127875040Y-103670280D01*
X128012472Y-103670923D01*
X128188442Y-103671614D01*
X128338033Y-103671922D01*
X128463085Y-103671814D01*
X128565439Y-103671257D01*
X128646937Y-103670220D01*
X128709418Y-103668668D01*
X128754725Y-103666569D01*
X128784696Y-103663891D01*
X128801174Y-103660601D01*
X128806006Y-103656812D01*
X128798070Y-103628785D01*
X128795423Y-103624490D01*
X128778646Y-103620836D01*
X128733886Y-103617734D01*
X128661106Y-103615183D01*
X128560269Y-103613183D01*
X128431340Y-103611732D01*
X128274282Y-103610830D01*
X128089059Y-103610477D01*
X128001889Y-103610492D01*
G37*
X128001889Y-103610492D02*
X127833536Y-103610634D01*
X127691218Y-103610850D01*
X127572750Y-103611220D01*
X127475944Y-103611824D01*
X127398615Y-103612741D01*
X127338574Y-103614053D01*
X127293637Y-103615839D01*
X127261616Y-103618179D01*
X127240325Y-103621153D01*
X127227578Y-103624841D01*
X127221187Y-103629324D01*
X127218967Y-103634681D01*
X127218722Y-103639169D01*
X127219299Y-103645177D01*
X127222475Y-103650274D01*
X127230423Y-103654548D01*
X127245315Y-103658085D01*
X127269323Y-103660971D01*
X127304618Y-103663295D01*
X127353372Y-103665143D01*
X127417757Y-103666602D01*
X127499944Y-103667758D01*
X127602106Y-103668698D01*
X127726414Y-103669510D01*
X127875040Y-103670280D01*
X128012472Y-103670923D01*
X128188442Y-103671614D01*
X128338033Y-103671922D01*
X128463085Y-103671814D01*
X128565439Y-103671257D01*
X128646937Y-103670220D01*
X128709418Y-103668668D01*
X128754725Y-103666569D01*
X128784696Y-103663891D01*
X128801174Y-103660601D01*
X128806006Y-103656812D01*
X128798070Y-103628785D01*
X128795423Y-103624490D01*
X128778646Y-103620836D01*
X128733886Y-103617734D01*
X128661106Y-103615183D01*
X128560269Y-103613183D01*
X128431340Y-103611732D01*
X128274282Y-103610830D01*
X128089059Y-103610477D01*
X128001889Y-103610492D01*
G36*
X128661635Y-102689346D02*
G01*
X128587604Y-102693611D01*
X128586753Y-103109889D01*
X128586729Y-103216069D01*
X128587075Y-103313449D01*
X128587748Y-103398349D01*
X128588708Y-103467093D01*
X128589910Y-103516004D01*
X128591314Y-103541403D01*
X128591739Y-103543805D01*
X128609462Y-103555384D01*
X128649830Y-103561069D01*
X128666621Y-103561444D01*
X128735667Y-103561444D01*
X128735667Y-102685081D01*
X128661635Y-102689346D01*
G37*
X128661635Y-102689346D02*
X128587604Y-102693611D01*
X128586753Y-103109889D01*
X128586729Y-103216069D01*
X128587075Y-103313449D01*
X128587748Y-103398349D01*
X128588708Y-103467093D01*
X128589910Y-103516004D01*
X128591314Y-103541403D01*
X128591739Y-103543805D01*
X128609462Y-103555384D01*
X128649830Y-103561069D01*
X128666621Y-103561444D01*
X128735667Y-103561444D01*
X128735667Y-102685081D01*
X128661635Y-102689346D01*
G36*
X128333500Y-103554389D02*
G01*
X128399250Y-103558637D01*
X128439249Y-103558946D01*
X128465655Y-103554883D01*
X128470692Y-103551582D01*
X128472093Y-103535127D01*
X128473310Y-103494023D01*
X128474303Y-103431843D01*
X128475032Y-103352161D01*
X128475459Y-103258548D01*
X128475544Y-103154579D01*
X128475487Y-103116944D01*
X128474590Y-102693611D01*
X128333500Y-102693611D01*
X128333500Y-103554389D01*
G37*
X128333500Y-103554389D02*
X128399250Y-103558637D01*
X128439249Y-103558946D01*
X128465655Y-103554883D01*
X128470692Y-103551582D01*
X128472093Y-103535127D01*
X128473310Y-103494023D01*
X128474303Y-103431843D01*
X128475032Y-103352161D01*
X128475459Y-103258548D01*
X128475544Y-103154579D01*
X128475487Y-103116944D01*
X128474590Y-102693611D01*
X128333500Y-102693611D01*
X128333500Y-103554389D01*
G36*
X128072445Y-103561444D02*
G01*
X128213556Y-103561444D01*
X128213556Y-102686555D01*
X128072445Y-102686555D01*
X128072445Y-103561444D01*
G37*
X128072445Y-103561444D02*
X128213556Y-103561444D01*
X128213556Y-102686555D01*
X128072445Y-102686555D01*
X128072445Y-103561444D01*
G36*
X127809090Y-103127528D02*
G01*
X127806792Y-103561444D01*
X127874609Y-103561444D01*
X127920377Y-103557846D01*
X127945515Y-103547932D01*
X127948249Y-103543805D01*
X127949698Y-103525674D01*
X127950956Y-103482998D01*
X127951982Y-103419455D01*
X127952733Y-103338722D01*
X127953168Y-103244477D01*
X127953244Y-103140398D01*
X127953196Y-103109889D01*
X127952318Y-102693611D01*
X127811389Y-102693611D01*
X127809090Y-103127528D01*
G37*
X127809090Y-103127528D02*
X127806792Y-103561444D01*
X127874609Y-103561444D01*
X127920377Y-103557846D01*
X127945515Y-103547932D01*
X127948249Y-103543805D01*
X127949698Y-103525674D01*
X127950956Y-103482998D01*
X127951982Y-103419455D01*
X127952733Y-103338722D01*
X127953168Y-103244477D01*
X127953244Y-103140398D01*
X127953196Y-103109889D01*
X127952318Y-102693611D01*
X127811389Y-102693611D01*
X127809090Y-103127528D01*
G36*
X127550333Y-103561444D02*
G01*
X127691445Y-103561444D01*
X127691445Y-102686555D01*
X127550333Y-102686555D01*
X127550333Y-103561444D01*
G37*
X127550333Y-103561444D02*
X127691445Y-103561444D01*
X127691445Y-102686555D01*
X127550333Y-102686555D01*
X127550333Y-103561444D01*
G36*
X127288628Y-103109889D02*
G01*
X127288559Y-103216069D01*
X127288867Y-103313448D01*
X127289511Y-103398349D01*
X127290450Y-103467093D01*
X127291642Y-103516004D01*
X127293047Y-103541403D01*
X127293474Y-103543805D01*
X127311214Y-103555382D01*
X127351512Y-103561071D01*
X127368186Y-103561444D01*
X127437019Y-103561444D01*
X127433704Y-103127528D01*
X127430389Y-102693611D01*
X127289661Y-102693611D01*
X127288628Y-103109889D01*
G37*
X127288628Y-103109889D02*
X127288559Y-103216069D01*
X127288867Y-103313448D01*
X127289511Y-103398349D01*
X127290450Y-103467093D01*
X127291642Y-103516004D01*
X127293047Y-103541403D01*
X127293474Y-103543805D01*
X127311214Y-103555382D01*
X127351512Y-103561071D01*
X127368186Y-103561444D01*
X127437019Y-103561444D01*
X127433704Y-103127528D01*
X127430389Y-102693611D01*
X127289661Y-102693611D01*
X127288628Y-103109889D01*
G36*
X127601791Y-102352352D02*
G01*
X127190500Y-102541551D01*
X127186121Y-102592886D01*
X127181741Y-102644222D01*
X128842812Y-102644222D01*
X128840448Y-102605417D01*
X128838957Y-102584870D01*
X128795822Y-102584870D01*
X128791996Y-102596111D01*
X128776760Y-102601889D01*
X128757275Y-102603229D01*
X128712428Y-102604354D01*
X128645079Y-102605249D01*
X128558087Y-102605899D01*
X128454313Y-102606288D01*
X128336615Y-102606402D01*
X128207854Y-102606224D01*
X128070888Y-102605741D01*
X128061044Y-102605695D01*
X127921628Y-102605037D01*
X127788589Y-102604413D01*
X127665044Y-102603836D01*
X127554109Y-102603320D01*
X127458902Y-102602882D01*
X127382540Y-102602534D01*
X127328139Y-102602291D01*
X127298817Y-102602168D01*
X127298685Y-102602167D01*
X127251350Y-102599513D01*
X127230151Y-102591725D01*
X127229029Y-102585080D01*
X127243346Y-102573074D01*
X127278368Y-102552473D01*
X127328975Y-102526073D01*
X127390051Y-102496667D01*
X127396010Y-102493911D01*
X127507061Y-102442733D01*
X127596591Y-102401451D01*
X127668718Y-102368160D01*
X127727559Y-102340957D01*
X127777229Y-102317938D01*
X127821847Y-102297198D01*
X127865529Y-102276835D01*
X127881945Y-102269170D01*
X127935153Y-102245519D01*
X127980249Y-102227663D01*
X128010036Y-102218367D01*
X128016000Y-102217661D01*
X128036293Y-102223913D01*
X128076360Y-102240096D01*
X128130587Y-102263823D01*
X128193354Y-102292710D01*
X128199445Y-102295583D01*
X128336346Y-102360000D01*
X128461120Y-102418017D01*
X128586943Y-102475734D01*
X128672167Y-102514455D01*
X128737644Y-102545493D01*
X128778284Y-102568481D01*
X128795822Y-102584870D01*
X128838957Y-102584870D01*
X128838080Y-102572799D01*
X128836264Y-102555439D01*
X128823475Y-102544845D01*
X128790934Y-102526236D01*
X128744715Y-102502979D01*
X128725083Y-102493742D01*
X128666548Y-102466548D01*
X128592862Y-102432095D01*
X128514372Y-102395231D01*
X128455223Y-102367331D01*
X128394126Y-102338601D01*
X128343002Y-102314860D01*
X128306838Y-102298401D01*
X128290619Y-102291518D01*
X128290265Y-102291444D01*
X128276479Y-102285816D01*
X128242640Y-102270585D01*
X128194198Y-102248235D01*
X128149445Y-102227299D01*
X128013082Y-102163154D01*
X127601791Y-102352352D01*
G37*
X127601791Y-102352352D02*
X127190500Y-102541551D01*
X127186121Y-102592886D01*
X127181741Y-102644222D01*
X128842812Y-102644222D01*
X128840448Y-102605417D01*
X128838957Y-102584870D01*
X128795822Y-102584870D01*
X128791996Y-102596111D01*
X128776760Y-102601889D01*
X128757275Y-102603229D01*
X128712428Y-102604354D01*
X128645079Y-102605249D01*
X128558087Y-102605899D01*
X128454313Y-102606288D01*
X128336615Y-102606402D01*
X128207854Y-102606224D01*
X128070888Y-102605741D01*
X128061044Y-102605695D01*
X127921628Y-102605037D01*
X127788589Y-102604413D01*
X127665044Y-102603836D01*
X127554109Y-102603320D01*
X127458902Y-102602882D01*
X127382540Y-102602534D01*
X127328139Y-102602291D01*
X127298817Y-102602168D01*
X127298685Y-102602167D01*
X127251350Y-102599513D01*
X127230151Y-102591725D01*
X127229029Y-102585080D01*
X127243346Y-102573074D01*
X127278368Y-102552473D01*
X127328975Y-102526073D01*
X127390051Y-102496667D01*
X127396010Y-102493911D01*
X127507061Y-102442733D01*
X127596591Y-102401451D01*
X127668718Y-102368160D01*
X127727559Y-102340957D01*
X127777229Y-102317938D01*
X127821847Y-102297198D01*
X127865529Y-102276835D01*
X127881945Y-102269170D01*
X127935153Y-102245519D01*
X127980249Y-102227663D01*
X128010036Y-102218367D01*
X128016000Y-102217661D01*
X128036293Y-102223913D01*
X128076360Y-102240096D01*
X128130587Y-102263823D01*
X128193354Y-102292710D01*
X128199445Y-102295583D01*
X128336346Y-102360000D01*
X128461120Y-102418017D01*
X128586943Y-102475734D01*
X128672167Y-102514455D01*
X128737644Y-102545493D01*
X128778284Y-102568481D01*
X128795822Y-102584870D01*
X128838957Y-102584870D01*
X128838080Y-102572799D01*
X128836264Y-102555439D01*
X128823475Y-102544845D01*
X128790934Y-102526236D01*
X128744715Y-102502979D01*
X128725083Y-102493742D01*
X128666548Y-102466548D01*
X128592862Y-102432095D01*
X128514372Y-102395231D01*
X128455223Y-102367331D01*
X128394126Y-102338601D01*
X128343002Y-102314860D01*
X128306838Y-102298401D01*
X128290619Y-102291518D01*
X128290265Y-102291444D01*
X128276479Y-102285816D01*
X128242640Y-102270585D01*
X128194198Y-102248235D01*
X128149445Y-102227299D01*
X128013082Y-102163154D01*
X127601791Y-102352352D01*
G36*
X128234722Y-102215060D02*
G01*
X128289519Y-102241699D01*
X128355013Y-102273094D01*
X128426643Y-102307109D01*
X128499844Y-102341608D01*
X128570053Y-102374457D01*
X128632709Y-102403519D01*
X128683247Y-102426659D01*
X128717105Y-102441742D01*
X128729612Y-102446667D01*
X128732165Y-102433556D01*
X128734186Y-102398227D01*
X128735415Y-102346682D01*
X128735667Y-102306885D01*
X128735667Y-102167103D01*
X128435806Y-102166813D01*
X128135945Y-102166524D01*
X128234722Y-102215060D01*
G37*
X128234722Y-102215060D02*
X128289519Y-102241699D01*
X128355013Y-102273094D01*
X128426643Y-102307109D01*
X128499844Y-102341608D01*
X128570053Y-102374457D01*
X128632709Y-102403519D01*
X128683247Y-102426659D01*
X128717105Y-102441742D01*
X128729612Y-102446667D01*
X128732165Y-102433556D01*
X128734186Y-102398227D01*
X128735415Y-102346682D01*
X128735667Y-102306885D01*
X128735667Y-102167103D01*
X128435806Y-102166813D01*
X128135945Y-102166524D01*
X128234722Y-102215060D01*
G36*
X127282222Y-102306143D02*
G01*
X127283208Y-102365072D01*
X127285865Y-102411577D01*
X127289744Y-102439743D01*
X127292806Y-102445409D01*
X127308326Y-102439311D01*
X127345276Y-102423071D01*
X127399541Y-102398550D01*
X127467008Y-102367609D01*
X127543563Y-102332108D01*
X127550333Y-102328951D01*
X127630853Y-102291338D01*
X127705770Y-102256251D01*
X127770077Y-102226042D01*
X127818764Y-102203062D01*
X127846667Y-102189743D01*
X127861844Y-102181897D01*
X127868818Y-102175977D01*
X127864680Y-102171711D01*
X127846521Y-102168827D01*
X127811432Y-102167054D01*
X127756504Y-102166118D01*
X127678828Y-102165750D01*
X127589139Y-102165678D01*
X127282222Y-102165620D01*
X127282222Y-102306143D01*
G37*
X127282222Y-102306143D02*
X127283208Y-102365072D01*
X127285865Y-102411577D01*
X127289744Y-102439743D01*
X127292806Y-102445409D01*
X127308326Y-102439311D01*
X127345276Y-102423071D01*
X127399541Y-102398550D01*
X127467008Y-102367609D01*
X127543563Y-102332108D01*
X127550333Y-102328951D01*
X127630853Y-102291338D01*
X127705770Y-102256251D01*
X127770077Y-102226042D01*
X127818764Y-102203062D01*
X127846667Y-102189743D01*
X127861844Y-102181897D01*
X127868818Y-102175977D01*
X127864680Y-102171711D01*
X127846521Y-102168827D01*
X127811432Y-102167054D01*
X127756504Y-102166118D01*
X127678828Y-102165750D01*
X127589139Y-102165678D01*
X127282222Y-102165620D01*
X127282222Y-102306143D01*
G36*
X127866736Y-101680054D02*
G01*
X127754706Y-101711926D01*
X127697415Y-101736375D01*
X127620251Y-101782869D01*
X127543428Y-101844596D01*
X127472666Y-101915543D01*
X127413684Y-101989693D01*
X127372200Y-102061031D01*
X127360845Y-102090361D01*
X127350876Y-102122111D01*
X128680877Y-102122111D01*
X128635585Y-102037133D01*
X128563704Y-101930764D01*
X128469614Y-101836206D01*
X128358197Y-101757374D01*
X128234337Y-101698179D01*
X128196020Y-101685003D01*
X128095924Y-101665714D01*
X127983319Y-101664358D01*
X127866736Y-101680054D01*
G37*
X127866736Y-101680054D02*
X127754706Y-101711926D01*
X127697415Y-101736375D01*
X127620251Y-101782869D01*
X127543428Y-101844596D01*
X127472666Y-101915543D01*
X127413684Y-101989693D01*
X127372200Y-102061031D01*
X127360845Y-102090361D01*
X127350876Y-102122111D01*
X128680877Y-102122111D01*
X128635585Y-102037133D01*
X128563704Y-101930764D01*
X128469614Y-101836206D01*
X128358197Y-101757374D01*
X128234337Y-101698179D01*
X128196020Y-101685003D01*
X128095924Y-101665714D01*
X127983319Y-101664358D01*
X127866736Y-101680054D01*
G36*
X127970412Y-101551418D02*
G01*
X127938389Y-101560123D01*
X127895152Y-101578041D01*
X127879511Y-101593303D01*
X127890925Y-101605444D01*
X127928852Y-101613997D01*
X127992751Y-101618498D01*
X128006603Y-101618834D01*
X128062842Y-101619253D01*
X128107331Y-101618393D01*
X128133313Y-101616436D01*
X128137130Y-101615287D01*
X128143808Y-101594965D01*
X128124020Y-101576051D01*
X128079523Y-101560031D01*
X128068917Y-101557546D01*
X128014171Y-101548808D01*
X127970412Y-101551418D01*
G37*
X127970412Y-101551418D02*
X127938389Y-101560123D01*
X127895152Y-101578041D01*
X127879511Y-101593303D01*
X127890925Y-101605444D01*
X127928852Y-101613997D01*
X127992751Y-101618498D01*
X128006603Y-101618834D01*
X128062842Y-101619253D01*
X128107331Y-101618393D01*
X128133313Y-101616436D01*
X128137130Y-101615287D01*
X128143808Y-101594965D01*
X128124020Y-101576051D01*
X128079523Y-101560031D01*
X128068917Y-101557546D01*
X128014171Y-101548808D01*
X127970412Y-101551418D01*
G36*
X127846126Y-102323318D02*
G01*
X127767865Y-102359662D01*
X127675550Y-102402124D01*
X127580907Y-102445331D01*
X127498453Y-102482653D01*
X127433166Y-102512680D01*
X127378860Y-102538892D01*
X127339877Y-102559096D01*
X127320558Y-102571098D01*
X127319364Y-102573178D01*
X127334138Y-102574417D01*
X127373717Y-102575563D01*
X127434829Y-102576608D01*
X127514207Y-102577546D01*
X127608581Y-102578368D01*
X127714683Y-102579067D01*
X127829243Y-102579637D01*
X127948993Y-102580070D01*
X128070662Y-102580358D01*
X128190984Y-102580494D01*
X128306687Y-102580471D01*
X128414504Y-102580282D01*
X128511166Y-102579920D01*
X128593403Y-102579376D01*
X128657946Y-102578644D01*
X128701526Y-102577717D01*
X128720875Y-102576587D01*
X128721556Y-102576309D01*
X128709712Y-102568820D01*
X128678420Y-102553081D01*
X128634038Y-102532267D01*
X128626306Y-102528749D01*
X128561438Y-102499267D01*
X128488369Y-102465911D01*
X128432278Y-102440201D01*
X128378632Y-102415651D01*
X128308923Y-102383903D01*
X128232815Y-102349352D01*
X128170682Y-102321230D01*
X128007863Y-102247660D01*
X127846126Y-102323318D01*
G37*
X127846126Y-102323318D02*
X127767865Y-102359662D01*
X127675550Y-102402124D01*
X127580907Y-102445331D01*
X127498453Y-102482653D01*
X127433166Y-102512680D01*
X127378860Y-102538892D01*
X127339877Y-102559096D01*
X127320558Y-102571098D01*
X127319364Y-102573178D01*
X127334138Y-102574417D01*
X127373717Y-102575563D01*
X127434829Y-102576608D01*
X127514207Y-102577546D01*
X127608581Y-102578368D01*
X127714683Y-102579067D01*
X127829243Y-102579637D01*
X127948993Y-102580070D01*
X128070662Y-102580358D01*
X128190984Y-102580494D01*
X128306687Y-102580471D01*
X128414504Y-102580282D01*
X128511166Y-102579920D01*
X128593403Y-102579376D01*
X128657946Y-102578644D01*
X128701526Y-102577717D01*
X128720875Y-102576587D01*
X128721556Y-102576309D01*
X128709712Y-102568820D01*
X128678420Y-102553081D01*
X128634038Y-102532267D01*
X128626306Y-102528749D01*
X128561438Y-102499267D01*
X128488369Y-102465911D01*
X128432278Y-102440201D01*
X128378632Y-102415651D01*
X128308923Y-102383903D01*
X128232815Y-102349352D01*
X128170682Y-102321230D01*
X128007863Y-102247660D01*
X127846126Y-102323318D01*
D12*
%TO.C,J101*%
X116145000Y-133410000D02*
X116145000Y-130750000D01*
X126365000Y-133410000D02*
X116145000Y-133410000D01*
X126365000Y-130750000D02*
X116145000Y-130750000D01*
X126365000Y-133410000D02*
X126365000Y-130750000D01*
X127635000Y-133410000D02*
X128965000Y-133410000D01*
X128965000Y-133410000D02*
X128965000Y-132080000D01*
D10*
X130243190Y-132733142D02*
X129880333Y-132733142D01*
X129807761Y-132757333D01*
X129759380Y-132805714D01*
X129735190Y-132878285D01*
X129735190Y-132926666D01*
X129735190Y-132225142D02*
X129735190Y-132515428D01*
X129735190Y-132370285D02*
X130243190Y-132370285D01*
X130170619Y-132418666D01*
X130122238Y-132467047D01*
X130098047Y-132515428D01*
X130243190Y-131910666D02*
X130243190Y-131862285D01*
X130219000Y-131813904D01*
X130194809Y-131789714D01*
X130146428Y-131765523D01*
X130049666Y-131741333D01*
X129928714Y-131741333D01*
X129831952Y-131765523D01*
X129783571Y-131789714D01*
X129759380Y-131813904D01*
X129735190Y-131862285D01*
X129735190Y-131910666D01*
X129759380Y-131959047D01*
X129783571Y-131983238D01*
X129831952Y-132007428D01*
X129928714Y-132031619D01*
X130049666Y-132031619D01*
X130146428Y-132007428D01*
X130194809Y-131983238D01*
X130219000Y-131959047D01*
X130243190Y-131910666D01*
X129735190Y-131257523D02*
X129735190Y-131547809D01*
X129735190Y-131402666D02*
X130243190Y-131402666D01*
X130170619Y-131451047D01*
X130122238Y-131499428D01*
X130098047Y-131547809D01*
%TD*%
M02*
