%TF.GenerationSoftware,KiCad,Pcbnew,(5.1.6)-1*%
%TF.CreationDate,2021-05-29T12:16:40-05:00*%
%TF.ProjectId,Sapphire_AnalogMic,53617070-6869-4726-955f-416e616c6f67,rev?*%
%TF.SameCoordinates,Original*%
%TF.FileFunction,Copper,L2,Bot*%
%TF.FilePolarity,Positive*%
%FSLAX46Y46*%
G04 Gerber Fmt 4.6, Leading zero omitted, Abs format (unit mm)*
G04 Created by KiCad (PCBNEW (5.1.6)-1) date 2021-05-29 12:16:40*
%MOMM*%
%LPD*%
G01*
G04 APERTURE LIST*
%TA.AperFunction,ComponentPad*%
%ADD10C,1.440000*%
%TD*%
%TA.AperFunction,ComponentPad*%
%ADD11O,1.700000X1.700000*%
%TD*%
%TA.AperFunction,ComponentPad*%
%ADD12R,1.700000X1.700000*%
%TD*%
%TA.AperFunction,ViaPad*%
%ADD13C,0.800000*%
%TD*%
%TA.AperFunction,Conductor*%
%ADD14C,0.250000*%
%TD*%
%TA.AperFunction,Conductor*%
%ADD15C,0.254000*%
%TD*%
G04 APERTURE END LIST*
D10*
%TO.P,RV101,3*%
%TO.N,Net-(R106-Pad2)*%
X113030000Y-117348000D03*
%TO.P,RV101,2*%
X113030000Y-114808000D03*
%TO.P,RV101,1*%
%TO.N,/MIC_REF*%
X113030000Y-112268000D03*
%TD*%
D11*
%TO.P,MK101,2*%
%TO.N,/MIC_OUT*%
X111125000Y-132715000D03*
D12*
%TO.P,MK101,1*%
%TO.N,GNDA*%
X111125000Y-130175000D03*
%TD*%
D11*
%TO.P,J101,5*%
%TO.N,/I2C_SDA*%
X117475000Y-132080000D03*
%TO.P,J101,4*%
%TO.N,/I2C_SCL*%
X120015000Y-132080000D03*
%TO.P,J101,3*%
%TO.N,/PGND*%
X122555000Y-132080000D03*
%TO.P,J101,2*%
%TO.N,/FILTER_CLOCK*%
X125095000Y-132080000D03*
D12*
%TO.P,J101,1*%
%TO.N,/P3V3*%
X127635000Y-132080000D03*
%TD*%
D13*
%TO.N,GNDA*%
X116840000Y-119380000D03*
X127635000Y-108585000D03*
X123825000Y-125730000D03*
X116840000Y-123825000D03*
X116825642Y-129540997D03*
X119380000Y-105410000D03*
X129449990Y-120650000D03*
X123956913Y-111891913D03*
X130059331Y-107938403D03*
X112395000Y-124460000D03*
X116205000Y-102870000D03*
%TO.N,+3.3VADC*%
X127000000Y-113665000D03*
X128270000Y-111760000D03*
X129540000Y-127635000D03*
X131639934Y-108585000D03*
%TO.N,+1V5*%
X122555000Y-118110000D03*
X122651503Y-116154186D03*
X122428000Y-109982000D03*
X118745000Y-110363000D03*
%TO.N,/FILTER_CLOCK*%
X130175000Y-132715000D03*
X132080000Y-132715000D03*
X131445000Y-110490000D03*
X132080000Y-112304990D03*
%TO.N,+3V0*%
X128905000Y-108585000D03*
X126365000Y-125095000D03*
X119380000Y-125730000D03*
X116586000Y-127000000D03*
%TO.N,/I2C_SCL*%
X131445000Y-102870000D03*
X130629989Y-124781649D03*
%TO.N,/RgB*%
X123873900Y-120497501D03*
X121285000Y-117474992D03*
%TO.N,/FILTER_IN*%
X123825000Y-116205000D03*
X123825000Y-118110000D03*
%TO.N,Net-(JP104-Pad2)*%
X119380000Y-111760000D03*
X121385970Y-111761326D03*
%TO.N,/MIC_OUT*%
X119380000Y-113665000D03*
X116840000Y-114300010D03*
X115570000Y-125792490D03*
X115570000Y-127381000D03*
%TD*%
D14*
%TO.N,GNDA*%
X127635000Y-105410000D02*
X130059331Y-107834331D01*
X130059331Y-107834331D02*
X130059331Y-107938403D01*
%TO.N,+3.3VADC*%
X127000000Y-113665000D02*
X127000000Y-113030000D01*
X127000000Y-113030000D02*
X128270000Y-111760000D01*
X130719998Y-110141998D02*
X131639934Y-109222062D01*
X131354999Y-125820001D02*
X131354999Y-111473003D01*
X130719998Y-110838002D02*
X130719998Y-110141998D01*
X131354999Y-111473003D02*
X130719998Y-110838002D01*
X129540000Y-127635000D02*
X131354999Y-125820001D01*
X131639934Y-109222062D02*
X131639934Y-108585000D01*
%TO.N,+1V5*%
X122555000Y-118110000D02*
X122555000Y-116250689D01*
X122555000Y-116250689D02*
X122651503Y-116154186D01*
X122428000Y-109982000D02*
X119253000Y-109982000D01*
X119253000Y-109982000D02*
X119126000Y-109982000D01*
X119126000Y-109982000D02*
X118745000Y-110363000D01*
%TO.N,/FILTER_CLOCK*%
X130175000Y-132715000D02*
X132080000Y-132715000D01*
X132080000Y-111125000D02*
X132080000Y-112304990D01*
X131445000Y-110490000D02*
X132080000Y-111125000D01*
%TO.N,+3V0*%
X128905000Y-108585000D02*
X128905000Y-110295825D01*
X126764999Y-124695001D02*
X126365000Y-125095000D01*
X130454977Y-111845802D02*
X130454977Y-121005024D01*
X130454977Y-121005024D02*
X126764999Y-124695001D01*
X128905000Y-110295825D02*
X130454977Y-111845802D01*
X119380000Y-125730000D02*
X117856000Y-125730000D01*
X117856000Y-125730000D02*
X116586000Y-127000000D01*
%TO.N,/PGND*%
X129540000Y-129540000D02*
X132080000Y-129540000D01*
X132080000Y-114300000D02*
X132080000Y-129540000D01*
X132080000Y-129540000D02*
X132080000Y-131445000D01*
X132080000Y-114300000D02*
X132080000Y-113665000D01*
X132080000Y-113665000D02*
X132080000Y-113030000D01*
X129540000Y-129540000D02*
X125095000Y-129540000D01*
%TO.N,/I2C_SCL*%
X131445000Y-102870000D02*
X131445000Y-107511996D01*
X130904988Y-124506650D02*
X130629989Y-124781649D01*
X130269987Y-109955598D02*
X130269987Y-111024402D01*
X130904988Y-111659403D02*
X130904988Y-124506650D01*
X130719998Y-108236998D02*
X130719998Y-109505587D01*
X130719998Y-109505587D02*
X130269987Y-109955598D01*
X130269987Y-111024402D02*
X130904988Y-111659403D01*
X131445000Y-107511996D02*
X130719998Y-108236998D01*
%TO.N,/RgB*%
X123873900Y-120497501D02*
X121285000Y-117908601D01*
X121285000Y-117908601D02*
X121285000Y-117474992D01*
%TO.N,/FILTER_IN*%
X123825000Y-116205000D02*
X123825000Y-118110000D01*
%TO.N,Net-(JP104-Pad2)*%
X121384644Y-111760000D02*
X121385970Y-111761326D01*
X119380000Y-111760000D02*
X121384644Y-111760000D01*
%TO.N,/MIC_OUT*%
X119380000Y-113665000D02*
X118744990Y-114300010D01*
X118744990Y-114300010D02*
X116840000Y-114300010D01*
X115570000Y-125792490D02*
X115570000Y-127381000D01*
%TD*%
D15*
%TO.N,GNDA*%
G36*
X131953000Y-101964651D02*
G01*
X131935256Y-101952795D01*
X131746898Y-101874774D01*
X131546939Y-101835000D01*
X131343061Y-101835000D01*
X131143102Y-101874774D01*
X130954744Y-101952795D01*
X130785226Y-102066063D01*
X130641063Y-102210226D01*
X130527795Y-102379744D01*
X130449774Y-102568102D01*
X130410000Y-102768061D01*
X130410000Y-102971939D01*
X130449774Y-103171898D01*
X130527795Y-103360256D01*
X130641063Y-103529774D01*
X130685000Y-103573711D01*
X130685001Y-107197193D01*
X130209000Y-107673195D01*
X130179997Y-107696997D01*
X130124869Y-107764172D01*
X130085024Y-107812722D01*
X130049355Y-107879454D01*
X130014452Y-107944752D01*
X129970995Y-108088013D01*
X129959998Y-108199666D01*
X129959998Y-108199676D01*
X129956322Y-108236998D01*
X129959998Y-108274321D01*
X129959999Y-109190785D01*
X129758990Y-109391794D01*
X129729986Y-109415597D01*
X129674858Y-109482772D01*
X129665000Y-109494783D01*
X129665000Y-109288711D01*
X129708937Y-109244774D01*
X129822205Y-109075256D01*
X129900226Y-108886898D01*
X129940000Y-108686939D01*
X129940000Y-108483061D01*
X129900226Y-108283102D01*
X129822205Y-108094744D01*
X129708937Y-107925226D01*
X129564774Y-107781063D01*
X129395256Y-107667795D01*
X129206898Y-107589774D01*
X129006939Y-107550000D01*
X128803061Y-107550000D01*
X128603102Y-107589774D01*
X128414744Y-107667795D01*
X128245226Y-107781063D01*
X128101063Y-107925226D01*
X127987795Y-108094744D01*
X127909774Y-108283102D01*
X127870000Y-108483061D01*
X127870000Y-108686939D01*
X127909774Y-108886898D01*
X127987795Y-109075256D01*
X128101063Y-109244774D01*
X128145000Y-109288711D01*
X128145001Y-110258493D01*
X128141324Y-110295825D01*
X128145001Y-110333158D01*
X128155998Y-110444811D01*
X128162104Y-110464939D01*
X128199454Y-110588071D01*
X128270026Y-110720101D01*
X128274047Y-110725000D01*
X128168061Y-110725000D01*
X127968102Y-110764774D01*
X127779744Y-110842795D01*
X127610226Y-110956063D01*
X127466063Y-111100226D01*
X127352795Y-111269744D01*
X127274774Y-111458102D01*
X127235000Y-111658061D01*
X127235000Y-111720198D01*
X126488998Y-112466201D01*
X126460000Y-112489999D01*
X126436202Y-112518997D01*
X126436201Y-112518998D01*
X126365026Y-112605724D01*
X126326110Y-112678531D01*
X126294454Y-112737753D01*
X126250997Y-112881014D01*
X126243428Y-112957861D01*
X126196063Y-113005226D01*
X126082795Y-113174744D01*
X126004774Y-113363102D01*
X125965000Y-113563061D01*
X125965000Y-113766939D01*
X126004774Y-113966898D01*
X126082795Y-114155256D01*
X126196063Y-114324774D01*
X126340226Y-114468937D01*
X126509744Y-114582205D01*
X126698102Y-114660226D01*
X126898061Y-114700000D01*
X127101939Y-114700000D01*
X127301898Y-114660226D01*
X127490256Y-114582205D01*
X127659774Y-114468937D01*
X127803937Y-114324774D01*
X127917205Y-114155256D01*
X127995226Y-113966898D01*
X128035000Y-113766939D01*
X128035000Y-113563061D01*
X127995226Y-113363102D01*
X127920969Y-113183832D01*
X128309802Y-112795000D01*
X128371939Y-112795000D01*
X128571898Y-112755226D01*
X128760256Y-112677205D01*
X128929774Y-112563937D01*
X129073937Y-112419774D01*
X129187205Y-112250256D01*
X129265226Y-112061898D01*
X129305000Y-111861939D01*
X129305000Y-111770627D01*
X129694977Y-112160605D01*
X129694978Y-120690221D01*
X126325199Y-124060000D01*
X126263061Y-124060000D01*
X126063102Y-124099774D01*
X125874744Y-124177795D01*
X125705226Y-124291063D01*
X125561063Y-124435226D01*
X125447795Y-124604744D01*
X125369774Y-124793102D01*
X125330000Y-124993061D01*
X125330000Y-125196939D01*
X125369774Y-125396898D01*
X125447795Y-125585256D01*
X125561063Y-125754774D01*
X125705226Y-125898937D01*
X125874744Y-126012205D01*
X126063102Y-126090226D01*
X126263061Y-126130000D01*
X126466939Y-126130000D01*
X126666898Y-126090226D01*
X126855256Y-126012205D01*
X127024774Y-125898937D01*
X127168937Y-125754774D01*
X127282205Y-125585256D01*
X127360226Y-125396898D01*
X127400000Y-125196939D01*
X127400000Y-125134801D01*
X130144989Y-122389814D01*
X130144989Y-123862267D01*
X130139733Y-123864444D01*
X129970215Y-123977712D01*
X129826052Y-124121875D01*
X129712784Y-124291393D01*
X129634763Y-124479751D01*
X129594989Y-124679710D01*
X129594989Y-124883588D01*
X129634763Y-125083547D01*
X129712784Y-125271905D01*
X129826052Y-125441423D01*
X129970215Y-125585586D01*
X130139733Y-125698854D01*
X130324720Y-125775479D01*
X129500199Y-126600000D01*
X129438061Y-126600000D01*
X129238102Y-126639774D01*
X129049744Y-126717795D01*
X128880226Y-126831063D01*
X128736063Y-126975226D01*
X128622795Y-127144744D01*
X128544774Y-127333102D01*
X128505000Y-127533061D01*
X128505000Y-127736939D01*
X128544774Y-127936898D01*
X128622795Y-128125256D01*
X128634651Y-128143000D01*
X123825000Y-128143000D01*
X123800224Y-128145440D01*
X123776399Y-128152667D01*
X123754443Y-128164403D01*
X123735197Y-128180197D01*
X123719403Y-128199443D01*
X123707667Y-128221399D01*
X123700440Y-128245224D01*
X123698000Y-128270000D01*
X123698000Y-130048000D01*
X114935000Y-130048000D01*
X114910224Y-130050440D01*
X114886399Y-130057667D01*
X114864443Y-130069403D01*
X114845197Y-130085197D01*
X114829403Y-130104443D01*
X114817667Y-130126399D01*
X114810440Y-130150224D01*
X114808000Y-130175000D01*
X114808000Y-133858000D01*
X112082107Y-133858000D01*
X112278475Y-133661632D01*
X112440990Y-133418411D01*
X112552932Y-133148158D01*
X112610000Y-132861260D01*
X112610000Y-132568740D01*
X112552932Y-132281842D01*
X112440990Y-132011589D01*
X112278475Y-131768368D01*
X112146620Y-131636513D01*
X112219180Y-131614502D01*
X112329494Y-131555537D01*
X112426185Y-131476185D01*
X112505537Y-131379494D01*
X112564502Y-131269180D01*
X112600812Y-131149482D01*
X112613072Y-131025000D01*
X112610000Y-130460750D01*
X112451250Y-130302000D01*
X111252000Y-130302000D01*
X111252000Y-130322000D01*
X110998000Y-130322000D01*
X110998000Y-130302000D01*
X110978000Y-130302000D01*
X110978000Y-130048000D01*
X110998000Y-130048000D01*
X110998000Y-128848750D01*
X111252000Y-128848750D01*
X111252000Y-130048000D01*
X112451250Y-130048000D01*
X112610000Y-129889250D01*
X112613072Y-129325000D01*
X112600812Y-129200518D01*
X112564502Y-129080820D01*
X112505537Y-128970506D01*
X112426185Y-128873815D01*
X112329494Y-128794463D01*
X112219180Y-128735498D01*
X112099482Y-128699188D01*
X111975000Y-128686928D01*
X111410750Y-128690000D01*
X111252000Y-128848750D01*
X110998000Y-128848750D01*
X110839250Y-128690000D01*
X110275000Y-128686928D01*
X110150518Y-128699188D01*
X110030820Y-128735498D01*
X109982000Y-128761593D01*
X109982000Y-125690551D01*
X114535000Y-125690551D01*
X114535000Y-125894429D01*
X114574774Y-126094388D01*
X114652795Y-126282746D01*
X114766063Y-126452264D01*
X114810000Y-126496201D01*
X114810001Y-126677288D01*
X114766063Y-126721226D01*
X114652795Y-126890744D01*
X114574774Y-127079102D01*
X114535000Y-127279061D01*
X114535000Y-127482939D01*
X114574774Y-127682898D01*
X114652795Y-127871256D01*
X114766063Y-128040774D01*
X114910226Y-128184937D01*
X115079744Y-128298205D01*
X115268102Y-128376226D01*
X115468061Y-128416000D01*
X115671939Y-128416000D01*
X115871898Y-128376226D01*
X116060256Y-128298205D01*
X116229774Y-128184937D01*
X116373937Y-128040774D01*
X116390262Y-128016342D01*
X116484061Y-128035000D01*
X116687939Y-128035000D01*
X116887898Y-127995226D01*
X117076256Y-127917205D01*
X117245774Y-127803937D01*
X117389937Y-127659774D01*
X117503205Y-127490256D01*
X117581226Y-127301898D01*
X117621000Y-127101939D01*
X117621000Y-127039801D01*
X118170802Y-126490000D01*
X118676289Y-126490000D01*
X118720226Y-126533937D01*
X118889744Y-126647205D01*
X119078102Y-126725226D01*
X119278061Y-126765000D01*
X119481939Y-126765000D01*
X119681898Y-126725226D01*
X119870256Y-126647205D01*
X120039774Y-126533937D01*
X120183937Y-126389774D01*
X120297205Y-126220256D01*
X120375226Y-126031898D01*
X120415000Y-125831939D01*
X120415000Y-125628061D01*
X120375226Y-125428102D01*
X120297205Y-125239744D01*
X120183937Y-125070226D01*
X120039774Y-124926063D01*
X119870256Y-124812795D01*
X119681898Y-124734774D01*
X119481939Y-124695000D01*
X119278061Y-124695000D01*
X119078102Y-124734774D01*
X118889744Y-124812795D01*
X118720226Y-124926063D01*
X118676289Y-124970000D01*
X117893322Y-124970000D01*
X117855999Y-124966324D01*
X117818676Y-124970000D01*
X117818667Y-124970000D01*
X117707014Y-124980997D01*
X117563753Y-125024454D01*
X117431724Y-125095026D01*
X117315999Y-125189999D01*
X117292201Y-125218997D01*
X116602078Y-125909121D01*
X116605000Y-125894429D01*
X116605000Y-125690551D01*
X116565226Y-125490592D01*
X116487205Y-125302234D01*
X116373937Y-125132716D01*
X116229774Y-124988553D01*
X116060256Y-124875285D01*
X115871898Y-124797264D01*
X115671939Y-124757490D01*
X115468061Y-124757490D01*
X115268102Y-124797264D01*
X115079744Y-124875285D01*
X114910226Y-124988553D01*
X114766063Y-125132716D01*
X114652795Y-125302234D01*
X114574774Y-125490592D01*
X114535000Y-125690551D01*
X109982000Y-125690551D01*
X109982000Y-112134544D01*
X111675000Y-112134544D01*
X111675000Y-112401456D01*
X111727072Y-112663239D01*
X111829215Y-112909833D01*
X111977503Y-113131762D01*
X112166238Y-113320497D01*
X112388167Y-113468785D01*
X112555266Y-113538000D01*
X112388167Y-113607215D01*
X112166238Y-113755503D01*
X111977503Y-113944238D01*
X111829215Y-114166167D01*
X111727072Y-114412761D01*
X111675000Y-114674544D01*
X111675000Y-114941456D01*
X111727072Y-115203239D01*
X111829215Y-115449833D01*
X111977503Y-115671762D01*
X112166238Y-115860497D01*
X112388167Y-116008785D01*
X112555266Y-116078000D01*
X112388167Y-116147215D01*
X112166238Y-116295503D01*
X111977503Y-116484238D01*
X111829215Y-116706167D01*
X111727072Y-116952761D01*
X111675000Y-117214544D01*
X111675000Y-117481456D01*
X111727072Y-117743239D01*
X111829215Y-117989833D01*
X111977503Y-118211762D01*
X112166238Y-118400497D01*
X112388167Y-118548785D01*
X112634761Y-118650928D01*
X112896544Y-118703000D01*
X113163456Y-118703000D01*
X113425239Y-118650928D01*
X113671833Y-118548785D01*
X113893762Y-118400497D01*
X114082497Y-118211762D01*
X114230785Y-117989833D01*
X114332928Y-117743239D01*
X114385000Y-117481456D01*
X114385000Y-117373053D01*
X120250000Y-117373053D01*
X120250000Y-117576931D01*
X120289774Y-117776890D01*
X120367795Y-117965248D01*
X120481063Y-118134766D01*
X120616555Y-118270258D01*
X120650026Y-118332877D01*
X120689871Y-118381427D01*
X120744999Y-118448602D01*
X120774003Y-118472405D01*
X122838900Y-120537304D01*
X122838900Y-120599440D01*
X122878674Y-120799399D01*
X122956695Y-120987757D01*
X123069963Y-121157275D01*
X123214126Y-121301438D01*
X123383644Y-121414706D01*
X123572002Y-121492727D01*
X123771961Y-121532501D01*
X123975839Y-121532501D01*
X124175798Y-121492727D01*
X124364156Y-121414706D01*
X124533674Y-121301438D01*
X124677837Y-121157275D01*
X124791105Y-120987757D01*
X124869126Y-120799399D01*
X124908900Y-120599440D01*
X124908900Y-120395562D01*
X124869126Y-120195603D01*
X124791105Y-120007245D01*
X124677837Y-119837727D01*
X124533674Y-119693564D01*
X124364156Y-119580296D01*
X124175798Y-119502275D01*
X123975839Y-119462501D01*
X123913703Y-119462501D01*
X123564702Y-119113501D01*
X123723061Y-119145000D01*
X123926939Y-119145000D01*
X124126898Y-119105226D01*
X124315256Y-119027205D01*
X124484774Y-118913937D01*
X124628937Y-118769774D01*
X124742205Y-118600256D01*
X124820226Y-118411898D01*
X124860000Y-118211939D01*
X124860000Y-118008061D01*
X124820226Y-117808102D01*
X124742205Y-117619744D01*
X124628937Y-117450226D01*
X124585000Y-117406289D01*
X124585000Y-116908711D01*
X124628937Y-116864774D01*
X124742205Y-116695256D01*
X124820226Y-116506898D01*
X124860000Y-116306939D01*
X124860000Y-116103061D01*
X124820226Y-115903102D01*
X124742205Y-115714744D01*
X124628937Y-115545226D01*
X124484774Y-115401063D01*
X124315256Y-115287795D01*
X124126898Y-115209774D01*
X123926939Y-115170000D01*
X123723061Y-115170000D01*
X123523102Y-115209774D01*
X123334744Y-115287795D01*
X123276276Y-115326862D01*
X123141759Y-115236981D01*
X122953401Y-115158960D01*
X122753442Y-115119186D01*
X122549564Y-115119186D01*
X122349605Y-115158960D01*
X122161247Y-115236981D01*
X121991729Y-115350249D01*
X121847566Y-115494412D01*
X121734298Y-115663930D01*
X121656277Y-115852288D01*
X121616503Y-116052247D01*
X121616503Y-116256125D01*
X121656277Y-116456084D01*
X121682487Y-116519361D01*
X121586898Y-116479766D01*
X121386939Y-116439992D01*
X121183061Y-116439992D01*
X120983102Y-116479766D01*
X120794744Y-116557787D01*
X120625226Y-116671055D01*
X120481063Y-116815218D01*
X120367795Y-116984736D01*
X120289774Y-117173094D01*
X120250000Y-117373053D01*
X114385000Y-117373053D01*
X114385000Y-117214544D01*
X114332928Y-116952761D01*
X114230785Y-116706167D01*
X114082497Y-116484238D01*
X113893762Y-116295503D01*
X113671833Y-116147215D01*
X113504734Y-116078000D01*
X113671833Y-116008785D01*
X113893762Y-115860497D01*
X114082497Y-115671762D01*
X114230785Y-115449833D01*
X114332928Y-115203239D01*
X114385000Y-114941456D01*
X114385000Y-114674544D01*
X114332928Y-114412761D01*
X114244001Y-114198071D01*
X115805000Y-114198071D01*
X115805000Y-114401949D01*
X115844774Y-114601908D01*
X115922795Y-114790266D01*
X116036063Y-114959784D01*
X116180226Y-115103947D01*
X116349744Y-115217215D01*
X116538102Y-115295236D01*
X116738061Y-115335010D01*
X116941939Y-115335010D01*
X117141898Y-115295236D01*
X117330256Y-115217215D01*
X117499774Y-115103947D01*
X117543711Y-115060010D01*
X118707668Y-115060010D01*
X118744990Y-115063686D01*
X118782312Y-115060010D01*
X118782323Y-115060010D01*
X118893976Y-115049013D01*
X119037237Y-115005556D01*
X119169266Y-114934984D01*
X119284991Y-114840011D01*
X119308793Y-114811008D01*
X119419801Y-114700000D01*
X119481939Y-114700000D01*
X119681898Y-114660226D01*
X119870256Y-114582205D01*
X120039774Y-114468937D01*
X120183937Y-114324774D01*
X120297205Y-114155256D01*
X120375226Y-113966898D01*
X120415000Y-113766939D01*
X120415000Y-113563061D01*
X120375226Y-113363102D01*
X120297205Y-113174744D01*
X120183937Y-113005226D01*
X120039774Y-112861063D01*
X119870256Y-112747795D01*
X119785047Y-112712500D01*
X119870256Y-112677205D01*
X120039774Y-112563937D01*
X120083711Y-112520000D01*
X120680933Y-112520000D01*
X120726196Y-112565263D01*
X120895714Y-112678531D01*
X121084072Y-112756552D01*
X121284031Y-112796326D01*
X121487909Y-112796326D01*
X121687868Y-112756552D01*
X121876226Y-112678531D01*
X122045744Y-112565263D01*
X122189907Y-112421100D01*
X122303175Y-112251582D01*
X122381196Y-112063224D01*
X122420970Y-111863265D01*
X122420970Y-111659387D01*
X122381196Y-111459428D01*
X122303175Y-111271070D01*
X122189907Y-111101552D01*
X122045744Y-110957389D01*
X121992788Y-110922005D01*
X122126102Y-110977226D01*
X122326061Y-111017000D01*
X122529939Y-111017000D01*
X122729898Y-110977226D01*
X122918256Y-110899205D01*
X123087774Y-110785937D01*
X123231937Y-110641774D01*
X123345205Y-110472256D01*
X123423226Y-110283898D01*
X123463000Y-110083939D01*
X123463000Y-109880061D01*
X123423226Y-109680102D01*
X123345205Y-109491744D01*
X123231937Y-109322226D01*
X123087774Y-109178063D01*
X122918256Y-109064795D01*
X122729898Y-108986774D01*
X122529939Y-108947000D01*
X122326061Y-108947000D01*
X122126102Y-108986774D01*
X121937744Y-109064795D01*
X121768226Y-109178063D01*
X121724289Y-109222000D01*
X119163322Y-109222000D01*
X119125999Y-109218324D01*
X119088676Y-109222000D01*
X119088667Y-109222000D01*
X118977014Y-109232997D01*
X118833753Y-109276454D01*
X118737319Y-109328000D01*
X118643061Y-109328000D01*
X118443102Y-109367774D01*
X118254744Y-109445795D01*
X118085226Y-109559063D01*
X117941063Y-109703226D01*
X117827795Y-109872744D01*
X117749774Y-110061102D01*
X117710000Y-110261061D01*
X117710000Y-110464939D01*
X117749774Y-110664898D01*
X117827795Y-110853256D01*
X117941063Y-111022774D01*
X118085226Y-111166937D01*
X118254744Y-111280205D01*
X118428628Y-111352231D01*
X118384774Y-111458102D01*
X118345000Y-111658061D01*
X118345000Y-111861939D01*
X118384774Y-112061898D01*
X118462795Y-112250256D01*
X118576063Y-112419774D01*
X118720226Y-112563937D01*
X118889744Y-112677205D01*
X118974953Y-112712500D01*
X118889744Y-112747795D01*
X118720226Y-112861063D01*
X118576063Y-113005226D01*
X118462795Y-113174744D01*
X118384774Y-113363102D01*
X118349585Y-113540010D01*
X117543711Y-113540010D01*
X117499774Y-113496073D01*
X117330256Y-113382805D01*
X117141898Y-113304784D01*
X116941939Y-113265010D01*
X116738061Y-113265010D01*
X116538102Y-113304784D01*
X116349744Y-113382805D01*
X116180226Y-113496073D01*
X116036063Y-113640236D01*
X115922795Y-113809754D01*
X115844774Y-113998112D01*
X115805000Y-114198071D01*
X114244001Y-114198071D01*
X114230785Y-114166167D01*
X114082497Y-113944238D01*
X113893762Y-113755503D01*
X113671833Y-113607215D01*
X113504734Y-113538000D01*
X113671833Y-113468785D01*
X113893762Y-113320497D01*
X114082497Y-113131762D01*
X114230785Y-112909833D01*
X114332928Y-112663239D01*
X114385000Y-112401456D01*
X114385000Y-112134544D01*
X114332928Y-111872761D01*
X114230785Y-111626167D01*
X114082497Y-111404238D01*
X113893762Y-111215503D01*
X113671833Y-111067215D01*
X113425239Y-110965072D01*
X113163456Y-110913000D01*
X112896544Y-110913000D01*
X112634761Y-110965072D01*
X112388167Y-111067215D01*
X112166238Y-111215503D01*
X111977503Y-111404238D01*
X111829215Y-111626167D01*
X111727072Y-111872761D01*
X111675000Y-112134544D01*
X109982000Y-112134544D01*
X109982000Y-100457000D01*
X131953000Y-100457000D01*
X131953000Y-101964651D01*
G37*
X131953000Y-101964651D02*
X131935256Y-101952795D01*
X131746898Y-101874774D01*
X131546939Y-101835000D01*
X131343061Y-101835000D01*
X131143102Y-101874774D01*
X130954744Y-101952795D01*
X130785226Y-102066063D01*
X130641063Y-102210226D01*
X130527795Y-102379744D01*
X130449774Y-102568102D01*
X130410000Y-102768061D01*
X130410000Y-102971939D01*
X130449774Y-103171898D01*
X130527795Y-103360256D01*
X130641063Y-103529774D01*
X130685000Y-103573711D01*
X130685001Y-107197193D01*
X130209000Y-107673195D01*
X130179997Y-107696997D01*
X130124869Y-107764172D01*
X130085024Y-107812722D01*
X130049355Y-107879454D01*
X130014452Y-107944752D01*
X129970995Y-108088013D01*
X129959998Y-108199666D01*
X129959998Y-108199676D01*
X129956322Y-108236998D01*
X129959998Y-108274321D01*
X129959999Y-109190785D01*
X129758990Y-109391794D01*
X129729986Y-109415597D01*
X129674858Y-109482772D01*
X129665000Y-109494783D01*
X129665000Y-109288711D01*
X129708937Y-109244774D01*
X129822205Y-109075256D01*
X129900226Y-108886898D01*
X129940000Y-108686939D01*
X129940000Y-108483061D01*
X129900226Y-108283102D01*
X129822205Y-108094744D01*
X129708937Y-107925226D01*
X129564774Y-107781063D01*
X129395256Y-107667795D01*
X129206898Y-107589774D01*
X129006939Y-107550000D01*
X128803061Y-107550000D01*
X128603102Y-107589774D01*
X128414744Y-107667795D01*
X128245226Y-107781063D01*
X128101063Y-107925226D01*
X127987795Y-108094744D01*
X127909774Y-108283102D01*
X127870000Y-108483061D01*
X127870000Y-108686939D01*
X127909774Y-108886898D01*
X127987795Y-109075256D01*
X128101063Y-109244774D01*
X128145000Y-109288711D01*
X128145001Y-110258493D01*
X128141324Y-110295825D01*
X128145001Y-110333158D01*
X128155998Y-110444811D01*
X128162104Y-110464939D01*
X128199454Y-110588071D01*
X128270026Y-110720101D01*
X128274047Y-110725000D01*
X128168061Y-110725000D01*
X127968102Y-110764774D01*
X127779744Y-110842795D01*
X127610226Y-110956063D01*
X127466063Y-111100226D01*
X127352795Y-111269744D01*
X127274774Y-111458102D01*
X127235000Y-111658061D01*
X127235000Y-111720198D01*
X126488998Y-112466201D01*
X126460000Y-112489999D01*
X126436202Y-112518997D01*
X126436201Y-112518998D01*
X126365026Y-112605724D01*
X126326110Y-112678531D01*
X126294454Y-112737753D01*
X126250997Y-112881014D01*
X126243428Y-112957861D01*
X126196063Y-113005226D01*
X126082795Y-113174744D01*
X126004774Y-113363102D01*
X125965000Y-113563061D01*
X125965000Y-113766939D01*
X126004774Y-113966898D01*
X126082795Y-114155256D01*
X126196063Y-114324774D01*
X126340226Y-114468937D01*
X126509744Y-114582205D01*
X126698102Y-114660226D01*
X126898061Y-114700000D01*
X127101939Y-114700000D01*
X127301898Y-114660226D01*
X127490256Y-114582205D01*
X127659774Y-114468937D01*
X127803937Y-114324774D01*
X127917205Y-114155256D01*
X127995226Y-113966898D01*
X128035000Y-113766939D01*
X128035000Y-113563061D01*
X127995226Y-113363102D01*
X127920969Y-113183832D01*
X128309802Y-112795000D01*
X128371939Y-112795000D01*
X128571898Y-112755226D01*
X128760256Y-112677205D01*
X128929774Y-112563937D01*
X129073937Y-112419774D01*
X129187205Y-112250256D01*
X129265226Y-112061898D01*
X129305000Y-111861939D01*
X129305000Y-111770627D01*
X129694977Y-112160605D01*
X129694978Y-120690221D01*
X126325199Y-124060000D01*
X126263061Y-124060000D01*
X126063102Y-124099774D01*
X125874744Y-124177795D01*
X125705226Y-124291063D01*
X125561063Y-124435226D01*
X125447795Y-124604744D01*
X125369774Y-124793102D01*
X125330000Y-124993061D01*
X125330000Y-125196939D01*
X125369774Y-125396898D01*
X125447795Y-125585256D01*
X125561063Y-125754774D01*
X125705226Y-125898937D01*
X125874744Y-126012205D01*
X126063102Y-126090226D01*
X126263061Y-126130000D01*
X126466939Y-126130000D01*
X126666898Y-126090226D01*
X126855256Y-126012205D01*
X127024774Y-125898937D01*
X127168937Y-125754774D01*
X127282205Y-125585256D01*
X127360226Y-125396898D01*
X127400000Y-125196939D01*
X127400000Y-125134801D01*
X130144989Y-122389814D01*
X130144989Y-123862267D01*
X130139733Y-123864444D01*
X129970215Y-123977712D01*
X129826052Y-124121875D01*
X129712784Y-124291393D01*
X129634763Y-124479751D01*
X129594989Y-124679710D01*
X129594989Y-124883588D01*
X129634763Y-125083547D01*
X129712784Y-125271905D01*
X129826052Y-125441423D01*
X129970215Y-125585586D01*
X130139733Y-125698854D01*
X130324720Y-125775479D01*
X129500199Y-126600000D01*
X129438061Y-126600000D01*
X129238102Y-126639774D01*
X129049744Y-126717795D01*
X128880226Y-126831063D01*
X128736063Y-126975226D01*
X128622795Y-127144744D01*
X128544774Y-127333102D01*
X128505000Y-127533061D01*
X128505000Y-127736939D01*
X128544774Y-127936898D01*
X128622795Y-128125256D01*
X128634651Y-128143000D01*
X123825000Y-128143000D01*
X123800224Y-128145440D01*
X123776399Y-128152667D01*
X123754443Y-128164403D01*
X123735197Y-128180197D01*
X123719403Y-128199443D01*
X123707667Y-128221399D01*
X123700440Y-128245224D01*
X123698000Y-128270000D01*
X123698000Y-130048000D01*
X114935000Y-130048000D01*
X114910224Y-130050440D01*
X114886399Y-130057667D01*
X114864443Y-130069403D01*
X114845197Y-130085197D01*
X114829403Y-130104443D01*
X114817667Y-130126399D01*
X114810440Y-130150224D01*
X114808000Y-130175000D01*
X114808000Y-133858000D01*
X112082107Y-133858000D01*
X112278475Y-133661632D01*
X112440990Y-133418411D01*
X112552932Y-133148158D01*
X112610000Y-132861260D01*
X112610000Y-132568740D01*
X112552932Y-132281842D01*
X112440990Y-132011589D01*
X112278475Y-131768368D01*
X112146620Y-131636513D01*
X112219180Y-131614502D01*
X112329494Y-131555537D01*
X112426185Y-131476185D01*
X112505537Y-131379494D01*
X112564502Y-131269180D01*
X112600812Y-131149482D01*
X112613072Y-131025000D01*
X112610000Y-130460750D01*
X112451250Y-130302000D01*
X111252000Y-130302000D01*
X111252000Y-130322000D01*
X110998000Y-130322000D01*
X110998000Y-130302000D01*
X110978000Y-130302000D01*
X110978000Y-130048000D01*
X110998000Y-130048000D01*
X110998000Y-128848750D01*
X111252000Y-128848750D01*
X111252000Y-130048000D01*
X112451250Y-130048000D01*
X112610000Y-129889250D01*
X112613072Y-129325000D01*
X112600812Y-129200518D01*
X112564502Y-129080820D01*
X112505537Y-128970506D01*
X112426185Y-128873815D01*
X112329494Y-128794463D01*
X112219180Y-128735498D01*
X112099482Y-128699188D01*
X111975000Y-128686928D01*
X111410750Y-128690000D01*
X111252000Y-128848750D01*
X110998000Y-128848750D01*
X110839250Y-128690000D01*
X110275000Y-128686928D01*
X110150518Y-128699188D01*
X110030820Y-128735498D01*
X109982000Y-128761593D01*
X109982000Y-125690551D01*
X114535000Y-125690551D01*
X114535000Y-125894429D01*
X114574774Y-126094388D01*
X114652795Y-126282746D01*
X114766063Y-126452264D01*
X114810000Y-126496201D01*
X114810001Y-126677288D01*
X114766063Y-126721226D01*
X114652795Y-126890744D01*
X114574774Y-127079102D01*
X114535000Y-127279061D01*
X114535000Y-127482939D01*
X114574774Y-127682898D01*
X114652795Y-127871256D01*
X114766063Y-128040774D01*
X114910226Y-128184937D01*
X115079744Y-128298205D01*
X115268102Y-128376226D01*
X115468061Y-128416000D01*
X115671939Y-128416000D01*
X115871898Y-128376226D01*
X116060256Y-128298205D01*
X116229774Y-128184937D01*
X116373937Y-128040774D01*
X116390262Y-128016342D01*
X116484061Y-128035000D01*
X116687939Y-128035000D01*
X116887898Y-127995226D01*
X117076256Y-127917205D01*
X117245774Y-127803937D01*
X117389937Y-127659774D01*
X117503205Y-127490256D01*
X117581226Y-127301898D01*
X117621000Y-127101939D01*
X117621000Y-127039801D01*
X118170802Y-126490000D01*
X118676289Y-126490000D01*
X118720226Y-126533937D01*
X118889744Y-126647205D01*
X119078102Y-126725226D01*
X119278061Y-126765000D01*
X119481939Y-126765000D01*
X119681898Y-126725226D01*
X119870256Y-126647205D01*
X120039774Y-126533937D01*
X120183937Y-126389774D01*
X120297205Y-126220256D01*
X120375226Y-126031898D01*
X120415000Y-125831939D01*
X120415000Y-125628061D01*
X120375226Y-125428102D01*
X120297205Y-125239744D01*
X120183937Y-125070226D01*
X120039774Y-124926063D01*
X119870256Y-124812795D01*
X119681898Y-124734774D01*
X119481939Y-124695000D01*
X119278061Y-124695000D01*
X119078102Y-124734774D01*
X118889744Y-124812795D01*
X118720226Y-124926063D01*
X118676289Y-124970000D01*
X117893322Y-124970000D01*
X117855999Y-124966324D01*
X117818676Y-124970000D01*
X117818667Y-124970000D01*
X117707014Y-124980997D01*
X117563753Y-125024454D01*
X117431724Y-125095026D01*
X117315999Y-125189999D01*
X117292201Y-125218997D01*
X116602078Y-125909121D01*
X116605000Y-125894429D01*
X116605000Y-125690551D01*
X116565226Y-125490592D01*
X116487205Y-125302234D01*
X116373937Y-125132716D01*
X116229774Y-124988553D01*
X116060256Y-124875285D01*
X115871898Y-124797264D01*
X115671939Y-124757490D01*
X115468061Y-124757490D01*
X115268102Y-124797264D01*
X115079744Y-124875285D01*
X114910226Y-124988553D01*
X114766063Y-125132716D01*
X114652795Y-125302234D01*
X114574774Y-125490592D01*
X114535000Y-125690551D01*
X109982000Y-125690551D01*
X109982000Y-112134544D01*
X111675000Y-112134544D01*
X111675000Y-112401456D01*
X111727072Y-112663239D01*
X111829215Y-112909833D01*
X111977503Y-113131762D01*
X112166238Y-113320497D01*
X112388167Y-113468785D01*
X112555266Y-113538000D01*
X112388167Y-113607215D01*
X112166238Y-113755503D01*
X111977503Y-113944238D01*
X111829215Y-114166167D01*
X111727072Y-114412761D01*
X111675000Y-114674544D01*
X111675000Y-114941456D01*
X111727072Y-115203239D01*
X111829215Y-115449833D01*
X111977503Y-115671762D01*
X112166238Y-115860497D01*
X112388167Y-116008785D01*
X112555266Y-116078000D01*
X112388167Y-116147215D01*
X112166238Y-116295503D01*
X111977503Y-116484238D01*
X111829215Y-116706167D01*
X111727072Y-116952761D01*
X111675000Y-117214544D01*
X111675000Y-117481456D01*
X111727072Y-117743239D01*
X111829215Y-117989833D01*
X111977503Y-118211762D01*
X112166238Y-118400497D01*
X112388167Y-118548785D01*
X112634761Y-118650928D01*
X112896544Y-118703000D01*
X113163456Y-118703000D01*
X113425239Y-118650928D01*
X113671833Y-118548785D01*
X113893762Y-118400497D01*
X114082497Y-118211762D01*
X114230785Y-117989833D01*
X114332928Y-117743239D01*
X114385000Y-117481456D01*
X114385000Y-117373053D01*
X120250000Y-117373053D01*
X120250000Y-117576931D01*
X120289774Y-117776890D01*
X120367795Y-117965248D01*
X120481063Y-118134766D01*
X120616555Y-118270258D01*
X120650026Y-118332877D01*
X120689871Y-118381427D01*
X120744999Y-118448602D01*
X120774003Y-118472405D01*
X122838900Y-120537304D01*
X122838900Y-120599440D01*
X122878674Y-120799399D01*
X122956695Y-120987757D01*
X123069963Y-121157275D01*
X123214126Y-121301438D01*
X123383644Y-121414706D01*
X123572002Y-121492727D01*
X123771961Y-121532501D01*
X123975839Y-121532501D01*
X124175798Y-121492727D01*
X124364156Y-121414706D01*
X124533674Y-121301438D01*
X124677837Y-121157275D01*
X124791105Y-120987757D01*
X124869126Y-120799399D01*
X124908900Y-120599440D01*
X124908900Y-120395562D01*
X124869126Y-120195603D01*
X124791105Y-120007245D01*
X124677837Y-119837727D01*
X124533674Y-119693564D01*
X124364156Y-119580296D01*
X124175798Y-119502275D01*
X123975839Y-119462501D01*
X123913703Y-119462501D01*
X123564702Y-119113501D01*
X123723061Y-119145000D01*
X123926939Y-119145000D01*
X124126898Y-119105226D01*
X124315256Y-119027205D01*
X124484774Y-118913937D01*
X124628937Y-118769774D01*
X124742205Y-118600256D01*
X124820226Y-118411898D01*
X124860000Y-118211939D01*
X124860000Y-118008061D01*
X124820226Y-117808102D01*
X124742205Y-117619744D01*
X124628937Y-117450226D01*
X124585000Y-117406289D01*
X124585000Y-116908711D01*
X124628937Y-116864774D01*
X124742205Y-116695256D01*
X124820226Y-116506898D01*
X124860000Y-116306939D01*
X124860000Y-116103061D01*
X124820226Y-115903102D01*
X124742205Y-115714744D01*
X124628937Y-115545226D01*
X124484774Y-115401063D01*
X124315256Y-115287795D01*
X124126898Y-115209774D01*
X123926939Y-115170000D01*
X123723061Y-115170000D01*
X123523102Y-115209774D01*
X123334744Y-115287795D01*
X123276276Y-115326862D01*
X123141759Y-115236981D01*
X122953401Y-115158960D01*
X122753442Y-115119186D01*
X122549564Y-115119186D01*
X122349605Y-115158960D01*
X122161247Y-115236981D01*
X121991729Y-115350249D01*
X121847566Y-115494412D01*
X121734298Y-115663930D01*
X121656277Y-115852288D01*
X121616503Y-116052247D01*
X121616503Y-116256125D01*
X121656277Y-116456084D01*
X121682487Y-116519361D01*
X121586898Y-116479766D01*
X121386939Y-116439992D01*
X121183061Y-116439992D01*
X120983102Y-116479766D01*
X120794744Y-116557787D01*
X120625226Y-116671055D01*
X120481063Y-116815218D01*
X120367795Y-116984736D01*
X120289774Y-117173094D01*
X120250000Y-117373053D01*
X114385000Y-117373053D01*
X114385000Y-117214544D01*
X114332928Y-116952761D01*
X114230785Y-116706167D01*
X114082497Y-116484238D01*
X113893762Y-116295503D01*
X113671833Y-116147215D01*
X113504734Y-116078000D01*
X113671833Y-116008785D01*
X113893762Y-115860497D01*
X114082497Y-115671762D01*
X114230785Y-115449833D01*
X114332928Y-115203239D01*
X114385000Y-114941456D01*
X114385000Y-114674544D01*
X114332928Y-114412761D01*
X114244001Y-114198071D01*
X115805000Y-114198071D01*
X115805000Y-114401949D01*
X115844774Y-114601908D01*
X115922795Y-114790266D01*
X116036063Y-114959784D01*
X116180226Y-115103947D01*
X116349744Y-115217215D01*
X116538102Y-115295236D01*
X116738061Y-115335010D01*
X116941939Y-115335010D01*
X117141898Y-115295236D01*
X117330256Y-115217215D01*
X117499774Y-115103947D01*
X117543711Y-115060010D01*
X118707668Y-115060010D01*
X118744990Y-115063686D01*
X118782312Y-115060010D01*
X118782323Y-115060010D01*
X118893976Y-115049013D01*
X119037237Y-115005556D01*
X119169266Y-114934984D01*
X119284991Y-114840011D01*
X119308793Y-114811008D01*
X119419801Y-114700000D01*
X119481939Y-114700000D01*
X119681898Y-114660226D01*
X119870256Y-114582205D01*
X120039774Y-114468937D01*
X120183937Y-114324774D01*
X120297205Y-114155256D01*
X120375226Y-113966898D01*
X120415000Y-113766939D01*
X120415000Y-113563061D01*
X120375226Y-113363102D01*
X120297205Y-113174744D01*
X120183937Y-113005226D01*
X120039774Y-112861063D01*
X119870256Y-112747795D01*
X119785047Y-112712500D01*
X119870256Y-112677205D01*
X120039774Y-112563937D01*
X120083711Y-112520000D01*
X120680933Y-112520000D01*
X120726196Y-112565263D01*
X120895714Y-112678531D01*
X121084072Y-112756552D01*
X121284031Y-112796326D01*
X121487909Y-112796326D01*
X121687868Y-112756552D01*
X121876226Y-112678531D01*
X122045744Y-112565263D01*
X122189907Y-112421100D01*
X122303175Y-112251582D01*
X122381196Y-112063224D01*
X122420970Y-111863265D01*
X122420970Y-111659387D01*
X122381196Y-111459428D01*
X122303175Y-111271070D01*
X122189907Y-111101552D01*
X122045744Y-110957389D01*
X121992788Y-110922005D01*
X122126102Y-110977226D01*
X122326061Y-111017000D01*
X122529939Y-111017000D01*
X122729898Y-110977226D01*
X122918256Y-110899205D01*
X123087774Y-110785937D01*
X123231937Y-110641774D01*
X123345205Y-110472256D01*
X123423226Y-110283898D01*
X123463000Y-110083939D01*
X123463000Y-109880061D01*
X123423226Y-109680102D01*
X123345205Y-109491744D01*
X123231937Y-109322226D01*
X123087774Y-109178063D01*
X122918256Y-109064795D01*
X122729898Y-108986774D01*
X122529939Y-108947000D01*
X122326061Y-108947000D01*
X122126102Y-108986774D01*
X121937744Y-109064795D01*
X121768226Y-109178063D01*
X121724289Y-109222000D01*
X119163322Y-109222000D01*
X119125999Y-109218324D01*
X119088676Y-109222000D01*
X119088667Y-109222000D01*
X118977014Y-109232997D01*
X118833753Y-109276454D01*
X118737319Y-109328000D01*
X118643061Y-109328000D01*
X118443102Y-109367774D01*
X118254744Y-109445795D01*
X118085226Y-109559063D01*
X117941063Y-109703226D01*
X117827795Y-109872744D01*
X117749774Y-110061102D01*
X117710000Y-110261061D01*
X117710000Y-110464939D01*
X117749774Y-110664898D01*
X117827795Y-110853256D01*
X117941063Y-111022774D01*
X118085226Y-111166937D01*
X118254744Y-111280205D01*
X118428628Y-111352231D01*
X118384774Y-111458102D01*
X118345000Y-111658061D01*
X118345000Y-111861939D01*
X118384774Y-112061898D01*
X118462795Y-112250256D01*
X118576063Y-112419774D01*
X118720226Y-112563937D01*
X118889744Y-112677205D01*
X118974953Y-112712500D01*
X118889744Y-112747795D01*
X118720226Y-112861063D01*
X118576063Y-113005226D01*
X118462795Y-113174744D01*
X118384774Y-113363102D01*
X118349585Y-113540010D01*
X117543711Y-113540010D01*
X117499774Y-113496073D01*
X117330256Y-113382805D01*
X117141898Y-113304784D01*
X116941939Y-113265010D01*
X116738061Y-113265010D01*
X116538102Y-113304784D01*
X116349744Y-113382805D01*
X116180226Y-113496073D01*
X116036063Y-113640236D01*
X115922795Y-113809754D01*
X115844774Y-113998112D01*
X115805000Y-114198071D01*
X114244001Y-114198071D01*
X114230785Y-114166167D01*
X114082497Y-113944238D01*
X113893762Y-113755503D01*
X113671833Y-113607215D01*
X113504734Y-113538000D01*
X113671833Y-113468785D01*
X113893762Y-113320497D01*
X114082497Y-113131762D01*
X114230785Y-112909833D01*
X114332928Y-112663239D01*
X114385000Y-112401456D01*
X114385000Y-112134544D01*
X114332928Y-111872761D01*
X114230785Y-111626167D01*
X114082497Y-111404238D01*
X113893762Y-111215503D01*
X113671833Y-111067215D01*
X113425239Y-110965072D01*
X113163456Y-110913000D01*
X112896544Y-110913000D01*
X112634761Y-110965072D01*
X112388167Y-111067215D01*
X112166238Y-111215503D01*
X111977503Y-111404238D01*
X111829215Y-111626167D01*
X111727072Y-111872761D01*
X111675000Y-112134544D01*
X109982000Y-112134544D01*
X109982000Y-100457000D01*
X131953000Y-100457000D01*
X131953000Y-101964651D01*
%TO.N,/PGND*%
G36*
X131953000Y-131684985D02*
G01*
X131778102Y-131719774D01*
X131589744Y-131797795D01*
X131420226Y-131911063D01*
X131376289Y-131955000D01*
X130878711Y-131955000D01*
X130834774Y-131911063D01*
X130665256Y-131797795D01*
X130476898Y-131719774D01*
X130276939Y-131680000D01*
X130073061Y-131680000D01*
X129873102Y-131719774D01*
X129684744Y-131797795D01*
X129515226Y-131911063D01*
X129371063Y-132055226D01*
X129257795Y-132224744D01*
X129179774Y-132413102D01*
X129140000Y-132613061D01*
X129140000Y-132816939D01*
X129179774Y-133016898D01*
X129257795Y-133205256D01*
X129371063Y-133374774D01*
X129515226Y-133518937D01*
X129684744Y-133632205D01*
X129873102Y-133710226D01*
X130073061Y-133750000D01*
X130276939Y-133750000D01*
X130476898Y-133710226D01*
X130665256Y-133632205D01*
X130834774Y-133518937D01*
X130878711Y-133475000D01*
X131376289Y-133475000D01*
X131420226Y-133518937D01*
X131589744Y-133632205D01*
X131778102Y-133710226D01*
X131953000Y-133745015D01*
X131953000Y-133858000D01*
X115697000Y-133858000D01*
X115697000Y-130937000D01*
X116517893Y-130937000D01*
X116321525Y-131133368D01*
X116159010Y-131376589D01*
X116047068Y-131646842D01*
X115990000Y-131933740D01*
X115990000Y-132226260D01*
X116047068Y-132513158D01*
X116159010Y-132783411D01*
X116321525Y-133026632D01*
X116528368Y-133233475D01*
X116771589Y-133395990D01*
X117041842Y-133507932D01*
X117328740Y-133565000D01*
X117621260Y-133565000D01*
X117908158Y-133507932D01*
X118178411Y-133395990D01*
X118421632Y-133233475D01*
X118628475Y-133026632D01*
X118745000Y-132852240D01*
X118861525Y-133026632D01*
X119068368Y-133233475D01*
X119311589Y-133395990D01*
X119581842Y-133507932D01*
X119868740Y-133565000D01*
X120161260Y-133565000D01*
X120448158Y-133507932D01*
X120718411Y-133395990D01*
X120961632Y-133233475D01*
X121168475Y-133026632D01*
X121290195Y-132844466D01*
X121359822Y-132961355D01*
X121554731Y-133177588D01*
X121788080Y-133351641D01*
X122050901Y-133476825D01*
X122198110Y-133521476D01*
X122428000Y-133400155D01*
X122428000Y-132207000D01*
X122408000Y-132207000D01*
X122408000Y-131953000D01*
X122428000Y-131953000D01*
X122428000Y-131933000D01*
X122682000Y-131933000D01*
X122682000Y-131953000D01*
X122702000Y-131953000D01*
X122702000Y-132207000D01*
X122682000Y-132207000D01*
X122682000Y-133400155D01*
X122911890Y-133521476D01*
X123059099Y-133476825D01*
X123321920Y-133351641D01*
X123555269Y-133177588D01*
X123750178Y-132961355D01*
X123819805Y-132844466D01*
X123941525Y-133026632D01*
X124148368Y-133233475D01*
X124391589Y-133395990D01*
X124661842Y-133507932D01*
X124948740Y-133565000D01*
X125241260Y-133565000D01*
X125528158Y-133507932D01*
X125798411Y-133395990D01*
X126041632Y-133233475D01*
X126173487Y-133101620D01*
X126195498Y-133174180D01*
X126254463Y-133284494D01*
X126333815Y-133381185D01*
X126430506Y-133460537D01*
X126540820Y-133519502D01*
X126660518Y-133555812D01*
X126785000Y-133568072D01*
X128485000Y-133568072D01*
X128609482Y-133555812D01*
X128729180Y-133519502D01*
X128839494Y-133460537D01*
X128936185Y-133381185D01*
X129015537Y-133284494D01*
X129074502Y-133174180D01*
X129110812Y-133054482D01*
X129123072Y-132930000D01*
X129123072Y-131230000D01*
X129110812Y-131105518D01*
X129074502Y-130985820D01*
X129015537Y-130875506D01*
X128936185Y-130778815D01*
X128839494Y-130699463D01*
X128729180Y-130640498D01*
X128609482Y-130604188D01*
X128485000Y-130591928D01*
X126785000Y-130591928D01*
X126660518Y-130604188D01*
X126540820Y-130640498D01*
X126430506Y-130699463D01*
X126333815Y-130778815D01*
X126254463Y-130875506D01*
X126195498Y-130985820D01*
X126173487Y-131058380D01*
X126041632Y-130926525D01*
X125798411Y-130764010D01*
X125528158Y-130652068D01*
X125241260Y-130595000D01*
X124948740Y-130595000D01*
X124661842Y-130652068D01*
X124587000Y-130683068D01*
X124587000Y-129032000D01*
X131953000Y-129032000D01*
X131953000Y-131684985D01*
G37*
X131953000Y-131684985D02*
X131778102Y-131719774D01*
X131589744Y-131797795D01*
X131420226Y-131911063D01*
X131376289Y-131955000D01*
X130878711Y-131955000D01*
X130834774Y-131911063D01*
X130665256Y-131797795D01*
X130476898Y-131719774D01*
X130276939Y-131680000D01*
X130073061Y-131680000D01*
X129873102Y-131719774D01*
X129684744Y-131797795D01*
X129515226Y-131911063D01*
X129371063Y-132055226D01*
X129257795Y-132224744D01*
X129179774Y-132413102D01*
X129140000Y-132613061D01*
X129140000Y-132816939D01*
X129179774Y-133016898D01*
X129257795Y-133205256D01*
X129371063Y-133374774D01*
X129515226Y-133518937D01*
X129684744Y-133632205D01*
X129873102Y-133710226D01*
X130073061Y-133750000D01*
X130276939Y-133750000D01*
X130476898Y-133710226D01*
X130665256Y-133632205D01*
X130834774Y-133518937D01*
X130878711Y-133475000D01*
X131376289Y-133475000D01*
X131420226Y-133518937D01*
X131589744Y-133632205D01*
X131778102Y-133710226D01*
X131953000Y-133745015D01*
X131953000Y-133858000D01*
X115697000Y-133858000D01*
X115697000Y-130937000D01*
X116517893Y-130937000D01*
X116321525Y-131133368D01*
X116159010Y-131376589D01*
X116047068Y-131646842D01*
X115990000Y-131933740D01*
X115990000Y-132226260D01*
X116047068Y-132513158D01*
X116159010Y-132783411D01*
X116321525Y-133026632D01*
X116528368Y-133233475D01*
X116771589Y-133395990D01*
X117041842Y-133507932D01*
X117328740Y-133565000D01*
X117621260Y-133565000D01*
X117908158Y-133507932D01*
X118178411Y-133395990D01*
X118421632Y-133233475D01*
X118628475Y-133026632D01*
X118745000Y-132852240D01*
X118861525Y-133026632D01*
X119068368Y-133233475D01*
X119311589Y-133395990D01*
X119581842Y-133507932D01*
X119868740Y-133565000D01*
X120161260Y-133565000D01*
X120448158Y-133507932D01*
X120718411Y-133395990D01*
X120961632Y-133233475D01*
X121168475Y-133026632D01*
X121290195Y-132844466D01*
X121359822Y-132961355D01*
X121554731Y-133177588D01*
X121788080Y-133351641D01*
X122050901Y-133476825D01*
X122198110Y-133521476D01*
X122428000Y-133400155D01*
X122428000Y-132207000D01*
X122408000Y-132207000D01*
X122408000Y-131953000D01*
X122428000Y-131953000D01*
X122428000Y-131933000D01*
X122682000Y-131933000D01*
X122682000Y-131953000D01*
X122702000Y-131953000D01*
X122702000Y-132207000D01*
X122682000Y-132207000D01*
X122682000Y-133400155D01*
X122911890Y-133521476D01*
X123059099Y-133476825D01*
X123321920Y-133351641D01*
X123555269Y-133177588D01*
X123750178Y-132961355D01*
X123819805Y-132844466D01*
X123941525Y-133026632D01*
X124148368Y-133233475D01*
X124391589Y-133395990D01*
X124661842Y-133507932D01*
X124948740Y-133565000D01*
X125241260Y-133565000D01*
X125528158Y-133507932D01*
X125798411Y-133395990D01*
X126041632Y-133233475D01*
X126173487Y-133101620D01*
X126195498Y-133174180D01*
X126254463Y-133284494D01*
X126333815Y-133381185D01*
X126430506Y-133460537D01*
X126540820Y-133519502D01*
X126660518Y-133555812D01*
X126785000Y-133568072D01*
X128485000Y-133568072D01*
X128609482Y-133555812D01*
X128729180Y-133519502D01*
X128839494Y-133460537D01*
X128936185Y-133381185D01*
X129015537Y-133284494D01*
X129074502Y-133174180D01*
X129110812Y-133054482D01*
X129123072Y-132930000D01*
X129123072Y-131230000D01*
X129110812Y-131105518D01*
X129074502Y-130985820D01*
X129015537Y-130875506D01*
X128936185Y-130778815D01*
X128839494Y-130699463D01*
X128729180Y-130640498D01*
X128609482Y-130604188D01*
X128485000Y-130591928D01*
X126785000Y-130591928D01*
X126660518Y-130604188D01*
X126540820Y-130640498D01*
X126430506Y-130699463D01*
X126333815Y-130778815D01*
X126254463Y-130875506D01*
X126195498Y-130985820D01*
X126173487Y-131058380D01*
X126041632Y-130926525D01*
X125798411Y-130764010D01*
X125528158Y-130652068D01*
X125241260Y-130595000D01*
X124948740Y-130595000D01*
X124661842Y-130652068D01*
X124587000Y-130683068D01*
X124587000Y-129032000D01*
X131953000Y-129032000D01*
X131953000Y-131684985D01*
%TD*%
M02*
