%TF.GenerationSoftware,KiCad,Pcbnew,(5.1.6)-1*%
%TF.CreationDate,2021-05-29T12:16:40-05:00*%
%TF.ProjectId,Sapphire_AnalogMic,53617070-6869-4726-955f-416e616c6f67,rev?*%
%TF.SameCoordinates,Original*%
%TF.FileFunction,Paste,Top*%
%TF.FilePolarity,Positive*%
%FSLAX46Y46*%
G04 Gerber Fmt 4.6, Leading zero omitted, Abs format (unit mm)*
G04 Created by KiCad (PCBNEW (5.1.6)-1) date 2021-05-29 12:16:40*
%MOMM*%
%LPD*%
G01*
G04 APERTURE LIST*
%ADD10R,1.320800X0.406400*%
%ADD11R,1.100000X0.250000*%
%ADD12R,1.574800X0.558800*%
%ADD13O,0.449999X1.350000*%
G04 APERTURE END LIST*
D10*
%TO.C,U101*%
X124790200Y-123530360D03*
X124790200Y-122880120D03*
X124790200Y-122229880D03*
X124790200Y-121579640D03*
X129209800Y-121579640D03*
X129209800Y-122229880D03*
X129209800Y-122880120D03*
X129209800Y-123530360D03*
%TD*%
%TO.C,C106*%
G36*
G01*
X113408750Y-126080000D02*
X113921250Y-126080000D01*
G75*
G02*
X114140000Y-126298750I0J-218750D01*
G01*
X114140000Y-126736250D01*
G75*
G02*
X113921250Y-126955000I-218750J0D01*
G01*
X113408750Y-126955000D01*
G75*
G02*
X113190000Y-126736250I0J218750D01*
G01*
X113190000Y-126298750D01*
G75*
G02*
X113408750Y-126080000I218750J0D01*
G01*
G37*
G36*
G01*
X113408750Y-124505000D02*
X113921250Y-124505000D01*
G75*
G02*
X114140000Y-124723750I0J-218750D01*
G01*
X114140000Y-125161250D01*
G75*
G02*
X113921250Y-125380000I-218750J0D01*
G01*
X113408750Y-125380000D01*
G75*
G02*
X113190000Y-125161250I0J218750D01*
G01*
X113190000Y-124723750D01*
G75*
G02*
X113408750Y-124505000I218750J0D01*
G01*
G37*
%TD*%
%TO.C,R115*%
G36*
G01*
X127920000Y-104518750D02*
X127920000Y-105031250D01*
G75*
G02*
X127701250Y-105250000I-218750J0D01*
G01*
X127263750Y-105250000D01*
G75*
G02*
X127045000Y-105031250I0J218750D01*
G01*
X127045000Y-104518750D01*
G75*
G02*
X127263750Y-104300000I218750J0D01*
G01*
X127701250Y-104300000D01*
G75*
G02*
X127920000Y-104518750I0J-218750D01*
G01*
G37*
G36*
G01*
X129495000Y-104518750D02*
X129495000Y-105031250D01*
G75*
G02*
X129276250Y-105250000I-218750J0D01*
G01*
X128838750Y-105250000D01*
G75*
G02*
X128620000Y-105031250I0J218750D01*
G01*
X128620000Y-104518750D01*
G75*
G02*
X128838750Y-104300000I218750J0D01*
G01*
X129276250Y-104300000D01*
G75*
G02*
X129495000Y-104518750I0J-218750D01*
G01*
G37*
%TD*%
%TO.C,R114*%
G36*
G01*
X127920000Y-102613750D02*
X127920000Y-103126250D01*
G75*
G02*
X127701250Y-103345000I-218750J0D01*
G01*
X127263750Y-103345000D01*
G75*
G02*
X127045000Y-103126250I0J218750D01*
G01*
X127045000Y-102613750D01*
G75*
G02*
X127263750Y-102395000I218750J0D01*
G01*
X127701250Y-102395000D01*
G75*
G02*
X127920000Y-102613750I0J-218750D01*
G01*
G37*
G36*
G01*
X129495000Y-102613750D02*
X129495000Y-103126250D01*
G75*
G02*
X129276250Y-103345000I-218750J0D01*
G01*
X128838750Y-103345000D01*
G75*
G02*
X128620000Y-103126250I0J218750D01*
G01*
X128620000Y-102613750D01*
G75*
G02*
X128838750Y-102395000I218750J0D01*
G01*
X129276250Y-102395000D01*
G75*
G02*
X129495000Y-102613750I0J-218750D01*
G01*
G37*
%TD*%
%TO.C,R113*%
G36*
G01*
X118460000Y-102491250D02*
X118460000Y-101978750D01*
G75*
G02*
X118678750Y-101760000I218750J0D01*
G01*
X119116250Y-101760000D01*
G75*
G02*
X119335000Y-101978750I0J-218750D01*
G01*
X119335000Y-102491250D01*
G75*
G02*
X119116250Y-102710000I-218750J0D01*
G01*
X118678750Y-102710000D01*
G75*
G02*
X118460000Y-102491250I0J218750D01*
G01*
G37*
G36*
G01*
X116885000Y-102491250D02*
X116885000Y-101978750D01*
G75*
G02*
X117103750Y-101760000I218750J0D01*
G01*
X117541250Y-101760000D01*
G75*
G02*
X117760000Y-101978750I0J-218750D01*
G01*
X117760000Y-102491250D01*
G75*
G02*
X117541250Y-102710000I-218750J0D01*
G01*
X117103750Y-102710000D01*
G75*
G02*
X116885000Y-102491250I0J218750D01*
G01*
G37*
%TD*%
%TO.C,R112*%
G36*
G01*
X117760000Y-103883750D02*
X117760000Y-104396250D01*
G75*
G02*
X117541250Y-104615000I-218750J0D01*
G01*
X117103750Y-104615000D01*
G75*
G02*
X116885000Y-104396250I0J218750D01*
G01*
X116885000Y-103883750D01*
G75*
G02*
X117103750Y-103665000I218750J0D01*
G01*
X117541250Y-103665000D01*
G75*
G02*
X117760000Y-103883750I0J-218750D01*
G01*
G37*
G36*
G01*
X119335000Y-103883750D02*
X119335000Y-104396250D01*
G75*
G02*
X119116250Y-104615000I-218750J0D01*
G01*
X118678750Y-104615000D01*
G75*
G02*
X118460000Y-104396250I0J218750D01*
G01*
X118460000Y-103883750D01*
G75*
G02*
X118678750Y-103665000I218750J0D01*
G01*
X119116250Y-103665000D01*
G75*
G02*
X119335000Y-103883750I0J-218750D01*
G01*
G37*
%TD*%
%TO.C,R110*%
G36*
G01*
X115220000Y-108328750D02*
X115220000Y-108841250D01*
G75*
G02*
X115001250Y-109060000I-218750J0D01*
G01*
X114563750Y-109060000D01*
G75*
G02*
X114345000Y-108841250I0J218750D01*
G01*
X114345000Y-108328750D01*
G75*
G02*
X114563750Y-108110000I218750J0D01*
G01*
X115001250Y-108110000D01*
G75*
G02*
X115220000Y-108328750I0J-218750D01*
G01*
G37*
G36*
G01*
X116795000Y-108328750D02*
X116795000Y-108841250D01*
G75*
G02*
X116576250Y-109060000I-218750J0D01*
G01*
X116138750Y-109060000D01*
G75*
G02*
X115920000Y-108841250I0J218750D01*
G01*
X115920000Y-108328750D01*
G75*
G02*
X116138750Y-108110000I218750J0D01*
G01*
X116576250Y-108110000D01*
G75*
G02*
X116795000Y-108328750I0J-218750D01*
G01*
G37*
%TD*%
%TO.C,R109*%
G36*
G01*
X115220000Y-105788750D02*
X115220000Y-106301250D01*
G75*
G02*
X115001250Y-106520000I-218750J0D01*
G01*
X114563750Y-106520000D01*
G75*
G02*
X114345000Y-106301250I0J218750D01*
G01*
X114345000Y-105788750D01*
G75*
G02*
X114563750Y-105570000I218750J0D01*
G01*
X115001250Y-105570000D01*
G75*
G02*
X115220000Y-105788750I0J-218750D01*
G01*
G37*
G36*
G01*
X116795000Y-105788750D02*
X116795000Y-106301250D01*
G75*
G02*
X116576250Y-106520000I-218750J0D01*
G01*
X116138750Y-106520000D01*
G75*
G02*
X115920000Y-106301250I0J218750D01*
G01*
X115920000Y-105788750D01*
G75*
G02*
X116138750Y-105570000I218750J0D01*
G01*
X116576250Y-105570000D01*
G75*
G02*
X116795000Y-105788750I0J-218750D01*
G01*
G37*
%TD*%
%TO.C,R108*%
G36*
G01*
X113408750Y-122270000D02*
X113921250Y-122270000D01*
G75*
G02*
X114140000Y-122488750I0J-218750D01*
G01*
X114140000Y-122926250D01*
G75*
G02*
X113921250Y-123145000I-218750J0D01*
G01*
X113408750Y-123145000D01*
G75*
G02*
X113190000Y-122926250I0J218750D01*
G01*
X113190000Y-122488750D01*
G75*
G02*
X113408750Y-122270000I218750J0D01*
G01*
G37*
G36*
G01*
X113408750Y-120695000D02*
X113921250Y-120695000D01*
G75*
G02*
X114140000Y-120913750I0J-218750D01*
G01*
X114140000Y-121351250D01*
G75*
G02*
X113921250Y-121570000I-218750J0D01*
G01*
X113408750Y-121570000D01*
G75*
G02*
X113190000Y-121351250I0J218750D01*
G01*
X113190000Y-120913750D01*
G75*
G02*
X113408750Y-120695000I218750J0D01*
G01*
G37*
%TD*%
%TO.C,R107*%
G36*
G01*
X111381250Y-125380000D02*
X110868750Y-125380000D01*
G75*
G02*
X110650000Y-125161250I0J218750D01*
G01*
X110650000Y-124723750D01*
G75*
G02*
X110868750Y-124505000I218750J0D01*
G01*
X111381250Y-124505000D01*
G75*
G02*
X111600000Y-124723750I0J-218750D01*
G01*
X111600000Y-125161250D01*
G75*
G02*
X111381250Y-125380000I-218750J0D01*
G01*
G37*
G36*
G01*
X111381250Y-126955000D02*
X110868750Y-126955000D01*
G75*
G02*
X110650000Y-126736250I0J218750D01*
G01*
X110650000Y-126298750D01*
G75*
G02*
X110868750Y-126080000I218750J0D01*
G01*
X111381250Y-126080000D01*
G75*
G02*
X111600000Y-126298750I0J-218750D01*
G01*
X111600000Y-126736250D01*
G75*
G02*
X111381250Y-126955000I-218750J0D01*
G01*
G37*
%TD*%
%TO.C,R106*%
G36*
G01*
X111381250Y-121570000D02*
X110868750Y-121570000D01*
G75*
G02*
X110650000Y-121351250I0J218750D01*
G01*
X110650000Y-120913750D01*
G75*
G02*
X110868750Y-120695000I218750J0D01*
G01*
X111381250Y-120695000D01*
G75*
G02*
X111600000Y-120913750I0J-218750D01*
G01*
X111600000Y-121351250D01*
G75*
G02*
X111381250Y-121570000I-218750J0D01*
G01*
G37*
G36*
G01*
X111381250Y-123145000D02*
X110868750Y-123145000D01*
G75*
G02*
X110650000Y-122926250I0J218750D01*
G01*
X110650000Y-122488750D01*
G75*
G02*
X110868750Y-122270000I218750J0D01*
G01*
X111381250Y-122270000D01*
G75*
G02*
X111600000Y-122488750I0J-218750D01*
G01*
X111600000Y-122926250D01*
G75*
G02*
X111381250Y-123145000I-218750J0D01*
G01*
G37*
%TD*%
%TO.C,R105*%
G36*
G01*
X113408750Y-129890000D02*
X113921250Y-129890000D01*
G75*
G02*
X114140000Y-130108750I0J-218750D01*
G01*
X114140000Y-130546250D01*
G75*
G02*
X113921250Y-130765000I-218750J0D01*
G01*
X113408750Y-130765000D01*
G75*
G02*
X113190000Y-130546250I0J218750D01*
G01*
X113190000Y-130108750D01*
G75*
G02*
X113408750Y-129890000I218750J0D01*
G01*
G37*
G36*
G01*
X113408750Y-128315000D02*
X113921250Y-128315000D01*
G75*
G02*
X114140000Y-128533750I0J-218750D01*
G01*
X114140000Y-128971250D01*
G75*
G02*
X113921250Y-129190000I-218750J0D01*
G01*
X113408750Y-129190000D01*
G75*
G02*
X113190000Y-128971250I0J218750D01*
G01*
X113190000Y-128533750D01*
G75*
G02*
X113408750Y-128315000I218750J0D01*
G01*
G37*
%TD*%
%TO.C,R103*%
G36*
G01*
X122811250Y-120935000D02*
X122298750Y-120935000D01*
G75*
G02*
X122080000Y-120716250I0J218750D01*
G01*
X122080000Y-120278750D01*
G75*
G02*
X122298750Y-120060000I218750J0D01*
G01*
X122811250Y-120060000D01*
G75*
G02*
X123030000Y-120278750I0J-218750D01*
G01*
X123030000Y-120716250D01*
G75*
G02*
X122811250Y-120935000I-218750J0D01*
G01*
G37*
G36*
G01*
X122811250Y-122510000D02*
X122298750Y-122510000D01*
G75*
G02*
X122080000Y-122291250I0J218750D01*
G01*
X122080000Y-121853750D01*
G75*
G02*
X122298750Y-121635000I218750J0D01*
G01*
X122811250Y-121635000D01*
G75*
G02*
X123030000Y-121853750I0J-218750D01*
G01*
X123030000Y-122291250D01*
G75*
G02*
X122811250Y-122510000I-218750J0D01*
G01*
G37*
%TD*%
%TO.C,R102*%
G36*
G01*
X120906250Y-113950000D02*
X120393750Y-113950000D01*
G75*
G02*
X120175000Y-113731250I0J218750D01*
G01*
X120175000Y-113293750D01*
G75*
G02*
X120393750Y-113075000I218750J0D01*
G01*
X120906250Y-113075000D01*
G75*
G02*
X121125000Y-113293750I0J-218750D01*
G01*
X121125000Y-113731250D01*
G75*
G02*
X120906250Y-113950000I-218750J0D01*
G01*
G37*
G36*
G01*
X120906250Y-115525000D02*
X120393750Y-115525000D01*
G75*
G02*
X120175000Y-115306250I0J218750D01*
G01*
X120175000Y-114868750D01*
G75*
G02*
X120393750Y-114650000I218750J0D01*
G01*
X120906250Y-114650000D01*
G75*
G02*
X121125000Y-114868750I0J-218750D01*
G01*
X121125000Y-115306250D01*
G75*
G02*
X120906250Y-115525000I-218750J0D01*
G01*
G37*
%TD*%
%TO.C,R101*%
G36*
G01*
X118366250Y-113950000D02*
X117853750Y-113950000D01*
G75*
G02*
X117635000Y-113731250I0J218750D01*
G01*
X117635000Y-113293750D01*
G75*
G02*
X117853750Y-113075000I218750J0D01*
G01*
X118366250Y-113075000D01*
G75*
G02*
X118585000Y-113293750I0J-218750D01*
G01*
X118585000Y-113731250D01*
G75*
G02*
X118366250Y-113950000I-218750J0D01*
G01*
G37*
G36*
G01*
X118366250Y-115525000D02*
X117853750Y-115525000D01*
G75*
G02*
X117635000Y-115306250I0J218750D01*
G01*
X117635000Y-114868750D01*
G75*
G02*
X117853750Y-114650000I218750J0D01*
G01*
X118366250Y-114650000D01*
G75*
G02*
X118585000Y-114868750I0J-218750D01*
G01*
X118585000Y-115306250D01*
G75*
G02*
X118366250Y-115525000I-218750J0D01*
G01*
G37*
%TD*%
%TO.C,FB102*%
G36*
G01*
X124838750Y-128620000D02*
X125351250Y-128620000D01*
G75*
G02*
X125570000Y-128838750I0J-218750D01*
G01*
X125570000Y-129276250D01*
G75*
G02*
X125351250Y-129495000I-218750J0D01*
G01*
X124838750Y-129495000D01*
G75*
G02*
X124620000Y-129276250I0J218750D01*
G01*
X124620000Y-128838750D01*
G75*
G02*
X124838750Y-128620000I218750J0D01*
G01*
G37*
G36*
G01*
X124838750Y-127045000D02*
X125351250Y-127045000D01*
G75*
G02*
X125570000Y-127263750I0J-218750D01*
G01*
X125570000Y-127701250D01*
G75*
G02*
X125351250Y-127920000I-218750J0D01*
G01*
X124838750Y-127920000D01*
G75*
G02*
X124620000Y-127701250I0J218750D01*
G01*
X124620000Y-127263750D01*
G75*
G02*
X124838750Y-127045000I218750J0D01*
G01*
G37*
%TD*%
%TO.C,FB101*%
G36*
G01*
X128013750Y-128620000D02*
X128526250Y-128620000D01*
G75*
G02*
X128745000Y-128838750I0J-218750D01*
G01*
X128745000Y-129276250D01*
G75*
G02*
X128526250Y-129495000I-218750J0D01*
G01*
X128013750Y-129495000D01*
G75*
G02*
X127795000Y-129276250I0J218750D01*
G01*
X127795000Y-128838750D01*
G75*
G02*
X128013750Y-128620000I218750J0D01*
G01*
G37*
G36*
G01*
X128013750Y-127045000D02*
X128526250Y-127045000D01*
G75*
G02*
X128745000Y-127263750I0J-218750D01*
G01*
X128745000Y-127701250D01*
G75*
G02*
X128526250Y-127920000I-218750J0D01*
G01*
X128013750Y-127920000D01*
G75*
G02*
X127795000Y-127701250I0J218750D01*
G01*
X127795000Y-127263750D01*
G75*
G02*
X128013750Y-127045000I218750J0D01*
G01*
G37*
%TD*%
%TO.C,C111*%
G36*
G01*
X126080000Y-110111250D02*
X126080000Y-109598750D01*
G75*
G02*
X126298750Y-109380000I218750J0D01*
G01*
X126736250Y-109380000D01*
G75*
G02*
X126955000Y-109598750I0J-218750D01*
G01*
X126955000Y-110111250D01*
G75*
G02*
X126736250Y-110330000I-218750J0D01*
G01*
X126298750Y-110330000D01*
G75*
G02*
X126080000Y-110111250I0J218750D01*
G01*
G37*
G36*
G01*
X124505000Y-110111250D02*
X124505000Y-109598750D01*
G75*
G02*
X124723750Y-109380000I218750J0D01*
G01*
X125161250Y-109380000D01*
G75*
G02*
X125380000Y-109598750I0J-218750D01*
G01*
X125380000Y-110111250D01*
G75*
G02*
X125161250Y-110330000I-218750J0D01*
G01*
X124723750Y-110330000D01*
G75*
G02*
X124505000Y-110111250I0J218750D01*
G01*
G37*
%TD*%
%TO.C,C109*%
G36*
G01*
X128620000Y-106936250D02*
X128620000Y-106423750D01*
G75*
G02*
X128838750Y-106205000I218750J0D01*
G01*
X129276250Y-106205000D01*
G75*
G02*
X129495000Y-106423750I0J-218750D01*
G01*
X129495000Y-106936250D01*
G75*
G02*
X129276250Y-107155000I-218750J0D01*
G01*
X128838750Y-107155000D01*
G75*
G02*
X128620000Y-106936250I0J218750D01*
G01*
G37*
G36*
G01*
X127045000Y-106936250D02*
X127045000Y-106423750D01*
G75*
G02*
X127263750Y-106205000I218750J0D01*
G01*
X127701250Y-106205000D01*
G75*
G02*
X127920000Y-106423750I0J-218750D01*
G01*
X127920000Y-106936250D01*
G75*
G02*
X127701250Y-107155000I-218750J0D01*
G01*
X127263750Y-107155000D01*
G75*
G02*
X127045000Y-106936250I0J218750D01*
G01*
G37*
%TD*%
%TO.C,C108*%
G36*
G01*
X129190000Y-109598750D02*
X129190000Y-110111250D01*
G75*
G02*
X128971250Y-110330000I-218750J0D01*
G01*
X128533750Y-110330000D01*
G75*
G02*
X128315000Y-110111250I0J218750D01*
G01*
X128315000Y-109598750D01*
G75*
G02*
X128533750Y-109380000I218750J0D01*
G01*
X128971250Y-109380000D01*
G75*
G02*
X129190000Y-109598750I0J-218750D01*
G01*
G37*
G36*
G01*
X130765000Y-109598750D02*
X130765000Y-110111250D01*
G75*
G02*
X130546250Y-110330000I-218750J0D01*
G01*
X130108750Y-110330000D01*
G75*
G02*
X129890000Y-110111250I0J218750D01*
G01*
X129890000Y-109598750D01*
G75*
G02*
X130108750Y-109380000I218750J0D01*
G01*
X130546250Y-109380000D01*
G75*
G02*
X130765000Y-109598750I0J-218750D01*
G01*
G37*
%TD*%
%TO.C,C107*%
G36*
G01*
X118488750Y-107665000D02*
X119001250Y-107665000D01*
G75*
G02*
X119220000Y-107883750I0J-218750D01*
G01*
X119220000Y-108321250D01*
G75*
G02*
X119001250Y-108540000I-218750J0D01*
G01*
X118488750Y-108540000D01*
G75*
G02*
X118270000Y-108321250I0J218750D01*
G01*
X118270000Y-107883750D01*
G75*
G02*
X118488750Y-107665000I218750J0D01*
G01*
G37*
G36*
G01*
X118488750Y-106090000D02*
X119001250Y-106090000D01*
G75*
G02*
X119220000Y-106308750I0J-218750D01*
G01*
X119220000Y-106746250D01*
G75*
G02*
X119001250Y-106965000I-218750J0D01*
G01*
X118488750Y-106965000D01*
G75*
G02*
X118270000Y-106746250I0J218750D01*
G01*
X118270000Y-106308750D01*
G75*
G02*
X118488750Y-106090000I218750J0D01*
G01*
G37*
%TD*%
%TO.C,C105*%
G36*
G01*
X123446250Y-113315000D02*
X122933750Y-113315000D01*
G75*
G02*
X122715000Y-113096250I0J218750D01*
G01*
X122715000Y-112658750D01*
G75*
G02*
X122933750Y-112440000I218750J0D01*
G01*
X123446250Y-112440000D01*
G75*
G02*
X123665000Y-112658750I0J-218750D01*
G01*
X123665000Y-113096250D01*
G75*
G02*
X123446250Y-113315000I-218750J0D01*
G01*
G37*
G36*
G01*
X123446250Y-114890000D02*
X122933750Y-114890000D01*
G75*
G02*
X122715000Y-114671250I0J218750D01*
G01*
X122715000Y-114233750D01*
G75*
G02*
X122933750Y-114015000I218750J0D01*
G01*
X123446250Y-114015000D01*
G75*
G02*
X123665000Y-114233750I0J-218750D01*
G01*
X123665000Y-114671250D01*
G75*
G02*
X123446250Y-114890000I-218750J0D01*
G01*
G37*
%TD*%
%TO.C,C104*%
G36*
G01*
X117825000Y-125986250D02*
X117825000Y-125473750D01*
G75*
G02*
X118043750Y-125255000I218750J0D01*
G01*
X118481250Y-125255000D01*
G75*
G02*
X118700000Y-125473750I0J-218750D01*
G01*
X118700000Y-125986250D01*
G75*
G02*
X118481250Y-126205000I-218750J0D01*
G01*
X118043750Y-126205000D01*
G75*
G02*
X117825000Y-125986250I0J218750D01*
G01*
G37*
G36*
G01*
X116250000Y-125986250D02*
X116250000Y-125473750D01*
G75*
G02*
X116468750Y-125255000I218750J0D01*
G01*
X116906250Y-125255000D01*
G75*
G02*
X117125000Y-125473750I0J-218750D01*
G01*
X117125000Y-125986250D01*
G75*
G02*
X116906250Y-126205000I-218750J0D01*
G01*
X116468750Y-126205000D01*
G75*
G02*
X116250000Y-125986250I0J218750D01*
G01*
G37*
%TD*%
%TO.C,C103*%
G36*
G01*
X121635000Y-125986250D02*
X121635000Y-125473750D01*
G75*
G02*
X121853750Y-125255000I218750J0D01*
G01*
X122291250Y-125255000D01*
G75*
G02*
X122510000Y-125473750I0J-218750D01*
G01*
X122510000Y-125986250D01*
G75*
G02*
X122291250Y-126205000I-218750J0D01*
G01*
X121853750Y-126205000D01*
G75*
G02*
X121635000Y-125986250I0J218750D01*
G01*
G37*
G36*
G01*
X120060000Y-125986250D02*
X120060000Y-125473750D01*
G75*
G02*
X120278750Y-125255000I218750J0D01*
G01*
X120716250Y-125255000D01*
G75*
G02*
X120935000Y-125473750I0J-218750D01*
G01*
X120935000Y-125986250D01*
G75*
G02*
X120716250Y-126205000I-218750J0D01*
G01*
X120278750Y-126205000D01*
G75*
G02*
X120060000Y-125986250I0J218750D01*
G01*
G37*
%TD*%
%TO.C,C102*%
G36*
G01*
X122811250Y-127920000D02*
X122298750Y-127920000D01*
G75*
G02*
X122080000Y-127701250I0J218750D01*
G01*
X122080000Y-127263750D01*
G75*
G02*
X122298750Y-127045000I218750J0D01*
G01*
X122811250Y-127045000D01*
G75*
G02*
X123030000Y-127263750I0J-218750D01*
G01*
X123030000Y-127701250D01*
G75*
G02*
X122811250Y-127920000I-218750J0D01*
G01*
G37*
G36*
G01*
X122811250Y-129495000D02*
X122298750Y-129495000D01*
G75*
G02*
X122080000Y-129276250I0J218750D01*
G01*
X122080000Y-128838750D01*
G75*
G02*
X122298750Y-128620000I218750J0D01*
G01*
X122811250Y-128620000D01*
G75*
G02*
X123030000Y-128838750I0J-218750D01*
G01*
X123030000Y-129276250D01*
G75*
G02*
X122811250Y-129495000I-218750J0D01*
G01*
G37*
%TD*%
%TO.C,C101*%
G36*
G01*
X119730000Y-117096250D02*
X119730000Y-116583750D01*
G75*
G02*
X119948750Y-116365000I218750J0D01*
G01*
X120386250Y-116365000D01*
G75*
G02*
X120605000Y-116583750I0J-218750D01*
G01*
X120605000Y-117096250D01*
G75*
G02*
X120386250Y-117315000I-218750J0D01*
G01*
X119948750Y-117315000D01*
G75*
G02*
X119730000Y-117096250I0J218750D01*
G01*
G37*
G36*
G01*
X118155000Y-117096250D02*
X118155000Y-116583750D01*
G75*
G02*
X118373750Y-116365000I218750J0D01*
G01*
X118811250Y-116365000D01*
G75*
G02*
X119030000Y-116583750I0J-218750D01*
G01*
X119030000Y-117096250D01*
G75*
G02*
X118811250Y-117315000I-218750J0D01*
G01*
X118373750Y-117315000D01*
G75*
G02*
X118155000Y-117096250I0J218750D01*
G01*
G37*
%TD*%
D11*
%TO.C,U105*%
X125340000Y-104410000D03*
X125340000Y-104910000D03*
X125340000Y-105410000D03*
X125340000Y-105910000D03*
X125340000Y-106410000D03*
X121040000Y-106410000D03*
X121040000Y-105910000D03*
X121040000Y-105410000D03*
X121040000Y-104910000D03*
X121040000Y-104410000D03*
%TD*%
D10*
%TO.C,U104*%
X129844800Y-112054640D03*
X129844800Y-112704880D03*
X129844800Y-113355120D03*
X129844800Y-114005360D03*
X125425200Y-114005360D03*
X125425200Y-113355120D03*
X125425200Y-112704880D03*
X125425200Y-112054640D03*
%TD*%
D12*
%TO.C,U103*%
X120548400Y-127319999D03*
X120548400Y-129220001D03*
X118211600Y-129220001D03*
X118211600Y-128270000D03*
X118211600Y-127319999D03*
%TD*%
D13*
%TO.C,U102*%
X120354999Y-123510002D03*
X119704998Y-123510002D03*
X119054999Y-123510002D03*
X118404998Y-123510002D03*
X118404998Y-119060001D03*
X119054999Y-119060001D03*
X119704998Y-119060001D03*
X120354999Y-119060001D03*
%TD*%
M02*
