%TF.GenerationSoftware,KiCad,Pcbnew,(5.1.6)-1*%
%TF.CreationDate,2021-05-29T12:16:40-05:00*%
%TF.ProjectId,Sapphire_AnalogMic,53617070-6869-4726-955f-416e616c6f67,rev?*%
%TF.SameCoordinates,Original*%
%TF.FileFunction,Legend,Top*%
%TF.FilePolarity,Positive*%
%FSLAX46Y46*%
G04 Gerber Fmt 4.6, Leading zero omitted, Abs format (unit mm)*
G04 Created by KiCad (PCBNEW (5.1.6)-1) date 2021-05-29 12:16:40*
%MOMM*%
%LPD*%
G01*
G04 APERTURE LIST*
%ADD10C,0.300000*%
%ADD11C,0.120000*%
%ADD12C,0.152400*%
%ADD13C,0.150000*%
%ADD14C,0.127000*%
G04 APERTURE END LIST*
D10*
X120015000Y-103278714D02*
X120086428Y-103350142D01*
X120015000Y-103421571D01*
X119943571Y-103350142D01*
X120015000Y-103278714D01*
X120015000Y-103421571D01*
D11*
%TO.C,RV101*%
X110500000Y-109923000D02*
X115570000Y-109923000D01*
X110500000Y-119693000D02*
X115570000Y-119693000D01*
X115570000Y-119693000D02*
X115570000Y-109923000D01*
X110500000Y-119693000D02*
X110500000Y-109923000D01*
D12*
%TO.C,U101*%
X128676400Y-120878600D02*
X125323600Y-120878600D01*
X125323600Y-120878600D02*
X125323600Y-121043700D01*
X125323600Y-124231400D02*
X128676400Y-124231400D01*
X128676400Y-124231400D02*
X128676400Y-124066300D01*
X128676400Y-121043700D02*
X128676400Y-120878600D01*
X125323600Y-124066300D02*
X125323600Y-124231400D01*
D11*
%TO.C,C106*%
X114175000Y-125567221D02*
X114175000Y-125892779D01*
X113155000Y-125567221D02*
X113155000Y-125892779D01*
%TO.C,MK101*%
X109795000Y-134045000D02*
X112455000Y-134045000D01*
X109795000Y-131445000D02*
X109795000Y-134045000D01*
X112455000Y-131445000D02*
X112455000Y-134045000D01*
X109795000Y-131445000D02*
X112455000Y-131445000D01*
X109795000Y-130175000D02*
X109795000Y-128845000D01*
X109795000Y-128845000D02*
X111125000Y-128845000D01*
%TO.C,JP104*%
X126665000Y-119525000D02*
X126065000Y-119525000D01*
X127365000Y-116075000D02*
X127365000Y-118875000D01*
X126065000Y-115425000D02*
X126665000Y-115425000D01*
X125365000Y-118875000D02*
X125365000Y-116075000D01*
X126065000Y-119525000D02*
G75*
G02*
X125365000Y-118825000I0J700000D01*
G01*
X127365000Y-118825000D02*
G75*
G02*
X126665000Y-119525000I-700000J0D01*
G01*
X126665000Y-115425000D02*
G75*
G02*
X127365000Y-116125000I0J-700000D01*
G01*
X125365000Y-116125000D02*
G75*
G02*
X126065000Y-115425000I700000J0D01*
G01*
%TO.C,R115*%
X128432779Y-105285000D02*
X128107221Y-105285000D01*
X128432779Y-104265000D02*
X128107221Y-104265000D01*
%TO.C,R114*%
X128432779Y-103380000D02*
X128107221Y-103380000D01*
X128432779Y-102360000D02*
X128107221Y-102360000D01*
%TO.C,R113*%
X117947221Y-101725000D02*
X118272779Y-101725000D01*
X117947221Y-102745000D02*
X118272779Y-102745000D01*
%TO.C,R112*%
X118272779Y-104650000D02*
X117947221Y-104650000D01*
X118272779Y-103630000D02*
X117947221Y-103630000D01*
%TO.C,R110*%
X115732779Y-109095000D02*
X115407221Y-109095000D01*
X115732779Y-108075000D02*
X115407221Y-108075000D01*
%TO.C,R109*%
X115732779Y-106555000D02*
X115407221Y-106555000D01*
X115732779Y-105535000D02*
X115407221Y-105535000D01*
%TO.C,R108*%
X114175000Y-121757221D02*
X114175000Y-122082779D01*
X113155000Y-121757221D02*
X113155000Y-122082779D01*
%TO.C,R107*%
X110615000Y-125892779D02*
X110615000Y-125567221D01*
X111635000Y-125892779D02*
X111635000Y-125567221D01*
%TO.C,R106*%
X110615000Y-122082779D02*
X110615000Y-121757221D01*
X111635000Y-122082779D02*
X111635000Y-121757221D01*
%TO.C,R105*%
X114175000Y-129377221D02*
X114175000Y-129702779D01*
X113155000Y-129377221D02*
X113155000Y-129702779D01*
%TO.C,R103*%
X122045000Y-121447779D02*
X122045000Y-121122221D01*
X123065000Y-121447779D02*
X123065000Y-121122221D01*
%TO.C,R102*%
X120140000Y-114462779D02*
X120140000Y-114137221D01*
X121160000Y-114462779D02*
X121160000Y-114137221D01*
%TO.C,R101*%
X117600000Y-114462779D02*
X117600000Y-114137221D01*
X118620000Y-114462779D02*
X118620000Y-114137221D01*
%TO.C,FB102*%
X125605000Y-128107221D02*
X125605000Y-128432779D01*
X124585000Y-128107221D02*
X124585000Y-128432779D01*
%TO.C,FB101*%
X128780000Y-128107221D02*
X128780000Y-128432779D01*
X127760000Y-128107221D02*
X127760000Y-128432779D01*
%TO.C,C111*%
X125567221Y-109345000D02*
X125892779Y-109345000D01*
X125567221Y-110365000D02*
X125892779Y-110365000D01*
%TO.C,C109*%
X128107221Y-106170000D02*
X128432779Y-106170000D01*
X128107221Y-107190000D02*
X128432779Y-107190000D01*
%TO.C,C108*%
X129702779Y-110365000D02*
X129377221Y-110365000D01*
X129702779Y-109345000D02*
X129377221Y-109345000D01*
%TO.C,C107*%
X119255000Y-107152221D02*
X119255000Y-107477779D01*
X118235000Y-107152221D02*
X118235000Y-107477779D01*
%TO.C,C105*%
X122680000Y-113827779D02*
X122680000Y-113502221D01*
X123700000Y-113827779D02*
X123700000Y-113502221D01*
%TO.C,C104*%
X117312221Y-125220000D02*
X117637779Y-125220000D01*
X117312221Y-126240000D02*
X117637779Y-126240000D01*
%TO.C,C103*%
X121122221Y-125220000D02*
X121447779Y-125220000D01*
X121122221Y-126240000D02*
X121447779Y-126240000D01*
%TO.C,C102*%
X122045000Y-128432779D02*
X122045000Y-128107221D01*
X123065000Y-128432779D02*
X123065000Y-128107221D01*
%TO.C,C101*%
X119217221Y-116330000D02*
X119542779Y-116330000D01*
X119217221Y-117350000D02*
X119542779Y-117350000D01*
D13*
%TO.C,U105*%
X121565000Y-103785000D02*
X121565000Y-103960000D01*
X124815000Y-103785000D02*
X124815000Y-104060000D01*
X124815000Y-107035000D02*
X124815000Y-106760000D01*
X121565000Y-107035000D02*
X121565000Y-106760000D01*
X121565000Y-103785000D02*
X124815000Y-103785000D01*
X121565000Y-107035000D02*
X124815000Y-107035000D01*
X121565000Y-103960000D02*
X120490000Y-103960000D01*
D12*
%TO.C,U104*%
X125958600Y-114706400D02*
X129311400Y-114706400D01*
X129311400Y-114706400D02*
X129311400Y-114541300D01*
X129311400Y-111353600D02*
X125958600Y-111353600D01*
X125958600Y-111353600D02*
X125958600Y-111518700D01*
X125958600Y-114541300D02*
X125958600Y-114706400D01*
X129311400Y-111518700D02*
X129311400Y-111353600D01*
%TO.C,U103*%
X118503700Y-126746000D02*
X120256300Y-126746000D01*
X120256300Y-128734861D02*
X120256300Y-127805139D01*
X118503700Y-129794000D02*
X120256300Y-129794000D01*
X119671502Y-126656950D02*
G75*
G03*
X119380000Y-126441200I-291502J-89050D01*
G01*
%TO.C,U102*%
X117830003Y-120335002D02*
X117830003Y-122235001D01*
X120929999Y-118535000D02*
X120930002Y-122235001D01*
%TO.C,RV101*%
D13*
X115133380Y-116990619D02*
X114657190Y-117323952D01*
X115133380Y-117562047D02*
X114133380Y-117562047D01*
X114133380Y-117181095D01*
X114181000Y-117085857D01*
X114228619Y-117038238D01*
X114323857Y-116990619D01*
X114466714Y-116990619D01*
X114561952Y-117038238D01*
X114609571Y-117085857D01*
X114657190Y-117181095D01*
X114657190Y-117562047D01*
X114133380Y-116704904D02*
X115133380Y-116371571D01*
X114133380Y-116038238D01*
X115133380Y-115181095D02*
X115133380Y-115752523D01*
X115133380Y-115466809D02*
X114133380Y-115466809D01*
X114276238Y-115562047D01*
X114371476Y-115657285D01*
X114419095Y-115752523D01*
X114133380Y-114562047D02*
X114133380Y-114466809D01*
X114181000Y-114371571D01*
X114228619Y-114323952D01*
X114323857Y-114276333D01*
X114514333Y-114228714D01*
X114752428Y-114228714D01*
X114942904Y-114276333D01*
X115038142Y-114323952D01*
X115085761Y-114371571D01*
X115133380Y-114466809D01*
X115133380Y-114562047D01*
X115085761Y-114657285D01*
X115038142Y-114704904D01*
X114942904Y-114752523D01*
X114752428Y-114800142D01*
X114514333Y-114800142D01*
X114323857Y-114752523D01*
X114228619Y-114704904D01*
X114181000Y-114657285D01*
X114133380Y-114562047D01*
X115133380Y-113276333D02*
X115133380Y-113847761D01*
X115133380Y-113562047D02*
X114133380Y-113562047D01*
X114276238Y-113657285D01*
X114371476Y-113752523D01*
X114419095Y-113847761D01*
%TO.C,U101*%
D14*
X127399142Y-124816809D02*
X127399142Y-125228047D01*
X127423333Y-125276428D01*
X127447523Y-125300619D01*
X127495904Y-125324809D01*
X127592666Y-125324809D01*
X127641047Y-125300619D01*
X127665238Y-125276428D01*
X127689428Y-125228047D01*
X127689428Y-124816809D01*
X128197428Y-125324809D02*
X127907142Y-125324809D01*
X128052285Y-125324809D02*
X128052285Y-124816809D01*
X128003904Y-124889380D01*
X127955523Y-124937761D01*
X127907142Y-124961952D01*
X128511904Y-124816809D02*
X128560285Y-124816809D01*
X128608666Y-124841000D01*
X128632857Y-124865190D01*
X128657047Y-124913571D01*
X128681238Y-125010333D01*
X128681238Y-125131285D01*
X128657047Y-125228047D01*
X128632857Y-125276428D01*
X128608666Y-125300619D01*
X128560285Y-125324809D01*
X128511904Y-125324809D01*
X128463523Y-125300619D01*
X128439333Y-125276428D01*
X128415142Y-125228047D01*
X128390952Y-125131285D01*
X128390952Y-125010333D01*
X128415142Y-124913571D01*
X128439333Y-124865190D01*
X128463523Y-124841000D01*
X128511904Y-124816809D01*
X129165047Y-125324809D02*
X128874761Y-125324809D01*
X129019904Y-125324809D02*
X129019904Y-124816809D01*
X128971523Y-124889380D01*
X128923142Y-124937761D01*
X128874761Y-124961952D01*
D13*
X129463800Y-124532140D02*
X129463800Y-124770236D01*
X129225704Y-124674998D02*
X129463800Y-124770236D01*
X129701895Y-124674998D01*
X129320942Y-124960712D02*
X129463800Y-124770236D01*
X129606657Y-124960712D01*
X129463800Y-124532140D02*
X129463800Y-124770236D01*
X129225704Y-124674998D02*
X129463800Y-124770236D01*
X129701895Y-124674998D01*
X129320942Y-124960712D02*
X129463800Y-124770236D01*
X129606657Y-124960712D01*
%TO.C,C106*%
D14*
X115276428Y-125663476D02*
X115300619Y-125687666D01*
X115324809Y-125760238D01*
X115324809Y-125808619D01*
X115300619Y-125881190D01*
X115252238Y-125929571D01*
X115203857Y-125953761D01*
X115107095Y-125977952D01*
X115034523Y-125977952D01*
X114937761Y-125953761D01*
X114889380Y-125929571D01*
X114841000Y-125881190D01*
X114816809Y-125808619D01*
X114816809Y-125760238D01*
X114841000Y-125687666D01*
X114865190Y-125663476D01*
X115324809Y-125179666D02*
X115324809Y-125469952D01*
X115324809Y-125324809D02*
X114816809Y-125324809D01*
X114889380Y-125373190D01*
X114937761Y-125421571D01*
X114961952Y-125469952D01*
X114816809Y-124865190D02*
X114816809Y-124816809D01*
X114841000Y-124768428D01*
X114865190Y-124744238D01*
X114913571Y-124720047D01*
X115010333Y-124695857D01*
X115131285Y-124695857D01*
X115228047Y-124720047D01*
X115276428Y-124744238D01*
X115300619Y-124768428D01*
X115324809Y-124816809D01*
X115324809Y-124865190D01*
X115300619Y-124913571D01*
X115276428Y-124937761D01*
X115228047Y-124961952D01*
X115131285Y-124986142D01*
X115010333Y-124986142D01*
X114913571Y-124961952D01*
X114865190Y-124937761D01*
X114841000Y-124913571D01*
X114816809Y-124865190D01*
X114816809Y-124260428D02*
X114816809Y-124357190D01*
X114841000Y-124405571D01*
X114865190Y-124429761D01*
X114937761Y-124478142D01*
X115034523Y-124502333D01*
X115228047Y-124502333D01*
X115276428Y-124478142D01*
X115300619Y-124453952D01*
X115324809Y-124405571D01*
X115324809Y-124308809D01*
X115300619Y-124260428D01*
X115276428Y-124236238D01*
X115228047Y-124212047D01*
X115107095Y-124212047D01*
X115058714Y-124236238D01*
X115034523Y-124260428D01*
X115010333Y-124308809D01*
X115010333Y-124405571D01*
X115034523Y-124453952D01*
X115058714Y-124478142D01*
X115107095Y-124502333D01*
%TO.C,MK101*%
X110610952Y-128074809D02*
X110610952Y-127566809D01*
X110780285Y-127929666D01*
X110949619Y-127566809D01*
X110949619Y-128074809D01*
X111191523Y-128074809D02*
X111191523Y-127566809D01*
X111481809Y-128074809D02*
X111264095Y-127784523D01*
X111481809Y-127566809D02*
X111191523Y-127857095D01*
X111965619Y-128074809D02*
X111675333Y-128074809D01*
X111820476Y-128074809D02*
X111820476Y-127566809D01*
X111772095Y-127639380D01*
X111723714Y-127687761D01*
X111675333Y-127711952D01*
X112280095Y-127566809D02*
X112328476Y-127566809D01*
X112376857Y-127591000D01*
X112401047Y-127615190D01*
X112425238Y-127663571D01*
X112449428Y-127760333D01*
X112449428Y-127881285D01*
X112425238Y-127978047D01*
X112401047Y-128026428D01*
X112376857Y-128050619D01*
X112328476Y-128074809D01*
X112280095Y-128074809D01*
X112231714Y-128050619D01*
X112207523Y-128026428D01*
X112183333Y-127978047D01*
X112159142Y-127881285D01*
X112159142Y-127760333D01*
X112183333Y-127663571D01*
X112207523Y-127615190D01*
X112231714Y-127591000D01*
X112280095Y-127566809D01*
X112933238Y-128074809D02*
X112642952Y-128074809D01*
X112788095Y-128074809D02*
X112788095Y-127566809D01*
X112739714Y-127639380D01*
X112691333Y-127687761D01*
X112642952Y-127711952D01*
%TO.C,JP104*%
X124181809Y-118382142D02*
X124544666Y-118382142D01*
X124617238Y-118406333D01*
X124665619Y-118454714D01*
X124689809Y-118527285D01*
X124689809Y-118575666D01*
X124689809Y-118140238D02*
X124181809Y-118140238D01*
X124181809Y-117946714D01*
X124206000Y-117898333D01*
X124230190Y-117874142D01*
X124278571Y-117849952D01*
X124351142Y-117849952D01*
X124399523Y-117874142D01*
X124423714Y-117898333D01*
X124447904Y-117946714D01*
X124447904Y-118140238D01*
X124689809Y-117366142D02*
X124689809Y-117656428D01*
X124689809Y-117511285D02*
X124181809Y-117511285D01*
X124254380Y-117559666D01*
X124302761Y-117608047D01*
X124326952Y-117656428D01*
X124181809Y-117051666D02*
X124181809Y-117003285D01*
X124206000Y-116954904D01*
X124230190Y-116930714D01*
X124278571Y-116906523D01*
X124375333Y-116882333D01*
X124496285Y-116882333D01*
X124593047Y-116906523D01*
X124641428Y-116930714D01*
X124665619Y-116954904D01*
X124689809Y-117003285D01*
X124689809Y-117051666D01*
X124665619Y-117100047D01*
X124641428Y-117124238D01*
X124593047Y-117148428D01*
X124496285Y-117172619D01*
X124375333Y-117172619D01*
X124278571Y-117148428D01*
X124230190Y-117124238D01*
X124206000Y-117100047D01*
X124181809Y-117051666D01*
X124351142Y-116446904D02*
X124689809Y-116446904D01*
X124157619Y-116567857D02*
X124520476Y-116688809D01*
X124520476Y-116374333D01*
D13*
X128722380Y-118459285D02*
X128722380Y-119030714D01*
X128722380Y-118745000D02*
X127722380Y-118745000D01*
X127865238Y-118840238D01*
X127960476Y-118935476D01*
X128008095Y-119030714D01*
X127722380Y-116538333D02*
X127722380Y-115919285D01*
X128103333Y-116252619D01*
X128103333Y-116109761D01*
X128150952Y-116014523D01*
X128198571Y-115966904D01*
X128293809Y-115919285D01*
X128531904Y-115919285D01*
X128627142Y-115966904D01*
X128674761Y-116014523D01*
X128722380Y-116109761D01*
X128722380Y-116395476D01*
X128674761Y-116490714D01*
X128627142Y-116538333D01*
%TO.C,R115*%
D14*
X130241523Y-105004809D02*
X130072190Y-104762904D01*
X129951238Y-105004809D02*
X129951238Y-104496809D01*
X130144761Y-104496809D01*
X130193142Y-104521000D01*
X130217333Y-104545190D01*
X130241523Y-104593571D01*
X130241523Y-104666142D01*
X130217333Y-104714523D01*
X130193142Y-104738714D01*
X130144761Y-104762904D01*
X129951238Y-104762904D01*
X130725333Y-105004809D02*
X130435047Y-105004809D01*
X130580190Y-105004809D02*
X130580190Y-104496809D01*
X130531809Y-104569380D01*
X130483428Y-104617761D01*
X130435047Y-104641952D01*
X131209142Y-105004809D02*
X130918857Y-105004809D01*
X131064000Y-105004809D02*
X131064000Y-104496809D01*
X131015619Y-104569380D01*
X130967238Y-104617761D01*
X130918857Y-104641952D01*
X131668761Y-104496809D02*
X131426857Y-104496809D01*
X131402666Y-104738714D01*
X131426857Y-104714523D01*
X131475238Y-104690333D01*
X131596190Y-104690333D01*
X131644571Y-104714523D01*
X131668761Y-104738714D01*
X131692952Y-104787095D01*
X131692952Y-104908047D01*
X131668761Y-104956428D01*
X131644571Y-104980619D01*
X131596190Y-105004809D01*
X131475238Y-105004809D01*
X131426857Y-104980619D01*
X131402666Y-104956428D01*
%TO.C,R114*%
X127701523Y-101829809D02*
X127532190Y-101587904D01*
X127411238Y-101829809D02*
X127411238Y-101321809D01*
X127604761Y-101321809D01*
X127653142Y-101346000D01*
X127677333Y-101370190D01*
X127701523Y-101418571D01*
X127701523Y-101491142D01*
X127677333Y-101539523D01*
X127653142Y-101563714D01*
X127604761Y-101587904D01*
X127411238Y-101587904D01*
X128185333Y-101829809D02*
X127895047Y-101829809D01*
X128040190Y-101829809D02*
X128040190Y-101321809D01*
X127991809Y-101394380D01*
X127943428Y-101442761D01*
X127895047Y-101466952D01*
X128669142Y-101829809D02*
X128378857Y-101829809D01*
X128524000Y-101829809D02*
X128524000Y-101321809D01*
X128475619Y-101394380D01*
X128427238Y-101442761D01*
X128378857Y-101466952D01*
X129104571Y-101491142D02*
X129104571Y-101829809D01*
X128983619Y-101297619D02*
X128862666Y-101660476D01*
X129177142Y-101660476D01*
%TO.C,R113*%
X115001523Y-102464809D02*
X114832190Y-102222904D01*
X114711238Y-102464809D02*
X114711238Y-101956809D01*
X114904761Y-101956809D01*
X114953142Y-101981000D01*
X114977333Y-102005190D01*
X115001523Y-102053571D01*
X115001523Y-102126142D01*
X114977333Y-102174523D01*
X114953142Y-102198714D01*
X114904761Y-102222904D01*
X114711238Y-102222904D01*
X115485333Y-102464809D02*
X115195047Y-102464809D01*
X115340190Y-102464809D02*
X115340190Y-101956809D01*
X115291809Y-102029380D01*
X115243428Y-102077761D01*
X115195047Y-102101952D01*
X115969142Y-102464809D02*
X115678857Y-102464809D01*
X115824000Y-102464809D02*
X115824000Y-101956809D01*
X115775619Y-102029380D01*
X115727238Y-102077761D01*
X115678857Y-102101952D01*
X116138476Y-101956809D02*
X116452952Y-101956809D01*
X116283619Y-102150333D01*
X116356190Y-102150333D01*
X116404571Y-102174523D01*
X116428761Y-102198714D01*
X116452952Y-102247095D01*
X116452952Y-102368047D01*
X116428761Y-102416428D01*
X116404571Y-102440619D01*
X116356190Y-102464809D01*
X116211047Y-102464809D01*
X116162666Y-102440619D01*
X116138476Y-102416428D01*
%TO.C,R112*%
X115001523Y-104369809D02*
X114832190Y-104127904D01*
X114711238Y-104369809D02*
X114711238Y-103861809D01*
X114904761Y-103861809D01*
X114953142Y-103886000D01*
X114977333Y-103910190D01*
X115001523Y-103958571D01*
X115001523Y-104031142D01*
X114977333Y-104079523D01*
X114953142Y-104103714D01*
X114904761Y-104127904D01*
X114711238Y-104127904D01*
X115485333Y-104369809D02*
X115195047Y-104369809D01*
X115340190Y-104369809D02*
X115340190Y-103861809D01*
X115291809Y-103934380D01*
X115243428Y-103982761D01*
X115195047Y-104006952D01*
X115969142Y-104369809D02*
X115678857Y-104369809D01*
X115824000Y-104369809D02*
X115824000Y-103861809D01*
X115775619Y-103934380D01*
X115727238Y-103982761D01*
X115678857Y-104006952D01*
X116162666Y-103910190D02*
X116186857Y-103886000D01*
X116235238Y-103861809D01*
X116356190Y-103861809D01*
X116404571Y-103886000D01*
X116428761Y-103910190D01*
X116452952Y-103958571D01*
X116452952Y-104006952D01*
X116428761Y-104079523D01*
X116138476Y-104369809D01*
X116452952Y-104369809D01*
%TO.C,R110*%
X112461523Y-108179809D02*
X112292190Y-107937904D01*
X112171238Y-108179809D02*
X112171238Y-107671809D01*
X112364761Y-107671809D01*
X112413142Y-107696000D01*
X112437333Y-107720190D01*
X112461523Y-107768571D01*
X112461523Y-107841142D01*
X112437333Y-107889523D01*
X112413142Y-107913714D01*
X112364761Y-107937904D01*
X112171238Y-107937904D01*
X112945333Y-108179809D02*
X112655047Y-108179809D01*
X112800190Y-108179809D02*
X112800190Y-107671809D01*
X112751809Y-107744380D01*
X112703428Y-107792761D01*
X112655047Y-107816952D01*
X113429142Y-108179809D02*
X113138857Y-108179809D01*
X113284000Y-108179809D02*
X113284000Y-107671809D01*
X113235619Y-107744380D01*
X113187238Y-107792761D01*
X113138857Y-107816952D01*
X113743619Y-107671809D02*
X113792000Y-107671809D01*
X113840380Y-107696000D01*
X113864571Y-107720190D01*
X113888761Y-107768571D01*
X113912952Y-107865333D01*
X113912952Y-107986285D01*
X113888761Y-108083047D01*
X113864571Y-108131428D01*
X113840380Y-108155619D01*
X113792000Y-108179809D01*
X113743619Y-108179809D01*
X113695238Y-108155619D01*
X113671047Y-108131428D01*
X113646857Y-108083047D01*
X113622666Y-107986285D01*
X113622666Y-107865333D01*
X113646857Y-107768571D01*
X113671047Y-107720190D01*
X113695238Y-107696000D01*
X113743619Y-107671809D01*
%TO.C,R109*%
X112461523Y-106274809D02*
X112292190Y-106032904D01*
X112171238Y-106274809D02*
X112171238Y-105766809D01*
X112364761Y-105766809D01*
X112413142Y-105791000D01*
X112437333Y-105815190D01*
X112461523Y-105863571D01*
X112461523Y-105936142D01*
X112437333Y-105984523D01*
X112413142Y-106008714D01*
X112364761Y-106032904D01*
X112171238Y-106032904D01*
X112945333Y-106274809D02*
X112655047Y-106274809D01*
X112800190Y-106274809D02*
X112800190Y-105766809D01*
X112751809Y-105839380D01*
X112703428Y-105887761D01*
X112655047Y-105911952D01*
X113259809Y-105766809D02*
X113308190Y-105766809D01*
X113356571Y-105791000D01*
X113380761Y-105815190D01*
X113404952Y-105863571D01*
X113429142Y-105960333D01*
X113429142Y-106081285D01*
X113404952Y-106178047D01*
X113380761Y-106226428D01*
X113356571Y-106250619D01*
X113308190Y-106274809D01*
X113259809Y-106274809D01*
X113211428Y-106250619D01*
X113187238Y-106226428D01*
X113163047Y-106178047D01*
X113138857Y-106081285D01*
X113138857Y-105960333D01*
X113163047Y-105863571D01*
X113187238Y-105815190D01*
X113211428Y-105791000D01*
X113259809Y-105766809D01*
X113671047Y-106274809D02*
X113767809Y-106274809D01*
X113816190Y-106250619D01*
X113840380Y-106226428D01*
X113888761Y-106153857D01*
X113912952Y-106057095D01*
X113912952Y-105863571D01*
X113888761Y-105815190D01*
X113864571Y-105791000D01*
X113816190Y-105766809D01*
X113719428Y-105766809D01*
X113671047Y-105791000D01*
X113646857Y-105815190D01*
X113622666Y-105863571D01*
X113622666Y-105984523D01*
X113646857Y-106032904D01*
X113671047Y-106057095D01*
X113719428Y-106081285D01*
X113816190Y-106081285D01*
X113864571Y-106057095D01*
X113888761Y-106032904D01*
X113912952Y-105984523D01*
%TO.C,R108*%
X115324809Y-122488476D02*
X115082904Y-122657809D01*
X115324809Y-122778761D02*
X114816809Y-122778761D01*
X114816809Y-122585238D01*
X114841000Y-122536857D01*
X114865190Y-122512666D01*
X114913571Y-122488476D01*
X114986142Y-122488476D01*
X115034523Y-122512666D01*
X115058714Y-122536857D01*
X115082904Y-122585238D01*
X115082904Y-122778761D01*
X115324809Y-122004666D02*
X115324809Y-122294952D01*
X115324809Y-122149809D02*
X114816809Y-122149809D01*
X114889380Y-122198190D01*
X114937761Y-122246571D01*
X114961952Y-122294952D01*
X114816809Y-121690190D02*
X114816809Y-121641809D01*
X114841000Y-121593428D01*
X114865190Y-121569238D01*
X114913571Y-121545047D01*
X115010333Y-121520857D01*
X115131285Y-121520857D01*
X115228047Y-121545047D01*
X115276428Y-121569238D01*
X115300619Y-121593428D01*
X115324809Y-121641809D01*
X115324809Y-121690190D01*
X115300619Y-121738571D01*
X115276428Y-121762761D01*
X115228047Y-121786952D01*
X115131285Y-121811142D01*
X115010333Y-121811142D01*
X114913571Y-121786952D01*
X114865190Y-121762761D01*
X114841000Y-121738571D01*
X114816809Y-121690190D01*
X115034523Y-121230571D02*
X115010333Y-121278952D01*
X114986142Y-121303142D01*
X114937761Y-121327333D01*
X114913571Y-121327333D01*
X114865190Y-121303142D01*
X114841000Y-121278952D01*
X114816809Y-121230571D01*
X114816809Y-121133809D01*
X114841000Y-121085428D01*
X114865190Y-121061238D01*
X114913571Y-121037047D01*
X114937761Y-121037047D01*
X114986142Y-121061238D01*
X115010333Y-121085428D01*
X115034523Y-121133809D01*
X115034523Y-121230571D01*
X115058714Y-121278952D01*
X115082904Y-121303142D01*
X115131285Y-121327333D01*
X115228047Y-121327333D01*
X115276428Y-121303142D01*
X115300619Y-121278952D01*
X115324809Y-121230571D01*
X115324809Y-121133809D01*
X115300619Y-121085428D01*
X115276428Y-121061238D01*
X115228047Y-121037047D01*
X115131285Y-121037047D01*
X115082904Y-121061238D01*
X115058714Y-121085428D01*
X115034523Y-121133809D01*
%TO.C,R107*%
X109924809Y-126298476D02*
X109682904Y-126467809D01*
X109924809Y-126588761D02*
X109416809Y-126588761D01*
X109416809Y-126395238D01*
X109441000Y-126346857D01*
X109465190Y-126322666D01*
X109513571Y-126298476D01*
X109586142Y-126298476D01*
X109634523Y-126322666D01*
X109658714Y-126346857D01*
X109682904Y-126395238D01*
X109682904Y-126588761D01*
X109924809Y-125814666D02*
X109924809Y-126104952D01*
X109924809Y-125959809D02*
X109416809Y-125959809D01*
X109489380Y-126008190D01*
X109537761Y-126056571D01*
X109561952Y-126104952D01*
X109416809Y-125500190D02*
X109416809Y-125451809D01*
X109441000Y-125403428D01*
X109465190Y-125379238D01*
X109513571Y-125355047D01*
X109610333Y-125330857D01*
X109731285Y-125330857D01*
X109828047Y-125355047D01*
X109876428Y-125379238D01*
X109900619Y-125403428D01*
X109924809Y-125451809D01*
X109924809Y-125500190D01*
X109900619Y-125548571D01*
X109876428Y-125572761D01*
X109828047Y-125596952D01*
X109731285Y-125621142D01*
X109610333Y-125621142D01*
X109513571Y-125596952D01*
X109465190Y-125572761D01*
X109441000Y-125548571D01*
X109416809Y-125500190D01*
X109416809Y-125161523D02*
X109416809Y-124822857D01*
X109924809Y-125040571D01*
%TO.C,R106*%
X109924809Y-122488476D02*
X109682904Y-122657809D01*
X109924809Y-122778761D02*
X109416809Y-122778761D01*
X109416809Y-122585238D01*
X109441000Y-122536857D01*
X109465190Y-122512666D01*
X109513571Y-122488476D01*
X109586142Y-122488476D01*
X109634523Y-122512666D01*
X109658714Y-122536857D01*
X109682904Y-122585238D01*
X109682904Y-122778761D01*
X109924809Y-122004666D02*
X109924809Y-122294952D01*
X109924809Y-122149809D02*
X109416809Y-122149809D01*
X109489380Y-122198190D01*
X109537761Y-122246571D01*
X109561952Y-122294952D01*
X109416809Y-121690190D02*
X109416809Y-121641809D01*
X109441000Y-121593428D01*
X109465190Y-121569238D01*
X109513571Y-121545047D01*
X109610333Y-121520857D01*
X109731285Y-121520857D01*
X109828047Y-121545047D01*
X109876428Y-121569238D01*
X109900619Y-121593428D01*
X109924809Y-121641809D01*
X109924809Y-121690190D01*
X109900619Y-121738571D01*
X109876428Y-121762761D01*
X109828047Y-121786952D01*
X109731285Y-121811142D01*
X109610333Y-121811142D01*
X109513571Y-121786952D01*
X109465190Y-121762761D01*
X109441000Y-121738571D01*
X109416809Y-121690190D01*
X109416809Y-121085428D02*
X109416809Y-121182190D01*
X109441000Y-121230571D01*
X109465190Y-121254761D01*
X109537761Y-121303142D01*
X109634523Y-121327333D01*
X109828047Y-121327333D01*
X109876428Y-121303142D01*
X109900619Y-121278952D01*
X109924809Y-121230571D01*
X109924809Y-121133809D01*
X109900619Y-121085428D01*
X109876428Y-121061238D01*
X109828047Y-121037047D01*
X109707095Y-121037047D01*
X109658714Y-121061238D01*
X109634523Y-121085428D01*
X109610333Y-121133809D01*
X109610333Y-121230571D01*
X109634523Y-121278952D01*
X109658714Y-121303142D01*
X109707095Y-121327333D01*
%TO.C,R105*%
X115164809Y-130108476D02*
X114922904Y-130277809D01*
X115164809Y-130398761D02*
X114656809Y-130398761D01*
X114656809Y-130205238D01*
X114681000Y-130156857D01*
X114705190Y-130132666D01*
X114753571Y-130108476D01*
X114826142Y-130108476D01*
X114874523Y-130132666D01*
X114898714Y-130156857D01*
X114922904Y-130205238D01*
X114922904Y-130398761D01*
X115164809Y-129624666D02*
X115164809Y-129914952D01*
X115164809Y-129769809D02*
X114656809Y-129769809D01*
X114729380Y-129818190D01*
X114777761Y-129866571D01*
X114801952Y-129914952D01*
X114656809Y-129310190D02*
X114656809Y-129261809D01*
X114681000Y-129213428D01*
X114705190Y-129189238D01*
X114753571Y-129165047D01*
X114850333Y-129140857D01*
X114971285Y-129140857D01*
X115068047Y-129165047D01*
X115116428Y-129189238D01*
X115140619Y-129213428D01*
X115164809Y-129261809D01*
X115164809Y-129310190D01*
X115140619Y-129358571D01*
X115116428Y-129382761D01*
X115068047Y-129406952D01*
X114971285Y-129431142D01*
X114850333Y-129431142D01*
X114753571Y-129406952D01*
X114705190Y-129382761D01*
X114681000Y-129358571D01*
X114656809Y-129310190D01*
X114656809Y-128681238D02*
X114656809Y-128923142D01*
X114898714Y-128947333D01*
X114874523Y-128923142D01*
X114850333Y-128874761D01*
X114850333Y-128753809D01*
X114874523Y-128705428D01*
X114898714Y-128681238D01*
X114947095Y-128657047D01*
X115068047Y-128657047D01*
X115116428Y-128681238D01*
X115140619Y-128705428D01*
X115164809Y-128753809D01*
X115164809Y-128874761D01*
X115140619Y-128923142D01*
X115116428Y-128947333D01*
%TO.C,R103*%
X121986523Y-119609809D02*
X121817190Y-119367904D01*
X121696238Y-119609809D02*
X121696238Y-119101809D01*
X121889761Y-119101809D01*
X121938142Y-119126000D01*
X121962333Y-119150190D01*
X121986523Y-119198571D01*
X121986523Y-119271142D01*
X121962333Y-119319523D01*
X121938142Y-119343714D01*
X121889761Y-119367904D01*
X121696238Y-119367904D01*
X122470333Y-119609809D02*
X122180047Y-119609809D01*
X122325190Y-119609809D02*
X122325190Y-119101809D01*
X122276809Y-119174380D01*
X122228428Y-119222761D01*
X122180047Y-119246952D01*
X122784809Y-119101809D02*
X122833190Y-119101809D01*
X122881571Y-119126000D01*
X122905761Y-119150190D01*
X122929952Y-119198571D01*
X122954142Y-119295333D01*
X122954142Y-119416285D01*
X122929952Y-119513047D01*
X122905761Y-119561428D01*
X122881571Y-119585619D01*
X122833190Y-119609809D01*
X122784809Y-119609809D01*
X122736428Y-119585619D01*
X122712238Y-119561428D01*
X122688047Y-119513047D01*
X122663857Y-119416285D01*
X122663857Y-119295333D01*
X122688047Y-119198571D01*
X122712238Y-119150190D01*
X122736428Y-119126000D01*
X122784809Y-119101809D01*
X123123476Y-119101809D02*
X123437952Y-119101809D01*
X123268619Y-119295333D01*
X123341190Y-119295333D01*
X123389571Y-119319523D01*
X123413761Y-119343714D01*
X123437952Y-119392095D01*
X123437952Y-119513047D01*
X123413761Y-119561428D01*
X123389571Y-119585619D01*
X123341190Y-119609809D01*
X123196047Y-119609809D01*
X123147666Y-119585619D01*
X123123476Y-119561428D01*
%TO.C,R102*%
X120716523Y-112624809D02*
X120547190Y-112382904D01*
X120426238Y-112624809D02*
X120426238Y-112116809D01*
X120619761Y-112116809D01*
X120668142Y-112141000D01*
X120692333Y-112165190D01*
X120716523Y-112213571D01*
X120716523Y-112286142D01*
X120692333Y-112334523D01*
X120668142Y-112358714D01*
X120619761Y-112382904D01*
X120426238Y-112382904D01*
X121200333Y-112624809D02*
X120910047Y-112624809D01*
X121055190Y-112624809D02*
X121055190Y-112116809D01*
X121006809Y-112189380D01*
X120958428Y-112237761D01*
X120910047Y-112261952D01*
X121514809Y-112116809D02*
X121563190Y-112116809D01*
X121611571Y-112141000D01*
X121635761Y-112165190D01*
X121659952Y-112213571D01*
X121684142Y-112310333D01*
X121684142Y-112431285D01*
X121659952Y-112528047D01*
X121635761Y-112576428D01*
X121611571Y-112600619D01*
X121563190Y-112624809D01*
X121514809Y-112624809D01*
X121466428Y-112600619D01*
X121442238Y-112576428D01*
X121418047Y-112528047D01*
X121393857Y-112431285D01*
X121393857Y-112310333D01*
X121418047Y-112213571D01*
X121442238Y-112165190D01*
X121466428Y-112141000D01*
X121514809Y-112116809D01*
X121877666Y-112165190D02*
X121901857Y-112141000D01*
X121950238Y-112116809D01*
X122071190Y-112116809D01*
X122119571Y-112141000D01*
X122143761Y-112165190D01*
X122167952Y-112213571D01*
X122167952Y-112261952D01*
X122143761Y-112334523D01*
X121853476Y-112624809D01*
X122167952Y-112624809D01*
%TO.C,R101*%
X116906523Y-112624809D02*
X116737190Y-112382904D01*
X116616238Y-112624809D02*
X116616238Y-112116809D01*
X116809761Y-112116809D01*
X116858142Y-112141000D01*
X116882333Y-112165190D01*
X116906523Y-112213571D01*
X116906523Y-112286142D01*
X116882333Y-112334523D01*
X116858142Y-112358714D01*
X116809761Y-112382904D01*
X116616238Y-112382904D01*
X117390333Y-112624809D02*
X117100047Y-112624809D01*
X117245190Y-112624809D02*
X117245190Y-112116809D01*
X117196809Y-112189380D01*
X117148428Y-112237761D01*
X117100047Y-112261952D01*
X117704809Y-112116809D02*
X117753190Y-112116809D01*
X117801571Y-112141000D01*
X117825761Y-112165190D01*
X117849952Y-112213571D01*
X117874142Y-112310333D01*
X117874142Y-112431285D01*
X117849952Y-112528047D01*
X117825761Y-112576428D01*
X117801571Y-112600619D01*
X117753190Y-112624809D01*
X117704809Y-112624809D01*
X117656428Y-112600619D01*
X117632238Y-112576428D01*
X117608047Y-112528047D01*
X117583857Y-112431285D01*
X117583857Y-112310333D01*
X117608047Y-112213571D01*
X117632238Y-112165190D01*
X117656428Y-112141000D01*
X117704809Y-112116809D01*
X118357952Y-112624809D02*
X118067666Y-112624809D01*
X118212809Y-112624809D02*
X118212809Y-112116809D01*
X118164428Y-112189380D01*
X118116047Y-112237761D01*
X118067666Y-112261952D01*
%TO.C,FB102*%
X124822857Y-126328714D02*
X124653523Y-126328714D01*
X124653523Y-126594809D02*
X124653523Y-126086809D01*
X124895428Y-126086809D01*
X125258285Y-126328714D02*
X125330857Y-126352904D01*
X125355047Y-126377095D01*
X125379238Y-126425476D01*
X125379238Y-126498047D01*
X125355047Y-126546428D01*
X125330857Y-126570619D01*
X125282476Y-126594809D01*
X125088952Y-126594809D01*
X125088952Y-126086809D01*
X125258285Y-126086809D01*
X125306666Y-126111000D01*
X125330857Y-126135190D01*
X125355047Y-126183571D01*
X125355047Y-126231952D01*
X125330857Y-126280333D01*
X125306666Y-126304523D01*
X125258285Y-126328714D01*
X125088952Y-126328714D01*
X125863047Y-126594809D02*
X125572761Y-126594809D01*
X125717904Y-126594809D02*
X125717904Y-126086809D01*
X125669523Y-126159380D01*
X125621142Y-126207761D01*
X125572761Y-126231952D01*
X126177523Y-126086809D02*
X126225904Y-126086809D01*
X126274285Y-126111000D01*
X126298476Y-126135190D01*
X126322666Y-126183571D01*
X126346857Y-126280333D01*
X126346857Y-126401285D01*
X126322666Y-126498047D01*
X126298476Y-126546428D01*
X126274285Y-126570619D01*
X126225904Y-126594809D01*
X126177523Y-126594809D01*
X126129142Y-126570619D01*
X126104952Y-126546428D01*
X126080761Y-126498047D01*
X126056571Y-126401285D01*
X126056571Y-126280333D01*
X126080761Y-126183571D01*
X126104952Y-126135190D01*
X126129142Y-126111000D01*
X126177523Y-126086809D01*
X126540380Y-126135190D02*
X126564571Y-126111000D01*
X126612952Y-126086809D01*
X126733904Y-126086809D01*
X126782285Y-126111000D01*
X126806476Y-126135190D01*
X126830666Y-126183571D01*
X126830666Y-126231952D01*
X126806476Y-126304523D01*
X126516190Y-126594809D01*
X126830666Y-126594809D01*
%TO.C,FB101*%
X127997857Y-126328714D02*
X127828523Y-126328714D01*
X127828523Y-126594809D02*
X127828523Y-126086809D01*
X128070428Y-126086809D01*
X128433285Y-126328714D02*
X128505857Y-126352904D01*
X128530047Y-126377095D01*
X128554238Y-126425476D01*
X128554238Y-126498047D01*
X128530047Y-126546428D01*
X128505857Y-126570619D01*
X128457476Y-126594809D01*
X128263952Y-126594809D01*
X128263952Y-126086809D01*
X128433285Y-126086809D01*
X128481666Y-126111000D01*
X128505857Y-126135190D01*
X128530047Y-126183571D01*
X128530047Y-126231952D01*
X128505857Y-126280333D01*
X128481666Y-126304523D01*
X128433285Y-126328714D01*
X128263952Y-126328714D01*
X129038047Y-126594809D02*
X128747761Y-126594809D01*
X128892904Y-126594809D02*
X128892904Y-126086809D01*
X128844523Y-126159380D01*
X128796142Y-126207761D01*
X128747761Y-126231952D01*
X129352523Y-126086809D02*
X129400904Y-126086809D01*
X129449285Y-126111000D01*
X129473476Y-126135190D01*
X129497666Y-126183571D01*
X129521857Y-126280333D01*
X129521857Y-126401285D01*
X129497666Y-126498047D01*
X129473476Y-126546428D01*
X129449285Y-126570619D01*
X129400904Y-126594809D01*
X129352523Y-126594809D01*
X129304142Y-126570619D01*
X129279952Y-126546428D01*
X129255761Y-126498047D01*
X129231571Y-126401285D01*
X129231571Y-126280333D01*
X129255761Y-126183571D01*
X129279952Y-126135190D01*
X129304142Y-126111000D01*
X129352523Y-126086809D01*
X130005666Y-126594809D02*
X129715380Y-126594809D01*
X129860523Y-126594809D02*
X129860523Y-126086809D01*
X129812142Y-126159380D01*
X129763761Y-126207761D01*
X129715380Y-126231952D01*
%TO.C,C111*%
X125161523Y-108766428D02*
X125137333Y-108790619D01*
X125064761Y-108814809D01*
X125016380Y-108814809D01*
X124943809Y-108790619D01*
X124895428Y-108742238D01*
X124871238Y-108693857D01*
X124847047Y-108597095D01*
X124847047Y-108524523D01*
X124871238Y-108427761D01*
X124895428Y-108379380D01*
X124943809Y-108331000D01*
X125016380Y-108306809D01*
X125064761Y-108306809D01*
X125137333Y-108331000D01*
X125161523Y-108355190D01*
X125645333Y-108814809D02*
X125355047Y-108814809D01*
X125500190Y-108814809D02*
X125500190Y-108306809D01*
X125451809Y-108379380D01*
X125403428Y-108427761D01*
X125355047Y-108451952D01*
X126129142Y-108814809D02*
X125838857Y-108814809D01*
X125984000Y-108814809D02*
X125984000Y-108306809D01*
X125935619Y-108379380D01*
X125887238Y-108427761D01*
X125838857Y-108451952D01*
X126612952Y-108814809D02*
X126322666Y-108814809D01*
X126467809Y-108814809D02*
X126467809Y-108306809D01*
X126419428Y-108379380D01*
X126371047Y-108427761D01*
X126322666Y-108451952D01*
%TO.C,C109*%
X130241523Y-106861428D02*
X130217333Y-106885619D01*
X130144761Y-106909809D01*
X130096380Y-106909809D01*
X130023809Y-106885619D01*
X129975428Y-106837238D01*
X129951238Y-106788857D01*
X129927047Y-106692095D01*
X129927047Y-106619523D01*
X129951238Y-106522761D01*
X129975428Y-106474380D01*
X130023809Y-106426000D01*
X130096380Y-106401809D01*
X130144761Y-106401809D01*
X130217333Y-106426000D01*
X130241523Y-106450190D01*
X130725333Y-106909809D02*
X130435047Y-106909809D01*
X130580190Y-106909809D02*
X130580190Y-106401809D01*
X130531809Y-106474380D01*
X130483428Y-106522761D01*
X130435047Y-106546952D01*
X131039809Y-106401809D02*
X131088190Y-106401809D01*
X131136571Y-106426000D01*
X131160761Y-106450190D01*
X131184952Y-106498571D01*
X131209142Y-106595333D01*
X131209142Y-106716285D01*
X131184952Y-106813047D01*
X131160761Y-106861428D01*
X131136571Y-106885619D01*
X131088190Y-106909809D01*
X131039809Y-106909809D01*
X130991428Y-106885619D01*
X130967238Y-106861428D01*
X130943047Y-106813047D01*
X130918857Y-106716285D01*
X130918857Y-106595333D01*
X130943047Y-106498571D01*
X130967238Y-106450190D01*
X130991428Y-106426000D01*
X131039809Y-106401809D01*
X131451047Y-106909809D02*
X131547809Y-106909809D01*
X131596190Y-106885619D01*
X131620380Y-106861428D01*
X131668761Y-106788857D01*
X131692952Y-106692095D01*
X131692952Y-106498571D01*
X131668761Y-106450190D01*
X131644571Y-106426000D01*
X131596190Y-106401809D01*
X131499428Y-106401809D01*
X131451047Y-106426000D01*
X131426857Y-106450190D01*
X131402666Y-106498571D01*
X131402666Y-106619523D01*
X131426857Y-106667904D01*
X131451047Y-106692095D01*
X131499428Y-106716285D01*
X131596190Y-106716285D01*
X131644571Y-106692095D01*
X131668761Y-106667904D01*
X131692952Y-106619523D01*
%TO.C,C108*%
X129606523Y-108766428D02*
X129582333Y-108790619D01*
X129509761Y-108814809D01*
X129461380Y-108814809D01*
X129388809Y-108790619D01*
X129340428Y-108742238D01*
X129316238Y-108693857D01*
X129292047Y-108597095D01*
X129292047Y-108524523D01*
X129316238Y-108427761D01*
X129340428Y-108379380D01*
X129388809Y-108331000D01*
X129461380Y-108306809D01*
X129509761Y-108306809D01*
X129582333Y-108331000D01*
X129606523Y-108355190D01*
X130090333Y-108814809D02*
X129800047Y-108814809D01*
X129945190Y-108814809D02*
X129945190Y-108306809D01*
X129896809Y-108379380D01*
X129848428Y-108427761D01*
X129800047Y-108451952D01*
X130404809Y-108306809D02*
X130453190Y-108306809D01*
X130501571Y-108331000D01*
X130525761Y-108355190D01*
X130549952Y-108403571D01*
X130574142Y-108500333D01*
X130574142Y-108621285D01*
X130549952Y-108718047D01*
X130525761Y-108766428D01*
X130501571Y-108790619D01*
X130453190Y-108814809D01*
X130404809Y-108814809D01*
X130356428Y-108790619D01*
X130332238Y-108766428D01*
X130308047Y-108718047D01*
X130283857Y-108621285D01*
X130283857Y-108500333D01*
X130308047Y-108403571D01*
X130332238Y-108355190D01*
X130356428Y-108331000D01*
X130404809Y-108306809D01*
X130864428Y-108524523D02*
X130816047Y-108500333D01*
X130791857Y-108476142D01*
X130767666Y-108427761D01*
X130767666Y-108403571D01*
X130791857Y-108355190D01*
X130816047Y-108331000D01*
X130864428Y-108306809D01*
X130961190Y-108306809D01*
X131009571Y-108331000D01*
X131033761Y-108355190D01*
X131057952Y-108403571D01*
X131057952Y-108427761D01*
X131033761Y-108476142D01*
X131009571Y-108500333D01*
X130961190Y-108524523D01*
X130864428Y-108524523D01*
X130816047Y-108548714D01*
X130791857Y-108572904D01*
X130767666Y-108621285D01*
X130767666Y-108718047D01*
X130791857Y-108766428D01*
X130816047Y-108790619D01*
X130864428Y-108814809D01*
X130961190Y-108814809D01*
X131009571Y-108790619D01*
X131033761Y-108766428D01*
X131057952Y-108718047D01*
X131057952Y-108621285D01*
X131033761Y-108572904D01*
X131009571Y-108548714D01*
X130961190Y-108524523D01*
%TO.C,C107*%
X117656428Y-107883476D02*
X117680619Y-107907666D01*
X117704809Y-107980238D01*
X117704809Y-108028619D01*
X117680619Y-108101190D01*
X117632238Y-108149571D01*
X117583857Y-108173761D01*
X117487095Y-108197952D01*
X117414523Y-108197952D01*
X117317761Y-108173761D01*
X117269380Y-108149571D01*
X117221000Y-108101190D01*
X117196809Y-108028619D01*
X117196809Y-107980238D01*
X117221000Y-107907666D01*
X117245190Y-107883476D01*
X117704809Y-107399666D02*
X117704809Y-107689952D01*
X117704809Y-107544809D02*
X117196809Y-107544809D01*
X117269380Y-107593190D01*
X117317761Y-107641571D01*
X117341952Y-107689952D01*
X117196809Y-107085190D02*
X117196809Y-107036809D01*
X117221000Y-106988428D01*
X117245190Y-106964238D01*
X117293571Y-106940047D01*
X117390333Y-106915857D01*
X117511285Y-106915857D01*
X117608047Y-106940047D01*
X117656428Y-106964238D01*
X117680619Y-106988428D01*
X117704809Y-107036809D01*
X117704809Y-107085190D01*
X117680619Y-107133571D01*
X117656428Y-107157761D01*
X117608047Y-107181952D01*
X117511285Y-107206142D01*
X117390333Y-107206142D01*
X117293571Y-107181952D01*
X117245190Y-107157761D01*
X117221000Y-107133571D01*
X117196809Y-107085190D01*
X117196809Y-106746523D02*
X117196809Y-106407857D01*
X117704809Y-106625571D01*
%TO.C,C105*%
X122101428Y-114868476D02*
X122125619Y-114892666D01*
X122149809Y-114965238D01*
X122149809Y-115013619D01*
X122125619Y-115086190D01*
X122077238Y-115134571D01*
X122028857Y-115158761D01*
X121932095Y-115182952D01*
X121859523Y-115182952D01*
X121762761Y-115158761D01*
X121714380Y-115134571D01*
X121666000Y-115086190D01*
X121641809Y-115013619D01*
X121641809Y-114965238D01*
X121666000Y-114892666D01*
X121690190Y-114868476D01*
X122149809Y-114384666D02*
X122149809Y-114674952D01*
X122149809Y-114529809D02*
X121641809Y-114529809D01*
X121714380Y-114578190D01*
X121762761Y-114626571D01*
X121786952Y-114674952D01*
X121641809Y-114070190D02*
X121641809Y-114021809D01*
X121666000Y-113973428D01*
X121690190Y-113949238D01*
X121738571Y-113925047D01*
X121835333Y-113900857D01*
X121956285Y-113900857D01*
X122053047Y-113925047D01*
X122101428Y-113949238D01*
X122125619Y-113973428D01*
X122149809Y-114021809D01*
X122149809Y-114070190D01*
X122125619Y-114118571D01*
X122101428Y-114142761D01*
X122053047Y-114166952D01*
X121956285Y-114191142D01*
X121835333Y-114191142D01*
X121738571Y-114166952D01*
X121690190Y-114142761D01*
X121666000Y-114118571D01*
X121641809Y-114070190D01*
X121641809Y-113441238D02*
X121641809Y-113683142D01*
X121883714Y-113707333D01*
X121859523Y-113683142D01*
X121835333Y-113634761D01*
X121835333Y-113513809D01*
X121859523Y-113465428D01*
X121883714Y-113441238D01*
X121932095Y-113417047D01*
X122053047Y-113417047D01*
X122101428Y-113441238D01*
X122125619Y-113465428D01*
X122149809Y-113513809D01*
X122149809Y-113634761D01*
X122125619Y-113683142D01*
X122101428Y-113707333D01*
%TO.C,C104*%
X116271523Y-124641428D02*
X116247333Y-124665619D01*
X116174761Y-124689809D01*
X116126380Y-124689809D01*
X116053809Y-124665619D01*
X116005428Y-124617238D01*
X115981238Y-124568857D01*
X115957047Y-124472095D01*
X115957047Y-124399523D01*
X115981238Y-124302761D01*
X116005428Y-124254380D01*
X116053809Y-124206000D01*
X116126380Y-124181809D01*
X116174761Y-124181809D01*
X116247333Y-124206000D01*
X116271523Y-124230190D01*
X116755333Y-124689809D02*
X116465047Y-124689809D01*
X116610190Y-124689809D02*
X116610190Y-124181809D01*
X116561809Y-124254380D01*
X116513428Y-124302761D01*
X116465047Y-124326952D01*
X117069809Y-124181809D02*
X117118190Y-124181809D01*
X117166571Y-124206000D01*
X117190761Y-124230190D01*
X117214952Y-124278571D01*
X117239142Y-124375333D01*
X117239142Y-124496285D01*
X117214952Y-124593047D01*
X117190761Y-124641428D01*
X117166571Y-124665619D01*
X117118190Y-124689809D01*
X117069809Y-124689809D01*
X117021428Y-124665619D01*
X116997238Y-124641428D01*
X116973047Y-124593047D01*
X116948857Y-124496285D01*
X116948857Y-124375333D01*
X116973047Y-124278571D01*
X116997238Y-124230190D01*
X117021428Y-124206000D01*
X117069809Y-124181809D01*
X117674571Y-124351142D02*
X117674571Y-124689809D01*
X117553619Y-124157619D02*
X117432666Y-124520476D01*
X117747142Y-124520476D01*
%TO.C,C103*%
X121351523Y-124641428D02*
X121327333Y-124665619D01*
X121254761Y-124689809D01*
X121206380Y-124689809D01*
X121133809Y-124665619D01*
X121085428Y-124617238D01*
X121061238Y-124568857D01*
X121037047Y-124472095D01*
X121037047Y-124399523D01*
X121061238Y-124302761D01*
X121085428Y-124254380D01*
X121133809Y-124206000D01*
X121206380Y-124181809D01*
X121254761Y-124181809D01*
X121327333Y-124206000D01*
X121351523Y-124230190D01*
X121835333Y-124689809D02*
X121545047Y-124689809D01*
X121690190Y-124689809D02*
X121690190Y-124181809D01*
X121641809Y-124254380D01*
X121593428Y-124302761D01*
X121545047Y-124326952D01*
X122149809Y-124181809D02*
X122198190Y-124181809D01*
X122246571Y-124206000D01*
X122270761Y-124230190D01*
X122294952Y-124278571D01*
X122319142Y-124375333D01*
X122319142Y-124496285D01*
X122294952Y-124593047D01*
X122270761Y-124641428D01*
X122246571Y-124665619D01*
X122198190Y-124689809D01*
X122149809Y-124689809D01*
X122101428Y-124665619D01*
X122077238Y-124641428D01*
X122053047Y-124593047D01*
X122028857Y-124496285D01*
X122028857Y-124375333D01*
X122053047Y-124278571D01*
X122077238Y-124230190D01*
X122101428Y-124206000D01*
X122149809Y-124181809D01*
X122488476Y-124181809D02*
X122802952Y-124181809D01*
X122633619Y-124375333D01*
X122706190Y-124375333D01*
X122754571Y-124399523D01*
X122778761Y-124423714D01*
X122802952Y-124472095D01*
X122802952Y-124593047D01*
X122778761Y-124641428D01*
X122754571Y-124665619D01*
X122706190Y-124689809D01*
X122561047Y-124689809D01*
X122512666Y-124665619D01*
X122488476Y-124641428D01*
%TO.C,C102*%
X124006428Y-128838476D02*
X124030619Y-128862666D01*
X124054809Y-128935238D01*
X124054809Y-128983619D01*
X124030619Y-129056190D01*
X123982238Y-129104571D01*
X123933857Y-129128761D01*
X123837095Y-129152952D01*
X123764523Y-129152952D01*
X123667761Y-129128761D01*
X123619380Y-129104571D01*
X123571000Y-129056190D01*
X123546809Y-128983619D01*
X123546809Y-128935238D01*
X123571000Y-128862666D01*
X123595190Y-128838476D01*
X124054809Y-128354666D02*
X124054809Y-128644952D01*
X124054809Y-128499809D02*
X123546809Y-128499809D01*
X123619380Y-128548190D01*
X123667761Y-128596571D01*
X123691952Y-128644952D01*
X123546809Y-128040190D02*
X123546809Y-127991809D01*
X123571000Y-127943428D01*
X123595190Y-127919238D01*
X123643571Y-127895047D01*
X123740333Y-127870857D01*
X123861285Y-127870857D01*
X123958047Y-127895047D01*
X124006428Y-127919238D01*
X124030619Y-127943428D01*
X124054809Y-127991809D01*
X124054809Y-128040190D01*
X124030619Y-128088571D01*
X124006428Y-128112761D01*
X123958047Y-128136952D01*
X123861285Y-128161142D01*
X123740333Y-128161142D01*
X123643571Y-128136952D01*
X123595190Y-128112761D01*
X123571000Y-128088571D01*
X123546809Y-128040190D01*
X123595190Y-127677333D02*
X123571000Y-127653142D01*
X123546809Y-127604761D01*
X123546809Y-127483809D01*
X123571000Y-127435428D01*
X123595190Y-127411238D01*
X123643571Y-127387047D01*
X123691952Y-127387047D01*
X123764523Y-127411238D01*
X124054809Y-127701523D01*
X124054809Y-127387047D01*
%TO.C,C101*%
X116271523Y-117021428D02*
X116247333Y-117045619D01*
X116174761Y-117069809D01*
X116126380Y-117069809D01*
X116053809Y-117045619D01*
X116005428Y-116997238D01*
X115981238Y-116948857D01*
X115957047Y-116852095D01*
X115957047Y-116779523D01*
X115981238Y-116682761D01*
X116005428Y-116634380D01*
X116053809Y-116586000D01*
X116126380Y-116561809D01*
X116174761Y-116561809D01*
X116247333Y-116586000D01*
X116271523Y-116610190D01*
X116755333Y-117069809D02*
X116465047Y-117069809D01*
X116610190Y-117069809D02*
X116610190Y-116561809D01*
X116561809Y-116634380D01*
X116513428Y-116682761D01*
X116465047Y-116706952D01*
X117069809Y-116561809D02*
X117118190Y-116561809D01*
X117166571Y-116586000D01*
X117190761Y-116610190D01*
X117214952Y-116658571D01*
X117239142Y-116755333D01*
X117239142Y-116876285D01*
X117214952Y-116973047D01*
X117190761Y-117021428D01*
X117166571Y-117045619D01*
X117118190Y-117069809D01*
X117069809Y-117069809D01*
X117021428Y-117045619D01*
X116997238Y-117021428D01*
X116973047Y-116973047D01*
X116948857Y-116876285D01*
X116948857Y-116755333D01*
X116973047Y-116658571D01*
X116997238Y-116610190D01*
X117021428Y-116586000D01*
X117069809Y-116561809D01*
X117722952Y-117069809D02*
X117432666Y-117069809D01*
X117577809Y-117069809D02*
X117577809Y-116561809D01*
X117529428Y-116634380D01*
X117481047Y-116682761D01*
X117432666Y-116706952D01*
%TO.C,U105*%
X122319142Y-102581809D02*
X122319142Y-102993047D01*
X122343333Y-103041428D01*
X122367523Y-103065619D01*
X122415904Y-103089809D01*
X122512666Y-103089809D01*
X122561047Y-103065619D01*
X122585238Y-103041428D01*
X122609428Y-102993047D01*
X122609428Y-102581809D01*
X123117428Y-103089809D02*
X122827142Y-103089809D01*
X122972285Y-103089809D02*
X122972285Y-102581809D01*
X122923904Y-102654380D01*
X122875523Y-102702761D01*
X122827142Y-102726952D01*
X123431904Y-102581809D02*
X123480285Y-102581809D01*
X123528666Y-102606000D01*
X123552857Y-102630190D01*
X123577047Y-102678571D01*
X123601238Y-102775333D01*
X123601238Y-102896285D01*
X123577047Y-102993047D01*
X123552857Y-103041428D01*
X123528666Y-103065619D01*
X123480285Y-103089809D01*
X123431904Y-103089809D01*
X123383523Y-103065619D01*
X123359333Y-103041428D01*
X123335142Y-102993047D01*
X123310952Y-102896285D01*
X123310952Y-102775333D01*
X123335142Y-102678571D01*
X123359333Y-102630190D01*
X123383523Y-102606000D01*
X123431904Y-102581809D01*
X124060857Y-102581809D02*
X123818952Y-102581809D01*
X123794761Y-102823714D01*
X123818952Y-102799523D01*
X123867333Y-102775333D01*
X123988285Y-102775333D01*
X124036666Y-102799523D01*
X124060857Y-102823714D01*
X124085047Y-102872095D01*
X124085047Y-102993047D01*
X124060857Y-103041428D01*
X124036666Y-103065619D01*
X123988285Y-103089809D01*
X123867333Y-103089809D01*
X123818952Y-103065619D01*
X123794761Y-103041428D01*
%TO.C,U104*%
X122319142Y-110846809D02*
X122319142Y-111258047D01*
X122343333Y-111306428D01*
X122367523Y-111330619D01*
X122415904Y-111354809D01*
X122512666Y-111354809D01*
X122561047Y-111330619D01*
X122585238Y-111306428D01*
X122609428Y-111258047D01*
X122609428Y-110846809D01*
X123117428Y-111354809D02*
X122827142Y-111354809D01*
X122972285Y-111354809D02*
X122972285Y-110846809D01*
X122923904Y-110919380D01*
X122875523Y-110967761D01*
X122827142Y-110991952D01*
X123431904Y-110846809D02*
X123480285Y-110846809D01*
X123528666Y-110871000D01*
X123552857Y-110895190D01*
X123577047Y-110943571D01*
X123601238Y-111040333D01*
X123601238Y-111161285D01*
X123577047Y-111258047D01*
X123552857Y-111306428D01*
X123528666Y-111330619D01*
X123480285Y-111354809D01*
X123431904Y-111354809D01*
X123383523Y-111330619D01*
X123359333Y-111306428D01*
X123335142Y-111258047D01*
X123310952Y-111161285D01*
X123310952Y-111040333D01*
X123335142Y-110943571D01*
X123359333Y-110895190D01*
X123383523Y-110871000D01*
X123431904Y-110846809D01*
X124036666Y-111016142D02*
X124036666Y-111354809D01*
X123915714Y-110822619D02*
X123794761Y-111185476D01*
X124109238Y-111185476D01*
D13*
X124460000Y-110577380D02*
X124460000Y-110815476D01*
X124221904Y-110720238D02*
X124460000Y-110815476D01*
X124698095Y-110720238D01*
X124317142Y-111005952D02*
X124460000Y-110815476D01*
X124602857Y-111005952D01*
%TO.C,U103*%
D14*
X115926809Y-129140857D02*
X116338047Y-129140857D01*
X116386428Y-129116666D01*
X116410619Y-129092476D01*
X116434809Y-129044095D01*
X116434809Y-128947333D01*
X116410619Y-128898952D01*
X116386428Y-128874761D01*
X116338047Y-128850571D01*
X115926809Y-128850571D01*
X116434809Y-128342571D02*
X116434809Y-128632857D01*
X116434809Y-128487714D02*
X115926809Y-128487714D01*
X115999380Y-128536095D01*
X116047761Y-128584476D01*
X116071952Y-128632857D01*
X115926809Y-128028095D02*
X115926809Y-127979714D01*
X115951000Y-127931333D01*
X115975190Y-127907142D01*
X116023571Y-127882952D01*
X116120333Y-127858761D01*
X116241285Y-127858761D01*
X116338047Y-127882952D01*
X116386428Y-127907142D01*
X116410619Y-127931333D01*
X116434809Y-127979714D01*
X116434809Y-128028095D01*
X116410619Y-128076476D01*
X116386428Y-128100666D01*
X116338047Y-128124857D01*
X116241285Y-128149047D01*
X116120333Y-128149047D01*
X116023571Y-128124857D01*
X115975190Y-128100666D01*
X115951000Y-128076476D01*
X115926809Y-128028095D01*
X115926809Y-127689428D02*
X115926809Y-127374952D01*
X116120333Y-127544285D01*
X116120333Y-127471714D01*
X116144523Y-127423333D01*
X116168714Y-127399142D01*
X116217095Y-127374952D01*
X116338047Y-127374952D01*
X116386428Y-127399142D01*
X116410619Y-127423333D01*
X116434809Y-127471714D01*
X116434809Y-127616857D01*
X116410619Y-127665238D01*
X116386428Y-127689428D01*
D13*
X116840000Y-126452380D02*
X116840000Y-126690476D01*
X116601904Y-126595238D02*
X116840000Y-126690476D01*
X117078095Y-126595238D01*
X116697142Y-126880952D02*
X116840000Y-126690476D01*
X116982857Y-126880952D01*
%TO.C,U102*%
D14*
X115969142Y-118466809D02*
X115969142Y-118878047D01*
X115993333Y-118926428D01*
X116017523Y-118950619D01*
X116065904Y-118974809D01*
X116162666Y-118974809D01*
X116211047Y-118950619D01*
X116235238Y-118926428D01*
X116259428Y-118878047D01*
X116259428Y-118466809D01*
X116767428Y-118974809D02*
X116477142Y-118974809D01*
X116622285Y-118974809D02*
X116622285Y-118466809D01*
X116573904Y-118539380D01*
X116525523Y-118587761D01*
X116477142Y-118611952D01*
X117081904Y-118466809D02*
X117130285Y-118466809D01*
X117178666Y-118491000D01*
X117202857Y-118515190D01*
X117227047Y-118563571D01*
X117251238Y-118660333D01*
X117251238Y-118781285D01*
X117227047Y-118878047D01*
X117202857Y-118926428D01*
X117178666Y-118950619D01*
X117130285Y-118974809D01*
X117081904Y-118974809D01*
X117033523Y-118950619D01*
X117009333Y-118926428D01*
X116985142Y-118878047D01*
X116960952Y-118781285D01*
X116960952Y-118660333D01*
X116985142Y-118563571D01*
X117009333Y-118515190D01*
X117033523Y-118491000D01*
X117081904Y-118466809D01*
X117444761Y-118515190D02*
X117468952Y-118491000D01*
X117517333Y-118466809D01*
X117638285Y-118466809D01*
X117686666Y-118491000D01*
X117710857Y-118515190D01*
X117735047Y-118563571D01*
X117735047Y-118611952D01*
X117710857Y-118684523D01*
X117420571Y-118974809D01*
X117735047Y-118974809D01*
D13*
X120737380Y-118110000D02*
X120975476Y-118110000D01*
X120880238Y-118348095D02*
X120975476Y-118110000D01*
X120880238Y-117871904D01*
X121165952Y-118252857D02*
X120975476Y-118110000D01*
X121165952Y-117967142D01*
%TD*%
M02*
