%TF.GenerationSoftware,KiCad,Pcbnew,(5.1.6)-1*%
%TF.CreationDate,2021-05-29T12:16:40-05:00*%
%TF.ProjectId,Sapphire_AnalogMic,53617070-6869-4726-955f-416e616c6f67,rev?*%
%TF.SameCoordinates,Original*%
%TF.FileFunction,Copper,L1,Top*%
%TF.FilePolarity,Positive*%
%FSLAX46Y46*%
G04 Gerber Fmt 4.6, Leading zero omitted, Abs format (unit mm)*
G04 Created by KiCad (PCBNEW (5.1.6)-1) date 2021-05-29 12:16:40*
%MOMM*%
%LPD*%
G01*
G04 APERTURE LIST*
%TA.AperFunction,ComponentPad*%
%ADD10C,1.440000*%
%TD*%
%TA.AperFunction,SMDPad,CuDef*%
%ADD11R,1.320800X0.406400*%
%TD*%
%TA.AperFunction,ComponentPad*%
%ADD12O,1.700000X1.700000*%
%TD*%
%TA.AperFunction,ComponentPad*%
%ADD13R,1.700000X1.700000*%
%TD*%
%TA.AperFunction,SMDPad,CuDef*%
%ADD14R,1.500000X1.000000*%
%TD*%
%TA.AperFunction,SMDPad,CuDef*%
%ADD15C,0.100000*%
%TD*%
%TA.AperFunction,SMDPad,CuDef*%
%ADD16R,1.100000X0.250000*%
%TD*%
%TA.AperFunction,SMDPad,CuDef*%
%ADD17R,1.574800X0.558800*%
%TD*%
%TA.AperFunction,SMDPad,CuDef*%
%ADD18O,0.449999X1.350000*%
%TD*%
%TA.AperFunction,ViaPad*%
%ADD19C,0.800000*%
%TD*%
%TA.AperFunction,Conductor*%
%ADD20C,0.250000*%
%TD*%
G04 APERTURE END LIST*
D10*
%TO.P,RV101,3*%
%TO.N,Net-(R106-Pad2)*%
X113030000Y-117348000D03*
%TO.P,RV101,2*%
X113030000Y-114808000D03*
%TO.P,RV101,1*%
%TO.N,/MIC_REF*%
X113030000Y-112268000D03*
%TD*%
D11*
%TO.P,U101,8*%
%TO.N,+3V0*%
X124790200Y-123530360D03*
%TO.P,U101,7*%
%TO.N,Net-(U101-Pad7)*%
X124790200Y-122880120D03*
%TO.P,U101,6*%
%TO.N,/RgA*%
X124790200Y-122229880D03*
%TO.P,U101,5*%
%TO.N,/RgB*%
X124790200Y-121579640D03*
%TO.P,U101,4*%
%TO.N,GNDA*%
X129209800Y-121579640D03*
%TO.P,U101,3*%
%TO.N,/I2C_SDA*%
X129209800Y-122229880D03*
%TO.P,U101,2*%
%TO.N,/I2C_SCL*%
X129209800Y-122880120D03*
%TO.P,U101,1*%
%TO.N,GNDA*%
X129209800Y-123530360D03*
%TD*%
%TO.P,C106,2*%
%TO.N,+3V0*%
%TA.AperFunction,SMDPad,CuDef*%
G36*
G01*
X113408750Y-126080000D02*
X113921250Y-126080000D01*
G75*
G02*
X114140000Y-126298750I0J-218750D01*
G01*
X114140000Y-126736250D01*
G75*
G02*
X113921250Y-126955000I-218750J0D01*
G01*
X113408750Y-126955000D01*
G75*
G02*
X113190000Y-126736250I0J218750D01*
G01*
X113190000Y-126298750D01*
G75*
G02*
X113408750Y-126080000I218750J0D01*
G01*
G37*
%TD.AperFunction*%
%TO.P,C106,1*%
%TO.N,GNDA*%
%TA.AperFunction,SMDPad,CuDef*%
G36*
G01*
X113408750Y-124505000D02*
X113921250Y-124505000D01*
G75*
G02*
X114140000Y-124723750I0J-218750D01*
G01*
X114140000Y-125161250D01*
G75*
G02*
X113921250Y-125380000I-218750J0D01*
G01*
X113408750Y-125380000D01*
G75*
G02*
X113190000Y-125161250I0J218750D01*
G01*
X113190000Y-124723750D01*
G75*
G02*
X113408750Y-124505000I218750J0D01*
G01*
G37*
%TD.AperFunction*%
%TD*%
D12*
%TO.P,MK101,2*%
%TO.N,/MIC_OUT*%
X111125000Y-132715000D03*
D13*
%TO.P,MK101,1*%
%TO.N,GNDA*%
X111125000Y-130175000D03*
%TD*%
D14*
%TO.P,JP104,2*%
%TO.N,Net-(JP104-Pad2)*%
X126365000Y-117475000D03*
%TA.AperFunction,SMDPad,CuDef*%
D15*
%TO.P,JP104,3*%
%TO.N,/FILTER_IN*%
G36*
X125615602Y-116175000D02*
G01*
X125615602Y-116150466D01*
X125620412Y-116101635D01*
X125629984Y-116053510D01*
X125644228Y-116006555D01*
X125663005Y-115961222D01*
X125686136Y-115917949D01*
X125713396Y-115877150D01*
X125744524Y-115839221D01*
X125779221Y-115804524D01*
X125817150Y-115773396D01*
X125857949Y-115746136D01*
X125901222Y-115723005D01*
X125946555Y-115704228D01*
X125993510Y-115689984D01*
X126041635Y-115680412D01*
X126090466Y-115675602D01*
X126115000Y-115675602D01*
X126115000Y-115675000D01*
X126615000Y-115675000D01*
X126615000Y-115675602D01*
X126639534Y-115675602D01*
X126688365Y-115680412D01*
X126736490Y-115689984D01*
X126783445Y-115704228D01*
X126828778Y-115723005D01*
X126872051Y-115746136D01*
X126912850Y-115773396D01*
X126950779Y-115804524D01*
X126985476Y-115839221D01*
X127016604Y-115877150D01*
X127043864Y-115917949D01*
X127066995Y-115961222D01*
X127085772Y-116006555D01*
X127100016Y-116053510D01*
X127109588Y-116101635D01*
X127114398Y-116150466D01*
X127114398Y-116175000D01*
X127115000Y-116175000D01*
X127115000Y-116725000D01*
X125615000Y-116725000D01*
X125615000Y-116175000D01*
X125615602Y-116175000D01*
G37*
%TD.AperFunction*%
%TA.AperFunction,SMDPad,CuDef*%
%TO.P,JP104,1*%
%TO.N,/FILTER_OUT*%
G36*
X127115000Y-118225000D02*
G01*
X127115000Y-118775000D01*
X127114398Y-118775000D01*
X127114398Y-118799534D01*
X127109588Y-118848365D01*
X127100016Y-118896490D01*
X127085772Y-118943445D01*
X127066995Y-118988778D01*
X127043864Y-119032051D01*
X127016604Y-119072850D01*
X126985476Y-119110779D01*
X126950779Y-119145476D01*
X126912850Y-119176604D01*
X126872051Y-119203864D01*
X126828778Y-119226995D01*
X126783445Y-119245772D01*
X126736490Y-119260016D01*
X126688365Y-119269588D01*
X126639534Y-119274398D01*
X126615000Y-119274398D01*
X126615000Y-119275000D01*
X126115000Y-119275000D01*
X126115000Y-119274398D01*
X126090466Y-119274398D01*
X126041635Y-119269588D01*
X125993510Y-119260016D01*
X125946555Y-119245772D01*
X125901222Y-119226995D01*
X125857949Y-119203864D01*
X125817150Y-119176604D01*
X125779221Y-119145476D01*
X125744524Y-119110779D01*
X125713396Y-119072850D01*
X125686136Y-119032051D01*
X125663005Y-118988778D01*
X125644228Y-118943445D01*
X125629984Y-118896490D01*
X125620412Y-118848365D01*
X125615602Y-118799534D01*
X125615602Y-118775000D01*
X125615000Y-118775000D01*
X125615000Y-118225000D01*
X127115000Y-118225000D01*
G37*
%TD.AperFunction*%
%TD*%
%TO.P,R115,2*%
%TO.N,Net-(R115-Pad2)*%
%TA.AperFunction,SMDPad,CuDef*%
G36*
G01*
X127920000Y-104518750D02*
X127920000Y-105031250D01*
G75*
G02*
X127701250Y-105250000I-218750J0D01*
G01*
X127263750Y-105250000D01*
G75*
G02*
X127045000Y-105031250I0J218750D01*
G01*
X127045000Y-104518750D01*
G75*
G02*
X127263750Y-104300000I218750J0D01*
G01*
X127701250Y-104300000D01*
G75*
G02*
X127920000Y-104518750I0J-218750D01*
G01*
G37*
%TD.AperFunction*%
%TO.P,R115,1*%
%TO.N,/I2C_SDA*%
%TA.AperFunction,SMDPad,CuDef*%
G36*
G01*
X129495000Y-104518750D02*
X129495000Y-105031250D01*
G75*
G02*
X129276250Y-105250000I-218750J0D01*
G01*
X128838750Y-105250000D01*
G75*
G02*
X128620000Y-105031250I0J218750D01*
G01*
X128620000Y-104518750D01*
G75*
G02*
X128838750Y-104300000I218750J0D01*
G01*
X129276250Y-104300000D01*
G75*
G02*
X129495000Y-104518750I0J-218750D01*
G01*
G37*
%TD.AperFunction*%
%TD*%
%TO.P,R114,2*%
%TO.N,Net-(R114-Pad2)*%
%TA.AperFunction,SMDPad,CuDef*%
G36*
G01*
X127920000Y-102613750D02*
X127920000Y-103126250D01*
G75*
G02*
X127701250Y-103345000I-218750J0D01*
G01*
X127263750Y-103345000D01*
G75*
G02*
X127045000Y-103126250I0J218750D01*
G01*
X127045000Y-102613750D01*
G75*
G02*
X127263750Y-102395000I218750J0D01*
G01*
X127701250Y-102395000D01*
G75*
G02*
X127920000Y-102613750I0J-218750D01*
G01*
G37*
%TD.AperFunction*%
%TO.P,R114,1*%
%TO.N,/I2C_SCL*%
%TA.AperFunction,SMDPad,CuDef*%
G36*
G01*
X129495000Y-102613750D02*
X129495000Y-103126250D01*
G75*
G02*
X129276250Y-103345000I-218750J0D01*
G01*
X128838750Y-103345000D01*
G75*
G02*
X128620000Y-103126250I0J218750D01*
G01*
X128620000Y-102613750D01*
G75*
G02*
X128838750Y-102395000I218750J0D01*
G01*
X129276250Y-102395000D01*
G75*
G02*
X129495000Y-102613750I0J-218750D01*
G01*
G37*
%TD.AperFunction*%
%TD*%
%TO.P,R113,2*%
%TO.N,Net-(R113-Pad2)*%
%TA.AperFunction,SMDPad,CuDef*%
G36*
G01*
X118460000Y-102491250D02*
X118460000Y-101978750D01*
G75*
G02*
X118678750Y-101760000I218750J0D01*
G01*
X119116250Y-101760000D01*
G75*
G02*
X119335000Y-101978750I0J-218750D01*
G01*
X119335000Y-102491250D01*
G75*
G02*
X119116250Y-102710000I-218750J0D01*
G01*
X118678750Y-102710000D01*
G75*
G02*
X118460000Y-102491250I0J218750D01*
G01*
G37*
%TD.AperFunction*%
%TO.P,R113,1*%
%TO.N,GNDA*%
%TA.AperFunction,SMDPad,CuDef*%
G36*
G01*
X116885000Y-102491250D02*
X116885000Y-101978750D01*
G75*
G02*
X117103750Y-101760000I218750J0D01*
G01*
X117541250Y-101760000D01*
G75*
G02*
X117760000Y-101978750I0J-218750D01*
G01*
X117760000Y-102491250D01*
G75*
G02*
X117541250Y-102710000I-218750J0D01*
G01*
X117103750Y-102710000D01*
G75*
G02*
X116885000Y-102491250I0J218750D01*
G01*
G37*
%TD.AperFunction*%
%TD*%
%TO.P,R112,2*%
%TO.N,+3V0*%
%TA.AperFunction,SMDPad,CuDef*%
G36*
G01*
X117760000Y-103883750D02*
X117760000Y-104396250D01*
G75*
G02*
X117541250Y-104615000I-218750J0D01*
G01*
X117103750Y-104615000D01*
G75*
G02*
X116885000Y-104396250I0J218750D01*
G01*
X116885000Y-103883750D01*
G75*
G02*
X117103750Y-103665000I218750J0D01*
G01*
X117541250Y-103665000D01*
G75*
G02*
X117760000Y-103883750I0J-218750D01*
G01*
G37*
%TD.AperFunction*%
%TO.P,R112,1*%
%TO.N,Net-(R112-Pad1)*%
%TA.AperFunction,SMDPad,CuDef*%
G36*
G01*
X119335000Y-103883750D02*
X119335000Y-104396250D01*
G75*
G02*
X119116250Y-104615000I-218750J0D01*
G01*
X118678750Y-104615000D01*
G75*
G02*
X118460000Y-104396250I0J218750D01*
G01*
X118460000Y-103883750D01*
G75*
G02*
X118678750Y-103665000I218750J0D01*
G01*
X119116250Y-103665000D01*
G75*
G02*
X119335000Y-103883750I0J-218750D01*
G01*
G37*
%TD.AperFunction*%
%TD*%
%TO.P,R110,2*%
%TO.N,+1V5*%
%TA.AperFunction,SMDPad,CuDef*%
G36*
G01*
X115220000Y-108328750D02*
X115220000Y-108841250D01*
G75*
G02*
X115001250Y-109060000I-218750J0D01*
G01*
X114563750Y-109060000D01*
G75*
G02*
X114345000Y-108841250I0J218750D01*
G01*
X114345000Y-108328750D01*
G75*
G02*
X114563750Y-108110000I218750J0D01*
G01*
X115001250Y-108110000D01*
G75*
G02*
X115220000Y-108328750I0J-218750D01*
G01*
G37*
%TD.AperFunction*%
%TO.P,R110,1*%
%TO.N,Net-(C107-Pad2)*%
%TA.AperFunction,SMDPad,CuDef*%
G36*
G01*
X116795000Y-108328750D02*
X116795000Y-108841250D01*
G75*
G02*
X116576250Y-109060000I-218750J0D01*
G01*
X116138750Y-109060000D01*
G75*
G02*
X115920000Y-108841250I0J218750D01*
G01*
X115920000Y-108328750D01*
G75*
G02*
X116138750Y-108110000I218750J0D01*
G01*
X116576250Y-108110000D01*
G75*
G02*
X116795000Y-108328750I0J-218750D01*
G01*
G37*
%TD.AperFunction*%
%TD*%
%TO.P,R109,2*%
%TO.N,Net-(JP104-Pad2)*%
%TA.AperFunction,SMDPad,CuDef*%
G36*
G01*
X115220000Y-105788750D02*
X115220000Y-106301250D01*
G75*
G02*
X115001250Y-106520000I-218750J0D01*
G01*
X114563750Y-106520000D01*
G75*
G02*
X114345000Y-106301250I0J218750D01*
G01*
X114345000Y-105788750D01*
G75*
G02*
X114563750Y-105570000I218750J0D01*
G01*
X115001250Y-105570000D01*
G75*
G02*
X115220000Y-105788750I0J-218750D01*
G01*
G37*
%TD.AperFunction*%
%TO.P,R109,1*%
%TO.N,Net-(C107-Pad1)*%
%TA.AperFunction,SMDPad,CuDef*%
G36*
G01*
X116795000Y-105788750D02*
X116795000Y-106301250D01*
G75*
G02*
X116576250Y-106520000I-218750J0D01*
G01*
X116138750Y-106520000D01*
G75*
G02*
X115920000Y-106301250I0J218750D01*
G01*
X115920000Y-105788750D01*
G75*
G02*
X116138750Y-105570000I218750J0D01*
G01*
X116576250Y-105570000D01*
G75*
G02*
X116795000Y-105788750I0J-218750D01*
G01*
G37*
%TD.AperFunction*%
%TD*%
%TO.P,R108,2*%
%TO.N,GNDA*%
%TA.AperFunction,SMDPad,CuDef*%
G36*
G01*
X113408750Y-122270000D02*
X113921250Y-122270000D01*
G75*
G02*
X114140000Y-122488750I0J-218750D01*
G01*
X114140000Y-122926250D01*
G75*
G02*
X113921250Y-123145000I-218750J0D01*
G01*
X113408750Y-123145000D01*
G75*
G02*
X113190000Y-122926250I0J218750D01*
G01*
X113190000Y-122488750D01*
G75*
G02*
X113408750Y-122270000I218750J0D01*
G01*
G37*
%TD.AperFunction*%
%TO.P,R108,1*%
%TO.N,Net-(R106-Pad2)*%
%TA.AperFunction,SMDPad,CuDef*%
G36*
G01*
X113408750Y-120695000D02*
X113921250Y-120695000D01*
G75*
G02*
X114140000Y-120913750I0J-218750D01*
G01*
X114140000Y-121351250D01*
G75*
G02*
X113921250Y-121570000I-218750J0D01*
G01*
X113408750Y-121570000D01*
G75*
G02*
X113190000Y-121351250I0J218750D01*
G01*
X113190000Y-120913750D01*
G75*
G02*
X113408750Y-120695000I218750J0D01*
G01*
G37*
%TD.AperFunction*%
%TD*%
%TO.P,R107,2*%
%TO.N,/MIC_REF*%
%TA.AperFunction,SMDPad,CuDef*%
G36*
G01*
X111381250Y-125380000D02*
X110868750Y-125380000D01*
G75*
G02*
X110650000Y-125161250I0J218750D01*
G01*
X110650000Y-124723750D01*
G75*
G02*
X110868750Y-124505000I218750J0D01*
G01*
X111381250Y-124505000D01*
G75*
G02*
X111600000Y-124723750I0J-218750D01*
G01*
X111600000Y-125161250D01*
G75*
G02*
X111381250Y-125380000I-218750J0D01*
G01*
G37*
%TD.AperFunction*%
%TO.P,R107,1*%
%TO.N,+3V0*%
%TA.AperFunction,SMDPad,CuDef*%
G36*
G01*
X111381250Y-126955000D02*
X110868750Y-126955000D01*
G75*
G02*
X110650000Y-126736250I0J218750D01*
G01*
X110650000Y-126298750D01*
G75*
G02*
X110868750Y-126080000I218750J0D01*
G01*
X111381250Y-126080000D01*
G75*
G02*
X111600000Y-126298750I0J-218750D01*
G01*
X111600000Y-126736250D01*
G75*
G02*
X111381250Y-126955000I-218750J0D01*
G01*
G37*
%TD.AperFunction*%
%TD*%
%TO.P,R106,2*%
%TO.N,Net-(R106-Pad2)*%
%TA.AperFunction,SMDPad,CuDef*%
G36*
G01*
X111381250Y-121570000D02*
X110868750Y-121570000D01*
G75*
G02*
X110650000Y-121351250I0J218750D01*
G01*
X110650000Y-120913750D01*
G75*
G02*
X110868750Y-120695000I218750J0D01*
G01*
X111381250Y-120695000D01*
G75*
G02*
X111600000Y-120913750I0J-218750D01*
G01*
X111600000Y-121351250D01*
G75*
G02*
X111381250Y-121570000I-218750J0D01*
G01*
G37*
%TD.AperFunction*%
%TO.P,R106,1*%
%TO.N,/MIC_REF*%
%TA.AperFunction,SMDPad,CuDef*%
G36*
G01*
X111381250Y-123145000D02*
X110868750Y-123145000D01*
G75*
G02*
X110650000Y-122926250I0J218750D01*
G01*
X110650000Y-122488750D01*
G75*
G02*
X110868750Y-122270000I218750J0D01*
G01*
X111381250Y-122270000D01*
G75*
G02*
X111600000Y-122488750I0J-218750D01*
G01*
X111600000Y-122926250D01*
G75*
G02*
X111381250Y-123145000I-218750J0D01*
G01*
G37*
%TD.AperFunction*%
%TD*%
%TO.P,R105,2*%
%TO.N,/MIC_OUT*%
%TA.AperFunction,SMDPad,CuDef*%
G36*
G01*
X113408750Y-129890000D02*
X113921250Y-129890000D01*
G75*
G02*
X114140000Y-130108750I0J-218750D01*
G01*
X114140000Y-130546250D01*
G75*
G02*
X113921250Y-130765000I-218750J0D01*
G01*
X113408750Y-130765000D01*
G75*
G02*
X113190000Y-130546250I0J218750D01*
G01*
X113190000Y-130108750D01*
G75*
G02*
X113408750Y-129890000I218750J0D01*
G01*
G37*
%TD.AperFunction*%
%TO.P,R105,1*%
%TO.N,+3V0*%
%TA.AperFunction,SMDPad,CuDef*%
G36*
G01*
X113408750Y-128315000D02*
X113921250Y-128315000D01*
G75*
G02*
X114140000Y-128533750I0J-218750D01*
G01*
X114140000Y-128971250D01*
G75*
G02*
X113921250Y-129190000I-218750J0D01*
G01*
X113408750Y-129190000D01*
G75*
G02*
X113190000Y-128971250I0J218750D01*
G01*
X113190000Y-128533750D01*
G75*
G02*
X113408750Y-128315000I218750J0D01*
G01*
G37*
%TD.AperFunction*%
%TD*%
%TO.P,R103,2*%
%TO.N,/RgB*%
%TA.AperFunction,SMDPad,CuDef*%
G36*
G01*
X122811250Y-120935000D02*
X122298750Y-120935000D01*
G75*
G02*
X122080000Y-120716250I0J218750D01*
G01*
X122080000Y-120278750D01*
G75*
G02*
X122298750Y-120060000I218750J0D01*
G01*
X122811250Y-120060000D01*
G75*
G02*
X123030000Y-120278750I0J-218750D01*
G01*
X123030000Y-120716250D01*
G75*
G02*
X122811250Y-120935000I-218750J0D01*
G01*
G37*
%TD.AperFunction*%
%TO.P,R103,1*%
%TO.N,/RgA*%
%TA.AperFunction,SMDPad,CuDef*%
G36*
G01*
X122811250Y-122510000D02*
X122298750Y-122510000D01*
G75*
G02*
X122080000Y-122291250I0J218750D01*
G01*
X122080000Y-121853750D01*
G75*
G02*
X122298750Y-121635000I218750J0D01*
G01*
X122811250Y-121635000D01*
G75*
G02*
X123030000Y-121853750I0J-218750D01*
G01*
X123030000Y-122291250D01*
G75*
G02*
X122811250Y-122510000I-218750J0D01*
G01*
G37*
%TD.AperFunction*%
%TD*%
%TO.P,R102,2*%
%TO.N,/MIC_OUT*%
%TA.AperFunction,SMDPad,CuDef*%
G36*
G01*
X120906250Y-113950000D02*
X120393750Y-113950000D01*
G75*
G02*
X120175000Y-113731250I0J218750D01*
G01*
X120175000Y-113293750D01*
G75*
G02*
X120393750Y-113075000I218750J0D01*
G01*
X120906250Y-113075000D01*
G75*
G02*
X121125000Y-113293750I0J-218750D01*
G01*
X121125000Y-113731250D01*
G75*
G02*
X120906250Y-113950000I-218750J0D01*
G01*
G37*
%TD.AperFunction*%
%TO.P,R102,1*%
%TO.N,Net-(C101-Pad2)*%
%TA.AperFunction,SMDPad,CuDef*%
G36*
G01*
X120906250Y-115525000D02*
X120393750Y-115525000D01*
G75*
G02*
X120175000Y-115306250I0J218750D01*
G01*
X120175000Y-114868750D01*
G75*
G02*
X120393750Y-114650000I218750J0D01*
G01*
X120906250Y-114650000D01*
G75*
G02*
X121125000Y-114868750I0J-218750D01*
G01*
X121125000Y-115306250D01*
G75*
G02*
X120906250Y-115525000I-218750J0D01*
G01*
G37*
%TD.AperFunction*%
%TD*%
%TO.P,R101,2*%
%TO.N,/MIC_REF*%
%TA.AperFunction,SMDPad,CuDef*%
G36*
G01*
X118366250Y-113950000D02*
X117853750Y-113950000D01*
G75*
G02*
X117635000Y-113731250I0J218750D01*
G01*
X117635000Y-113293750D01*
G75*
G02*
X117853750Y-113075000I218750J0D01*
G01*
X118366250Y-113075000D01*
G75*
G02*
X118585000Y-113293750I0J-218750D01*
G01*
X118585000Y-113731250D01*
G75*
G02*
X118366250Y-113950000I-218750J0D01*
G01*
G37*
%TD.AperFunction*%
%TO.P,R101,1*%
%TO.N,Net-(C101-Pad1)*%
%TA.AperFunction,SMDPad,CuDef*%
G36*
G01*
X118366250Y-115525000D02*
X117853750Y-115525000D01*
G75*
G02*
X117635000Y-115306250I0J218750D01*
G01*
X117635000Y-114868750D01*
G75*
G02*
X117853750Y-114650000I218750J0D01*
G01*
X118366250Y-114650000D01*
G75*
G02*
X118585000Y-114868750I0J-218750D01*
G01*
X118585000Y-115306250D01*
G75*
G02*
X118366250Y-115525000I-218750J0D01*
G01*
G37*
%TD.AperFunction*%
%TD*%
%TO.P,FB102,2*%
%TO.N,/PGND*%
%TA.AperFunction,SMDPad,CuDef*%
G36*
G01*
X124838750Y-128620000D02*
X125351250Y-128620000D01*
G75*
G02*
X125570000Y-128838750I0J-218750D01*
G01*
X125570000Y-129276250D01*
G75*
G02*
X125351250Y-129495000I-218750J0D01*
G01*
X124838750Y-129495000D01*
G75*
G02*
X124620000Y-129276250I0J218750D01*
G01*
X124620000Y-128838750D01*
G75*
G02*
X124838750Y-128620000I218750J0D01*
G01*
G37*
%TD.AperFunction*%
%TO.P,FB102,1*%
%TO.N,GNDA*%
%TA.AperFunction,SMDPad,CuDef*%
G36*
G01*
X124838750Y-127045000D02*
X125351250Y-127045000D01*
G75*
G02*
X125570000Y-127263750I0J-218750D01*
G01*
X125570000Y-127701250D01*
G75*
G02*
X125351250Y-127920000I-218750J0D01*
G01*
X124838750Y-127920000D01*
G75*
G02*
X124620000Y-127701250I0J218750D01*
G01*
X124620000Y-127263750D01*
G75*
G02*
X124838750Y-127045000I218750J0D01*
G01*
G37*
%TD.AperFunction*%
%TD*%
%TO.P,FB101,2*%
%TO.N,/P3V3*%
%TA.AperFunction,SMDPad,CuDef*%
G36*
G01*
X128013750Y-128620000D02*
X128526250Y-128620000D01*
G75*
G02*
X128745000Y-128838750I0J-218750D01*
G01*
X128745000Y-129276250D01*
G75*
G02*
X128526250Y-129495000I-218750J0D01*
G01*
X128013750Y-129495000D01*
G75*
G02*
X127795000Y-129276250I0J218750D01*
G01*
X127795000Y-128838750D01*
G75*
G02*
X128013750Y-128620000I218750J0D01*
G01*
G37*
%TD.AperFunction*%
%TO.P,FB101,1*%
%TO.N,+3.3VADC*%
%TA.AperFunction,SMDPad,CuDef*%
G36*
G01*
X128013750Y-127045000D02*
X128526250Y-127045000D01*
G75*
G02*
X128745000Y-127263750I0J-218750D01*
G01*
X128745000Y-127701250D01*
G75*
G02*
X128526250Y-127920000I-218750J0D01*
G01*
X128013750Y-127920000D01*
G75*
G02*
X127795000Y-127701250I0J218750D01*
G01*
X127795000Y-127263750D01*
G75*
G02*
X128013750Y-127045000I218750J0D01*
G01*
G37*
%TD.AperFunction*%
%TD*%
%TO.P,C111,2*%
%TO.N,GNDA*%
%TA.AperFunction,SMDPad,CuDef*%
G36*
G01*
X126080000Y-110111250D02*
X126080000Y-109598750D01*
G75*
G02*
X126298750Y-109380000I218750J0D01*
G01*
X126736250Y-109380000D01*
G75*
G02*
X126955000Y-109598750I0J-218750D01*
G01*
X126955000Y-110111250D01*
G75*
G02*
X126736250Y-110330000I-218750J0D01*
G01*
X126298750Y-110330000D01*
G75*
G02*
X126080000Y-110111250I0J218750D01*
G01*
G37*
%TD.AperFunction*%
%TO.P,C111,1*%
%TO.N,+1V5*%
%TA.AperFunction,SMDPad,CuDef*%
G36*
G01*
X124505000Y-110111250D02*
X124505000Y-109598750D01*
G75*
G02*
X124723750Y-109380000I218750J0D01*
G01*
X125161250Y-109380000D01*
G75*
G02*
X125380000Y-109598750I0J-218750D01*
G01*
X125380000Y-110111250D01*
G75*
G02*
X125161250Y-110330000I-218750J0D01*
G01*
X124723750Y-110330000D01*
G75*
G02*
X124505000Y-110111250I0J218750D01*
G01*
G37*
%TD.AperFunction*%
%TD*%
%TO.P,C109,2*%
%TO.N,GNDA*%
%TA.AperFunction,SMDPad,CuDef*%
G36*
G01*
X128620000Y-106936250D02*
X128620000Y-106423750D01*
G75*
G02*
X128838750Y-106205000I218750J0D01*
G01*
X129276250Y-106205000D01*
G75*
G02*
X129495000Y-106423750I0J-218750D01*
G01*
X129495000Y-106936250D01*
G75*
G02*
X129276250Y-107155000I-218750J0D01*
G01*
X128838750Y-107155000D01*
G75*
G02*
X128620000Y-106936250I0J218750D01*
G01*
G37*
%TD.AperFunction*%
%TO.P,C109,1*%
%TO.N,+3V0*%
%TA.AperFunction,SMDPad,CuDef*%
G36*
G01*
X127045000Y-106936250D02*
X127045000Y-106423750D01*
G75*
G02*
X127263750Y-106205000I218750J0D01*
G01*
X127701250Y-106205000D01*
G75*
G02*
X127920000Y-106423750I0J-218750D01*
G01*
X127920000Y-106936250D01*
G75*
G02*
X127701250Y-107155000I-218750J0D01*
G01*
X127263750Y-107155000D01*
G75*
G02*
X127045000Y-106936250I0J218750D01*
G01*
G37*
%TD.AperFunction*%
%TD*%
%TO.P,C108,2*%
%TO.N,GNDA*%
%TA.AperFunction,SMDPad,CuDef*%
G36*
G01*
X129190000Y-109598750D02*
X129190000Y-110111250D01*
G75*
G02*
X128971250Y-110330000I-218750J0D01*
G01*
X128533750Y-110330000D01*
G75*
G02*
X128315000Y-110111250I0J218750D01*
G01*
X128315000Y-109598750D01*
G75*
G02*
X128533750Y-109380000I218750J0D01*
G01*
X128971250Y-109380000D01*
G75*
G02*
X129190000Y-109598750I0J-218750D01*
G01*
G37*
%TD.AperFunction*%
%TO.P,C108,1*%
%TO.N,/FILTER_CLOCK*%
%TA.AperFunction,SMDPad,CuDef*%
G36*
G01*
X130765000Y-109598750D02*
X130765000Y-110111250D01*
G75*
G02*
X130546250Y-110330000I-218750J0D01*
G01*
X130108750Y-110330000D01*
G75*
G02*
X129890000Y-110111250I0J218750D01*
G01*
X129890000Y-109598750D01*
G75*
G02*
X130108750Y-109380000I218750J0D01*
G01*
X130546250Y-109380000D01*
G75*
G02*
X130765000Y-109598750I0J-218750D01*
G01*
G37*
%TD.AperFunction*%
%TD*%
%TO.P,C107,2*%
%TO.N,Net-(C107-Pad2)*%
%TA.AperFunction,SMDPad,CuDef*%
G36*
G01*
X118488750Y-107665000D02*
X119001250Y-107665000D01*
G75*
G02*
X119220000Y-107883750I0J-218750D01*
G01*
X119220000Y-108321250D01*
G75*
G02*
X119001250Y-108540000I-218750J0D01*
G01*
X118488750Y-108540000D01*
G75*
G02*
X118270000Y-108321250I0J218750D01*
G01*
X118270000Y-107883750D01*
G75*
G02*
X118488750Y-107665000I218750J0D01*
G01*
G37*
%TD.AperFunction*%
%TO.P,C107,1*%
%TO.N,Net-(C107-Pad1)*%
%TA.AperFunction,SMDPad,CuDef*%
G36*
G01*
X118488750Y-106090000D02*
X119001250Y-106090000D01*
G75*
G02*
X119220000Y-106308750I0J-218750D01*
G01*
X119220000Y-106746250D01*
G75*
G02*
X119001250Y-106965000I-218750J0D01*
G01*
X118488750Y-106965000D01*
G75*
G02*
X118270000Y-106746250I0J218750D01*
G01*
X118270000Y-106308750D01*
G75*
G02*
X118488750Y-106090000I218750J0D01*
G01*
G37*
%TD.AperFunction*%
%TD*%
%TO.P,C105,2*%
%TO.N,GNDA*%
%TA.AperFunction,SMDPad,CuDef*%
G36*
G01*
X123446250Y-113315000D02*
X122933750Y-113315000D01*
G75*
G02*
X122715000Y-113096250I0J218750D01*
G01*
X122715000Y-112658750D01*
G75*
G02*
X122933750Y-112440000I218750J0D01*
G01*
X123446250Y-112440000D01*
G75*
G02*
X123665000Y-112658750I0J-218750D01*
G01*
X123665000Y-113096250D01*
G75*
G02*
X123446250Y-113315000I-218750J0D01*
G01*
G37*
%TD.AperFunction*%
%TO.P,C105,1*%
%TO.N,+3.3VADC*%
%TA.AperFunction,SMDPad,CuDef*%
G36*
G01*
X123446250Y-114890000D02*
X122933750Y-114890000D01*
G75*
G02*
X122715000Y-114671250I0J218750D01*
G01*
X122715000Y-114233750D01*
G75*
G02*
X122933750Y-114015000I218750J0D01*
G01*
X123446250Y-114015000D01*
G75*
G02*
X123665000Y-114233750I0J-218750D01*
G01*
X123665000Y-114671250D01*
G75*
G02*
X123446250Y-114890000I-218750J0D01*
G01*
G37*
%TD.AperFunction*%
%TD*%
%TO.P,C104,2*%
%TO.N,+1V5*%
%TA.AperFunction,SMDPad,CuDef*%
G36*
G01*
X117825000Y-125986250D02*
X117825000Y-125473750D01*
G75*
G02*
X118043750Y-125255000I218750J0D01*
G01*
X118481250Y-125255000D01*
G75*
G02*
X118700000Y-125473750I0J-218750D01*
G01*
X118700000Y-125986250D01*
G75*
G02*
X118481250Y-126205000I-218750J0D01*
G01*
X118043750Y-126205000D01*
G75*
G02*
X117825000Y-125986250I0J218750D01*
G01*
G37*
%TD.AperFunction*%
%TO.P,C104,1*%
%TO.N,GNDA*%
%TA.AperFunction,SMDPad,CuDef*%
G36*
G01*
X116250000Y-125986250D02*
X116250000Y-125473750D01*
G75*
G02*
X116468750Y-125255000I218750J0D01*
G01*
X116906250Y-125255000D01*
G75*
G02*
X117125000Y-125473750I0J-218750D01*
G01*
X117125000Y-125986250D01*
G75*
G02*
X116906250Y-126205000I-218750J0D01*
G01*
X116468750Y-126205000D01*
G75*
G02*
X116250000Y-125986250I0J218750D01*
G01*
G37*
%TD.AperFunction*%
%TD*%
%TO.P,C103,2*%
%TO.N,GNDA*%
%TA.AperFunction,SMDPad,CuDef*%
G36*
G01*
X121635000Y-125986250D02*
X121635000Y-125473750D01*
G75*
G02*
X121853750Y-125255000I218750J0D01*
G01*
X122291250Y-125255000D01*
G75*
G02*
X122510000Y-125473750I0J-218750D01*
G01*
X122510000Y-125986250D01*
G75*
G02*
X122291250Y-126205000I-218750J0D01*
G01*
X121853750Y-126205000D01*
G75*
G02*
X121635000Y-125986250I0J218750D01*
G01*
G37*
%TD.AperFunction*%
%TO.P,C103,1*%
%TO.N,+3V0*%
%TA.AperFunction,SMDPad,CuDef*%
G36*
G01*
X120060000Y-125986250D02*
X120060000Y-125473750D01*
G75*
G02*
X120278750Y-125255000I218750J0D01*
G01*
X120716250Y-125255000D01*
G75*
G02*
X120935000Y-125473750I0J-218750D01*
G01*
X120935000Y-125986250D01*
G75*
G02*
X120716250Y-126205000I-218750J0D01*
G01*
X120278750Y-126205000D01*
G75*
G02*
X120060000Y-125986250I0J218750D01*
G01*
G37*
%TD.AperFunction*%
%TD*%
%TO.P,C102,2*%
%TO.N,GNDA*%
%TA.AperFunction,SMDPad,CuDef*%
G36*
G01*
X122811250Y-127920000D02*
X122298750Y-127920000D01*
G75*
G02*
X122080000Y-127701250I0J218750D01*
G01*
X122080000Y-127263750D01*
G75*
G02*
X122298750Y-127045000I218750J0D01*
G01*
X122811250Y-127045000D01*
G75*
G02*
X123030000Y-127263750I0J-218750D01*
G01*
X123030000Y-127701250D01*
G75*
G02*
X122811250Y-127920000I-218750J0D01*
G01*
G37*
%TD.AperFunction*%
%TO.P,C102,1*%
%TO.N,+3.3VADC*%
%TA.AperFunction,SMDPad,CuDef*%
G36*
G01*
X122811250Y-129495000D02*
X122298750Y-129495000D01*
G75*
G02*
X122080000Y-129276250I0J218750D01*
G01*
X122080000Y-128838750D01*
G75*
G02*
X122298750Y-128620000I218750J0D01*
G01*
X122811250Y-128620000D01*
G75*
G02*
X123030000Y-128838750I0J-218750D01*
G01*
X123030000Y-129276250D01*
G75*
G02*
X122811250Y-129495000I-218750J0D01*
G01*
G37*
%TD.AperFunction*%
%TD*%
%TO.P,C101,2*%
%TO.N,Net-(C101-Pad2)*%
%TA.AperFunction,SMDPad,CuDef*%
G36*
G01*
X119730000Y-117096250D02*
X119730000Y-116583750D01*
G75*
G02*
X119948750Y-116365000I218750J0D01*
G01*
X120386250Y-116365000D01*
G75*
G02*
X120605000Y-116583750I0J-218750D01*
G01*
X120605000Y-117096250D01*
G75*
G02*
X120386250Y-117315000I-218750J0D01*
G01*
X119948750Y-117315000D01*
G75*
G02*
X119730000Y-117096250I0J218750D01*
G01*
G37*
%TD.AperFunction*%
%TO.P,C101,1*%
%TO.N,Net-(C101-Pad1)*%
%TA.AperFunction,SMDPad,CuDef*%
G36*
G01*
X118155000Y-117096250D02*
X118155000Y-116583750D01*
G75*
G02*
X118373750Y-116365000I218750J0D01*
G01*
X118811250Y-116365000D01*
G75*
G02*
X119030000Y-116583750I0J-218750D01*
G01*
X119030000Y-117096250D01*
G75*
G02*
X118811250Y-117315000I-218750J0D01*
G01*
X118373750Y-117315000D01*
G75*
G02*
X118155000Y-117096250I0J218750D01*
G01*
G37*
%TD.AperFunction*%
%TD*%
D12*
%TO.P,J101,5*%
%TO.N,/I2C_SDA*%
X117475000Y-132080000D03*
%TO.P,J101,4*%
%TO.N,/I2C_SCL*%
X120015000Y-132080000D03*
%TO.P,J101,3*%
%TO.N,/PGND*%
X122555000Y-132080000D03*
%TO.P,J101,2*%
%TO.N,/FILTER_CLOCK*%
X125095000Y-132080000D03*
D13*
%TO.P,J101,1*%
%TO.N,/P3V3*%
X127635000Y-132080000D03*
%TD*%
D16*
%TO.P,U105,10*%
%TO.N,Net-(R114-Pad2)*%
X125340000Y-104410000D03*
%TO.P,U105,9*%
%TO.N,Net-(R115-Pad2)*%
X125340000Y-104910000D03*
%TO.P,U105,8*%
%TO.N,+3V0*%
X125340000Y-105410000D03*
%TO.P,U105,7*%
%TO.N,/MIC_REF*%
X125340000Y-105910000D03*
%TO.P,U105,6*%
%TO.N,/MIC_OUT*%
X125340000Y-106410000D03*
%TO.P,U105,5*%
%TO.N,Net-(C107-Pad2)*%
X121040000Y-106410000D03*
%TO.P,U105,4*%
%TO.N,Net-(C107-Pad1)*%
X121040000Y-105910000D03*
%TO.P,U105,3*%
%TO.N,GNDA*%
X121040000Y-105410000D03*
%TO.P,U105,2*%
%TO.N,Net-(R112-Pad1)*%
X121040000Y-104910000D03*
%TO.P,U105,1*%
%TO.N,Net-(R113-Pad2)*%
X121040000Y-104410000D03*
%TD*%
D11*
%TO.P,U104,8*%
%TO.N,/FILTER_CLOCK*%
X129844800Y-112054640D03*
%TO.P,U104,7*%
%TO.N,+3.3VADC*%
X129844800Y-112704880D03*
%TO.P,U104,6*%
%TO.N,+1V5*%
X129844800Y-113355120D03*
%TO.P,U104,5*%
%TO.N,/FILTER_OUT*%
X129844800Y-114005360D03*
%TO.P,U104,4*%
%TO.N,+3.3VADC*%
X125425200Y-114005360D03*
%TO.P,U104,3*%
%TO.N,GNDA*%
X125425200Y-113355120D03*
%TO.P,U104,2*%
%TO.N,/FILTER_IN*%
X125425200Y-112704880D03*
%TO.P,U104,1*%
%TO.N,+1V5*%
X125425200Y-112054640D03*
%TD*%
D17*
%TO.P,U103,5*%
%TO.N,+3V0*%
X120548400Y-127319999D03*
%TO.P,U103,4*%
%TO.N,+3.3VADC*%
X120548400Y-129220001D03*
%TO.P,U103,3*%
X118211600Y-129220001D03*
%TO.P,U103,2*%
%TO.N,GNDA*%
X118211600Y-128270000D03*
%TO.P,U103,1*%
%TO.N,+1V5*%
X118211600Y-127319999D03*
%TD*%
D18*
%TO.P,U102,8*%
%TO.N,/RgA*%
X120354999Y-123510002D03*
%TO.P,U102,7*%
%TO.N,+3V0*%
X119704998Y-123510002D03*
%TO.P,U102,6*%
%TO.N,/FILTER_IN*%
X119054999Y-123510002D03*
%TO.P,U102,5*%
%TO.N,+1V5*%
X118404998Y-123510002D03*
%TO.P,U102,4*%
%TO.N,GNDA*%
X118404998Y-119060001D03*
%TO.P,U102,3*%
%TO.N,Net-(C101-Pad1)*%
X119054999Y-119060001D03*
%TO.P,U102,2*%
%TO.N,Net-(C101-Pad2)*%
X119704998Y-119060001D03*
%TO.P,U102,1*%
%TO.N,/RgB*%
X120354999Y-119060001D03*
%TD*%
D19*
%TO.N,GNDA*%
X116840000Y-119380000D03*
X127635000Y-108585000D03*
X123825000Y-125730000D03*
X116840000Y-123825000D03*
X116825642Y-129540997D03*
X119380000Y-105410000D03*
X129449990Y-120650000D03*
X123956913Y-111891913D03*
X130059331Y-107938403D03*
X112395000Y-124460000D03*
X116205000Y-102870000D03*
%TO.N,+3.3VADC*%
X127000000Y-113665000D03*
X128270000Y-111760000D03*
X129540000Y-127635000D03*
X131639934Y-108585000D03*
%TO.N,+1V5*%
X122555000Y-118110000D03*
X122651503Y-116154186D03*
X122428000Y-109982000D03*
X118745000Y-110363000D03*
%TO.N,/FILTER_CLOCK*%
X130175000Y-132715000D03*
X132080000Y-132715000D03*
X131445000Y-110490000D03*
X132080000Y-112304990D03*
%TO.N,+3V0*%
X128905000Y-108585000D03*
X126365000Y-125095000D03*
X119380000Y-125730000D03*
X116586000Y-127000000D03*
%TO.N,/I2C_SCL*%
X131445000Y-102870000D03*
X130629989Y-124781649D03*
%TO.N,/RgB*%
X123873900Y-120497501D03*
X121285000Y-117474992D03*
%TO.N,/FILTER_IN*%
X123825000Y-116205000D03*
X123825000Y-118110000D03*
%TO.N,Net-(JP104-Pad2)*%
X119380000Y-111760000D03*
X121385970Y-111761326D03*
%TO.N,/MIC_OUT*%
X119380000Y-113665000D03*
X116840000Y-114300010D03*
X115570000Y-125792490D03*
X115570000Y-127381000D03*
%TD*%
D20*
%TO.N,Net-(C101-Pad2)*%
X120167500Y-115570000D02*
X120650000Y-115087500D01*
X120167500Y-116840000D02*
X120167500Y-115570000D01*
X119704998Y-117302502D02*
X120167500Y-116840000D01*
X119704998Y-119060001D02*
X119704998Y-117302502D01*
%TO.N,Net-(C101-Pad1)*%
X118592500Y-115570000D02*
X118110000Y-115087500D01*
X118592500Y-116840000D02*
X118592500Y-115570000D01*
X119054999Y-117302499D02*
X118592500Y-116840000D01*
X119054999Y-119060001D02*
X119054999Y-117302499D01*
%TO.N,GNDA*%
X113665000Y-122707500D02*
X113665000Y-124942500D01*
X125095000Y-127482500D02*
X122555000Y-127482500D01*
X122555000Y-126212500D02*
X122072500Y-125730000D01*
X122555000Y-127482500D02*
X122555000Y-126212500D01*
X126517500Y-109855000D02*
X128752500Y-109855000D01*
X123667620Y-113355120D02*
X123190000Y-112877500D01*
X125425200Y-113355120D02*
X123667620Y-113355120D01*
X118404998Y-119060001D02*
X117159999Y-119060001D01*
X117159999Y-119060001D02*
X116840000Y-119380000D01*
X128752500Y-109855000D02*
X128752500Y-109702500D01*
X128752500Y-109702500D02*
X127635000Y-108585000D01*
X122072500Y-125730000D02*
X123825000Y-125730000D01*
X116687500Y-125730000D02*
X116687500Y-123977500D01*
X116687500Y-123977500D02*
X116840000Y-123825000D01*
X116825642Y-128954157D02*
X116825642Y-129540997D01*
X118211600Y-128270000D02*
X117509799Y-128270000D01*
X117509799Y-128270000D02*
X116825642Y-128954157D01*
X121040000Y-105410000D02*
X119380000Y-105410000D01*
X129043600Y-121056390D02*
X129449990Y-120650000D01*
X129043600Y-121580001D02*
X129043600Y-121056390D01*
X123190000Y-112658826D02*
X123956913Y-111891913D01*
X123190000Y-112877500D02*
X123190000Y-112658826D01*
X129057500Y-106936572D02*
X130059331Y-107938403D01*
X129057500Y-106680000D02*
X129057500Y-106936572D01*
X127956599Y-121655002D02*
X128031600Y-121580001D01*
X127956599Y-123454998D02*
X127956599Y-121655002D01*
X128031600Y-123529999D02*
X127956599Y-123454998D01*
X128031600Y-121580001D02*
X129043600Y-121580001D01*
X129043600Y-123529999D02*
X128031600Y-123529999D01*
X113665000Y-124942500D02*
X112877500Y-124942500D01*
X112877500Y-124942500D02*
X112395000Y-124460000D01*
X116840000Y-102235000D02*
X116205000Y-102870000D01*
X117322500Y-102235000D02*
X116840000Y-102235000D01*
%TO.N,+3.3VADC*%
X118211600Y-129220001D02*
X120548400Y-129220001D01*
X122392499Y-129220001D02*
X122555000Y-129057500D01*
X120548400Y-129220001D02*
X122392499Y-129220001D01*
X122555000Y-128620000D02*
X122929990Y-128245010D01*
X127507490Y-128245010D02*
X128270000Y-127482500D01*
X122929990Y-128245010D02*
X127507490Y-128245010D01*
X122555000Y-129057500D02*
X122555000Y-128620000D01*
X124978060Y-114452500D02*
X125425200Y-114005360D01*
X123190000Y-114452500D02*
X124978060Y-114452500D01*
X126659640Y-114005360D02*
X127000000Y-113665000D01*
X125425200Y-114005360D02*
X126659640Y-114005360D01*
X128934400Y-112704880D02*
X129844800Y-112704880D01*
X128270000Y-112040480D02*
X128934400Y-112704880D01*
X128270000Y-111760000D02*
X128270000Y-112040480D01*
X129387500Y-127482500D02*
X129540000Y-127635000D01*
X128270000Y-127482500D02*
X129387500Y-127482500D01*
X129515010Y-110514990D02*
X128270000Y-111760000D01*
X129953507Y-108984999D02*
X129515010Y-109423496D01*
X131239935Y-108984999D02*
X129953507Y-108984999D01*
X129515010Y-109423496D02*
X129515010Y-110514990D01*
X131639934Y-108585000D02*
X131239935Y-108984999D01*
%TO.N,+1V5*%
X124942500Y-111571940D02*
X125425200Y-112054640D01*
X124942500Y-109855000D02*
X124942500Y-111571940D01*
X118404998Y-122237832D02*
X122389990Y-118252840D01*
X118404998Y-123510002D02*
X118404998Y-122237832D01*
X127491638Y-112054640D02*
X128792118Y-113355120D01*
X128792118Y-113355120D02*
X129844800Y-113355120D01*
X125425200Y-112054640D02*
X127491638Y-112054640D01*
X124942500Y-109855000D02*
X124505000Y-109855000D01*
X122389990Y-115892673D02*
X122651503Y-116154186D01*
X124505000Y-109855000D02*
X122389990Y-111970010D01*
X122389990Y-111970010D02*
X122389990Y-115892673D01*
X118211600Y-125780900D02*
X118262500Y-125730000D01*
X118211600Y-127319999D02*
X118211600Y-125780900D01*
X118262500Y-123652500D02*
X118404998Y-123510002D01*
X118262500Y-125730000D02*
X118262500Y-123652500D01*
X124942500Y-109855000D02*
X122555000Y-109855000D01*
X122555000Y-109855000D02*
X122428000Y-109982000D01*
X114782500Y-108890405D02*
X114782500Y-108585000D01*
X116255095Y-110363000D02*
X114782500Y-108890405D01*
X118745000Y-110363000D02*
X116255095Y-110363000D01*
%TO.N,Net-(C107-Pad2)*%
X120437500Y-106410000D02*
X118745000Y-108102500D01*
X121040000Y-106410000D02*
X120437500Y-106410000D01*
X116840000Y-108102500D02*
X116357500Y-108585000D01*
X118745000Y-108102500D02*
X116840000Y-108102500D01*
%TO.N,Net-(C107-Pad1)*%
X116840000Y-106527500D02*
X116357500Y-106045000D01*
X118745000Y-106527500D02*
X116840000Y-106527500D01*
X119953004Y-105910000D02*
X119335504Y-106527500D01*
X119335504Y-106527500D02*
X118745000Y-106527500D01*
X121040000Y-105910000D02*
X119953004Y-105910000D01*
%TO.N,/FILTER_CLOCK*%
X129844800Y-112054640D02*
X130755200Y-112054640D01*
X130755200Y-110282700D02*
X130327500Y-109855000D01*
X130755200Y-112054640D02*
X130755200Y-110282700D01*
X126270001Y-133255001D02*
X125095000Y-132080000D01*
X129634999Y-133255001D02*
X130175000Y-132715000D01*
X126270001Y-133255001D02*
X129634999Y-133255001D01*
X130962500Y-110490000D02*
X130327500Y-109855000D01*
X131445000Y-110490000D02*
X130962500Y-110490000D01*
X132080000Y-132715000D02*
X132080000Y-112304990D01*
%TO.N,+3V0*%
X113665000Y-128752500D02*
X113665000Y-126517500D01*
X113665000Y-126517500D02*
X111125000Y-126517500D01*
X120548400Y-125780900D02*
X120497500Y-125730000D01*
X120548400Y-127319999D02*
X120548400Y-125780900D01*
X119704998Y-124937498D02*
X119704998Y-123510002D01*
X120497500Y-125730000D02*
X119704998Y-124937498D01*
X126212500Y-105410000D02*
X127482500Y-106680000D01*
X125340000Y-105410000D02*
X126212500Y-105410000D01*
X122697501Y-123529999D02*
X124956400Y-123529999D01*
X120497500Y-125730000D02*
X122697501Y-123529999D01*
X127482500Y-106680000D02*
X127482500Y-107162500D01*
X127482500Y-107162500D02*
X128905000Y-108585000D01*
X126365000Y-124938599D02*
X124956400Y-123529999D01*
X126365000Y-125095000D02*
X126365000Y-124938599D01*
X116401996Y-104140000D02*
X115479998Y-103218002D01*
X117322500Y-104140000D02*
X116401996Y-104140000D01*
X124540000Y-105410000D02*
X125340000Y-105410000D01*
X120185002Y-101055002D02*
X124540000Y-105410000D01*
X115479998Y-101055002D02*
X120185002Y-101055002D01*
X115479998Y-103218002D02*
X115479998Y-101055002D01*
X120497500Y-125730000D02*
X119380000Y-125730000D01*
X116103500Y-126517500D02*
X113665000Y-126517500D01*
X116586000Y-127000000D02*
X116103500Y-126517500D01*
%TO.N,/P3V3*%
X127635000Y-129692500D02*
X128270000Y-129057500D01*
X127635000Y-132080000D02*
X127635000Y-129692500D01*
%TO.N,/PGND*%
X125095000Y-129540000D02*
X125095000Y-129057500D01*
X122555000Y-132080000D02*
X125095000Y-129540000D01*
%TO.N,/I2C_SDA*%
X129043600Y-122229999D02*
X131325600Y-122229999D01*
X131354998Y-125443002D02*
X131354998Y-122259397D01*
X119550023Y-134155023D02*
X130444392Y-134155023D01*
X131354999Y-132366999D02*
X131445000Y-132276998D01*
X131354998Y-122259397D02*
X131325600Y-122229999D01*
X131445000Y-125533004D02*
X131354998Y-125443002D01*
X131445000Y-132276998D02*
X131445000Y-125533004D01*
X131354999Y-133244416D02*
X131354999Y-132366999D01*
X130444392Y-134155023D02*
X131354999Y-133244416D01*
X117475000Y-132080000D02*
X119550023Y-134155023D01*
X132364990Y-108082490D02*
X132364990Y-110946998D01*
X132364990Y-110946998D02*
X131325600Y-111986388D01*
X131325600Y-111986388D02*
X131325600Y-122229999D01*
X129057500Y-104775000D02*
X132364990Y-108082490D01*
%TO.N,/I2C_SCL*%
X131445000Y-102870000D02*
X129057500Y-102870000D01*
X130765601Y-124415601D02*
X130765601Y-124646037D01*
X130900002Y-133063002D02*
X130900002Y-125051662D01*
X120015000Y-132080000D02*
X121640012Y-133705012D01*
X130257992Y-133705012D02*
X130900002Y-133063002D01*
X129043600Y-122880001D02*
X130055600Y-122880001D01*
X130900002Y-125051662D02*
X130629989Y-124781649D01*
X130765601Y-124646037D02*
X130629989Y-124781649D01*
X130629989Y-123454390D02*
X130629989Y-124781649D01*
X130055600Y-122880001D02*
X130629989Y-123454390D01*
X121640012Y-133705012D02*
X130257992Y-133705012D01*
%TO.N,/RgA*%
X121117498Y-123510002D02*
X122555000Y-122072500D01*
X120354999Y-123510002D02*
X121117498Y-123510002D01*
X122712499Y-122229999D02*
X124956400Y-122229999D01*
X122555000Y-122072500D02*
X122712499Y-122229999D01*
%TO.N,/RgB*%
X123873899Y-120497500D02*
X124956400Y-121580001D01*
X123308215Y-120497501D02*
X123873900Y-120497501D01*
X122555000Y-120497500D02*
X123308215Y-120497501D01*
X121285000Y-118130000D02*
X121285000Y-117474992D01*
X120354999Y-119060001D02*
X121285000Y-118130000D01*
%TO.N,/FILTER_IN*%
X127725002Y-114814998D02*
X126365000Y-116175000D01*
X127725002Y-113316998D02*
X127725002Y-114814998D01*
X125425200Y-112704880D02*
X127112884Y-112704880D01*
X127112884Y-112704880D02*
X127725002Y-113316998D01*
X119054999Y-123510002D02*
X119054999Y-122585003D01*
X122662161Y-118977841D02*
X122737991Y-118977841D01*
X122737991Y-118977841D02*
X123249992Y-118465840D01*
X123249992Y-118465840D02*
X123249992Y-118390010D01*
X119054999Y-122585003D02*
X122662161Y-118977841D01*
X126365000Y-116175000D02*
X123855000Y-116175000D01*
X123855000Y-116175000D02*
X123825000Y-116205000D01*
X123605832Y-118110000D02*
X123249992Y-118465840D01*
X123825000Y-118110000D02*
X123605832Y-118110000D01*
%TO.N,Net-(JP104-Pad2)*%
X119761000Y-111379000D02*
X119380000Y-111760000D01*
X119761000Y-109385010D02*
X119761000Y-111379000D01*
X115913516Y-109385010D02*
X119761000Y-109385010D01*
X115594990Y-109066484D02*
X115913516Y-109385010D01*
X115594990Y-106857490D02*
X115594990Y-109066484D01*
X125274999Y-117384999D02*
X122661995Y-117384999D01*
X126365000Y-117475000D02*
X125365000Y-117475000D01*
X125365000Y-117475000D02*
X125274999Y-117384999D01*
X121785969Y-116267965D02*
X121785969Y-112161325D01*
X121785969Y-112161325D02*
X121385970Y-111761326D01*
X122010002Y-116491998D02*
X121785969Y-116267965D01*
X122010002Y-116733006D02*
X122010002Y-116491998D01*
X122661995Y-117384999D02*
X122010002Y-116733006D01*
X114782500Y-106045000D02*
X115594990Y-106857490D01*
%TO.N,/FILTER_OUT*%
X129844800Y-116042792D02*
X129844800Y-114005360D01*
X127112592Y-118775000D02*
X129844800Y-116042792D01*
X126365000Y-118775000D02*
X127112592Y-118775000D01*
%TO.N,/MIC_OUT*%
X120650000Y-113512500D02*
X119532500Y-113512500D01*
X119532500Y-113512500D02*
X119380000Y-113665000D01*
X116840000Y-114300010D02*
X115570000Y-115570010D01*
X113512500Y-130327500D02*
X113665000Y-130327500D01*
X111125000Y-132715000D02*
X113512500Y-130327500D01*
X115570000Y-115570000D02*
X115570000Y-125792490D01*
X113665000Y-130327500D02*
X115570000Y-128422500D01*
X115570000Y-128422500D02*
X115570000Y-127381000D01*
X124915000Y-106410000D02*
X120661022Y-110663978D01*
X120661022Y-111751800D02*
X120650000Y-111762822D01*
X120650000Y-111762822D02*
X120650000Y-113512500D01*
X125340000Y-106410000D02*
X124915000Y-106410000D01*
X120661022Y-110663978D02*
X120661022Y-111751800D01*
%TO.N,/MIC_REF*%
X111125000Y-124942500D02*
X111125000Y-122707500D01*
X116437500Y-113512500D02*
X118110000Y-113512500D01*
X109855000Y-121437500D02*
X109855000Y-117850000D01*
X115193000Y-112268000D02*
X116437500Y-113512500D01*
X111230000Y-116475000D02*
X111230000Y-112268000D01*
X109855000Y-117850000D02*
X111230000Y-116475000D01*
X111125000Y-122707500D02*
X109855000Y-121437500D01*
X111230000Y-112268000D02*
X115193000Y-112268000D01*
X120211011Y-111565400D02*
X120105002Y-111671409D01*
X119273006Y-112939998D02*
X118682502Y-112939998D01*
X124540000Y-105910000D02*
X120211011Y-110238989D01*
X118682502Y-112939998D02*
X118110000Y-113512500D01*
X125340000Y-105910000D02*
X124540000Y-105910000D01*
X120211011Y-110238989D02*
X120211011Y-111565400D01*
X120105002Y-112108002D02*
X119273006Y-112939998D01*
X120105002Y-111671409D02*
X120105002Y-112108002D01*
%TO.N,Net-(R106-Pad2)*%
X111125000Y-121132500D02*
X113665000Y-121132500D01*
X112014000Y-117348000D02*
X113030000Y-117348000D01*
X111125000Y-121132500D02*
X111125000Y-118237000D01*
X111125000Y-118237000D02*
X112014000Y-117348000D01*
X113030000Y-114808000D02*
X113030000Y-117348000D01*
%TO.N,Net-(R112-Pad1)*%
X121040000Y-104910000D02*
X119953004Y-104910000D01*
X119183004Y-104140000D02*
X118897500Y-104140000D01*
X119953004Y-104910000D02*
X119183004Y-104140000D01*
%TO.N,Net-(R113-Pad2)*%
X121040000Y-104377500D02*
X118897500Y-102235000D01*
X121040000Y-104410000D02*
X121040000Y-104377500D01*
%TO.N,Net-(R114-Pad2)*%
X125942500Y-104410000D02*
X127482500Y-102870000D01*
X125340000Y-104410000D02*
X125942500Y-104410000D01*
%TO.N,Net-(R115-Pad2)*%
X127347500Y-104910000D02*
X127482500Y-104775000D01*
X125340000Y-104910000D02*
X127347500Y-104910000D01*
%TD*%
M02*
