G04 #@! TF.GenerationSoftware,KiCad,Pcbnew,(6.0.7)*
G04 #@! TF.CreationDate,2022-10-28T13:42:32-05:00*
G04 #@! TF.ProjectId,SapphineMinimal,53617070-6869-46e6-954d-696e696d616c,rev?*
G04 #@! TF.SameCoordinates,Original*
G04 #@! TF.FileFunction,Paste,Bot*
G04 #@! TF.FilePolarity,Positive*
%FSLAX46Y46*%
G04 Gerber Fmt 4.6, Leading zero omitted, Abs format (unit mm)*
G04 Created by KiCad (PCBNEW (6.0.7)) date 2022-10-28 13:42:32*
%MOMM*%
%LPD*%
G01*
G04 APERTURE LIST*
G04 Aperture macros list*
%AMRoundRect*
0 Rectangle with rounded corners*
0 $1 Rounding radius*
0 $2 $3 $4 $5 $6 $7 $8 $9 X,Y pos of 4 corners*
0 Add a 4 corners polygon primitive as box body*
4,1,4,$2,$3,$4,$5,$6,$7,$8,$9,$2,$3,0*
0 Add four circle primitives for the rounded corners*
1,1,$1+$1,$2,$3*
1,1,$1+$1,$4,$5*
1,1,$1+$1,$6,$7*
1,1,$1+$1,$8,$9*
0 Add four rect primitives between the rounded corners*
20,1,$1+$1,$2,$3,$4,$5,0*
20,1,$1+$1,$4,$5,$6,$7,0*
20,1,$1+$1,$6,$7,$8,$9,0*
20,1,$1+$1,$8,$9,$2,$3,0*%
G04 Aperture macros list end*
%ADD10RoundRect,0.140000X-0.170000X0.140000X-0.170000X-0.140000X0.170000X-0.140000X0.170000X0.140000X0*%
%ADD11RoundRect,0.200000X0.275000X-0.200000X0.275000X0.200000X-0.275000X0.200000X-0.275000X-0.200000X0*%
%ADD12R,0.700000X0.400000*%
%ADD13RoundRect,0.500000X-2.000000X-0.500000X2.000000X-0.500000X2.000000X0.500000X-2.000000X0.500000X0*%
%ADD14RoundRect,0.425000X-1.575000X-0.425000X1.575000X-0.425000X1.575000X0.425000X-1.575000X0.425000X0*%
%ADD15RoundRect,0.200000X-0.275000X0.200000X-0.275000X-0.200000X0.275000X-0.200000X0.275000X0.200000X0*%
%ADD16R,3.000000X1.500000*%
%ADD17R,1.500000X3.000000*%
%ADD18RoundRect,0.140000X0.140000X0.170000X-0.140000X0.170000X-0.140000X-0.170000X0.140000X-0.170000X0*%
%ADD19RoundRect,0.150000X0.625000X-0.150000X0.625000X0.150000X-0.625000X0.150000X-0.625000X-0.150000X0*%
%ADD20RoundRect,0.250000X0.650000X-0.350000X0.650000X0.350000X-0.650000X0.350000X-0.650000X-0.350000X0*%
%ADD21R,2.350000X5.350000*%
%ADD22RoundRect,0.250000X-1.500000X0.250000X-1.500000X-0.250000X1.500000X-0.250000X1.500000X0.250000X0*%
%ADD23RoundRect,0.250001X-1.449999X0.499999X-1.449999X-0.499999X1.449999X-0.499999X1.449999X0.499999X0*%
%ADD24RoundRect,0.218750X0.218750X0.256250X-0.218750X0.256250X-0.218750X-0.256250X0.218750X-0.256250X0*%
%ADD25R,0.787400X0.863600*%
%ADD26R,0.787400X0.355600*%
%ADD27RoundRect,0.218750X-0.256250X0.218750X-0.256250X-0.218750X0.256250X-0.218750X0.256250X0.218750X0*%
G04 APERTURE END LIST*
D10*
X106420278Y-70581818D03*
X106420278Y-71541818D03*
D11*
X99054278Y-122610618D03*
X99054278Y-120960618D03*
D12*
X109341278Y-119657618D03*
X109341278Y-120357618D03*
D11*
X111246278Y-121467618D03*
X111246278Y-119817618D03*
D13*
X118906278Y-120642618D03*
D14*
X118906278Y-110492618D03*
D15*
X109671478Y-70389218D03*
X109671478Y-72039218D03*
D11*
X111449478Y-72039218D03*
X111449478Y-70389218D03*
D16*
X107016278Y-95252618D03*
X107016278Y-97152618D03*
X107016278Y-99052618D03*
X107016278Y-100952618D03*
X107016278Y-102852618D03*
D17*
X103616278Y-106252618D03*
X101716278Y-106252618D03*
X99816278Y-106252618D03*
X97916278Y-106252618D03*
X96016278Y-106252618D03*
D16*
X92616278Y-102852618D03*
X92616278Y-100952618D03*
X92616278Y-99052618D03*
X92616278Y-97152618D03*
X92616278Y-95252618D03*
D17*
X96016278Y-91852618D03*
X97916278Y-91852618D03*
X99816278Y-91852618D03*
X101716278Y-91852618D03*
X103616278Y-91852618D03*
D10*
X107487078Y-70581818D03*
X107487078Y-71541818D03*
D15*
X102559478Y-70389218D03*
X102559478Y-72039218D03*
X96514278Y-120960618D03*
X96514278Y-122610618D03*
D18*
X97248278Y-89273618D03*
X96288278Y-89273618D03*
D19*
X86322278Y-116300618D03*
X86322278Y-115300618D03*
X86322278Y-114300618D03*
X86322278Y-113300618D03*
D20*
X82447278Y-117600618D03*
X82447278Y-112000618D03*
D19*
X86322278Y-108172618D03*
X86322278Y-107172618D03*
X86322278Y-106172618D03*
X86322278Y-105172618D03*
D20*
X82447278Y-103872618D03*
X82447278Y-109472618D03*
D11*
X94482278Y-122610618D03*
X94482278Y-120960618D03*
X104286678Y-72039218D03*
X104286678Y-70389218D03*
D21*
X118866278Y-120162618D03*
X118866278Y-110962618D03*
D22*
X119183846Y-100592618D03*
X119183846Y-102592618D03*
D23*
X124933846Y-104942618D03*
X124933846Y-98242618D03*
D24*
X80283778Y-90162618D03*
X78708778Y-90162618D03*
D25*
X78581878Y-97223818D03*
D26*
X78581878Y-96476296D03*
X78581878Y-95982774D03*
X78581878Y-95489252D03*
X78581878Y-94995730D03*
X78581878Y-94502208D03*
X78581878Y-94008686D03*
D25*
X78581878Y-93261418D03*
X80410678Y-93261418D03*
D26*
X80410678Y-94008686D03*
X80410678Y-94502208D03*
X80410678Y-94995730D03*
X80410678Y-95489252D03*
X80410678Y-95982774D03*
X80410678Y-96476296D03*
D25*
X80410678Y-97223818D03*
D27*
X99816278Y-69055118D03*
X99816278Y-70630118D03*
M02*
