G04 #@! TF.GenerationSoftware,KiCad,Pcbnew,(6.0.7)*
G04 #@! TF.CreationDate,2024-04-29T11:03:26-05:00*
G04 #@! TF.ProjectId,SapphineMinimal,53617070-6869-46e6-954d-696e696d616c,rev?*
G04 #@! TF.SameCoordinates,Original*
G04 #@! TF.FileFunction,Legend,Bot*
G04 #@! TF.FilePolarity,Positive*
%FSLAX46Y46*%
G04 Gerber Fmt 4.6, Leading zero omitted, Abs format (unit mm)*
G04 Created by KiCad (PCBNEW (6.0.7)) date 2024-04-29 11:03:26*
%MOMM*%
%LPD*%
G01*
G04 APERTURE LIST*
%ADD10C,0.152400*%
%ADD11C,0.127000*%
%ADD12C,0.150000*%
%ADD13C,0.300000*%
%ADD14C,0.254000*%
%ADD15C,0.120000*%
%ADD16C,0.100000*%
%ADD17C,0.200000*%
G04 APERTURE END LIST*
D10*
X92214420Y-112569046D02*
X92105563Y-112605332D01*
X91924135Y-112605332D01*
X91851563Y-112569046D01*
X91815278Y-112532760D01*
X91778992Y-112460189D01*
X91778992Y-112387618D01*
X91815278Y-112315046D01*
X91851563Y-112278760D01*
X91924135Y-112242475D01*
X92069278Y-112206189D01*
X92141849Y-112169903D01*
X92178135Y-112133618D01*
X92214420Y-112061046D01*
X92214420Y-111988475D01*
X92178135Y-111915903D01*
X92141849Y-111879618D01*
X92069278Y-111843332D01*
X91887849Y-111843332D01*
X91778992Y-111879618D01*
X91561278Y-111843332D02*
X91125849Y-111843332D01*
X91343563Y-112605332D02*
X91343563Y-111843332D01*
X90871849Y-112206189D02*
X90617849Y-112206189D01*
X90508992Y-112605332D02*
X90871849Y-112605332D01*
X90871849Y-111843332D01*
X90508992Y-111843332D01*
X90182420Y-112605332D02*
X90182420Y-111843332D01*
X89928420Y-112387618D01*
X89674420Y-111843332D01*
X89674420Y-112605332D01*
X89311563Y-112605332D02*
X89311563Y-111843332D01*
X89057563Y-112387618D01*
X88803563Y-111843332D01*
X88803563Y-112605332D01*
X88476992Y-112387618D02*
X88114135Y-112387618D01*
X88549563Y-112605332D02*
X88295563Y-111843332D01*
X88041563Y-112605332D01*
D11*
X79223516Y-99678427D02*
X78703516Y-99678427D01*
X79223516Y-99975570D02*
X78926373Y-99752713D01*
X78703516Y-99975570D02*
X79000658Y-99678427D01*
X104568887Y-126447475D02*
X104395554Y-126447475D01*
X104321268Y-126719856D02*
X104568887Y-126719856D01*
X104568887Y-126199856D01*
X104321268Y-126199856D01*
X104098411Y-126719856D02*
X104098411Y-126199856D01*
X103801268Y-126719856D01*
X103801268Y-126199856D01*
X89355563Y-104634618D02*
X89405087Y-104609856D01*
X89479373Y-104609856D01*
X89553658Y-104634618D01*
X89603182Y-104684141D01*
X89627944Y-104733665D01*
X89652706Y-104832713D01*
X89652706Y-104906998D01*
X89627944Y-105006046D01*
X89603182Y-105055570D01*
X89553658Y-105105094D01*
X89479373Y-105129856D01*
X89429849Y-105129856D01*
X89355563Y-105105094D01*
X89330801Y-105080332D01*
X89330801Y-104906998D01*
X89429849Y-104906998D01*
X89107944Y-104783189D02*
X89107944Y-105129856D01*
X89107944Y-104832713D02*
X89083182Y-104807951D01*
X89033658Y-104783189D01*
X88959373Y-104783189D01*
X88909849Y-104807951D01*
X88885087Y-104857475D01*
X88885087Y-105129856D01*
X88414611Y-105129856D02*
X88414611Y-104609856D01*
X88414611Y-105105094D02*
X88464135Y-105129856D01*
X88563182Y-105129856D01*
X88612706Y-105105094D01*
X88637468Y-105080332D01*
X88662230Y-105030808D01*
X88662230Y-104882237D01*
X88637468Y-104832713D01*
X88612706Y-104807951D01*
X88563182Y-104783189D01*
X88464135Y-104783189D01*
X88414611Y-104807951D01*
X124200278Y-90512856D02*
X124200278Y-90636665D01*
X124324087Y-90587141D02*
X124200278Y-90636665D01*
X124076468Y-90587141D01*
X124274563Y-90735713D02*
X124200278Y-90636665D01*
X124125992Y-90735713D01*
X107359058Y-126669056D02*
X107359058Y-126149056D01*
X106814297Y-126669056D02*
X106987630Y-126421437D01*
X107111439Y-126669056D02*
X107111439Y-126149056D01*
X106913344Y-126149056D01*
X106863820Y-126173818D01*
X106839058Y-126198579D01*
X106814297Y-126248103D01*
X106814297Y-126322389D01*
X106839058Y-126371913D01*
X106863820Y-126396675D01*
X106913344Y-126421437D01*
X107111439Y-126421437D01*
X106244773Y-126718579D02*
X106294297Y-126693818D01*
X106343820Y-126644294D01*
X106418106Y-126570008D01*
X106467630Y-126545246D01*
X106517154Y-126545246D01*
X106492392Y-126669056D02*
X106541916Y-126644294D01*
X106591439Y-126594770D01*
X106616201Y-126495722D01*
X106616201Y-126322389D01*
X106591439Y-126223341D01*
X106541916Y-126173818D01*
X106492392Y-126149056D01*
X106393344Y-126149056D01*
X106343820Y-126173818D01*
X106294297Y-126223341D01*
X106269535Y-126322389D01*
X106269535Y-126495722D01*
X106294297Y-126594770D01*
X106343820Y-126644294D01*
X106393344Y-126669056D01*
X106492392Y-126669056D01*
X108941516Y-118474427D02*
X108421516Y-118474427D01*
X108941516Y-118771570D02*
X108644373Y-118548713D01*
X108421516Y-118771570D02*
X108718658Y-118474427D01*
D10*
X89692563Y-103370618D02*
X89765135Y-103334332D01*
X89873992Y-103334332D01*
X89982849Y-103370618D01*
X90055420Y-103443189D01*
X90091706Y-103515760D01*
X90127992Y-103660903D01*
X90127992Y-103769760D01*
X90091706Y-103914903D01*
X90055420Y-103987475D01*
X89982849Y-104060046D01*
X89873992Y-104096332D01*
X89801420Y-104096332D01*
X89692563Y-104060046D01*
X89656278Y-104023760D01*
X89656278Y-103769760D01*
X89801420Y-103769760D01*
X89329706Y-104096332D02*
X89329706Y-103334332D01*
X89039420Y-103334332D01*
X88966849Y-103370618D01*
X88930563Y-103406903D01*
X88894278Y-103479475D01*
X88894278Y-103588332D01*
X88930563Y-103660903D01*
X88966849Y-103697189D01*
X89039420Y-103733475D01*
X89329706Y-103733475D01*
X88603992Y-104060046D02*
X88495135Y-104096332D01*
X88313706Y-104096332D01*
X88241135Y-104060046D01*
X88204849Y-104023760D01*
X88168563Y-103951189D01*
X88168563Y-103878618D01*
X88204849Y-103806046D01*
X88241135Y-103769760D01*
X88313706Y-103733475D01*
X88458849Y-103697189D01*
X88531420Y-103660903D01*
X88567706Y-103624618D01*
X88603992Y-103552046D01*
X88603992Y-103479475D01*
X88567706Y-103406903D01*
X88531420Y-103370618D01*
X88458849Y-103334332D01*
X88277420Y-103334332D01*
X88168563Y-103370618D01*
D11*
X112289849Y-126719856D02*
X112289849Y-126199856D01*
X111992706Y-126719856D01*
X111992706Y-126199856D01*
X111447944Y-126670332D02*
X111472706Y-126695094D01*
X111546992Y-126719856D01*
X111596516Y-126719856D01*
X111670801Y-126695094D01*
X111720325Y-126645570D01*
X111745087Y-126596046D01*
X111769849Y-126496998D01*
X111769849Y-126422713D01*
X111745087Y-126323665D01*
X111720325Y-126274141D01*
X111670801Y-126224618D01*
X111596516Y-126199856D01*
X111546992Y-126199856D01*
X111472706Y-126224618D01*
X111447944Y-126249379D01*
X106376754Y-116551427D02*
X106401516Y-116625713D01*
X106401516Y-116749522D01*
X106376754Y-116799046D01*
X106351992Y-116823808D01*
X106302468Y-116848570D01*
X106252944Y-116848570D01*
X106203420Y-116823808D01*
X106178658Y-116799046D01*
X106153897Y-116749522D01*
X106129135Y-116650475D01*
X106104373Y-116600951D01*
X106079611Y-116576189D01*
X106030087Y-116551427D01*
X105980563Y-116551427D01*
X105931039Y-116576189D01*
X105906278Y-116600951D01*
X105881516Y-116650475D01*
X105881516Y-116774284D01*
X105906278Y-116848570D01*
X106351992Y-117368570D02*
X106376754Y-117343808D01*
X106401516Y-117269522D01*
X106401516Y-117219998D01*
X106376754Y-117145713D01*
X106327230Y-117096189D01*
X106277706Y-117071427D01*
X106178658Y-117046665D01*
X106104373Y-117046665D01*
X106005325Y-117071427D01*
X105955801Y-117096189D01*
X105906278Y-117145713D01*
X105881516Y-117219998D01*
X105881516Y-117269522D01*
X105906278Y-117343808D01*
X105931039Y-117368570D01*
X106401516Y-117591427D02*
X105881516Y-117591427D01*
X106401516Y-117888570D02*
X106104373Y-117665713D01*
X105881516Y-117888570D02*
X106178658Y-117591427D01*
X105931039Y-118086665D02*
X105906278Y-118111427D01*
X105881516Y-118160951D01*
X105881516Y-118284760D01*
X105906278Y-118334284D01*
X105931039Y-118359046D01*
X105980563Y-118383808D01*
X106030087Y-118383808D01*
X106104373Y-118359046D01*
X106401516Y-118061903D01*
X106401516Y-118383808D01*
D12*
X121787325Y-121349046D02*
X122549230Y-121349046D01*
X122168278Y-121729998D02*
X122168278Y-120968094D01*
D11*
X103861516Y-116275856D02*
X103341516Y-116275856D01*
X103712944Y-116449189D01*
X103341516Y-116622522D01*
X103861516Y-116622522D01*
X103861516Y-116870141D02*
X103341516Y-116870141D01*
X103836754Y-117092998D02*
X103861516Y-117167284D01*
X103861516Y-117291094D01*
X103836754Y-117340618D01*
X103811992Y-117365379D01*
X103762468Y-117390141D01*
X103712944Y-117390141D01*
X103663420Y-117365379D01*
X103638658Y-117340618D01*
X103613897Y-117291094D01*
X103589135Y-117192046D01*
X103564373Y-117142522D01*
X103539611Y-117117760D01*
X103490087Y-117092998D01*
X103440563Y-117092998D01*
X103391039Y-117117760D01*
X103366278Y-117142522D01*
X103341516Y-117192046D01*
X103341516Y-117315856D01*
X103366278Y-117390141D01*
X103341516Y-117712046D02*
X103341516Y-117811094D01*
X103366278Y-117860618D01*
X103415801Y-117910141D01*
X103514849Y-117934903D01*
X103688182Y-117934903D01*
X103787230Y-117910141D01*
X103836754Y-117860618D01*
X103861516Y-117811094D01*
X103861516Y-117712046D01*
X103836754Y-117662522D01*
X103787230Y-117612998D01*
X103688182Y-117588237D01*
X103514849Y-117588237D01*
X103415801Y-117612998D01*
X103366278Y-117662522D01*
X103341516Y-117712046D01*
X103391039Y-118132998D02*
X103366278Y-118157760D01*
X103341516Y-118207284D01*
X103341516Y-118331094D01*
X103366278Y-118380618D01*
X103391039Y-118405379D01*
X103440563Y-118430141D01*
X103490087Y-118430141D01*
X103564373Y-118405379D01*
X103861516Y-118108237D01*
X103861516Y-118430141D01*
X101731744Y-126721132D02*
X101756506Y-126745894D01*
X101830792Y-126770656D01*
X101880316Y-126770656D01*
X101954601Y-126745894D01*
X102004125Y-126696370D01*
X102028887Y-126646846D01*
X102053649Y-126547798D01*
X102053649Y-126473513D01*
X102028887Y-126374465D01*
X102004125Y-126324941D01*
X101954601Y-126275418D01*
X101880316Y-126250656D01*
X101830792Y-126250656D01*
X101756506Y-126275418D01*
X101731744Y-126300179D01*
X101533649Y-126745894D02*
X101459363Y-126770656D01*
X101335554Y-126770656D01*
X101286030Y-126745894D01*
X101261268Y-126721132D01*
X101236506Y-126671608D01*
X101236506Y-126622084D01*
X101261268Y-126572560D01*
X101286030Y-126547798D01*
X101335554Y-126523037D01*
X101434601Y-126498275D01*
X101484125Y-126473513D01*
X101508887Y-126448751D01*
X101533649Y-126399227D01*
X101533649Y-126349703D01*
X101508887Y-126300179D01*
X101484125Y-126275418D01*
X101434601Y-126250656D01*
X101310792Y-126250656D01*
X101236506Y-126275418D01*
X79238706Y-100787018D02*
X79288230Y-100762256D01*
X79362516Y-100762256D01*
X79436801Y-100787018D01*
X79486325Y-100836541D01*
X79511087Y-100886065D01*
X79535849Y-100985113D01*
X79535849Y-101059398D01*
X79511087Y-101158446D01*
X79486325Y-101207970D01*
X79436801Y-101257494D01*
X79362516Y-101282256D01*
X79312992Y-101282256D01*
X79238706Y-101257494D01*
X79213944Y-101232732D01*
X79213944Y-101059398D01*
X79312992Y-101059398D01*
X78991087Y-101282256D02*
X78991087Y-100762256D01*
X78693944Y-101282256D01*
X78693944Y-100762256D01*
X78471087Y-101257494D02*
X78396801Y-101282256D01*
X78272992Y-101282256D01*
X78223468Y-101257494D01*
X78198706Y-101232732D01*
X78173944Y-101183208D01*
X78173944Y-101133684D01*
X78198706Y-101084160D01*
X78223468Y-101059398D01*
X78272992Y-101034637D01*
X78372039Y-101009875D01*
X78421563Y-100985113D01*
X78446325Y-100960351D01*
X78471087Y-100910827D01*
X78471087Y-100861303D01*
X78446325Y-100811779D01*
X78421563Y-100787018D01*
X78372039Y-100762256D01*
X78248230Y-100762256D01*
X78173944Y-100787018D01*
X77975849Y-101257494D02*
X77901563Y-101282256D01*
X77777754Y-101282256D01*
X77728230Y-101257494D01*
X77703468Y-101232732D01*
X77678706Y-101183208D01*
X77678706Y-101133684D01*
X77703468Y-101084160D01*
X77728230Y-101059398D01*
X77777754Y-101034637D01*
X77876801Y-101009875D01*
X77926325Y-100985113D01*
X77951087Y-100960351D01*
X77975849Y-100910827D01*
X77975849Y-100861303D01*
X77951087Y-100811779D01*
X77926325Y-100787018D01*
X77876801Y-100762256D01*
X77752992Y-100762256D01*
X77678706Y-100787018D01*
X79251087Y-102119456D02*
X79251087Y-101599456D01*
X79052992Y-101599456D01*
X79003468Y-101624218D01*
X78978706Y-101648979D01*
X78953944Y-101698503D01*
X78953944Y-101772789D01*
X78978706Y-101822313D01*
X79003468Y-101847075D01*
X79052992Y-101871837D01*
X79251087Y-101871837D01*
X78731087Y-102119456D02*
X78731087Y-101599456D01*
X78532992Y-101599456D01*
X78483468Y-101624218D01*
X78458706Y-101648979D01*
X78433944Y-101698503D01*
X78433944Y-101772789D01*
X78458706Y-101822313D01*
X78483468Y-101847075D01*
X78532992Y-101871837D01*
X78731087Y-101871837D01*
X78235849Y-102094694D02*
X78161563Y-102119456D01*
X78037754Y-102119456D01*
X77988230Y-102094694D01*
X77963468Y-102069932D01*
X77938706Y-102020408D01*
X77938706Y-101970884D01*
X77963468Y-101921360D01*
X77988230Y-101896598D01*
X78037754Y-101871837D01*
X78136801Y-101847075D01*
X78186325Y-101822313D01*
X78211087Y-101797551D01*
X78235849Y-101748027D01*
X78235849Y-101698503D01*
X78211087Y-101648979D01*
X78186325Y-101624218D01*
X78136801Y-101599456D01*
X78012992Y-101599456D01*
X77938706Y-101624218D01*
X103861516Y-121476475D02*
X103341516Y-121476475D01*
X103712944Y-121649808D01*
X103341516Y-121823141D01*
X103861516Y-121823141D01*
X103861516Y-122070760D02*
X103341516Y-122070760D01*
X103836754Y-122293618D02*
X103861516Y-122367903D01*
X103861516Y-122491713D01*
X103836754Y-122541237D01*
X103811992Y-122565998D01*
X103762468Y-122590760D01*
X103712944Y-122590760D01*
X103663420Y-122565998D01*
X103638658Y-122541237D01*
X103613897Y-122491713D01*
X103589135Y-122392665D01*
X103564373Y-122343141D01*
X103539611Y-122318379D01*
X103490087Y-122293618D01*
X103440563Y-122293618D01*
X103391039Y-122318379D01*
X103366278Y-122343141D01*
X103341516Y-122392665D01*
X103341516Y-122516475D01*
X103366278Y-122590760D01*
X103341516Y-122912665D02*
X103341516Y-123011713D01*
X103366278Y-123061237D01*
X103415801Y-123110760D01*
X103514849Y-123135522D01*
X103688182Y-123135522D01*
X103787230Y-123110760D01*
X103836754Y-123061237D01*
X103861516Y-123011713D01*
X103861516Y-122912665D01*
X103836754Y-122863141D01*
X103787230Y-122813618D01*
X103688182Y-122788856D01*
X103514849Y-122788856D01*
X103415801Y-122813618D01*
X103366278Y-122863141D01*
X103341516Y-122912665D01*
X119782849Y-126719856D02*
X119782849Y-126199856D01*
X119485706Y-126719856D01*
X119485706Y-126199856D01*
X118940944Y-126670332D02*
X118965706Y-126695094D01*
X119039992Y-126719856D01*
X119089516Y-126719856D01*
X119163801Y-126695094D01*
X119213325Y-126645570D01*
X119238087Y-126596046D01*
X119262849Y-126496998D01*
X119262849Y-126422713D01*
X119238087Y-126323665D01*
X119213325Y-126274141D01*
X119163801Y-126224618D01*
X119089516Y-126199856D01*
X119039992Y-126199856D01*
X118965706Y-126224618D01*
X118940944Y-126249379D01*
X89615563Y-107276856D02*
X89318420Y-107276856D01*
X89466992Y-107796856D02*
X89466992Y-107276856D01*
X89194611Y-107796856D02*
X88922230Y-107450189D01*
X89194611Y-107450189D02*
X88922230Y-107796856D01*
X88501278Y-107796856D02*
X88501278Y-107276856D01*
X88501278Y-107772094D02*
X88550801Y-107796856D01*
X88649849Y-107796856D01*
X88699373Y-107772094D01*
X88724135Y-107747332D01*
X88748897Y-107697808D01*
X88748897Y-107549237D01*
X88724135Y-107499713D01*
X88699373Y-107474951D01*
X88649849Y-107450189D01*
X88550801Y-107450189D01*
X88501278Y-107474951D01*
X110020316Y-126719856D02*
X110193649Y-126472237D01*
X110317458Y-126719856D02*
X110317458Y-126199856D01*
X110119363Y-126199856D01*
X110069839Y-126224618D01*
X110045078Y-126249379D01*
X110020316Y-126298903D01*
X110020316Y-126373189D01*
X110045078Y-126422713D01*
X110069839Y-126447475D01*
X110119363Y-126472237D01*
X110317458Y-126472237D01*
X109797458Y-126447475D02*
X109624125Y-126447475D01*
X109549839Y-126719856D02*
X109797458Y-126719856D01*
X109797458Y-126199856D01*
X109549839Y-126199856D01*
X109351744Y-126695094D02*
X109277458Y-126719856D01*
X109153649Y-126719856D01*
X109104125Y-126695094D01*
X109079363Y-126670332D01*
X109054601Y-126620808D01*
X109054601Y-126571284D01*
X109079363Y-126521760D01*
X109104125Y-126496998D01*
X109153649Y-126472237D01*
X109252697Y-126447475D01*
X109302220Y-126422713D01*
X109326982Y-126397951D01*
X109351744Y-126348427D01*
X109351744Y-126298903D01*
X109326982Y-126249379D01*
X109302220Y-126224618D01*
X109252697Y-126199856D01*
X109128887Y-126199856D01*
X109054601Y-126224618D01*
X108831744Y-126447475D02*
X108658411Y-126447475D01*
X108584125Y-126719856D02*
X108831744Y-126719856D01*
X108831744Y-126199856D01*
X108584125Y-126199856D01*
X108435554Y-126199856D02*
X108138411Y-126199856D01*
X108286982Y-126719856D02*
X108286982Y-126199856D01*
X89306039Y-105891856D02*
X89479373Y-105644237D01*
X89603182Y-105891856D02*
X89603182Y-105371856D01*
X89405087Y-105371856D01*
X89355563Y-105396618D01*
X89330801Y-105421379D01*
X89306039Y-105470903D01*
X89306039Y-105545189D01*
X89330801Y-105594713D01*
X89355563Y-105619475D01*
X89405087Y-105644237D01*
X89603182Y-105644237D01*
X89132706Y-105891856D02*
X88860325Y-105545189D01*
X89132706Y-105545189D02*
X88860325Y-105891856D01*
X88439373Y-105891856D02*
X88439373Y-105371856D01*
X88439373Y-105867094D02*
X88488897Y-105891856D01*
X88587944Y-105891856D01*
X88637468Y-105867094D01*
X88662230Y-105842332D01*
X88686992Y-105792808D01*
X88686992Y-105644237D01*
X88662230Y-105594713D01*
X88637468Y-105569951D01*
X88587944Y-105545189D01*
X88488897Y-105545189D01*
X88439373Y-105569951D01*
X98917706Y-112217018D02*
X98967230Y-112192256D01*
X99041516Y-112192256D01*
X99115801Y-112217018D01*
X99165325Y-112266541D01*
X99190087Y-112316065D01*
X99214849Y-112415113D01*
X99214849Y-112489398D01*
X99190087Y-112588446D01*
X99165325Y-112637970D01*
X99115801Y-112687494D01*
X99041516Y-112712256D01*
X98991992Y-112712256D01*
X98917706Y-112687494D01*
X98892944Y-112662732D01*
X98892944Y-112489398D01*
X98991992Y-112489398D01*
X98670087Y-112712256D02*
X98670087Y-112192256D01*
X98471992Y-112192256D01*
X98422468Y-112217018D01*
X98397706Y-112241779D01*
X98372944Y-112291303D01*
X98372944Y-112365589D01*
X98397706Y-112415113D01*
X98422468Y-112439875D01*
X98471992Y-112464637D01*
X98670087Y-112464637D01*
X98174849Y-112687494D02*
X98100563Y-112712256D01*
X97976754Y-112712256D01*
X97927230Y-112687494D01*
X97902468Y-112662732D01*
X97877706Y-112613208D01*
X97877706Y-112563684D01*
X97902468Y-112514160D01*
X97927230Y-112489398D01*
X97976754Y-112464637D01*
X98075801Y-112439875D01*
X98125325Y-112415113D01*
X98150087Y-112390351D01*
X98174849Y-112340827D01*
X98174849Y-112291303D01*
X98150087Y-112241779D01*
X98125325Y-112217018D01*
X98075801Y-112192256D01*
X97951992Y-112192256D01*
X97877706Y-112217018D01*
X99128182Y-113277075D02*
X99053897Y-113301837D01*
X99029135Y-113326598D01*
X99004373Y-113376122D01*
X99004373Y-113450408D01*
X99029135Y-113499932D01*
X99053897Y-113524694D01*
X99103420Y-113549456D01*
X99301516Y-113549456D01*
X99301516Y-113029456D01*
X99128182Y-113029456D01*
X99078658Y-113054218D01*
X99053897Y-113078979D01*
X99029135Y-113128503D01*
X99029135Y-113178027D01*
X99053897Y-113227551D01*
X99078658Y-113252313D01*
X99128182Y-113277075D01*
X99301516Y-113277075D01*
X98707230Y-113549456D02*
X98756754Y-113524694D01*
X98781516Y-113499932D01*
X98806278Y-113450408D01*
X98806278Y-113301837D01*
X98781516Y-113252313D01*
X98756754Y-113227551D01*
X98707230Y-113202789D01*
X98632944Y-113202789D01*
X98583420Y-113227551D01*
X98558658Y-113252313D01*
X98533897Y-113301837D01*
X98533897Y-113450408D01*
X98558658Y-113499932D01*
X98583420Y-113524694D01*
X98632944Y-113549456D01*
X98707230Y-113549456D01*
X98236754Y-113549456D02*
X98286278Y-113524694D01*
X98311039Y-113499932D01*
X98335801Y-113450408D01*
X98335801Y-113301837D01*
X98311039Y-113252313D01*
X98286278Y-113227551D01*
X98236754Y-113202789D01*
X98162468Y-113202789D01*
X98112944Y-113227551D01*
X98088182Y-113252313D01*
X98063420Y-113301837D01*
X98063420Y-113450408D01*
X98088182Y-113499932D01*
X98112944Y-113524694D01*
X98162468Y-113549456D01*
X98236754Y-113549456D01*
X97914849Y-113202789D02*
X97716754Y-113202789D01*
X97840563Y-113029456D02*
X97840563Y-113475170D01*
X97815801Y-113524694D01*
X97766278Y-113549456D01*
X97716754Y-113549456D01*
X91779668Y-126224618D02*
X91829192Y-126199856D01*
X91903478Y-126199856D01*
X91977763Y-126224618D01*
X92027287Y-126274141D01*
X92052049Y-126323665D01*
X92076811Y-126422713D01*
X92076811Y-126496998D01*
X92052049Y-126596046D01*
X92027287Y-126645570D01*
X91977763Y-126695094D01*
X91903478Y-126719856D01*
X91853954Y-126719856D01*
X91779668Y-126695094D01*
X91754906Y-126670332D01*
X91754906Y-126496998D01*
X91853954Y-126496998D01*
X91532049Y-126719856D02*
X91532049Y-126199856D01*
X91234906Y-126719856D01*
X91234906Y-126199856D01*
X90987287Y-126719856D02*
X90987287Y-126199856D01*
X90863478Y-126199856D01*
X90789192Y-126224618D01*
X90739668Y-126274141D01*
X90714906Y-126323665D01*
X90690144Y-126422713D01*
X90690144Y-126496998D01*
X90714906Y-126596046D01*
X90739668Y-126645570D01*
X90789192Y-126695094D01*
X90863478Y-126719856D01*
X90987287Y-126719856D01*
X105131516Y-121476475D02*
X104611516Y-121476475D01*
X104982944Y-121649808D01*
X104611516Y-121823141D01*
X105131516Y-121823141D01*
X104611516Y-122169808D02*
X104611516Y-122268856D01*
X104636278Y-122318379D01*
X104685801Y-122367903D01*
X104784849Y-122392665D01*
X104958182Y-122392665D01*
X105057230Y-122367903D01*
X105106754Y-122318379D01*
X105131516Y-122268856D01*
X105131516Y-122169808D01*
X105106754Y-122120284D01*
X105057230Y-122070760D01*
X104958182Y-122045998D01*
X104784849Y-122045998D01*
X104685801Y-122070760D01*
X104636278Y-122120284D01*
X104611516Y-122169808D01*
X105106754Y-122590760D02*
X105131516Y-122665046D01*
X105131516Y-122788856D01*
X105106754Y-122838379D01*
X105081992Y-122863141D01*
X105032468Y-122887903D01*
X104982944Y-122887903D01*
X104933420Y-122863141D01*
X104908658Y-122838379D01*
X104883897Y-122788856D01*
X104859135Y-122689808D01*
X104834373Y-122640284D01*
X104809611Y-122615522D01*
X104760087Y-122590760D01*
X104710563Y-122590760D01*
X104661039Y-122615522D01*
X104636278Y-122640284D01*
X104611516Y-122689808D01*
X104611516Y-122813618D01*
X104636278Y-122887903D01*
X105131516Y-123110760D02*
X104611516Y-123110760D01*
X89590801Y-108812856D02*
X89590801Y-108292856D01*
X89392706Y-108292856D01*
X89343182Y-108317618D01*
X89318420Y-108342379D01*
X89293658Y-108391903D01*
X89293658Y-108466189D01*
X89318420Y-108515713D01*
X89343182Y-108540475D01*
X89392706Y-108565237D01*
X89590801Y-108565237D01*
X89120325Y-108466189D02*
X89021278Y-108812856D01*
X88922230Y-108565237D01*
X88823182Y-108812856D01*
X88724135Y-108466189D01*
X88526039Y-108812856D02*
X88526039Y-108466189D01*
X88526039Y-108565237D02*
X88501278Y-108515713D01*
X88476516Y-108490951D01*
X88426992Y-108466189D01*
X88377468Y-108466189D01*
X106376754Y-121498046D02*
X106401516Y-121572332D01*
X106401516Y-121696141D01*
X106376754Y-121745665D01*
X106351992Y-121770427D01*
X106302468Y-121795189D01*
X106252944Y-121795189D01*
X106203420Y-121770427D01*
X106178658Y-121745665D01*
X106153897Y-121696141D01*
X106129135Y-121597094D01*
X106104373Y-121547570D01*
X106079611Y-121522808D01*
X106030087Y-121498046D01*
X105980563Y-121498046D01*
X105931039Y-121522808D01*
X105906278Y-121547570D01*
X105881516Y-121597094D01*
X105881516Y-121720903D01*
X105906278Y-121795189D01*
X106351992Y-122315189D02*
X106376754Y-122290427D01*
X106401516Y-122216141D01*
X106401516Y-122166618D01*
X106376754Y-122092332D01*
X106327230Y-122042808D01*
X106277706Y-122018046D01*
X106178658Y-121993284D01*
X106104373Y-121993284D01*
X106005325Y-122018046D01*
X105955801Y-122042808D01*
X105906278Y-122092332D01*
X105881516Y-122166618D01*
X105881516Y-122216141D01*
X105906278Y-122290427D01*
X105931039Y-122315189D01*
X106401516Y-122538046D02*
X105881516Y-122538046D01*
X106401516Y-122835189D02*
X106104373Y-122612332D01*
X105881516Y-122835189D02*
X106178658Y-122538046D01*
X99922220Y-126719856D02*
X99922220Y-126199856D01*
X99748887Y-126571284D01*
X99575554Y-126199856D01*
X99575554Y-126719856D01*
X99228887Y-126199856D02*
X99129839Y-126199856D01*
X99080316Y-126224618D01*
X99030792Y-126274141D01*
X99006030Y-126373189D01*
X99006030Y-126546522D01*
X99030792Y-126645570D01*
X99080316Y-126695094D01*
X99129839Y-126719856D01*
X99228887Y-126719856D01*
X99278411Y-126695094D01*
X99327935Y-126645570D01*
X99352697Y-126546522D01*
X99352697Y-126373189D01*
X99327935Y-126274141D01*
X99278411Y-126224618D01*
X99228887Y-126199856D01*
X98807935Y-126695094D02*
X98733649Y-126719856D01*
X98609839Y-126719856D01*
X98560316Y-126695094D01*
X98535554Y-126670332D01*
X98510792Y-126620808D01*
X98510792Y-126571284D01*
X98535554Y-126521760D01*
X98560316Y-126496998D01*
X98609839Y-126472237D01*
X98708887Y-126447475D01*
X98758411Y-126422713D01*
X98783173Y-126397951D01*
X98807935Y-126348427D01*
X98807935Y-126298903D01*
X98783173Y-126249379D01*
X98758411Y-126224618D01*
X98708887Y-126199856D01*
X98585078Y-126199856D01*
X98510792Y-126224618D01*
X98287935Y-126719856D02*
X98287935Y-126199856D01*
D13*
X114823182Y-102732608D02*
X115966039Y-102732608D01*
D11*
X89259325Y-113487094D02*
X89185039Y-113511856D01*
X89061230Y-113511856D01*
X89011706Y-113487094D01*
X88986944Y-113462332D01*
X88962182Y-113412808D01*
X88962182Y-113363284D01*
X88986944Y-113313760D01*
X89011706Y-113288998D01*
X89061230Y-113264237D01*
X89160278Y-113239475D01*
X89209801Y-113214713D01*
X89234563Y-113189951D01*
X89259325Y-113140427D01*
X89259325Y-113090903D01*
X89234563Y-113041379D01*
X89209801Y-113016618D01*
X89160278Y-112991856D01*
X89036468Y-112991856D01*
X88962182Y-113016618D01*
X88442182Y-113462332D02*
X88466944Y-113487094D01*
X88541230Y-113511856D01*
X88590754Y-113511856D01*
X88665039Y-113487094D01*
X88714563Y-113437570D01*
X88739325Y-113388046D01*
X88764087Y-113288998D01*
X88764087Y-113214713D01*
X88739325Y-113115665D01*
X88714563Y-113066141D01*
X88665039Y-113016618D01*
X88590754Y-112991856D01*
X88541230Y-112991856D01*
X88466944Y-113016618D01*
X88442182Y-113041379D01*
X87971706Y-113511856D02*
X88219325Y-113511856D01*
X88219325Y-112991856D01*
X89271706Y-114503094D02*
X89197420Y-114527856D01*
X89073611Y-114527856D01*
X89024087Y-114503094D01*
X88999325Y-114478332D01*
X88974563Y-114428808D01*
X88974563Y-114379284D01*
X88999325Y-114329760D01*
X89024087Y-114304998D01*
X89073611Y-114280237D01*
X89172658Y-114255475D01*
X89222182Y-114230713D01*
X89246944Y-114205951D01*
X89271706Y-114156427D01*
X89271706Y-114106903D01*
X89246944Y-114057379D01*
X89222182Y-114032618D01*
X89172658Y-114007856D01*
X89048849Y-114007856D01*
X88974563Y-114032618D01*
X88751706Y-114527856D02*
X88751706Y-114007856D01*
X88627897Y-114007856D01*
X88553611Y-114032618D01*
X88504087Y-114082141D01*
X88479325Y-114131665D01*
X88454563Y-114230713D01*
X88454563Y-114304998D01*
X88479325Y-114404046D01*
X88504087Y-114453570D01*
X88553611Y-114503094D01*
X88627897Y-114527856D01*
X88751706Y-114527856D01*
X88256468Y-114379284D02*
X88008849Y-114379284D01*
X88305992Y-114527856D02*
X88132658Y-114007856D01*
X87959325Y-114527856D01*
X77102039Y-92076808D02*
X77622039Y-92076808D01*
X77102039Y-91779665D02*
X77399182Y-92002522D01*
X77622039Y-91779665D02*
X77324897Y-92076808D01*
X107671516Y-115978332D02*
X107151516Y-115978332D01*
X107151516Y-116176427D01*
X107176278Y-116225951D01*
X107201039Y-116250713D01*
X107250563Y-116275475D01*
X107324849Y-116275475D01*
X107374373Y-116250713D01*
X107399135Y-116225951D01*
X107423897Y-116176427D01*
X107423897Y-115978332D01*
X107151516Y-116448808D02*
X107151516Y-116770713D01*
X107349611Y-116597379D01*
X107349611Y-116671665D01*
X107374373Y-116721189D01*
X107399135Y-116745951D01*
X107448658Y-116770713D01*
X107572468Y-116770713D01*
X107621992Y-116745951D01*
X107646754Y-116721189D01*
X107671516Y-116671665D01*
X107671516Y-116523094D01*
X107646754Y-116473570D01*
X107621992Y-116448808D01*
X107151516Y-116919284D02*
X107671516Y-117092618D01*
X107151516Y-117265951D01*
X107151516Y-117389760D02*
X107151516Y-117711665D01*
X107349611Y-117538332D01*
X107349611Y-117612618D01*
X107374373Y-117662141D01*
X107399135Y-117686903D01*
X107448658Y-117711665D01*
X107572468Y-117711665D01*
X107621992Y-117686903D01*
X107646754Y-117662141D01*
X107671516Y-117612618D01*
X107671516Y-117464046D01*
X107646754Y-117414522D01*
X107621992Y-117389760D01*
X114702849Y-126719856D02*
X114702849Y-126199856D01*
X114405706Y-126719856D01*
X114405706Y-126199856D01*
X113860944Y-126670332D02*
X113885706Y-126695094D01*
X113959992Y-126719856D01*
X114009516Y-126719856D01*
X114083801Y-126695094D01*
X114133325Y-126645570D01*
X114158087Y-126596046D01*
X114182849Y-126496998D01*
X114182849Y-126422713D01*
X114158087Y-126323665D01*
X114133325Y-126274141D01*
X114083801Y-126224618D01*
X114009516Y-126199856D01*
X113959992Y-126199856D01*
X113885706Y-126224618D01*
X113860944Y-126249379D01*
D12*
X84877439Y-70625818D02*
X84925058Y-70768675D01*
X84925058Y-71006770D01*
X84877439Y-71102008D01*
X84829820Y-71149627D01*
X84734582Y-71197246D01*
X84639344Y-71197246D01*
X84544106Y-71149627D01*
X84496487Y-71102008D01*
X84448868Y-71006770D01*
X84401249Y-70816294D01*
X84353630Y-70721056D01*
X84306011Y-70673437D01*
X84210773Y-70625818D01*
X84115535Y-70625818D01*
X84020297Y-70673437D01*
X83972678Y-70721056D01*
X83925058Y-70816294D01*
X83925058Y-71054389D01*
X83972678Y-71197246D01*
X84925058Y-72054389D02*
X84401249Y-72054389D01*
X84306011Y-72006770D01*
X84258392Y-71911532D01*
X84258392Y-71721056D01*
X84306011Y-71625818D01*
X84877439Y-72054389D02*
X84925058Y-71959151D01*
X84925058Y-71721056D01*
X84877439Y-71625818D01*
X84782201Y-71578198D01*
X84686963Y-71578198D01*
X84591725Y-71625818D01*
X84544106Y-71721056D01*
X84544106Y-71959151D01*
X84496487Y-72054389D01*
X84258392Y-72530579D02*
X85258392Y-72530579D01*
X84306011Y-72530579D02*
X84258392Y-72625818D01*
X84258392Y-72816294D01*
X84306011Y-72911532D01*
X84353630Y-72959151D01*
X84448868Y-73006770D01*
X84734582Y-73006770D01*
X84829820Y-72959151D01*
X84877439Y-72911532D01*
X84925058Y-72816294D01*
X84925058Y-72625818D01*
X84877439Y-72530579D01*
X84258392Y-73435341D02*
X85258392Y-73435341D01*
X84306011Y-73435341D02*
X84258392Y-73530579D01*
X84258392Y-73721056D01*
X84306011Y-73816294D01*
X84353630Y-73863913D01*
X84448868Y-73911532D01*
X84734582Y-73911532D01*
X84829820Y-73863913D01*
X84877439Y-73816294D01*
X84925058Y-73721056D01*
X84925058Y-73530579D01*
X84877439Y-73435341D01*
X84925058Y-74340103D02*
X83925058Y-74340103D01*
X84925058Y-74768675D02*
X84401249Y-74768675D01*
X84306011Y-74721056D01*
X84258392Y-74625818D01*
X84258392Y-74482960D01*
X84306011Y-74387722D01*
X84353630Y-74340103D01*
X84925058Y-75244865D02*
X84258392Y-75244865D01*
X83925058Y-75244865D02*
X83972678Y-75197246D01*
X84020297Y-75244865D01*
X83972678Y-75292484D01*
X83925058Y-75244865D01*
X84020297Y-75244865D01*
X84925058Y-75721056D02*
X84258392Y-75721056D01*
X84448868Y-75721056D02*
X84353630Y-75768675D01*
X84306011Y-75816294D01*
X84258392Y-75911532D01*
X84258392Y-76006770D01*
X84877439Y-76721056D02*
X84925058Y-76625818D01*
X84925058Y-76435341D01*
X84877439Y-76340103D01*
X84782201Y-76292484D01*
X84401249Y-76292484D01*
X84306011Y-76340103D01*
X84258392Y-76435341D01*
X84258392Y-76625818D01*
X84306011Y-76721056D01*
X84401249Y-76768675D01*
X84496487Y-76768675D01*
X84591725Y-76292484D01*
X84925058Y-77959151D02*
X83925058Y-77959151D01*
X84639344Y-78292484D01*
X83925058Y-78625818D01*
X84925058Y-78625818D01*
X84020297Y-79054389D02*
X83972678Y-79102008D01*
X83925058Y-79197246D01*
X83925058Y-79435341D01*
X83972678Y-79530579D01*
X84020297Y-79578198D01*
X84115535Y-79625818D01*
X84210773Y-79625818D01*
X84353630Y-79578198D01*
X84925058Y-79006770D01*
X84925058Y-79625818D01*
X86487439Y-71959151D02*
X86535058Y-71863913D01*
X86535058Y-71673437D01*
X86487439Y-71578198D01*
X86439820Y-71530579D01*
X86344582Y-71482960D01*
X86058868Y-71482960D01*
X85963630Y-71530579D01*
X85916011Y-71578198D01*
X85868392Y-71673437D01*
X85868392Y-71863913D01*
X85916011Y-71959151D01*
X86535058Y-73149627D02*
X85535058Y-73149627D01*
X86535058Y-73578198D02*
X86011249Y-73578198D01*
X85916011Y-73530579D01*
X85868392Y-73435341D01*
X85868392Y-73292484D01*
X85916011Y-73197246D01*
X85963630Y-73149627D01*
X86535058Y-74482960D02*
X86011249Y-74482960D01*
X85916011Y-74435341D01*
X85868392Y-74340103D01*
X85868392Y-74149627D01*
X85916011Y-74054389D01*
X86487439Y-74482960D02*
X86535058Y-74387722D01*
X86535058Y-74149627D01*
X86487439Y-74054389D01*
X86392201Y-74006770D01*
X86296963Y-74006770D01*
X86201725Y-74054389D01*
X86154106Y-74149627D01*
X86154106Y-74387722D01*
X86106487Y-74482960D01*
X85868392Y-74863913D02*
X86535058Y-75102008D01*
X85868392Y-75340103D02*
X86535058Y-75102008D01*
X86773154Y-75006770D01*
X86820773Y-74959151D01*
X86868392Y-74863913D01*
X85868392Y-75625818D02*
X86535058Y-75816294D01*
X86058868Y-76006770D01*
X86535058Y-76197246D01*
X85868392Y-76387722D01*
X86535058Y-77197246D02*
X86011249Y-77197246D01*
X85916011Y-77149627D01*
X85868392Y-77054389D01*
X85868392Y-76863913D01*
X85916011Y-76768675D01*
X86487439Y-77197246D02*
X86535058Y-77102008D01*
X86535058Y-76863913D01*
X86487439Y-76768675D01*
X86392201Y-76721056D01*
X86296963Y-76721056D01*
X86201725Y-76768675D01*
X86154106Y-76863913D01*
X86154106Y-77102008D01*
X86106487Y-77197246D01*
X86535058Y-77673437D02*
X85868392Y-77673437D01*
X86058868Y-77673437D02*
X85963630Y-77721056D01*
X85916011Y-77768675D01*
X85868392Y-77863913D01*
X85868392Y-77959151D01*
X86535058Y-78721056D02*
X85535058Y-78721056D01*
X86487439Y-78721056D02*
X86535058Y-78625818D01*
X86535058Y-78435341D01*
X86487439Y-78340103D01*
X86439820Y-78292484D01*
X86344582Y-78244865D01*
X86058868Y-78244865D01*
X85963630Y-78292484D01*
X85916011Y-78340103D01*
X85868392Y-78435341D01*
X85868392Y-78625818D01*
X85916011Y-78721056D01*
X87145058Y-71411532D02*
X87145058Y-71221056D01*
X87192678Y-71125818D01*
X87240297Y-71078198D01*
X87383154Y-70982960D01*
X87573630Y-70935341D01*
X87954582Y-70935341D01*
X88049820Y-70982960D01*
X88097439Y-71030579D01*
X88145058Y-71125818D01*
X88145058Y-71316294D01*
X88097439Y-71411532D01*
X88049820Y-71459151D01*
X87954582Y-71506770D01*
X87716487Y-71506770D01*
X87621249Y-71459151D01*
X87573630Y-71411532D01*
X87526011Y-71316294D01*
X87526011Y-71125818D01*
X87573630Y-71030579D01*
X87621249Y-70982960D01*
X87716487Y-70935341D01*
X87097439Y-72649627D02*
X88383154Y-71792484D01*
X87240297Y-72935341D02*
X87192678Y-72982960D01*
X87145058Y-73078198D01*
X87145058Y-73316294D01*
X87192678Y-73411532D01*
X87240297Y-73459151D01*
X87335535Y-73506770D01*
X87430773Y-73506770D01*
X87573630Y-73459151D01*
X88145058Y-72887722D01*
X88145058Y-73506770D01*
X88145058Y-74459151D02*
X88145058Y-73887722D01*
X88145058Y-74173437D02*
X87145058Y-74173437D01*
X87287916Y-74078198D01*
X87383154Y-73982960D01*
X87430773Y-73887722D01*
X87097439Y-75602008D02*
X88383154Y-74744865D01*
X87240297Y-75887722D02*
X87192678Y-75935341D01*
X87145058Y-76030579D01*
X87145058Y-76268675D01*
X87192678Y-76363913D01*
X87240297Y-76411532D01*
X87335535Y-76459151D01*
X87430773Y-76459151D01*
X87573630Y-76411532D01*
X88145058Y-75840103D01*
X88145058Y-76459151D01*
X87145058Y-77078198D02*
X87145058Y-77173437D01*
X87192678Y-77268675D01*
X87240297Y-77316294D01*
X87335535Y-77363913D01*
X87526011Y-77411532D01*
X87764106Y-77411532D01*
X87954582Y-77363913D01*
X88049820Y-77316294D01*
X88097439Y-77268675D01*
X88145058Y-77173437D01*
X88145058Y-77078198D01*
X88097439Y-76982960D01*
X88049820Y-76935341D01*
X87954582Y-76887722D01*
X87764106Y-76840103D01*
X87526011Y-76840103D01*
X87335535Y-76887722D01*
X87240297Y-76935341D01*
X87192678Y-76982960D01*
X87145058Y-77078198D01*
X87240297Y-77792484D02*
X87192678Y-77840103D01*
X87145058Y-77935341D01*
X87145058Y-78173437D01*
X87192678Y-78268675D01*
X87240297Y-78316294D01*
X87335535Y-78363913D01*
X87430773Y-78363913D01*
X87573630Y-78316294D01*
X88145058Y-77744865D01*
X88145058Y-78363913D01*
X87145058Y-78697246D02*
X87145058Y-79316294D01*
X87526011Y-78982960D01*
X87526011Y-79125818D01*
X87573630Y-79221056D01*
X87621249Y-79268675D01*
X87716487Y-79316294D01*
X87954582Y-79316294D01*
X88049820Y-79268675D01*
X88097439Y-79221056D01*
X88145058Y-79125818D01*
X88145058Y-78840103D01*
X88097439Y-78744865D01*
X88049820Y-78697246D01*
X89755058Y-73768675D02*
X89278868Y-73435341D01*
X89755058Y-73197246D02*
X88755058Y-73197246D01*
X88755058Y-73578198D01*
X88802678Y-73673437D01*
X88850297Y-73721056D01*
X88945535Y-73768675D01*
X89088392Y-73768675D01*
X89183630Y-73721056D01*
X89231249Y-73673437D01*
X89278868Y-73578198D01*
X89278868Y-73197246D01*
X89707439Y-74578198D02*
X89755058Y-74482960D01*
X89755058Y-74292484D01*
X89707439Y-74197246D01*
X89612201Y-74149627D01*
X89231249Y-74149627D01*
X89136011Y-74197246D01*
X89088392Y-74292484D01*
X89088392Y-74482960D01*
X89136011Y-74578198D01*
X89231249Y-74625818D01*
X89326487Y-74625818D01*
X89421725Y-74149627D01*
X89088392Y-74959151D02*
X89755058Y-75197246D01*
X89088392Y-75435341D01*
X88755058Y-77054389D02*
X88755058Y-76578198D01*
X89231249Y-76530579D01*
X89183630Y-76578198D01*
X89136011Y-76673437D01*
X89136011Y-76911532D01*
X89183630Y-77006770D01*
X89231249Y-77054389D01*
X89326487Y-77102008D01*
X89564582Y-77102008D01*
X89659820Y-77054389D01*
X89707439Y-77006770D01*
X89755058Y-76911532D01*
X89755058Y-76673437D01*
X89707439Y-76578198D01*
X89659820Y-76530579D01*
D13*
X109976278Y-93659189D02*
X109976278Y-94016332D01*
X110333420Y-93873475D02*
X109976278Y-94016332D01*
X109619135Y-93873475D01*
X110190563Y-94302046D02*
X109976278Y-94016332D01*
X109761992Y-94302046D01*
D11*
X117242849Y-126719856D02*
X117242849Y-126199856D01*
X116945706Y-126719856D01*
X116945706Y-126199856D01*
X116400944Y-126670332D02*
X116425706Y-126695094D01*
X116499992Y-126719856D01*
X116549516Y-126719856D01*
X116623801Y-126695094D01*
X116673325Y-126645570D01*
X116698087Y-126596046D01*
X116722849Y-126496998D01*
X116722849Y-126422713D01*
X116698087Y-126323665D01*
X116673325Y-126274141D01*
X116623801Y-126224618D01*
X116549516Y-126199856D01*
X116499992Y-126199856D01*
X116425706Y-126224618D01*
X116400944Y-126249379D01*
X102566754Y-115473903D02*
X102591516Y-115548189D01*
X102591516Y-115671998D01*
X102566754Y-115721522D01*
X102541992Y-115746284D01*
X102492468Y-115771046D01*
X102442944Y-115771046D01*
X102393420Y-115746284D01*
X102368658Y-115721522D01*
X102343897Y-115671998D01*
X102319135Y-115572951D01*
X102294373Y-115523427D01*
X102269611Y-115498665D01*
X102220087Y-115473903D01*
X102170563Y-115473903D01*
X102121039Y-115498665D01*
X102096278Y-115523427D01*
X102071516Y-115572951D01*
X102071516Y-115696760D01*
X102096278Y-115771046D01*
X102591516Y-115993903D02*
X102071516Y-115993903D01*
X102071516Y-116191998D01*
X102096278Y-116241522D01*
X102121039Y-116266284D01*
X102170563Y-116291046D01*
X102244849Y-116291046D01*
X102294373Y-116266284D01*
X102319135Y-116241522D01*
X102343897Y-116191998D01*
X102343897Y-115993903D01*
X102591516Y-116513903D02*
X102071516Y-116513903D01*
X102121039Y-116736760D02*
X102096278Y-116761522D01*
X102071516Y-116811046D01*
X102071516Y-116934856D01*
X102096278Y-116984379D01*
X102121039Y-117009141D01*
X102170563Y-117033903D01*
X102220087Y-117033903D01*
X102294373Y-117009141D01*
X102591516Y-116711998D01*
X102591516Y-117033903D01*
X102641039Y-117132951D02*
X102641039Y-117529141D01*
X102541992Y-117950094D02*
X102566754Y-117925332D01*
X102591516Y-117851046D01*
X102591516Y-117801522D01*
X102566754Y-117727237D01*
X102517230Y-117677713D01*
X102467706Y-117652951D01*
X102368658Y-117628189D01*
X102294373Y-117628189D01*
X102195325Y-117652951D01*
X102145801Y-117677713D01*
X102096278Y-117727237D01*
X102071516Y-117801522D01*
X102071516Y-117851046D01*
X102096278Y-117925332D01*
X102121039Y-117950094D01*
X102566754Y-118148189D02*
X102591516Y-118222475D01*
X102591516Y-118346284D01*
X102566754Y-118395808D01*
X102541992Y-118420570D01*
X102492468Y-118445332D01*
X102442944Y-118445332D01*
X102393420Y-118420570D01*
X102368658Y-118395808D01*
X102343897Y-118346284D01*
X102319135Y-118247237D01*
X102294373Y-118197713D01*
X102269611Y-118172951D01*
X102220087Y-118148189D01*
X102170563Y-118148189D01*
X102121039Y-118172951D01*
X102096278Y-118197713D01*
X102071516Y-118247237D01*
X102071516Y-118371046D01*
X102096278Y-118445332D01*
X89863563Y-116064618D02*
X89913087Y-116039856D01*
X89987373Y-116039856D01*
X90061658Y-116064618D01*
X90111182Y-116114141D01*
X90135944Y-116163665D01*
X90160706Y-116262713D01*
X90160706Y-116336998D01*
X90135944Y-116436046D01*
X90111182Y-116485570D01*
X90061658Y-116535094D01*
X89987373Y-116559856D01*
X89937849Y-116559856D01*
X89863563Y-116535094D01*
X89838801Y-116510332D01*
X89838801Y-116336998D01*
X89937849Y-116336998D01*
X89615944Y-116213189D02*
X89615944Y-116559856D01*
X89615944Y-116262713D02*
X89591182Y-116237951D01*
X89541658Y-116213189D01*
X89467373Y-116213189D01*
X89417849Y-116237951D01*
X89393087Y-116287475D01*
X89393087Y-116559856D01*
X88922611Y-116559856D02*
X88922611Y-116039856D01*
X88922611Y-116535094D02*
X88972135Y-116559856D01*
X89071182Y-116559856D01*
X89120706Y-116535094D01*
X89145468Y-116510332D01*
X89170230Y-116460808D01*
X89170230Y-116312237D01*
X89145468Y-116262713D01*
X89120706Y-116237951D01*
X89071182Y-116213189D01*
X88972135Y-116213189D01*
X88922611Y-116237951D01*
X107176278Y-121770427D02*
X107151516Y-121720903D01*
X107151516Y-121646618D01*
X107176278Y-121572332D01*
X107225801Y-121522808D01*
X107275325Y-121498046D01*
X107374373Y-121473284D01*
X107448658Y-121473284D01*
X107547706Y-121498046D01*
X107597230Y-121522808D01*
X107646754Y-121572332D01*
X107671516Y-121646618D01*
X107671516Y-121696141D01*
X107646754Y-121770427D01*
X107621992Y-121795189D01*
X107448658Y-121795189D01*
X107448658Y-121696141D01*
X107671516Y-122018046D02*
X107151516Y-122018046D01*
X107671516Y-122315189D01*
X107151516Y-122315189D01*
X107671516Y-122562808D02*
X107151516Y-122562808D01*
X107151516Y-122686618D01*
X107176278Y-122760903D01*
X107225801Y-122810427D01*
X107275325Y-122835189D01*
X107374373Y-122859951D01*
X107448658Y-122859951D01*
X107547706Y-122835189D01*
X107597230Y-122810427D01*
X107646754Y-122760903D01*
X107671516Y-122686618D01*
X107671516Y-122562808D01*
X102198516Y-121402570D02*
X102718516Y-121526379D01*
X102347087Y-121625427D01*
X102718516Y-121724475D01*
X102198516Y-121848284D01*
X102718516Y-122046379D02*
X102371849Y-122046379D01*
X102198516Y-122046379D02*
X102223278Y-122021618D01*
X102248039Y-122046379D01*
X102223278Y-122071141D01*
X102198516Y-122046379D01*
X102248039Y-122046379D01*
X102446135Y-122467332D02*
X102446135Y-122293998D01*
X102718516Y-122293998D02*
X102198516Y-122293998D01*
X102198516Y-122541618D01*
X102718516Y-122739713D02*
X102371849Y-122739713D01*
X102198516Y-122739713D02*
X102223278Y-122714951D01*
X102248039Y-122739713D01*
X102223278Y-122764475D01*
X102198516Y-122739713D01*
X102248039Y-122739713D01*
X102768039Y-122863522D02*
X102768039Y-123259713D01*
X102668992Y-123680665D02*
X102693754Y-123655903D01*
X102718516Y-123581618D01*
X102718516Y-123532094D01*
X102693754Y-123457808D01*
X102644230Y-123408284D01*
X102594706Y-123383522D01*
X102495658Y-123358760D01*
X102421373Y-123358760D01*
X102322325Y-123383522D01*
X102272801Y-123408284D01*
X102223278Y-123457808D01*
X102198516Y-123532094D01*
X102198516Y-123581618D01*
X102223278Y-123655903D01*
X102248039Y-123680665D01*
X102693754Y-123878760D02*
X102718516Y-123953046D01*
X102718516Y-124076856D01*
X102693754Y-124126379D01*
X102668992Y-124151141D01*
X102619468Y-124175903D01*
X102569944Y-124175903D01*
X102520420Y-124151141D01*
X102495658Y-124126379D01*
X102470897Y-124076856D01*
X102446135Y-123977808D01*
X102421373Y-123928284D01*
X102396611Y-123903522D01*
X102347087Y-123878760D01*
X102297563Y-123878760D01*
X102248039Y-123903522D01*
X102223278Y-123928284D01*
X102198516Y-123977808D01*
X102198516Y-124101618D01*
X102223278Y-124175903D01*
X105131516Y-116275856D02*
X104611516Y-116275856D01*
X104982944Y-116449189D01*
X104611516Y-116622522D01*
X105131516Y-116622522D01*
X104611516Y-116969189D02*
X104611516Y-117068237D01*
X104636278Y-117117760D01*
X104685801Y-117167284D01*
X104784849Y-117192046D01*
X104958182Y-117192046D01*
X105057230Y-117167284D01*
X105106754Y-117117760D01*
X105131516Y-117068237D01*
X105131516Y-116969189D01*
X105106754Y-116919665D01*
X105057230Y-116870141D01*
X104958182Y-116845379D01*
X104784849Y-116845379D01*
X104685801Y-116870141D01*
X104636278Y-116919665D01*
X104611516Y-116969189D01*
X105106754Y-117390141D02*
X105131516Y-117464427D01*
X105131516Y-117588237D01*
X105106754Y-117637760D01*
X105081992Y-117662522D01*
X105032468Y-117687284D01*
X104982944Y-117687284D01*
X104933420Y-117662522D01*
X104908658Y-117637760D01*
X104883897Y-117588237D01*
X104859135Y-117489189D01*
X104834373Y-117439665D01*
X104809611Y-117414903D01*
X104760087Y-117390141D01*
X104710563Y-117390141D01*
X104661039Y-117414903D01*
X104636278Y-117439665D01*
X104611516Y-117489189D01*
X104611516Y-117612998D01*
X104636278Y-117687284D01*
X105131516Y-117910141D02*
X104611516Y-117910141D01*
X104661039Y-118132998D02*
X104636278Y-118157760D01*
X104611516Y-118207284D01*
X104611516Y-118331094D01*
X104636278Y-118380618D01*
X104661039Y-118405379D01*
X104710563Y-118430141D01*
X104760087Y-118430141D01*
X104834373Y-118405379D01*
X105131516Y-118108237D01*
X105131516Y-118430141D01*
X90256563Y-115543856D02*
X90256563Y-115023856D01*
X90058468Y-115023856D01*
X90008944Y-115048618D01*
X89984182Y-115073379D01*
X89959420Y-115122903D01*
X89959420Y-115197189D01*
X89984182Y-115246713D01*
X90008944Y-115271475D01*
X90058468Y-115296237D01*
X90256563Y-115296237D01*
X89786087Y-115023856D02*
X89464182Y-115023856D01*
X89637516Y-115221951D01*
X89563230Y-115221951D01*
X89513706Y-115246713D01*
X89488944Y-115271475D01*
X89464182Y-115320998D01*
X89464182Y-115444808D01*
X89488944Y-115494332D01*
X89513706Y-115519094D01*
X89563230Y-115543856D01*
X89711801Y-115543856D01*
X89761325Y-115519094D01*
X89786087Y-115494332D01*
X89315611Y-115023856D02*
X89142278Y-115543856D01*
X88968944Y-115023856D01*
X88845135Y-115023856D02*
X88523230Y-115023856D01*
X88696563Y-115221951D01*
X88622278Y-115221951D01*
X88572754Y-115246713D01*
X88547992Y-115271475D01*
X88523230Y-115320998D01*
X88523230Y-115444808D01*
X88547992Y-115494332D01*
X88572754Y-115519094D01*
X88622278Y-115543856D01*
X88770849Y-115543856D01*
X88820373Y-115519094D01*
X88845135Y-115494332D01*
X101730087Y-112622856D02*
X101730087Y-112102856D01*
X101531992Y-112102856D01*
X101482468Y-112127618D01*
X101457706Y-112152379D01*
X101432944Y-112201903D01*
X101432944Y-112276189D01*
X101457706Y-112325713D01*
X101482468Y-112350475D01*
X101531992Y-112375237D01*
X101730087Y-112375237D01*
X101210087Y-112622856D02*
X101210087Y-112102856D01*
X101011992Y-112102856D01*
X100962468Y-112127618D01*
X100937706Y-112152379D01*
X100912944Y-112201903D01*
X100912944Y-112276189D01*
X100937706Y-112325713D01*
X100962468Y-112350475D01*
X101011992Y-112375237D01*
X101210087Y-112375237D01*
X100714849Y-112598094D02*
X100640563Y-112622856D01*
X100516754Y-112622856D01*
X100467230Y-112598094D01*
X100442468Y-112573332D01*
X100417706Y-112523808D01*
X100417706Y-112474284D01*
X100442468Y-112424760D01*
X100467230Y-112399998D01*
X100516754Y-112375237D01*
X100615801Y-112350475D01*
X100665325Y-112325713D01*
X100690087Y-112300951D01*
X100714849Y-112251427D01*
X100714849Y-112201903D01*
X100690087Y-112152379D01*
X100665325Y-112127618D01*
X100615801Y-112102856D01*
X100491992Y-112102856D01*
X100417706Y-112127618D01*
X97382220Y-126719856D02*
X97382220Y-126199856D01*
X97208887Y-126571284D01*
X97035554Y-126199856D01*
X97035554Y-126719856D01*
X96787935Y-126719856D02*
X96787935Y-126199856D01*
X96565078Y-126695094D02*
X96490792Y-126719856D01*
X96366982Y-126719856D01*
X96317458Y-126695094D01*
X96292697Y-126670332D01*
X96267935Y-126620808D01*
X96267935Y-126571284D01*
X96292697Y-126521760D01*
X96317458Y-126496998D01*
X96366982Y-126472237D01*
X96466030Y-126447475D01*
X96515554Y-126422713D01*
X96540316Y-126397951D01*
X96565078Y-126348427D01*
X96565078Y-126298903D01*
X96540316Y-126249379D01*
X96515554Y-126224618D01*
X96466030Y-126199856D01*
X96342220Y-126199856D01*
X96267935Y-126224618D01*
X95946030Y-126199856D02*
X95846982Y-126199856D01*
X95797458Y-126224618D01*
X95747935Y-126274141D01*
X95723173Y-126373189D01*
X95723173Y-126546522D01*
X95747935Y-126645570D01*
X95797458Y-126695094D01*
X95846982Y-126719856D01*
X95946030Y-126719856D01*
X95995554Y-126695094D01*
X96045078Y-126645570D01*
X96069839Y-126546522D01*
X96069839Y-126373189D01*
X96045078Y-126274141D01*
X95995554Y-126224618D01*
X95946030Y-126199856D01*
X89553658Y-126199856D02*
X89380325Y-126719856D01*
X89206992Y-126199856D01*
X89033658Y-126719856D02*
X89033658Y-126373189D01*
X89033658Y-126199856D02*
X89058420Y-126224618D01*
X89033658Y-126249379D01*
X89008897Y-126224618D01*
X89033658Y-126199856D01*
X89033658Y-126249379D01*
X88786039Y-126373189D02*
X88786039Y-126719856D01*
X88786039Y-126422713D02*
X88761278Y-126397951D01*
X88711754Y-126373189D01*
X88637468Y-126373189D01*
X88587944Y-126397951D01*
X88563182Y-126447475D01*
X88563182Y-126719856D01*
X122005801Y-123278856D02*
X121881992Y-123798856D01*
X121782944Y-123427427D01*
X121683897Y-123798856D01*
X121560087Y-123278856D01*
X121361992Y-123798856D02*
X121361992Y-123278856D01*
X121114373Y-123798856D02*
X121114373Y-123278856D01*
X120817230Y-123798856D01*
X120817230Y-123278856D01*
X120272468Y-123749332D02*
X120297230Y-123774094D01*
X120371516Y-123798856D01*
X120421039Y-123798856D01*
X120495325Y-123774094D01*
X120544849Y-123724570D01*
X120569611Y-123675046D01*
X120594373Y-123575998D01*
X120594373Y-123501713D01*
X120569611Y-123402665D01*
X120544849Y-123353141D01*
X120495325Y-123303618D01*
X120421039Y-123278856D01*
X120371516Y-123278856D01*
X120297230Y-123303618D01*
X120272468Y-123328379D01*
X119777230Y-123798856D02*
X120074373Y-123798856D01*
X119925801Y-123798856D02*
X119925801Y-123278856D01*
X119975325Y-123353141D01*
X120024849Y-123402665D01*
X120074373Y-123427427D01*
X119306754Y-123278856D02*
X119554373Y-123278856D01*
X119579135Y-123526475D01*
X119554373Y-123501713D01*
X119504849Y-123476951D01*
X119381039Y-123476951D01*
X119331516Y-123501713D01*
X119306754Y-123526475D01*
X119281992Y-123575998D01*
X119281992Y-123699808D01*
X119306754Y-123749332D01*
X119331516Y-123774094D01*
X119381039Y-123798856D01*
X119504849Y-123798856D01*
X119554373Y-123774094D01*
X119579135Y-123749332D01*
X118960087Y-123278856D02*
X118910563Y-123278856D01*
X118861039Y-123303618D01*
X118836278Y-123328379D01*
X118811516Y-123377903D01*
X118786754Y-123476951D01*
X118786754Y-123600760D01*
X118811516Y-123699808D01*
X118836278Y-123749332D01*
X118861039Y-123774094D01*
X118910563Y-123798856D01*
X118960087Y-123798856D01*
X119009611Y-123774094D01*
X119034373Y-123749332D01*
X119059135Y-123699808D01*
X119083897Y-123600760D01*
X119083897Y-123476951D01*
X119059135Y-123377903D01*
X119034373Y-123328379D01*
X119009611Y-123303618D01*
X118960087Y-123278856D01*
X118464849Y-123278856D02*
X118415325Y-123278856D01*
X118365801Y-123303618D01*
X118341039Y-123328379D01*
X118316278Y-123377903D01*
X118291516Y-123476951D01*
X118291516Y-123600760D01*
X118316278Y-123699808D01*
X118341039Y-123749332D01*
X118365801Y-123774094D01*
X118415325Y-123798856D01*
X118464849Y-123798856D01*
X118514373Y-123774094D01*
X118539135Y-123749332D01*
X118563897Y-123699808D01*
X118588658Y-123600760D01*
X118588658Y-123476951D01*
X118563897Y-123377903D01*
X118539135Y-123328379D01*
X118514373Y-123303618D01*
X118464849Y-123278856D01*
D13*
X114992849Y-100023360D02*
X116135706Y-100023360D01*
X115564278Y-100594789D02*
X115564278Y-99451932D01*
D11*
X94693649Y-126644294D02*
X94619363Y-126669056D01*
X94495554Y-126669056D01*
X94446030Y-126644294D01*
X94421268Y-126619532D01*
X94396506Y-126570008D01*
X94396506Y-126520484D01*
X94421268Y-126470960D01*
X94446030Y-126446198D01*
X94495554Y-126421437D01*
X94594601Y-126396675D01*
X94644125Y-126371913D01*
X94668887Y-126347151D01*
X94693649Y-126297627D01*
X94693649Y-126248103D01*
X94668887Y-126198579D01*
X94644125Y-126173818D01*
X94594601Y-126149056D01*
X94470792Y-126149056D01*
X94396506Y-126173818D01*
X93876506Y-126619532D02*
X93901268Y-126644294D01*
X93975554Y-126669056D01*
X94025078Y-126669056D01*
X94099363Y-126644294D01*
X94148887Y-126594770D01*
X94173649Y-126545246D01*
X94198411Y-126446198D01*
X94198411Y-126371913D01*
X94173649Y-126272865D01*
X94148887Y-126223341D01*
X94099363Y-126173818D01*
X94025078Y-126149056D01*
X93975554Y-126149056D01*
X93901268Y-126173818D01*
X93876506Y-126198579D01*
X93653649Y-126669056D02*
X93653649Y-126149056D01*
X93356506Y-126669056D02*
X93579363Y-126371913D01*
X93356506Y-126149056D02*
X93653649Y-126446198D01*
X79111706Y-90500018D02*
X79161230Y-90475256D01*
X79235516Y-90475256D01*
X79309801Y-90500018D01*
X79359325Y-90549541D01*
X79384087Y-90599065D01*
X79408849Y-90698113D01*
X79408849Y-90772398D01*
X79384087Y-90871446D01*
X79359325Y-90920970D01*
X79309801Y-90970494D01*
X79235516Y-90995256D01*
X79185992Y-90995256D01*
X79111706Y-90970494D01*
X79086944Y-90945732D01*
X79086944Y-90772398D01*
X79185992Y-90772398D01*
X78864087Y-90995256D02*
X78864087Y-90475256D01*
X78566944Y-90995256D01*
X78566944Y-90475256D01*
X78344087Y-90970494D02*
X78269801Y-90995256D01*
X78145992Y-90995256D01*
X78096468Y-90970494D01*
X78071706Y-90945732D01*
X78046944Y-90896208D01*
X78046944Y-90846684D01*
X78071706Y-90797160D01*
X78096468Y-90772398D01*
X78145992Y-90747637D01*
X78245039Y-90722875D01*
X78294563Y-90698113D01*
X78319325Y-90673351D01*
X78344087Y-90623827D01*
X78344087Y-90574303D01*
X78319325Y-90524779D01*
X78294563Y-90500018D01*
X78245039Y-90475256D01*
X78121230Y-90475256D01*
X78046944Y-90500018D01*
X77848849Y-90970494D02*
X77774563Y-90995256D01*
X77650754Y-90995256D01*
X77601230Y-90970494D01*
X77576468Y-90945732D01*
X77551706Y-90896208D01*
X77551706Y-90846684D01*
X77576468Y-90797160D01*
X77601230Y-90772398D01*
X77650754Y-90747637D01*
X77749801Y-90722875D01*
X77799325Y-90698113D01*
X77824087Y-90673351D01*
X77848849Y-90623827D01*
X77848849Y-90574303D01*
X77824087Y-90524779D01*
X77799325Y-90500018D01*
X77749801Y-90475256D01*
X77625992Y-90475256D01*
X77551706Y-90500018D01*
X79173611Y-91832456D02*
X79173611Y-91312456D01*
X78975516Y-91312456D01*
X78925992Y-91337218D01*
X78901230Y-91361979D01*
X78876468Y-91411503D01*
X78876468Y-91485789D01*
X78901230Y-91535313D01*
X78925992Y-91560075D01*
X78975516Y-91584837D01*
X79173611Y-91584837D01*
X78703135Y-91312456D02*
X78579325Y-91832456D01*
X78480278Y-91461027D01*
X78381230Y-91832456D01*
X78257420Y-91312456D01*
X77762182Y-91832456D02*
X77935516Y-91584837D01*
X78059325Y-91832456D02*
X78059325Y-91312456D01*
X77861230Y-91312456D01*
X77811706Y-91337218D01*
X77786944Y-91361979D01*
X77762182Y-91411503D01*
X77762182Y-91485789D01*
X77786944Y-91535313D01*
X77811706Y-91560075D01*
X77861230Y-91584837D01*
X78059325Y-91584837D01*
D12*
X107334678Y-118062998D02*
X107334678Y-118301094D01*
X107572773Y-118205856D02*
X107334678Y-118301094D01*
X107096582Y-118205856D01*
X107477535Y-118491570D02*
X107334678Y-118301094D01*
X107191820Y-118491570D01*
X79456658Y-107561618D02*
X79694754Y-107561618D01*
X79599516Y-107799713D02*
X79694754Y-107561618D01*
X79599516Y-107323522D01*
X79885230Y-107704475D02*
X79694754Y-107561618D01*
X79885230Y-107418760D01*
D11*
X106500106Y-71966541D02*
X106524297Y-71942351D01*
X106548487Y-71869779D01*
X106548487Y-71821398D01*
X106524297Y-71748827D01*
X106475916Y-71700446D01*
X106427535Y-71676256D01*
X106330773Y-71652065D01*
X106258201Y-71652065D01*
X106161439Y-71676256D01*
X106113058Y-71700446D01*
X106064678Y-71748827D01*
X106040487Y-71821398D01*
X106040487Y-71869779D01*
X106064678Y-71942351D01*
X106088868Y-71966541D01*
X106040487Y-72135875D02*
X106040487Y-72450351D01*
X106234011Y-72281018D01*
X106234011Y-72353589D01*
X106258201Y-72401970D01*
X106282392Y-72426160D01*
X106330773Y-72450351D01*
X106451725Y-72450351D01*
X106500106Y-72426160D01*
X106524297Y-72401970D01*
X106548487Y-72353589D01*
X106548487Y-72208446D01*
X106524297Y-72160065D01*
X106500106Y-72135875D01*
X106040487Y-72764827D02*
X106040487Y-72813208D01*
X106064678Y-72861589D01*
X106088868Y-72885779D01*
X106137249Y-72909970D01*
X106234011Y-72934160D01*
X106354963Y-72934160D01*
X106451725Y-72909970D01*
X106500106Y-72885779D01*
X106524297Y-72861589D01*
X106548487Y-72813208D01*
X106548487Y-72764827D01*
X106524297Y-72716446D01*
X106500106Y-72692256D01*
X106451725Y-72668065D01*
X106354963Y-72643875D01*
X106234011Y-72643875D01*
X106137249Y-72668065D01*
X106088868Y-72692256D01*
X106064678Y-72716446D01*
X106040487Y-72764827D01*
X106548487Y-73417970D02*
X106548487Y-73127684D01*
X106548487Y-73272827D02*
X106040487Y-73272827D01*
X106113058Y-73224446D01*
X106161439Y-73176065D01*
X106185630Y-73127684D01*
X97150487Y-117661141D02*
X96908582Y-117491808D01*
X97150487Y-117370856D02*
X96642487Y-117370856D01*
X96642487Y-117564379D01*
X96666678Y-117612760D01*
X96690868Y-117636951D01*
X96739249Y-117661141D01*
X96811820Y-117661141D01*
X96860201Y-117636951D01*
X96884392Y-117612760D01*
X96908582Y-117564379D01*
X96908582Y-117370856D01*
X96642487Y-118096570D02*
X96642487Y-117999808D01*
X96666678Y-117951427D01*
X96690868Y-117927237D01*
X96763439Y-117878856D01*
X96860201Y-117854665D01*
X97053725Y-117854665D01*
X97102106Y-117878856D01*
X97126297Y-117903046D01*
X97150487Y-117951427D01*
X97150487Y-118048189D01*
X97126297Y-118096570D01*
X97102106Y-118120760D01*
X97053725Y-118144951D01*
X96932773Y-118144951D01*
X96884392Y-118120760D01*
X96860201Y-118096570D01*
X96836011Y-118048189D01*
X96836011Y-117951427D01*
X96860201Y-117903046D01*
X96884392Y-117878856D01*
X96932773Y-117854665D01*
X96642487Y-118459427D02*
X96642487Y-118507808D01*
X96666678Y-118556189D01*
X96690868Y-118580379D01*
X96739249Y-118604570D01*
X96836011Y-118628760D01*
X96956963Y-118628760D01*
X97053725Y-118604570D01*
X97102106Y-118580379D01*
X97126297Y-118556189D01*
X97150487Y-118507808D01*
X97150487Y-118459427D01*
X97126297Y-118411046D01*
X97102106Y-118386856D01*
X97053725Y-118362665D01*
X96956963Y-118338475D01*
X96836011Y-118338475D01*
X96739249Y-118362665D01*
X96690868Y-118386856D01*
X96666678Y-118411046D01*
X96642487Y-118459427D01*
X96642487Y-118798094D02*
X96642487Y-119112570D01*
X96836011Y-118943237D01*
X96836011Y-119015808D01*
X96860201Y-119064189D01*
X96884392Y-119088379D01*
X96932773Y-119112570D01*
X97053725Y-119112570D01*
X97102106Y-119088379D01*
X97126297Y-119064189D01*
X97150487Y-119015808D01*
X97150487Y-118870665D01*
X97126297Y-118822284D01*
X97102106Y-118798094D01*
X122928203Y-95448001D02*
X122952393Y-95472192D01*
X123024965Y-95496382D01*
X123073346Y-95496382D01*
X123145917Y-95472192D01*
X123194298Y-95423811D01*
X123218488Y-95375430D01*
X123242679Y-95278668D01*
X123242679Y-95206096D01*
X123218488Y-95109334D01*
X123194298Y-95060953D01*
X123145917Y-95012573D01*
X123073346Y-94988382D01*
X123024965Y-94988382D01*
X122952393Y-95012573D01*
X122928203Y-95036763D01*
X122734679Y-95036763D02*
X122710488Y-95012573D01*
X122662107Y-94988382D01*
X122541155Y-94988382D01*
X122492774Y-95012573D01*
X122468584Y-95036763D01*
X122444393Y-95085144D01*
X122444393Y-95133525D01*
X122468584Y-95206096D01*
X122758869Y-95496382D01*
X122444393Y-95496382D01*
X122129917Y-94988382D02*
X122081536Y-94988382D01*
X122033155Y-95012573D01*
X122008965Y-95036763D01*
X121984774Y-95085144D01*
X121960584Y-95181906D01*
X121960584Y-95302858D01*
X121984774Y-95399620D01*
X122008965Y-95448001D01*
X122033155Y-95472192D01*
X122081536Y-95496382D01*
X122129917Y-95496382D01*
X122178298Y-95472192D01*
X122202488Y-95448001D01*
X122226679Y-95399620D01*
X122250869Y-95302858D01*
X122250869Y-95181906D01*
X122226679Y-95085144D01*
X122202488Y-95036763D01*
X122178298Y-95012573D01*
X122129917Y-94988382D01*
X121525155Y-95157715D02*
X121525155Y-95496382D01*
X121646107Y-94964192D02*
X121767060Y-95327049D01*
X121452584Y-95327049D01*
D14*
X125004285Y-76774523D02*
X125004285Y-75504523D01*
X123673809Y-76653571D02*
X123734285Y-76714047D01*
X123915714Y-76774523D01*
X124036666Y-76774523D01*
X124218095Y-76714047D01*
X124339047Y-76593095D01*
X124399523Y-76472142D01*
X124460000Y-76230238D01*
X124460000Y-76048809D01*
X124399523Y-75806904D01*
X124339047Y-75685952D01*
X124218095Y-75565000D01*
X124036666Y-75504523D01*
X123915714Y-75504523D01*
X123734285Y-75565000D01*
X123673809Y-75625476D01*
X123190000Y-75625476D02*
X123129523Y-75565000D01*
X123008571Y-75504523D01*
X122706190Y-75504523D01*
X122585238Y-75565000D01*
X122524761Y-75625476D01*
X122464285Y-75746428D01*
X122464285Y-75867380D01*
X122524761Y-76048809D01*
X123250476Y-76774523D01*
X122464285Y-76774523D01*
X121678095Y-75504523D02*
X121557142Y-75504523D01*
X121436190Y-75565000D01*
X121375714Y-75625476D01*
X121315238Y-75746428D01*
X121254761Y-75988333D01*
X121254761Y-76290714D01*
X121315238Y-76532619D01*
X121375714Y-76653571D01*
X121436190Y-76714047D01*
X121557142Y-76774523D01*
X121678095Y-76774523D01*
X121799047Y-76714047D01*
X121859523Y-76653571D01*
X121920000Y-76532619D01*
X121980476Y-76290714D01*
X121980476Y-75988333D01*
X121920000Y-75746428D01*
X121859523Y-75625476D01*
X121799047Y-75565000D01*
X121678095Y-75504523D01*
X120045238Y-76774523D02*
X120770952Y-76774523D01*
X120408095Y-76774523D02*
X120408095Y-75504523D01*
X120529047Y-75685952D01*
X120650000Y-75806904D01*
X120770952Y-75867380D01*
D11*
X84509754Y-98774427D02*
X84679087Y-98532522D01*
X84800039Y-98774427D02*
X84800039Y-98266427D01*
X84606516Y-98266427D01*
X84558135Y-98290618D01*
X84533944Y-98314808D01*
X84509754Y-98363189D01*
X84509754Y-98435760D01*
X84533944Y-98484141D01*
X84558135Y-98508332D01*
X84606516Y-98532522D01*
X84800039Y-98532522D01*
X84074325Y-98435760D02*
X84074325Y-98774427D01*
X84195278Y-98242237D02*
X84316230Y-98605094D01*
X84001754Y-98605094D01*
X83711468Y-98266427D02*
X83663087Y-98266427D01*
X83614706Y-98290618D01*
X83590516Y-98314808D01*
X83566325Y-98363189D01*
X83542135Y-98459951D01*
X83542135Y-98580903D01*
X83566325Y-98677665D01*
X83590516Y-98726046D01*
X83614706Y-98750237D01*
X83663087Y-98774427D01*
X83711468Y-98774427D01*
X83759849Y-98750237D01*
X83784039Y-98726046D01*
X83808230Y-98677665D01*
X83832420Y-98580903D01*
X83832420Y-98459951D01*
X83808230Y-98363189D01*
X83784039Y-98314808D01*
X83759849Y-98290618D01*
X83711468Y-98266427D01*
X83372801Y-98266427D02*
X83058325Y-98266427D01*
X83227658Y-98459951D01*
X83155087Y-98459951D01*
X83106706Y-98484141D01*
X83082516Y-98508332D01*
X83058325Y-98556713D01*
X83058325Y-98677665D01*
X83082516Y-98726046D01*
X83106706Y-98750237D01*
X83155087Y-98774427D01*
X83300230Y-98774427D01*
X83348611Y-98750237D01*
X83372801Y-98726046D01*
X111216039Y-118967427D02*
X111216039Y-118459427D01*
X111095087Y-118459427D01*
X111022516Y-118483618D01*
X110974135Y-118531998D01*
X110949944Y-118580379D01*
X110925754Y-118677141D01*
X110925754Y-118749713D01*
X110949944Y-118846475D01*
X110974135Y-118894856D01*
X111022516Y-118943237D01*
X111095087Y-118967427D01*
X111216039Y-118967427D01*
X110466135Y-118459427D02*
X110708039Y-118459427D01*
X110732230Y-118701332D01*
X110708039Y-118677141D01*
X110659658Y-118652951D01*
X110538706Y-118652951D01*
X110490325Y-118677141D01*
X110466135Y-118701332D01*
X110441944Y-118749713D01*
X110441944Y-118870665D01*
X110466135Y-118919046D01*
X110490325Y-118943237D01*
X110538706Y-118967427D01*
X110659658Y-118967427D01*
X110708039Y-118943237D01*
X110732230Y-118919046D01*
X110127468Y-118459427D02*
X110079087Y-118459427D01*
X110030706Y-118483618D01*
X110006516Y-118507808D01*
X109982325Y-118556189D01*
X109958135Y-118652951D01*
X109958135Y-118773903D01*
X109982325Y-118870665D01*
X110006516Y-118919046D01*
X110030706Y-118943237D01*
X110079087Y-118967427D01*
X110127468Y-118967427D01*
X110175849Y-118943237D01*
X110200039Y-118919046D01*
X110224230Y-118870665D01*
X110248420Y-118773903D01*
X110248420Y-118652951D01*
X110224230Y-118556189D01*
X110200039Y-118507808D01*
X110175849Y-118483618D01*
X110127468Y-118459427D01*
X109788801Y-118459427D02*
X109474325Y-118459427D01*
X109643658Y-118652951D01*
X109571087Y-118652951D01*
X109522706Y-118677141D01*
X109498516Y-118701332D01*
X109474325Y-118749713D01*
X109474325Y-118870665D01*
X109498516Y-118919046D01*
X109522706Y-118943237D01*
X109571087Y-118967427D01*
X109716230Y-118967427D01*
X109764611Y-118943237D01*
X109788801Y-118919046D01*
X111306754Y-123031427D02*
X111476087Y-122789522D01*
X111597039Y-123031427D02*
X111597039Y-122523427D01*
X111403516Y-122523427D01*
X111355135Y-122547618D01*
X111330944Y-122571808D01*
X111306754Y-122620189D01*
X111306754Y-122692760D01*
X111330944Y-122741141D01*
X111355135Y-122765332D01*
X111403516Y-122789522D01*
X111597039Y-122789522D01*
X110847135Y-122523427D02*
X111089039Y-122523427D01*
X111113230Y-122765332D01*
X111089039Y-122741141D01*
X111040658Y-122716951D01*
X110919706Y-122716951D01*
X110871325Y-122741141D01*
X110847135Y-122765332D01*
X110822944Y-122813713D01*
X110822944Y-122934665D01*
X110847135Y-122983046D01*
X110871325Y-123007237D01*
X110919706Y-123031427D01*
X111040658Y-123031427D01*
X111089039Y-123007237D01*
X111113230Y-122983046D01*
X110508468Y-122523427D02*
X110460087Y-122523427D01*
X110411706Y-122547618D01*
X110387516Y-122571808D01*
X110363325Y-122620189D01*
X110339135Y-122716951D01*
X110339135Y-122837903D01*
X110363325Y-122934665D01*
X110387516Y-122983046D01*
X110411706Y-123007237D01*
X110460087Y-123031427D01*
X110508468Y-123031427D01*
X110556849Y-123007237D01*
X110581039Y-122983046D01*
X110605230Y-122934665D01*
X110629420Y-122837903D01*
X110629420Y-122716951D01*
X110605230Y-122620189D01*
X110581039Y-122571808D01*
X110556849Y-122547618D01*
X110508468Y-122523427D01*
X110048849Y-122741141D02*
X110097230Y-122716951D01*
X110121420Y-122692760D01*
X110145611Y-122644379D01*
X110145611Y-122620189D01*
X110121420Y-122571808D01*
X110097230Y-122547618D01*
X110048849Y-122523427D01*
X109952087Y-122523427D01*
X109903706Y-122547618D01*
X109879516Y-122571808D01*
X109855325Y-122620189D01*
X109855325Y-122644379D01*
X109879516Y-122692760D01*
X109903706Y-122716951D01*
X109952087Y-122741141D01*
X110048849Y-122741141D01*
X110097230Y-122765332D01*
X110121420Y-122789522D01*
X110145611Y-122837903D01*
X110145611Y-122934665D01*
X110121420Y-122983046D01*
X110097230Y-123007237D01*
X110048849Y-123031427D01*
X109952087Y-123031427D01*
X109903706Y-123007237D01*
X109879516Y-122983046D01*
X109855325Y-122934665D01*
X109855325Y-122837903D01*
X109879516Y-122789522D01*
X109903706Y-122765332D01*
X109952087Y-122741141D01*
X125871696Y-95985716D02*
X126041029Y-95743811D01*
X126161981Y-95985716D02*
X126161981Y-95477716D01*
X125968458Y-95477716D01*
X125920077Y-95501907D01*
X125895886Y-95526097D01*
X125871696Y-95574478D01*
X125871696Y-95647049D01*
X125895886Y-95695430D01*
X125920077Y-95719621D01*
X125968458Y-95743811D01*
X126161981Y-95743811D01*
X125678172Y-95526097D02*
X125653981Y-95501907D01*
X125605600Y-95477716D01*
X125484648Y-95477716D01*
X125436267Y-95501907D01*
X125412077Y-95526097D01*
X125387886Y-95574478D01*
X125387886Y-95622859D01*
X125412077Y-95695430D01*
X125702362Y-95985716D01*
X125387886Y-95985716D01*
X124904077Y-95985716D02*
X125194362Y-95985716D01*
X125049220Y-95985716D02*
X125049220Y-95477716D01*
X125097600Y-95550287D01*
X125145981Y-95598668D01*
X125194362Y-95622859D01*
X124468648Y-95647049D02*
X124468648Y-95985716D01*
X124589600Y-95453526D02*
X124710553Y-95816383D01*
X124396077Y-95816383D01*
X119096087Y-86964046D02*
X118854182Y-86794713D01*
X119096087Y-86673761D02*
X118588087Y-86673761D01*
X118588087Y-86867284D01*
X118612278Y-86915665D01*
X118636468Y-86939856D01*
X118684849Y-86964046D01*
X118757420Y-86964046D01*
X118805801Y-86939856D01*
X118829992Y-86915665D01*
X118854182Y-86867284D01*
X118854182Y-86673761D01*
X118636468Y-87157570D02*
X118612278Y-87181761D01*
X118588087Y-87230142D01*
X118588087Y-87351094D01*
X118612278Y-87399475D01*
X118636468Y-87423665D01*
X118684849Y-87447856D01*
X118733230Y-87447856D01*
X118805801Y-87423665D01*
X119096087Y-87133380D01*
X119096087Y-87447856D01*
X119096087Y-87931665D02*
X119096087Y-87641380D01*
X119096087Y-87786523D02*
X118588087Y-87786523D01*
X118660658Y-87738142D01*
X118709039Y-87689761D01*
X118733230Y-87641380D01*
X119096087Y-88415475D02*
X119096087Y-88125189D01*
X119096087Y-88270332D02*
X118588087Y-88270332D01*
X118660658Y-88221951D01*
X118709039Y-88173570D01*
X118733230Y-88125189D01*
X80107087Y-90954856D02*
X79599087Y-90954856D01*
X79599087Y-91075808D01*
X79623278Y-91148379D01*
X79671658Y-91196760D01*
X79720039Y-91220951D01*
X79816801Y-91245141D01*
X79889373Y-91245141D01*
X79986135Y-91220951D01*
X80034516Y-91196760D01*
X80082897Y-91148379D01*
X80107087Y-91075808D01*
X80107087Y-90954856D01*
X79768420Y-91680570D02*
X80107087Y-91680570D01*
X79574897Y-91559618D02*
X79937754Y-91438665D01*
X79937754Y-91753141D01*
X79599087Y-92043427D02*
X79599087Y-92091808D01*
X79623278Y-92140189D01*
X79647468Y-92164379D01*
X79695849Y-92188570D01*
X79792611Y-92212760D01*
X79913563Y-92212760D01*
X80010325Y-92188570D01*
X80058706Y-92164379D01*
X80082897Y-92140189D01*
X80107087Y-92091808D01*
X80107087Y-92043427D01*
X80082897Y-91995046D01*
X80058706Y-91970856D01*
X80010325Y-91946665D01*
X79913563Y-91922475D01*
X79792611Y-91922475D01*
X79695849Y-91946665D01*
X79647468Y-91970856D01*
X79623278Y-91995046D01*
X79599087Y-92043427D01*
X80107087Y-92696570D02*
X80107087Y-92406284D01*
X80107087Y-92551427D02*
X79599087Y-92551427D01*
X79671658Y-92503046D01*
X79720039Y-92454665D01*
X79744230Y-92406284D01*
X116825287Y-90501141D02*
X116583382Y-90331808D01*
X116825287Y-90210856D02*
X116317287Y-90210856D01*
X116317287Y-90404379D01*
X116341478Y-90452760D01*
X116365668Y-90476951D01*
X116414049Y-90501141D01*
X116486620Y-90501141D01*
X116535001Y-90476951D01*
X116559192Y-90452760D01*
X116583382Y-90404379D01*
X116583382Y-90210856D01*
X116365668Y-90694665D02*
X116341478Y-90718856D01*
X116317287Y-90767237D01*
X116317287Y-90888189D01*
X116341478Y-90936570D01*
X116365668Y-90960760D01*
X116414049Y-90984951D01*
X116462430Y-90984951D01*
X116535001Y-90960760D01*
X116825287Y-90670475D01*
X116825287Y-90984951D01*
X116825287Y-91468760D02*
X116825287Y-91178475D01*
X116825287Y-91323618D02*
X116317287Y-91323618D01*
X116389858Y-91275237D01*
X116438239Y-91226856D01*
X116462430Y-91178475D01*
X116317287Y-91638094D02*
X116317287Y-91952570D01*
X116510811Y-91783237D01*
X116510811Y-91855808D01*
X116535001Y-91904189D01*
X116559192Y-91928379D01*
X116607573Y-91952570D01*
X116728525Y-91952570D01*
X116776906Y-91928379D01*
X116801097Y-91904189D01*
X116825287Y-91855808D01*
X116825287Y-91710665D01*
X116801097Y-91662284D01*
X116776906Y-91638094D01*
X109952087Y-73338141D02*
X109710182Y-73168808D01*
X109952087Y-73047856D02*
X109444087Y-73047856D01*
X109444087Y-73241379D01*
X109468278Y-73289760D01*
X109492468Y-73313951D01*
X109540849Y-73338141D01*
X109613420Y-73338141D01*
X109661801Y-73313951D01*
X109685992Y-73289760D01*
X109710182Y-73241379D01*
X109710182Y-73047856D01*
X109444087Y-73507475D02*
X109444087Y-73821951D01*
X109637611Y-73652618D01*
X109637611Y-73725189D01*
X109661801Y-73773570D01*
X109685992Y-73797760D01*
X109734373Y-73821951D01*
X109855325Y-73821951D01*
X109903706Y-73797760D01*
X109927897Y-73773570D01*
X109952087Y-73725189D01*
X109952087Y-73580046D01*
X109927897Y-73531665D01*
X109903706Y-73507475D01*
X109444087Y-74136427D02*
X109444087Y-74184808D01*
X109468278Y-74233189D01*
X109492468Y-74257379D01*
X109540849Y-74281570D01*
X109637611Y-74305760D01*
X109758563Y-74305760D01*
X109855325Y-74281570D01*
X109903706Y-74257379D01*
X109927897Y-74233189D01*
X109952087Y-74184808D01*
X109952087Y-74136427D01*
X109927897Y-74088046D01*
X109903706Y-74063856D01*
X109855325Y-74039665D01*
X109758563Y-74015475D01*
X109637611Y-74015475D01*
X109540849Y-74039665D01*
X109492468Y-74063856D01*
X109468278Y-74088046D01*
X109444087Y-74136427D01*
X109952087Y-74547665D02*
X109952087Y-74644427D01*
X109927897Y-74692808D01*
X109903706Y-74716998D01*
X109831135Y-74765379D01*
X109734373Y-74789570D01*
X109540849Y-74789570D01*
X109492468Y-74765379D01*
X109468278Y-74741189D01*
X109444087Y-74692808D01*
X109444087Y-74596046D01*
X109468278Y-74547665D01*
X109492468Y-74523475D01*
X109540849Y-74499284D01*
X109661801Y-74499284D01*
X109710182Y-74523475D01*
X109734373Y-74547665D01*
X109758563Y-74596046D01*
X109758563Y-74692808D01*
X109734373Y-74741189D01*
X109710182Y-74765379D01*
X109661801Y-74789570D01*
X130386992Y-68433522D02*
X130386992Y-68264189D01*
X130653087Y-68264189D02*
X130145087Y-68264189D01*
X130145087Y-68506094D01*
X130653087Y-68699618D02*
X130145087Y-68699618D01*
X130653087Y-68941522D02*
X130145087Y-68941522D01*
X130145087Y-69062475D01*
X130169278Y-69135046D01*
X130217658Y-69183427D01*
X130266039Y-69207618D01*
X130362801Y-69231808D01*
X130435373Y-69231808D01*
X130532135Y-69207618D01*
X130580516Y-69183427D01*
X130628897Y-69135046D01*
X130653087Y-69062475D01*
X130653087Y-68941522D01*
X130653087Y-69715618D02*
X130653087Y-69425332D01*
X130653087Y-69570475D02*
X130145087Y-69570475D01*
X130217658Y-69522094D01*
X130266039Y-69473713D01*
X130290230Y-69425332D01*
X130145087Y-70030094D02*
X130145087Y-70078475D01*
X130169278Y-70126856D01*
X130193468Y-70151046D01*
X130241849Y-70175237D01*
X130338611Y-70199427D01*
X130459563Y-70199427D01*
X130556325Y-70175237D01*
X130604706Y-70151046D01*
X130628897Y-70126856D01*
X130653087Y-70078475D01*
X130653087Y-70030094D01*
X130628897Y-69981713D01*
X130604706Y-69957522D01*
X130556325Y-69933332D01*
X130459563Y-69909141D01*
X130338611Y-69909141D01*
X130241849Y-69933332D01*
X130193468Y-69957522D01*
X130169278Y-69981713D01*
X130145087Y-70030094D01*
X130145087Y-70659046D02*
X130145087Y-70417141D01*
X130386992Y-70392951D01*
X130362801Y-70417141D01*
X130338611Y-70465522D01*
X130338611Y-70586475D01*
X130362801Y-70634856D01*
X130386992Y-70659046D01*
X130435373Y-70683237D01*
X130556325Y-70683237D01*
X130604706Y-70659046D01*
X130628897Y-70634856D01*
X130653087Y-70586475D01*
X130653087Y-70465522D01*
X130628897Y-70417141D01*
X130604706Y-70392951D01*
X111603087Y-73338141D02*
X111361182Y-73168808D01*
X111603087Y-73047856D02*
X111095087Y-73047856D01*
X111095087Y-73241379D01*
X111119278Y-73289760D01*
X111143468Y-73313951D01*
X111191849Y-73338141D01*
X111264420Y-73338141D01*
X111312801Y-73313951D01*
X111336992Y-73289760D01*
X111361182Y-73241379D01*
X111361182Y-73047856D01*
X111095087Y-73507475D02*
X111095087Y-73821951D01*
X111288611Y-73652618D01*
X111288611Y-73725189D01*
X111312801Y-73773570D01*
X111336992Y-73797760D01*
X111385373Y-73821951D01*
X111506325Y-73821951D01*
X111554706Y-73797760D01*
X111578897Y-73773570D01*
X111603087Y-73725189D01*
X111603087Y-73580046D01*
X111578897Y-73531665D01*
X111554706Y-73507475D01*
X111095087Y-74136427D02*
X111095087Y-74184808D01*
X111119278Y-74233189D01*
X111143468Y-74257379D01*
X111191849Y-74281570D01*
X111288611Y-74305760D01*
X111409563Y-74305760D01*
X111506325Y-74281570D01*
X111554706Y-74257379D01*
X111578897Y-74233189D01*
X111603087Y-74184808D01*
X111603087Y-74136427D01*
X111578897Y-74088046D01*
X111554706Y-74063856D01*
X111506325Y-74039665D01*
X111409563Y-74015475D01*
X111288611Y-74015475D01*
X111191849Y-74039665D01*
X111143468Y-74063856D01*
X111119278Y-74088046D01*
X111095087Y-74136427D01*
X111095087Y-74741189D02*
X111095087Y-74644427D01*
X111119278Y-74596046D01*
X111143468Y-74571856D01*
X111216039Y-74523475D01*
X111312801Y-74499284D01*
X111506325Y-74499284D01*
X111554706Y-74523475D01*
X111578897Y-74547665D01*
X111603087Y-74596046D01*
X111603087Y-74692808D01*
X111578897Y-74741189D01*
X111554706Y-74765379D01*
X111506325Y-74789570D01*
X111385373Y-74789570D01*
X111336992Y-74765379D01*
X111312801Y-74741189D01*
X111288611Y-74692808D01*
X111288611Y-74596046D01*
X111312801Y-74547665D01*
X111336992Y-74523475D01*
X111385373Y-74499284D01*
X113592754Y-123158427D02*
X113762087Y-122916522D01*
X113883039Y-123158427D02*
X113883039Y-122650427D01*
X113689516Y-122650427D01*
X113641135Y-122674618D01*
X113616944Y-122698808D01*
X113592754Y-122747189D01*
X113592754Y-122819760D01*
X113616944Y-122868141D01*
X113641135Y-122892332D01*
X113689516Y-122916522D01*
X113883039Y-122916522D01*
X113157325Y-122650427D02*
X113254087Y-122650427D01*
X113302468Y-122674618D01*
X113326658Y-122698808D01*
X113375039Y-122771379D01*
X113399230Y-122868141D01*
X113399230Y-123061665D01*
X113375039Y-123110046D01*
X113350849Y-123134237D01*
X113302468Y-123158427D01*
X113205706Y-123158427D01*
X113157325Y-123134237D01*
X113133135Y-123110046D01*
X113108944Y-123061665D01*
X113108944Y-122940713D01*
X113133135Y-122892332D01*
X113157325Y-122868141D01*
X113205706Y-122843951D01*
X113302468Y-122843951D01*
X113350849Y-122868141D01*
X113375039Y-122892332D01*
X113399230Y-122940713D01*
X112794468Y-122650427D02*
X112746087Y-122650427D01*
X112697706Y-122674618D01*
X112673516Y-122698808D01*
X112649325Y-122747189D01*
X112625135Y-122843951D01*
X112625135Y-122964903D01*
X112649325Y-123061665D01*
X112673516Y-123110046D01*
X112697706Y-123134237D01*
X112746087Y-123158427D01*
X112794468Y-123158427D01*
X112842849Y-123134237D01*
X112867039Y-123110046D01*
X112891230Y-123061665D01*
X112915420Y-122964903D01*
X112915420Y-122843951D01*
X112891230Y-122747189D01*
X112867039Y-122698808D01*
X112842849Y-122674618D01*
X112794468Y-122650427D01*
X112165516Y-122650427D02*
X112407420Y-122650427D01*
X112431611Y-122892332D01*
X112407420Y-122868141D01*
X112359039Y-122843951D01*
X112238087Y-122843951D01*
X112189706Y-122868141D01*
X112165516Y-122892332D01*
X112141325Y-122940713D01*
X112141325Y-123061665D01*
X112165516Y-123110046D01*
X112189706Y-123134237D01*
X112238087Y-123158427D01*
X112359039Y-123158427D01*
X112407420Y-123134237D01*
X112431611Y-123110046D01*
X122480944Y-89338484D02*
X122239039Y-89338484D01*
X122529325Y-89483627D02*
X122359992Y-88975627D01*
X122190658Y-89483627D01*
X121731039Y-89435246D02*
X121755230Y-89459437D01*
X121827801Y-89483627D01*
X121876182Y-89483627D01*
X121948754Y-89459437D01*
X121997135Y-89411056D01*
X122021325Y-89362675D01*
X122045516Y-89265913D01*
X122045516Y-89193341D01*
X122021325Y-89096579D01*
X121997135Y-89048198D01*
X121948754Y-88999818D01*
X121876182Y-88975627D01*
X121827801Y-88975627D01*
X121755230Y-88999818D01*
X121731039Y-89024008D01*
X121537516Y-89024008D02*
X121513325Y-88999818D01*
X121464944Y-88975627D01*
X121343992Y-88975627D01*
X121295611Y-88999818D01*
X121271420Y-89024008D01*
X121247230Y-89072389D01*
X121247230Y-89120770D01*
X121271420Y-89193341D01*
X121561706Y-89483627D01*
X121247230Y-89483627D01*
X120932754Y-88975627D02*
X120884373Y-88975627D01*
X120835992Y-88999818D01*
X120811801Y-89024008D01*
X120787611Y-89072389D01*
X120763420Y-89169151D01*
X120763420Y-89290103D01*
X120787611Y-89386865D01*
X120811801Y-89435246D01*
X120835992Y-89459437D01*
X120884373Y-89483627D01*
X120932754Y-89483627D01*
X120981135Y-89459437D01*
X121005325Y-89435246D01*
X121029516Y-89386865D01*
X121053706Y-89290103D01*
X121053706Y-89169151D01*
X121029516Y-89072389D01*
X121005325Y-89024008D01*
X120981135Y-88999818D01*
X120932754Y-88975627D01*
X120279611Y-89483627D02*
X120569897Y-89483627D01*
X120424754Y-89483627D02*
X120424754Y-88975627D01*
X120473135Y-89048198D01*
X120521516Y-89096579D01*
X120569897Y-89120770D01*
X109450135Y-88487427D02*
X109450135Y-88898665D01*
X109425944Y-88947046D01*
X109401754Y-88971237D01*
X109353373Y-88995427D01*
X109256611Y-88995427D01*
X109208230Y-88971237D01*
X109184039Y-88947046D01*
X109159849Y-88898665D01*
X109159849Y-88487427D01*
X108700230Y-88656760D02*
X108700230Y-88995427D01*
X108821182Y-88463237D02*
X108942135Y-88826094D01*
X108627658Y-88826094D01*
X108337373Y-88487427D02*
X108288992Y-88487427D01*
X108240611Y-88511618D01*
X108216420Y-88535808D01*
X108192230Y-88584189D01*
X108168039Y-88680951D01*
X108168039Y-88801903D01*
X108192230Y-88898665D01*
X108216420Y-88947046D01*
X108240611Y-88971237D01*
X108288992Y-88995427D01*
X108337373Y-88995427D01*
X108385754Y-88971237D01*
X108409944Y-88947046D01*
X108434135Y-88898665D01*
X108458325Y-88801903D01*
X108458325Y-88680951D01*
X108434135Y-88584189D01*
X108409944Y-88535808D01*
X108385754Y-88511618D01*
X108337373Y-88487427D01*
X107974516Y-88535808D02*
X107950325Y-88511618D01*
X107901944Y-88487427D01*
X107780992Y-88487427D01*
X107732611Y-88511618D01*
X107708420Y-88535808D01*
X107684230Y-88584189D01*
X107684230Y-88632570D01*
X107708420Y-88705141D01*
X107998706Y-88995427D01*
X107684230Y-88995427D01*
X77783592Y-68763722D02*
X77783592Y-68594389D01*
X78049687Y-68594389D02*
X77541687Y-68594389D01*
X77541687Y-68836294D01*
X78049687Y-69029818D02*
X77541687Y-69029818D01*
X78049687Y-69271722D02*
X77541687Y-69271722D01*
X77541687Y-69392675D01*
X77565878Y-69465246D01*
X77614258Y-69513627D01*
X77662639Y-69537818D01*
X77759401Y-69562008D01*
X77831973Y-69562008D01*
X77928735Y-69537818D01*
X77977116Y-69513627D01*
X78025497Y-69465246D01*
X78049687Y-69392675D01*
X78049687Y-69271722D01*
X78049687Y-70045818D02*
X78049687Y-69755532D01*
X78049687Y-69900675D02*
X77541687Y-69900675D01*
X77614258Y-69852294D01*
X77662639Y-69803913D01*
X77686830Y-69755532D01*
X77541687Y-70360294D02*
X77541687Y-70408675D01*
X77565878Y-70457056D01*
X77590068Y-70481246D01*
X77638449Y-70505437D01*
X77735211Y-70529627D01*
X77856163Y-70529627D01*
X77952925Y-70505437D01*
X78001306Y-70481246D01*
X78025497Y-70457056D01*
X78049687Y-70408675D01*
X78049687Y-70360294D01*
X78025497Y-70311913D01*
X78001306Y-70287722D01*
X77952925Y-70263532D01*
X77856163Y-70239341D01*
X77735211Y-70239341D01*
X77638449Y-70263532D01*
X77590068Y-70287722D01*
X77565878Y-70311913D01*
X77541687Y-70360294D01*
X77541687Y-70965056D02*
X77541687Y-70868294D01*
X77565878Y-70819913D01*
X77590068Y-70795722D01*
X77662639Y-70747341D01*
X77759401Y-70723151D01*
X77952925Y-70723151D01*
X78001306Y-70747341D01*
X78025497Y-70771532D01*
X78049687Y-70819913D01*
X78049687Y-70916675D01*
X78025497Y-70965056D01*
X78001306Y-70989246D01*
X77952925Y-71013437D01*
X77831973Y-71013437D01*
X77783592Y-70989246D01*
X77759401Y-70965056D01*
X77735211Y-70916675D01*
X77735211Y-70819913D01*
X77759401Y-70771532D01*
X77783592Y-70747341D01*
X77831973Y-70723151D01*
X107617706Y-71966541D02*
X107641897Y-71942351D01*
X107666087Y-71869779D01*
X107666087Y-71821398D01*
X107641897Y-71748827D01*
X107593516Y-71700446D01*
X107545135Y-71676256D01*
X107448373Y-71652065D01*
X107375801Y-71652065D01*
X107279039Y-71676256D01*
X107230658Y-71700446D01*
X107182278Y-71748827D01*
X107158087Y-71821398D01*
X107158087Y-71869779D01*
X107182278Y-71942351D01*
X107206468Y-71966541D01*
X107158087Y-72135875D02*
X107158087Y-72450351D01*
X107351611Y-72281018D01*
X107351611Y-72353589D01*
X107375801Y-72401970D01*
X107399992Y-72426160D01*
X107448373Y-72450351D01*
X107569325Y-72450351D01*
X107617706Y-72426160D01*
X107641897Y-72401970D01*
X107666087Y-72353589D01*
X107666087Y-72208446D01*
X107641897Y-72160065D01*
X107617706Y-72135875D01*
X107158087Y-72764827D02*
X107158087Y-72813208D01*
X107182278Y-72861589D01*
X107206468Y-72885779D01*
X107254849Y-72909970D01*
X107351611Y-72934160D01*
X107472563Y-72934160D01*
X107569325Y-72909970D01*
X107617706Y-72885779D01*
X107641897Y-72861589D01*
X107666087Y-72813208D01*
X107666087Y-72764827D01*
X107641897Y-72716446D01*
X107617706Y-72692256D01*
X107569325Y-72668065D01*
X107472563Y-72643875D01*
X107351611Y-72643875D01*
X107254849Y-72668065D01*
X107206468Y-72692256D01*
X107182278Y-72716446D01*
X107158087Y-72764827D01*
X107206468Y-73127684D02*
X107182278Y-73151875D01*
X107158087Y-73200256D01*
X107158087Y-73321208D01*
X107182278Y-73369589D01*
X107206468Y-73393779D01*
X107254849Y-73417970D01*
X107303230Y-73417970D01*
X107375801Y-73393779D01*
X107666087Y-73103494D01*
X107666087Y-73417970D01*
X102840087Y-73338141D02*
X102598182Y-73168808D01*
X102840087Y-73047856D02*
X102332087Y-73047856D01*
X102332087Y-73241379D01*
X102356278Y-73289760D01*
X102380468Y-73313951D01*
X102428849Y-73338141D01*
X102501420Y-73338141D01*
X102549801Y-73313951D01*
X102573992Y-73289760D01*
X102598182Y-73241379D01*
X102598182Y-73047856D01*
X102332087Y-73507475D02*
X102332087Y-73821951D01*
X102525611Y-73652618D01*
X102525611Y-73725189D01*
X102549801Y-73773570D01*
X102573992Y-73797760D01*
X102622373Y-73821951D01*
X102743325Y-73821951D01*
X102791706Y-73797760D01*
X102815897Y-73773570D01*
X102840087Y-73725189D01*
X102840087Y-73580046D01*
X102815897Y-73531665D01*
X102791706Y-73507475D01*
X102332087Y-74136427D02*
X102332087Y-74184808D01*
X102356278Y-74233189D01*
X102380468Y-74257379D01*
X102428849Y-74281570D01*
X102525611Y-74305760D01*
X102646563Y-74305760D01*
X102743325Y-74281570D01*
X102791706Y-74257379D01*
X102815897Y-74233189D01*
X102840087Y-74184808D01*
X102840087Y-74136427D01*
X102815897Y-74088046D01*
X102791706Y-74063856D01*
X102743325Y-74039665D01*
X102646563Y-74015475D01*
X102525611Y-74015475D01*
X102428849Y-74039665D01*
X102380468Y-74063856D01*
X102356278Y-74088046D01*
X102332087Y-74136427D01*
X102332087Y-74765379D02*
X102332087Y-74523475D01*
X102573992Y-74499284D01*
X102549801Y-74523475D01*
X102525611Y-74571856D01*
X102525611Y-74692808D01*
X102549801Y-74741189D01*
X102573992Y-74765379D01*
X102622373Y-74789570D01*
X102743325Y-74789570D01*
X102791706Y-74765379D01*
X102815897Y-74741189D01*
X102840087Y-74692808D01*
X102840087Y-74571856D01*
X102815897Y-74523475D01*
X102791706Y-74499284D01*
X95474087Y-117661141D02*
X95232182Y-117491808D01*
X95474087Y-117370856D02*
X94966087Y-117370856D01*
X94966087Y-117564379D01*
X94990278Y-117612760D01*
X95014468Y-117636951D01*
X95062849Y-117661141D01*
X95135420Y-117661141D01*
X95183801Y-117636951D01*
X95207992Y-117612760D01*
X95232182Y-117564379D01*
X95232182Y-117370856D01*
X94966087Y-118096570D02*
X94966087Y-117999808D01*
X94990278Y-117951427D01*
X95014468Y-117927237D01*
X95087039Y-117878856D01*
X95183801Y-117854665D01*
X95377325Y-117854665D01*
X95425706Y-117878856D01*
X95449897Y-117903046D01*
X95474087Y-117951427D01*
X95474087Y-118048189D01*
X95449897Y-118096570D01*
X95425706Y-118120760D01*
X95377325Y-118144951D01*
X95256373Y-118144951D01*
X95207992Y-118120760D01*
X95183801Y-118096570D01*
X95159611Y-118048189D01*
X95159611Y-117951427D01*
X95183801Y-117903046D01*
X95207992Y-117878856D01*
X95256373Y-117854665D01*
X94966087Y-118459427D02*
X94966087Y-118507808D01*
X94990278Y-118556189D01*
X95014468Y-118580379D01*
X95062849Y-118604570D01*
X95159611Y-118628760D01*
X95280563Y-118628760D01*
X95377325Y-118604570D01*
X95425706Y-118580379D01*
X95449897Y-118556189D01*
X95474087Y-118507808D01*
X95474087Y-118459427D01*
X95449897Y-118411046D01*
X95425706Y-118386856D01*
X95377325Y-118362665D01*
X95280563Y-118338475D01*
X95159611Y-118338475D01*
X95062849Y-118362665D01*
X95014468Y-118386856D01*
X94990278Y-118411046D01*
X94966087Y-118459427D01*
X95474087Y-119112570D02*
X95474087Y-118822284D01*
X95474087Y-118967427D02*
X94966087Y-118967427D01*
X95038658Y-118919046D01*
X95087039Y-118870665D01*
X95111230Y-118822284D01*
X98945420Y-108553427D02*
X98945420Y-108916284D01*
X98969611Y-108988856D01*
X99017992Y-109037237D01*
X99090563Y-109061427D01*
X99138944Y-109061427D01*
X98485801Y-108722760D02*
X98485801Y-109061427D01*
X98606754Y-108529237D02*
X98727706Y-108892094D01*
X98413230Y-108892094D01*
X98122944Y-108553427D02*
X98074563Y-108553427D01*
X98026182Y-108577618D01*
X98001992Y-108601808D01*
X97977801Y-108650189D01*
X97953611Y-108746951D01*
X97953611Y-108867903D01*
X97977801Y-108964665D01*
X98001992Y-109013046D01*
X98026182Y-109037237D01*
X98074563Y-109061427D01*
X98122944Y-109061427D01*
X98171325Y-109037237D01*
X98195516Y-109013046D01*
X98219706Y-108964665D01*
X98243897Y-108867903D01*
X98243897Y-108746951D01*
X98219706Y-108650189D01*
X98195516Y-108601808D01*
X98171325Y-108577618D01*
X98122944Y-108553427D01*
X97469801Y-109061427D02*
X97760087Y-109061427D01*
X97614944Y-109061427D02*
X97614944Y-108553427D01*
X97663325Y-108625998D01*
X97711706Y-108674379D01*
X97760087Y-108698570D01*
X97336754Y-88295046D02*
X97360944Y-88319237D01*
X97433516Y-88343427D01*
X97481897Y-88343427D01*
X97554468Y-88319237D01*
X97602849Y-88270856D01*
X97627039Y-88222475D01*
X97651230Y-88125713D01*
X97651230Y-88053141D01*
X97627039Y-87956379D01*
X97602849Y-87907998D01*
X97554468Y-87859618D01*
X97481897Y-87835427D01*
X97433516Y-87835427D01*
X97360944Y-87859618D01*
X97336754Y-87883808D01*
X96901325Y-88004760D02*
X96901325Y-88343427D01*
X97022278Y-87811237D02*
X97143230Y-88174094D01*
X96828754Y-88174094D01*
X96538468Y-87835427D02*
X96490087Y-87835427D01*
X96441706Y-87859618D01*
X96417516Y-87883808D01*
X96393325Y-87932189D01*
X96369135Y-88028951D01*
X96369135Y-88149903D01*
X96393325Y-88246665D01*
X96417516Y-88295046D01*
X96441706Y-88319237D01*
X96490087Y-88343427D01*
X96538468Y-88343427D01*
X96586849Y-88319237D01*
X96611039Y-88295046D01*
X96635230Y-88246665D01*
X96659420Y-88149903D01*
X96659420Y-88028951D01*
X96635230Y-87932189D01*
X96611039Y-87883808D01*
X96586849Y-87859618D01*
X96538468Y-87835427D01*
X95885325Y-88343427D02*
X96175611Y-88343427D01*
X96030468Y-88343427D02*
X96030468Y-87835427D01*
X96078849Y-87907998D01*
X96127230Y-87956379D01*
X96175611Y-87980570D01*
X84636754Y-95218427D02*
X84806087Y-94976522D01*
X84927039Y-95218427D02*
X84927039Y-94710427D01*
X84733516Y-94710427D01*
X84685135Y-94734618D01*
X84660944Y-94758808D01*
X84636754Y-94807189D01*
X84636754Y-94879760D01*
X84660944Y-94928141D01*
X84685135Y-94952332D01*
X84733516Y-94976522D01*
X84927039Y-94976522D01*
X84201325Y-94879760D02*
X84201325Y-95218427D01*
X84322278Y-94686237D02*
X84443230Y-95049094D01*
X84128754Y-95049094D01*
X83838468Y-94710427D02*
X83790087Y-94710427D01*
X83741706Y-94734618D01*
X83717516Y-94758808D01*
X83693325Y-94807189D01*
X83669135Y-94903951D01*
X83669135Y-95024903D01*
X83693325Y-95121665D01*
X83717516Y-95170046D01*
X83741706Y-95194237D01*
X83790087Y-95218427D01*
X83838468Y-95218427D01*
X83886849Y-95194237D01*
X83911039Y-95170046D01*
X83935230Y-95121665D01*
X83959420Y-95024903D01*
X83959420Y-94903951D01*
X83935230Y-94807189D01*
X83911039Y-94758808D01*
X83886849Y-94734618D01*
X83838468Y-94710427D01*
X83475611Y-94758808D02*
X83451420Y-94734618D01*
X83403039Y-94710427D01*
X83282087Y-94710427D01*
X83233706Y-94734618D01*
X83209516Y-94758808D01*
X83185325Y-94807189D01*
X83185325Y-94855570D01*
X83209516Y-94928141D01*
X83499801Y-95218427D01*
X83185325Y-95218427D01*
X89547420Y-110509227D02*
X89547420Y-110872084D01*
X89571611Y-110944656D01*
X89619992Y-110993037D01*
X89692563Y-111017227D01*
X89740944Y-111017227D01*
X89232944Y-110726941D02*
X89281325Y-110702751D01*
X89305516Y-110678560D01*
X89329706Y-110630179D01*
X89329706Y-110605989D01*
X89305516Y-110557608D01*
X89281325Y-110533418D01*
X89232944Y-110509227D01*
X89136182Y-110509227D01*
X89087801Y-110533418D01*
X89063611Y-110557608D01*
X89039420Y-110605989D01*
X89039420Y-110630179D01*
X89063611Y-110678560D01*
X89087801Y-110702751D01*
X89136182Y-110726941D01*
X89232944Y-110726941D01*
X89281325Y-110751132D01*
X89305516Y-110775322D01*
X89329706Y-110823703D01*
X89329706Y-110920465D01*
X89305516Y-110968846D01*
X89281325Y-110993037D01*
X89232944Y-111017227D01*
X89136182Y-111017227D01*
X89087801Y-110993037D01*
X89063611Y-110968846D01*
X89039420Y-110920465D01*
X89039420Y-110823703D01*
X89063611Y-110775322D01*
X89087801Y-110751132D01*
X89136182Y-110726941D01*
X88724944Y-110509227D02*
X88676563Y-110509227D01*
X88628182Y-110533418D01*
X88603992Y-110557608D01*
X88579801Y-110605989D01*
X88555611Y-110702751D01*
X88555611Y-110823703D01*
X88579801Y-110920465D01*
X88603992Y-110968846D01*
X88628182Y-110993037D01*
X88676563Y-111017227D01*
X88724944Y-111017227D01*
X88773325Y-110993037D01*
X88797516Y-110968846D01*
X88821706Y-110920465D01*
X88845897Y-110823703D01*
X88845897Y-110702751D01*
X88821706Y-110605989D01*
X88797516Y-110557608D01*
X88773325Y-110533418D01*
X88724944Y-110509227D01*
X88095992Y-110509227D02*
X88337897Y-110509227D01*
X88362087Y-110751132D01*
X88337897Y-110726941D01*
X88289516Y-110702751D01*
X88168563Y-110702751D01*
X88120182Y-110726941D01*
X88095992Y-110751132D01*
X88071801Y-110799513D01*
X88071801Y-110920465D01*
X88095992Y-110968846D01*
X88120182Y-110993037D01*
X88168563Y-111017227D01*
X88289516Y-111017227D01*
X88337897Y-110993037D01*
X88362087Y-110968846D01*
X89699820Y-102381227D02*
X89699820Y-102744084D01*
X89724011Y-102816656D01*
X89772392Y-102865037D01*
X89844963Y-102889227D01*
X89893344Y-102889227D01*
X89240201Y-102550560D02*
X89240201Y-102889227D01*
X89361154Y-102357037D02*
X89482106Y-102719894D01*
X89167630Y-102719894D01*
X88877344Y-102381227D02*
X88828963Y-102381227D01*
X88780582Y-102405418D01*
X88756392Y-102429608D01*
X88732201Y-102477989D01*
X88708011Y-102574751D01*
X88708011Y-102695703D01*
X88732201Y-102792465D01*
X88756392Y-102840846D01*
X88780582Y-102865037D01*
X88828963Y-102889227D01*
X88877344Y-102889227D01*
X88925725Y-102865037D01*
X88949916Y-102840846D01*
X88974106Y-102792465D01*
X88998297Y-102695703D01*
X88998297Y-102574751D01*
X88974106Y-102477989D01*
X88949916Y-102429608D01*
X88925725Y-102405418D01*
X88877344Y-102381227D01*
X88514487Y-102429608D02*
X88490297Y-102405418D01*
X88441916Y-102381227D01*
X88320963Y-102381227D01*
X88272582Y-102405418D01*
X88248392Y-102429608D01*
X88224201Y-102477989D01*
X88224201Y-102526370D01*
X88248392Y-102598941D01*
X88538678Y-102889227D01*
X88224201Y-102889227D01*
X93746887Y-117788141D02*
X93504982Y-117618808D01*
X93746887Y-117497856D02*
X93238887Y-117497856D01*
X93238887Y-117691379D01*
X93263078Y-117739760D01*
X93287268Y-117763951D01*
X93335649Y-117788141D01*
X93408220Y-117788141D01*
X93456601Y-117763951D01*
X93480792Y-117739760D01*
X93504982Y-117691379D01*
X93504982Y-117497856D01*
X93238887Y-118223570D02*
X93238887Y-118126808D01*
X93263078Y-118078427D01*
X93287268Y-118054237D01*
X93359839Y-118005856D01*
X93456601Y-117981665D01*
X93650125Y-117981665D01*
X93698506Y-118005856D01*
X93722697Y-118030046D01*
X93746887Y-118078427D01*
X93746887Y-118175189D01*
X93722697Y-118223570D01*
X93698506Y-118247760D01*
X93650125Y-118271951D01*
X93529173Y-118271951D01*
X93480792Y-118247760D01*
X93456601Y-118223570D01*
X93432411Y-118175189D01*
X93432411Y-118078427D01*
X93456601Y-118030046D01*
X93480792Y-118005856D01*
X93529173Y-117981665D01*
X93238887Y-118586427D02*
X93238887Y-118634808D01*
X93263078Y-118683189D01*
X93287268Y-118707379D01*
X93335649Y-118731570D01*
X93432411Y-118755760D01*
X93553363Y-118755760D01*
X93650125Y-118731570D01*
X93698506Y-118707379D01*
X93722697Y-118683189D01*
X93746887Y-118634808D01*
X93746887Y-118586427D01*
X93722697Y-118538046D01*
X93698506Y-118513856D01*
X93650125Y-118489665D01*
X93553363Y-118465475D01*
X93432411Y-118465475D01*
X93335649Y-118489665D01*
X93287268Y-118513856D01*
X93263078Y-118538046D01*
X93238887Y-118586427D01*
X93408220Y-119191189D02*
X93746887Y-119191189D01*
X93214697Y-119070237D02*
X93577554Y-118949284D01*
X93577554Y-119263760D01*
X84509754Y-96996427D02*
X84679087Y-96754522D01*
X84800039Y-96996427D02*
X84800039Y-96488427D01*
X84606516Y-96488427D01*
X84558135Y-96512618D01*
X84533944Y-96536808D01*
X84509754Y-96585189D01*
X84509754Y-96657760D01*
X84533944Y-96706141D01*
X84558135Y-96730332D01*
X84606516Y-96754522D01*
X84800039Y-96754522D01*
X84074325Y-96657760D02*
X84074325Y-96996427D01*
X84195278Y-96464237D02*
X84316230Y-96827094D01*
X84001754Y-96827094D01*
X83711468Y-96488427D02*
X83663087Y-96488427D01*
X83614706Y-96512618D01*
X83590516Y-96536808D01*
X83566325Y-96585189D01*
X83542135Y-96681951D01*
X83542135Y-96802903D01*
X83566325Y-96899665D01*
X83590516Y-96948046D01*
X83614706Y-96972237D01*
X83663087Y-96996427D01*
X83711468Y-96996427D01*
X83759849Y-96972237D01*
X83784039Y-96948046D01*
X83808230Y-96899665D01*
X83832420Y-96802903D01*
X83832420Y-96681951D01*
X83808230Y-96585189D01*
X83784039Y-96536808D01*
X83759849Y-96512618D01*
X83711468Y-96488427D01*
X83106706Y-96657760D02*
X83106706Y-96996427D01*
X83227658Y-96464237D02*
X83348611Y-96827094D01*
X83034135Y-96827094D01*
X128784373Y-125686332D02*
X128953706Y-125686332D01*
X128953706Y-125952427D02*
X128953706Y-125444427D01*
X128711801Y-125444427D01*
X128518278Y-125952427D02*
X128518278Y-125444427D01*
X128276373Y-125952427D02*
X128276373Y-125444427D01*
X128155420Y-125444427D01*
X128082849Y-125468618D01*
X128034468Y-125516998D01*
X128010278Y-125565379D01*
X127986087Y-125662141D01*
X127986087Y-125734713D01*
X128010278Y-125831475D01*
X128034468Y-125879856D01*
X128082849Y-125928237D01*
X128155420Y-125952427D01*
X128276373Y-125952427D01*
X127502278Y-125952427D02*
X127792563Y-125952427D01*
X127647420Y-125952427D02*
X127647420Y-125444427D01*
X127695801Y-125516998D01*
X127744182Y-125565379D01*
X127792563Y-125589570D01*
X127187801Y-125444427D02*
X127139420Y-125444427D01*
X127091039Y-125468618D01*
X127066849Y-125492808D01*
X127042658Y-125541189D01*
X127018468Y-125637951D01*
X127018468Y-125758903D01*
X127042658Y-125855665D01*
X127066849Y-125904046D01*
X127091039Y-125928237D01*
X127139420Y-125952427D01*
X127187801Y-125952427D01*
X127236182Y-125928237D01*
X127260373Y-125904046D01*
X127284563Y-125855665D01*
X127308754Y-125758903D01*
X127308754Y-125637951D01*
X127284563Y-125541189D01*
X127260373Y-125492808D01*
X127236182Y-125468618D01*
X127187801Y-125444427D01*
X126583039Y-125613760D02*
X126583039Y-125952427D01*
X126703992Y-125420237D02*
X126824944Y-125783094D01*
X126510468Y-125783094D01*
X104491087Y-73338141D02*
X104249182Y-73168808D01*
X104491087Y-73047856D02*
X103983087Y-73047856D01*
X103983087Y-73241379D01*
X104007278Y-73289760D01*
X104031468Y-73313951D01*
X104079849Y-73338141D01*
X104152420Y-73338141D01*
X104200801Y-73313951D01*
X104224992Y-73289760D01*
X104249182Y-73241379D01*
X104249182Y-73047856D01*
X103983087Y-73507475D02*
X103983087Y-73821951D01*
X104176611Y-73652618D01*
X104176611Y-73725189D01*
X104200801Y-73773570D01*
X104224992Y-73797760D01*
X104273373Y-73821951D01*
X104394325Y-73821951D01*
X104442706Y-73797760D01*
X104466897Y-73773570D01*
X104491087Y-73725189D01*
X104491087Y-73580046D01*
X104466897Y-73531665D01*
X104442706Y-73507475D01*
X103983087Y-74136427D02*
X103983087Y-74184808D01*
X104007278Y-74233189D01*
X104031468Y-74257379D01*
X104079849Y-74281570D01*
X104176611Y-74305760D01*
X104297563Y-74305760D01*
X104394325Y-74281570D01*
X104442706Y-74257379D01*
X104466897Y-74233189D01*
X104491087Y-74184808D01*
X104491087Y-74136427D01*
X104466897Y-74088046D01*
X104442706Y-74063856D01*
X104394325Y-74039665D01*
X104297563Y-74015475D01*
X104176611Y-74015475D01*
X104079849Y-74039665D01*
X104031468Y-74063856D01*
X104007278Y-74088046D01*
X103983087Y-74136427D01*
X103983087Y-74475094D02*
X103983087Y-74813760D01*
X104491087Y-74596046D01*
X81334754Y-67611046D02*
X81358944Y-67635237D01*
X81431516Y-67659427D01*
X81479897Y-67659427D01*
X81552468Y-67635237D01*
X81600849Y-67586856D01*
X81625039Y-67538475D01*
X81649230Y-67441713D01*
X81649230Y-67369141D01*
X81625039Y-67272379D01*
X81600849Y-67223998D01*
X81552468Y-67175618D01*
X81479897Y-67151427D01*
X81431516Y-67151427D01*
X81358944Y-67175618D01*
X81334754Y-67199808D01*
X81044468Y-67369141D02*
X81092849Y-67344951D01*
X81117039Y-67320760D01*
X81141230Y-67272379D01*
X81141230Y-67248189D01*
X81117039Y-67199808D01*
X81092849Y-67175618D01*
X81044468Y-67151427D01*
X80947706Y-67151427D01*
X80899325Y-67175618D01*
X80875135Y-67199808D01*
X80850944Y-67248189D01*
X80850944Y-67272379D01*
X80875135Y-67320760D01*
X80899325Y-67344951D01*
X80947706Y-67369141D01*
X81044468Y-67369141D01*
X81092849Y-67393332D01*
X81117039Y-67417522D01*
X81141230Y-67465903D01*
X81141230Y-67562665D01*
X81117039Y-67611046D01*
X81092849Y-67635237D01*
X81044468Y-67659427D01*
X80947706Y-67659427D01*
X80899325Y-67635237D01*
X80875135Y-67611046D01*
X80850944Y-67562665D01*
X80850944Y-67465903D01*
X80875135Y-67417522D01*
X80899325Y-67393332D01*
X80947706Y-67369141D01*
X80367135Y-67659427D02*
X80657420Y-67659427D01*
X80512278Y-67659427D02*
X80512278Y-67151427D01*
X80560658Y-67223998D01*
X80609039Y-67272379D01*
X80657420Y-67296570D01*
X80052658Y-67151427D02*
X80004278Y-67151427D01*
X79955897Y-67175618D01*
X79931706Y-67199808D01*
X79907516Y-67248189D01*
X79883325Y-67344951D01*
X79883325Y-67465903D01*
X79907516Y-67562665D01*
X79931706Y-67611046D01*
X79955897Y-67635237D01*
X80004278Y-67659427D01*
X80052658Y-67659427D01*
X80101039Y-67635237D01*
X80125230Y-67611046D01*
X80149420Y-67562665D01*
X80173611Y-67465903D01*
X80173611Y-67344951D01*
X80149420Y-67248189D01*
X80125230Y-67199808D01*
X80101039Y-67175618D01*
X80052658Y-67151427D01*
X121636087Y-87054141D02*
X121394182Y-86884808D01*
X121636087Y-86763856D02*
X121128087Y-86763856D01*
X121128087Y-86957379D01*
X121152278Y-87005760D01*
X121176468Y-87029951D01*
X121224849Y-87054141D01*
X121297420Y-87054141D01*
X121345801Y-87029951D01*
X121369992Y-87005760D01*
X121394182Y-86957379D01*
X121394182Y-86763856D01*
X121176468Y-87247665D02*
X121152278Y-87271856D01*
X121128087Y-87320237D01*
X121128087Y-87441189D01*
X121152278Y-87489570D01*
X121176468Y-87513760D01*
X121224849Y-87537951D01*
X121273230Y-87537951D01*
X121345801Y-87513760D01*
X121636087Y-87223475D01*
X121636087Y-87537951D01*
X121636087Y-88021760D02*
X121636087Y-87731475D01*
X121636087Y-87876618D02*
X121128087Y-87876618D01*
X121200658Y-87828237D01*
X121249039Y-87779856D01*
X121273230Y-87731475D01*
X121176468Y-88215284D02*
X121152278Y-88239475D01*
X121128087Y-88287856D01*
X121128087Y-88408808D01*
X121152278Y-88457189D01*
X121176468Y-88481379D01*
X121224849Y-88505570D01*
X121273230Y-88505570D01*
X121345801Y-88481379D01*
X121636087Y-88191094D01*
X121636087Y-88505570D01*
X120044354Y-108327246D02*
X120068544Y-108351437D01*
X120141116Y-108375627D01*
X120189497Y-108375627D01*
X120262068Y-108351437D01*
X120310449Y-108303056D01*
X120334639Y-108254675D01*
X120358830Y-108157913D01*
X120358830Y-108085341D01*
X120334639Y-107988579D01*
X120310449Y-107940198D01*
X120262068Y-107891818D01*
X120189497Y-107867627D01*
X120141116Y-107867627D01*
X120068544Y-107891818D01*
X120044354Y-107916008D01*
X119584735Y-107867627D02*
X119826639Y-107867627D01*
X119850830Y-108109532D01*
X119826639Y-108085341D01*
X119778258Y-108061151D01*
X119657306Y-108061151D01*
X119608925Y-108085341D01*
X119584735Y-108109532D01*
X119560544Y-108157913D01*
X119560544Y-108278865D01*
X119584735Y-108327246D01*
X119608925Y-108351437D01*
X119657306Y-108375627D01*
X119778258Y-108375627D01*
X119826639Y-108351437D01*
X119850830Y-108327246D01*
X119076735Y-108375627D02*
X119367020Y-108375627D01*
X119221878Y-108375627D02*
X119221878Y-107867627D01*
X119270258Y-107940198D01*
X119318639Y-107988579D01*
X119367020Y-108012770D01*
X118592925Y-108375627D02*
X118883211Y-108375627D01*
X118738068Y-108375627D02*
X118738068Y-107867627D01*
X118786449Y-107940198D01*
X118834830Y-107988579D01*
X118883211Y-108012770D01*
X120790350Y-95466672D02*
X120814540Y-95490863D01*
X120887112Y-95515053D01*
X120935493Y-95515053D01*
X121008064Y-95490863D01*
X121056445Y-95442482D01*
X121080635Y-95394101D01*
X121104826Y-95297339D01*
X121104826Y-95224767D01*
X121080635Y-95128005D01*
X121056445Y-95079624D01*
X121008064Y-95031244D01*
X120935493Y-95007053D01*
X120887112Y-95007053D01*
X120814540Y-95031244D01*
X120790350Y-95055434D01*
X120596826Y-95055434D02*
X120572635Y-95031244D01*
X120524254Y-95007053D01*
X120403302Y-95007053D01*
X120354921Y-95031244D01*
X120330731Y-95055434D01*
X120306540Y-95103815D01*
X120306540Y-95152196D01*
X120330731Y-95224767D01*
X120621016Y-95515053D01*
X120306540Y-95515053D01*
X119992064Y-95007053D02*
X119943683Y-95007053D01*
X119895302Y-95031244D01*
X119871112Y-95055434D01*
X119846921Y-95103815D01*
X119822731Y-95200577D01*
X119822731Y-95321529D01*
X119846921Y-95418291D01*
X119871112Y-95466672D01*
X119895302Y-95490863D01*
X119943683Y-95515053D01*
X119992064Y-95515053D01*
X120040445Y-95490863D01*
X120064635Y-95466672D01*
X120088826Y-95418291D01*
X120113016Y-95321529D01*
X120113016Y-95200577D01*
X120088826Y-95103815D01*
X120064635Y-95055434D01*
X120040445Y-95031244D01*
X119992064Y-95007053D01*
X119387302Y-95007053D02*
X119484064Y-95007053D01*
X119532445Y-95031244D01*
X119556635Y-95055434D01*
X119605016Y-95128005D01*
X119629207Y-95224767D01*
X119629207Y-95418291D01*
X119605016Y-95466672D01*
X119580826Y-95490863D01*
X119532445Y-95515053D01*
X119435683Y-95515053D01*
X119387302Y-95490863D01*
X119363112Y-95466672D01*
X119338921Y-95418291D01*
X119338921Y-95297339D01*
X119363112Y-95248958D01*
X119387302Y-95224767D01*
X119435683Y-95200577D01*
X119532445Y-95200577D01*
X119580826Y-95224767D01*
X119605016Y-95248958D01*
X119629207Y-95297339D01*
X80513487Y-99743256D02*
X80005487Y-99743256D01*
X80005487Y-99864208D01*
X80029678Y-99936779D01*
X80078058Y-99985160D01*
X80126439Y-100009351D01*
X80223201Y-100033541D01*
X80295773Y-100033541D01*
X80392535Y-100009351D01*
X80440916Y-99985160D01*
X80489297Y-99936779D01*
X80513487Y-99864208D01*
X80513487Y-99743256D01*
X80174820Y-100468970D02*
X80513487Y-100468970D01*
X79981297Y-100348018D02*
X80344154Y-100227065D01*
X80344154Y-100541541D01*
X80005487Y-100831827D02*
X80005487Y-100880208D01*
X80029678Y-100928589D01*
X80053868Y-100952779D01*
X80102249Y-100976970D01*
X80199011Y-101001160D01*
X80319963Y-101001160D01*
X80416725Y-100976970D01*
X80465106Y-100952779D01*
X80489297Y-100928589D01*
X80513487Y-100880208D01*
X80513487Y-100831827D01*
X80489297Y-100783446D01*
X80465106Y-100759256D01*
X80416725Y-100735065D01*
X80319963Y-100710875D01*
X80199011Y-100710875D01*
X80102249Y-100735065D01*
X80053868Y-100759256D01*
X80029678Y-100783446D01*
X80005487Y-100831827D01*
X80053868Y-101194684D02*
X80029678Y-101218875D01*
X80005487Y-101267256D01*
X80005487Y-101388208D01*
X80029678Y-101436589D01*
X80053868Y-101460779D01*
X80102249Y-101484970D01*
X80150630Y-101484970D01*
X80223201Y-101460779D01*
X80513487Y-101170494D01*
X80513487Y-101484970D01*
X116761706Y-98992141D02*
X116785897Y-98967951D01*
X116810087Y-98895379D01*
X116810087Y-98846998D01*
X116785897Y-98774427D01*
X116737516Y-98726046D01*
X116689135Y-98701856D01*
X116592373Y-98677665D01*
X116519801Y-98677665D01*
X116423039Y-98701856D01*
X116374658Y-98726046D01*
X116326278Y-98774427D01*
X116302087Y-98846998D01*
X116302087Y-98895379D01*
X116326278Y-98967951D01*
X116350468Y-98992141D01*
X116302087Y-99451760D02*
X116302087Y-99209856D01*
X116543992Y-99185665D01*
X116519801Y-99209856D01*
X116495611Y-99258237D01*
X116495611Y-99379189D01*
X116519801Y-99427570D01*
X116543992Y-99451760D01*
X116592373Y-99475951D01*
X116713325Y-99475951D01*
X116761706Y-99451760D01*
X116785897Y-99427570D01*
X116810087Y-99379189D01*
X116810087Y-99258237D01*
X116785897Y-99209856D01*
X116761706Y-99185665D01*
X116810087Y-99959760D02*
X116810087Y-99669475D01*
X116810087Y-99814618D02*
X116302087Y-99814618D01*
X116374658Y-99766237D01*
X116423039Y-99717856D01*
X116447230Y-99669475D01*
X116350468Y-100153284D02*
X116326278Y-100177475D01*
X116302087Y-100225856D01*
X116302087Y-100346808D01*
X116326278Y-100395189D01*
X116350468Y-100419379D01*
X116398849Y-100443570D01*
X116447230Y-100443570D01*
X116519801Y-100419379D01*
X116810087Y-100129094D01*
X116810087Y-100443570D01*
X101231420Y-108426427D02*
X101231420Y-108789284D01*
X101255611Y-108861856D01*
X101303992Y-108910237D01*
X101376563Y-108934427D01*
X101424944Y-108934427D01*
X100771801Y-108595760D02*
X100771801Y-108934427D01*
X100892754Y-108402237D02*
X101013706Y-108765094D01*
X100699230Y-108765094D01*
X100408944Y-108426427D02*
X100360563Y-108426427D01*
X100312182Y-108450618D01*
X100287992Y-108474808D01*
X100263801Y-108523189D01*
X100239611Y-108619951D01*
X100239611Y-108740903D01*
X100263801Y-108837665D01*
X100287992Y-108886046D01*
X100312182Y-108910237D01*
X100360563Y-108934427D01*
X100408944Y-108934427D01*
X100457325Y-108910237D01*
X100481516Y-108886046D01*
X100505706Y-108837665D01*
X100529897Y-108740903D01*
X100529897Y-108619951D01*
X100505706Y-108523189D01*
X100481516Y-108474808D01*
X100457325Y-108450618D01*
X100408944Y-108426427D01*
X100070278Y-108426427D02*
X99755801Y-108426427D01*
X99925135Y-108619951D01*
X99852563Y-108619951D01*
X99804182Y-108644141D01*
X99779992Y-108668332D01*
X99755801Y-108716713D01*
X99755801Y-108837665D01*
X99779992Y-108886046D01*
X99804182Y-108910237D01*
X99852563Y-108934427D01*
X99997706Y-108934427D01*
X100046087Y-108910237D01*
X100070278Y-108886046D01*
X120789420Y-96234427D02*
X120789420Y-96597284D01*
X120813611Y-96669856D01*
X120861992Y-96718237D01*
X120934563Y-96742427D01*
X120982944Y-96742427D01*
X120305611Y-96234427D02*
X120547516Y-96234427D01*
X120571706Y-96476332D01*
X120547516Y-96452141D01*
X120499135Y-96427951D01*
X120378182Y-96427951D01*
X120329801Y-96452141D01*
X120305611Y-96476332D01*
X120281420Y-96524713D01*
X120281420Y-96645665D01*
X120305611Y-96694046D01*
X120329801Y-96718237D01*
X120378182Y-96742427D01*
X120499135Y-96742427D01*
X120547516Y-96718237D01*
X120571706Y-96694046D01*
X119966944Y-96234427D02*
X119918563Y-96234427D01*
X119870182Y-96258618D01*
X119845992Y-96282808D01*
X119821801Y-96331189D01*
X119797611Y-96427951D01*
X119797611Y-96548903D01*
X119821801Y-96645665D01*
X119845992Y-96694046D01*
X119870182Y-96718237D01*
X119918563Y-96742427D01*
X119966944Y-96742427D01*
X120015325Y-96718237D01*
X120039516Y-96694046D01*
X120063706Y-96645665D01*
X120087897Y-96548903D01*
X120087897Y-96427951D01*
X120063706Y-96331189D01*
X120039516Y-96282808D01*
X120015325Y-96258618D01*
X119966944Y-96234427D01*
X119313801Y-96742427D02*
X119604087Y-96742427D01*
X119458944Y-96742427D02*
X119458944Y-96234427D01*
X119507325Y-96306998D01*
X119555706Y-96355379D01*
X119604087Y-96379570D01*
X80403420Y-87205332D02*
X80572754Y-87205332D01*
X80572754Y-87471427D02*
X80572754Y-86963427D01*
X80330849Y-86963427D01*
X79967992Y-87205332D02*
X79895420Y-87229522D01*
X79871230Y-87253713D01*
X79847039Y-87302094D01*
X79847039Y-87374665D01*
X79871230Y-87423046D01*
X79895420Y-87447237D01*
X79943801Y-87471427D01*
X80137325Y-87471427D01*
X80137325Y-86963427D01*
X79967992Y-86963427D01*
X79919611Y-86987618D01*
X79895420Y-87011808D01*
X79871230Y-87060189D01*
X79871230Y-87108570D01*
X79895420Y-87156951D01*
X79919611Y-87181141D01*
X79967992Y-87205332D01*
X80137325Y-87205332D01*
X79411611Y-87132760D02*
X79411611Y-87471427D01*
X79532563Y-86939237D02*
X79653516Y-87302094D01*
X79339039Y-87302094D01*
X79048754Y-86963427D02*
X79000373Y-86963427D01*
X78951992Y-86987618D01*
X78927801Y-87011808D01*
X78903611Y-87060189D01*
X78879420Y-87156951D01*
X78879420Y-87277903D01*
X78903611Y-87374665D01*
X78927801Y-87423046D01*
X78951992Y-87447237D01*
X79000373Y-87471427D01*
X79048754Y-87471427D01*
X79097135Y-87447237D01*
X79121325Y-87423046D01*
X79145516Y-87374665D01*
X79169706Y-87277903D01*
X79169706Y-87156951D01*
X79145516Y-87060189D01*
X79121325Y-87011808D01*
X79097135Y-86987618D01*
X79048754Y-86963427D01*
X78710087Y-86963427D02*
X78395611Y-86963427D01*
X78564944Y-87156951D01*
X78492373Y-87156951D01*
X78443992Y-87181141D01*
X78419801Y-87205332D01*
X78395611Y-87253713D01*
X78395611Y-87374665D01*
X78419801Y-87423046D01*
X78443992Y-87447237D01*
X78492373Y-87471427D01*
X78637516Y-87471427D01*
X78685897Y-87447237D01*
X78710087Y-87423046D01*
X85525754Y-91154427D02*
X85695087Y-90912522D01*
X85816039Y-91154427D02*
X85816039Y-90646427D01*
X85622516Y-90646427D01*
X85574135Y-90670618D01*
X85549944Y-90694808D01*
X85525754Y-90743189D01*
X85525754Y-90815760D01*
X85549944Y-90864141D01*
X85574135Y-90888332D01*
X85622516Y-90912522D01*
X85816039Y-90912522D01*
X85090325Y-90815760D02*
X85090325Y-91154427D01*
X85211278Y-90622237D02*
X85332230Y-90985094D01*
X85017754Y-90985094D01*
X84727468Y-90646427D02*
X84679087Y-90646427D01*
X84630706Y-90670618D01*
X84606516Y-90694808D01*
X84582325Y-90743189D01*
X84558135Y-90839951D01*
X84558135Y-90960903D01*
X84582325Y-91057665D01*
X84606516Y-91106046D01*
X84630706Y-91130237D01*
X84679087Y-91154427D01*
X84727468Y-91154427D01*
X84775849Y-91130237D01*
X84800039Y-91106046D01*
X84824230Y-91057665D01*
X84848420Y-90960903D01*
X84848420Y-90839951D01*
X84824230Y-90743189D01*
X84800039Y-90694808D01*
X84775849Y-90670618D01*
X84727468Y-90646427D01*
X84074325Y-91154427D02*
X84364611Y-91154427D01*
X84219468Y-91154427D02*
X84219468Y-90646427D01*
X84267849Y-90718998D01*
X84316230Y-90767379D01*
X84364611Y-90791570D01*
X99779992Y-71856475D02*
X99779992Y-71687141D01*
X100046087Y-71687141D02*
X99538087Y-71687141D01*
X99538087Y-71929046D01*
X99779992Y-72291903D02*
X99804182Y-72364475D01*
X99828373Y-72388665D01*
X99876754Y-72412856D01*
X99949325Y-72412856D01*
X99997706Y-72388665D01*
X100021897Y-72364475D01*
X100046087Y-72316094D01*
X100046087Y-72122570D01*
X99538087Y-72122570D01*
X99538087Y-72291903D01*
X99562278Y-72340284D01*
X99586468Y-72364475D01*
X99634849Y-72388665D01*
X99683230Y-72388665D01*
X99731611Y-72364475D01*
X99755801Y-72340284D01*
X99779992Y-72291903D01*
X99779992Y-72122570D01*
X99538087Y-72582189D02*
X99538087Y-72896665D01*
X99731611Y-72727332D01*
X99731611Y-72799903D01*
X99755801Y-72848284D01*
X99779992Y-72872475D01*
X99828373Y-72896665D01*
X99949325Y-72896665D01*
X99997706Y-72872475D01*
X100021897Y-72848284D01*
X100046087Y-72799903D01*
X100046087Y-72654760D01*
X100021897Y-72606379D01*
X99997706Y-72582189D01*
X99538087Y-73211141D02*
X99538087Y-73259522D01*
X99562278Y-73307903D01*
X99586468Y-73332094D01*
X99634849Y-73356284D01*
X99731611Y-73380475D01*
X99852563Y-73380475D01*
X99949325Y-73356284D01*
X99997706Y-73332094D01*
X100021897Y-73307903D01*
X100046087Y-73259522D01*
X100046087Y-73211141D01*
X100021897Y-73162760D01*
X99997706Y-73138570D01*
X99949325Y-73114379D01*
X99852563Y-73090189D01*
X99731611Y-73090189D01*
X99634849Y-73114379D01*
X99586468Y-73138570D01*
X99562278Y-73162760D01*
X99538087Y-73211141D01*
X100046087Y-73864284D02*
X100046087Y-73573998D01*
X100046087Y-73719141D02*
X99538087Y-73719141D01*
X99610658Y-73670760D01*
X99659039Y-73622379D01*
X99683230Y-73573998D01*
X117910754Y-95124427D02*
X118080087Y-94882522D01*
X118201039Y-95124427D02*
X118201039Y-94616427D01*
X118007516Y-94616427D01*
X117959135Y-94640618D01*
X117934944Y-94664808D01*
X117910754Y-94713189D01*
X117910754Y-94785760D01*
X117934944Y-94834141D01*
X117959135Y-94858332D01*
X118007516Y-94882522D01*
X118201039Y-94882522D01*
X117717230Y-94664808D02*
X117693039Y-94640618D01*
X117644658Y-94616427D01*
X117523706Y-94616427D01*
X117475325Y-94640618D01*
X117451135Y-94664808D01*
X117426944Y-94713189D01*
X117426944Y-94761570D01*
X117451135Y-94834141D01*
X117741420Y-95124427D01*
X117426944Y-95124427D01*
X116943135Y-95124427D02*
X117233420Y-95124427D01*
X117088278Y-95124427D02*
X117088278Y-94616427D01*
X117136658Y-94688998D01*
X117185039Y-94737379D01*
X117233420Y-94761570D01*
X116483516Y-94616427D02*
X116725420Y-94616427D01*
X116749611Y-94858332D01*
X116725420Y-94834141D01*
X116677039Y-94809951D01*
X116556087Y-94809951D01*
X116507706Y-94834141D01*
X116483516Y-94858332D01*
X116459325Y-94906713D01*
X116459325Y-95027665D01*
X116483516Y-95076046D01*
X116507706Y-95100237D01*
X116556087Y-95124427D01*
X116677039Y-95124427D01*
X116725420Y-95100237D01*
X116749611Y-95076046D01*
D15*
X81149846Y-66032618D02*
G75*
G03*
X81149846Y-66032618I-381000J0D01*
G01*
X112643278Y-119321818D02*
G75*
G03*
X112643278Y-119321818I-381000J0D01*
G01*
X105958678Y-70344382D02*
X105958678Y-70560054D01*
X106678678Y-70344382D02*
X106678678Y-70560054D01*
X96347378Y-121997476D02*
X96347378Y-121522960D01*
X97392378Y-121997476D02*
X97392378Y-121522960D01*
X122397114Y-93906018D02*
X122181442Y-93906018D01*
X122397114Y-94626018D02*
X122181442Y-94626018D01*
D16*
X117260000Y-68325000D02*
X118610000Y-68325000D01*
X128610000Y-68325000D02*
X129960000Y-68325000D01*
X117260000Y-84075000D02*
X117260000Y-68325000D01*
X118610000Y-84075000D02*
X117260000Y-84075000D01*
X129960000Y-84075000D02*
X128610000Y-84075000D01*
X129960000Y-68325000D02*
X129960000Y-84075000D01*
D15*
X81511536Y-99067118D02*
X81037020Y-99067118D01*
X81511536Y-98022118D02*
X81037020Y-98022118D01*
D16*
X109341278Y-119207618D02*
X109341278Y-119207618D01*
X109241278Y-119207618D02*
X109241278Y-119207618D01*
X109241278Y-119207618D02*
G75*
G03*
X109341278Y-119207618I50000J0D01*
G01*
X109341278Y-119207618D02*
G75*
G03*
X109241278Y-119207618I-50000J0D01*
G01*
D15*
X111768778Y-120879876D02*
X111768778Y-120405360D01*
X110723778Y-120879876D02*
X110723778Y-120405360D01*
X125777736Y-95144118D02*
X125303220Y-95144118D01*
X125777736Y-94099118D02*
X125303220Y-94099118D01*
X120711093Y-87769781D02*
X120711093Y-87295265D01*
X119666093Y-87769781D02*
X119666093Y-87295265D01*
X79313278Y-92287618D02*
X79313278Y-94972618D01*
X77393278Y-92287618D02*
X79313278Y-92287618D01*
X77393278Y-94972618D02*
X77393278Y-92287618D01*
X118547978Y-90832360D02*
X118547978Y-91306876D01*
X117502978Y-90832360D02*
X117502978Y-91306876D01*
X110193978Y-70976960D02*
X110193978Y-71451476D01*
X109148978Y-70976960D02*
X109148978Y-71451476D01*
X110926978Y-71451476D02*
X110926978Y-70976960D01*
X111971978Y-71451476D02*
X111971978Y-70976960D01*
X112501778Y-120879876D02*
X112501778Y-120405360D01*
X113546778Y-120879876D02*
X113546778Y-120405360D01*
D16*
X120480278Y-92903818D02*
X119780278Y-92903818D01*
X120480278Y-90403818D02*
X119780278Y-90403818D01*
X119780278Y-90403818D02*
X119780278Y-90653818D01*
X122780278Y-92903818D02*
X122080278Y-92903818D01*
X123180278Y-90953818D02*
X123180278Y-90953818D01*
X123180278Y-90853818D02*
X123180278Y-90853818D01*
X122780278Y-92753818D02*
X122780278Y-92903818D01*
X122780278Y-90653818D02*
X122780278Y-90403818D01*
X122780278Y-90403818D02*
X122080278Y-90403818D01*
X119780278Y-92903818D02*
X119780278Y-92653818D01*
X123180278Y-90953818D02*
G75*
G03*
X123180278Y-90853818I0J50000D01*
G01*
X123180278Y-90853818D02*
G75*
G03*
X123180278Y-90953818I0J-50000D01*
G01*
D15*
X91956278Y-91192618D02*
X91956278Y-94252618D01*
X91956278Y-103852618D02*
X91956278Y-106912618D01*
X95016278Y-91192618D02*
X91956278Y-91192618D01*
X107676278Y-103852618D02*
X107676278Y-106912618D01*
X107676278Y-106912618D02*
X104616278Y-106912618D01*
X95016278Y-106912618D02*
X91956278Y-106912618D01*
X107566278Y-91192618D02*
X104616278Y-91192618D01*
X107127078Y-70344382D02*
X107127078Y-70560054D01*
X107847078Y-70344382D02*
X107847078Y-70560054D01*
X102036978Y-70976960D02*
X102036978Y-71451476D01*
X103081978Y-70976960D02*
X103081978Y-71451476D01*
X94772578Y-121522960D02*
X94772578Y-121997476D01*
X95817578Y-121522960D02*
X95817578Y-121997476D01*
X99246278Y-109782618D02*
X97846278Y-109782618D01*
X97846278Y-109782618D02*
X97846278Y-111182618D01*
X99246278Y-111182618D02*
X99246278Y-109782618D01*
X97846278Y-111182618D02*
X99246278Y-111182618D01*
X96876114Y-89633618D02*
X96660442Y-89633618D01*
X96876114Y-88913618D02*
X96660442Y-88913618D01*
X81511536Y-94466118D02*
X81037020Y-94466118D01*
X81511536Y-95511118D02*
X81037020Y-95511118D01*
X83607278Y-117910618D02*
X86107278Y-117910618D01*
X81637278Y-116740618D02*
X81637278Y-112860618D01*
X83607278Y-111690618D02*
X86107278Y-111690618D01*
X86107278Y-117910618D02*
X86107278Y-116860618D01*
X86107278Y-116860618D02*
X87097278Y-116860618D01*
X86107278Y-111690618D02*
X86107278Y-112740618D01*
X86107278Y-108732618D02*
X87097278Y-108732618D01*
X83607278Y-109782618D02*
X86107278Y-109782618D01*
X86107278Y-103562618D02*
X86107278Y-104612618D01*
X81637278Y-108612618D02*
X81637278Y-104732618D01*
X83607278Y-103562618D02*
X86107278Y-103562618D01*
X86107278Y-109782618D02*
X86107278Y-108732618D01*
X94242778Y-121997476D02*
X94242778Y-121522960D01*
X93197778Y-121997476D02*
X93197778Y-121522960D01*
X81511536Y-96244118D02*
X81037020Y-96244118D01*
X81511536Y-97289118D02*
X81037020Y-97289118D01*
X104809178Y-71451476D02*
X104809178Y-70976960D01*
X103764178Y-71451476D02*
X103764178Y-70976960D01*
X80506042Y-68060218D02*
X80721714Y-68060218D01*
X80506042Y-68780218D02*
X80721714Y-68780218D01*
X122153778Y-87783676D02*
X122153778Y-87309160D01*
X123198778Y-87783676D02*
X123198778Y-87309160D01*
D16*
X118866278Y-122162618D02*
X118866278Y-122162618D01*
X118866278Y-122062618D02*
X118866278Y-122062618D01*
D17*
X115466278Y-115562618D02*
X115466278Y-115562618D01*
X122266278Y-115562618D02*
X122266278Y-115562618D01*
X115466278Y-115562618D02*
G75*
G03*
X122266278Y-115562618I3400000J0D01*
G01*
X122266278Y-115562618D02*
G75*
G03*
X115466278Y-115562618I-3400000J0D01*
G01*
D16*
X118866278Y-122162618D02*
G75*
G03*
X118866278Y-122062618I0J50000D01*
G01*
X118866278Y-122062618D02*
G75*
G03*
X118866278Y-122162618I0J-50000D01*
G01*
D15*
X120102042Y-94626018D02*
X120317714Y-94626018D01*
X120102042Y-93906018D02*
X120317714Y-93906018D01*
X77393278Y-99467618D02*
X77393278Y-96782618D01*
X79313278Y-99467618D02*
X77393278Y-99467618D01*
X79313278Y-96782618D02*
X79313278Y-99467618D01*
X116686278Y-101433982D02*
X116686278Y-101649654D01*
X115966278Y-101433982D02*
X115966278Y-101649654D01*
X102036278Y-109532618D02*
X100136278Y-109532618D01*
X102036278Y-111432618D02*
X102036278Y-109532618D01*
X100136278Y-109532618D02*
X100136278Y-111432618D01*
X100136278Y-111432618D02*
X102036278Y-111432618D01*
X118723846Y-104632618D02*
X120323846Y-104632618D01*
X122973846Y-97532618D02*
X118723846Y-97532618D01*
X120323846Y-99832618D02*
X117433846Y-99832618D01*
X120323846Y-104632618D02*
X120323846Y-103352618D01*
X120323846Y-98552618D02*
X120323846Y-99832618D01*
X118723846Y-98552618D02*
X120323846Y-98552618D01*
X126543846Y-99252618D02*
X126543846Y-103932618D01*
X118723846Y-105652618D02*
X118723846Y-104632618D01*
X122973846Y-105652618D02*
X118723846Y-105652618D01*
X118723846Y-97532618D02*
X118723846Y-98552618D01*
X79659057Y-88763618D02*
X79333499Y-88763618D01*
X79659057Y-89783618D02*
X79333499Y-89783618D01*
X86709878Y-88755458D02*
X86709878Y-89131378D01*
X82544278Y-88755458D02*
X82544278Y-89131378D01*
X100326278Y-69679839D02*
X100326278Y-70005397D01*
X99306278Y-69679839D02*
X99306278Y-70005397D01*
X117105020Y-93987118D02*
X117579536Y-93987118D01*
X117105020Y-92942118D02*
X117579536Y-92942118D01*
G36*
X130492399Y-108597620D02*
G01*
X130538892Y-108651276D01*
X130550278Y-108703618D01*
X130550278Y-122421618D01*
X130530276Y-122489739D01*
X130476620Y-122536232D01*
X130424278Y-122547618D01*
X123818278Y-122547618D01*
X123750157Y-122527616D01*
X123703664Y-122473960D01*
X123692278Y-122421618D01*
X123692278Y-108703618D01*
X123712280Y-108635497D01*
X123765936Y-108589004D01*
X123818278Y-108577618D01*
X130424278Y-108577618D01*
X130492399Y-108597620D01*
G37*
M02*
