G04 #@! TF.GenerationSoftware,KiCad,Pcbnew,(6.0.7)*
G04 #@! TF.CreationDate,2023-03-13T09:14:11-05:00*
G04 #@! TF.ProjectId,SapphineMinimal,53617070-6869-46e6-954d-696e696d616c,rev?*
G04 #@! TF.SameCoordinates,Original*
G04 #@! TF.FileFunction,Other,User*
%FSLAX46Y46*%
G04 Gerber Fmt 4.6, Leading zero omitted, Abs format (unit mm)*
G04 Created by KiCad (PCBNEW (6.0.7)) date 2023-03-13 09:14:11*
%MOMM*%
%LPD*%
G01*
G04 APERTURE LIST*
%ADD10C,0.050000*%
%ADD11C,0.152400*%
%ADD12C,0.010000*%
%ADD13C,0.100000*%
%ADD14C,0.120000*%
G04 APERTURE END LIST*
D10*
X85492000Y-121920000D02*
G75*
G03*
X85492000Y-121920000I-3450000J0D01*
G01*
X85492000Y-83820000D02*
G75*
G03*
X85492000Y-83820000I-3450000J0D01*
G01*
X131212000Y-91440000D02*
G75*
G03*
X131212000Y-91440000I-3450000J0D01*
G01*
X122251278Y-77367618D02*
X122251278Y-78827618D01*
X119291278Y-78827618D02*
X119291278Y-77367618D01*
X122251278Y-78827618D02*
X119291278Y-78827618D01*
X119291278Y-77367618D02*
X122251278Y-77367618D01*
X85066426Y-101380992D02*
X85066426Y-102840992D01*
X85066426Y-102840992D02*
X82106426Y-102840992D01*
X82106426Y-101380992D02*
X85066426Y-101380992D01*
X82106426Y-102840992D02*
X82106426Y-101380992D01*
X78647946Y-80256618D02*
X84159746Y-80256618D01*
X84159746Y-80256618D02*
X84159746Y-66540618D01*
X84159746Y-66540618D02*
X78647946Y-66540618D01*
X78647946Y-66540618D02*
X78647946Y-80256618D01*
X96139878Y-120280218D02*
X97599878Y-120280218D01*
X97599878Y-123240218D02*
X96139878Y-123240218D01*
X96139878Y-123240218D02*
X96139878Y-120280218D01*
X97599878Y-120280218D02*
X97599878Y-123240218D01*
X122251278Y-71652618D02*
X122251278Y-73112618D01*
X122251278Y-73112618D02*
X119291278Y-73112618D01*
X119291278Y-71652618D02*
X122251278Y-71652618D01*
X119291278Y-73112618D02*
X119291278Y-71652618D01*
X87326278Y-74827618D02*
X87326278Y-76287618D01*
X84366278Y-74827618D02*
X87326278Y-74827618D01*
X87326278Y-76287618D02*
X84366278Y-76287618D01*
X84366278Y-76287618D02*
X84366278Y-74827618D01*
X90120278Y-79399618D02*
X90120278Y-80859618D01*
X90120278Y-80859618D02*
X87160278Y-80859618D01*
X87160278Y-80859618D02*
X87160278Y-79399618D01*
X87160278Y-79399618D02*
X90120278Y-79399618D01*
X127673278Y-73112618D02*
X127673278Y-71652618D01*
X130633278Y-71652618D02*
X130633278Y-73112618D01*
X130633278Y-73112618D02*
X127673278Y-73112618D01*
X127673278Y-71652618D02*
X130633278Y-71652618D01*
X89121078Y-121241618D02*
X85721078Y-121241618D01*
X89121078Y-119281618D02*
X89121078Y-121241618D01*
X85721078Y-119281618D02*
X89121078Y-119281618D01*
X85721078Y-121241618D02*
X85721078Y-119281618D01*
X94565078Y-123240218D02*
X94565078Y-120280218D01*
X96025078Y-120280218D02*
X96025078Y-123240218D01*
X94565078Y-120280218D02*
X96025078Y-120280218D01*
X96025078Y-123240218D02*
X94565078Y-123240218D01*
D11*
X77899146Y-106691014D02*
X80898546Y-106691014D01*
X80898546Y-106542015D02*
X81100646Y-106542015D01*
X77899146Y-106542015D02*
X77899146Y-106691014D01*
X80898546Y-101335015D02*
X80898546Y-101186016D01*
X80898546Y-101186016D02*
X77899146Y-101186016D01*
X77899146Y-101335015D02*
X77697046Y-101335015D01*
X80898546Y-106691014D02*
X80898546Y-106542015D01*
X77697046Y-105043415D02*
X77697046Y-106542015D01*
X81100646Y-101335015D02*
X80898546Y-101335015D01*
X77697046Y-106542015D02*
X77899146Y-106542015D01*
X77036646Y-105043415D02*
X77697046Y-105043415D01*
X77036646Y-102833615D02*
X77036646Y-105043415D01*
X77697046Y-101335015D02*
X77697046Y-102833615D01*
X77899146Y-101186016D02*
X77899146Y-101335015D01*
X77697046Y-102833615D02*
X77036646Y-102833615D01*
X81100646Y-106542015D02*
X81100646Y-101335015D01*
D10*
X85737878Y-122896618D02*
X85737878Y-121436618D01*
X85737878Y-121436618D02*
X88697878Y-121436618D01*
X88697878Y-122896618D02*
X85737878Y-122896618D01*
X88697878Y-121436618D02*
X88697878Y-122896618D01*
X122251278Y-79272618D02*
X122251278Y-80732618D01*
X119291278Y-79272618D02*
X122251278Y-79272618D01*
X119291278Y-80732618D02*
X119291278Y-79272618D01*
X122251278Y-80732618D02*
X119291278Y-80732618D01*
X124156278Y-125817618D02*
X121196278Y-125817618D01*
X124156278Y-124357618D02*
X124156278Y-125817618D01*
X121196278Y-125817618D02*
X121196278Y-124357618D01*
X121196278Y-124357618D02*
X124156278Y-124357618D01*
X91787278Y-110477618D02*
X89827278Y-110477618D01*
X89827278Y-107077618D02*
X91787278Y-107077618D01*
X91787278Y-107077618D02*
X91787278Y-110477618D01*
X89827278Y-110477618D02*
X89827278Y-107077618D01*
X78569878Y-67251818D02*
G75*
G03*
X78569878Y-67251818I-750000J0D01*
G01*
X124560278Y-70652618D02*
X126380278Y-70652618D01*
X126380278Y-71572618D02*
X124560278Y-71572618D01*
X126380278Y-70652618D02*
X126380278Y-71572618D01*
X124560278Y-71572618D02*
X124560278Y-70652618D01*
D11*
X130804278Y-117200918D02*
X130804278Y-117874018D01*
X130804278Y-117874018D02*
X123438278Y-117874018D01*
X123438278Y-111384318D02*
X123438278Y-110711218D01*
X130804278Y-111384318D02*
X130804278Y-111384318D01*
X130804278Y-117200918D02*
X130804278Y-117200918D01*
X123438278Y-117874018D02*
X123438278Y-117200918D01*
X123438278Y-111384318D02*
X123438278Y-111384318D01*
X130804278Y-110711218D02*
X130804278Y-111384318D01*
X130804278Y-111384318D02*
X130804278Y-117200918D01*
X123438278Y-110711218D02*
X130804278Y-110711218D01*
X123438278Y-117200918D02*
X123438278Y-111384318D01*
X123438278Y-117200918D02*
X123438278Y-117200918D01*
D10*
X90086278Y-91777618D02*
X86686278Y-91777618D01*
X86686278Y-89817618D02*
X90086278Y-89817618D01*
X86686278Y-91777618D02*
X86686278Y-89817618D01*
X90086278Y-89817618D02*
X90086278Y-91777618D01*
X94823278Y-113370618D02*
X93903278Y-113370618D01*
X93903278Y-113370618D02*
X93903278Y-111550618D01*
X94823278Y-111550618D02*
X94823278Y-113370618D01*
X93903278Y-111550618D02*
X94823278Y-111550618D01*
X130506278Y-108037618D02*
X127546278Y-108037618D01*
X127546278Y-108037618D02*
X127546278Y-106577618D01*
X127546278Y-106577618D02*
X130506278Y-106577618D01*
X130506278Y-106577618D02*
X130506278Y-108037618D01*
X98038278Y-117200918D02*
X98038278Y-122712718D01*
X111754278Y-117200918D02*
X98038278Y-117200918D01*
X98038278Y-122712718D02*
X111754278Y-122712718D01*
X111754278Y-122712718D02*
X111754278Y-117200918D01*
X126239712Y-81367618D02*
X123279712Y-81367618D01*
X123279712Y-79907618D02*
X126239712Y-79907618D01*
X123279712Y-81367618D02*
X123279712Y-79907618D01*
X126239712Y-79907618D02*
X126239712Y-81367618D01*
X94122278Y-80970618D02*
X92302278Y-80970618D01*
X94122278Y-80050618D02*
X94122278Y-80970618D01*
X92302278Y-80970618D02*
X92302278Y-80050618D01*
X92302278Y-80050618D02*
X94122278Y-80050618D01*
X118441278Y-75462618D02*
X118441278Y-76922618D01*
X115481278Y-75462618D02*
X118441278Y-75462618D01*
X115481278Y-76922618D02*
X115481278Y-75462618D01*
X118441278Y-76922618D02*
X115481278Y-76922618D01*
X122886278Y-119277618D02*
X122886278Y-120737618D01*
X119926278Y-120737618D02*
X119926278Y-119277618D01*
X119926278Y-119277618D02*
X122886278Y-119277618D01*
X122886278Y-120737618D02*
X119926278Y-120737618D01*
X126713603Y-81703914D02*
X126713603Y-82623914D01*
X124893603Y-81703914D02*
X126713603Y-81703914D01*
X126713603Y-82623914D02*
X124893603Y-82623914D01*
X124893603Y-82623914D02*
X124893603Y-81703914D01*
X96122478Y-110625018D02*
X97582478Y-110625018D01*
X97582478Y-113585018D02*
X96122478Y-113585018D01*
X96122478Y-113585018D02*
X96122478Y-110625018D01*
X97582478Y-110625018D02*
X97582478Y-113585018D01*
X130091278Y-79390185D02*
X130091278Y-81350185D01*
X130091278Y-81350185D02*
X126691278Y-81350185D01*
X126691278Y-81350185D02*
X126691278Y-79390185D01*
X126691278Y-79390185D02*
X130091278Y-79390185D01*
X88202000Y-66122500D02*
X88202000Y-72722500D01*
X96602000Y-66122500D02*
X88202000Y-66122500D01*
X88202000Y-72722500D02*
X96602000Y-72722500D01*
X96602000Y-72722500D02*
X96602000Y-66122500D01*
X90120278Y-79081618D02*
X87160278Y-79081618D01*
X87160278Y-79081618D02*
X87160278Y-77621618D01*
X87160278Y-77621618D02*
X90120278Y-77621618D01*
X90120278Y-77621618D02*
X90120278Y-79081618D01*
X115196840Y-102017618D02*
X115196840Y-104977618D01*
X113736840Y-104977618D02*
X113736840Y-102017618D01*
X113736840Y-102017618D02*
X115196840Y-102017618D01*
X115196840Y-104977618D02*
X113736840Y-104977618D01*
X122251278Y-82637618D02*
X119291278Y-82637618D01*
X119291278Y-81177618D02*
X122251278Y-81177618D01*
X119291278Y-82637618D02*
X119291278Y-81177618D01*
X122251278Y-81177618D02*
X122251278Y-82637618D01*
X131046278Y-67302618D02*
G75*
G03*
X131046278Y-67302618I-750000J0D01*
G01*
X122886278Y-115594618D02*
X122886278Y-117054618D01*
X119926278Y-117054618D02*
X119926278Y-115594618D01*
X122886278Y-117054618D02*
X119926278Y-117054618D01*
X119926278Y-115594618D02*
X122886278Y-115594618D01*
X92113278Y-107077618D02*
X94073278Y-107077618D01*
X92113278Y-110477618D02*
X92113278Y-107077618D01*
X94073278Y-107077618D02*
X94073278Y-110477618D01*
X94073278Y-110477618D02*
X92113278Y-110477618D01*
X94626278Y-81112618D02*
X87226278Y-81112618D01*
X87226278Y-86512618D02*
X94626278Y-86512618D01*
X94626278Y-86512618D02*
X94626278Y-81112618D01*
X87226278Y-81112618D02*
X87226278Y-86512618D01*
X116276840Y-111705170D02*
X117736840Y-111705170D01*
X117736840Y-111705170D02*
X117736840Y-114665170D01*
X116276840Y-114665170D02*
X116276840Y-111705170D01*
X117736840Y-114665170D02*
X116276840Y-114665170D01*
X89892722Y-98882068D02*
X89892722Y-100342068D01*
X89892722Y-100342068D02*
X86932722Y-100342068D01*
X86932722Y-98882068D02*
X89892722Y-98882068D01*
X86932722Y-100342068D02*
X86932722Y-98882068D01*
X102566278Y-90067618D02*
X102566278Y-91527618D01*
X99606278Y-90067618D02*
X102566278Y-90067618D01*
X99606278Y-91527618D02*
X99606278Y-90067618D01*
X102566278Y-91527618D02*
X99606278Y-91527618D01*
X119291278Y-69747618D02*
X122251278Y-69747618D01*
X119291278Y-71207618D02*
X119291278Y-69747618D01*
X122251278Y-71207618D02*
X119291278Y-71207618D01*
X122251278Y-69747618D02*
X122251278Y-71207618D01*
X87115000Y-123295000D02*
X87115000Y-126895000D01*
X87115000Y-126895000D02*
X121165000Y-126895000D01*
X121165000Y-126895000D02*
X121165000Y-123295000D01*
X121165000Y-123295000D02*
X87115000Y-123295000D01*
X127062801Y-106557356D02*
X127062801Y-108017356D01*
X124102801Y-108017356D02*
X124102801Y-106557356D01*
X124102801Y-106557356D02*
X127062801Y-106557356D01*
X127062801Y-108017356D02*
X124102801Y-108017356D01*
X93671278Y-76537618D02*
X93671278Y-74577618D01*
X93671278Y-74577618D02*
X97071278Y-74577618D01*
X97071278Y-76537618D02*
X93671278Y-76537618D01*
X97071278Y-74577618D02*
X97071278Y-76537618D01*
X83516278Y-98322618D02*
X83516278Y-99782618D01*
X83516278Y-99782618D02*
X80556278Y-99782618D01*
X80556278Y-98322618D02*
X83516278Y-98322618D01*
X80556278Y-99782618D02*
X80556278Y-98322618D01*
X116702040Y-119486918D02*
X116702040Y-121188718D01*
X117413240Y-121899918D02*
X112079240Y-121899918D01*
X117413240Y-118775718D02*
X117413240Y-121899918D01*
X112079240Y-121899918D02*
X112079240Y-118775718D01*
X112790440Y-119486918D02*
X116702040Y-119486918D01*
X112079240Y-118775718D02*
X117413240Y-118775718D01*
X116702040Y-121188718D02*
X112790440Y-121188718D01*
X112790440Y-121188718D02*
X112790440Y-119486918D01*
X80556278Y-96417618D02*
X83516278Y-96417618D01*
X80556278Y-97877618D02*
X80556278Y-96417618D01*
X83516278Y-96417618D02*
X83516278Y-97877618D01*
X83516278Y-97877618D02*
X80556278Y-97877618D01*
X115561840Y-115287618D02*
X115561840Y-117107618D01*
X114641840Y-117107618D02*
X114641840Y-115287618D01*
X115561840Y-117107618D02*
X114641840Y-117107618D01*
X114641840Y-115287618D02*
X115561840Y-115287618D01*
X78976278Y-125722618D02*
G75*
G03*
X78976278Y-125722618I-750000J0D01*
G01*
X128186278Y-126067618D02*
X124786278Y-126067618D01*
X124786278Y-124107618D02*
X128186278Y-124107618D01*
X128186278Y-124107618D02*
X128186278Y-126067618D01*
X124786278Y-126067618D02*
X124786278Y-124107618D01*
X94856278Y-81717618D02*
X94856278Y-77017618D01*
X94856278Y-81717618D02*
X97156278Y-81717618D01*
X94856278Y-77017618D02*
X97156278Y-77017618D01*
X97156278Y-77017618D02*
X97156278Y-81717618D01*
X84366278Y-72922618D02*
X87326278Y-72922618D01*
X84366278Y-74382618D02*
X84366278Y-72922618D01*
X87326278Y-72922618D02*
X87326278Y-74382618D01*
X87326278Y-74382618D02*
X84366278Y-74382618D01*
X126915278Y-76679618D02*
X127835278Y-76679618D01*
X127835278Y-78499618D02*
X126915278Y-78499618D01*
X126915278Y-78499618D02*
X126915278Y-76679618D01*
X127835278Y-76679618D02*
X127835278Y-78499618D01*
X123713846Y-95197618D02*
X123713846Y-99097618D01*
X123713846Y-99097618D02*
X117813846Y-99097618D01*
X117813846Y-95197618D02*
X123713846Y-95197618D01*
X117813846Y-99097618D02*
X117813846Y-95197618D01*
X115481278Y-94702618D02*
X115481278Y-93242618D01*
X118441278Y-93242618D02*
X118441278Y-94702618D01*
X115481278Y-93242618D02*
X118441278Y-93242618D01*
X118441278Y-94702618D02*
X115481278Y-94702618D01*
X80556278Y-90702618D02*
X83516278Y-90702618D01*
X83516278Y-90702618D02*
X83516278Y-92162618D01*
X83516278Y-92162618D02*
X80556278Y-92162618D01*
X80556278Y-92162618D02*
X80556278Y-90702618D01*
X118441278Y-86892618D02*
X118441278Y-88352618D01*
X115481278Y-86892618D02*
X118441278Y-86892618D01*
X118441278Y-88352618D02*
X115481278Y-88352618D01*
X115481278Y-88352618D02*
X115481278Y-86892618D01*
X95978278Y-117208618D02*
X94018278Y-117208618D01*
X94018278Y-117208618D02*
X94018278Y-113808618D01*
X95978278Y-113808618D02*
X95978278Y-117208618D01*
X94018278Y-113808618D02*
X95978278Y-113808618D01*
X93142278Y-114528618D02*
X93142278Y-116488618D01*
X93142278Y-116488618D02*
X89742278Y-116488618D01*
X89742278Y-114528618D02*
X93142278Y-114528618D01*
X89742278Y-116488618D02*
X89742278Y-114528618D01*
X95646278Y-74112618D02*
X93826278Y-74112618D01*
X93826278Y-74112618D02*
X93826278Y-73192618D01*
X93826278Y-73192618D02*
X95646278Y-73192618D01*
X95646278Y-73192618D02*
X95646278Y-74112618D01*
X86406278Y-114270618D02*
X89366278Y-114270618D01*
X89366278Y-114270618D02*
X89366278Y-115730618D01*
X86406278Y-115730618D02*
X86406278Y-114270618D01*
X89366278Y-115730618D02*
X86406278Y-115730618D01*
X113541840Y-101797618D02*
X113541840Y-105197618D01*
X111581840Y-101797618D02*
X113541840Y-101797618D01*
X113541840Y-105197618D02*
X111581840Y-105197618D01*
X111581840Y-105197618D02*
X111581840Y-101797618D01*
X92526278Y-76957618D02*
X89326278Y-76957618D01*
X92526278Y-76957618D02*
X92526278Y-74157618D01*
X89326278Y-74157618D02*
X89326278Y-76957618D01*
X92526278Y-74157618D02*
X89326278Y-74157618D01*
X105499408Y-111760000D02*
X105499408Y-114910000D01*
X114399408Y-108610000D02*
X114399408Y-108010000D01*
X107499408Y-108010000D02*
X107499408Y-106610000D01*
X107499408Y-115510000D02*
X107499408Y-116910000D01*
X113799408Y-108010000D02*
X113799408Y-106610000D01*
X105499408Y-114910000D02*
X106899408Y-114910000D01*
X114399408Y-115510000D02*
X113799408Y-115510000D01*
X114399408Y-108010000D02*
X113799408Y-108010000D01*
X107499408Y-116910000D02*
X110649408Y-116910000D01*
X113799408Y-115510000D02*
X113799408Y-116910000D01*
X114399408Y-114910000D02*
X114399408Y-115510000D01*
X106899408Y-115510000D02*
X107499408Y-115510000D01*
X105499408Y-111760000D02*
X105499408Y-108610000D01*
X106899408Y-108010000D02*
X107499408Y-108010000D01*
X115799408Y-111760000D02*
X115799408Y-114910000D01*
X113799408Y-116910000D02*
X110649408Y-116910000D01*
X106899408Y-114910000D02*
X106899408Y-115510000D01*
X106899408Y-108610000D02*
X106899408Y-108010000D01*
X107499408Y-106610000D02*
X110649408Y-106610000D01*
X115799408Y-114910000D02*
X114399408Y-114910000D01*
X115799408Y-111760000D02*
X115799408Y-108610000D01*
X105499408Y-108610000D02*
X106899408Y-108610000D01*
X113799408Y-106610000D02*
X110649408Y-106610000D01*
X115799408Y-108610000D02*
X114399408Y-108610000D01*
X130633278Y-73557618D02*
X130633278Y-75017618D01*
X127673278Y-75017618D02*
X127673278Y-73557618D01*
X130633278Y-75017618D02*
X127673278Y-75017618D01*
X127673278Y-73557618D02*
X130633278Y-73557618D01*
X104591508Y-111633000D02*
X104591508Y-116967000D01*
X101467308Y-111633000D02*
X104591508Y-111633000D01*
X103880308Y-116255800D02*
X102178508Y-116255800D01*
X102178508Y-112344200D02*
X103880308Y-112344200D01*
X103880308Y-112344200D02*
X103880308Y-116255800D01*
X101467308Y-116967000D02*
X101467308Y-111633000D01*
X102178508Y-116255800D02*
X102178508Y-112344200D01*
X104591508Y-116967000D02*
X101467308Y-116967000D01*
X86756278Y-68397618D02*
X84936278Y-68397618D01*
X86756278Y-67477618D02*
X86756278Y-68397618D01*
X84936278Y-67477618D02*
X86756278Y-67477618D01*
X84936278Y-68397618D02*
X84936278Y-67477618D01*
X98045000Y-68335000D02*
X98045000Y-84085000D01*
X98045000Y-84085000D02*
X114045000Y-84085000D01*
X114045000Y-84085000D02*
X114045000Y-68335000D01*
X114045000Y-68335000D02*
X98045000Y-68335000D01*
G36*
X113515000Y-81018690D02*
G01*
X113129720Y-81018690D01*
X113129720Y-78610000D01*
X113515000Y-78610000D01*
X113515000Y-81018690D01*
G37*
D12*
X113515000Y-81018690D02*
X113129720Y-81018690D01*
X113129720Y-78610000D01*
X113515000Y-78610000D01*
X113515000Y-81018690D01*
D10*
X79176278Y-88482618D02*
X79176278Y-91842618D01*
X79176278Y-91842618D02*
X77276278Y-91842618D01*
X77276278Y-88482618D02*
X79176278Y-88482618D01*
X77276278Y-91842618D02*
X77276278Y-88482618D01*
X126133846Y-105072618D02*
X126133846Y-95572618D01*
X130633846Y-105072618D02*
X126133846Y-105072618D01*
X130633846Y-95572618D02*
X130633846Y-105072618D01*
X126133846Y-95572618D02*
X130633846Y-95572618D01*
X95276278Y-82967618D02*
X96736278Y-82967618D01*
X96736278Y-85927618D02*
X95276278Y-85927618D01*
X96736278Y-82967618D02*
X96736278Y-85927618D01*
X95276278Y-85927618D02*
X95276278Y-82967618D01*
X86406278Y-113952618D02*
X86406278Y-112492618D01*
X89366278Y-113952618D02*
X86406278Y-113952618D01*
X89366278Y-112492618D02*
X89366278Y-113952618D01*
X86406278Y-112492618D02*
X89366278Y-112492618D01*
X92727878Y-121241618D02*
X89327878Y-121241618D01*
X89327878Y-121241618D02*
X89327878Y-119281618D01*
X89327878Y-119281618D02*
X92727878Y-119281618D01*
X92727878Y-119281618D02*
X92727878Y-121241618D01*
X93676278Y-90067618D02*
X93676278Y-91527618D01*
X90716278Y-91527618D02*
X90716278Y-90067618D01*
X93676278Y-91527618D02*
X90716278Y-91527618D01*
X90716278Y-90067618D02*
X93676278Y-90067618D01*
X112201840Y-105577618D02*
X112201840Y-106497618D01*
X112201840Y-106497618D02*
X110381840Y-106497618D01*
X110381840Y-106497618D02*
X110381840Y-105577618D01*
X110381840Y-105577618D02*
X112201840Y-105577618D01*
X129301278Y-82623914D02*
X127481278Y-82623914D01*
X127481278Y-82623914D02*
X127481278Y-81703914D01*
X127481278Y-81703914D02*
X129301278Y-81703914D01*
X129301278Y-81703914D02*
X129301278Y-82623914D01*
X128931278Y-126567618D02*
X128931278Y-123607618D01*
X130391278Y-126567618D02*
X128931278Y-126567618D01*
X128931278Y-123607618D02*
X130391278Y-123607618D01*
X130391278Y-123607618D02*
X130391278Y-126567618D01*
X119291278Y-88352618D02*
X119291278Y-86892618D01*
X122251278Y-86892618D02*
X122251278Y-88352618D01*
X119291278Y-86892618D02*
X122251278Y-86892618D01*
X122251278Y-88352618D02*
X119291278Y-88352618D01*
X122251278Y-73557618D02*
X122251278Y-75017618D01*
X119291278Y-73557618D02*
X122251278Y-73557618D01*
X119291278Y-75017618D02*
X119291278Y-73557618D01*
X122251278Y-75017618D02*
X119291278Y-75017618D01*
X123756278Y-102107618D02*
X119056278Y-102107618D01*
X119056278Y-99807618D02*
X123756278Y-99807618D01*
X123756278Y-102107618D02*
X123756278Y-99807618D01*
X119056278Y-102107618D02*
X119056278Y-99807618D01*
X119291278Y-90257618D02*
X119291278Y-88797618D01*
X122251278Y-90257618D02*
X119291278Y-90257618D01*
X122251278Y-88797618D02*
X122251278Y-90257618D01*
X119291278Y-88797618D02*
X122251278Y-88797618D01*
X118566840Y-113452618D02*
X118566840Y-110052618D01*
X120526840Y-113452618D02*
X118566840Y-113452618D01*
X118566840Y-110052618D02*
X120526840Y-110052618D01*
X120526840Y-110052618D02*
X120526840Y-113452618D01*
X110186278Y-101361561D02*
X107226278Y-101361561D01*
X110186278Y-99901561D02*
X110186278Y-101361561D01*
X107226278Y-99901561D02*
X110186278Y-99901561D01*
X107226278Y-101361561D02*
X107226278Y-99901561D01*
X79176278Y-96102618D02*
X79176278Y-99462618D01*
X77276278Y-99462618D02*
X77276278Y-96102618D01*
X77276278Y-96102618D02*
X79176278Y-96102618D01*
X79176278Y-99462618D02*
X77276278Y-99462618D01*
X115361278Y-89397618D02*
X118561278Y-89397618D01*
X118561278Y-92197618D02*
X118561278Y-89397618D01*
X115361278Y-92197618D02*
X118561278Y-92197618D01*
X115361278Y-89397618D02*
X115361278Y-92197618D01*
X98756278Y-91527618D02*
X95796278Y-91527618D01*
X98756278Y-90067618D02*
X98756278Y-91527618D01*
X95796278Y-91527618D02*
X95796278Y-90067618D01*
X95796278Y-90067618D02*
X98756278Y-90067618D01*
X122251278Y-76922618D02*
X119291278Y-76922618D01*
X119291278Y-76922618D02*
X119291278Y-75462618D01*
X119291278Y-75462618D02*
X122251278Y-75462618D01*
X122251278Y-75462618D02*
X122251278Y-76922618D01*
X89866278Y-95972618D02*
X86906278Y-95972618D01*
X86906278Y-94512618D02*
X89866278Y-94512618D01*
X89866278Y-94512618D02*
X89866278Y-95972618D01*
X86906278Y-95972618D02*
X86906278Y-94512618D01*
X79176278Y-95652618D02*
X77276278Y-95652618D01*
X79176278Y-92292618D02*
X79176278Y-95652618D01*
X77276278Y-95652618D02*
X77276278Y-92292618D01*
X77276278Y-92292618D02*
X79176278Y-92292618D01*
X84366278Y-69112618D02*
X87326278Y-69112618D01*
X84366278Y-70572618D02*
X84366278Y-69112618D01*
X87326278Y-69112618D02*
X87326278Y-70572618D01*
X87326278Y-70572618D02*
X84366278Y-70572618D01*
X121311278Y-124027618D02*
X121311278Y-121067618D01*
X122771278Y-121067618D02*
X122771278Y-124027618D01*
X121311278Y-121067618D02*
X122771278Y-121067618D01*
X122771278Y-124027618D02*
X121311278Y-124027618D01*
X131261278Y-118342618D02*
X131261278Y-122942618D01*
X131261278Y-122942618D02*
X128061278Y-122942618D01*
X128061278Y-118342618D02*
X131261278Y-118342618D01*
X128061278Y-122942618D02*
X128061278Y-118342618D01*
X92990278Y-120280218D02*
X94450278Y-120280218D01*
X92990278Y-123240218D02*
X92990278Y-120280218D01*
X94450278Y-120280218D02*
X94450278Y-123240218D01*
X94450278Y-123240218D02*
X92990278Y-123240218D01*
X127673278Y-71207618D02*
X127673278Y-69747618D01*
X130633278Y-71207618D02*
X127673278Y-71207618D01*
X130633278Y-69747618D02*
X130633278Y-71207618D01*
X127673278Y-69747618D02*
X130633278Y-69747618D01*
X90711278Y-92128618D02*
X90711278Y-102928618D01*
X90711278Y-102928618D02*
X102571278Y-102928618D01*
X102571278Y-102928618D02*
X102571278Y-92128618D01*
X102571278Y-92128618D02*
X90711278Y-92128618D01*
X115481278Y-73557618D02*
X118441278Y-73557618D01*
X118441278Y-73557618D02*
X118441278Y-75017618D01*
X118441278Y-75017618D02*
X115481278Y-75017618D01*
X115481278Y-75017618D02*
X115481278Y-73557618D01*
X89366278Y-110460618D02*
X89366278Y-111920618D01*
X86406278Y-110460618D02*
X89366278Y-110460618D01*
X86406278Y-111920618D02*
X86406278Y-110460618D01*
X89366278Y-111920618D02*
X86406278Y-111920618D01*
X90270278Y-122626618D02*
X90270278Y-121706618D01*
X92090278Y-121706618D02*
X92090278Y-122626618D01*
X92090278Y-122626618D02*
X90270278Y-122626618D01*
X90270278Y-121706618D02*
X92090278Y-121706618D01*
X117851840Y-105307618D02*
X117851840Y-106767618D01*
X114891840Y-105307618D02*
X117851840Y-105307618D01*
X114891840Y-106767618D02*
X114891840Y-105307618D01*
X117851840Y-106767618D02*
X114891840Y-106767618D01*
X120752739Y-108017356D02*
X120752739Y-106557356D01*
X120752739Y-106557356D02*
X123712739Y-106557356D01*
X123712739Y-106557356D02*
X123712739Y-108017356D01*
X123712739Y-108017356D02*
X120752739Y-108017356D01*
X123096278Y-122762618D02*
X127336278Y-122762618D01*
X127336278Y-118522618D02*
X123096278Y-118522618D01*
X127336278Y-122762618D02*
X127336278Y-118522618D01*
X123096278Y-118522618D02*
X123096278Y-122762618D01*
X80556278Y-94262058D02*
X83516278Y-94262058D01*
X83516278Y-95722058D02*
X80556278Y-95722058D01*
X80556278Y-95722058D02*
X80556278Y-94262058D01*
X83516278Y-94262058D02*
X83516278Y-95722058D01*
X126426278Y-76252618D02*
X126426278Y-78672618D01*
X124006278Y-78672618D02*
X124006278Y-76252618D01*
X124006278Y-76252618D02*
X126426278Y-76252618D01*
X126426278Y-78672618D02*
X124006278Y-78672618D01*
X119456278Y-94527618D02*
X119456278Y-90877618D01*
X123356278Y-90877618D02*
X119456278Y-90877618D01*
X123356278Y-94527618D02*
X119456278Y-94527618D01*
X123356278Y-90877618D02*
X123356278Y-94527618D01*
D13*
X93596278Y-110787618D02*
X93596278Y-114387618D01*
X89796278Y-110787618D02*
X93596278Y-110787618D01*
X89796278Y-114387618D02*
X89796278Y-110787618D01*
X93596278Y-114387618D02*
X89796278Y-114387618D01*
D10*
X116318240Y-111341818D02*
X116318240Y-109521818D01*
X117238240Y-109521818D02*
X117238240Y-111341818D01*
X117238240Y-111341818D02*
X116318240Y-111341818D01*
X116318240Y-109521818D02*
X117238240Y-109521818D01*
D14*
X126597278Y-74525618D02*
X124089278Y-74525618D01*
D10*
X124714278Y-72017618D02*
X124714278Y-72017618D01*
D14*
X124089278Y-72017618D02*
X124089278Y-74525618D01*
X124089278Y-72017618D02*
X126597278Y-72017618D01*
X126597278Y-72017618D02*
X126597278Y-74525618D01*
D10*
X124714278Y-72017618D02*
X124714278Y-72017618D01*
X86906278Y-98512618D02*
X86906278Y-97052618D01*
X89866278Y-98512618D02*
X86906278Y-98512618D01*
X89866278Y-97052618D02*
X89866278Y-98512618D01*
X86906278Y-97052618D02*
X89866278Y-97052618D01*
D11*
X77899146Y-113870117D02*
X80898546Y-113870117D01*
X77899146Y-108514118D02*
X77697046Y-108514118D01*
X77036646Y-110012718D02*
X77036646Y-112222518D01*
X77697046Y-112222518D02*
X77697046Y-113721118D01*
X77899146Y-108365119D02*
X77899146Y-108514118D01*
X81100646Y-113721118D02*
X81100646Y-108514118D01*
X77899146Y-113721118D02*
X77899146Y-113870117D01*
X81100646Y-108514118D02*
X80898546Y-108514118D01*
X77697046Y-113721118D02*
X77899146Y-113721118D01*
X77697046Y-108514118D02*
X77697046Y-110012718D01*
X80898546Y-113721118D02*
X81100646Y-113721118D01*
X80898546Y-113870117D02*
X80898546Y-113721118D01*
X77697046Y-110012718D02*
X77036646Y-110012718D01*
X80898546Y-108514118D02*
X80898546Y-108365119D01*
X77036646Y-112222518D02*
X77697046Y-112222518D01*
X80898546Y-108365119D02*
X77899146Y-108365119D01*
D10*
X86906278Y-92607618D02*
X89866278Y-92607618D01*
X89866278Y-94067618D02*
X86906278Y-94067618D01*
X86906278Y-94067618D02*
X86906278Y-92607618D01*
X89866278Y-92607618D02*
X89866278Y-94067618D01*
X89883241Y-100817019D02*
X89883241Y-102277019D01*
X89883241Y-102277019D02*
X86923241Y-102277019D01*
X86923241Y-102277019D02*
X86923241Y-100817019D01*
X86923241Y-100817019D02*
X89883241Y-100817019D01*
X89366278Y-108555618D02*
X89366278Y-110015618D01*
X86406278Y-110015618D02*
X86406278Y-108555618D01*
X89366278Y-110015618D02*
X86406278Y-110015618D01*
X86406278Y-108555618D02*
X89366278Y-108555618D01*
X111418840Y-105059718D02*
X106084840Y-105059718D01*
X110707640Y-102646718D02*
X110707640Y-104348518D01*
X106796040Y-102646718D02*
X110707640Y-102646718D01*
X106084840Y-101935518D02*
X111418840Y-101935518D01*
X111418840Y-101935518D02*
X111418840Y-105059718D01*
X106084840Y-105059718D02*
X106084840Y-101935518D01*
X110707640Y-104348518D02*
X106796040Y-104348518D01*
X106796040Y-104348518D02*
X106796040Y-102646718D01*
X119926278Y-118832618D02*
X119926278Y-117372618D01*
X119926278Y-117372618D02*
X122886278Y-117372618D01*
X122886278Y-118832618D02*
X119926278Y-118832618D01*
X122886278Y-117372618D02*
X122886278Y-118832618D01*
M02*
