G04 #@! TF.GenerationSoftware,KiCad,Pcbnew,(6.0.7)*
G04 #@! TF.CreationDate,2023-02-21T09:19:48-06:00*
G04 #@! TF.ProjectId,SapphineMinimal,53617070-6869-46e6-954d-696e696d616c,rev?*
G04 #@! TF.SameCoordinates,Original*
G04 #@! TF.FileFunction,Profile,NP*
%FSLAX46Y46*%
G04 Gerber Fmt 4.6, Leading zero omitted, Abs format (unit mm)*
G04 Created by KiCad (PCBNEW (6.0.7)) date 2023-02-21 09:19:48*
%MOMM*%
%LPD*%
G01*
G04 APERTURE LIST*
G04 #@! TA.AperFunction,Profile*
%ADD10C,0.050000*%
G04 #@! TD*
G04 APERTURE END LIST*
D10*
X103632000Y-68072000D02*
X109728000Y-68072000D01*
X131572000Y-127000000D02*
X131572000Y-84074000D01*
X97028000Y-67310000D02*
G75*
G03*
X97663000Y-66675000I0J635000D01*
G01*
X87757000Y-66675000D02*
G75*
G03*
X87122000Y-66040000I-635000J0D01*
G01*
X98298000Y-66040000D02*
X101600000Y-66040000D01*
X88392000Y-67310000D02*
X97028000Y-67310000D01*
X78740000Y-66040000D02*
X87122000Y-66040000D01*
X77216000Y-127000000D02*
X99822000Y-127000000D01*
X87757000Y-66675000D02*
G75*
G03*
X88392000Y-67310000I635000J0D01*
G01*
X77363609Y-106312200D02*
G75*
G03*
X76962000Y-106713836I-9J-401600D01*
G01*
X131572000Y-66294000D02*
G75*
G03*
X131318000Y-66040000I-254000J0D01*
G01*
X77765186Y-101946823D02*
G75*
G03*
X77363609Y-101545214I-401586J23D01*
G01*
X99822000Y-127000000D02*
X108458000Y-127000000D01*
X102616000Y-67056000D02*
G75*
G03*
X101600000Y-66040000I-1016000J0D01*
G01*
X131318000Y-66040000D02*
X111760000Y-66040000D01*
X76962000Y-126746000D02*
G75*
G03*
X77216000Y-127000000I254000J0D01*
G01*
X109728000Y-68072000D02*
G75*
G03*
X110744000Y-67056000I0J1016000D01*
G01*
X76961970Y-108420638D02*
G75*
G03*
X77367258Y-108822247I405330J3738D01*
G01*
X77363609Y-113530700D02*
G75*
G03*
X76962000Y-113932227I-109J-401500D01*
G01*
X131572000Y-66294000D02*
X131572000Y-79248000D01*
X130556000Y-80264000D02*
X130556000Y-82804000D01*
X108458000Y-127000000D02*
X108712000Y-127000000D01*
X76962000Y-106713836D02*
X76962000Y-108420638D01*
X98298000Y-66040000D02*
G75*
G03*
X97663000Y-66675000I0J-635000D01*
G01*
X77363609Y-113530651D02*
G75*
G03*
X77768867Y-113129009I3591J401651D01*
G01*
X77768953Y-109223856D02*
G75*
G03*
X77367258Y-108822247I-401653J-44D01*
G01*
X77765218Y-101946823D02*
X77765218Y-105910618D01*
X76962000Y-66294000D02*
X76962000Y-101143605D01*
X130556000Y-82804000D02*
G75*
G03*
X131064000Y-83312000I508000J0D01*
G01*
X77768867Y-109223856D02*
X77768867Y-113129009D01*
X131572000Y-127000000D02*
X108712000Y-127000000D01*
X76962000Y-126746000D02*
X76962000Y-113932227D01*
X77216000Y-66040000D02*
G75*
G03*
X76962000Y-66294000I0J-254000D01*
G01*
X131572000Y-84074000D02*
X131572000Y-83820000D01*
X131064000Y-79756000D02*
G75*
G03*
X131572000Y-79248000I0J508000D01*
G01*
X131572000Y-83820000D02*
G75*
G03*
X131064000Y-83312000I-508000J0D01*
G01*
X102616000Y-67056000D02*
G75*
G03*
X103632000Y-68072000I1016000J0D01*
G01*
X76961986Y-101143605D02*
G75*
G03*
X77363609Y-101545214I401614J5D01*
G01*
X77363609Y-106312218D02*
G75*
G03*
X77765218Y-105910618I-9J401618D01*
G01*
X111760000Y-66040000D02*
G75*
G03*
X110744000Y-67056000I0J-1016000D01*
G01*
X77216000Y-66040000D02*
X78740000Y-66040000D01*
X131064000Y-79756000D02*
G75*
G03*
X130556000Y-80264000I0J-508000D01*
G01*
M02*
