G04 #@! TF.GenerationSoftware,KiCad,Pcbnew,(6.0.7)*
G04 #@! TF.CreationDate,2022-10-28T13:42:32-05:00*
G04 #@! TF.ProjectId,SapphineMinimal,53617070-6869-46e6-954d-696e696d616c,rev?*
G04 #@! TF.SameCoordinates,Original*
G04 #@! TF.FileFunction,Soldermask,Bot*
G04 #@! TF.FilePolarity,Negative*
%FSLAX46Y46*%
G04 Gerber Fmt 4.6, Leading zero omitted, Abs format (unit mm)*
G04 Created by KiCad (PCBNEW (6.0.7)) date 2022-10-28 13:42:32*
%MOMM*%
%LPD*%
G01*
G04 APERTURE LIST*
G04 Aperture macros list*
%AMRoundRect*
0 Rectangle with rounded corners*
0 $1 Rounding radius*
0 $2 $3 $4 $5 $6 $7 $8 $9 X,Y pos of 4 corners*
0 Add a 4 corners polygon primitive as box body*
4,1,4,$2,$3,$4,$5,$6,$7,$8,$9,$2,$3,0*
0 Add four circle primitives for the rounded corners*
1,1,$1+$1,$2,$3*
1,1,$1+$1,$4,$5*
1,1,$1+$1,$6,$7*
1,1,$1+$1,$8,$9*
0 Add four rect primitives between the rounded corners*
20,1,$1+$1,$2,$3,$4,$5,0*
20,1,$1+$1,$4,$5,$6,$7,0*
20,1,$1+$1,$6,$7,$8,$9,0*
20,1,$1+$1,$8,$9,$2,$3,0*%
G04 Aperture macros list end*
%ADD10C,3.200000*%
%ADD11R,1.000000X1.000000*%
%ADD12O,1.000000X1.000000*%
%ADD13C,0.889000*%
%ADD14R,1.709999X1.709999*%
%ADD15C,1.709999*%
%ADD16R,1.700000X1.700000*%
%ADD17O,1.700000X1.700000*%
%ADD18RoundRect,0.140000X-0.170000X0.140000X-0.170000X-0.140000X0.170000X-0.140000X0.170000X0.140000X0*%
%ADD19RoundRect,0.200000X0.275000X-0.200000X0.275000X0.200000X-0.275000X0.200000X-0.275000X-0.200000X0*%
%ADD20R,1.217000X1.217000*%
%ADD21C,1.217000*%
%ADD22R,0.700000X0.400000*%
%ADD23RoundRect,0.500000X-2.000000X-0.500000X2.000000X-0.500000X2.000000X0.500000X-2.000000X0.500000X0*%
%ADD24RoundRect,0.425000X-1.575000X-0.425000X1.575000X-0.425000X1.575000X0.425000X-1.575000X0.425000X0*%
%ADD25RoundRect,0.200000X-0.275000X0.200000X-0.275000X-0.200000X0.275000X-0.200000X0.275000X0.200000X0*%
%ADD26C,1.000000*%
%ADD27R,3.000000X1.500000*%
%ADD28R,1.500000X3.000000*%
%ADD29RoundRect,0.140000X0.140000X0.170000X-0.140000X0.170000X-0.140000X-0.170000X0.140000X-0.170000X0*%
%ADD30RoundRect,0.150000X0.625000X-0.150000X0.625000X0.150000X-0.625000X0.150000X-0.625000X-0.150000X0*%
%ADD31RoundRect,0.250000X0.650000X-0.350000X0.650000X0.350000X-0.650000X0.350000X-0.650000X-0.350000X0*%
%ADD32R,2.350000X5.350000*%
%ADD33R,1.500000X1.500000*%
%ADD34RoundRect,0.250000X-1.500000X0.250000X-1.500000X-0.250000X1.500000X-0.250000X1.500000X0.250000X0*%
%ADD35RoundRect,0.250001X-1.449999X0.499999X-1.449999X-0.499999X1.449999X-0.499999X1.449999X0.499999X0*%
%ADD36RoundRect,0.218750X0.218750X0.256250X-0.218750X0.256250X-0.218750X-0.256250X0.218750X-0.256250X0*%
%ADD37R,0.787400X0.863600*%
%ADD38R,0.787400X0.355600*%
%ADD39RoundRect,0.218750X-0.256250X0.218750X-0.256250X-0.218750X0.256250X-0.218750X0.256250X0.218750X0*%
G04 APERTURE END LIST*
D10*
X82042000Y-121920000D03*
X82042000Y-83820000D03*
X127762000Y-91440000D03*
D11*
X80768846Y-71110000D03*
D12*
X82038846Y-71110000D03*
X80768846Y-72380000D03*
X82038846Y-72380000D03*
X80768846Y-73650000D03*
X82038846Y-73650000D03*
X80768846Y-74920000D03*
X82038846Y-74920000D03*
X80768846Y-76190000D03*
X82038846Y-76190000D03*
D13*
X80298846Y-103938515D03*
X78498846Y-103938515D03*
D11*
X107436278Y-119372618D03*
D12*
X107436278Y-120642618D03*
X106166278Y-119372618D03*
X106166278Y-120642618D03*
X104896278Y-119372618D03*
X104896278Y-120642618D03*
X103626278Y-119372618D03*
X103626278Y-120642618D03*
X102356278Y-119372618D03*
X102356278Y-120642618D03*
D13*
X80298846Y-111230001D03*
X78498846Y-111230001D03*
D14*
X127260041Y-113581926D03*
D15*
X127260041Y-116121926D03*
X127260041Y-118661926D03*
D16*
X88915000Y-125095000D03*
D17*
X91455000Y-125095000D03*
X93995000Y-125095000D03*
X96535000Y-125095000D03*
X99075000Y-125095000D03*
X101615000Y-125095000D03*
X104155000Y-125095000D03*
X106695000Y-125095000D03*
X109235000Y-125095000D03*
X111775000Y-125095000D03*
X114315000Y-125095000D03*
X116855000Y-125095000D03*
X119395000Y-125095000D03*
D18*
X106420278Y-70581818D03*
X106420278Y-71541818D03*
D19*
X99054278Y-122610618D03*
X99054278Y-120960618D03*
D20*
X127420000Y-84200000D03*
D21*
X124880000Y-84200000D03*
X122340000Y-84200000D03*
X119800000Y-84200000D03*
X119800000Y-68200000D03*
X122340000Y-68200000D03*
X124880000Y-68200000D03*
X127420000Y-68200000D03*
D22*
X109341278Y-119657618D03*
X109341278Y-120357618D03*
D19*
X111246278Y-121467618D03*
X111246278Y-119817618D03*
D23*
X118906278Y-120642618D03*
D24*
X118906278Y-110492618D03*
D25*
X109671478Y-70389218D03*
X109671478Y-72039218D03*
D26*
X130296278Y-67302618D03*
D19*
X111449478Y-72039218D03*
X111449478Y-70389218D03*
D27*
X107016278Y-95252618D03*
X107016278Y-97152618D03*
X107016278Y-99052618D03*
X107016278Y-100952618D03*
X107016278Y-102852618D03*
D28*
X103616278Y-106252618D03*
X101716278Y-106252618D03*
X99816278Y-106252618D03*
X97916278Y-106252618D03*
X96016278Y-106252618D03*
D27*
X92616278Y-102852618D03*
X92616278Y-100952618D03*
X92616278Y-99052618D03*
X92616278Y-97152618D03*
X92616278Y-95252618D03*
D28*
X96016278Y-91852618D03*
X97916278Y-91852618D03*
X99816278Y-91852618D03*
X101716278Y-91852618D03*
X103616278Y-91852618D03*
D26*
X78226278Y-67302618D03*
D18*
X107487078Y-70581818D03*
X107487078Y-71541818D03*
D25*
X102559478Y-70389218D03*
X102559478Y-72039218D03*
X96514278Y-120960618D03*
X96514278Y-122610618D03*
D11*
X98546278Y-110482618D03*
D29*
X97248278Y-89273618D03*
X96288278Y-89273618D03*
D30*
X86322278Y-116300618D03*
X86322278Y-115300618D03*
X86322278Y-114300618D03*
X86322278Y-113300618D03*
D31*
X82447278Y-117600618D03*
X82447278Y-112000618D03*
D30*
X86322278Y-108172618D03*
X86322278Y-107172618D03*
X86322278Y-106172618D03*
X86322278Y-105172618D03*
D31*
X82447278Y-103872618D03*
X82447278Y-109472618D03*
D19*
X94482278Y-122610618D03*
X94482278Y-120960618D03*
D26*
X130296278Y-125722618D03*
D19*
X104286678Y-72039218D03*
X104286678Y-70389218D03*
D32*
X118866278Y-120162618D03*
X118866278Y-110962618D03*
D33*
X101086278Y-110482618D03*
D34*
X119183846Y-100592618D03*
X119183846Y-102592618D03*
D35*
X124933846Y-104942618D03*
X124933846Y-98242618D03*
D36*
X80283778Y-90162618D03*
X78708778Y-90162618D03*
D37*
X78581878Y-97223818D03*
D38*
X78581878Y-96476296D03*
X78581878Y-95982774D03*
X78581878Y-95489252D03*
X78581878Y-94995730D03*
X78581878Y-94502208D03*
X78581878Y-94008686D03*
D37*
X78581878Y-93261418D03*
X80410678Y-93261418D03*
D38*
X80410678Y-94008686D03*
X80410678Y-94502208D03*
X80410678Y-94995730D03*
X80410678Y-95489252D03*
X80410678Y-95982774D03*
X80410678Y-96476296D03*
D37*
X80410678Y-97223818D03*
D39*
X99816278Y-69055118D03*
X99816278Y-70630118D03*
M02*
