G04 #@! TF.GenerationSoftware,KiCad,Pcbnew,(6.0.7)*
G04 #@! TF.CreationDate,2023-02-21T09:19:48-06:00*
G04 #@! TF.ProjectId,SapphineMinimal,53617070-6869-46e6-954d-696e696d616c,rev?*
G04 #@! TF.SameCoordinates,Original*
G04 #@! TF.FileFunction,Other,User*
%FSLAX46Y46*%
G04 Gerber Fmt 4.6, Leading zero omitted, Abs format (unit mm)*
G04 Created by KiCad (PCBNEW (6.0.7)) date 2023-02-21 09:19:48*
%MOMM*%
%LPD*%
G01*
G04 APERTURE LIST*
%ADD10C,0.050000*%
%ADD11C,0.152400*%
%ADD12C,0.100000*%
%ADD13C,0.010000*%
G04 APERTURE END LIST*
D10*
X85492000Y-121920000D02*
G75*
G03*
X85492000Y-121920000I-3450000J0D01*
G01*
X85492000Y-83820000D02*
G75*
G03*
X85492000Y-83820000I-3450000J0D01*
G01*
X131212000Y-91440000D02*
G75*
G03*
X131212000Y-91440000I-3450000J0D01*
G01*
X82106426Y-102840992D02*
X82106426Y-101380992D01*
X82106426Y-101380992D02*
X85066426Y-101380992D01*
X85066426Y-102840992D02*
X82106426Y-102840992D01*
X85066426Y-101380992D02*
X85066426Y-102840992D01*
X78647946Y-80256618D02*
X84159746Y-80256618D01*
X84159746Y-80256618D02*
X84159746Y-66540618D01*
X84159746Y-66540618D02*
X78647946Y-66540618D01*
X78647946Y-66540618D02*
X78647946Y-80256618D01*
X96139878Y-120280218D02*
X97599878Y-120280218D01*
X97599878Y-123240218D02*
X96139878Y-123240218D01*
X96139878Y-123240218D02*
X96139878Y-120280218D01*
X97599878Y-120280218D02*
X97599878Y-123240218D01*
X87326278Y-75460000D02*
X87326278Y-76920000D01*
X84366278Y-75460000D02*
X87326278Y-75460000D01*
X87326278Y-76920000D02*
X84366278Y-76920000D01*
X84366278Y-76920000D02*
X84366278Y-75460000D01*
X90374278Y-81558618D02*
X90374278Y-83018618D01*
X90374278Y-83018618D02*
X87414278Y-83018618D01*
X87414278Y-83018618D02*
X87414278Y-81558618D01*
X87414278Y-81558618D02*
X90374278Y-81558618D01*
X127673278Y-74382618D02*
X127673278Y-72922618D01*
X130633278Y-72922618D02*
X130633278Y-74382618D01*
X130633278Y-74382618D02*
X127673278Y-74382618D01*
X127673278Y-72922618D02*
X130633278Y-72922618D01*
X89121078Y-121241618D02*
X85721078Y-121241618D01*
X89121078Y-119281618D02*
X89121078Y-121241618D01*
X85721078Y-119281618D02*
X89121078Y-119281618D01*
X85721078Y-121241618D02*
X85721078Y-119281618D01*
X94565078Y-123240218D02*
X94565078Y-120280218D01*
X96025078Y-120280218D02*
X96025078Y-123240218D01*
X94565078Y-120280218D02*
X96025078Y-120280218D01*
X96025078Y-123240218D02*
X94565078Y-123240218D01*
D11*
X80898546Y-101186016D02*
X77899146Y-101186016D01*
X77036646Y-105043415D02*
X77697046Y-105043415D01*
X81100646Y-106542015D02*
X81100646Y-101335015D01*
X80898546Y-106542015D02*
X81100646Y-106542015D01*
X77697046Y-101335015D02*
X77697046Y-102833615D01*
X77899146Y-101186016D02*
X77899146Y-101335015D01*
X81100646Y-101335015D02*
X80898546Y-101335015D01*
X77899146Y-101335015D02*
X77697046Y-101335015D01*
X77036646Y-102833615D02*
X77036646Y-105043415D01*
X80898546Y-101335015D02*
X80898546Y-101186016D01*
X80898546Y-106691014D02*
X80898546Y-106542015D01*
X77697046Y-105043415D02*
X77697046Y-106542015D01*
X77899146Y-106542015D02*
X77899146Y-106691014D01*
X77697046Y-106542015D02*
X77899146Y-106542015D01*
X77899146Y-106691014D02*
X80898546Y-106691014D01*
X77697046Y-102833615D02*
X77036646Y-102833615D01*
D10*
X85737878Y-122896618D02*
X85737878Y-121436618D01*
X85737878Y-121436618D02*
X88697878Y-121436618D01*
X88697878Y-122896618D02*
X85737878Y-122896618D01*
X88697878Y-121436618D02*
X88697878Y-122896618D01*
X125571997Y-107526513D02*
X125571997Y-110486513D01*
X124111997Y-107526513D02*
X125571997Y-107526513D01*
X125571997Y-110486513D02*
X124111997Y-110486513D01*
X124111997Y-110486513D02*
X124111997Y-107526513D01*
X93176278Y-113071618D02*
X91216278Y-113071618D01*
X91216278Y-109671618D02*
X93176278Y-109671618D01*
X93176278Y-109671618D02*
X93176278Y-113071618D01*
X91216278Y-113071618D02*
X91216278Y-109671618D01*
X78569878Y-67251818D02*
G75*
G03*
X78569878Y-67251818I-750000J0D01*
G01*
X124560278Y-69636618D02*
X126380278Y-69636618D01*
X126380278Y-70556618D02*
X124560278Y-70556618D01*
X126380278Y-69636618D02*
X126380278Y-70556618D01*
X124560278Y-70556618D02*
X124560278Y-69636618D01*
X94283478Y-99309418D02*
X94283478Y-98389418D01*
X96103478Y-98389418D02*
X96103478Y-99309418D01*
X94283478Y-98389418D02*
X96103478Y-98389418D01*
X96103478Y-99309418D02*
X94283478Y-99309418D01*
X96212278Y-115964618D02*
X95292278Y-115964618D01*
X95292278Y-115964618D02*
X95292278Y-114144618D01*
X96212278Y-114144618D02*
X96212278Y-115964618D01*
X95292278Y-114144618D02*
X96212278Y-114144618D01*
X125234817Y-97262880D02*
X122274817Y-97262880D01*
X122274817Y-97262880D02*
X122274817Y-95802880D01*
X122274817Y-95802880D02*
X125234817Y-95802880D01*
X125234817Y-95802880D02*
X125234817Y-97262880D01*
X98038278Y-117200918D02*
X98038278Y-122712718D01*
X111754278Y-117200918D02*
X98038278Y-117200918D01*
X98038278Y-122712718D02*
X111754278Y-122712718D01*
X111754278Y-122712718D02*
X111754278Y-117200918D01*
X127610678Y-81748618D02*
X124650678Y-81748618D01*
X124650678Y-80288618D02*
X127610678Y-80288618D01*
X124650678Y-81748618D02*
X124650678Y-80288618D01*
X127610678Y-80288618D02*
X127610678Y-81748618D01*
X94376278Y-83129618D02*
X92556278Y-83129618D01*
X94376278Y-82209618D02*
X94376278Y-83129618D01*
X92556278Y-83129618D02*
X92556278Y-82209618D01*
X92556278Y-82209618D02*
X94376278Y-82209618D01*
X93543288Y-92029308D02*
X93543288Y-93489308D01*
X90583288Y-93489308D02*
X90583288Y-92029308D01*
X93543288Y-93489308D02*
X90583288Y-93489308D01*
X90583288Y-92029308D02*
X93543288Y-92029308D01*
X100770737Y-93551346D02*
X97810737Y-93551346D01*
X97810737Y-92091346D02*
X100770737Y-92091346D01*
X97810737Y-93551346D02*
X97810737Y-92091346D01*
X100770737Y-92091346D02*
X100770737Y-93551346D01*
X97887278Y-101338618D02*
G75*
G03*
X97887278Y-101338618I-1500000J0D01*
G01*
X118314278Y-76224618D02*
X118314278Y-77684618D01*
X115354278Y-76224618D02*
X118314278Y-76224618D01*
X115354278Y-77684618D02*
X115354278Y-76224618D01*
X118314278Y-77684618D02*
X115354278Y-77684618D01*
D11*
X81100646Y-113833501D02*
X81100646Y-108626501D01*
X77899146Y-113833501D02*
X77899146Y-113982500D01*
X81100646Y-108626501D02*
X80898546Y-108626501D01*
X80898546Y-113982500D02*
X80898546Y-113833501D01*
X77697046Y-108626501D02*
X77697046Y-110125101D01*
X77899146Y-108477502D02*
X77899146Y-108626501D01*
X77036646Y-110125101D02*
X77036646Y-112334901D01*
X80898546Y-108477502D02*
X77899146Y-108477502D01*
X80898546Y-108626501D02*
X80898546Y-108477502D01*
X77697046Y-110125101D02*
X77036646Y-110125101D01*
X80898546Y-113833501D02*
X81100646Y-113833501D01*
X77697046Y-113833501D02*
X77899146Y-113833501D01*
X77899146Y-108626501D02*
X77697046Y-108626501D01*
X77036646Y-112334901D02*
X77697046Y-112334901D01*
X77899146Y-113982500D02*
X80898546Y-113982500D01*
X77697046Y-112334901D02*
X77697046Y-113833501D01*
D10*
X126989878Y-82235018D02*
X126989878Y-83155018D01*
X125169878Y-82235018D02*
X126989878Y-82235018D01*
X126989878Y-83155018D02*
X125169878Y-83155018D01*
X125169878Y-83155018D02*
X125169878Y-82235018D01*
X97511478Y-113219018D02*
X98971478Y-113219018D01*
X98971478Y-116179018D02*
X97511478Y-116179018D01*
X97511478Y-116179018D02*
X97511478Y-113219018D01*
X98971478Y-113219018D02*
X98971478Y-116179018D01*
X88202000Y-66122500D02*
X88202000Y-72722500D01*
X96602000Y-66122500D02*
X88202000Y-66122500D01*
X88202000Y-72722500D02*
X96602000Y-72722500D01*
X96602000Y-72722500D02*
X96602000Y-66122500D01*
X90374278Y-81240618D02*
X87414278Y-81240618D01*
X87414278Y-81240618D02*
X87414278Y-79780618D01*
X87414278Y-79780618D02*
X90374278Y-79780618D01*
X90374278Y-79780618D02*
X90374278Y-81240618D01*
X116421278Y-102017618D02*
X116421278Y-104977618D01*
X114961278Y-104977618D02*
X114961278Y-102017618D01*
X114961278Y-102017618D02*
X116421278Y-102017618D01*
X116421278Y-104977618D02*
X114961278Y-104977618D01*
X87681878Y-92582218D02*
X87681878Y-94042218D01*
X87681878Y-94042218D02*
X84721878Y-94042218D01*
X84721878Y-92582218D02*
X87681878Y-92582218D01*
X84721878Y-94042218D02*
X84721878Y-92582218D01*
X131046278Y-67302618D02*
G75*
G03*
X131046278Y-67302618I-750000J0D01*
G01*
X93502278Y-109671618D02*
X95462278Y-109671618D01*
X93502278Y-113071618D02*
X93502278Y-109671618D01*
X95462278Y-109671618D02*
X95462278Y-113071618D01*
X95462278Y-113071618D02*
X93502278Y-113071618D01*
X94880278Y-83271618D02*
X87480278Y-83271618D01*
X87480278Y-88671618D02*
X94880278Y-88671618D01*
X94880278Y-88671618D02*
X94880278Y-83271618D01*
X87480278Y-83271618D02*
X87480278Y-88671618D01*
X117501278Y-111705170D02*
X118961278Y-111705170D01*
X118961278Y-111705170D02*
X118961278Y-114665170D01*
X117501278Y-114665170D02*
X117501278Y-111705170D01*
X118961278Y-114665170D02*
X117501278Y-114665170D01*
X87326278Y-109752618D02*
X87326278Y-111212618D01*
X87326278Y-111212618D02*
X84366278Y-111212618D01*
X84366278Y-109752618D02*
X87326278Y-109752618D01*
X84366278Y-111212618D02*
X84366278Y-109752618D01*
X122968378Y-72890618D02*
X122968378Y-78224618D01*
X122968378Y-78224618D02*
X119844178Y-78224618D01*
X119844178Y-72890618D02*
X122968378Y-72890618D01*
X119844178Y-78224618D02*
X119844178Y-72890618D01*
X120555378Y-73601818D02*
X122257178Y-73601818D01*
X120555378Y-77513418D02*
X120555378Y-73601818D01*
X122257178Y-77513418D02*
X120555378Y-77513418D01*
X122257178Y-73601818D02*
X122257178Y-77513418D01*
X123267278Y-71207618D02*
X120307278Y-71207618D01*
X123267278Y-69747618D02*
X123267278Y-71207618D01*
X120307278Y-69747618D02*
X123267278Y-69747618D01*
X120307278Y-71207618D02*
X120307278Y-69747618D01*
X87115000Y-123295000D02*
X87115000Y-126895000D01*
X87115000Y-126895000D02*
X121165000Y-126895000D01*
X121165000Y-126895000D02*
X121165000Y-123295000D01*
X121165000Y-123295000D02*
X87115000Y-123295000D01*
X121791340Y-95782618D02*
X121791340Y-97242618D01*
X118831340Y-97242618D02*
X118831340Y-95782618D01*
X118831340Y-95782618D02*
X121791340Y-95782618D01*
X121791340Y-97242618D02*
X118831340Y-97242618D01*
X119931278Y-87277618D02*
X119931278Y-89237618D01*
X119931278Y-89237618D02*
X116531278Y-89237618D01*
X116531278Y-87277618D02*
X119931278Y-87277618D01*
X116531278Y-89237618D02*
X116531278Y-87277618D01*
X83028886Y-97961085D02*
X83028886Y-99421085D01*
X83028886Y-99421085D02*
X80068886Y-99421085D01*
X80068886Y-97961085D02*
X83028886Y-97961085D01*
X80068886Y-99421085D02*
X80068886Y-97961085D01*
X117926478Y-119486918D02*
X117926478Y-121188718D01*
X113303678Y-118775718D02*
X118637678Y-118775718D01*
X114014878Y-119486918D02*
X117926478Y-119486918D01*
X118637678Y-118775718D02*
X118637678Y-121899918D01*
X114014878Y-121188718D02*
X114014878Y-119486918D01*
X118637678Y-121899918D02*
X113303678Y-121899918D01*
X117926478Y-121188718D02*
X114014878Y-121188718D01*
X113303678Y-121899918D02*
X113303678Y-118775718D01*
X79962284Y-96139083D02*
X82922284Y-96139083D01*
X79962284Y-97599083D02*
X79962284Y-96139083D01*
X82922284Y-96139083D02*
X82922284Y-97599083D01*
X82922284Y-97599083D02*
X79962284Y-97599083D01*
X116786278Y-115287618D02*
X116786278Y-117107618D01*
X115866278Y-117107618D02*
X115866278Y-115287618D01*
X116786278Y-117107618D02*
X115866278Y-117107618D01*
X115866278Y-115287618D02*
X116786278Y-115287618D01*
X78976278Y-125722618D02*
G75*
G03*
X78976278Y-125722618I-750000J0D01*
G01*
X126459663Y-121464511D02*
X126459663Y-126064511D01*
X126459663Y-126064511D02*
X123259663Y-126064511D01*
X123259663Y-126064511D02*
X123259663Y-121464511D01*
X123259663Y-121464511D02*
X126459663Y-121464511D01*
X115374278Y-91566618D02*
X110674278Y-91566618D01*
X115374278Y-91566618D02*
X115374278Y-89266618D01*
X110674278Y-91566618D02*
X110674278Y-89266618D01*
X110674278Y-89266618D02*
X115374278Y-89266618D01*
X84366278Y-72922618D02*
X87326278Y-72922618D01*
X84366278Y-74382618D02*
X84366278Y-72922618D01*
X87326278Y-72922618D02*
X87326278Y-74382618D01*
X87326278Y-74382618D02*
X84366278Y-74382618D01*
X126915278Y-76679618D02*
X127835278Y-76679618D01*
X127835278Y-78499618D02*
X126915278Y-78499618D01*
X126915278Y-78499618D02*
X126915278Y-76679618D01*
X127835278Y-76679618D02*
X127835278Y-78499618D01*
X124983846Y-98372618D02*
X124983846Y-102272618D01*
X124983846Y-102272618D02*
X119083846Y-102272618D01*
X119083846Y-98372618D02*
X124983846Y-98372618D01*
X119083846Y-102272618D02*
X119083846Y-98372618D01*
X111671278Y-94067618D02*
X111671278Y-92607618D01*
X114631278Y-92607618D02*
X114631278Y-94067618D01*
X111671278Y-92607618D02*
X114631278Y-92607618D01*
X114631278Y-94067618D02*
X111671278Y-94067618D01*
X80353078Y-91972618D02*
X83313078Y-91972618D01*
X83313078Y-91972618D02*
X83313078Y-93432618D01*
X83313078Y-93432618D02*
X80353078Y-93432618D01*
X80353078Y-93432618D02*
X80353078Y-91972618D01*
X119711278Y-89813618D02*
X119711278Y-91273618D01*
X116751278Y-89813618D02*
X119711278Y-89813618D01*
X119711278Y-91273618D02*
X116751278Y-91273618D01*
X116751278Y-91273618D02*
X116751278Y-89813618D01*
X97367278Y-119802618D02*
X95407278Y-119802618D01*
X95407278Y-119802618D02*
X95407278Y-116402618D01*
X97367278Y-116402618D02*
X97367278Y-119802618D01*
X95407278Y-116402618D02*
X97367278Y-116402618D01*
X94531278Y-117122618D02*
X94531278Y-119082618D01*
X94531278Y-119082618D02*
X91131278Y-119082618D01*
X91131278Y-117122618D02*
X94531278Y-117122618D01*
X91131278Y-119082618D02*
X91131278Y-117122618D01*
D12*
X96643686Y-98196019D02*
X91443686Y-98196019D01*
X96643686Y-94196019D02*
X96643686Y-98196019D01*
X91443686Y-98196019D02*
X91443686Y-94196019D01*
X91443686Y-94196019D02*
X96643686Y-94196019D01*
D10*
X117803878Y-86197418D02*
X119623878Y-86197418D01*
X119623878Y-86197418D02*
X119623878Y-87117418D01*
X119623878Y-87117418D02*
X117803878Y-87117418D01*
X117803878Y-87117418D02*
X117803878Y-86197418D01*
X87795278Y-116864618D02*
X90755278Y-116864618D01*
X90755278Y-116864618D02*
X90755278Y-118324618D01*
X87795278Y-118324618D02*
X87795278Y-116864618D01*
X90755278Y-118324618D02*
X87795278Y-118324618D01*
X114766278Y-101797618D02*
X114766278Y-105197618D01*
X112806278Y-101797618D02*
X114766278Y-101797618D01*
X114766278Y-105197618D02*
X112806278Y-105197618D01*
X112806278Y-105197618D02*
X112806278Y-101797618D01*
X94177278Y-78100618D02*
X90977278Y-78100618D01*
X94177278Y-78100618D02*
X94177278Y-75300618D01*
X90977278Y-75300618D02*
X90977278Y-78100618D01*
X94177278Y-75300618D02*
X90977278Y-75300618D01*
X106723846Y-111760000D02*
X106723846Y-114910000D01*
X115623846Y-108610000D02*
X115623846Y-108010000D01*
X108723846Y-108010000D02*
X108723846Y-106610000D01*
X108723846Y-115510000D02*
X108723846Y-116910000D01*
X115023846Y-108010000D02*
X115023846Y-106610000D01*
X106723846Y-114910000D02*
X108123846Y-114910000D01*
X115623846Y-115510000D02*
X115023846Y-115510000D01*
X115623846Y-108010000D02*
X115023846Y-108010000D01*
X108723846Y-116910000D02*
X111873846Y-116910000D01*
X115023846Y-115510000D02*
X115023846Y-116910000D01*
X115623846Y-114910000D02*
X115623846Y-115510000D01*
X108123846Y-115510000D02*
X108723846Y-115510000D01*
X106723846Y-111760000D02*
X106723846Y-108610000D01*
X108123846Y-108010000D02*
X108723846Y-108010000D01*
X117023846Y-111760000D02*
X117023846Y-114910000D01*
X115023846Y-116910000D02*
X111873846Y-116910000D01*
X108123846Y-114910000D02*
X108123846Y-115510000D01*
X108123846Y-108610000D02*
X108123846Y-108010000D01*
X108723846Y-106610000D02*
X111873846Y-106610000D01*
X117023846Y-114910000D02*
X115623846Y-114910000D01*
X117023846Y-111760000D02*
X117023846Y-108610000D01*
X106723846Y-108610000D02*
X108123846Y-108610000D01*
X115023846Y-106610000D02*
X111873846Y-106610000D01*
X117023846Y-108610000D02*
X115623846Y-108610000D01*
X130633278Y-75208618D02*
X130633278Y-76668618D01*
X127673278Y-76668618D02*
X127673278Y-75208618D01*
X130633278Y-76668618D02*
X127673278Y-76668618D01*
X127673278Y-75208618D02*
X130633278Y-75208618D01*
X105815946Y-116967000D02*
X102691746Y-116967000D01*
X103402946Y-116255800D02*
X103402946Y-112344200D01*
X103402946Y-112344200D02*
X105104746Y-112344200D01*
X105104746Y-116255800D02*
X103402946Y-116255800D01*
X105104746Y-112344200D02*
X105104746Y-116255800D01*
X105815946Y-111633000D02*
X105815946Y-116967000D01*
X102691746Y-111633000D02*
X105815946Y-111633000D01*
X102691746Y-116967000D02*
X102691746Y-111633000D01*
X86883278Y-69159618D02*
X85063278Y-69159618D01*
X86883278Y-68239618D02*
X86883278Y-69159618D01*
X85063278Y-68239618D02*
X86883278Y-68239618D01*
X85063278Y-69159618D02*
X85063278Y-68239618D01*
X98045000Y-68335000D02*
X98045000Y-84085000D01*
X114045000Y-68335000D02*
X98045000Y-68335000D01*
X114045000Y-84085000D02*
X114045000Y-68335000D01*
X98045000Y-84085000D02*
X114045000Y-84085000D01*
G36*
X113515000Y-81018690D02*
G01*
X113129720Y-81018690D01*
X113129720Y-78610000D01*
X113515000Y-78610000D01*
X113515000Y-81018690D01*
G37*
D13*
X113515000Y-81018690D02*
X113129720Y-81018690D01*
X113129720Y-78610000D01*
X113515000Y-78610000D01*
X113515000Y-81018690D01*
D10*
X79176278Y-88482618D02*
X79176278Y-91842618D01*
X79176278Y-91842618D02*
X77276278Y-91842618D01*
X77276278Y-88482618D02*
X79176278Y-88482618D01*
X77276278Y-91842618D02*
X77276278Y-88482618D01*
X126133846Y-105072618D02*
X126133846Y-95572618D01*
X130633846Y-105072618D02*
X126133846Y-105072618D01*
X130633846Y-95572618D02*
X130633846Y-105072618D01*
X126133846Y-95572618D02*
X130633846Y-95572618D01*
X95923278Y-86574618D02*
X95923278Y-85114618D01*
X98883278Y-85114618D02*
X98883278Y-86574618D01*
X95923278Y-85114618D02*
X98883278Y-85114618D01*
X98883278Y-86574618D02*
X95923278Y-86574618D01*
X87795278Y-116546618D02*
X87795278Y-115086618D01*
X90755278Y-116546618D02*
X87795278Y-116546618D01*
X90755278Y-115086618D02*
X90755278Y-116546618D01*
X87795278Y-115086618D02*
X90755278Y-115086618D01*
X92727878Y-121241618D02*
X89327878Y-121241618D01*
X89327878Y-121241618D02*
X89327878Y-119281618D01*
X89327878Y-119281618D02*
X92727878Y-119281618D01*
X92727878Y-119281618D02*
X92727878Y-121241618D01*
X87681878Y-95769418D02*
X84721878Y-95769418D01*
X84721878Y-95769418D02*
X84721878Y-94309418D01*
X84721878Y-94309418D02*
X87681878Y-94309418D01*
X87681878Y-94309418D02*
X87681878Y-95769418D01*
X94438278Y-100100618D02*
X94438278Y-101560618D01*
X91478278Y-101560618D02*
X91478278Y-100100618D01*
X94438278Y-101560618D02*
X91478278Y-101560618D01*
X91478278Y-100100618D02*
X94438278Y-100100618D01*
X113426278Y-105577618D02*
X113426278Y-106497618D01*
X113426278Y-106497618D02*
X111606278Y-106497618D01*
X111606278Y-106497618D02*
X111606278Y-105577618D01*
X111606278Y-105577618D02*
X113426278Y-105577618D01*
X116753778Y-70302618D02*
X114933778Y-70302618D01*
X114933778Y-70302618D02*
X114933778Y-69382618D01*
X114933778Y-69382618D02*
X116753778Y-69382618D01*
X116753778Y-69382618D02*
X116753778Y-70302618D01*
X99276278Y-95032618D02*
X99276278Y-97992618D01*
X99276278Y-97992618D02*
X97816278Y-97992618D01*
X97816278Y-97992618D02*
X97816278Y-95032618D01*
X97816278Y-95032618D02*
X99276278Y-95032618D01*
X120535878Y-88454218D02*
X120535878Y-86994218D01*
X123495878Y-86994218D02*
X123495878Y-88454218D01*
X120535878Y-86994218D02*
X123495878Y-86994218D01*
X123495878Y-88454218D02*
X120535878Y-88454218D01*
X125026278Y-105917618D02*
X120326278Y-105917618D01*
X120326278Y-103617618D02*
X125026278Y-103617618D01*
X125026278Y-105917618D02*
X125026278Y-103617618D01*
X120326278Y-105917618D02*
X120326278Y-103617618D01*
X120561278Y-90257618D02*
X120561278Y-88797618D01*
X123521278Y-90257618D02*
X120561278Y-90257618D01*
X123521278Y-88797618D02*
X123521278Y-90257618D01*
X120561278Y-88797618D02*
X123521278Y-88797618D01*
X119791278Y-113452618D02*
X119791278Y-110052618D01*
X121751278Y-113452618D02*
X119791278Y-113452618D01*
X119791278Y-110052618D02*
X121751278Y-110052618D01*
X121751278Y-110052618D02*
X121751278Y-113452618D01*
X111410716Y-101361561D02*
X108450716Y-101361561D01*
X111410716Y-99901561D02*
X111410716Y-101361561D01*
X108450716Y-99901561D02*
X111410716Y-99901561D01*
X108450716Y-101361561D02*
X108450716Y-99901561D01*
X79176278Y-96102618D02*
X79176278Y-99462618D01*
X77276278Y-99462618D02*
X77276278Y-96102618D01*
X77276278Y-96102618D02*
X79176278Y-96102618D01*
X79176278Y-99462618D02*
X77276278Y-99462618D01*
X115361278Y-91937618D02*
X118561278Y-91937618D01*
X118561278Y-94737618D02*
X118561278Y-91937618D01*
X115361278Y-94737618D02*
X118561278Y-94737618D01*
X115361278Y-91937618D02*
X115361278Y-94737618D01*
X94119465Y-92122365D02*
X97079465Y-92122365D01*
X97079465Y-93582365D02*
X94119465Y-93582365D01*
X94119465Y-93582365D02*
X94119465Y-92122365D01*
X97079465Y-92122365D02*
X97079465Y-93582365D01*
X79176278Y-95652618D02*
X77276278Y-95652618D01*
X79176278Y-92292618D02*
X79176278Y-95652618D01*
X77276278Y-95652618D02*
X77276278Y-92292618D01*
X77276278Y-92292618D02*
X79176278Y-92292618D01*
X85370278Y-72465618D02*
X85370278Y-69505618D01*
X86830278Y-72465618D02*
X85370278Y-72465618D01*
X85370278Y-69505618D02*
X86830278Y-69505618D01*
X86830278Y-69505618D02*
X86830278Y-72465618D01*
X130691278Y-110627321D02*
X126091278Y-110627321D01*
X126091278Y-110627321D02*
X126091278Y-107427321D01*
X126091278Y-107427321D02*
X130691278Y-107427321D01*
X130691278Y-107427321D02*
X130691278Y-110627321D01*
X126791278Y-126117618D02*
X126791278Y-121517618D01*
X126791278Y-121517618D02*
X129991278Y-121517618D01*
X129991278Y-126117618D02*
X126791278Y-126117618D01*
X129991278Y-121517618D02*
X129991278Y-126117618D01*
X92990278Y-120280218D02*
X94450278Y-120280218D01*
X92990278Y-123240218D02*
X92990278Y-120280218D01*
X94450278Y-120280218D02*
X94450278Y-123240218D01*
X94450278Y-123240218D02*
X92990278Y-123240218D01*
X127673278Y-72223618D02*
X127673278Y-70763618D01*
X130633278Y-72223618D02*
X127673278Y-72223618D01*
X130633278Y-70763618D02*
X130633278Y-72223618D01*
X127673278Y-70763618D02*
X130633278Y-70763618D01*
X115354278Y-74319618D02*
X118314278Y-74319618D01*
X118314278Y-74319618D02*
X118314278Y-75779618D01*
X118314278Y-75779618D02*
X115354278Y-75779618D01*
X115354278Y-75779618D02*
X115354278Y-74319618D01*
X90755278Y-113054618D02*
X90755278Y-114514618D01*
X87795278Y-113054618D02*
X90755278Y-113054618D01*
X87795278Y-114514618D02*
X87795278Y-113054618D01*
X90755278Y-114514618D02*
X87795278Y-114514618D01*
X90270278Y-122626618D02*
X90270278Y-121706618D01*
X92090278Y-121706618D02*
X92090278Y-122626618D01*
X92090278Y-122626618D02*
X90270278Y-122626618D01*
X90270278Y-121706618D02*
X92090278Y-121706618D01*
X119076278Y-105307618D02*
X119076278Y-106767618D01*
X116116278Y-105307618D02*
X119076278Y-105307618D01*
X116116278Y-106767618D02*
X116116278Y-105307618D01*
X119076278Y-106767618D02*
X116116278Y-106767618D01*
X115481278Y-97242618D02*
X115481278Y-95782618D01*
X115481278Y-95782618D02*
X118441278Y-95782618D01*
X118441278Y-95782618D02*
X118441278Y-97242618D01*
X118441278Y-97242618D02*
X115481278Y-97242618D01*
X79929300Y-94262058D02*
X82889300Y-94262058D01*
X82889300Y-95722058D02*
X79929300Y-95722058D01*
X79929300Y-95722058D02*
X79929300Y-94262058D01*
X82889300Y-94262058D02*
X82889300Y-95722058D01*
X126670689Y-76270160D02*
X126670689Y-78690160D01*
X126670689Y-78690160D02*
X124250689Y-78690160D01*
X124250689Y-76270160D02*
X126670689Y-76270160D01*
X124250689Y-78690160D02*
X124250689Y-76270160D01*
X120091278Y-95162618D02*
X120091278Y-91512618D01*
X123991278Y-91512618D02*
X120091278Y-91512618D01*
X123991278Y-95162618D02*
X120091278Y-95162618D01*
X123991278Y-91512618D02*
X123991278Y-95162618D01*
D12*
X94985278Y-113381618D02*
X94985278Y-116981618D01*
X91185278Y-113381618D02*
X94985278Y-113381618D01*
X91185278Y-116981618D02*
X91185278Y-113381618D01*
X94985278Y-116981618D02*
X91185278Y-116981618D01*
D10*
X117542678Y-111341818D02*
X117542678Y-109521818D01*
X118462678Y-109521818D02*
X118462678Y-111341818D01*
X118462678Y-111341818D02*
X117542678Y-111341818D01*
X117542678Y-109521818D02*
X118462678Y-109521818D01*
X126597278Y-74400618D02*
X126597278Y-74525618D01*
X124714278Y-72017618D02*
X124714278Y-72017618D01*
X126597278Y-72142618D02*
X126597278Y-74400618D01*
X126597278Y-72142618D02*
X126597278Y-72142618D01*
X124089278Y-72142618D02*
X124089278Y-72017618D01*
X126597278Y-74525618D02*
X125972278Y-74525618D01*
X126597278Y-72017618D02*
X126597278Y-72142618D01*
X124714278Y-74525618D02*
X124714278Y-74525618D01*
X125972278Y-72017618D02*
X125972278Y-72017618D01*
X126597278Y-74525618D02*
X125972278Y-74525618D01*
X125972278Y-72017618D02*
X126597278Y-72017618D01*
X126597278Y-72017618D02*
X126597278Y-72142618D01*
X126597278Y-74400618D02*
X126597278Y-74400618D01*
X126597278Y-72142618D02*
X126597278Y-74400618D01*
X124089278Y-72142618D02*
X124089278Y-72017618D01*
X124089278Y-74400618D02*
X124089278Y-72142618D01*
X124714278Y-72017618D02*
X125972278Y-72017618D01*
X126597278Y-72142618D02*
X126597278Y-72142618D01*
X126597278Y-74400618D02*
X126597278Y-74400618D01*
X124089278Y-72142618D02*
X124089278Y-72142618D01*
X124089278Y-72017618D02*
X124714278Y-72017618D01*
X125972278Y-74525618D02*
X124714278Y-74525618D01*
X124714278Y-74525618D02*
X124089278Y-74525618D01*
X124089278Y-74400618D02*
X124089278Y-72142618D01*
X124089278Y-74400618D02*
X124089278Y-74400618D01*
X124089278Y-72017618D02*
X124714278Y-72017618D01*
X125972278Y-74525618D02*
X124714278Y-74525618D01*
X125972278Y-72017618D02*
X125972278Y-72017618D01*
X124714278Y-72017618D02*
X125972278Y-72017618D01*
X124089278Y-74400618D02*
X124089278Y-74400618D01*
X126597278Y-74400618D02*
X126597278Y-74525618D01*
X125972278Y-74525618D02*
X125972278Y-74525618D01*
X124714278Y-74525618D02*
X124714278Y-74525618D01*
X124714278Y-72017618D02*
X124714278Y-72017618D01*
X125972278Y-74525618D02*
X125972278Y-74525618D01*
X124089278Y-72142618D02*
X124089278Y-72142618D01*
X124089278Y-74525618D02*
X124089278Y-74400618D01*
X125972278Y-72017618D02*
X126597278Y-72017618D01*
X124089278Y-74525618D02*
X124089278Y-74400618D01*
X124714278Y-74525618D02*
X124089278Y-74525618D01*
X84339834Y-109383168D02*
X84339834Y-107923168D01*
X87299834Y-109383168D02*
X84339834Y-109383168D01*
X87299834Y-107923168D02*
X87299834Y-109383168D01*
X84339834Y-107923168D02*
X87299834Y-107923168D01*
X118493778Y-69184584D02*
X115093778Y-69184584D01*
X115093778Y-67224584D02*
X118493778Y-67224584D01*
X115093778Y-69184584D02*
X115093778Y-67224584D01*
X118493778Y-67224584D02*
X118493778Y-69184584D01*
X87316797Y-111687569D02*
X87316797Y-113147569D01*
X87316797Y-113147569D02*
X84356797Y-113147569D01*
X84356797Y-113147569D02*
X84356797Y-111687569D01*
X84356797Y-111687569D02*
X87316797Y-111687569D01*
X90755278Y-111149618D02*
X90755278Y-112609618D01*
X87795278Y-112609618D02*
X87795278Y-111149618D01*
X90755278Y-112609618D02*
X87795278Y-112609618D01*
X87795278Y-111149618D02*
X90755278Y-111149618D01*
X112643278Y-105059718D02*
X107309278Y-105059718D01*
X108020478Y-104348518D02*
X108020478Y-102646718D01*
X107309278Y-105059718D02*
X107309278Y-101935518D01*
X107309278Y-101935518D02*
X112643278Y-101935518D01*
X108020478Y-102646718D02*
X111932078Y-102646718D01*
X111932078Y-102646718D02*
X111932078Y-104348518D01*
X112643278Y-101935518D02*
X112643278Y-105059718D01*
X111932078Y-104348518D02*
X108020478Y-104348518D01*
M02*
