G04 #@! TF.GenerationSoftware,KiCad,Pcbnew,(6.0.7)*
G04 #@! TF.CreationDate,2022-10-28T13:42:32-05:00*
G04 #@! TF.ProjectId,SapphineMinimal,53617070-6869-46e6-954d-696e696d616c,rev?*
G04 #@! TF.SameCoordinates,Original*
G04 #@! TF.FileFunction,Legend,Top*
G04 #@! TF.FilePolarity,Positive*
%FSLAX46Y46*%
G04 Gerber Fmt 4.6, Leading zero omitted, Abs format (unit mm)*
G04 Created by KiCad (PCBNEW (6.0.7)) date 2022-10-28 13:42:32*
%MOMM*%
%LPD*%
G01*
G04 APERTURE LIST*
%ADD10C,0.100000*%
%ADD11C,0.300000*%
%ADD12C,0.152400*%
%ADD13C,0.127000*%
%ADD14C,0.150000*%
%ADD15C,0.120000*%
%ADD16C,0.250000*%
%ADD17C,0.200000*%
G04 APERTURE END LIST*
D10*
G36*
X106801278Y-107942618D02*
G01*
X87751278Y-107942618D01*
X87751278Y-101846618D01*
X106801278Y-101846618D01*
X106801278Y-107942618D01*
G37*
X106801278Y-107942618D02*
X87751278Y-107942618D01*
X87751278Y-101846618D01*
X106801278Y-101846618D01*
X106801278Y-107942618D01*
D11*
X90926278Y-112709189D02*
X90926278Y-113066332D01*
X90569135Y-112923475D02*
X90926278Y-113066332D01*
X91283420Y-112923475D01*
X90711992Y-113352046D02*
X90926278Y-113066332D01*
X91140563Y-113352046D01*
D12*
X126725763Y-94495132D02*
X126870906Y-94495132D01*
X126943478Y-94531418D01*
X127016049Y-94603989D01*
X127052335Y-94749132D01*
X127052335Y-95003132D01*
X127016049Y-95148275D01*
X126943478Y-95220846D01*
X126870906Y-95257132D01*
X126725763Y-95257132D01*
X126653192Y-95220846D01*
X126580620Y-95148275D01*
X126544335Y-95003132D01*
X126544335Y-94749132D01*
X126580620Y-94603989D01*
X126653192Y-94531418D01*
X126725763Y-94495132D01*
X127378906Y-95257132D02*
X127378906Y-94495132D01*
X127814335Y-95257132D01*
X127814335Y-94495132D01*
D11*
X86608278Y-82610189D02*
X86608278Y-82967332D01*
X86251135Y-82824475D02*
X86608278Y-82967332D01*
X86965420Y-82824475D01*
X86393992Y-83253046D02*
X86608278Y-82967332D01*
X86822563Y-83253046D01*
D13*
X79858862Y-95847058D02*
X79338862Y-95847058D01*
X79858862Y-95549915D02*
X79561719Y-95772772D01*
X79338862Y-95549915D02*
X79636004Y-95847058D01*
D12*
X115128849Y-88293903D02*
X115128849Y-89055903D01*
X114693420Y-88293903D02*
X115019992Y-88729332D01*
X114693420Y-89055903D02*
X115128849Y-88620475D01*
D11*
X115691278Y-106994189D02*
X115691278Y-107351332D01*
X115334135Y-107208475D02*
X115691278Y-107351332D01*
X116048420Y-107208475D01*
X115476992Y-107637046D02*
X115691278Y-107351332D01*
X115905563Y-107637046D01*
D12*
X81818563Y-108994903D02*
X82181420Y-108740903D01*
X81818563Y-108559475D02*
X82580563Y-108559475D01*
X82580563Y-108849760D01*
X82544278Y-108922332D01*
X82507992Y-108958618D01*
X82435420Y-108994903D01*
X82326563Y-108994903D01*
X82253992Y-108958618D01*
X82217706Y-108922332D01*
X82181420Y-108849760D01*
X82181420Y-108559475D01*
X82217706Y-109321475D02*
X82217706Y-109575475D01*
X81818563Y-109684332D02*
X81818563Y-109321475D01*
X82580563Y-109321475D01*
X82580563Y-109684332D01*
X81854849Y-109974618D02*
X81818563Y-110083475D01*
X81818563Y-110264903D01*
X81854849Y-110337475D01*
X81891135Y-110373760D01*
X81963706Y-110410046D01*
X82036278Y-110410046D01*
X82108849Y-110373760D01*
X82145135Y-110337475D01*
X82181420Y-110264903D01*
X82217706Y-110119760D01*
X82253992Y-110047189D01*
X82290278Y-110010903D01*
X82362849Y-109974618D01*
X82435420Y-109974618D01*
X82507992Y-110010903D01*
X82544278Y-110047189D01*
X82580563Y-110119760D01*
X82580563Y-110301189D01*
X82544278Y-110410046D01*
X82217706Y-110736618D02*
X82217706Y-110990618D01*
X81818563Y-111099475D02*
X81818563Y-110736618D01*
X82580563Y-110736618D01*
X82580563Y-111099475D01*
X82580563Y-111317189D02*
X82580563Y-111752618D01*
X81818563Y-111534903D02*
X82580563Y-111534903D01*
D11*
X114802278Y-91754189D02*
X114802278Y-92111332D01*
X114445135Y-91968475D02*
X114802278Y-92111332D01*
X115159420Y-91968475D01*
X114587992Y-92397046D02*
X114802278Y-92111332D01*
X115016563Y-92397046D01*
D12*
X126928963Y-105315532D02*
X127074106Y-105315532D01*
X127146678Y-105351818D01*
X127219249Y-105424389D01*
X127255535Y-105569532D01*
X127255535Y-105823532D01*
X127219249Y-105968675D01*
X127146678Y-106041246D01*
X127074106Y-106077532D01*
X126928963Y-106077532D01*
X126856392Y-106041246D01*
X126783820Y-105968675D01*
X126747535Y-105823532D01*
X126747535Y-105569532D01*
X126783820Y-105424389D01*
X126856392Y-105351818D01*
X126928963Y-105315532D01*
X127836106Y-105678389D02*
X127582106Y-105678389D01*
X127582106Y-106077532D02*
X127582106Y-105315532D01*
X127944963Y-105315532D01*
X128489249Y-105678389D02*
X128235249Y-105678389D01*
X128235249Y-106077532D02*
X128235249Y-105315532D01*
X128598106Y-105315532D01*
D13*
X79880676Y-99359783D02*
X79360676Y-99359783D01*
X79880676Y-99062640D02*
X79583533Y-99285497D01*
X79360676Y-99062640D02*
X79657818Y-99359783D01*
X79858516Y-91695808D02*
X79338516Y-91695808D01*
X79858516Y-91398665D02*
X79561373Y-91621522D01*
X79338516Y-91398665D02*
X79635658Y-91695808D01*
D11*
X94609278Y-78165189D02*
X94609278Y-78522332D01*
X94252135Y-78379475D02*
X94609278Y-78522332D01*
X94966420Y-78379475D01*
X94394992Y-78808046D02*
X94609278Y-78522332D01*
X94823563Y-78808046D01*
D12*
X82036278Y-103352475D02*
X82036278Y-103715332D01*
X81818563Y-103279903D02*
X82580563Y-103533903D01*
X81818563Y-103787903D01*
X82580563Y-103933046D02*
X82580563Y-104368475D01*
X81818563Y-104150760D02*
X82580563Y-104150760D01*
X82580563Y-104513618D02*
X82580563Y-104949046D01*
X81818563Y-104731332D02*
X82580563Y-104731332D01*
X81818563Y-105203046D02*
X82580563Y-105203046D01*
X81818563Y-105638475D01*
X82580563Y-105638475D01*
X124145849Y-106327903D02*
X124145849Y-107089903D01*
X123710420Y-106327903D02*
X124036992Y-106763332D01*
X123710420Y-107089903D02*
X124145849Y-106654475D01*
D13*
X85658801Y-102203427D02*
X85489468Y-101961522D01*
X85368516Y-102203427D02*
X85368516Y-101695427D01*
X85562039Y-101695427D01*
X85610420Y-101719618D01*
X85634611Y-101743808D01*
X85658801Y-101792189D01*
X85658801Y-101864760D01*
X85634611Y-101913141D01*
X85610420Y-101937332D01*
X85562039Y-101961522D01*
X85368516Y-101961522D01*
X85949087Y-101913141D02*
X85900706Y-101888951D01*
X85876516Y-101864760D01*
X85852325Y-101816379D01*
X85852325Y-101792189D01*
X85876516Y-101743808D01*
X85900706Y-101719618D01*
X85949087Y-101695427D01*
X86045849Y-101695427D01*
X86094230Y-101719618D01*
X86118420Y-101743808D01*
X86142611Y-101792189D01*
X86142611Y-101816379D01*
X86118420Y-101864760D01*
X86094230Y-101888951D01*
X86045849Y-101913141D01*
X85949087Y-101913141D01*
X85900706Y-101937332D01*
X85876516Y-101961522D01*
X85852325Y-102009903D01*
X85852325Y-102106665D01*
X85876516Y-102155046D01*
X85900706Y-102179237D01*
X85949087Y-102203427D01*
X86045849Y-102203427D01*
X86094230Y-102179237D01*
X86118420Y-102155046D01*
X86142611Y-102106665D01*
X86142611Y-102009903D01*
X86118420Y-101961522D01*
X86094230Y-101937332D01*
X86045849Y-101913141D01*
X86457087Y-101695427D02*
X86505468Y-101695427D01*
X86553849Y-101719618D01*
X86578039Y-101743808D01*
X86602230Y-101792189D01*
X86626420Y-101888951D01*
X86626420Y-102009903D01*
X86602230Y-102106665D01*
X86578039Y-102155046D01*
X86553849Y-102179237D01*
X86505468Y-102203427D01*
X86457087Y-102203427D01*
X86408706Y-102179237D01*
X86384516Y-102155046D01*
X86360325Y-102106665D01*
X86336135Y-102009903D01*
X86336135Y-101888951D01*
X86360325Y-101792189D01*
X86384516Y-101743808D01*
X86408706Y-101719618D01*
X86457087Y-101695427D01*
X86819944Y-101743808D02*
X86844135Y-101719618D01*
X86892516Y-101695427D01*
X87013468Y-101695427D01*
X87061849Y-101719618D01*
X87086039Y-101743808D01*
X87110230Y-101792189D01*
X87110230Y-101840570D01*
X87086039Y-101913141D01*
X86795754Y-102203427D01*
X87110230Y-102203427D01*
X77954135Y-80105427D02*
X77954135Y-80468284D01*
X77929944Y-80540856D01*
X77881563Y-80589237D01*
X77808992Y-80613427D01*
X77760611Y-80613427D01*
X78268611Y-80323141D02*
X78220230Y-80298951D01*
X78196039Y-80274760D01*
X78171849Y-80226379D01*
X78171849Y-80202189D01*
X78196039Y-80153808D01*
X78220230Y-80129618D01*
X78268611Y-80105427D01*
X78365373Y-80105427D01*
X78413754Y-80129618D01*
X78437944Y-80153808D01*
X78462135Y-80202189D01*
X78462135Y-80226379D01*
X78437944Y-80274760D01*
X78413754Y-80298951D01*
X78365373Y-80323141D01*
X78268611Y-80323141D01*
X78220230Y-80347332D01*
X78196039Y-80371522D01*
X78171849Y-80419903D01*
X78171849Y-80516665D01*
X78196039Y-80565046D01*
X78220230Y-80589237D01*
X78268611Y-80613427D01*
X78365373Y-80613427D01*
X78413754Y-80589237D01*
X78437944Y-80565046D01*
X78462135Y-80516665D01*
X78462135Y-80419903D01*
X78437944Y-80371522D01*
X78413754Y-80347332D01*
X78365373Y-80323141D01*
X78776611Y-80105427D02*
X78824992Y-80105427D01*
X78873373Y-80129618D01*
X78897563Y-80153808D01*
X78921754Y-80202189D01*
X78945944Y-80298951D01*
X78945944Y-80419903D01*
X78921754Y-80516665D01*
X78897563Y-80565046D01*
X78873373Y-80589237D01*
X78824992Y-80613427D01*
X78776611Y-80613427D01*
X78728230Y-80589237D01*
X78704039Y-80565046D01*
X78679849Y-80516665D01*
X78655658Y-80419903D01*
X78655658Y-80298951D01*
X78679849Y-80202189D01*
X78704039Y-80153808D01*
X78728230Y-80129618D01*
X78776611Y-80105427D01*
X79139468Y-80153808D02*
X79163658Y-80129618D01*
X79212039Y-80105427D01*
X79332992Y-80105427D01*
X79381373Y-80129618D01*
X79405563Y-80153808D01*
X79429754Y-80202189D01*
X79429754Y-80250570D01*
X79405563Y-80323141D01*
X79115278Y-80613427D01*
X79429754Y-80613427D01*
X100452487Y-123293894D02*
X100210582Y-123463227D01*
X100452487Y-123584179D02*
X99944487Y-123584179D01*
X99944487Y-123390656D01*
X99968678Y-123342275D01*
X99992868Y-123318084D01*
X100041249Y-123293894D01*
X100113820Y-123293894D01*
X100162201Y-123318084D01*
X100186392Y-123342275D01*
X100210582Y-123390656D01*
X100210582Y-123584179D01*
X99944487Y-123124560D02*
X99944487Y-122785894D01*
X100452487Y-123003608D01*
X99944487Y-122495608D02*
X99944487Y-122447227D01*
X99968678Y-122398846D01*
X99992868Y-122374656D01*
X100041249Y-122350465D01*
X100138011Y-122326275D01*
X100258963Y-122326275D01*
X100355725Y-122350465D01*
X100404106Y-122374656D01*
X100428297Y-122398846D01*
X100452487Y-122447227D01*
X100452487Y-122495608D01*
X100428297Y-122543989D01*
X100404106Y-122568179D01*
X100355725Y-122592370D01*
X100258963Y-122616560D01*
X100138011Y-122616560D01*
X100041249Y-122592370D01*
X99992868Y-122568179D01*
X99968678Y-122543989D01*
X99944487Y-122495608D01*
X99944487Y-122156941D02*
X99944487Y-121842465D01*
X100138011Y-122011798D01*
X100138011Y-121939227D01*
X100162201Y-121890846D01*
X100186392Y-121866656D01*
X100234773Y-121842465D01*
X100355725Y-121842465D01*
X100404106Y-121866656D01*
X100428297Y-121890846D01*
X100452487Y-121939227D01*
X100452487Y-122084370D01*
X100428297Y-122132751D01*
X100404106Y-122156941D01*
X87944801Y-76295427D02*
X87775468Y-76053522D01*
X87654516Y-76295427D02*
X87654516Y-75787427D01*
X87848039Y-75787427D01*
X87896420Y-75811618D01*
X87920611Y-75835808D01*
X87944801Y-75884189D01*
X87944801Y-75956760D01*
X87920611Y-76005141D01*
X87896420Y-76029332D01*
X87848039Y-76053522D01*
X87654516Y-76053522D01*
X88235087Y-76005141D02*
X88186706Y-75980951D01*
X88162516Y-75956760D01*
X88138325Y-75908379D01*
X88138325Y-75884189D01*
X88162516Y-75835808D01*
X88186706Y-75811618D01*
X88235087Y-75787427D01*
X88331849Y-75787427D01*
X88380230Y-75811618D01*
X88404420Y-75835808D01*
X88428611Y-75884189D01*
X88428611Y-75908379D01*
X88404420Y-75956760D01*
X88380230Y-75980951D01*
X88331849Y-76005141D01*
X88235087Y-76005141D01*
X88186706Y-76029332D01*
X88162516Y-76053522D01*
X88138325Y-76101903D01*
X88138325Y-76198665D01*
X88162516Y-76247046D01*
X88186706Y-76271237D01*
X88235087Y-76295427D01*
X88331849Y-76295427D01*
X88380230Y-76271237D01*
X88404420Y-76247046D01*
X88428611Y-76198665D01*
X88428611Y-76101903D01*
X88404420Y-76053522D01*
X88380230Y-76029332D01*
X88331849Y-76005141D01*
X88864039Y-75956760D02*
X88864039Y-76295427D01*
X88743087Y-75763237D02*
X88622135Y-76126094D01*
X88936611Y-76126094D01*
X89396230Y-76295427D02*
X89105944Y-76295427D01*
X89251087Y-76295427D02*
X89251087Y-75787427D01*
X89202706Y-75859998D01*
X89154325Y-75908379D01*
X89105944Y-75932570D01*
X128076801Y-72739427D02*
X127907468Y-72497522D01*
X127786516Y-72739427D02*
X127786516Y-72231427D01*
X127980039Y-72231427D01*
X128028420Y-72255618D01*
X128052611Y-72279808D01*
X128076801Y-72328189D01*
X128076801Y-72400760D01*
X128052611Y-72449141D01*
X128028420Y-72473332D01*
X127980039Y-72497522D01*
X127786516Y-72497522D01*
X128270325Y-72279808D02*
X128294516Y-72255618D01*
X128342897Y-72231427D01*
X128463849Y-72231427D01*
X128512230Y-72255618D01*
X128536420Y-72279808D01*
X128560611Y-72328189D01*
X128560611Y-72376570D01*
X128536420Y-72449141D01*
X128246135Y-72739427D01*
X128560611Y-72739427D01*
X128875087Y-72231427D02*
X128923468Y-72231427D01*
X128971849Y-72255618D01*
X128996039Y-72279808D01*
X129020230Y-72328189D01*
X129044420Y-72424951D01*
X129044420Y-72545903D01*
X129020230Y-72642665D01*
X128996039Y-72691046D01*
X128971849Y-72715237D01*
X128923468Y-72739427D01*
X128875087Y-72739427D01*
X128826706Y-72715237D01*
X128802516Y-72691046D01*
X128778325Y-72642665D01*
X128754135Y-72545903D01*
X128754135Y-72424951D01*
X128778325Y-72328189D01*
X128802516Y-72279808D01*
X128826706Y-72255618D01*
X128875087Y-72231427D01*
X129237944Y-72279808D02*
X129262135Y-72255618D01*
X129310516Y-72231427D01*
X129431468Y-72231427D01*
X129479849Y-72255618D01*
X129504039Y-72279808D01*
X129528230Y-72328189D01*
X129528230Y-72376570D01*
X129504039Y-72449141D01*
X129213754Y-72739427D01*
X129528230Y-72739427D01*
X84896801Y-119173046D02*
X84872611Y-119197237D01*
X84800039Y-119221427D01*
X84751658Y-119221427D01*
X84679087Y-119197237D01*
X84630706Y-119148856D01*
X84606516Y-119100475D01*
X84582325Y-119003713D01*
X84582325Y-118931141D01*
X84606516Y-118834379D01*
X84630706Y-118785998D01*
X84679087Y-118737618D01*
X84751658Y-118713427D01*
X84800039Y-118713427D01*
X84872611Y-118737618D01*
X84896801Y-118761808D01*
X85066135Y-118713427D02*
X85404801Y-118713427D01*
X85187087Y-119221427D01*
X85695087Y-118713427D02*
X85743468Y-118713427D01*
X85791849Y-118737618D01*
X85816039Y-118761808D01*
X85840230Y-118810189D01*
X85864420Y-118906951D01*
X85864420Y-119027903D01*
X85840230Y-119124665D01*
X85816039Y-119173046D01*
X85791849Y-119197237D01*
X85743468Y-119221427D01*
X85695087Y-119221427D01*
X85646706Y-119197237D01*
X85622516Y-119173046D01*
X85598325Y-119124665D01*
X85574135Y-119027903D01*
X85574135Y-118906951D01*
X85598325Y-118810189D01*
X85622516Y-118761808D01*
X85646706Y-118737618D01*
X85695087Y-118713427D01*
X86033754Y-118713427D02*
X86348230Y-118713427D01*
X86178897Y-118906951D01*
X86251468Y-118906951D01*
X86299849Y-118931141D01*
X86324039Y-118955332D01*
X86348230Y-119003713D01*
X86348230Y-119124665D01*
X86324039Y-119173046D01*
X86299849Y-119197237D01*
X86251468Y-119221427D01*
X86106325Y-119221427D01*
X86057944Y-119197237D01*
X86033754Y-119173046D01*
X95753487Y-122658894D02*
X95511582Y-122828227D01*
X95753487Y-122949179D02*
X95245487Y-122949179D01*
X95245487Y-122755656D01*
X95269678Y-122707275D01*
X95293868Y-122683084D01*
X95342249Y-122658894D01*
X95414820Y-122658894D01*
X95463201Y-122683084D01*
X95487392Y-122707275D01*
X95511582Y-122755656D01*
X95511582Y-122949179D01*
X95245487Y-122223465D02*
X95245487Y-122320227D01*
X95269678Y-122368608D01*
X95293868Y-122392798D01*
X95366439Y-122441179D01*
X95463201Y-122465370D01*
X95656725Y-122465370D01*
X95705106Y-122441179D01*
X95729297Y-122416989D01*
X95753487Y-122368608D01*
X95753487Y-122271846D01*
X95729297Y-122223465D01*
X95705106Y-122199275D01*
X95656725Y-122175084D01*
X95535773Y-122175084D01*
X95487392Y-122199275D01*
X95463201Y-122223465D01*
X95439011Y-122271846D01*
X95439011Y-122368608D01*
X95463201Y-122416989D01*
X95487392Y-122441179D01*
X95535773Y-122465370D01*
X95245487Y-121860608D02*
X95245487Y-121812227D01*
X95269678Y-121763846D01*
X95293868Y-121739656D01*
X95342249Y-121715465D01*
X95439011Y-121691275D01*
X95559963Y-121691275D01*
X95656725Y-121715465D01*
X95705106Y-121739656D01*
X95729297Y-121763846D01*
X95753487Y-121812227D01*
X95753487Y-121860608D01*
X95729297Y-121908989D01*
X95705106Y-121933179D01*
X95656725Y-121957370D01*
X95559963Y-121981560D01*
X95439011Y-121981560D01*
X95342249Y-121957370D01*
X95293868Y-121933179D01*
X95269678Y-121908989D01*
X95245487Y-121860608D01*
X95293868Y-121497751D02*
X95269678Y-121473560D01*
X95245487Y-121425179D01*
X95245487Y-121304227D01*
X95269678Y-121255846D01*
X95293868Y-121231656D01*
X95342249Y-121207465D01*
X95390630Y-121207465D01*
X95463201Y-121231656D01*
X95753487Y-121521941D01*
X95753487Y-121207465D01*
X80875135Y-100909237D02*
X80947706Y-100933427D01*
X81068658Y-100933427D01*
X81117039Y-100909237D01*
X81141230Y-100885046D01*
X81165420Y-100836665D01*
X81165420Y-100788284D01*
X81141230Y-100739903D01*
X81117039Y-100715713D01*
X81068658Y-100691522D01*
X80971897Y-100667332D01*
X80923516Y-100643141D01*
X80899325Y-100618951D01*
X80875135Y-100570570D01*
X80875135Y-100522189D01*
X80899325Y-100473808D01*
X80923516Y-100449618D01*
X80971897Y-100425427D01*
X81092849Y-100425427D01*
X81165420Y-100449618D01*
X81334754Y-100425427D02*
X81455706Y-100933427D01*
X81552468Y-100570570D01*
X81649230Y-100933427D01*
X81770182Y-100425427D01*
X82036278Y-100643141D02*
X81987897Y-100618951D01*
X81963706Y-100594760D01*
X81939516Y-100546379D01*
X81939516Y-100522189D01*
X81963706Y-100473808D01*
X81987897Y-100449618D01*
X82036278Y-100425427D01*
X82133039Y-100425427D01*
X82181420Y-100449618D01*
X82205611Y-100473808D01*
X82229801Y-100522189D01*
X82229801Y-100546379D01*
X82205611Y-100594760D01*
X82181420Y-100618951D01*
X82133039Y-100643141D01*
X82036278Y-100643141D01*
X81987897Y-100667332D01*
X81963706Y-100691522D01*
X81939516Y-100739903D01*
X81939516Y-100836665D01*
X81963706Y-100885046D01*
X81987897Y-100909237D01*
X82036278Y-100933427D01*
X82133039Y-100933427D01*
X82181420Y-100909237D01*
X82205611Y-100885046D01*
X82229801Y-100836665D01*
X82229801Y-100739903D01*
X82205611Y-100691522D01*
X82181420Y-100667332D01*
X82133039Y-100643141D01*
X82544278Y-100425427D02*
X82592658Y-100425427D01*
X82641039Y-100449618D01*
X82665230Y-100473808D01*
X82689420Y-100522189D01*
X82713611Y-100618951D01*
X82713611Y-100739903D01*
X82689420Y-100836665D01*
X82665230Y-100885046D01*
X82641039Y-100909237D01*
X82592658Y-100933427D01*
X82544278Y-100933427D01*
X82495897Y-100909237D01*
X82471706Y-100885046D01*
X82447516Y-100836665D01*
X82423325Y-100739903D01*
X82423325Y-100618951D01*
X82447516Y-100522189D01*
X82471706Y-100473808D01*
X82495897Y-100449618D01*
X82544278Y-100425427D01*
X83197420Y-100933427D02*
X82907135Y-100933427D01*
X83052278Y-100933427D02*
X83052278Y-100425427D01*
X83003897Y-100497998D01*
X82955516Y-100546379D01*
X82907135Y-100570570D01*
X79882655Y-100636515D02*
X80003607Y-100636515D01*
X79955226Y-100757467D02*
X80003607Y-100636515D01*
X79955226Y-100515562D01*
X80100369Y-100709086D02*
X80003607Y-100636515D01*
X80100369Y-100563943D01*
X84685135Y-122130332D02*
X84515801Y-122130332D01*
X84515801Y-122396427D02*
X84515801Y-121888427D01*
X84757706Y-121888427D01*
X85120563Y-122130332D02*
X85193135Y-122154522D01*
X85217325Y-122178713D01*
X85241516Y-122227094D01*
X85241516Y-122299665D01*
X85217325Y-122348046D01*
X85193135Y-122372237D01*
X85144754Y-122396427D01*
X84951230Y-122396427D01*
X84951230Y-121888427D01*
X85120563Y-121888427D01*
X85168944Y-121912618D01*
X85193135Y-121936808D01*
X85217325Y-121985189D01*
X85217325Y-122033570D01*
X85193135Y-122081951D01*
X85168944Y-122106141D01*
X85120563Y-122130332D01*
X84951230Y-122130332D01*
X85410849Y-121888427D02*
X85749516Y-121888427D01*
X85531801Y-122396427D01*
X86039801Y-121888427D02*
X86088182Y-121888427D01*
X86136563Y-121912618D01*
X86160754Y-121936808D01*
X86184944Y-121985189D01*
X86209135Y-122081951D01*
X86209135Y-122202903D01*
X86184944Y-122299665D01*
X86160754Y-122348046D01*
X86136563Y-122372237D01*
X86088182Y-122396427D01*
X86039801Y-122396427D01*
X85991420Y-122372237D01*
X85967230Y-122348046D01*
X85943039Y-122299665D01*
X85918849Y-122202903D01*
X85918849Y-122081951D01*
X85943039Y-121985189D01*
X85967230Y-121936808D01*
X85991420Y-121912618D01*
X86039801Y-121888427D01*
X86692944Y-122396427D02*
X86402658Y-122396427D01*
X86547801Y-122396427D02*
X86547801Y-121888427D01*
X86499420Y-121960998D01*
X86451039Y-122009379D01*
X86402658Y-122033570D01*
X123375711Y-109913655D02*
X123375711Y-110082989D01*
X123641806Y-110082989D02*
X123133806Y-110082989D01*
X123133806Y-109841084D01*
X123375711Y-109478227D02*
X123399901Y-109405655D01*
X123424092Y-109381465D01*
X123472473Y-109357274D01*
X123545044Y-109357274D01*
X123593425Y-109381465D01*
X123617616Y-109405655D01*
X123641806Y-109454036D01*
X123641806Y-109647560D01*
X123133806Y-109647560D01*
X123133806Y-109478227D01*
X123157997Y-109429846D01*
X123182187Y-109405655D01*
X123230568Y-109381465D01*
X123278949Y-109381465D01*
X123327330Y-109405655D01*
X123351520Y-109429846D01*
X123375711Y-109478227D01*
X123375711Y-109647560D01*
X123133806Y-108897655D02*
X123133806Y-109139560D01*
X123375711Y-109163751D01*
X123351520Y-109139560D01*
X123327330Y-109091179D01*
X123327330Y-108970227D01*
X123351520Y-108921846D01*
X123375711Y-108897655D01*
X123424092Y-108873465D01*
X123545044Y-108873465D01*
X123593425Y-108897655D01*
X123617616Y-108921846D01*
X123641806Y-108970227D01*
X123641806Y-109091179D01*
X123617616Y-109139560D01*
X123593425Y-109163751D01*
X123133806Y-108558989D02*
X123133806Y-108510608D01*
X123157997Y-108462227D01*
X123182187Y-108438036D01*
X123230568Y-108413846D01*
X123327330Y-108389655D01*
X123448282Y-108389655D01*
X123545044Y-108413846D01*
X123593425Y-108438036D01*
X123617616Y-108462227D01*
X123641806Y-108510608D01*
X123641806Y-108558989D01*
X123617616Y-108607370D01*
X123593425Y-108631560D01*
X123545044Y-108655751D01*
X123448282Y-108679941D01*
X123327330Y-108679941D01*
X123230568Y-108655751D01*
X123182187Y-108631560D01*
X123157997Y-108607370D01*
X123133806Y-108558989D01*
X123641806Y-107905846D02*
X123641806Y-108196132D01*
X123641806Y-108050989D02*
X123133806Y-108050989D01*
X123206377Y-108099370D01*
X123254758Y-108147751D01*
X123278949Y-108196132D01*
X91500801Y-109394046D02*
X91476611Y-109418237D01*
X91404039Y-109442427D01*
X91355658Y-109442427D01*
X91283087Y-109418237D01*
X91234706Y-109369856D01*
X91210516Y-109321475D01*
X91186325Y-109224713D01*
X91186325Y-109152141D01*
X91210516Y-109055379D01*
X91234706Y-109006998D01*
X91283087Y-108958618D01*
X91355658Y-108934427D01*
X91404039Y-108934427D01*
X91476611Y-108958618D01*
X91500801Y-108982808D01*
X91960420Y-108934427D02*
X91718516Y-108934427D01*
X91694325Y-109176332D01*
X91718516Y-109152141D01*
X91766897Y-109127951D01*
X91887849Y-109127951D01*
X91936230Y-109152141D01*
X91960420Y-109176332D01*
X91984611Y-109224713D01*
X91984611Y-109345665D01*
X91960420Y-109394046D01*
X91936230Y-109418237D01*
X91887849Y-109442427D01*
X91766897Y-109442427D01*
X91718516Y-109418237D01*
X91694325Y-109394046D01*
X92299087Y-108934427D02*
X92347468Y-108934427D01*
X92395849Y-108958618D01*
X92420039Y-108982808D01*
X92444230Y-109031189D01*
X92468420Y-109127951D01*
X92468420Y-109248903D01*
X92444230Y-109345665D01*
X92420039Y-109394046D01*
X92395849Y-109418237D01*
X92347468Y-109442427D01*
X92299087Y-109442427D01*
X92250706Y-109418237D01*
X92226516Y-109394046D01*
X92202325Y-109345665D01*
X92178135Y-109248903D01*
X92178135Y-109127951D01*
X92202325Y-109031189D01*
X92226516Y-108982808D01*
X92250706Y-108958618D01*
X92299087Y-108934427D01*
X92903849Y-108934427D02*
X92807087Y-108934427D01*
X92758706Y-108958618D01*
X92734516Y-108982808D01*
X92686135Y-109055379D01*
X92661944Y-109152141D01*
X92661944Y-109345665D01*
X92686135Y-109394046D01*
X92710325Y-109418237D01*
X92758706Y-109442427D01*
X92855468Y-109442427D01*
X92903849Y-109418237D01*
X92928039Y-109394046D01*
X92952230Y-109345665D01*
X92952230Y-109224713D01*
X92928039Y-109176332D01*
X92903849Y-109152141D01*
X92855468Y-109127951D01*
X92758706Y-109127951D01*
X92710325Y-109152141D01*
X92686135Y-109176332D01*
X92661944Y-109224713D01*
X78189992Y-70870713D02*
X78189992Y-71040046D01*
X78456087Y-71040046D02*
X77948087Y-71040046D01*
X77948087Y-70798141D01*
X78456087Y-70604618D02*
X77948087Y-70604618D01*
X78456087Y-70362713D02*
X77948087Y-70362713D01*
X77948087Y-70241760D01*
X77972278Y-70169189D01*
X78020658Y-70120808D01*
X78069039Y-70096618D01*
X78165801Y-70072427D01*
X78238373Y-70072427D01*
X78335135Y-70096618D01*
X78383516Y-70120808D01*
X78431897Y-70169189D01*
X78456087Y-70241760D01*
X78456087Y-70362713D01*
X78456087Y-69588618D02*
X78456087Y-69878903D01*
X78456087Y-69733760D02*
X77948087Y-69733760D01*
X78020658Y-69782141D01*
X78069039Y-69830522D01*
X78093230Y-69878903D01*
X77948087Y-69274141D02*
X77948087Y-69225760D01*
X77972278Y-69177379D01*
X77996468Y-69153189D01*
X78044849Y-69128998D01*
X78141611Y-69104808D01*
X78262563Y-69104808D01*
X78359325Y-69128998D01*
X78407706Y-69153189D01*
X78431897Y-69177379D01*
X78456087Y-69225760D01*
X78456087Y-69274141D01*
X78431897Y-69322522D01*
X78407706Y-69346713D01*
X78359325Y-69370903D01*
X78262563Y-69395094D01*
X78141611Y-69395094D01*
X78044849Y-69370903D01*
X77996468Y-69346713D01*
X77972278Y-69322522D01*
X77948087Y-69274141D01*
X77996468Y-68911284D02*
X77972278Y-68887094D01*
X77948087Y-68838713D01*
X77948087Y-68717760D01*
X77972278Y-68669379D01*
X77996468Y-68645189D01*
X78044849Y-68620998D01*
X78093230Y-68620998D01*
X78165801Y-68645189D01*
X78456087Y-68935475D01*
X78456087Y-68620998D01*
X125014384Y-69448492D02*
X124990194Y-69472683D01*
X124917622Y-69496873D01*
X124869241Y-69496873D01*
X124796670Y-69472683D01*
X124748289Y-69424302D01*
X124724099Y-69375921D01*
X124699908Y-69279159D01*
X124699908Y-69206587D01*
X124724099Y-69109825D01*
X124748289Y-69061444D01*
X124796670Y-69013064D01*
X124869241Y-68988873D01*
X124917622Y-68988873D01*
X124990194Y-69013064D01*
X125014384Y-69037254D01*
X125207908Y-69037254D02*
X125232099Y-69013064D01*
X125280480Y-68988873D01*
X125401432Y-68988873D01*
X125449813Y-69013064D01*
X125474003Y-69037254D01*
X125498194Y-69085635D01*
X125498194Y-69134016D01*
X125474003Y-69206587D01*
X125183718Y-69496873D01*
X125498194Y-69496873D01*
X125812670Y-68988873D02*
X125861051Y-68988873D01*
X125909432Y-69013064D01*
X125933622Y-69037254D01*
X125957813Y-69085635D01*
X125982003Y-69182397D01*
X125982003Y-69303349D01*
X125957813Y-69400111D01*
X125933622Y-69448492D01*
X125909432Y-69472683D01*
X125861051Y-69496873D01*
X125812670Y-69496873D01*
X125764289Y-69472683D01*
X125740099Y-69448492D01*
X125715908Y-69400111D01*
X125691718Y-69303349D01*
X125691718Y-69182397D01*
X125715908Y-69085635D01*
X125740099Y-69037254D01*
X125764289Y-69013064D01*
X125812670Y-68988873D01*
X126441622Y-68988873D02*
X126199718Y-68988873D01*
X126175527Y-69230778D01*
X126199718Y-69206587D01*
X126248099Y-69182397D01*
X126369051Y-69182397D01*
X126417432Y-69206587D01*
X126441622Y-69230778D01*
X126465813Y-69279159D01*
X126465813Y-69400111D01*
X126441622Y-69448492D01*
X126417432Y-69472683D01*
X126369051Y-69496873D01*
X126248099Y-69496873D01*
X126199718Y-69472683D01*
X126175527Y-69448492D01*
X92643801Y-99107046D02*
X92619611Y-99131237D01*
X92547039Y-99155427D01*
X92498658Y-99155427D01*
X92426087Y-99131237D01*
X92377706Y-99082856D01*
X92353516Y-99034475D01*
X92329325Y-98937713D01*
X92329325Y-98865141D01*
X92353516Y-98768379D01*
X92377706Y-98719998D01*
X92426087Y-98671618D01*
X92498658Y-98647427D01*
X92547039Y-98647427D01*
X92619611Y-98671618D01*
X92643801Y-98695808D01*
X92885706Y-99155427D02*
X92982468Y-99155427D01*
X93030849Y-99131237D01*
X93055039Y-99107046D01*
X93103420Y-99034475D01*
X93127611Y-98937713D01*
X93127611Y-98744189D01*
X93103420Y-98695808D01*
X93079230Y-98671618D01*
X93030849Y-98647427D01*
X92934087Y-98647427D01*
X92885706Y-98671618D01*
X92861516Y-98695808D01*
X92837325Y-98744189D01*
X92837325Y-98865141D01*
X92861516Y-98913522D01*
X92885706Y-98937713D01*
X92934087Y-98961903D01*
X93030849Y-98961903D01*
X93079230Y-98937713D01*
X93103420Y-98913522D01*
X93127611Y-98865141D01*
X93442087Y-98647427D02*
X93490468Y-98647427D01*
X93538849Y-98671618D01*
X93563039Y-98695808D01*
X93587230Y-98744189D01*
X93611420Y-98840951D01*
X93611420Y-98961903D01*
X93587230Y-99058665D01*
X93563039Y-99107046D01*
X93538849Y-99131237D01*
X93490468Y-99155427D01*
X93442087Y-99155427D01*
X93393706Y-99131237D01*
X93369516Y-99107046D01*
X93345325Y-99058665D01*
X93321135Y-98961903D01*
X93321135Y-98840951D01*
X93345325Y-98744189D01*
X93369516Y-98695808D01*
X93393706Y-98671618D01*
X93442087Y-98647427D01*
X93804944Y-98695808D02*
X93829135Y-98671618D01*
X93877516Y-98647427D01*
X93998468Y-98647427D01*
X94046849Y-98671618D01*
X94071039Y-98695808D01*
X94095230Y-98744189D01*
X94095230Y-98792570D01*
X94071039Y-98865141D01*
X93780754Y-99155427D01*
X94095230Y-99155427D01*
X97076706Y-115623094D02*
X97100897Y-115647284D01*
X97125087Y-115719856D01*
X97125087Y-115768237D01*
X97100897Y-115840808D01*
X97052516Y-115889189D01*
X97004135Y-115913379D01*
X96907373Y-115937570D01*
X96834801Y-115937570D01*
X96738039Y-115913379D01*
X96689658Y-115889189D01*
X96641278Y-115840808D01*
X96617087Y-115768237D01*
X96617087Y-115719856D01*
X96641278Y-115647284D01*
X96665468Y-115623094D01*
X96617087Y-115163475D02*
X96617087Y-115405379D01*
X96858992Y-115429570D01*
X96834801Y-115405379D01*
X96810611Y-115356998D01*
X96810611Y-115236046D01*
X96834801Y-115187665D01*
X96858992Y-115163475D01*
X96907373Y-115139284D01*
X97028325Y-115139284D01*
X97076706Y-115163475D01*
X97100897Y-115187665D01*
X97125087Y-115236046D01*
X97125087Y-115356998D01*
X97100897Y-115405379D01*
X97076706Y-115429570D01*
X96617087Y-114824808D02*
X96617087Y-114776427D01*
X96641278Y-114728046D01*
X96665468Y-114703856D01*
X96713849Y-114679665D01*
X96810611Y-114655475D01*
X96931563Y-114655475D01*
X97028325Y-114679665D01*
X97076706Y-114703856D01*
X97100897Y-114728046D01*
X97125087Y-114776427D01*
X97125087Y-114824808D01*
X97100897Y-114873189D01*
X97076706Y-114897379D01*
X97028325Y-114921570D01*
X96931563Y-114945760D01*
X96810611Y-114945760D01*
X96713849Y-114921570D01*
X96665468Y-114897379D01*
X96641278Y-114873189D01*
X96617087Y-114824808D01*
X97125087Y-114413570D02*
X97125087Y-114316808D01*
X97100897Y-114268427D01*
X97076706Y-114244237D01*
X97004135Y-114195856D01*
X96907373Y-114171665D01*
X96713849Y-114171665D01*
X96665468Y-114195856D01*
X96641278Y-114220046D01*
X96617087Y-114268427D01*
X96617087Y-114365189D01*
X96641278Y-114413570D01*
X96665468Y-114437760D01*
X96713849Y-114461951D01*
X96834801Y-114461951D01*
X96883182Y-114437760D01*
X96907373Y-114413570D01*
X96931563Y-114365189D01*
X96931563Y-114268427D01*
X96907373Y-114220046D01*
X96883182Y-114195856D01*
X96834801Y-114171665D01*
X123377801Y-97885427D02*
X123208468Y-97643522D01*
X123087516Y-97885427D02*
X123087516Y-97377427D01*
X123281039Y-97377427D01*
X123329420Y-97401618D01*
X123353611Y-97425808D01*
X123377801Y-97474189D01*
X123377801Y-97546760D01*
X123353611Y-97595141D01*
X123329420Y-97619332D01*
X123281039Y-97643522D01*
X123087516Y-97643522D01*
X123837420Y-97377427D02*
X123595516Y-97377427D01*
X123571325Y-97619332D01*
X123595516Y-97595141D01*
X123643897Y-97570951D01*
X123764849Y-97570951D01*
X123813230Y-97595141D01*
X123837420Y-97619332D01*
X123861611Y-97667713D01*
X123861611Y-97788665D01*
X123837420Y-97837046D01*
X123813230Y-97861237D01*
X123764849Y-97885427D01*
X123643897Y-97885427D01*
X123595516Y-97861237D01*
X123571325Y-97837046D01*
X124176087Y-97377427D02*
X124224468Y-97377427D01*
X124272849Y-97401618D01*
X124297039Y-97425808D01*
X124321230Y-97474189D01*
X124345420Y-97570951D01*
X124345420Y-97691903D01*
X124321230Y-97788665D01*
X124297039Y-97837046D01*
X124272849Y-97861237D01*
X124224468Y-97885427D01*
X124176087Y-97885427D01*
X124127706Y-97861237D01*
X124103516Y-97837046D01*
X124079325Y-97788665D01*
X124055135Y-97691903D01*
X124055135Y-97570951D01*
X124079325Y-97474189D01*
X124103516Y-97425808D01*
X124127706Y-97401618D01*
X124176087Y-97377427D01*
X124538944Y-97425808D02*
X124563135Y-97401618D01*
X124611516Y-97377427D01*
X124732468Y-97377427D01*
X124780849Y-97401618D01*
X124805039Y-97425808D01*
X124829230Y-97474189D01*
X124829230Y-97522570D01*
X124805039Y-97595141D01*
X124514754Y-97885427D01*
X124829230Y-97885427D01*
X107037135Y-117062427D02*
X107037135Y-117425284D01*
X107012944Y-117497856D01*
X106964563Y-117546237D01*
X106891992Y-117570427D01*
X106843611Y-117570427D01*
X107351611Y-117280141D02*
X107303230Y-117255951D01*
X107279039Y-117231760D01*
X107254849Y-117183379D01*
X107254849Y-117159189D01*
X107279039Y-117110808D01*
X107303230Y-117086618D01*
X107351611Y-117062427D01*
X107448373Y-117062427D01*
X107496754Y-117086618D01*
X107520944Y-117110808D01*
X107545135Y-117159189D01*
X107545135Y-117183379D01*
X107520944Y-117231760D01*
X107496754Y-117255951D01*
X107448373Y-117280141D01*
X107351611Y-117280141D01*
X107303230Y-117304332D01*
X107279039Y-117328522D01*
X107254849Y-117376903D01*
X107254849Y-117473665D01*
X107279039Y-117522046D01*
X107303230Y-117546237D01*
X107351611Y-117570427D01*
X107448373Y-117570427D01*
X107496754Y-117546237D01*
X107520944Y-117522046D01*
X107545135Y-117473665D01*
X107545135Y-117376903D01*
X107520944Y-117328522D01*
X107496754Y-117304332D01*
X107448373Y-117280141D01*
X107859611Y-117062427D02*
X107907992Y-117062427D01*
X107956373Y-117086618D01*
X107980563Y-117110808D01*
X108004754Y-117159189D01*
X108028944Y-117255951D01*
X108028944Y-117376903D01*
X108004754Y-117473665D01*
X107980563Y-117522046D01*
X107956373Y-117546237D01*
X107907992Y-117570427D01*
X107859611Y-117570427D01*
X107811230Y-117546237D01*
X107787039Y-117522046D01*
X107762849Y-117473665D01*
X107738658Y-117376903D01*
X107738658Y-117255951D01*
X107762849Y-117159189D01*
X107787039Y-117110808D01*
X107811230Y-117086618D01*
X107859611Y-117062427D01*
X108198278Y-117062427D02*
X108512754Y-117062427D01*
X108343420Y-117255951D01*
X108415992Y-117255951D01*
X108464373Y-117280141D01*
X108488563Y-117304332D01*
X108512754Y-117352713D01*
X108512754Y-117473665D01*
X108488563Y-117522046D01*
X108464373Y-117546237D01*
X108415992Y-117570427D01*
X108270849Y-117570427D01*
X108222468Y-117546237D01*
X108198278Y-117522046D01*
X122912135Y-82633332D02*
X122742801Y-82633332D01*
X122742801Y-82899427D02*
X122742801Y-82391427D01*
X122984706Y-82391427D01*
X123347563Y-82633332D02*
X123420135Y-82657522D01*
X123444325Y-82681713D01*
X123468516Y-82730094D01*
X123468516Y-82802665D01*
X123444325Y-82851046D01*
X123420135Y-82875237D01*
X123371754Y-82899427D01*
X123178230Y-82899427D01*
X123178230Y-82391427D01*
X123347563Y-82391427D01*
X123395944Y-82415618D01*
X123420135Y-82439808D01*
X123444325Y-82488189D01*
X123444325Y-82536570D01*
X123420135Y-82584951D01*
X123395944Y-82609141D01*
X123347563Y-82633332D01*
X123178230Y-82633332D01*
X123662039Y-82439808D02*
X123686230Y-82415618D01*
X123734611Y-82391427D01*
X123855563Y-82391427D01*
X123903944Y-82415618D01*
X123928135Y-82439808D01*
X123952325Y-82488189D01*
X123952325Y-82536570D01*
X123928135Y-82609141D01*
X123637849Y-82899427D01*
X123952325Y-82899427D01*
X124266801Y-82391427D02*
X124315182Y-82391427D01*
X124363563Y-82415618D01*
X124387754Y-82439808D01*
X124411944Y-82488189D01*
X124436135Y-82584951D01*
X124436135Y-82705903D01*
X124411944Y-82802665D01*
X124387754Y-82851046D01*
X124363563Y-82875237D01*
X124315182Y-82899427D01*
X124266801Y-82899427D01*
X124218420Y-82875237D01*
X124194230Y-82851046D01*
X124170039Y-82802665D01*
X124145849Y-82705903D01*
X124145849Y-82584951D01*
X124170039Y-82488189D01*
X124194230Y-82439808D01*
X124218420Y-82415618D01*
X124266801Y-82391427D01*
X124919944Y-82899427D02*
X124629658Y-82899427D01*
X124774801Y-82899427D02*
X124774801Y-82391427D01*
X124726420Y-82463998D01*
X124678039Y-82512379D01*
X124629658Y-82536570D01*
X92897801Y-81835046D02*
X92873611Y-81859237D01*
X92801039Y-81883427D01*
X92752658Y-81883427D01*
X92680087Y-81859237D01*
X92631706Y-81810856D01*
X92607516Y-81762475D01*
X92583325Y-81665713D01*
X92583325Y-81593141D01*
X92607516Y-81496379D01*
X92631706Y-81447998D01*
X92680087Y-81399618D01*
X92752658Y-81375427D01*
X92801039Y-81375427D01*
X92873611Y-81399618D01*
X92897801Y-81423808D01*
X93067135Y-81375427D02*
X93381611Y-81375427D01*
X93212278Y-81568951D01*
X93284849Y-81568951D01*
X93333230Y-81593141D01*
X93357420Y-81617332D01*
X93381611Y-81665713D01*
X93381611Y-81786665D01*
X93357420Y-81835046D01*
X93333230Y-81859237D01*
X93284849Y-81883427D01*
X93139706Y-81883427D01*
X93091325Y-81859237D01*
X93067135Y-81835046D01*
X93696087Y-81375427D02*
X93744468Y-81375427D01*
X93792849Y-81399618D01*
X93817039Y-81423808D01*
X93841230Y-81472189D01*
X93865420Y-81568951D01*
X93865420Y-81689903D01*
X93841230Y-81786665D01*
X93817039Y-81835046D01*
X93792849Y-81859237D01*
X93744468Y-81883427D01*
X93696087Y-81883427D01*
X93647706Y-81859237D01*
X93623516Y-81835046D01*
X93599325Y-81786665D01*
X93575135Y-81689903D01*
X93575135Y-81568951D01*
X93599325Y-81472189D01*
X93623516Y-81423808D01*
X93647706Y-81399618D01*
X93696087Y-81375427D01*
X94034754Y-81375427D02*
X94349230Y-81375427D01*
X94179897Y-81568951D01*
X94252468Y-81568951D01*
X94300849Y-81593141D01*
X94325039Y-81617332D01*
X94349230Y-81665713D01*
X94349230Y-81786665D01*
X94325039Y-81835046D01*
X94300849Y-81859237D01*
X94252468Y-81883427D01*
X94107325Y-81883427D01*
X94058944Y-81859237D01*
X94034754Y-81835046D01*
X92008801Y-91789427D02*
X91839468Y-91547522D01*
X91718516Y-91789427D02*
X91718516Y-91281427D01*
X91912039Y-91281427D01*
X91960420Y-91305618D01*
X91984611Y-91329808D01*
X92008801Y-91378189D01*
X92008801Y-91450760D01*
X91984611Y-91499141D01*
X91960420Y-91523332D01*
X91912039Y-91547522D01*
X91718516Y-91547522D01*
X92250706Y-91789427D02*
X92347468Y-91789427D01*
X92395849Y-91765237D01*
X92420039Y-91741046D01*
X92468420Y-91668475D01*
X92492611Y-91571713D01*
X92492611Y-91378189D01*
X92468420Y-91329808D01*
X92444230Y-91305618D01*
X92395849Y-91281427D01*
X92299087Y-91281427D01*
X92250706Y-91305618D01*
X92226516Y-91329808D01*
X92202325Y-91378189D01*
X92202325Y-91499141D01*
X92226516Y-91547522D01*
X92250706Y-91571713D01*
X92299087Y-91595903D01*
X92395849Y-91595903D01*
X92444230Y-91571713D01*
X92468420Y-91547522D01*
X92492611Y-91499141D01*
X92807087Y-91281427D02*
X92855468Y-91281427D01*
X92903849Y-91305618D01*
X92928039Y-91329808D01*
X92952230Y-91378189D01*
X92976420Y-91474951D01*
X92976420Y-91595903D01*
X92952230Y-91692665D01*
X92928039Y-91741046D01*
X92903849Y-91765237D01*
X92855468Y-91789427D01*
X92807087Y-91789427D01*
X92758706Y-91765237D01*
X92734516Y-91741046D01*
X92710325Y-91692665D01*
X92686135Y-91595903D01*
X92686135Y-91474951D01*
X92710325Y-91378189D01*
X92734516Y-91329808D01*
X92758706Y-91305618D01*
X92807087Y-91281427D01*
X93411849Y-91281427D02*
X93315087Y-91281427D01*
X93266706Y-91305618D01*
X93242516Y-91329808D01*
X93194135Y-91402379D01*
X93169944Y-91499141D01*
X93169944Y-91692665D01*
X93194135Y-91741046D01*
X93218325Y-91765237D01*
X93266706Y-91789427D01*
X93363468Y-91789427D01*
X93411849Y-91765237D01*
X93436039Y-91741046D01*
X93460230Y-91692665D01*
X93460230Y-91571713D01*
X93436039Y-91523332D01*
X93411849Y-91499141D01*
X93363468Y-91474951D01*
X93266706Y-91474951D01*
X93218325Y-91499141D01*
X93194135Y-91523332D01*
X93169944Y-91571713D01*
X98722260Y-91789427D02*
X98552927Y-91547522D01*
X98431975Y-91789427D02*
X98431975Y-91281427D01*
X98625498Y-91281427D01*
X98673879Y-91305618D01*
X98698070Y-91329808D01*
X98722260Y-91378189D01*
X98722260Y-91450760D01*
X98698070Y-91499141D01*
X98673879Y-91523332D01*
X98625498Y-91547522D01*
X98431975Y-91547522D01*
X98964165Y-91789427D02*
X99060927Y-91789427D01*
X99109308Y-91765237D01*
X99133498Y-91741046D01*
X99181879Y-91668475D01*
X99206070Y-91571713D01*
X99206070Y-91378189D01*
X99181879Y-91329808D01*
X99157689Y-91305618D01*
X99109308Y-91281427D01*
X99012546Y-91281427D01*
X98964165Y-91305618D01*
X98939975Y-91329808D01*
X98915784Y-91378189D01*
X98915784Y-91499141D01*
X98939975Y-91547522D01*
X98964165Y-91571713D01*
X99012546Y-91595903D01*
X99109308Y-91595903D01*
X99157689Y-91571713D01*
X99181879Y-91547522D01*
X99206070Y-91499141D01*
X99520546Y-91281427D02*
X99568927Y-91281427D01*
X99617308Y-91305618D01*
X99641498Y-91329808D01*
X99665689Y-91378189D01*
X99689879Y-91474951D01*
X99689879Y-91595903D01*
X99665689Y-91692665D01*
X99641498Y-91741046D01*
X99617308Y-91765237D01*
X99568927Y-91789427D01*
X99520546Y-91789427D01*
X99472165Y-91765237D01*
X99447975Y-91741046D01*
X99423784Y-91692665D01*
X99399594Y-91595903D01*
X99399594Y-91474951D01*
X99423784Y-91378189D01*
X99447975Y-91329808D01*
X99472165Y-91305618D01*
X99520546Y-91281427D01*
X100149498Y-91281427D02*
X99907594Y-91281427D01*
X99883403Y-91523332D01*
X99907594Y-91499141D01*
X99955975Y-91474951D01*
X100076927Y-91474951D01*
X100125308Y-91499141D01*
X100149498Y-91523332D01*
X100173689Y-91571713D01*
X100173689Y-91692665D01*
X100149498Y-91741046D01*
X100125308Y-91765237D01*
X100076927Y-91789427D01*
X99955975Y-91789427D01*
X99907594Y-91765237D01*
X99883403Y-91741046D01*
X114965226Y-77871388D02*
X114723321Y-78040721D01*
X114965226Y-78161673D02*
X114457226Y-78161673D01*
X114457226Y-77968150D01*
X114481417Y-77919769D01*
X114505607Y-77895578D01*
X114553988Y-77871388D01*
X114626559Y-77871388D01*
X114674940Y-77895578D01*
X114699131Y-77919769D01*
X114723321Y-77968150D01*
X114723321Y-78161673D01*
X114674940Y-77581102D02*
X114650750Y-77629483D01*
X114626559Y-77653673D01*
X114578178Y-77677864D01*
X114553988Y-77677864D01*
X114505607Y-77653673D01*
X114481417Y-77629483D01*
X114457226Y-77581102D01*
X114457226Y-77484340D01*
X114481417Y-77435959D01*
X114505607Y-77411769D01*
X114553988Y-77387578D01*
X114578178Y-77387578D01*
X114626559Y-77411769D01*
X114650750Y-77435959D01*
X114674940Y-77484340D01*
X114674940Y-77581102D01*
X114699131Y-77629483D01*
X114723321Y-77653673D01*
X114771702Y-77677864D01*
X114868464Y-77677864D01*
X114916845Y-77653673D01*
X114941036Y-77629483D01*
X114965226Y-77581102D01*
X114965226Y-77484340D01*
X114941036Y-77435959D01*
X114916845Y-77411769D01*
X114868464Y-77387578D01*
X114771702Y-77387578D01*
X114723321Y-77411769D01*
X114699131Y-77435959D01*
X114674940Y-77484340D01*
X114457226Y-77073102D02*
X114457226Y-77024721D01*
X114481417Y-76976340D01*
X114505607Y-76952150D01*
X114553988Y-76927959D01*
X114650750Y-76903769D01*
X114771702Y-76903769D01*
X114868464Y-76927959D01*
X114916845Y-76952150D01*
X114941036Y-76976340D01*
X114965226Y-77024721D01*
X114965226Y-77073102D01*
X114941036Y-77121483D01*
X114916845Y-77145673D01*
X114868464Y-77169864D01*
X114771702Y-77194054D01*
X114650750Y-77194054D01*
X114553988Y-77169864D01*
X114505607Y-77145673D01*
X114481417Y-77121483D01*
X114457226Y-77073102D01*
X114674940Y-76613483D02*
X114650750Y-76661864D01*
X114626559Y-76686054D01*
X114578178Y-76710245D01*
X114553988Y-76710245D01*
X114505607Y-76686054D01*
X114481417Y-76661864D01*
X114457226Y-76613483D01*
X114457226Y-76516721D01*
X114481417Y-76468340D01*
X114505607Y-76444150D01*
X114553988Y-76419959D01*
X114578178Y-76419959D01*
X114626559Y-76444150D01*
X114650750Y-76468340D01*
X114674940Y-76516721D01*
X114674940Y-76613483D01*
X114699131Y-76661864D01*
X114723321Y-76686054D01*
X114771702Y-76710245D01*
X114868464Y-76710245D01*
X114916845Y-76686054D01*
X114941036Y-76661864D01*
X114965226Y-76613483D01*
X114965226Y-76516721D01*
X114941036Y-76468340D01*
X114916845Y-76444150D01*
X114868464Y-76419959D01*
X114771702Y-76419959D01*
X114723321Y-76444150D01*
X114699131Y-76468340D01*
X114674940Y-76516721D01*
X127012420Y-69310427D02*
X127012420Y-69721665D01*
X127036611Y-69770046D01*
X127060801Y-69794237D01*
X127109182Y-69818427D01*
X127205944Y-69818427D01*
X127254325Y-69794237D01*
X127278516Y-69770046D01*
X127302706Y-69721665D01*
X127302706Y-69310427D01*
X127520420Y-69358808D02*
X127544611Y-69334618D01*
X127592992Y-69310427D01*
X127713944Y-69310427D01*
X127762325Y-69334618D01*
X127786516Y-69358808D01*
X127810706Y-69407189D01*
X127810706Y-69455570D01*
X127786516Y-69528141D01*
X127496230Y-69818427D01*
X127810706Y-69818427D01*
X128125182Y-69310427D02*
X128173563Y-69310427D01*
X128221944Y-69334618D01*
X128246135Y-69358808D01*
X128270325Y-69407189D01*
X128294516Y-69503951D01*
X128294516Y-69624903D01*
X128270325Y-69721665D01*
X128246135Y-69770046D01*
X128221944Y-69794237D01*
X128173563Y-69818427D01*
X128125182Y-69818427D01*
X128076801Y-69794237D01*
X128052611Y-69770046D01*
X128028420Y-69721665D01*
X128004230Y-69624903D01*
X128004230Y-69503951D01*
X128028420Y-69407189D01*
X128052611Y-69358808D01*
X128076801Y-69334618D01*
X128125182Y-69310427D01*
X128778325Y-69818427D02*
X128488039Y-69818427D01*
X128633182Y-69818427D02*
X128633182Y-69310427D01*
X128584801Y-69382998D01*
X128536420Y-69431379D01*
X128488039Y-69455570D01*
X123819278Y-70326427D02*
X123819278Y-70447379D01*
X123698325Y-70398998D02*
X123819278Y-70447379D01*
X123940230Y-70398998D01*
X123746706Y-70544141D02*
X123819278Y-70447379D01*
X123891849Y-70544141D01*
X77319135Y-114879237D02*
X77391706Y-114903427D01*
X77512658Y-114903427D01*
X77561039Y-114879237D01*
X77585230Y-114855046D01*
X77609420Y-114806665D01*
X77609420Y-114758284D01*
X77585230Y-114709903D01*
X77561039Y-114685713D01*
X77512658Y-114661522D01*
X77415897Y-114637332D01*
X77367516Y-114613141D01*
X77343325Y-114588951D01*
X77319135Y-114540570D01*
X77319135Y-114492189D01*
X77343325Y-114443808D01*
X77367516Y-114419618D01*
X77415897Y-114395427D01*
X77536849Y-114395427D01*
X77609420Y-114419618D01*
X77778754Y-114395427D02*
X77899706Y-114903427D01*
X77996468Y-114540570D01*
X78093230Y-114903427D01*
X78214182Y-114395427D01*
X78359325Y-114395427D02*
X78697992Y-114395427D01*
X78480278Y-114903427D01*
X78988278Y-114395427D02*
X79036658Y-114395427D01*
X79085039Y-114419618D01*
X79109230Y-114443808D01*
X79133420Y-114492189D01*
X79157611Y-114588951D01*
X79157611Y-114709903D01*
X79133420Y-114806665D01*
X79109230Y-114855046D01*
X79085039Y-114879237D01*
X79036658Y-114903427D01*
X78988278Y-114903427D01*
X78939897Y-114879237D01*
X78915706Y-114855046D01*
X78891516Y-114806665D01*
X78867325Y-114709903D01*
X78867325Y-114588951D01*
X78891516Y-114492189D01*
X78915706Y-114443808D01*
X78939897Y-114419618D01*
X78988278Y-114395427D01*
X79641420Y-114903427D02*
X79351135Y-114903427D01*
X79496278Y-114903427D02*
X79496278Y-114395427D01*
X79447897Y-114467998D01*
X79399516Y-114516379D01*
X79351135Y-114540570D01*
X79882655Y-107928001D02*
X80003607Y-107928001D01*
X79955226Y-108048953D02*
X80003607Y-107928001D01*
X79955226Y-107807048D01*
X80100369Y-108000572D02*
X80003607Y-107928001D01*
X80100369Y-107855429D01*
X122869801Y-81327046D02*
X122845611Y-81351237D01*
X122773039Y-81375427D01*
X122724658Y-81375427D01*
X122652087Y-81351237D01*
X122603706Y-81302856D01*
X122579516Y-81254475D01*
X122555325Y-81157713D01*
X122555325Y-81085141D01*
X122579516Y-80988379D01*
X122603706Y-80939998D01*
X122652087Y-80891618D01*
X122724658Y-80867427D01*
X122773039Y-80867427D01*
X122845611Y-80891618D01*
X122869801Y-80915808D01*
X123063325Y-80915808D02*
X123087516Y-80891618D01*
X123135897Y-80867427D01*
X123256849Y-80867427D01*
X123305230Y-80891618D01*
X123329420Y-80915808D01*
X123353611Y-80964189D01*
X123353611Y-81012570D01*
X123329420Y-81085141D01*
X123039135Y-81375427D01*
X123353611Y-81375427D01*
X123668087Y-80867427D02*
X123716468Y-80867427D01*
X123764849Y-80891618D01*
X123789039Y-80915808D01*
X123813230Y-80964189D01*
X123837420Y-81060951D01*
X123837420Y-81181903D01*
X123813230Y-81278665D01*
X123789039Y-81327046D01*
X123764849Y-81351237D01*
X123716468Y-81375427D01*
X123668087Y-81375427D01*
X123619706Y-81351237D01*
X123595516Y-81327046D01*
X123571325Y-81278665D01*
X123547135Y-81181903D01*
X123547135Y-81060951D01*
X123571325Y-80964189D01*
X123595516Y-80915808D01*
X123619706Y-80891618D01*
X123668087Y-80867427D01*
X124006754Y-80867427D02*
X124321230Y-80867427D01*
X124151897Y-81060951D01*
X124224468Y-81060951D01*
X124272849Y-81085141D01*
X124297039Y-81109332D01*
X124321230Y-81157713D01*
X124321230Y-81278665D01*
X124297039Y-81327046D01*
X124272849Y-81351237D01*
X124224468Y-81375427D01*
X124079325Y-81375427D01*
X124030944Y-81351237D01*
X124006754Y-81327046D01*
X99398992Y-115580760D02*
X99398992Y-115750094D01*
X99665087Y-115750094D02*
X99157087Y-115750094D01*
X99157087Y-115508189D01*
X99398992Y-115145332D02*
X99423182Y-115072760D01*
X99447373Y-115048570D01*
X99495754Y-115024379D01*
X99568325Y-115024379D01*
X99616706Y-115048570D01*
X99640897Y-115072760D01*
X99665087Y-115121141D01*
X99665087Y-115314665D01*
X99157087Y-115314665D01*
X99157087Y-115145332D01*
X99181278Y-115096951D01*
X99205468Y-115072760D01*
X99253849Y-115048570D01*
X99302230Y-115048570D01*
X99350611Y-115072760D01*
X99374801Y-115096951D01*
X99398992Y-115145332D01*
X99398992Y-115314665D01*
X99326420Y-114588951D02*
X99665087Y-114588951D01*
X99132897Y-114709903D02*
X99495754Y-114830856D01*
X99495754Y-114516379D01*
X99157087Y-114226094D02*
X99157087Y-114177713D01*
X99181278Y-114129332D01*
X99205468Y-114105141D01*
X99253849Y-114080951D01*
X99350611Y-114056760D01*
X99471563Y-114056760D01*
X99568325Y-114080951D01*
X99616706Y-114105141D01*
X99640897Y-114129332D01*
X99665087Y-114177713D01*
X99665087Y-114226094D01*
X99640897Y-114274475D01*
X99616706Y-114298665D01*
X99568325Y-114322856D01*
X99471563Y-114347046D01*
X99350611Y-114347046D01*
X99253849Y-114322856D01*
X99205468Y-114298665D01*
X99181278Y-114274475D01*
X99157087Y-114226094D01*
X99665087Y-113572951D02*
X99665087Y-113863237D01*
X99665087Y-113718094D02*
X99157087Y-113718094D01*
X99229658Y-113766475D01*
X99278039Y-113814856D01*
X99302230Y-113863237D01*
X95607135Y-72993427D02*
X95607135Y-73356284D01*
X95582944Y-73428856D01*
X95534563Y-73477237D01*
X95461992Y-73501427D01*
X95413611Y-73501427D01*
X95921611Y-73211141D02*
X95873230Y-73186951D01*
X95849039Y-73162760D01*
X95824849Y-73114379D01*
X95824849Y-73090189D01*
X95849039Y-73041808D01*
X95873230Y-73017618D01*
X95921611Y-72993427D01*
X96018373Y-72993427D01*
X96066754Y-73017618D01*
X96090944Y-73041808D01*
X96115135Y-73090189D01*
X96115135Y-73114379D01*
X96090944Y-73162760D01*
X96066754Y-73186951D01*
X96018373Y-73211141D01*
X95921611Y-73211141D01*
X95873230Y-73235332D01*
X95849039Y-73259522D01*
X95824849Y-73307903D01*
X95824849Y-73404665D01*
X95849039Y-73453046D01*
X95873230Y-73477237D01*
X95921611Y-73501427D01*
X96018373Y-73501427D01*
X96066754Y-73477237D01*
X96090944Y-73453046D01*
X96115135Y-73404665D01*
X96115135Y-73307903D01*
X96090944Y-73259522D01*
X96066754Y-73235332D01*
X96018373Y-73211141D01*
X96429611Y-72993427D02*
X96477992Y-72993427D01*
X96526373Y-73017618D01*
X96550563Y-73041808D01*
X96574754Y-73090189D01*
X96598944Y-73186951D01*
X96598944Y-73307903D01*
X96574754Y-73404665D01*
X96550563Y-73453046D01*
X96526373Y-73477237D01*
X96477992Y-73501427D01*
X96429611Y-73501427D01*
X96381230Y-73477237D01*
X96357039Y-73453046D01*
X96332849Y-73404665D01*
X96308658Y-73307903D01*
X96308658Y-73186951D01*
X96332849Y-73090189D01*
X96357039Y-73041808D01*
X96381230Y-73017618D01*
X96429611Y-72993427D01*
X97082754Y-73501427D02*
X96792468Y-73501427D01*
X96937611Y-73501427D02*
X96937611Y-72993427D01*
X96889230Y-73065998D01*
X96840849Y-73114379D01*
X96792468Y-73138570D01*
X85912801Y-82010427D02*
X85743468Y-81768522D01*
X85622516Y-82010427D02*
X85622516Y-81502427D01*
X85816039Y-81502427D01*
X85864420Y-81526618D01*
X85888611Y-81550808D01*
X85912801Y-81599189D01*
X85912801Y-81671760D01*
X85888611Y-81720141D01*
X85864420Y-81744332D01*
X85816039Y-81768522D01*
X85622516Y-81768522D01*
X86082135Y-81502427D02*
X86396611Y-81502427D01*
X86227278Y-81695951D01*
X86299849Y-81695951D01*
X86348230Y-81720141D01*
X86372420Y-81744332D01*
X86396611Y-81792713D01*
X86396611Y-81913665D01*
X86372420Y-81962046D01*
X86348230Y-81986237D01*
X86299849Y-82010427D01*
X86154706Y-82010427D01*
X86106325Y-81986237D01*
X86082135Y-81962046D01*
X86711087Y-81502427D02*
X86759468Y-81502427D01*
X86807849Y-81526618D01*
X86832039Y-81550808D01*
X86856230Y-81599189D01*
X86880420Y-81695951D01*
X86880420Y-81816903D01*
X86856230Y-81913665D01*
X86832039Y-81962046D01*
X86807849Y-81986237D01*
X86759468Y-82010427D01*
X86711087Y-82010427D01*
X86662706Y-81986237D01*
X86638516Y-81962046D01*
X86614325Y-81913665D01*
X86590135Y-81816903D01*
X86590135Y-81695951D01*
X86614325Y-81599189D01*
X86638516Y-81550808D01*
X86662706Y-81526618D01*
X86711087Y-81502427D01*
X87315849Y-81671760D02*
X87315849Y-82010427D01*
X87194897Y-81478237D02*
X87073944Y-81841094D01*
X87388420Y-81841094D01*
X116870563Y-101955475D02*
X116870563Y-101786141D01*
X116604468Y-101786141D02*
X117112468Y-101786141D01*
X117112468Y-102028046D01*
X116870563Y-102390903D02*
X116846373Y-102463475D01*
X116822182Y-102487665D01*
X116773801Y-102511856D01*
X116701230Y-102511856D01*
X116652849Y-102487665D01*
X116628658Y-102463475D01*
X116604468Y-102415094D01*
X116604468Y-102221570D01*
X117112468Y-102221570D01*
X117112468Y-102390903D01*
X117088278Y-102439284D01*
X117064087Y-102463475D01*
X117015706Y-102487665D01*
X116967325Y-102487665D01*
X116918944Y-102463475D01*
X116894754Y-102439284D01*
X116870563Y-102390903D01*
X116870563Y-102221570D01*
X116894754Y-102802141D02*
X116918944Y-102753760D01*
X116943135Y-102729570D01*
X116991516Y-102705379D01*
X117015706Y-102705379D01*
X117064087Y-102729570D01*
X117088278Y-102753760D01*
X117112468Y-102802141D01*
X117112468Y-102898903D01*
X117088278Y-102947284D01*
X117064087Y-102971475D01*
X117015706Y-102995665D01*
X116991516Y-102995665D01*
X116943135Y-102971475D01*
X116918944Y-102947284D01*
X116894754Y-102898903D01*
X116894754Y-102802141D01*
X116870563Y-102753760D01*
X116846373Y-102729570D01*
X116797992Y-102705379D01*
X116701230Y-102705379D01*
X116652849Y-102729570D01*
X116628658Y-102753760D01*
X116604468Y-102802141D01*
X116604468Y-102898903D01*
X116628658Y-102947284D01*
X116652849Y-102971475D01*
X116701230Y-102995665D01*
X116797992Y-102995665D01*
X116846373Y-102971475D01*
X116870563Y-102947284D01*
X116894754Y-102898903D01*
X117112468Y-103310141D02*
X117112468Y-103358522D01*
X117088278Y-103406903D01*
X117064087Y-103431094D01*
X117015706Y-103455284D01*
X116918944Y-103479475D01*
X116797992Y-103479475D01*
X116701230Y-103455284D01*
X116652849Y-103431094D01*
X116628658Y-103406903D01*
X116604468Y-103358522D01*
X116604468Y-103310141D01*
X116628658Y-103261760D01*
X116652849Y-103237570D01*
X116701230Y-103213379D01*
X116797992Y-103189189D01*
X116918944Y-103189189D01*
X117015706Y-103213379D01*
X117064087Y-103237570D01*
X117088278Y-103261760D01*
X117112468Y-103310141D01*
X116604468Y-103963284D02*
X116604468Y-103672998D01*
X116604468Y-103818141D02*
X117112468Y-103818141D01*
X117039897Y-103769760D01*
X116991516Y-103721379D01*
X116967325Y-103672998D01*
X126032706Y-111220427D02*
X126032706Y-111631665D01*
X126056897Y-111680046D01*
X126081087Y-111704237D01*
X126129468Y-111728427D01*
X126226230Y-111728427D01*
X126274611Y-111704237D01*
X126298801Y-111680046D01*
X126322992Y-111631665D01*
X126322992Y-111220427D01*
X126758420Y-111704237D02*
X126710039Y-111728427D01*
X126613278Y-111728427D01*
X126564897Y-111704237D01*
X126540706Y-111655856D01*
X126540706Y-111462332D01*
X126564897Y-111413951D01*
X126613278Y-111389760D01*
X126710039Y-111389760D01*
X126758420Y-111413951D01*
X126782611Y-111462332D01*
X126782611Y-111510713D01*
X126540706Y-111559094D01*
X127242230Y-111220427D02*
X127000325Y-111220427D01*
X126976135Y-111462332D01*
X127000325Y-111438141D01*
X127048706Y-111413951D01*
X127169658Y-111413951D01*
X127218039Y-111438141D01*
X127242230Y-111462332D01*
X127266420Y-111510713D01*
X127266420Y-111631665D01*
X127242230Y-111680046D01*
X127218039Y-111704237D01*
X127169658Y-111728427D01*
X127048706Y-111728427D01*
X127000325Y-111704237D01*
X126976135Y-111680046D01*
X127580897Y-111220427D02*
X127629278Y-111220427D01*
X127677658Y-111244618D01*
X127701849Y-111268808D01*
X127726039Y-111317189D01*
X127750230Y-111413951D01*
X127750230Y-111534903D01*
X127726039Y-111631665D01*
X127701849Y-111680046D01*
X127677658Y-111704237D01*
X127629278Y-111728427D01*
X127580897Y-111728427D01*
X127532516Y-111704237D01*
X127508325Y-111680046D01*
X127484135Y-111631665D01*
X127459944Y-111534903D01*
X127459944Y-111413951D01*
X127484135Y-111317189D01*
X127508325Y-111268808D01*
X127532516Y-111244618D01*
X127580897Y-111220427D01*
X128234039Y-111728427D02*
X127943754Y-111728427D01*
X128088897Y-111728427D02*
X128088897Y-111220427D01*
X128040516Y-111292998D01*
X127992135Y-111341379D01*
X127943754Y-111365570D01*
X129510087Y-118150998D02*
X129510087Y-117860713D01*
X130018087Y-118005856D02*
X129510087Y-118005856D01*
X130018087Y-117691379D02*
X129510087Y-117691379D01*
X129510087Y-117497856D01*
X129534278Y-117449475D01*
X129558468Y-117425284D01*
X129606849Y-117401094D01*
X129679420Y-117401094D01*
X129727801Y-117425284D01*
X129751992Y-117449475D01*
X129776182Y-117497856D01*
X129776182Y-117691379D01*
X129993897Y-117207570D02*
X130018087Y-117134998D01*
X130018087Y-117014046D01*
X129993897Y-116965665D01*
X129969706Y-116941475D01*
X129921325Y-116917284D01*
X129872944Y-116917284D01*
X129824563Y-116941475D01*
X129800373Y-116965665D01*
X129776182Y-117014046D01*
X129751992Y-117110808D01*
X129727801Y-117159189D01*
X129703611Y-117183379D01*
X129655230Y-117207570D01*
X129606849Y-117207570D01*
X129558468Y-117183379D01*
X129534278Y-117159189D01*
X129510087Y-117110808D01*
X129510087Y-116989856D01*
X129534278Y-116917284D01*
X130018087Y-116699570D02*
X129510087Y-116699570D01*
X129872944Y-116530237D01*
X129510087Y-116360903D01*
X130018087Y-116360903D01*
X129727801Y-116046427D02*
X129703611Y-116094808D01*
X129679420Y-116118998D01*
X129631039Y-116143189D01*
X129606849Y-116143189D01*
X129558468Y-116118998D01*
X129534278Y-116094808D01*
X129510087Y-116046427D01*
X129510087Y-115949665D01*
X129534278Y-115901284D01*
X129558468Y-115877094D01*
X129606849Y-115852903D01*
X129631039Y-115852903D01*
X129679420Y-115877094D01*
X129703611Y-115901284D01*
X129727801Y-115949665D01*
X129727801Y-116046427D01*
X129751992Y-116094808D01*
X129776182Y-116118998D01*
X129824563Y-116143189D01*
X129921325Y-116143189D01*
X129969706Y-116118998D01*
X129993897Y-116094808D01*
X130018087Y-116046427D01*
X130018087Y-115949665D01*
X129993897Y-115901284D01*
X129969706Y-115877094D01*
X129921325Y-115852903D01*
X129824563Y-115852903D01*
X129776182Y-115877094D01*
X129751992Y-115901284D01*
X129727801Y-115949665D01*
X129679420Y-115417475D02*
X130018087Y-115417475D01*
X129485897Y-115538427D02*
X129848754Y-115659379D01*
X129848754Y-115344903D01*
X129558468Y-115175570D02*
X129534278Y-115151379D01*
X129510087Y-115102998D01*
X129510087Y-114982046D01*
X129534278Y-114933665D01*
X129558468Y-114909475D01*
X129606849Y-114885284D01*
X129655230Y-114885284D01*
X129727801Y-114909475D01*
X130018087Y-115199760D01*
X130018087Y-114885284D01*
X129510087Y-114570808D02*
X129510087Y-114522427D01*
X129534278Y-114474046D01*
X129558468Y-114449856D01*
X129606849Y-114425665D01*
X129703611Y-114401475D01*
X129824563Y-114401475D01*
X129921325Y-114425665D01*
X129969706Y-114449856D01*
X129993897Y-114474046D01*
X130018087Y-114522427D01*
X130018087Y-114570808D01*
X129993897Y-114619189D01*
X129969706Y-114643379D01*
X129921325Y-114667570D01*
X129824563Y-114691760D01*
X129703611Y-114691760D01*
X129606849Y-114667570D01*
X129558468Y-114643379D01*
X129534278Y-114619189D01*
X129510087Y-114570808D01*
X129510087Y-114232141D02*
X129510087Y-113917665D01*
X129703611Y-114086998D01*
X129703611Y-114014427D01*
X129727801Y-113966046D01*
X129751992Y-113941856D01*
X129800373Y-113917665D01*
X129921325Y-113917665D01*
X129969706Y-113941856D01*
X129993897Y-113966046D01*
X130018087Y-114014427D01*
X130018087Y-114159570D01*
X129993897Y-114207951D01*
X129969706Y-114232141D01*
X129751992Y-113699951D02*
X129751992Y-113530618D01*
X130018087Y-113458046D02*
X130018087Y-113699951D01*
X129510087Y-113699951D01*
X129510087Y-113458046D01*
X129872944Y-113264522D02*
X129872944Y-113022618D01*
X130018087Y-113312903D02*
X129510087Y-113143570D01*
X130018087Y-112974237D01*
X129751992Y-112635570D02*
X129776182Y-112562998D01*
X129800373Y-112538808D01*
X129848754Y-112514618D01*
X129921325Y-112514618D01*
X129969706Y-112538808D01*
X129993897Y-112562998D01*
X130018087Y-112611379D01*
X130018087Y-112804903D01*
X129510087Y-112804903D01*
X129510087Y-112635570D01*
X129534278Y-112587189D01*
X129558468Y-112562998D01*
X129606849Y-112538808D01*
X129655230Y-112538808D01*
X129703611Y-112562998D01*
X129727801Y-112587189D01*
X129751992Y-112635570D01*
X129751992Y-112804903D01*
X125700087Y-113784618D02*
X125821039Y-113784618D01*
X125772658Y-113905570D02*
X125821039Y-113784618D01*
X125772658Y-113663665D01*
X125917801Y-113857189D02*
X125821039Y-113784618D01*
X125917801Y-113712046D01*
X88198801Y-91916427D02*
X88029468Y-91674522D01*
X87908516Y-91916427D02*
X87908516Y-91408427D01*
X88102039Y-91408427D01*
X88150420Y-91432618D01*
X88174611Y-91456808D01*
X88198801Y-91505189D01*
X88198801Y-91577760D01*
X88174611Y-91626141D01*
X88150420Y-91650332D01*
X88102039Y-91674522D01*
X87908516Y-91674522D01*
X88440706Y-91916427D02*
X88537468Y-91916427D01*
X88585849Y-91892237D01*
X88610039Y-91868046D01*
X88658420Y-91795475D01*
X88682611Y-91698713D01*
X88682611Y-91505189D01*
X88658420Y-91456808D01*
X88634230Y-91432618D01*
X88585849Y-91408427D01*
X88489087Y-91408427D01*
X88440706Y-91432618D01*
X88416516Y-91456808D01*
X88392325Y-91505189D01*
X88392325Y-91626141D01*
X88416516Y-91674522D01*
X88440706Y-91698713D01*
X88489087Y-91722903D01*
X88585849Y-91722903D01*
X88634230Y-91698713D01*
X88658420Y-91674522D01*
X88682611Y-91626141D01*
X88997087Y-91408427D02*
X89045468Y-91408427D01*
X89093849Y-91432618D01*
X89118039Y-91456808D01*
X89142230Y-91505189D01*
X89166420Y-91601951D01*
X89166420Y-91722903D01*
X89142230Y-91819665D01*
X89118039Y-91868046D01*
X89093849Y-91892237D01*
X89045468Y-91916427D01*
X88997087Y-91916427D01*
X88948706Y-91892237D01*
X88924516Y-91868046D01*
X88900325Y-91819665D01*
X88876135Y-91722903D01*
X88876135Y-91601951D01*
X88900325Y-91505189D01*
X88924516Y-91456808D01*
X88948706Y-91432618D01*
X88997087Y-91408427D01*
X89601849Y-91577760D02*
X89601849Y-91916427D01*
X89480897Y-91384237D02*
X89359944Y-91747094D01*
X89674420Y-91747094D01*
X127133819Y-66808968D02*
X126964486Y-66808968D01*
X126964486Y-67075063D02*
X126964486Y-66567063D01*
X127206391Y-66567063D01*
X127399915Y-67075063D02*
X127399915Y-66567063D01*
X127641819Y-67075063D02*
X127641819Y-66567063D01*
X127762772Y-66567063D01*
X127835343Y-66591254D01*
X127883724Y-66639634D01*
X127907915Y-66688015D01*
X127932105Y-66784777D01*
X127932105Y-66857349D01*
X127907915Y-66954111D01*
X127883724Y-67002492D01*
X127835343Y-67050873D01*
X127762772Y-67075063D01*
X127641819Y-67075063D01*
X128415915Y-67075063D02*
X128125629Y-67075063D01*
X128270772Y-67075063D02*
X128270772Y-66567063D01*
X128222391Y-66639634D01*
X128174010Y-66688015D01*
X128125629Y-66712206D01*
X128730391Y-66567063D02*
X128778772Y-66567063D01*
X128827153Y-66591254D01*
X128851343Y-66615444D01*
X128875534Y-66663825D01*
X128899724Y-66760587D01*
X128899724Y-66881539D01*
X128875534Y-66978301D01*
X128851343Y-67026682D01*
X128827153Y-67050873D01*
X128778772Y-67075063D01*
X128730391Y-67075063D01*
X128682010Y-67050873D01*
X128657819Y-67026682D01*
X128633629Y-66978301D01*
X128609438Y-66881539D01*
X128609438Y-66760587D01*
X128633629Y-66663825D01*
X128657819Y-66615444D01*
X128682010Y-66591254D01*
X128730391Y-66567063D01*
X129069057Y-66567063D02*
X129383534Y-66567063D01*
X129214200Y-66760587D01*
X129286772Y-66760587D01*
X129335153Y-66784777D01*
X129359343Y-66808968D01*
X129383534Y-66857349D01*
X129383534Y-66978301D01*
X129359343Y-67026682D01*
X129335153Y-67050873D01*
X129286772Y-67075063D01*
X129141629Y-67075063D01*
X129093248Y-67050873D01*
X129069057Y-67026682D01*
X93913801Y-109394046D02*
X93889611Y-109418237D01*
X93817039Y-109442427D01*
X93768658Y-109442427D01*
X93696087Y-109418237D01*
X93647706Y-109369856D01*
X93623516Y-109321475D01*
X93599325Y-109224713D01*
X93599325Y-109152141D01*
X93623516Y-109055379D01*
X93647706Y-109006998D01*
X93696087Y-108958618D01*
X93768658Y-108934427D01*
X93817039Y-108934427D01*
X93889611Y-108958618D01*
X93913801Y-108982808D01*
X94373420Y-108934427D02*
X94131516Y-108934427D01*
X94107325Y-109176332D01*
X94131516Y-109152141D01*
X94179897Y-109127951D01*
X94300849Y-109127951D01*
X94349230Y-109152141D01*
X94373420Y-109176332D01*
X94397611Y-109224713D01*
X94397611Y-109345665D01*
X94373420Y-109394046D01*
X94349230Y-109418237D01*
X94300849Y-109442427D01*
X94179897Y-109442427D01*
X94131516Y-109418237D01*
X94107325Y-109394046D01*
X94881420Y-109442427D02*
X94591135Y-109442427D01*
X94736278Y-109442427D02*
X94736278Y-108934427D01*
X94687897Y-109006998D01*
X94639516Y-109055379D01*
X94591135Y-109079570D01*
X95195897Y-108934427D02*
X95244278Y-108934427D01*
X95292658Y-108958618D01*
X95316849Y-108982808D01*
X95341039Y-109031189D01*
X95365230Y-109127951D01*
X95365230Y-109248903D01*
X95341039Y-109345665D01*
X95316849Y-109394046D01*
X95292658Y-109418237D01*
X95244278Y-109442427D01*
X95195897Y-109442427D01*
X95147516Y-109418237D01*
X95123325Y-109394046D01*
X95099135Y-109345665D01*
X95074944Y-109248903D01*
X95074944Y-109127951D01*
X95099135Y-109031189D01*
X95123325Y-108982808D01*
X95147516Y-108958618D01*
X95195897Y-108934427D01*
X85483420Y-83788427D02*
X85483420Y-84199665D01*
X85507611Y-84248046D01*
X85531801Y-84272237D01*
X85580182Y-84296427D01*
X85676944Y-84296427D01*
X85725325Y-84272237D01*
X85749516Y-84248046D01*
X85773706Y-84199665D01*
X85773706Y-83788427D01*
X85967230Y-83788427D02*
X86281706Y-83788427D01*
X86112373Y-83981951D01*
X86184944Y-83981951D01*
X86233325Y-84006141D01*
X86257516Y-84030332D01*
X86281706Y-84078713D01*
X86281706Y-84199665D01*
X86257516Y-84248046D01*
X86233325Y-84272237D01*
X86184944Y-84296427D01*
X86039801Y-84296427D01*
X85991420Y-84272237D01*
X85967230Y-84248046D01*
X86596182Y-83788427D02*
X86644563Y-83788427D01*
X86692944Y-83812618D01*
X86717135Y-83836808D01*
X86741325Y-83885189D01*
X86765516Y-83981951D01*
X86765516Y-84102903D01*
X86741325Y-84199665D01*
X86717135Y-84248046D01*
X86692944Y-84272237D01*
X86644563Y-84296427D01*
X86596182Y-84296427D01*
X86547801Y-84272237D01*
X86523611Y-84248046D01*
X86499420Y-84199665D01*
X86475230Y-84102903D01*
X86475230Y-83981951D01*
X86499420Y-83885189D01*
X86523611Y-83836808D01*
X86547801Y-83812618D01*
X86596182Y-83788427D01*
X87249325Y-84296427D02*
X86959039Y-84296427D01*
X87104182Y-84296427D02*
X87104182Y-83788427D01*
X87055801Y-83860998D01*
X87007420Y-83909379D01*
X86959039Y-83933570D01*
X119192849Y-113343141D02*
X119168658Y-113318951D01*
X119144468Y-113246379D01*
X119144468Y-113197998D01*
X119168658Y-113125427D01*
X119217039Y-113077046D01*
X119265420Y-113052856D01*
X119362182Y-113028665D01*
X119434754Y-113028665D01*
X119531516Y-113052856D01*
X119579897Y-113077046D01*
X119628278Y-113125427D01*
X119652468Y-113197998D01*
X119652468Y-113246379D01*
X119628278Y-113318951D01*
X119604087Y-113343141D01*
X119434754Y-113633427D02*
X119458944Y-113585046D01*
X119483135Y-113560856D01*
X119531516Y-113536665D01*
X119555706Y-113536665D01*
X119604087Y-113560856D01*
X119628278Y-113585046D01*
X119652468Y-113633427D01*
X119652468Y-113730189D01*
X119628278Y-113778570D01*
X119604087Y-113802760D01*
X119555706Y-113826951D01*
X119531516Y-113826951D01*
X119483135Y-113802760D01*
X119458944Y-113778570D01*
X119434754Y-113730189D01*
X119434754Y-113633427D01*
X119410563Y-113585046D01*
X119386373Y-113560856D01*
X119337992Y-113536665D01*
X119241230Y-113536665D01*
X119192849Y-113560856D01*
X119168658Y-113585046D01*
X119144468Y-113633427D01*
X119144468Y-113730189D01*
X119168658Y-113778570D01*
X119192849Y-113802760D01*
X119241230Y-113826951D01*
X119337992Y-113826951D01*
X119386373Y-113802760D01*
X119410563Y-113778570D01*
X119434754Y-113730189D01*
X119652468Y-114141427D02*
X119652468Y-114189808D01*
X119628278Y-114238189D01*
X119604087Y-114262379D01*
X119555706Y-114286570D01*
X119458944Y-114310760D01*
X119337992Y-114310760D01*
X119241230Y-114286570D01*
X119192849Y-114262379D01*
X119168658Y-114238189D01*
X119144468Y-114189808D01*
X119144468Y-114141427D01*
X119168658Y-114093046D01*
X119192849Y-114068856D01*
X119241230Y-114044665D01*
X119337992Y-114020475D01*
X119458944Y-114020475D01*
X119555706Y-114044665D01*
X119604087Y-114068856D01*
X119628278Y-114093046D01*
X119652468Y-114141427D01*
X119483135Y-114746189D02*
X119144468Y-114746189D01*
X119676658Y-114625237D02*
X119313801Y-114504284D01*
X119313801Y-114818760D01*
X84171087Y-111051094D02*
X83929182Y-111220427D01*
X84171087Y-111341379D02*
X83663087Y-111341379D01*
X83663087Y-111147856D01*
X83687278Y-111099475D01*
X83711468Y-111075284D01*
X83759849Y-111051094D01*
X83832420Y-111051094D01*
X83880801Y-111075284D01*
X83904992Y-111099475D01*
X83929182Y-111147856D01*
X83929182Y-111341379D01*
X83880801Y-110760808D02*
X83856611Y-110809189D01*
X83832420Y-110833379D01*
X83784039Y-110857570D01*
X83759849Y-110857570D01*
X83711468Y-110833379D01*
X83687278Y-110809189D01*
X83663087Y-110760808D01*
X83663087Y-110664046D01*
X83687278Y-110615665D01*
X83711468Y-110591475D01*
X83759849Y-110567284D01*
X83784039Y-110567284D01*
X83832420Y-110591475D01*
X83856611Y-110615665D01*
X83880801Y-110664046D01*
X83880801Y-110760808D01*
X83904992Y-110809189D01*
X83929182Y-110833379D01*
X83977563Y-110857570D01*
X84074325Y-110857570D01*
X84122706Y-110833379D01*
X84146897Y-110809189D01*
X84171087Y-110760808D01*
X84171087Y-110664046D01*
X84146897Y-110615665D01*
X84122706Y-110591475D01*
X84074325Y-110567284D01*
X83977563Y-110567284D01*
X83929182Y-110591475D01*
X83904992Y-110615665D01*
X83880801Y-110664046D01*
X84171087Y-110083475D02*
X84171087Y-110373760D01*
X84171087Y-110228618D02*
X83663087Y-110228618D01*
X83735658Y-110276998D01*
X83784039Y-110325379D01*
X83808230Y-110373760D01*
X84171087Y-109599665D02*
X84171087Y-109889951D01*
X84171087Y-109744808D02*
X83663087Y-109744808D01*
X83735658Y-109793189D01*
X83784039Y-109841570D01*
X83808230Y-109889951D01*
X120837801Y-72739427D02*
X120668468Y-72497522D01*
X120547516Y-72739427D02*
X120547516Y-72231427D01*
X120741039Y-72231427D01*
X120789420Y-72255618D01*
X120813611Y-72279808D01*
X120837801Y-72328189D01*
X120837801Y-72400760D01*
X120813611Y-72449141D01*
X120789420Y-72473332D01*
X120741039Y-72497522D01*
X120547516Y-72497522D01*
X121031325Y-72279808D02*
X121055516Y-72255618D01*
X121103897Y-72231427D01*
X121224849Y-72231427D01*
X121273230Y-72255618D01*
X121297420Y-72279808D01*
X121321611Y-72328189D01*
X121321611Y-72376570D01*
X121297420Y-72449141D01*
X121007135Y-72739427D01*
X121321611Y-72739427D01*
X121636087Y-72231427D02*
X121684468Y-72231427D01*
X121732849Y-72255618D01*
X121757039Y-72279808D01*
X121781230Y-72328189D01*
X121805420Y-72424951D01*
X121805420Y-72545903D01*
X121781230Y-72642665D01*
X121757039Y-72691046D01*
X121732849Y-72715237D01*
X121684468Y-72739427D01*
X121636087Y-72739427D01*
X121587706Y-72715237D01*
X121563516Y-72691046D01*
X121539325Y-72642665D01*
X121515135Y-72545903D01*
X121515135Y-72424951D01*
X121539325Y-72328189D01*
X121563516Y-72279808D01*
X121587706Y-72255618D01*
X121636087Y-72231427D01*
X122289230Y-72739427D02*
X121998944Y-72739427D01*
X122144087Y-72739427D02*
X122144087Y-72231427D01*
X122095706Y-72303998D01*
X122047325Y-72352379D01*
X121998944Y-72376570D01*
D14*
X119882278Y-72215998D02*
X119882278Y-72454094D01*
X119644182Y-72358856D02*
X119882278Y-72454094D01*
X120120373Y-72358856D01*
X119739420Y-72644570D02*
X119882278Y-72454094D01*
X120025135Y-72644570D01*
D13*
X121091801Y-69691427D02*
X120922468Y-69449522D01*
X120801516Y-69691427D02*
X120801516Y-69183427D01*
X120995039Y-69183427D01*
X121043420Y-69207618D01*
X121067611Y-69231808D01*
X121091801Y-69280189D01*
X121091801Y-69352760D01*
X121067611Y-69401141D01*
X121043420Y-69425332D01*
X120995039Y-69449522D01*
X120801516Y-69449522D01*
X121285325Y-69231808D02*
X121309516Y-69207618D01*
X121357897Y-69183427D01*
X121478849Y-69183427D01*
X121527230Y-69207618D01*
X121551420Y-69231808D01*
X121575611Y-69280189D01*
X121575611Y-69328570D01*
X121551420Y-69401141D01*
X121261135Y-69691427D01*
X121575611Y-69691427D01*
X121890087Y-69183427D02*
X121938468Y-69183427D01*
X121986849Y-69207618D01*
X122011039Y-69231808D01*
X122035230Y-69280189D01*
X122059420Y-69376951D01*
X122059420Y-69497903D01*
X122035230Y-69594665D01*
X122011039Y-69643046D01*
X121986849Y-69667237D01*
X121938468Y-69691427D01*
X121890087Y-69691427D01*
X121841706Y-69667237D01*
X121817516Y-69643046D01*
X121793325Y-69594665D01*
X121769135Y-69497903D01*
X121769135Y-69376951D01*
X121793325Y-69280189D01*
X121817516Y-69231808D01*
X121841706Y-69207618D01*
X121890087Y-69183427D01*
X122228754Y-69183427D02*
X122567420Y-69183427D01*
X122349706Y-69691427D01*
X86814809Y-125990047D02*
X86306809Y-125990047D01*
X86669666Y-125820714D01*
X86306809Y-125651380D01*
X86814809Y-125651380D01*
X86306809Y-125457857D02*
X86306809Y-125119190D01*
X86814809Y-125336904D01*
X86306809Y-124828904D02*
X86306809Y-124780523D01*
X86331000Y-124732142D01*
X86355190Y-124707952D01*
X86403571Y-124683761D01*
X86500333Y-124659571D01*
X86621285Y-124659571D01*
X86718047Y-124683761D01*
X86766428Y-124707952D01*
X86790619Y-124732142D01*
X86814809Y-124780523D01*
X86814809Y-124828904D01*
X86790619Y-124877285D01*
X86766428Y-124901476D01*
X86718047Y-124925666D01*
X86621285Y-124949857D01*
X86500333Y-124949857D01*
X86403571Y-124925666D01*
X86355190Y-124901476D01*
X86331000Y-124877285D01*
X86306809Y-124828904D01*
X86814809Y-124175761D02*
X86814809Y-124466047D01*
X86814809Y-124320904D02*
X86306809Y-124320904D01*
X86379380Y-124369285D01*
X86427761Y-124417666D01*
X86451952Y-124466047D01*
X119742863Y-98012427D02*
X119573530Y-97770522D01*
X119452578Y-98012427D02*
X119452578Y-97504427D01*
X119646101Y-97504427D01*
X119694482Y-97528618D01*
X119718673Y-97552808D01*
X119742863Y-97601189D01*
X119742863Y-97673760D01*
X119718673Y-97722141D01*
X119694482Y-97746332D01*
X119646101Y-97770522D01*
X119452578Y-97770522D01*
X120202482Y-97504427D02*
X119960578Y-97504427D01*
X119936387Y-97746332D01*
X119960578Y-97722141D01*
X120008959Y-97697951D01*
X120129911Y-97697951D01*
X120178292Y-97722141D01*
X120202482Y-97746332D01*
X120226673Y-97794713D01*
X120226673Y-97915665D01*
X120202482Y-97964046D01*
X120178292Y-97988237D01*
X120129911Y-98012427D01*
X120008959Y-98012427D01*
X119960578Y-97988237D01*
X119936387Y-97964046D01*
X120541149Y-97504427D02*
X120589530Y-97504427D01*
X120637911Y-97528618D01*
X120662101Y-97552808D01*
X120686292Y-97601189D01*
X120710482Y-97697951D01*
X120710482Y-97818903D01*
X120686292Y-97915665D01*
X120662101Y-97964046D01*
X120637911Y-97988237D01*
X120589530Y-98012427D01*
X120541149Y-98012427D01*
X120492768Y-97988237D01*
X120468578Y-97964046D01*
X120444387Y-97915665D01*
X120420197Y-97818903D01*
X120420197Y-97697951D01*
X120444387Y-97601189D01*
X120468578Y-97552808D01*
X120492768Y-97528618D01*
X120541149Y-97504427D01*
X120879816Y-97504427D02*
X121194292Y-97504427D01*
X121024959Y-97697951D01*
X121097530Y-97697951D01*
X121145911Y-97722141D01*
X121170101Y-97746332D01*
X121194292Y-97794713D01*
X121194292Y-97915665D01*
X121170101Y-97964046D01*
X121145911Y-97988237D01*
X121097530Y-98012427D01*
X120952387Y-98012427D01*
X120904006Y-97988237D01*
X120879816Y-97964046D01*
X114868801Y-87677046D02*
X114844611Y-87701237D01*
X114772039Y-87725427D01*
X114723658Y-87725427D01*
X114651087Y-87701237D01*
X114602706Y-87652856D01*
X114578516Y-87604475D01*
X114554325Y-87507713D01*
X114554325Y-87435141D01*
X114578516Y-87338379D01*
X114602706Y-87289998D01*
X114651087Y-87241618D01*
X114723658Y-87217427D01*
X114772039Y-87217427D01*
X114844611Y-87241618D01*
X114868801Y-87265808D01*
X115328420Y-87217427D02*
X115086516Y-87217427D01*
X115062325Y-87459332D01*
X115086516Y-87435141D01*
X115134897Y-87410951D01*
X115255849Y-87410951D01*
X115304230Y-87435141D01*
X115328420Y-87459332D01*
X115352611Y-87507713D01*
X115352611Y-87628665D01*
X115328420Y-87677046D01*
X115304230Y-87701237D01*
X115255849Y-87725427D01*
X115134897Y-87725427D01*
X115086516Y-87701237D01*
X115062325Y-87677046D01*
X115667087Y-87217427D02*
X115715468Y-87217427D01*
X115763849Y-87241618D01*
X115788039Y-87265808D01*
X115812230Y-87314189D01*
X115836420Y-87410951D01*
X115836420Y-87531903D01*
X115812230Y-87628665D01*
X115788039Y-87677046D01*
X115763849Y-87701237D01*
X115715468Y-87725427D01*
X115667087Y-87725427D01*
X115618706Y-87701237D01*
X115594516Y-87677046D01*
X115570325Y-87628665D01*
X115546135Y-87531903D01*
X115546135Y-87410951D01*
X115570325Y-87314189D01*
X115594516Y-87265808D01*
X115618706Y-87241618D01*
X115667087Y-87217427D01*
X116320230Y-87725427D02*
X116029944Y-87725427D01*
X116175087Y-87725427D02*
X116175087Y-87217427D01*
X116126706Y-87289998D01*
X116078325Y-87338379D01*
X116029944Y-87362570D01*
X83499801Y-99917427D02*
X83330468Y-99675522D01*
X83209516Y-99917427D02*
X83209516Y-99409427D01*
X83403039Y-99409427D01*
X83451420Y-99433618D01*
X83475611Y-99457808D01*
X83499801Y-99506189D01*
X83499801Y-99578760D01*
X83475611Y-99627141D01*
X83451420Y-99651332D01*
X83403039Y-99675522D01*
X83209516Y-99675522D01*
X83790087Y-99627141D02*
X83741706Y-99602951D01*
X83717516Y-99578760D01*
X83693325Y-99530379D01*
X83693325Y-99506189D01*
X83717516Y-99457808D01*
X83741706Y-99433618D01*
X83790087Y-99409427D01*
X83886849Y-99409427D01*
X83935230Y-99433618D01*
X83959420Y-99457808D01*
X83983611Y-99506189D01*
X83983611Y-99530379D01*
X83959420Y-99578760D01*
X83935230Y-99602951D01*
X83886849Y-99627141D01*
X83790087Y-99627141D01*
X83741706Y-99651332D01*
X83717516Y-99675522D01*
X83693325Y-99723903D01*
X83693325Y-99820665D01*
X83717516Y-99869046D01*
X83741706Y-99893237D01*
X83790087Y-99917427D01*
X83886849Y-99917427D01*
X83935230Y-99893237D01*
X83959420Y-99869046D01*
X83983611Y-99820665D01*
X83983611Y-99723903D01*
X83959420Y-99675522D01*
X83935230Y-99651332D01*
X83886849Y-99627141D01*
X84298087Y-99409427D02*
X84346468Y-99409427D01*
X84394849Y-99433618D01*
X84419039Y-99457808D01*
X84443230Y-99506189D01*
X84467420Y-99602951D01*
X84467420Y-99723903D01*
X84443230Y-99820665D01*
X84419039Y-99869046D01*
X84394849Y-99893237D01*
X84346468Y-99917427D01*
X84298087Y-99917427D01*
X84249706Y-99893237D01*
X84225516Y-99869046D01*
X84201325Y-99820665D01*
X84177135Y-99723903D01*
X84177135Y-99602951D01*
X84201325Y-99506189D01*
X84225516Y-99457808D01*
X84249706Y-99433618D01*
X84298087Y-99409427D01*
X84902849Y-99409427D02*
X84806087Y-99409427D01*
X84757706Y-99433618D01*
X84733516Y-99457808D01*
X84685135Y-99530379D01*
X84660944Y-99627141D01*
X84660944Y-99820665D01*
X84685135Y-99869046D01*
X84709325Y-99893237D01*
X84757706Y-99917427D01*
X84854468Y-99917427D01*
X84902849Y-99893237D01*
X84927039Y-99869046D01*
X84951230Y-99820665D01*
X84951230Y-99699713D01*
X84927039Y-99651332D01*
X84902849Y-99627141D01*
X84854468Y-99602951D01*
X84757706Y-99602951D01*
X84709325Y-99627141D01*
X84685135Y-99651332D01*
X84660944Y-99699713D01*
X112201801Y-117697427D02*
X112032468Y-117455522D01*
X111911516Y-117697427D02*
X111911516Y-117189427D01*
X112105039Y-117189427D01*
X112153420Y-117213618D01*
X112177611Y-117237808D01*
X112201801Y-117286189D01*
X112201801Y-117358760D01*
X112177611Y-117407141D01*
X112153420Y-117431332D01*
X112105039Y-117455522D01*
X111911516Y-117455522D01*
X112492087Y-117407141D02*
X112443706Y-117382951D01*
X112419516Y-117358760D01*
X112395325Y-117310379D01*
X112395325Y-117286189D01*
X112419516Y-117237808D01*
X112443706Y-117213618D01*
X112492087Y-117189427D01*
X112588849Y-117189427D01*
X112637230Y-117213618D01*
X112661420Y-117237808D01*
X112685611Y-117286189D01*
X112685611Y-117310379D01*
X112661420Y-117358760D01*
X112637230Y-117382951D01*
X112588849Y-117407141D01*
X112492087Y-117407141D01*
X112443706Y-117431332D01*
X112419516Y-117455522D01*
X112395325Y-117503903D01*
X112395325Y-117600665D01*
X112419516Y-117649046D01*
X112443706Y-117673237D01*
X112492087Y-117697427D01*
X112588849Y-117697427D01*
X112637230Y-117673237D01*
X112661420Y-117649046D01*
X112685611Y-117600665D01*
X112685611Y-117503903D01*
X112661420Y-117455522D01*
X112637230Y-117431332D01*
X112588849Y-117407141D01*
X113169420Y-117697427D02*
X112879135Y-117697427D01*
X113024278Y-117697427D02*
X113024278Y-117189427D01*
X112975897Y-117261998D01*
X112927516Y-117310379D01*
X112879135Y-117334570D01*
X113338754Y-117189427D02*
X113653230Y-117189427D01*
X113483897Y-117382951D01*
X113556468Y-117382951D01*
X113604849Y-117407141D01*
X113629039Y-117431332D01*
X113653230Y-117479713D01*
X113653230Y-117600665D01*
X113629039Y-117649046D01*
X113604849Y-117673237D01*
X113556468Y-117697427D01*
X113411325Y-117697427D01*
X113362944Y-117673237D01*
X113338754Y-117649046D01*
X84007801Y-96742427D02*
X83838468Y-96500522D01*
X83717516Y-96742427D02*
X83717516Y-96234427D01*
X83911039Y-96234427D01*
X83959420Y-96258618D01*
X83983611Y-96282808D01*
X84007801Y-96331189D01*
X84007801Y-96403760D01*
X83983611Y-96452141D01*
X83959420Y-96476332D01*
X83911039Y-96500522D01*
X83717516Y-96500522D01*
X84298087Y-96452141D02*
X84249706Y-96427951D01*
X84225516Y-96403760D01*
X84201325Y-96355379D01*
X84201325Y-96331189D01*
X84225516Y-96282808D01*
X84249706Y-96258618D01*
X84298087Y-96234427D01*
X84394849Y-96234427D01*
X84443230Y-96258618D01*
X84467420Y-96282808D01*
X84491611Y-96331189D01*
X84491611Y-96355379D01*
X84467420Y-96403760D01*
X84443230Y-96427951D01*
X84394849Y-96452141D01*
X84298087Y-96452141D01*
X84249706Y-96476332D01*
X84225516Y-96500522D01*
X84201325Y-96548903D01*
X84201325Y-96645665D01*
X84225516Y-96694046D01*
X84249706Y-96718237D01*
X84298087Y-96742427D01*
X84394849Y-96742427D01*
X84443230Y-96718237D01*
X84467420Y-96694046D01*
X84491611Y-96645665D01*
X84491611Y-96548903D01*
X84467420Y-96500522D01*
X84443230Y-96476332D01*
X84394849Y-96452141D01*
X84806087Y-96234427D02*
X84854468Y-96234427D01*
X84902849Y-96258618D01*
X84927039Y-96282808D01*
X84951230Y-96331189D01*
X84975420Y-96427951D01*
X84975420Y-96548903D01*
X84951230Y-96645665D01*
X84927039Y-96694046D01*
X84902849Y-96718237D01*
X84854468Y-96742427D01*
X84806087Y-96742427D01*
X84757706Y-96718237D01*
X84733516Y-96694046D01*
X84709325Y-96645665D01*
X84685135Y-96548903D01*
X84685135Y-96427951D01*
X84709325Y-96331189D01*
X84733516Y-96282808D01*
X84757706Y-96258618D01*
X84806087Y-96234427D01*
X85435039Y-96234427D02*
X85193135Y-96234427D01*
X85168944Y-96476332D01*
X85193135Y-96452141D01*
X85241516Y-96427951D01*
X85362468Y-96427951D01*
X85410849Y-96452141D01*
X85435039Y-96476332D01*
X85459230Y-96524713D01*
X85459230Y-96645665D01*
X85435039Y-96694046D01*
X85410849Y-96718237D01*
X85362468Y-96742427D01*
X85241516Y-96742427D01*
X85193135Y-96718237D01*
X85168944Y-96694046D01*
X117304849Y-115629141D02*
X117280658Y-115604951D01*
X117256468Y-115532379D01*
X117256468Y-115483998D01*
X117280658Y-115411427D01*
X117329039Y-115363046D01*
X117377420Y-115338856D01*
X117474182Y-115314665D01*
X117546754Y-115314665D01*
X117643516Y-115338856D01*
X117691897Y-115363046D01*
X117740278Y-115411427D01*
X117764468Y-115483998D01*
X117764468Y-115532379D01*
X117740278Y-115604951D01*
X117716087Y-115629141D01*
X117546754Y-115919427D02*
X117570944Y-115871046D01*
X117595135Y-115846856D01*
X117643516Y-115822665D01*
X117667706Y-115822665D01*
X117716087Y-115846856D01*
X117740278Y-115871046D01*
X117764468Y-115919427D01*
X117764468Y-116016189D01*
X117740278Y-116064570D01*
X117716087Y-116088760D01*
X117667706Y-116112951D01*
X117643516Y-116112951D01*
X117595135Y-116088760D01*
X117570944Y-116064570D01*
X117546754Y-116016189D01*
X117546754Y-115919427D01*
X117522563Y-115871046D01*
X117498373Y-115846856D01*
X117449992Y-115822665D01*
X117353230Y-115822665D01*
X117304849Y-115846856D01*
X117280658Y-115871046D01*
X117256468Y-115919427D01*
X117256468Y-116016189D01*
X117280658Y-116064570D01*
X117304849Y-116088760D01*
X117353230Y-116112951D01*
X117449992Y-116112951D01*
X117498373Y-116088760D01*
X117522563Y-116064570D01*
X117546754Y-116016189D01*
X117764468Y-116427427D02*
X117764468Y-116475808D01*
X117740278Y-116524189D01*
X117716087Y-116548379D01*
X117667706Y-116572570D01*
X117570944Y-116596760D01*
X117449992Y-116596760D01*
X117353230Y-116572570D01*
X117304849Y-116548379D01*
X117280658Y-116524189D01*
X117256468Y-116475808D01*
X117256468Y-116427427D01*
X117280658Y-116379046D01*
X117304849Y-116354856D01*
X117353230Y-116330665D01*
X117449992Y-116306475D01*
X117570944Y-116306475D01*
X117667706Y-116330665D01*
X117716087Y-116354856D01*
X117740278Y-116379046D01*
X117764468Y-116427427D01*
X117764468Y-117032189D02*
X117764468Y-116935427D01*
X117740278Y-116887046D01*
X117716087Y-116862856D01*
X117643516Y-116814475D01*
X117546754Y-116790284D01*
X117353230Y-116790284D01*
X117304849Y-116814475D01*
X117280658Y-116838665D01*
X117256468Y-116887046D01*
X117256468Y-116983808D01*
X117280658Y-117032189D01*
X117304849Y-117056379D01*
X117353230Y-117080570D01*
X117474182Y-117080570D01*
X117522563Y-117056379D01*
X117546754Y-117032189D01*
X117570944Y-116983808D01*
X117570944Y-116887046D01*
X117546754Y-116838665D01*
X117522563Y-116814475D01*
X117474182Y-116790284D01*
X121472801Y-121459046D02*
X121448611Y-121483237D01*
X121376039Y-121507427D01*
X121327658Y-121507427D01*
X121255087Y-121483237D01*
X121206706Y-121434856D01*
X121182516Y-121386475D01*
X121158325Y-121289713D01*
X121158325Y-121217141D01*
X121182516Y-121120379D01*
X121206706Y-121071998D01*
X121255087Y-121023618D01*
X121327658Y-120999427D01*
X121376039Y-120999427D01*
X121448611Y-121023618D01*
X121472801Y-121047808D01*
X121932420Y-120999427D02*
X121690516Y-120999427D01*
X121666325Y-121241332D01*
X121690516Y-121217141D01*
X121738897Y-121192951D01*
X121859849Y-121192951D01*
X121908230Y-121217141D01*
X121932420Y-121241332D01*
X121956611Y-121289713D01*
X121956611Y-121410665D01*
X121932420Y-121459046D01*
X121908230Y-121483237D01*
X121859849Y-121507427D01*
X121738897Y-121507427D01*
X121690516Y-121483237D01*
X121666325Y-121459046D01*
X122271087Y-120999427D02*
X122319468Y-120999427D01*
X122367849Y-121023618D01*
X122392039Y-121047808D01*
X122416230Y-121096189D01*
X122440420Y-121192951D01*
X122440420Y-121313903D01*
X122416230Y-121410665D01*
X122392039Y-121459046D01*
X122367849Y-121483237D01*
X122319468Y-121507427D01*
X122271087Y-121507427D01*
X122222706Y-121483237D01*
X122198516Y-121459046D01*
X122174325Y-121410665D01*
X122150135Y-121313903D01*
X122150135Y-121192951D01*
X122174325Y-121096189D01*
X122198516Y-121047808D01*
X122222706Y-121023618D01*
X122271087Y-120999427D01*
X122633944Y-121047808D02*
X122658135Y-121023618D01*
X122706516Y-120999427D01*
X122827468Y-120999427D01*
X122875849Y-121023618D01*
X122900039Y-121047808D01*
X122924230Y-121096189D01*
X122924230Y-121144570D01*
X122900039Y-121217141D01*
X122609754Y-121507427D01*
X122924230Y-121507427D01*
X110768516Y-88995427D02*
X110768516Y-88487427D01*
X110889468Y-88487427D01*
X110962039Y-88511618D01*
X111010420Y-88559998D01*
X111034611Y-88608379D01*
X111058801Y-88705141D01*
X111058801Y-88777713D01*
X111034611Y-88874475D01*
X111010420Y-88922856D01*
X110962039Y-88971237D01*
X110889468Y-88995427D01*
X110768516Y-88995427D01*
X111518420Y-88487427D02*
X111276516Y-88487427D01*
X111252325Y-88729332D01*
X111276516Y-88705141D01*
X111324897Y-88680951D01*
X111445849Y-88680951D01*
X111494230Y-88705141D01*
X111518420Y-88729332D01*
X111542611Y-88777713D01*
X111542611Y-88898665D01*
X111518420Y-88947046D01*
X111494230Y-88971237D01*
X111445849Y-88995427D01*
X111324897Y-88995427D01*
X111276516Y-88971237D01*
X111252325Y-88947046D01*
X111857087Y-88487427D02*
X111905468Y-88487427D01*
X111953849Y-88511618D01*
X111978039Y-88535808D01*
X112002230Y-88584189D01*
X112026420Y-88680951D01*
X112026420Y-88801903D01*
X112002230Y-88898665D01*
X111978039Y-88947046D01*
X111953849Y-88971237D01*
X111905468Y-88995427D01*
X111857087Y-88995427D01*
X111808706Y-88971237D01*
X111784516Y-88947046D01*
X111760325Y-88898665D01*
X111736135Y-88801903D01*
X111736135Y-88680951D01*
X111760325Y-88584189D01*
X111784516Y-88535808D01*
X111808706Y-88511618D01*
X111857087Y-88487427D01*
X112510230Y-88995427D02*
X112219944Y-88995427D01*
X112365087Y-88995427D02*
X112365087Y-88487427D01*
X112316706Y-88559998D01*
X112268325Y-88608379D01*
X112219944Y-88632570D01*
X87944801Y-73755427D02*
X87775468Y-73513522D01*
X87654516Y-73755427D02*
X87654516Y-73247427D01*
X87848039Y-73247427D01*
X87896420Y-73271618D01*
X87920611Y-73295808D01*
X87944801Y-73344189D01*
X87944801Y-73416760D01*
X87920611Y-73465141D01*
X87896420Y-73489332D01*
X87848039Y-73513522D01*
X87654516Y-73513522D01*
X88235087Y-73465141D02*
X88186706Y-73440951D01*
X88162516Y-73416760D01*
X88138325Y-73368379D01*
X88138325Y-73344189D01*
X88162516Y-73295808D01*
X88186706Y-73271618D01*
X88235087Y-73247427D01*
X88331849Y-73247427D01*
X88380230Y-73271618D01*
X88404420Y-73295808D01*
X88428611Y-73344189D01*
X88428611Y-73368379D01*
X88404420Y-73416760D01*
X88380230Y-73440951D01*
X88331849Y-73465141D01*
X88235087Y-73465141D01*
X88186706Y-73489332D01*
X88162516Y-73513522D01*
X88138325Y-73561903D01*
X88138325Y-73658665D01*
X88162516Y-73707046D01*
X88186706Y-73731237D01*
X88235087Y-73755427D01*
X88331849Y-73755427D01*
X88380230Y-73731237D01*
X88404420Y-73707046D01*
X88428611Y-73658665D01*
X88428611Y-73561903D01*
X88404420Y-73513522D01*
X88380230Y-73489332D01*
X88331849Y-73465141D01*
X88864039Y-73416760D02*
X88864039Y-73755427D01*
X88743087Y-73223237D02*
X88622135Y-73586094D01*
X88936611Y-73586094D01*
X89105944Y-73295808D02*
X89130135Y-73271618D01*
X89178516Y-73247427D01*
X89299468Y-73247427D01*
X89347849Y-73271618D01*
X89372039Y-73295808D01*
X89396230Y-73344189D01*
X89396230Y-73392570D01*
X89372039Y-73465141D01*
X89081754Y-73755427D01*
X89396230Y-73755427D01*
X128353849Y-77021141D02*
X128329658Y-76996951D01*
X128305468Y-76924379D01*
X128305468Y-76875998D01*
X128329658Y-76803427D01*
X128378039Y-76755046D01*
X128426420Y-76730856D01*
X128523182Y-76706665D01*
X128595754Y-76706665D01*
X128692516Y-76730856D01*
X128740897Y-76755046D01*
X128789278Y-76803427D01*
X128813468Y-76875998D01*
X128813468Y-76924379D01*
X128789278Y-76996951D01*
X128765087Y-77021141D01*
X128765087Y-77214665D02*
X128789278Y-77238856D01*
X128813468Y-77287237D01*
X128813468Y-77408189D01*
X128789278Y-77456570D01*
X128765087Y-77480760D01*
X128716706Y-77504951D01*
X128668325Y-77504951D01*
X128595754Y-77480760D01*
X128305468Y-77190475D01*
X128305468Y-77504951D01*
X128813468Y-77819427D02*
X128813468Y-77867808D01*
X128789278Y-77916189D01*
X128765087Y-77940379D01*
X128716706Y-77964570D01*
X128619944Y-77988760D01*
X128498992Y-77988760D01*
X128402230Y-77964570D01*
X128353849Y-77940379D01*
X128329658Y-77916189D01*
X128305468Y-77867808D01*
X128305468Y-77819427D01*
X128329658Y-77771046D01*
X128353849Y-77746856D01*
X128402230Y-77722665D01*
X128498992Y-77698475D01*
X128619944Y-77698475D01*
X128716706Y-77722665D01*
X128765087Y-77746856D01*
X128789278Y-77771046D01*
X128813468Y-77819427D01*
X128813468Y-78158094D02*
X128813468Y-78496760D01*
X128305468Y-78279046D01*
X118448992Y-100975760D02*
X118448992Y-101145094D01*
X118715087Y-101145094D02*
X118207087Y-101145094D01*
X118207087Y-100903189D01*
X118207087Y-100467760D02*
X118207087Y-100709665D01*
X118448992Y-100733856D01*
X118424801Y-100709665D01*
X118400611Y-100661284D01*
X118400611Y-100540332D01*
X118424801Y-100491951D01*
X118448992Y-100467760D01*
X118497373Y-100443570D01*
X118618325Y-100443570D01*
X118666706Y-100467760D01*
X118690897Y-100491951D01*
X118715087Y-100540332D01*
X118715087Y-100661284D01*
X118690897Y-100709665D01*
X118666706Y-100733856D01*
X118207087Y-100129094D02*
X118207087Y-100080713D01*
X118231278Y-100032332D01*
X118255468Y-100008141D01*
X118303849Y-99983951D01*
X118400611Y-99959760D01*
X118521563Y-99959760D01*
X118618325Y-99983951D01*
X118666706Y-100008141D01*
X118690897Y-100032332D01*
X118715087Y-100080713D01*
X118715087Y-100129094D01*
X118690897Y-100177475D01*
X118666706Y-100201665D01*
X118618325Y-100225856D01*
X118521563Y-100250046D01*
X118400611Y-100250046D01*
X118303849Y-100225856D01*
X118255468Y-100201665D01*
X118231278Y-100177475D01*
X118207087Y-100129094D01*
X118715087Y-99475951D02*
X118715087Y-99766237D01*
X118715087Y-99621094D02*
X118207087Y-99621094D01*
X118279658Y-99669475D01*
X118328039Y-99717856D01*
X118352230Y-99766237D01*
X111820801Y-92424427D02*
X111651468Y-92182522D01*
X111530516Y-92424427D02*
X111530516Y-91916427D01*
X111724039Y-91916427D01*
X111772420Y-91940618D01*
X111796611Y-91964808D01*
X111820801Y-92013189D01*
X111820801Y-92085760D01*
X111796611Y-92134141D01*
X111772420Y-92158332D01*
X111724039Y-92182522D01*
X111530516Y-92182522D01*
X112280420Y-91916427D02*
X112038516Y-91916427D01*
X112014325Y-92158332D01*
X112038516Y-92134141D01*
X112086897Y-92109951D01*
X112207849Y-92109951D01*
X112256230Y-92134141D01*
X112280420Y-92158332D01*
X112304611Y-92206713D01*
X112304611Y-92327665D01*
X112280420Y-92376046D01*
X112256230Y-92400237D01*
X112207849Y-92424427D01*
X112086897Y-92424427D01*
X112038516Y-92400237D01*
X112014325Y-92376046D01*
X112619087Y-91916427D02*
X112667468Y-91916427D01*
X112715849Y-91940618D01*
X112740039Y-91964808D01*
X112764230Y-92013189D01*
X112788420Y-92109951D01*
X112788420Y-92230903D01*
X112764230Y-92327665D01*
X112740039Y-92376046D01*
X112715849Y-92400237D01*
X112667468Y-92424427D01*
X112619087Y-92424427D01*
X112570706Y-92400237D01*
X112546516Y-92376046D01*
X112522325Y-92327665D01*
X112498135Y-92230903D01*
X112498135Y-92109951D01*
X112522325Y-92013189D01*
X112546516Y-91964808D01*
X112570706Y-91940618D01*
X112619087Y-91916427D01*
X113272230Y-92424427D02*
X112981944Y-92424427D01*
X113127087Y-92424427D02*
X113127087Y-91916427D01*
X113078706Y-91988998D01*
X113030325Y-92037379D01*
X112981944Y-92061570D01*
X83536087Y-92001094D02*
X83294182Y-92170427D01*
X83536087Y-92291379D02*
X83028087Y-92291379D01*
X83028087Y-92097856D01*
X83052278Y-92049475D01*
X83076468Y-92025284D01*
X83124849Y-92001094D01*
X83197420Y-92001094D01*
X83245801Y-92025284D01*
X83269992Y-92049475D01*
X83294182Y-92097856D01*
X83294182Y-92291379D01*
X83245801Y-91710808D02*
X83221611Y-91759189D01*
X83197420Y-91783379D01*
X83149039Y-91807570D01*
X83124849Y-91807570D01*
X83076468Y-91783379D01*
X83052278Y-91759189D01*
X83028087Y-91710808D01*
X83028087Y-91614046D01*
X83052278Y-91565665D01*
X83076468Y-91541475D01*
X83124849Y-91517284D01*
X83149039Y-91517284D01*
X83197420Y-91541475D01*
X83221611Y-91565665D01*
X83245801Y-91614046D01*
X83245801Y-91710808D01*
X83269992Y-91759189D01*
X83294182Y-91783379D01*
X83342563Y-91807570D01*
X83439325Y-91807570D01*
X83487706Y-91783379D01*
X83511897Y-91759189D01*
X83536087Y-91710808D01*
X83536087Y-91614046D01*
X83511897Y-91565665D01*
X83487706Y-91541475D01*
X83439325Y-91517284D01*
X83342563Y-91517284D01*
X83294182Y-91541475D01*
X83269992Y-91565665D01*
X83245801Y-91614046D01*
X83028087Y-91202808D02*
X83028087Y-91154427D01*
X83052278Y-91106046D01*
X83076468Y-91081856D01*
X83124849Y-91057665D01*
X83221611Y-91033475D01*
X83342563Y-91033475D01*
X83439325Y-91057665D01*
X83487706Y-91081856D01*
X83511897Y-91106046D01*
X83536087Y-91154427D01*
X83536087Y-91202808D01*
X83511897Y-91251189D01*
X83487706Y-91275379D01*
X83439325Y-91299570D01*
X83342563Y-91323760D01*
X83221611Y-91323760D01*
X83124849Y-91299570D01*
X83076468Y-91275379D01*
X83052278Y-91251189D01*
X83028087Y-91202808D01*
X83028087Y-90864141D02*
X83028087Y-90549665D01*
X83221611Y-90718998D01*
X83221611Y-90646427D01*
X83245801Y-90598046D01*
X83269992Y-90573856D01*
X83318373Y-90549665D01*
X83439325Y-90549665D01*
X83487706Y-90573856D01*
X83511897Y-90598046D01*
X83536087Y-90646427D01*
X83536087Y-90791570D01*
X83511897Y-90839951D01*
X83487706Y-90864141D01*
X116011801Y-89757427D02*
X115842468Y-89515522D01*
X115721516Y-89757427D02*
X115721516Y-89249427D01*
X115915039Y-89249427D01*
X115963420Y-89273618D01*
X115987611Y-89297808D01*
X116011801Y-89346189D01*
X116011801Y-89418760D01*
X115987611Y-89467141D01*
X115963420Y-89491332D01*
X115915039Y-89515522D01*
X115721516Y-89515522D01*
X116471420Y-89249427D02*
X116229516Y-89249427D01*
X116205325Y-89491332D01*
X116229516Y-89467141D01*
X116277897Y-89442951D01*
X116398849Y-89442951D01*
X116447230Y-89467141D01*
X116471420Y-89491332D01*
X116495611Y-89539713D01*
X116495611Y-89660665D01*
X116471420Y-89709046D01*
X116447230Y-89733237D01*
X116398849Y-89757427D01*
X116277897Y-89757427D01*
X116229516Y-89733237D01*
X116205325Y-89709046D01*
X116810087Y-89249427D02*
X116858468Y-89249427D01*
X116906849Y-89273618D01*
X116931039Y-89297808D01*
X116955230Y-89346189D01*
X116979420Y-89442951D01*
X116979420Y-89563903D01*
X116955230Y-89660665D01*
X116931039Y-89709046D01*
X116906849Y-89733237D01*
X116858468Y-89757427D01*
X116810087Y-89757427D01*
X116761706Y-89733237D01*
X116737516Y-89709046D01*
X116713325Y-89660665D01*
X116689135Y-89563903D01*
X116689135Y-89442951D01*
X116713325Y-89346189D01*
X116737516Y-89297808D01*
X116761706Y-89273618D01*
X116810087Y-89249427D01*
X117148754Y-89249427D02*
X117487420Y-89249427D01*
X117269706Y-89757427D01*
X97602849Y-117153141D02*
X97578658Y-117128951D01*
X97554468Y-117056379D01*
X97554468Y-117007998D01*
X97578658Y-116935427D01*
X97627039Y-116887046D01*
X97675420Y-116862856D01*
X97772182Y-116838665D01*
X97844754Y-116838665D01*
X97941516Y-116862856D01*
X97989897Y-116887046D01*
X98038278Y-116935427D01*
X98062468Y-117007998D01*
X98062468Y-117056379D01*
X98038278Y-117128951D01*
X98014087Y-117153141D01*
X98062468Y-117612760D02*
X98062468Y-117370856D01*
X97820563Y-117346665D01*
X97844754Y-117370856D01*
X97868944Y-117419237D01*
X97868944Y-117540189D01*
X97844754Y-117588570D01*
X97820563Y-117612760D01*
X97772182Y-117636951D01*
X97651230Y-117636951D01*
X97602849Y-117612760D01*
X97578658Y-117588570D01*
X97554468Y-117540189D01*
X97554468Y-117419237D01*
X97578658Y-117370856D01*
X97602849Y-117346665D01*
X98062468Y-117951427D02*
X98062468Y-117999808D01*
X98038278Y-118048189D01*
X98014087Y-118072379D01*
X97965706Y-118096570D01*
X97868944Y-118120760D01*
X97747992Y-118120760D01*
X97651230Y-118096570D01*
X97602849Y-118072379D01*
X97578658Y-118048189D01*
X97554468Y-117999808D01*
X97554468Y-117951427D01*
X97578658Y-117903046D01*
X97602849Y-117878856D01*
X97651230Y-117854665D01*
X97747992Y-117830475D01*
X97868944Y-117830475D01*
X97965706Y-117854665D01*
X98014087Y-117878856D01*
X98038278Y-117903046D01*
X98062468Y-117951427D01*
X97844754Y-118411046D02*
X97868944Y-118362665D01*
X97893135Y-118338475D01*
X97941516Y-118314284D01*
X97965706Y-118314284D01*
X98014087Y-118338475D01*
X98038278Y-118362665D01*
X98062468Y-118411046D01*
X98062468Y-118507808D01*
X98038278Y-118556189D01*
X98014087Y-118580379D01*
X97965706Y-118604570D01*
X97941516Y-118604570D01*
X97893135Y-118580379D01*
X97868944Y-118556189D01*
X97844754Y-118507808D01*
X97844754Y-118411046D01*
X97820563Y-118362665D01*
X97796373Y-118338475D01*
X97747992Y-118314284D01*
X97651230Y-118314284D01*
X97602849Y-118338475D01*
X97578658Y-118362665D01*
X97554468Y-118411046D01*
X97554468Y-118507808D01*
X97578658Y-118556189D01*
X97602849Y-118580379D01*
X97651230Y-118604570D01*
X97747992Y-118604570D01*
X97796373Y-118580379D01*
X97820563Y-118556189D01*
X97844754Y-118507808D01*
X95171706Y-118671094D02*
X95195897Y-118695284D01*
X95220087Y-118767856D01*
X95220087Y-118816237D01*
X95195897Y-118888808D01*
X95147516Y-118937189D01*
X95099135Y-118961379D01*
X95002373Y-118985570D01*
X94929801Y-118985570D01*
X94833039Y-118961379D01*
X94784658Y-118937189D01*
X94736278Y-118888808D01*
X94712087Y-118816237D01*
X94712087Y-118767856D01*
X94736278Y-118695284D01*
X94760468Y-118671094D01*
X94712087Y-118211475D02*
X94712087Y-118453379D01*
X94953992Y-118477570D01*
X94929801Y-118453379D01*
X94905611Y-118404998D01*
X94905611Y-118284046D01*
X94929801Y-118235665D01*
X94953992Y-118211475D01*
X95002373Y-118187284D01*
X95123325Y-118187284D01*
X95171706Y-118211475D01*
X95195897Y-118235665D01*
X95220087Y-118284046D01*
X95220087Y-118404998D01*
X95195897Y-118453379D01*
X95171706Y-118477570D01*
X94712087Y-117872808D02*
X94712087Y-117824427D01*
X94736278Y-117776046D01*
X94760468Y-117751856D01*
X94808849Y-117727665D01*
X94905611Y-117703475D01*
X95026563Y-117703475D01*
X95123325Y-117727665D01*
X95171706Y-117751856D01*
X95195897Y-117776046D01*
X95220087Y-117824427D01*
X95220087Y-117872808D01*
X95195897Y-117921189D01*
X95171706Y-117945379D01*
X95123325Y-117969570D01*
X95026563Y-117993760D01*
X94905611Y-117993760D01*
X94808849Y-117969570D01*
X94760468Y-117945379D01*
X94736278Y-117921189D01*
X94712087Y-117872808D01*
X94712087Y-117534141D02*
X94712087Y-117195475D01*
X95220087Y-117413189D01*
X91156087Y-97492332D02*
X90648087Y-97492332D01*
X91107706Y-96960141D02*
X91131897Y-96984332D01*
X91156087Y-97056903D01*
X91156087Y-97105284D01*
X91131897Y-97177856D01*
X91083516Y-97226237D01*
X91035135Y-97250427D01*
X90938373Y-97274618D01*
X90865801Y-97274618D01*
X90769039Y-97250427D01*
X90720658Y-97226237D01*
X90672278Y-97177856D01*
X90648087Y-97105284D01*
X90648087Y-97056903D01*
X90672278Y-96984332D01*
X90696468Y-96960141D01*
X91156087Y-96718237D02*
X91156087Y-96621475D01*
X91131897Y-96573094D01*
X91107706Y-96548903D01*
X91035135Y-96500522D01*
X90938373Y-96476332D01*
X90744849Y-96476332D01*
X90696468Y-96500522D01*
X90672278Y-96524713D01*
X90648087Y-96573094D01*
X90648087Y-96669856D01*
X90672278Y-96718237D01*
X90696468Y-96742427D01*
X90744849Y-96766618D01*
X90865801Y-96766618D01*
X90914182Y-96742427D01*
X90938373Y-96718237D01*
X90962563Y-96669856D01*
X90962563Y-96573094D01*
X90938373Y-96524713D01*
X90914182Y-96500522D01*
X90865801Y-96476332D01*
X90648087Y-96161856D02*
X90648087Y-96113475D01*
X90672278Y-96065094D01*
X90696468Y-96040903D01*
X90744849Y-96016713D01*
X90841611Y-95992522D01*
X90962563Y-95992522D01*
X91059325Y-96016713D01*
X91107706Y-96040903D01*
X91131897Y-96065094D01*
X91156087Y-96113475D01*
X91156087Y-96161856D01*
X91131897Y-96210237D01*
X91107706Y-96234427D01*
X91059325Y-96258618D01*
X90962563Y-96282808D01*
X90841611Y-96282808D01*
X90744849Y-96258618D01*
X90696468Y-96234427D01*
X90672278Y-96210237D01*
X90648087Y-96161856D01*
X91156087Y-95508713D02*
X91156087Y-95798998D01*
X91156087Y-95653856D02*
X90648087Y-95653856D01*
X90720658Y-95702237D01*
X90769039Y-95750618D01*
X90793230Y-95798998D01*
X118043801Y-85899046D02*
X118019611Y-85923237D01*
X117947039Y-85947427D01*
X117898658Y-85947427D01*
X117826087Y-85923237D01*
X117777706Y-85874856D01*
X117753516Y-85826475D01*
X117729325Y-85729713D01*
X117729325Y-85657141D01*
X117753516Y-85560379D01*
X117777706Y-85511998D01*
X117826087Y-85463618D01*
X117898658Y-85439427D01*
X117947039Y-85439427D01*
X118019611Y-85463618D01*
X118043801Y-85487808D01*
X118503420Y-85439427D02*
X118261516Y-85439427D01*
X118237325Y-85681332D01*
X118261516Y-85657141D01*
X118309897Y-85632951D01*
X118430849Y-85632951D01*
X118479230Y-85657141D01*
X118503420Y-85681332D01*
X118527611Y-85729713D01*
X118527611Y-85850665D01*
X118503420Y-85899046D01*
X118479230Y-85923237D01*
X118430849Y-85947427D01*
X118309897Y-85947427D01*
X118261516Y-85923237D01*
X118237325Y-85899046D01*
X118842087Y-85439427D02*
X118890468Y-85439427D01*
X118938849Y-85463618D01*
X118963039Y-85487808D01*
X118987230Y-85536189D01*
X119011420Y-85632951D01*
X119011420Y-85753903D01*
X118987230Y-85850665D01*
X118963039Y-85899046D01*
X118938849Y-85923237D01*
X118890468Y-85947427D01*
X118842087Y-85947427D01*
X118793706Y-85923237D01*
X118769516Y-85899046D01*
X118745325Y-85850665D01*
X118721135Y-85753903D01*
X118721135Y-85632951D01*
X118745325Y-85536189D01*
X118769516Y-85487808D01*
X118793706Y-85463618D01*
X118842087Y-85439427D01*
X119180754Y-85439427D02*
X119495230Y-85439427D01*
X119325897Y-85632951D01*
X119398468Y-85632951D01*
X119446849Y-85657141D01*
X119471039Y-85681332D01*
X119495230Y-85729713D01*
X119495230Y-85850665D01*
X119471039Y-85899046D01*
X119446849Y-85923237D01*
X119398468Y-85947427D01*
X119253325Y-85947427D01*
X119204944Y-85923237D01*
X119180754Y-85899046D01*
X85658801Y-117062427D02*
X85489468Y-116820522D01*
X85368516Y-117062427D02*
X85368516Y-116554427D01*
X85562039Y-116554427D01*
X85610420Y-116578618D01*
X85634611Y-116602808D01*
X85658801Y-116651189D01*
X85658801Y-116723760D01*
X85634611Y-116772141D01*
X85610420Y-116796332D01*
X85562039Y-116820522D01*
X85368516Y-116820522D01*
X86118420Y-116554427D02*
X85876516Y-116554427D01*
X85852325Y-116796332D01*
X85876516Y-116772141D01*
X85924897Y-116747951D01*
X86045849Y-116747951D01*
X86094230Y-116772141D01*
X86118420Y-116796332D01*
X86142611Y-116844713D01*
X86142611Y-116965665D01*
X86118420Y-117014046D01*
X86094230Y-117038237D01*
X86045849Y-117062427D01*
X85924897Y-117062427D01*
X85876516Y-117038237D01*
X85852325Y-117014046D01*
X86626420Y-117062427D02*
X86336135Y-117062427D01*
X86481278Y-117062427D02*
X86481278Y-116554427D01*
X86432897Y-116626998D01*
X86384516Y-116675379D01*
X86336135Y-116699570D01*
X86795754Y-116554427D02*
X87110230Y-116554427D01*
X86940897Y-116747951D01*
X87013468Y-116747951D01*
X87061849Y-116772141D01*
X87086039Y-116796332D01*
X87110230Y-116844713D01*
X87110230Y-116965665D01*
X87086039Y-117014046D01*
X87061849Y-117038237D01*
X87013468Y-117062427D01*
X86868325Y-117062427D01*
X86819944Y-117038237D01*
X86795754Y-117014046D01*
X113217801Y-101012046D02*
X113193611Y-101036237D01*
X113121039Y-101060427D01*
X113072658Y-101060427D01*
X113000087Y-101036237D01*
X112951706Y-100987856D01*
X112927516Y-100939475D01*
X112903325Y-100842713D01*
X112903325Y-100770141D01*
X112927516Y-100673379D01*
X112951706Y-100624998D01*
X113000087Y-100576618D01*
X113072658Y-100552427D01*
X113121039Y-100552427D01*
X113193611Y-100576618D01*
X113217801Y-100600808D01*
X113508087Y-100770141D02*
X113459706Y-100745951D01*
X113435516Y-100721760D01*
X113411325Y-100673379D01*
X113411325Y-100649189D01*
X113435516Y-100600808D01*
X113459706Y-100576618D01*
X113508087Y-100552427D01*
X113604849Y-100552427D01*
X113653230Y-100576618D01*
X113677420Y-100600808D01*
X113701611Y-100649189D01*
X113701611Y-100673379D01*
X113677420Y-100721760D01*
X113653230Y-100745951D01*
X113604849Y-100770141D01*
X113508087Y-100770141D01*
X113459706Y-100794332D01*
X113435516Y-100818522D01*
X113411325Y-100866903D01*
X113411325Y-100963665D01*
X113435516Y-101012046D01*
X113459706Y-101036237D01*
X113508087Y-101060427D01*
X113604849Y-101060427D01*
X113653230Y-101036237D01*
X113677420Y-101012046D01*
X113701611Y-100963665D01*
X113701611Y-100866903D01*
X113677420Y-100818522D01*
X113653230Y-100794332D01*
X113604849Y-100770141D01*
X114016087Y-100552427D02*
X114064468Y-100552427D01*
X114112849Y-100576618D01*
X114137039Y-100600808D01*
X114161230Y-100649189D01*
X114185420Y-100745951D01*
X114185420Y-100866903D01*
X114161230Y-100963665D01*
X114137039Y-101012046D01*
X114112849Y-101036237D01*
X114064468Y-101060427D01*
X114016087Y-101060427D01*
X113967706Y-101036237D01*
X113943516Y-101012046D01*
X113919325Y-100963665D01*
X113895135Y-100866903D01*
X113895135Y-100745951D01*
X113919325Y-100649189D01*
X113943516Y-100600808D01*
X113967706Y-100576618D01*
X114016087Y-100552427D01*
X114475706Y-100770141D02*
X114427325Y-100745951D01*
X114403135Y-100721760D01*
X114378944Y-100673379D01*
X114378944Y-100649189D01*
X114403135Y-100600808D01*
X114427325Y-100576618D01*
X114475706Y-100552427D01*
X114572468Y-100552427D01*
X114620849Y-100576618D01*
X114645039Y-100600808D01*
X114669230Y-100649189D01*
X114669230Y-100673379D01*
X114645039Y-100721760D01*
X114620849Y-100745951D01*
X114572468Y-100770141D01*
X114475706Y-100770141D01*
X114427325Y-100794332D01*
X114403135Y-100818522D01*
X114378944Y-100866903D01*
X114378944Y-100963665D01*
X114403135Y-101012046D01*
X114427325Y-101036237D01*
X114475706Y-101060427D01*
X114572468Y-101060427D01*
X114620849Y-101036237D01*
X114645039Y-101012046D01*
X114669230Y-100963665D01*
X114669230Y-100866903D01*
X114645039Y-100818522D01*
X114620849Y-100794332D01*
X114572468Y-100770141D01*
X94675801Y-77898046D02*
X94651611Y-77922237D01*
X94579039Y-77946427D01*
X94530658Y-77946427D01*
X94458087Y-77922237D01*
X94409706Y-77873856D01*
X94385516Y-77825475D01*
X94361325Y-77728713D01*
X94361325Y-77656141D01*
X94385516Y-77559379D01*
X94409706Y-77510998D01*
X94458087Y-77462618D01*
X94530658Y-77438427D01*
X94579039Y-77438427D01*
X94651611Y-77462618D01*
X94675801Y-77486808D01*
X95183801Y-77946427D02*
X95014468Y-77704522D01*
X94893516Y-77946427D02*
X94893516Y-77438427D01*
X95087039Y-77438427D01*
X95135420Y-77462618D01*
X95159611Y-77486808D01*
X95183801Y-77535189D01*
X95183801Y-77607760D01*
X95159611Y-77656141D01*
X95135420Y-77680332D01*
X95087039Y-77704522D01*
X94893516Y-77704522D01*
X95474087Y-77656141D02*
X95425706Y-77631951D01*
X95401516Y-77607760D01*
X95377325Y-77559379D01*
X95377325Y-77535189D01*
X95401516Y-77486808D01*
X95425706Y-77462618D01*
X95474087Y-77438427D01*
X95570849Y-77438427D01*
X95619230Y-77462618D01*
X95643420Y-77486808D01*
X95667611Y-77535189D01*
X95667611Y-77559379D01*
X95643420Y-77607760D01*
X95619230Y-77631951D01*
X95570849Y-77656141D01*
X95474087Y-77656141D01*
X95425706Y-77680332D01*
X95401516Y-77704522D01*
X95377325Y-77752903D01*
X95377325Y-77849665D01*
X95401516Y-77898046D01*
X95425706Y-77922237D01*
X95474087Y-77946427D01*
X95570849Y-77946427D01*
X95619230Y-77922237D01*
X95643420Y-77898046D01*
X95667611Y-77849665D01*
X95667611Y-77752903D01*
X95643420Y-77704522D01*
X95619230Y-77680332D01*
X95570849Y-77656141D01*
X95982087Y-77438427D02*
X96030468Y-77438427D01*
X96078849Y-77462618D01*
X96103039Y-77486808D01*
X96127230Y-77535189D01*
X96151420Y-77631951D01*
X96151420Y-77752903D01*
X96127230Y-77849665D01*
X96103039Y-77898046D01*
X96078849Y-77922237D01*
X96030468Y-77946427D01*
X95982087Y-77946427D01*
X95933706Y-77922237D01*
X95909516Y-77898046D01*
X95885325Y-77849665D01*
X95861135Y-77752903D01*
X95861135Y-77631951D01*
X95885325Y-77535189D01*
X95909516Y-77486808D01*
X95933706Y-77462618D01*
X95982087Y-77438427D01*
X96635230Y-77946427D02*
X96344944Y-77946427D01*
X96490087Y-77946427D02*
X96490087Y-77438427D01*
X96441706Y-77510998D01*
X96393325Y-77559379D01*
X96344944Y-77583570D01*
X107022620Y-107461227D02*
X107022620Y-107872465D01*
X107046811Y-107920846D01*
X107071001Y-107945037D01*
X107119382Y-107969227D01*
X107216144Y-107969227D01*
X107264525Y-107945037D01*
X107288716Y-107920846D01*
X107312906Y-107872465D01*
X107312906Y-107461227D01*
X107627382Y-107678941D02*
X107579001Y-107654751D01*
X107554811Y-107630560D01*
X107530620Y-107582179D01*
X107530620Y-107557989D01*
X107554811Y-107509608D01*
X107579001Y-107485418D01*
X107627382Y-107461227D01*
X107724144Y-107461227D01*
X107772525Y-107485418D01*
X107796716Y-107509608D01*
X107820906Y-107557989D01*
X107820906Y-107582179D01*
X107796716Y-107630560D01*
X107772525Y-107654751D01*
X107724144Y-107678941D01*
X107627382Y-107678941D01*
X107579001Y-107703132D01*
X107554811Y-107727322D01*
X107530620Y-107775703D01*
X107530620Y-107872465D01*
X107554811Y-107920846D01*
X107579001Y-107945037D01*
X107627382Y-107969227D01*
X107724144Y-107969227D01*
X107772525Y-107945037D01*
X107796716Y-107920846D01*
X107820906Y-107872465D01*
X107820906Y-107775703D01*
X107796716Y-107727322D01*
X107772525Y-107703132D01*
X107724144Y-107678941D01*
X108135382Y-107461227D02*
X108183763Y-107461227D01*
X108232144Y-107485418D01*
X108256335Y-107509608D01*
X108280525Y-107557989D01*
X108304716Y-107654751D01*
X108304716Y-107775703D01*
X108280525Y-107872465D01*
X108256335Y-107920846D01*
X108232144Y-107945037D01*
X108183763Y-107969227D01*
X108135382Y-107969227D01*
X108087001Y-107945037D01*
X108062811Y-107920846D01*
X108038620Y-107872465D01*
X108014430Y-107775703D01*
X108014430Y-107654751D01*
X108038620Y-107557989D01*
X108062811Y-107509608D01*
X108087001Y-107485418D01*
X108135382Y-107461227D01*
X108788525Y-107969227D02*
X108498239Y-107969227D01*
X108643382Y-107969227D02*
X108643382Y-107461227D01*
X108595001Y-107533798D01*
X108546620Y-107582179D01*
X108498239Y-107606370D01*
X128584801Y-75025427D02*
X128415468Y-74783522D01*
X128294516Y-75025427D02*
X128294516Y-74517427D01*
X128488039Y-74517427D01*
X128536420Y-74541618D01*
X128560611Y-74565808D01*
X128584801Y-74614189D01*
X128584801Y-74686760D01*
X128560611Y-74735141D01*
X128536420Y-74759332D01*
X128488039Y-74783522D01*
X128294516Y-74783522D01*
X128778325Y-74565808D02*
X128802516Y-74541618D01*
X128850897Y-74517427D01*
X128971849Y-74517427D01*
X129020230Y-74541618D01*
X129044420Y-74565808D01*
X129068611Y-74614189D01*
X129068611Y-74662570D01*
X129044420Y-74735141D01*
X128754135Y-75025427D01*
X129068611Y-75025427D01*
X129383087Y-74517427D02*
X129431468Y-74517427D01*
X129479849Y-74541618D01*
X129504039Y-74565808D01*
X129528230Y-74614189D01*
X129552420Y-74710951D01*
X129552420Y-74831903D01*
X129528230Y-74928665D01*
X129504039Y-74977046D01*
X129479849Y-75001237D01*
X129431468Y-75025427D01*
X129383087Y-75025427D01*
X129334706Y-75001237D01*
X129310516Y-74977046D01*
X129286325Y-74928665D01*
X129262135Y-74831903D01*
X129262135Y-74710951D01*
X129286325Y-74614189D01*
X129310516Y-74565808D01*
X129334706Y-74541618D01*
X129383087Y-74517427D01*
X129987849Y-74517427D02*
X129891087Y-74517427D01*
X129842706Y-74541618D01*
X129818516Y-74565808D01*
X129770135Y-74638379D01*
X129745944Y-74735141D01*
X129745944Y-74928665D01*
X129770135Y-74977046D01*
X129794325Y-75001237D01*
X129842706Y-75025427D01*
X129939468Y-75025427D01*
X129987849Y-75001237D01*
X130012039Y-74977046D01*
X130036230Y-74928665D01*
X130036230Y-74807713D01*
X130012039Y-74759332D01*
X129987849Y-74735141D01*
X129939468Y-74710951D01*
X129842706Y-74710951D01*
X129794325Y-74735141D01*
X129770135Y-74759332D01*
X129745944Y-74807713D01*
X103692801Y-111220427D02*
X103523468Y-110978522D01*
X103402516Y-111220427D02*
X103402516Y-110712427D01*
X103596039Y-110712427D01*
X103644420Y-110736618D01*
X103668611Y-110760808D01*
X103692801Y-110809189D01*
X103692801Y-110881760D01*
X103668611Y-110930141D01*
X103644420Y-110954332D01*
X103596039Y-110978522D01*
X103402516Y-110978522D01*
X103983087Y-110930141D02*
X103934706Y-110905951D01*
X103910516Y-110881760D01*
X103886325Y-110833379D01*
X103886325Y-110809189D01*
X103910516Y-110760808D01*
X103934706Y-110736618D01*
X103983087Y-110712427D01*
X104079849Y-110712427D01*
X104128230Y-110736618D01*
X104152420Y-110760808D01*
X104176611Y-110809189D01*
X104176611Y-110833379D01*
X104152420Y-110881760D01*
X104128230Y-110905951D01*
X104079849Y-110930141D01*
X103983087Y-110930141D01*
X103934706Y-110954332D01*
X103910516Y-110978522D01*
X103886325Y-111026903D01*
X103886325Y-111123665D01*
X103910516Y-111172046D01*
X103934706Y-111196237D01*
X103983087Y-111220427D01*
X104079849Y-111220427D01*
X104128230Y-111196237D01*
X104152420Y-111172046D01*
X104176611Y-111123665D01*
X104176611Y-111026903D01*
X104152420Y-110978522D01*
X104128230Y-110954332D01*
X104079849Y-110930141D01*
X104491087Y-110712427D02*
X104539468Y-110712427D01*
X104587849Y-110736618D01*
X104612039Y-110760808D01*
X104636230Y-110809189D01*
X104660420Y-110905951D01*
X104660420Y-111026903D01*
X104636230Y-111123665D01*
X104612039Y-111172046D01*
X104587849Y-111196237D01*
X104539468Y-111220427D01*
X104491087Y-111220427D01*
X104442706Y-111196237D01*
X104418516Y-111172046D01*
X104394325Y-111123665D01*
X104370135Y-111026903D01*
X104370135Y-110905951D01*
X104394325Y-110809189D01*
X104418516Y-110760808D01*
X104442706Y-110736618D01*
X104491087Y-110712427D01*
X104902325Y-111220427D02*
X104999087Y-111220427D01*
X105047468Y-111196237D01*
X105071658Y-111172046D01*
X105120039Y-111099475D01*
X105144230Y-111002713D01*
X105144230Y-110809189D01*
X105120039Y-110760808D01*
X105095849Y-110736618D01*
X105047468Y-110712427D01*
X104950706Y-110712427D01*
X104902325Y-110736618D01*
X104878135Y-110760808D01*
X104853944Y-110809189D01*
X104853944Y-110930141D01*
X104878135Y-110978522D01*
X104902325Y-111002713D01*
X104950706Y-111026903D01*
X105047468Y-111026903D01*
X105095849Y-111002713D01*
X105120039Y-110978522D01*
X105144230Y-110930141D01*
X103021946Y-111354809D02*
X103021946Y-111475761D01*
X102900993Y-111427380D02*
X103021946Y-111475761D01*
X103142898Y-111427380D01*
X102949374Y-111572523D02*
X103021946Y-111475761D01*
X103094517Y-111572523D01*
X85277801Y-67992046D02*
X85253611Y-68016237D01*
X85181039Y-68040427D01*
X85132658Y-68040427D01*
X85060087Y-68016237D01*
X85011706Y-67967856D01*
X84987516Y-67919475D01*
X84963325Y-67822713D01*
X84963325Y-67750141D01*
X84987516Y-67653379D01*
X85011706Y-67604998D01*
X85060087Y-67556618D01*
X85132658Y-67532427D01*
X85181039Y-67532427D01*
X85253611Y-67556618D01*
X85277801Y-67580808D01*
X85568087Y-67750141D02*
X85519706Y-67725951D01*
X85495516Y-67701760D01*
X85471325Y-67653379D01*
X85471325Y-67629189D01*
X85495516Y-67580808D01*
X85519706Y-67556618D01*
X85568087Y-67532427D01*
X85664849Y-67532427D01*
X85713230Y-67556618D01*
X85737420Y-67580808D01*
X85761611Y-67629189D01*
X85761611Y-67653379D01*
X85737420Y-67701760D01*
X85713230Y-67725951D01*
X85664849Y-67750141D01*
X85568087Y-67750141D01*
X85519706Y-67774332D01*
X85495516Y-67798522D01*
X85471325Y-67846903D01*
X85471325Y-67943665D01*
X85495516Y-67992046D01*
X85519706Y-68016237D01*
X85568087Y-68040427D01*
X85664849Y-68040427D01*
X85713230Y-68016237D01*
X85737420Y-67992046D01*
X85761611Y-67943665D01*
X85761611Y-67846903D01*
X85737420Y-67798522D01*
X85713230Y-67774332D01*
X85664849Y-67750141D01*
X86076087Y-67532427D02*
X86124468Y-67532427D01*
X86172849Y-67556618D01*
X86197039Y-67580808D01*
X86221230Y-67629189D01*
X86245420Y-67725951D01*
X86245420Y-67846903D01*
X86221230Y-67943665D01*
X86197039Y-67992046D01*
X86172849Y-68016237D01*
X86124468Y-68040427D01*
X86076087Y-68040427D01*
X86027706Y-68016237D01*
X86003516Y-67992046D01*
X85979325Y-67943665D01*
X85955135Y-67846903D01*
X85955135Y-67725951D01*
X85979325Y-67629189D01*
X86003516Y-67580808D01*
X86027706Y-67556618D01*
X86076087Y-67532427D01*
X86729230Y-68040427D02*
X86438944Y-68040427D01*
X86584087Y-68040427D02*
X86584087Y-67532427D01*
X86535706Y-67604998D01*
X86487325Y-67653379D01*
X86438944Y-67677570D01*
D14*
X104878478Y-85169110D02*
X104878478Y-85884555D01*
X104830782Y-86027643D01*
X104735389Y-86123036D01*
X104592300Y-86170732D01*
X104496908Y-86170732D01*
X105260048Y-85169110D02*
X105880100Y-85169110D01*
X105546226Y-85550681D01*
X105689315Y-85550681D01*
X105784707Y-85598377D01*
X105832404Y-85646073D01*
X105880100Y-85741466D01*
X105880100Y-85979947D01*
X105832404Y-86075340D01*
X105784707Y-86123036D01*
X105689315Y-86170732D01*
X105403137Y-86170732D01*
X105307744Y-86123036D01*
X105260048Y-86075340D01*
X106500152Y-85169110D02*
X106595544Y-85169110D01*
X106690937Y-85216807D01*
X106738633Y-85264503D01*
X106786329Y-85359895D01*
X106834026Y-85550681D01*
X106834026Y-85789162D01*
X106786329Y-85979947D01*
X106738633Y-86075340D01*
X106690937Y-86123036D01*
X106595544Y-86170732D01*
X106500152Y-86170732D01*
X106404759Y-86123036D01*
X106357063Y-86075340D01*
X106309366Y-85979947D01*
X106261670Y-85789162D01*
X106261670Y-85550681D01*
X106309366Y-85359895D01*
X106357063Y-85264503D01*
X106404759Y-85216807D01*
X106500152Y-85169110D01*
X107787951Y-86170732D02*
X107215596Y-86170732D01*
X107501774Y-86170732D02*
X107501774Y-85169110D01*
X107406381Y-85312199D01*
X107310988Y-85407592D01*
X107215596Y-85455288D01*
D13*
X79853087Y-90894379D02*
X79345087Y-90894379D01*
X79345087Y-90773427D01*
X79369278Y-90700856D01*
X79417658Y-90652475D01*
X79466039Y-90628284D01*
X79562801Y-90604094D01*
X79635373Y-90604094D01*
X79732135Y-90628284D01*
X79780516Y-90652475D01*
X79828897Y-90700856D01*
X79853087Y-90773427D01*
X79853087Y-90894379D01*
X79562801Y-90313808D02*
X79538611Y-90362189D01*
X79514420Y-90386379D01*
X79466039Y-90410570D01*
X79441849Y-90410570D01*
X79393468Y-90386379D01*
X79369278Y-90362189D01*
X79345087Y-90313808D01*
X79345087Y-90217046D01*
X79369278Y-90168665D01*
X79393468Y-90144475D01*
X79441849Y-90120284D01*
X79466039Y-90120284D01*
X79514420Y-90144475D01*
X79538611Y-90168665D01*
X79562801Y-90217046D01*
X79562801Y-90313808D01*
X79586992Y-90362189D01*
X79611182Y-90386379D01*
X79659563Y-90410570D01*
X79756325Y-90410570D01*
X79804706Y-90386379D01*
X79828897Y-90362189D01*
X79853087Y-90313808D01*
X79853087Y-90217046D01*
X79828897Y-90168665D01*
X79804706Y-90144475D01*
X79756325Y-90120284D01*
X79659563Y-90120284D01*
X79611182Y-90144475D01*
X79586992Y-90168665D01*
X79562801Y-90217046D01*
X79345087Y-89805808D02*
X79345087Y-89757427D01*
X79369278Y-89709046D01*
X79393468Y-89684856D01*
X79441849Y-89660665D01*
X79538611Y-89636475D01*
X79659563Y-89636475D01*
X79756325Y-89660665D01*
X79804706Y-89684856D01*
X79828897Y-89709046D01*
X79853087Y-89757427D01*
X79853087Y-89805808D01*
X79828897Y-89854189D01*
X79804706Y-89878379D01*
X79756325Y-89902570D01*
X79659563Y-89926760D01*
X79538611Y-89926760D01*
X79441849Y-89902570D01*
X79393468Y-89878379D01*
X79369278Y-89854189D01*
X79345087Y-89805808D01*
X79853087Y-89152665D02*
X79853087Y-89442951D01*
X79853087Y-89297808D02*
X79345087Y-89297808D01*
X79417658Y-89346189D01*
X79466039Y-89394570D01*
X79490230Y-89442951D01*
X128536420Y-95448237D02*
X128608992Y-95472427D01*
X128729944Y-95472427D01*
X128778325Y-95448237D01*
X128802516Y-95424046D01*
X128826706Y-95375665D01*
X128826706Y-95327284D01*
X128802516Y-95278903D01*
X128778325Y-95254713D01*
X128729944Y-95230522D01*
X128633182Y-95206332D01*
X128584801Y-95182141D01*
X128560611Y-95157951D01*
X128536420Y-95109570D01*
X128536420Y-95061189D01*
X128560611Y-95012808D01*
X128584801Y-94988618D01*
X128633182Y-94964427D01*
X128754135Y-94964427D01*
X128826706Y-94988618D01*
X129286325Y-94964427D02*
X129044420Y-94964427D01*
X129020230Y-95206332D01*
X129044420Y-95182141D01*
X129092801Y-95157951D01*
X129213754Y-95157951D01*
X129262135Y-95182141D01*
X129286325Y-95206332D01*
X129310516Y-95254713D01*
X129310516Y-95375665D01*
X129286325Y-95424046D01*
X129262135Y-95448237D01*
X129213754Y-95472427D01*
X129092801Y-95472427D01*
X129044420Y-95448237D01*
X129020230Y-95424046D01*
X129624992Y-94964427D02*
X129673373Y-94964427D01*
X129721754Y-94988618D01*
X129745944Y-95012808D01*
X129770135Y-95061189D01*
X129794325Y-95157951D01*
X129794325Y-95278903D01*
X129770135Y-95375665D01*
X129745944Y-95424046D01*
X129721754Y-95448237D01*
X129673373Y-95472427D01*
X129624992Y-95472427D01*
X129576611Y-95448237D01*
X129552420Y-95424046D01*
X129528230Y-95375665D01*
X129504039Y-95278903D01*
X129504039Y-95157951D01*
X129528230Y-95061189D01*
X129552420Y-95012808D01*
X129576611Y-94988618D01*
X129624992Y-94964427D01*
X130278135Y-95472427D02*
X129987849Y-95472427D01*
X130132992Y-95472427D02*
X130132992Y-94964427D01*
X130084611Y-95036998D01*
X130036230Y-95085379D01*
X129987849Y-95109570D01*
X96834801Y-84804427D02*
X96665468Y-84562522D01*
X96544516Y-84804427D02*
X96544516Y-84296427D01*
X96738039Y-84296427D01*
X96786420Y-84320618D01*
X96810611Y-84344808D01*
X96834801Y-84393189D01*
X96834801Y-84465760D01*
X96810611Y-84514141D01*
X96786420Y-84538332D01*
X96738039Y-84562522D01*
X96544516Y-84562522D01*
X97004135Y-84296427D02*
X97318611Y-84296427D01*
X97149278Y-84489951D01*
X97221849Y-84489951D01*
X97270230Y-84514141D01*
X97294420Y-84538332D01*
X97318611Y-84586713D01*
X97318611Y-84707665D01*
X97294420Y-84756046D01*
X97270230Y-84780237D01*
X97221849Y-84804427D01*
X97076706Y-84804427D01*
X97028325Y-84780237D01*
X97004135Y-84756046D01*
X97633087Y-84296427D02*
X97681468Y-84296427D01*
X97729849Y-84320618D01*
X97754039Y-84344808D01*
X97778230Y-84393189D01*
X97802420Y-84489951D01*
X97802420Y-84610903D01*
X97778230Y-84707665D01*
X97754039Y-84756046D01*
X97729849Y-84780237D01*
X97681468Y-84804427D01*
X97633087Y-84804427D01*
X97584706Y-84780237D01*
X97560516Y-84756046D01*
X97536325Y-84707665D01*
X97512135Y-84610903D01*
X97512135Y-84489951D01*
X97536325Y-84393189D01*
X97560516Y-84344808D01*
X97584706Y-84320618D01*
X97633087Y-84296427D01*
X98286230Y-84804427D02*
X97995944Y-84804427D01*
X98141087Y-84804427D02*
X98141087Y-84296427D01*
X98092706Y-84368998D01*
X98044325Y-84417379D01*
X97995944Y-84441570D01*
X86039801Y-116046427D02*
X85870468Y-115804522D01*
X85749516Y-116046427D02*
X85749516Y-115538427D01*
X85943039Y-115538427D01*
X85991420Y-115562618D01*
X86015611Y-115586808D01*
X86039801Y-115635189D01*
X86039801Y-115707760D01*
X86015611Y-115756141D01*
X85991420Y-115780332D01*
X85943039Y-115804522D01*
X85749516Y-115804522D01*
X86499420Y-115538427D02*
X86257516Y-115538427D01*
X86233325Y-115780332D01*
X86257516Y-115756141D01*
X86305897Y-115731951D01*
X86426849Y-115731951D01*
X86475230Y-115756141D01*
X86499420Y-115780332D01*
X86523611Y-115828713D01*
X86523611Y-115949665D01*
X86499420Y-115998046D01*
X86475230Y-116022237D01*
X86426849Y-116046427D01*
X86305897Y-116046427D01*
X86257516Y-116022237D01*
X86233325Y-115998046D01*
X87007420Y-116046427D02*
X86717135Y-116046427D01*
X86862278Y-116046427D02*
X86862278Y-115538427D01*
X86813897Y-115610998D01*
X86765516Y-115659379D01*
X86717135Y-115683570D01*
X87467039Y-115538427D02*
X87225135Y-115538427D01*
X87200944Y-115780332D01*
X87225135Y-115756141D01*
X87273516Y-115731951D01*
X87394468Y-115731951D01*
X87442849Y-115756141D01*
X87467039Y-115780332D01*
X87491230Y-115828713D01*
X87491230Y-115949665D01*
X87467039Y-115998046D01*
X87442849Y-116022237D01*
X87394468Y-116046427D01*
X87273516Y-116046427D01*
X87225135Y-116022237D01*
X87200944Y-115998046D01*
X94040801Y-120189046D02*
X94016611Y-120213237D01*
X93944039Y-120237427D01*
X93895658Y-120237427D01*
X93823087Y-120213237D01*
X93774706Y-120164856D01*
X93750516Y-120116475D01*
X93726325Y-120019713D01*
X93726325Y-119947141D01*
X93750516Y-119850379D01*
X93774706Y-119801998D01*
X93823087Y-119753618D01*
X93895658Y-119729427D01*
X93944039Y-119729427D01*
X94016611Y-119753618D01*
X94040801Y-119777808D01*
X94210135Y-119729427D02*
X94548801Y-119729427D01*
X94331087Y-120237427D01*
X94839087Y-119729427D02*
X94887468Y-119729427D01*
X94935849Y-119753618D01*
X94960039Y-119777808D01*
X94984230Y-119826189D01*
X95008420Y-119922951D01*
X95008420Y-120043903D01*
X94984230Y-120140665D01*
X94960039Y-120189046D01*
X94935849Y-120213237D01*
X94887468Y-120237427D01*
X94839087Y-120237427D01*
X94790706Y-120213237D01*
X94766516Y-120189046D01*
X94742325Y-120140665D01*
X94718135Y-120043903D01*
X94718135Y-119922951D01*
X94742325Y-119826189D01*
X94766516Y-119777808D01*
X94790706Y-119753618D01*
X94839087Y-119729427D01*
X95492230Y-120237427D02*
X95201944Y-120237427D01*
X95347087Y-120237427D02*
X95347087Y-119729427D01*
X95298706Y-119801998D01*
X95250325Y-119850379D01*
X95201944Y-119874570D01*
X88198801Y-93821427D02*
X88029468Y-93579522D01*
X87908516Y-93821427D02*
X87908516Y-93313427D01*
X88102039Y-93313427D01*
X88150420Y-93337618D01*
X88174611Y-93361808D01*
X88198801Y-93410189D01*
X88198801Y-93482760D01*
X88174611Y-93531141D01*
X88150420Y-93555332D01*
X88102039Y-93579522D01*
X87908516Y-93579522D01*
X88440706Y-93821427D02*
X88537468Y-93821427D01*
X88585849Y-93797237D01*
X88610039Y-93773046D01*
X88658420Y-93700475D01*
X88682611Y-93603713D01*
X88682611Y-93410189D01*
X88658420Y-93361808D01*
X88634230Y-93337618D01*
X88585849Y-93313427D01*
X88489087Y-93313427D01*
X88440706Y-93337618D01*
X88416516Y-93361808D01*
X88392325Y-93410189D01*
X88392325Y-93531141D01*
X88416516Y-93579522D01*
X88440706Y-93603713D01*
X88489087Y-93627903D01*
X88585849Y-93627903D01*
X88634230Y-93603713D01*
X88658420Y-93579522D01*
X88682611Y-93531141D01*
X88997087Y-93313427D02*
X89045468Y-93313427D01*
X89093849Y-93337618D01*
X89118039Y-93361808D01*
X89142230Y-93410189D01*
X89166420Y-93506951D01*
X89166420Y-93627903D01*
X89142230Y-93724665D01*
X89118039Y-93773046D01*
X89093849Y-93797237D01*
X89045468Y-93821427D01*
X88997087Y-93821427D01*
X88948706Y-93797237D01*
X88924516Y-93773046D01*
X88900325Y-93724665D01*
X88876135Y-93627903D01*
X88876135Y-93506951D01*
X88900325Y-93410189D01*
X88924516Y-93361808D01*
X88948706Y-93337618D01*
X88997087Y-93313427D01*
X89335754Y-93313427D02*
X89650230Y-93313427D01*
X89480897Y-93506951D01*
X89553468Y-93506951D01*
X89601849Y-93531141D01*
X89626039Y-93555332D01*
X89650230Y-93603713D01*
X89650230Y-93724665D01*
X89626039Y-93773046D01*
X89601849Y-93797237D01*
X89553468Y-93821427D01*
X89408325Y-93821427D01*
X89359944Y-93797237D01*
X89335754Y-93773046D01*
X89722801Y-101060427D02*
X89553468Y-100818522D01*
X89432516Y-101060427D02*
X89432516Y-100552427D01*
X89626039Y-100552427D01*
X89674420Y-100576618D01*
X89698611Y-100600808D01*
X89722801Y-100649189D01*
X89722801Y-100721760D01*
X89698611Y-100770141D01*
X89674420Y-100794332D01*
X89626039Y-100818522D01*
X89432516Y-100818522D01*
X90013087Y-100770141D02*
X89964706Y-100745951D01*
X89940516Y-100721760D01*
X89916325Y-100673379D01*
X89916325Y-100649189D01*
X89940516Y-100600808D01*
X89964706Y-100576618D01*
X90013087Y-100552427D01*
X90109849Y-100552427D01*
X90158230Y-100576618D01*
X90182420Y-100600808D01*
X90206611Y-100649189D01*
X90206611Y-100673379D01*
X90182420Y-100721760D01*
X90158230Y-100745951D01*
X90109849Y-100770141D01*
X90013087Y-100770141D01*
X89964706Y-100794332D01*
X89940516Y-100818522D01*
X89916325Y-100866903D01*
X89916325Y-100963665D01*
X89940516Y-101012046D01*
X89964706Y-101036237D01*
X90013087Y-101060427D01*
X90109849Y-101060427D01*
X90158230Y-101036237D01*
X90182420Y-101012046D01*
X90206611Y-100963665D01*
X90206611Y-100866903D01*
X90182420Y-100818522D01*
X90158230Y-100794332D01*
X90109849Y-100770141D01*
X90690420Y-101060427D02*
X90400135Y-101060427D01*
X90545278Y-101060427D02*
X90545278Y-100552427D01*
X90496897Y-100624998D01*
X90448516Y-100673379D01*
X90400135Y-100697570D01*
X91125849Y-100721760D02*
X91125849Y-101060427D01*
X91004897Y-100528237D02*
X90883944Y-100891094D01*
X91198420Y-100891094D01*
X109915801Y-106219046D02*
X109891611Y-106243237D01*
X109819039Y-106267427D01*
X109770658Y-106267427D01*
X109698087Y-106243237D01*
X109649706Y-106194856D01*
X109625516Y-106146475D01*
X109601325Y-106049713D01*
X109601325Y-105977141D01*
X109625516Y-105880379D01*
X109649706Y-105831998D01*
X109698087Y-105783618D01*
X109770658Y-105759427D01*
X109819039Y-105759427D01*
X109891611Y-105783618D01*
X109915801Y-105807808D01*
X110206087Y-105977141D02*
X110157706Y-105952951D01*
X110133516Y-105928760D01*
X110109325Y-105880379D01*
X110109325Y-105856189D01*
X110133516Y-105807808D01*
X110157706Y-105783618D01*
X110206087Y-105759427D01*
X110302849Y-105759427D01*
X110351230Y-105783618D01*
X110375420Y-105807808D01*
X110399611Y-105856189D01*
X110399611Y-105880379D01*
X110375420Y-105928760D01*
X110351230Y-105952951D01*
X110302849Y-105977141D01*
X110206087Y-105977141D01*
X110157706Y-106001332D01*
X110133516Y-106025522D01*
X110109325Y-106073903D01*
X110109325Y-106170665D01*
X110133516Y-106219046D01*
X110157706Y-106243237D01*
X110206087Y-106267427D01*
X110302849Y-106267427D01*
X110351230Y-106243237D01*
X110375420Y-106219046D01*
X110399611Y-106170665D01*
X110399611Y-106073903D01*
X110375420Y-106025522D01*
X110351230Y-106001332D01*
X110302849Y-105977141D01*
X110714087Y-105759427D02*
X110762468Y-105759427D01*
X110810849Y-105783618D01*
X110835039Y-105807808D01*
X110859230Y-105856189D01*
X110883420Y-105952951D01*
X110883420Y-106073903D01*
X110859230Y-106170665D01*
X110835039Y-106219046D01*
X110810849Y-106243237D01*
X110762468Y-106267427D01*
X110714087Y-106267427D01*
X110665706Y-106243237D01*
X110641516Y-106219046D01*
X110617325Y-106170665D01*
X110593135Y-106073903D01*
X110593135Y-105952951D01*
X110617325Y-105856189D01*
X110641516Y-105807808D01*
X110665706Y-105783618D01*
X110714087Y-105759427D01*
X111125325Y-106267427D02*
X111222087Y-106267427D01*
X111270468Y-106243237D01*
X111294658Y-106219046D01*
X111343039Y-106146475D01*
X111367230Y-106049713D01*
X111367230Y-105856189D01*
X111343039Y-105807808D01*
X111318849Y-105783618D01*
X111270468Y-105759427D01*
X111173706Y-105759427D01*
X111125325Y-105783618D01*
X111101135Y-105807808D01*
X111076944Y-105856189D01*
X111076944Y-105977141D01*
X111101135Y-106025522D01*
X111125325Y-106049713D01*
X111173706Y-106073903D01*
X111270468Y-106073903D01*
X111318849Y-106049713D01*
X111343039Y-106025522D01*
X111367230Y-105977141D01*
X117281801Y-70024046D02*
X117257611Y-70048237D01*
X117185039Y-70072427D01*
X117136658Y-70072427D01*
X117064087Y-70048237D01*
X117015706Y-69999856D01*
X116991516Y-69951475D01*
X116967325Y-69854713D01*
X116967325Y-69782141D01*
X116991516Y-69685379D01*
X117015706Y-69636998D01*
X117064087Y-69588618D01*
X117136658Y-69564427D01*
X117185039Y-69564427D01*
X117257611Y-69588618D01*
X117281801Y-69612808D01*
X117475325Y-69612808D02*
X117499516Y-69588618D01*
X117547897Y-69564427D01*
X117668849Y-69564427D01*
X117717230Y-69588618D01*
X117741420Y-69612808D01*
X117765611Y-69661189D01*
X117765611Y-69709570D01*
X117741420Y-69782141D01*
X117451135Y-70072427D01*
X117765611Y-70072427D01*
X118080087Y-69564427D02*
X118128468Y-69564427D01*
X118176849Y-69588618D01*
X118201039Y-69612808D01*
X118225230Y-69661189D01*
X118249420Y-69757951D01*
X118249420Y-69878903D01*
X118225230Y-69975665D01*
X118201039Y-70024046D01*
X118176849Y-70048237D01*
X118128468Y-70072427D01*
X118080087Y-70072427D01*
X118031706Y-70048237D01*
X118007516Y-70024046D01*
X117983325Y-69975665D01*
X117959135Y-69878903D01*
X117959135Y-69757951D01*
X117983325Y-69661189D01*
X118007516Y-69612808D01*
X118031706Y-69588618D01*
X118080087Y-69564427D01*
X118442944Y-69612808D02*
X118467135Y-69588618D01*
X118515516Y-69564427D01*
X118636468Y-69564427D01*
X118684849Y-69588618D01*
X118709039Y-69612808D01*
X118733230Y-69661189D01*
X118733230Y-69709570D01*
X118709039Y-69782141D01*
X118418754Y-70072427D01*
X118733230Y-70072427D01*
X100173087Y-96827094D02*
X99931182Y-96996427D01*
X100173087Y-97117379D02*
X99665087Y-97117379D01*
X99665087Y-96923856D01*
X99689278Y-96875475D01*
X99713468Y-96851284D01*
X99761849Y-96827094D01*
X99834420Y-96827094D01*
X99882801Y-96851284D01*
X99906992Y-96875475D01*
X99931182Y-96923856D01*
X99931182Y-97117379D01*
X100173087Y-96585189D02*
X100173087Y-96488427D01*
X100148897Y-96440046D01*
X100124706Y-96415856D01*
X100052135Y-96367475D01*
X99955373Y-96343284D01*
X99761849Y-96343284D01*
X99713468Y-96367475D01*
X99689278Y-96391665D01*
X99665087Y-96440046D01*
X99665087Y-96536808D01*
X99689278Y-96585189D01*
X99713468Y-96609379D01*
X99761849Y-96633570D01*
X99882801Y-96633570D01*
X99931182Y-96609379D01*
X99955373Y-96585189D01*
X99979563Y-96536808D01*
X99979563Y-96440046D01*
X99955373Y-96391665D01*
X99931182Y-96367475D01*
X99882801Y-96343284D01*
X99665087Y-96028808D02*
X99665087Y-95980427D01*
X99689278Y-95932046D01*
X99713468Y-95907856D01*
X99761849Y-95883665D01*
X99858611Y-95859475D01*
X99979563Y-95859475D01*
X100076325Y-95883665D01*
X100124706Y-95907856D01*
X100148897Y-95932046D01*
X100173087Y-95980427D01*
X100173087Y-96028808D01*
X100148897Y-96077189D01*
X100124706Y-96101379D01*
X100076325Y-96125570D01*
X99979563Y-96149760D01*
X99858611Y-96149760D01*
X99761849Y-96125570D01*
X99713468Y-96101379D01*
X99689278Y-96077189D01*
X99665087Y-96028808D01*
X99713468Y-95665951D02*
X99689278Y-95641760D01*
X99665087Y-95593379D01*
X99665087Y-95472427D01*
X99689278Y-95424046D01*
X99713468Y-95399856D01*
X99761849Y-95375665D01*
X99810230Y-95375665D01*
X99882801Y-95399856D01*
X100173087Y-95690141D01*
X100173087Y-95375665D01*
X120837801Y-86836427D02*
X120668468Y-86594522D01*
X120547516Y-86836427D02*
X120547516Y-86328427D01*
X120741039Y-86328427D01*
X120789420Y-86352618D01*
X120813611Y-86376808D01*
X120837801Y-86425189D01*
X120837801Y-86497760D01*
X120813611Y-86546141D01*
X120789420Y-86570332D01*
X120741039Y-86594522D01*
X120547516Y-86594522D01*
X121297420Y-86328427D02*
X121055516Y-86328427D01*
X121031325Y-86570332D01*
X121055516Y-86546141D01*
X121103897Y-86521951D01*
X121224849Y-86521951D01*
X121273230Y-86546141D01*
X121297420Y-86570332D01*
X121321611Y-86618713D01*
X121321611Y-86739665D01*
X121297420Y-86788046D01*
X121273230Y-86812237D01*
X121224849Y-86836427D01*
X121103897Y-86836427D01*
X121055516Y-86812237D01*
X121031325Y-86788046D01*
X121636087Y-86328427D02*
X121684468Y-86328427D01*
X121732849Y-86352618D01*
X121757039Y-86376808D01*
X121781230Y-86425189D01*
X121805420Y-86521951D01*
X121805420Y-86642903D01*
X121781230Y-86739665D01*
X121757039Y-86788046D01*
X121732849Y-86812237D01*
X121684468Y-86836427D01*
X121636087Y-86836427D01*
X121587706Y-86812237D01*
X121563516Y-86788046D01*
X121539325Y-86739665D01*
X121515135Y-86642903D01*
X121515135Y-86521951D01*
X121539325Y-86425189D01*
X121563516Y-86376808D01*
X121587706Y-86352618D01*
X121636087Y-86328427D01*
X122240849Y-86328427D02*
X122144087Y-86328427D01*
X122095706Y-86352618D01*
X122071516Y-86376808D01*
X122023135Y-86449379D01*
X121998944Y-86546141D01*
X121998944Y-86739665D01*
X122023135Y-86788046D01*
X122047325Y-86812237D01*
X122095706Y-86836427D01*
X122192468Y-86836427D01*
X122240849Y-86812237D01*
X122265039Y-86788046D01*
X122289230Y-86739665D01*
X122289230Y-86618713D01*
X122265039Y-86570332D01*
X122240849Y-86546141D01*
X122192468Y-86521951D01*
X122095706Y-86521951D01*
X122047325Y-86546141D01*
X122023135Y-86570332D01*
X121998944Y-86618713D01*
X120547516Y-106902427D02*
X120547516Y-106394427D01*
X120668468Y-106394427D01*
X120741039Y-106418618D01*
X120789420Y-106466998D01*
X120813611Y-106515379D01*
X120837801Y-106612141D01*
X120837801Y-106684713D01*
X120813611Y-106781475D01*
X120789420Y-106829856D01*
X120741039Y-106878237D01*
X120668468Y-106902427D01*
X120547516Y-106902427D01*
X121297420Y-106394427D02*
X121055516Y-106394427D01*
X121031325Y-106636332D01*
X121055516Y-106612141D01*
X121103897Y-106587951D01*
X121224849Y-106587951D01*
X121273230Y-106612141D01*
X121297420Y-106636332D01*
X121321611Y-106684713D01*
X121321611Y-106805665D01*
X121297420Y-106854046D01*
X121273230Y-106878237D01*
X121224849Y-106902427D01*
X121103897Y-106902427D01*
X121055516Y-106878237D01*
X121031325Y-106854046D01*
X121636087Y-106394427D02*
X121684468Y-106394427D01*
X121732849Y-106418618D01*
X121757039Y-106442808D01*
X121781230Y-106491189D01*
X121805420Y-106587951D01*
X121805420Y-106708903D01*
X121781230Y-106805665D01*
X121757039Y-106854046D01*
X121732849Y-106878237D01*
X121684468Y-106902427D01*
X121636087Y-106902427D01*
X121587706Y-106878237D01*
X121563516Y-106854046D01*
X121539325Y-106805665D01*
X121515135Y-106708903D01*
X121515135Y-106587951D01*
X121539325Y-106491189D01*
X121563516Y-106442808D01*
X121587706Y-106418618D01*
X121636087Y-106394427D01*
X121998944Y-106442808D02*
X122023135Y-106418618D01*
X122071516Y-106394427D01*
X122192468Y-106394427D01*
X122240849Y-106418618D01*
X122265039Y-106442808D01*
X122289230Y-106491189D01*
X122289230Y-106539570D01*
X122265039Y-106612141D01*
X121974754Y-106902427D01*
X122289230Y-106902427D01*
X80117491Y-66832046D02*
X80093301Y-66856237D01*
X80020729Y-66880427D01*
X79972348Y-66880427D01*
X79899777Y-66856237D01*
X79851396Y-66807856D01*
X79827206Y-66759475D01*
X79803015Y-66662713D01*
X79803015Y-66590141D01*
X79827206Y-66493379D01*
X79851396Y-66444998D01*
X79899777Y-66396618D01*
X79972348Y-66372427D01*
X80020729Y-66372427D01*
X80093301Y-66396618D01*
X80117491Y-66420808D01*
X80407777Y-66590141D02*
X80359396Y-66565951D01*
X80335206Y-66541760D01*
X80311015Y-66493379D01*
X80311015Y-66469189D01*
X80335206Y-66420808D01*
X80359396Y-66396618D01*
X80407777Y-66372427D01*
X80504539Y-66372427D01*
X80552920Y-66396618D01*
X80577110Y-66420808D01*
X80601301Y-66469189D01*
X80601301Y-66493379D01*
X80577110Y-66541760D01*
X80552920Y-66565951D01*
X80504539Y-66590141D01*
X80407777Y-66590141D01*
X80359396Y-66614332D01*
X80335206Y-66638522D01*
X80311015Y-66686903D01*
X80311015Y-66783665D01*
X80335206Y-66832046D01*
X80359396Y-66856237D01*
X80407777Y-66880427D01*
X80504539Y-66880427D01*
X80552920Y-66856237D01*
X80577110Y-66832046D01*
X80601301Y-66783665D01*
X80601301Y-66686903D01*
X80577110Y-66638522D01*
X80552920Y-66614332D01*
X80504539Y-66590141D01*
X81085110Y-66880427D02*
X80794825Y-66880427D01*
X80939968Y-66880427D02*
X80939968Y-66372427D01*
X80891587Y-66444998D01*
X80843206Y-66493379D01*
X80794825Y-66517570D01*
X81399587Y-66372427D02*
X81447968Y-66372427D01*
X81496348Y-66396618D01*
X81520539Y-66420808D01*
X81544729Y-66469189D01*
X81568920Y-66565951D01*
X81568920Y-66686903D01*
X81544729Y-66783665D01*
X81520539Y-66832046D01*
X81496348Y-66856237D01*
X81447968Y-66880427D01*
X81399587Y-66880427D01*
X81351206Y-66856237D01*
X81327015Y-66832046D01*
X81302825Y-66783665D01*
X81278634Y-66686903D01*
X81278634Y-66565951D01*
X81302825Y-66469189D01*
X81327015Y-66420808D01*
X81351206Y-66396618D01*
X81399587Y-66372427D01*
X124012801Y-89503427D02*
X123843468Y-89261522D01*
X123722516Y-89503427D02*
X123722516Y-88995427D01*
X123916039Y-88995427D01*
X123964420Y-89019618D01*
X123988611Y-89043808D01*
X124012801Y-89092189D01*
X124012801Y-89164760D01*
X123988611Y-89213141D01*
X123964420Y-89237332D01*
X123916039Y-89261522D01*
X123722516Y-89261522D01*
X124472420Y-88995427D02*
X124230516Y-88995427D01*
X124206325Y-89237332D01*
X124230516Y-89213141D01*
X124278897Y-89188951D01*
X124399849Y-89188951D01*
X124448230Y-89213141D01*
X124472420Y-89237332D01*
X124496611Y-89285713D01*
X124496611Y-89406665D01*
X124472420Y-89455046D01*
X124448230Y-89479237D01*
X124399849Y-89503427D01*
X124278897Y-89503427D01*
X124230516Y-89479237D01*
X124206325Y-89455046D01*
X124811087Y-88995427D02*
X124859468Y-88995427D01*
X124907849Y-89019618D01*
X124932039Y-89043808D01*
X124956230Y-89092189D01*
X124980420Y-89188951D01*
X124980420Y-89309903D01*
X124956230Y-89406665D01*
X124932039Y-89455046D01*
X124907849Y-89479237D01*
X124859468Y-89503427D01*
X124811087Y-89503427D01*
X124762706Y-89479237D01*
X124738516Y-89455046D01*
X124714325Y-89406665D01*
X124690135Y-89309903D01*
X124690135Y-89188951D01*
X124714325Y-89092189D01*
X124738516Y-89043808D01*
X124762706Y-89019618D01*
X124811087Y-88995427D01*
X125440039Y-88995427D02*
X125198135Y-88995427D01*
X125173944Y-89237332D01*
X125198135Y-89213141D01*
X125246516Y-89188951D01*
X125367468Y-89188951D01*
X125415849Y-89213141D01*
X125440039Y-89237332D01*
X125464230Y-89285713D01*
X125464230Y-89406665D01*
X125440039Y-89455046D01*
X125415849Y-89479237D01*
X125367468Y-89503427D01*
X125246516Y-89503427D01*
X125198135Y-89479237D01*
X125173944Y-89455046D01*
X120710801Y-114220046D02*
X120686611Y-114244237D01*
X120614039Y-114268427D01*
X120565658Y-114268427D01*
X120493087Y-114244237D01*
X120444706Y-114195856D01*
X120420516Y-114147475D01*
X120396325Y-114050713D01*
X120396325Y-113978141D01*
X120420516Y-113881379D01*
X120444706Y-113832998D01*
X120493087Y-113784618D01*
X120565658Y-113760427D01*
X120614039Y-113760427D01*
X120686611Y-113784618D01*
X120710801Y-113808808D01*
X121001087Y-113978141D02*
X120952706Y-113953951D01*
X120928516Y-113929760D01*
X120904325Y-113881379D01*
X120904325Y-113857189D01*
X120928516Y-113808808D01*
X120952706Y-113784618D01*
X121001087Y-113760427D01*
X121097849Y-113760427D01*
X121146230Y-113784618D01*
X121170420Y-113808808D01*
X121194611Y-113857189D01*
X121194611Y-113881379D01*
X121170420Y-113929760D01*
X121146230Y-113953951D01*
X121097849Y-113978141D01*
X121001087Y-113978141D01*
X120952706Y-114002332D01*
X120928516Y-114026522D01*
X120904325Y-114074903D01*
X120904325Y-114171665D01*
X120928516Y-114220046D01*
X120952706Y-114244237D01*
X121001087Y-114268427D01*
X121097849Y-114268427D01*
X121146230Y-114244237D01*
X121170420Y-114220046D01*
X121194611Y-114171665D01*
X121194611Y-114074903D01*
X121170420Y-114026522D01*
X121146230Y-114002332D01*
X121097849Y-113978141D01*
X121509087Y-113760427D02*
X121557468Y-113760427D01*
X121605849Y-113784618D01*
X121630039Y-113808808D01*
X121654230Y-113857189D01*
X121678420Y-113953951D01*
X121678420Y-114074903D01*
X121654230Y-114171665D01*
X121630039Y-114220046D01*
X121605849Y-114244237D01*
X121557468Y-114268427D01*
X121509087Y-114268427D01*
X121460706Y-114244237D01*
X121436516Y-114220046D01*
X121412325Y-114171665D01*
X121388135Y-114074903D01*
X121388135Y-113953951D01*
X121412325Y-113857189D01*
X121436516Y-113808808D01*
X121460706Y-113784618D01*
X121509087Y-113760427D01*
X122138039Y-113760427D02*
X121896135Y-113760427D01*
X121871944Y-114002332D01*
X121896135Y-113978141D01*
X121944516Y-113953951D01*
X122065468Y-113953951D01*
X122113849Y-113978141D01*
X122138039Y-114002332D01*
X122162230Y-114050713D01*
X122162230Y-114171665D01*
X122138039Y-114220046D01*
X122113849Y-114244237D01*
X122065468Y-114268427D01*
X121944516Y-114268427D01*
X121896135Y-114244237D01*
X121871944Y-114220046D01*
X107291135Y-99270332D02*
X107121801Y-99270332D01*
X107121801Y-99536427D02*
X107121801Y-99028427D01*
X107363706Y-99028427D01*
X107726563Y-99270332D02*
X107799135Y-99294522D01*
X107823325Y-99318713D01*
X107847516Y-99367094D01*
X107847516Y-99439665D01*
X107823325Y-99488046D01*
X107799135Y-99512237D01*
X107750754Y-99536427D01*
X107557230Y-99536427D01*
X107557230Y-99028427D01*
X107726563Y-99028427D01*
X107774944Y-99052618D01*
X107799135Y-99076808D01*
X107823325Y-99125189D01*
X107823325Y-99173570D01*
X107799135Y-99221951D01*
X107774944Y-99246141D01*
X107726563Y-99270332D01*
X107557230Y-99270332D01*
X108016849Y-99028427D02*
X108355516Y-99028427D01*
X108137801Y-99536427D01*
X108645801Y-99028427D02*
X108694182Y-99028427D01*
X108742563Y-99052618D01*
X108766754Y-99076808D01*
X108790944Y-99125189D01*
X108815135Y-99221951D01*
X108815135Y-99342903D01*
X108790944Y-99439665D01*
X108766754Y-99488046D01*
X108742563Y-99512237D01*
X108694182Y-99536427D01*
X108645801Y-99536427D01*
X108597420Y-99512237D01*
X108573230Y-99488046D01*
X108549039Y-99439665D01*
X108524849Y-99342903D01*
X108524849Y-99221951D01*
X108549039Y-99125189D01*
X108573230Y-99076808D01*
X108597420Y-99052618D01*
X108645801Y-99028427D01*
X109008658Y-99076808D02*
X109032849Y-99052618D01*
X109081230Y-99028427D01*
X109202182Y-99028427D01*
X109250563Y-99052618D01*
X109274754Y-99076808D01*
X109298944Y-99125189D01*
X109298944Y-99173570D01*
X109274754Y-99246141D01*
X108984468Y-99536427D01*
X109298944Y-99536427D01*
X79853087Y-98768379D02*
X79345087Y-98768379D01*
X79345087Y-98647427D01*
X79369278Y-98574856D01*
X79417658Y-98526475D01*
X79466039Y-98502284D01*
X79562801Y-98478094D01*
X79635373Y-98478094D01*
X79732135Y-98502284D01*
X79780516Y-98526475D01*
X79828897Y-98574856D01*
X79853087Y-98647427D01*
X79853087Y-98768379D01*
X79562801Y-98187808D02*
X79538611Y-98236189D01*
X79514420Y-98260379D01*
X79466039Y-98284570D01*
X79441849Y-98284570D01*
X79393468Y-98260379D01*
X79369278Y-98236189D01*
X79345087Y-98187808D01*
X79345087Y-98091046D01*
X79369278Y-98042665D01*
X79393468Y-98018475D01*
X79441849Y-97994284D01*
X79466039Y-97994284D01*
X79514420Y-98018475D01*
X79538611Y-98042665D01*
X79562801Y-98091046D01*
X79562801Y-98187808D01*
X79586992Y-98236189D01*
X79611182Y-98260379D01*
X79659563Y-98284570D01*
X79756325Y-98284570D01*
X79804706Y-98260379D01*
X79828897Y-98236189D01*
X79853087Y-98187808D01*
X79853087Y-98091046D01*
X79828897Y-98042665D01*
X79804706Y-98018475D01*
X79756325Y-97994284D01*
X79659563Y-97994284D01*
X79611182Y-98018475D01*
X79586992Y-98042665D01*
X79562801Y-98091046D01*
X79345087Y-97679808D02*
X79345087Y-97631427D01*
X79369278Y-97583046D01*
X79393468Y-97558856D01*
X79441849Y-97534665D01*
X79538611Y-97510475D01*
X79659563Y-97510475D01*
X79756325Y-97534665D01*
X79804706Y-97558856D01*
X79828897Y-97583046D01*
X79853087Y-97631427D01*
X79853087Y-97679808D01*
X79828897Y-97728189D01*
X79804706Y-97752379D01*
X79756325Y-97776570D01*
X79659563Y-97800760D01*
X79538611Y-97800760D01*
X79441849Y-97776570D01*
X79393468Y-97752379D01*
X79369278Y-97728189D01*
X79345087Y-97679808D01*
X79345087Y-97341141D02*
X79345087Y-97026665D01*
X79538611Y-97195998D01*
X79538611Y-97123427D01*
X79562801Y-97075046D01*
X79586992Y-97050856D01*
X79635373Y-97026665D01*
X79756325Y-97026665D01*
X79804706Y-97050856D01*
X79828897Y-97075046D01*
X79853087Y-97123427D01*
X79853087Y-97268570D01*
X79828897Y-97316951D01*
X79804706Y-97341141D01*
X116048087Y-91837808D02*
X115999706Y-91813618D01*
X115951325Y-91765237D01*
X115878754Y-91692665D01*
X115830373Y-91668475D01*
X115781992Y-91668475D01*
X115806182Y-91789427D02*
X115757801Y-91765237D01*
X115709420Y-91716856D01*
X115685230Y-91620094D01*
X115685230Y-91450760D01*
X115709420Y-91353998D01*
X115757801Y-91305618D01*
X115806182Y-91281427D01*
X115902944Y-91281427D01*
X115951325Y-91305618D01*
X115999706Y-91353998D01*
X116023897Y-91450760D01*
X116023897Y-91620094D01*
X115999706Y-91716856D01*
X115951325Y-91765237D01*
X115902944Y-91789427D01*
X115806182Y-91789427D01*
X116483516Y-91281427D02*
X116241611Y-91281427D01*
X116217420Y-91523332D01*
X116241611Y-91499141D01*
X116289992Y-91474951D01*
X116410944Y-91474951D01*
X116459325Y-91499141D01*
X116483516Y-91523332D01*
X116507706Y-91571713D01*
X116507706Y-91692665D01*
X116483516Y-91741046D01*
X116459325Y-91765237D01*
X116410944Y-91789427D01*
X116289992Y-91789427D01*
X116241611Y-91765237D01*
X116217420Y-91741046D01*
X116822182Y-91281427D02*
X116870563Y-91281427D01*
X116918944Y-91305618D01*
X116943135Y-91329808D01*
X116967325Y-91378189D01*
X116991516Y-91474951D01*
X116991516Y-91595903D01*
X116967325Y-91692665D01*
X116943135Y-91741046D01*
X116918944Y-91765237D01*
X116870563Y-91789427D01*
X116822182Y-91789427D01*
X116773801Y-91765237D01*
X116749611Y-91741046D01*
X116725420Y-91692665D01*
X116701230Y-91595903D01*
X116701230Y-91474951D01*
X116725420Y-91378189D01*
X116749611Y-91329808D01*
X116773801Y-91305618D01*
X116822182Y-91281427D01*
X117475325Y-91789427D02*
X117185039Y-91789427D01*
X117330182Y-91789427D02*
X117330182Y-91281427D01*
X117281801Y-91353998D01*
X117233420Y-91402379D01*
X117185039Y-91426570D01*
X95030988Y-91789427D02*
X94861655Y-91547522D01*
X94740703Y-91789427D02*
X94740703Y-91281427D01*
X94934226Y-91281427D01*
X94982607Y-91305618D01*
X95006798Y-91329808D01*
X95030988Y-91378189D01*
X95030988Y-91450760D01*
X95006798Y-91499141D01*
X94982607Y-91523332D01*
X94934226Y-91547522D01*
X94740703Y-91547522D01*
X95321274Y-91499141D02*
X95272893Y-91474951D01*
X95248703Y-91450760D01*
X95224512Y-91402379D01*
X95224512Y-91378189D01*
X95248703Y-91329808D01*
X95272893Y-91305618D01*
X95321274Y-91281427D01*
X95418036Y-91281427D01*
X95466417Y-91305618D01*
X95490607Y-91329808D01*
X95514798Y-91378189D01*
X95514798Y-91402379D01*
X95490607Y-91450760D01*
X95466417Y-91474951D01*
X95418036Y-91499141D01*
X95321274Y-91499141D01*
X95272893Y-91523332D01*
X95248703Y-91547522D01*
X95224512Y-91595903D01*
X95224512Y-91692665D01*
X95248703Y-91741046D01*
X95272893Y-91765237D01*
X95321274Y-91789427D01*
X95418036Y-91789427D01*
X95466417Y-91765237D01*
X95490607Y-91741046D01*
X95514798Y-91692665D01*
X95514798Y-91595903D01*
X95490607Y-91547522D01*
X95466417Y-91523332D01*
X95418036Y-91499141D01*
X95998607Y-91789427D02*
X95708322Y-91789427D01*
X95853465Y-91789427D02*
X95853465Y-91281427D01*
X95805084Y-91353998D01*
X95756703Y-91402379D01*
X95708322Y-91426570D01*
X96458226Y-91281427D02*
X96216322Y-91281427D01*
X96192131Y-91523332D01*
X96216322Y-91499141D01*
X96264703Y-91474951D01*
X96385655Y-91474951D01*
X96434036Y-91499141D01*
X96458226Y-91523332D01*
X96482417Y-91571713D01*
X96482417Y-91692665D01*
X96458226Y-91741046D01*
X96434036Y-91765237D01*
X96385655Y-91789427D01*
X96264703Y-91789427D01*
X96216322Y-91765237D01*
X96192131Y-91741046D01*
X79853087Y-94704379D02*
X79345087Y-94704379D01*
X79345087Y-94583427D01*
X79369278Y-94510856D01*
X79417658Y-94462475D01*
X79466039Y-94438284D01*
X79562801Y-94414094D01*
X79635373Y-94414094D01*
X79732135Y-94438284D01*
X79780516Y-94462475D01*
X79828897Y-94510856D01*
X79853087Y-94583427D01*
X79853087Y-94704379D01*
X79562801Y-94123808D02*
X79538611Y-94172189D01*
X79514420Y-94196379D01*
X79466039Y-94220570D01*
X79441849Y-94220570D01*
X79393468Y-94196379D01*
X79369278Y-94172189D01*
X79345087Y-94123808D01*
X79345087Y-94027046D01*
X79369278Y-93978665D01*
X79393468Y-93954475D01*
X79441849Y-93930284D01*
X79466039Y-93930284D01*
X79514420Y-93954475D01*
X79538611Y-93978665D01*
X79562801Y-94027046D01*
X79562801Y-94123808D01*
X79586992Y-94172189D01*
X79611182Y-94196379D01*
X79659563Y-94220570D01*
X79756325Y-94220570D01*
X79804706Y-94196379D01*
X79828897Y-94172189D01*
X79853087Y-94123808D01*
X79853087Y-94027046D01*
X79828897Y-93978665D01*
X79804706Y-93954475D01*
X79756325Y-93930284D01*
X79659563Y-93930284D01*
X79611182Y-93954475D01*
X79586992Y-93978665D01*
X79562801Y-94027046D01*
X79345087Y-93615808D02*
X79345087Y-93567427D01*
X79369278Y-93519046D01*
X79393468Y-93494856D01*
X79441849Y-93470665D01*
X79538611Y-93446475D01*
X79659563Y-93446475D01*
X79756325Y-93470665D01*
X79804706Y-93494856D01*
X79828897Y-93519046D01*
X79853087Y-93567427D01*
X79853087Y-93615808D01*
X79828897Y-93664189D01*
X79804706Y-93688379D01*
X79756325Y-93712570D01*
X79659563Y-93736760D01*
X79538611Y-93736760D01*
X79441849Y-93712570D01*
X79393468Y-93688379D01*
X79369278Y-93664189D01*
X79345087Y-93615808D01*
X79393468Y-93252951D02*
X79369278Y-93228760D01*
X79345087Y-93180379D01*
X79345087Y-93059427D01*
X79369278Y-93011046D01*
X79393468Y-92986856D01*
X79441849Y-92962665D01*
X79490230Y-92962665D01*
X79562801Y-92986856D01*
X79853087Y-93277141D01*
X79853087Y-92962665D01*
X85187087Y-71046094D02*
X84945182Y-71215427D01*
X85187087Y-71336379D02*
X84679087Y-71336379D01*
X84679087Y-71142856D01*
X84703278Y-71094475D01*
X84727468Y-71070284D01*
X84775849Y-71046094D01*
X84848420Y-71046094D01*
X84896801Y-71070284D01*
X84920992Y-71094475D01*
X84945182Y-71142856D01*
X84945182Y-71336379D01*
X84896801Y-70755808D02*
X84872611Y-70804189D01*
X84848420Y-70828379D01*
X84800039Y-70852570D01*
X84775849Y-70852570D01*
X84727468Y-70828379D01*
X84703278Y-70804189D01*
X84679087Y-70755808D01*
X84679087Y-70659046D01*
X84703278Y-70610665D01*
X84727468Y-70586475D01*
X84775849Y-70562284D01*
X84800039Y-70562284D01*
X84848420Y-70586475D01*
X84872611Y-70610665D01*
X84896801Y-70659046D01*
X84896801Y-70755808D01*
X84920992Y-70804189D01*
X84945182Y-70828379D01*
X84993563Y-70852570D01*
X85090325Y-70852570D01*
X85138706Y-70828379D01*
X85162897Y-70804189D01*
X85187087Y-70755808D01*
X85187087Y-70659046D01*
X85162897Y-70610665D01*
X85138706Y-70586475D01*
X85090325Y-70562284D01*
X84993563Y-70562284D01*
X84945182Y-70586475D01*
X84920992Y-70610665D01*
X84896801Y-70659046D01*
X84679087Y-70247808D02*
X84679087Y-70199427D01*
X84703278Y-70151046D01*
X84727468Y-70126856D01*
X84775849Y-70102665D01*
X84872611Y-70078475D01*
X84993563Y-70078475D01*
X85090325Y-70102665D01*
X85138706Y-70126856D01*
X85162897Y-70151046D01*
X85187087Y-70199427D01*
X85187087Y-70247808D01*
X85162897Y-70296189D01*
X85138706Y-70320379D01*
X85090325Y-70344570D01*
X84993563Y-70368760D01*
X84872611Y-70368760D01*
X84775849Y-70344570D01*
X84727468Y-70320379D01*
X84703278Y-70296189D01*
X84679087Y-70247808D01*
X85187087Y-69594665D02*
X85187087Y-69884951D01*
X85187087Y-69739808D02*
X84679087Y-69739808D01*
X84751658Y-69788189D01*
X84800039Y-69836570D01*
X84824230Y-69884951D01*
X126552801Y-107108046D02*
X126528611Y-107132237D01*
X126456039Y-107156427D01*
X126407658Y-107156427D01*
X126335087Y-107132237D01*
X126286706Y-107083856D01*
X126262516Y-107035475D01*
X126238325Y-106938713D01*
X126238325Y-106866141D01*
X126262516Y-106769379D01*
X126286706Y-106720998D01*
X126335087Y-106672618D01*
X126407658Y-106648427D01*
X126456039Y-106648427D01*
X126528611Y-106672618D01*
X126552801Y-106696808D01*
X127012420Y-106648427D02*
X126770516Y-106648427D01*
X126746325Y-106890332D01*
X126770516Y-106866141D01*
X126818897Y-106841951D01*
X126939849Y-106841951D01*
X126988230Y-106866141D01*
X127012420Y-106890332D01*
X127036611Y-106938713D01*
X127036611Y-107059665D01*
X127012420Y-107108046D01*
X126988230Y-107132237D01*
X126939849Y-107156427D01*
X126818897Y-107156427D01*
X126770516Y-107132237D01*
X126746325Y-107108046D01*
X127351087Y-106648427D02*
X127399468Y-106648427D01*
X127447849Y-106672618D01*
X127472039Y-106696808D01*
X127496230Y-106745189D01*
X127520420Y-106841951D01*
X127520420Y-106962903D01*
X127496230Y-107059665D01*
X127472039Y-107108046D01*
X127447849Y-107132237D01*
X127399468Y-107156427D01*
X127351087Y-107156427D01*
X127302706Y-107132237D01*
X127278516Y-107108046D01*
X127254325Y-107059665D01*
X127230135Y-106962903D01*
X127230135Y-106841951D01*
X127254325Y-106745189D01*
X127278516Y-106696808D01*
X127302706Y-106672618D01*
X127351087Y-106648427D01*
X127955849Y-106817760D02*
X127955849Y-107156427D01*
X127834897Y-106624237D02*
X127713944Y-106987094D01*
X128028420Y-106987094D01*
X127441801Y-120951046D02*
X127417611Y-120975237D01*
X127345039Y-120999427D01*
X127296658Y-120999427D01*
X127224087Y-120975237D01*
X127175706Y-120926856D01*
X127151516Y-120878475D01*
X127127325Y-120781713D01*
X127127325Y-120709141D01*
X127151516Y-120612379D01*
X127175706Y-120563998D01*
X127224087Y-120515618D01*
X127296658Y-120491427D01*
X127345039Y-120491427D01*
X127417611Y-120515618D01*
X127441801Y-120539808D01*
X127901420Y-120491427D02*
X127659516Y-120491427D01*
X127635325Y-120733332D01*
X127659516Y-120709141D01*
X127707897Y-120684951D01*
X127828849Y-120684951D01*
X127877230Y-120709141D01*
X127901420Y-120733332D01*
X127925611Y-120781713D01*
X127925611Y-120902665D01*
X127901420Y-120951046D01*
X127877230Y-120975237D01*
X127828849Y-120999427D01*
X127707897Y-120999427D01*
X127659516Y-120975237D01*
X127635325Y-120951046D01*
X128240087Y-120491427D02*
X128288468Y-120491427D01*
X128336849Y-120515618D01*
X128361039Y-120539808D01*
X128385230Y-120588189D01*
X128409420Y-120684951D01*
X128409420Y-120805903D01*
X128385230Y-120902665D01*
X128361039Y-120951046D01*
X128336849Y-120975237D01*
X128288468Y-120999427D01*
X128240087Y-120999427D01*
X128191706Y-120975237D01*
X128167516Y-120951046D01*
X128143325Y-120902665D01*
X128119135Y-120805903D01*
X128119135Y-120684951D01*
X128143325Y-120588189D01*
X128167516Y-120539808D01*
X128191706Y-120515618D01*
X128240087Y-120491427D01*
X128869039Y-120491427D02*
X128627135Y-120491427D01*
X128602944Y-120733332D01*
X128627135Y-120709141D01*
X128675516Y-120684951D01*
X128796468Y-120684951D01*
X128844849Y-120709141D01*
X128869039Y-120733332D01*
X128893230Y-120781713D01*
X128893230Y-120902665D01*
X128869039Y-120951046D01*
X128844849Y-120975237D01*
X128796468Y-120999427D01*
X128675516Y-120999427D01*
X128627135Y-120975237D01*
X128602944Y-120951046D01*
X93569087Y-122582694D02*
X93327182Y-122752027D01*
X93569087Y-122872979D02*
X93061087Y-122872979D01*
X93061087Y-122679456D01*
X93085278Y-122631075D01*
X93109468Y-122606884D01*
X93157849Y-122582694D01*
X93230420Y-122582694D01*
X93278801Y-122606884D01*
X93302992Y-122631075D01*
X93327182Y-122679456D01*
X93327182Y-122872979D01*
X93061087Y-122413360D02*
X93061087Y-122074694D01*
X93569087Y-122292408D01*
X93061087Y-121784408D02*
X93061087Y-121736027D01*
X93085278Y-121687646D01*
X93109468Y-121663456D01*
X93157849Y-121639265D01*
X93254611Y-121615075D01*
X93375563Y-121615075D01*
X93472325Y-121639265D01*
X93520706Y-121663456D01*
X93544897Y-121687646D01*
X93569087Y-121736027D01*
X93569087Y-121784408D01*
X93544897Y-121832789D01*
X93520706Y-121856979D01*
X93472325Y-121881170D01*
X93375563Y-121905360D01*
X93254611Y-121905360D01*
X93157849Y-121881170D01*
X93109468Y-121856979D01*
X93085278Y-121832789D01*
X93061087Y-121784408D01*
X93109468Y-121421551D02*
X93085278Y-121397360D01*
X93061087Y-121348979D01*
X93061087Y-121228027D01*
X93085278Y-121179646D01*
X93109468Y-121155456D01*
X93157849Y-121131265D01*
X93206230Y-121131265D01*
X93278801Y-121155456D01*
X93569087Y-121445741D01*
X93569087Y-121131265D01*
X128076801Y-70551833D02*
X127907468Y-70309928D01*
X127786516Y-70551833D02*
X127786516Y-70043833D01*
X127980039Y-70043833D01*
X128028420Y-70068024D01*
X128052611Y-70092214D01*
X128076801Y-70140595D01*
X128076801Y-70213166D01*
X128052611Y-70261547D01*
X128028420Y-70285738D01*
X127980039Y-70309928D01*
X127786516Y-70309928D01*
X128270325Y-70092214D02*
X128294516Y-70068024D01*
X128342897Y-70043833D01*
X128463849Y-70043833D01*
X128512230Y-70068024D01*
X128536420Y-70092214D01*
X128560611Y-70140595D01*
X128560611Y-70188976D01*
X128536420Y-70261547D01*
X128246135Y-70551833D01*
X128560611Y-70551833D01*
X128875087Y-70043833D02*
X128923468Y-70043833D01*
X128971849Y-70068024D01*
X128996039Y-70092214D01*
X129020230Y-70140595D01*
X129044420Y-70237357D01*
X129044420Y-70358309D01*
X129020230Y-70455071D01*
X128996039Y-70503452D01*
X128971849Y-70527643D01*
X128923468Y-70551833D01*
X128875087Y-70551833D01*
X128826706Y-70527643D01*
X128802516Y-70503452D01*
X128778325Y-70455071D01*
X128754135Y-70358309D01*
X128754135Y-70237357D01*
X128778325Y-70140595D01*
X128802516Y-70092214D01*
X128826706Y-70068024D01*
X128875087Y-70043833D01*
X129213754Y-70043833D02*
X129528230Y-70043833D01*
X129358897Y-70237357D01*
X129431468Y-70237357D01*
X129479849Y-70261547D01*
X129504039Y-70285738D01*
X129528230Y-70334119D01*
X129528230Y-70455071D01*
X129504039Y-70503452D01*
X129479849Y-70527643D01*
X129431468Y-70551833D01*
X129286325Y-70551833D01*
X129237944Y-70527643D01*
X129213754Y-70503452D01*
X114984223Y-75401742D02*
X114742318Y-75571075D01*
X114984223Y-75692027D02*
X114476223Y-75692027D01*
X114476223Y-75498504D01*
X114500414Y-75450123D01*
X114524604Y-75425932D01*
X114572985Y-75401742D01*
X114645556Y-75401742D01*
X114693937Y-75425932D01*
X114718128Y-75450123D01*
X114742318Y-75498504D01*
X114742318Y-75692027D01*
X114693937Y-75111456D02*
X114669747Y-75159837D01*
X114645556Y-75184027D01*
X114597175Y-75208218D01*
X114572985Y-75208218D01*
X114524604Y-75184027D01*
X114500414Y-75159837D01*
X114476223Y-75111456D01*
X114476223Y-75014694D01*
X114500414Y-74966313D01*
X114524604Y-74942123D01*
X114572985Y-74917932D01*
X114597175Y-74917932D01*
X114645556Y-74942123D01*
X114669747Y-74966313D01*
X114693937Y-75014694D01*
X114693937Y-75111456D01*
X114718128Y-75159837D01*
X114742318Y-75184027D01*
X114790699Y-75208218D01*
X114887461Y-75208218D01*
X114935842Y-75184027D01*
X114960033Y-75159837D01*
X114984223Y-75111456D01*
X114984223Y-75014694D01*
X114960033Y-74966313D01*
X114935842Y-74942123D01*
X114887461Y-74917932D01*
X114790699Y-74917932D01*
X114742318Y-74942123D01*
X114718128Y-74966313D01*
X114693937Y-75014694D01*
X114476223Y-74603456D02*
X114476223Y-74555075D01*
X114500414Y-74506694D01*
X114524604Y-74482504D01*
X114572985Y-74458313D01*
X114669747Y-74434123D01*
X114790699Y-74434123D01*
X114887461Y-74458313D01*
X114935842Y-74482504D01*
X114960033Y-74506694D01*
X114984223Y-74555075D01*
X114984223Y-74603456D01*
X114960033Y-74651837D01*
X114935842Y-74676027D01*
X114887461Y-74700218D01*
X114790699Y-74724408D01*
X114669747Y-74724408D01*
X114572985Y-74700218D01*
X114524604Y-74676027D01*
X114500414Y-74651837D01*
X114476223Y-74603456D01*
X114476223Y-74264789D02*
X114476223Y-73926123D01*
X114984223Y-74143837D01*
X85785801Y-114014427D02*
X85616468Y-113772522D01*
X85495516Y-114014427D02*
X85495516Y-113506427D01*
X85689039Y-113506427D01*
X85737420Y-113530618D01*
X85761611Y-113554808D01*
X85785801Y-113603189D01*
X85785801Y-113675760D01*
X85761611Y-113724141D01*
X85737420Y-113748332D01*
X85689039Y-113772522D01*
X85495516Y-113772522D01*
X86245420Y-113506427D02*
X86003516Y-113506427D01*
X85979325Y-113748332D01*
X86003516Y-113724141D01*
X86051897Y-113699951D01*
X86172849Y-113699951D01*
X86221230Y-113724141D01*
X86245420Y-113748332D01*
X86269611Y-113796713D01*
X86269611Y-113917665D01*
X86245420Y-113966046D01*
X86221230Y-113990237D01*
X86172849Y-114014427D01*
X86051897Y-114014427D01*
X86003516Y-113990237D01*
X85979325Y-113966046D01*
X86753420Y-114014427D02*
X86463135Y-114014427D01*
X86608278Y-114014427D02*
X86608278Y-113506427D01*
X86559897Y-113578998D01*
X86511516Y-113627379D01*
X86463135Y-113651570D01*
X87188849Y-113675760D02*
X87188849Y-114014427D01*
X87067897Y-113482237D02*
X86946944Y-113845094D01*
X87261420Y-113845094D01*
X91602401Y-123465646D02*
X91578211Y-123489837D01*
X91505639Y-123514027D01*
X91457258Y-123514027D01*
X91384687Y-123489837D01*
X91336306Y-123441456D01*
X91312116Y-123393075D01*
X91287925Y-123296313D01*
X91287925Y-123223741D01*
X91312116Y-123126979D01*
X91336306Y-123078598D01*
X91384687Y-123030218D01*
X91457258Y-123006027D01*
X91505639Y-123006027D01*
X91578211Y-123030218D01*
X91602401Y-123054408D01*
X91771735Y-123006027D02*
X92110401Y-123006027D01*
X91892687Y-123514027D01*
X92400687Y-123006027D02*
X92449068Y-123006027D01*
X92497449Y-123030218D01*
X92521639Y-123054408D01*
X92545830Y-123102789D01*
X92570020Y-123199551D01*
X92570020Y-123320503D01*
X92545830Y-123417265D01*
X92521639Y-123465646D01*
X92497449Y-123489837D01*
X92449068Y-123514027D01*
X92400687Y-123514027D01*
X92352306Y-123489837D01*
X92328116Y-123465646D01*
X92303925Y-123417265D01*
X92279735Y-123320503D01*
X92279735Y-123199551D01*
X92303925Y-123102789D01*
X92328116Y-123054408D01*
X92352306Y-123030218D01*
X92400687Y-123006027D01*
X92763544Y-123054408D02*
X92787735Y-123030218D01*
X92836116Y-123006027D01*
X92957068Y-123006027D01*
X93005449Y-123030218D01*
X93029639Y-123054408D01*
X93053830Y-123102789D01*
X93053830Y-123151170D01*
X93029639Y-123223741D01*
X92739354Y-123514027D01*
X93053830Y-123514027D01*
X117027801Y-104789046D02*
X117003611Y-104813237D01*
X116931039Y-104837427D01*
X116882658Y-104837427D01*
X116810087Y-104813237D01*
X116761706Y-104764856D01*
X116737516Y-104716475D01*
X116713325Y-104619713D01*
X116713325Y-104547141D01*
X116737516Y-104450379D01*
X116761706Y-104401998D01*
X116810087Y-104353618D01*
X116882658Y-104329427D01*
X116931039Y-104329427D01*
X117003611Y-104353618D01*
X117027801Y-104377808D01*
X117318087Y-104547141D02*
X117269706Y-104522951D01*
X117245516Y-104498760D01*
X117221325Y-104450379D01*
X117221325Y-104426189D01*
X117245516Y-104377808D01*
X117269706Y-104353618D01*
X117318087Y-104329427D01*
X117414849Y-104329427D01*
X117463230Y-104353618D01*
X117487420Y-104377808D01*
X117511611Y-104426189D01*
X117511611Y-104450379D01*
X117487420Y-104498760D01*
X117463230Y-104522951D01*
X117414849Y-104547141D01*
X117318087Y-104547141D01*
X117269706Y-104571332D01*
X117245516Y-104595522D01*
X117221325Y-104643903D01*
X117221325Y-104740665D01*
X117245516Y-104789046D01*
X117269706Y-104813237D01*
X117318087Y-104837427D01*
X117414849Y-104837427D01*
X117463230Y-104813237D01*
X117487420Y-104789046D01*
X117511611Y-104740665D01*
X117511611Y-104643903D01*
X117487420Y-104595522D01*
X117463230Y-104571332D01*
X117414849Y-104547141D01*
X117826087Y-104329427D02*
X117874468Y-104329427D01*
X117922849Y-104353618D01*
X117947039Y-104377808D01*
X117971230Y-104426189D01*
X117995420Y-104522951D01*
X117995420Y-104643903D01*
X117971230Y-104740665D01*
X117947039Y-104789046D01*
X117922849Y-104813237D01*
X117874468Y-104837427D01*
X117826087Y-104837427D01*
X117777706Y-104813237D01*
X117753516Y-104789046D01*
X117729325Y-104740665D01*
X117705135Y-104643903D01*
X117705135Y-104522951D01*
X117729325Y-104426189D01*
X117753516Y-104377808D01*
X117777706Y-104353618D01*
X117826087Y-104329427D01*
X118188944Y-104377808D02*
X118213135Y-104353618D01*
X118261516Y-104329427D01*
X118382468Y-104329427D01*
X118430849Y-104353618D01*
X118455039Y-104377808D01*
X118479230Y-104426189D01*
X118479230Y-104474570D01*
X118455039Y-104547141D01*
X118164754Y-104837427D01*
X118479230Y-104837427D01*
X115630801Y-98172427D02*
X115461468Y-97930522D01*
X115340516Y-98172427D02*
X115340516Y-97664427D01*
X115534039Y-97664427D01*
X115582420Y-97688618D01*
X115606611Y-97712808D01*
X115630801Y-97761189D01*
X115630801Y-97833760D01*
X115606611Y-97882141D01*
X115582420Y-97906332D01*
X115534039Y-97930522D01*
X115340516Y-97930522D01*
X116090420Y-97664427D02*
X115848516Y-97664427D01*
X115824325Y-97906332D01*
X115848516Y-97882141D01*
X115896897Y-97857951D01*
X116017849Y-97857951D01*
X116066230Y-97882141D01*
X116090420Y-97906332D01*
X116114611Y-97954713D01*
X116114611Y-98075665D01*
X116090420Y-98124046D01*
X116066230Y-98148237D01*
X116017849Y-98172427D01*
X115896897Y-98172427D01*
X115848516Y-98148237D01*
X115824325Y-98124046D01*
X116429087Y-97664427D02*
X116477468Y-97664427D01*
X116525849Y-97688618D01*
X116550039Y-97712808D01*
X116574230Y-97761189D01*
X116598420Y-97857951D01*
X116598420Y-97978903D01*
X116574230Y-98075665D01*
X116550039Y-98124046D01*
X116525849Y-98148237D01*
X116477468Y-98172427D01*
X116429087Y-98172427D01*
X116380706Y-98148237D01*
X116356516Y-98124046D01*
X116332325Y-98075665D01*
X116308135Y-97978903D01*
X116308135Y-97857951D01*
X116332325Y-97761189D01*
X116356516Y-97712808D01*
X116380706Y-97688618D01*
X116429087Y-97664427D01*
X117033849Y-97833760D02*
X117033849Y-98172427D01*
X116912897Y-97640237D02*
X116791944Y-98003094D01*
X117106420Y-98003094D01*
X84642801Y-95599427D02*
X84473468Y-95357522D01*
X84352516Y-95599427D02*
X84352516Y-95091427D01*
X84546039Y-95091427D01*
X84594420Y-95115618D01*
X84618611Y-95139808D01*
X84642801Y-95188189D01*
X84642801Y-95260760D01*
X84618611Y-95309141D01*
X84594420Y-95333332D01*
X84546039Y-95357522D01*
X84352516Y-95357522D01*
X84933087Y-95309141D02*
X84884706Y-95284951D01*
X84860516Y-95260760D01*
X84836325Y-95212379D01*
X84836325Y-95188189D01*
X84860516Y-95139808D01*
X84884706Y-95115618D01*
X84933087Y-95091427D01*
X85029849Y-95091427D01*
X85078230Y-95115618D01*
X85102420Y-95139808D01*
X85126611Y-95188189D01*
X85126611Y-95212379D01*
X85102420Y-95260760D01*
X85078230Y-95284951D01*
X85029849Y-95309141D01*
X84933087Y-95309141D01*
X84884706Y-95333332D01*
X84860516Y-95357522D01*
X84836325Y-95405903D01*
X84836325Y-95502665D01*
X84860516Y-95551046D01*
X84884706Y-95575237D01*
X84933087Y-95599427D01*
X85029849Y-95599427D01*
X85078230Y-95575237D01*
X85102420Y-95551046D01*
X85126611Y-95502665D01*
X85126611Y-95405903D01*
X85102420Y-95357522D01*
X85078230Y-95333332D01*
X85029849Y-95309141D01*
X85441087Y-95091427D02*
X85489468Y-95091427D01*
X85537849Y-95115618D01*
X85562039Y-95139808D01*
X85586230Y-95188189D01*
X85610420Y-95284951D01*
X85610420Y-95405903D01*
X85586230Y-95502665D01*
X85562039Y-95551046D01*
X85537849Y-95575237D01*
X85489468Y-95599427D01*
X85441087Y-95599427D01*
X85392706Y-95575237D01*
X85368516Y-95551046D01*
X85344325Y-95502665D01*
X85320135Y-95405903D01*
X85320135Y-95284951D01*
X85344325Y-95188189D01*
X85368516Y-95139808D01*
X85392706Y-95115618D01*
X85441087Y-95091427D01*
X86045849Y-95260760D02*
X86045849Y-95599427D01*
X85924897Y-95067237D02*
X85803944Y-95430094D01*
X86118420Y-95430094D01*
X125742420Y-74898427D02*
X125742420Y-75309665D01*
X125766611Y-75358046D01*
X125790801Y-75382237D01*
X125839182Y-75406427D01*
X125935944Y-75406427D01*
X125984325Y-75382237D01*
X126008516Y-75358046D01*
X126032706Y-75309665D01*
X126032706Y-74898427D01*
X126250420Y-74946808D02*
X126274611Y-74922618D01*
X126322992Y-74898427D01*
X126443944Y-74898427D01*
X126492325Y-74922618D01*
X126516516Y-74946808D01*
X126540706Y-74995189D01*
X126540706Y-75043570D01*
X126516516Y-75116141D01*
X126226230Y-75406427D01*
X126540706Y-75406427D01*
X126855182Y-74898427D02*
X126903563Y-74898427D01*
X126951944Y-74922618D01*
X126976135Y-74946808D01*
X127000325Y-74995189D01*
X127024516Y-75091951D01*
X127024516Y-75212903D01*
X127000325Y-75309665D01*
X126976135Y-75358046D01*
X126951944Y-75382237D01*
X126903563Y-75406427D01*
X126855182Y-75406427D01*
X126806801Y-75382237D01*
X126782611Y-75358046D01*
X126758420Y-75309665D01*
X126734230Y-75212903D01*
X126734230Y-75091951D01*
X126758420Y-74995189D01*
X126782611Y-74946808D01*
X126806801Y-74922618D01*
X126855182Y-74898427D01*
X127218039Y-74946808D02*
X127242230Y-74922618D01*
X127290611Y-74898427D01*
X127411563Y-74898427D01*
X127459944Y-74922618D01*
X127484135Y-74946808D01*
X127508325Y-74995189D01*
X127508325Y-75043570D01*
X127484135Y-75116141D01*
X127193849Y-75406427D01*
X127508325Y-75406427D01*
X120239087Y-91329808D02*
X120190706Y-91305618D01*
X120142325Y-91257237D01*
X120069754Y-91184665D01*
X120021373Y-91160475D01*
X119972992Y-91160475D01*
X119997182Y-91281427D02*
X119948801Y-91257237D01*
X119900420Y-91208856D01*
X119876230Y-91112094D01*
X119876230Y-90942760D01*
X119900420Y-90845998D01*
X119948801Y-90797618D01*
X119997182Y-90773427D01*
X120093944Y-90773427D01*
X120142325Y-90797618D01*
X120190706Y-90845998D01*
X120214897Y-90942760D01*
X120214897Y-91112094D01*
X120190706Y-91208856D01*
X120142325Y-91257237D01*
X120093944Y-91281427D01*
X119997182Y-91281427D01*
X120674516Y-90773427D02*
X120432611Y-90773427D01*
X120408420Y-91015332D01*
X120432611Y-90991141D01*
X120480992Y-90966951D01*
X120601944Y-90966951D01*
X120650325Y-90991141D01*
X120674516Y-91015332D01*
X120698706Y-91063713D01*
X120698706Y-91184665D01*
X120674516Y-91233046D01*
X120650325Y-91257237D01*
X120601944Y-91281427D01*
X120480992Y-91281427D01*
X120432611Y-91257237D01*
X120408420Y-91233046D01*
X121013182Y-90773427D02*
X121061563Y-90773427D01*
X121109944Y-90797618D01*
X121134135Y-90821808D01*
X121158325Y-90870189D01*
X121182516Y-90966951D01*
X121182516Y-91087903D01*
X121158325Y-91184665D01*
X121134135Y-91233046D01*
X121109944Y-91257237D01*
X121061563Y-91281427D01*
X121013182Y-91281427D01*
X120964801Y-91257237D01*
X120940611Y-91233046D01*
X120916420Y-91184665D01*
X120892230Y-91087903D01*
X120892230Y-90966951D01*
X120916420Y-90870189D01*
X120940611Y-90821808D01*
X120964801Y-90797618D01*
X121013182Y-90773427D01*
X121376039Y-90821808D02*
X121400230Y-90797618D01*
X121448611Y-90773427D01*
X121569563Y-90773427D01*
X121617944Y-90797618D01*
X121642135Y-90821808D01*
X121666325Y-90870189D01*
X121666325Y-90918570D01*
X121642135Y-90991141D01*
X121351849Y-91281427D01*
X121666325Y-91281427D01*
X96296563Y-112617427D02*
X96296563Y-112109427D01*
X96828754Y-112569046D02*
X96804563Y-112593237D01*
X96731992Y-112617427D01*
X96683611Y-112617427D01*
X96611039Y-112593237D01*
X96562658Y-112544856D01*
X96538468Y-112496475D01*
X96514278Y-112399713D01*
X96514278Y-112327141D01*
X96538468Y-112230379D01*
X96562658Y-112181998D01*
X96611039Y-112133618D01*
X96683611Y-112109427D01*
X96731992Y-112109427D01*
X96804563Y-112133618D01*
X96828754Y-112157808D01*
X97288373Y-112109427D02*
X97046468Y-112109427D01*
X97022278Y-112351332D01*
X97046468Y-112327141D01*
X97094849Y-112302951D01*
X97215801Y-112302951D01*
X97264182Y-112327141D01*
X97288373Y-112351332D01*
X97312563Y-112399713D01*
X97312563Y-112520665D01*
X97288373Y-112569046D01*
X97264182Y-112593237D01*
X97215801Y-112617427D01*
X97094849Y-112617427D01*
X97046468Y-112593237D01*
X97022278Y-112569046D01*
X97627039Y-112109427D02*
X97675420Y-112109427D01*
X97723801Y-112133618D01*
X97747992Y-112157808D01*
X97772182Y-112206189D01*
X97796373Y-112302951D01*
X97796373Y-112423903D01*
X97772182Y-112520665D01*
X97747992Y-112569046D01*
X97723801Y-112593237D01*
X97675420Y-112617427D01*
X97627039Y-112617427D01*
X97578658Y-112593237D01*
X97554468Y-112569046D01*
X97530278Y-112520665D01*
X97506087Y-112423903D01*
X97506087Y-112302951D01*
X97530278Y-112206189D01*
X97554468Y-112157808D01*
X97578658Y-112133618D01*
X97627039Y-112109427D01*
X98280182Y-112617427D02*
X97989897Y-112617427D01*
X98135039Y-112617427D02*
X98135039Y-112109427D01*
X98086658Y-112181998D01*
X98038278Y-112230379D01*
X97989897Y-112254570D01*
X118684849Y-109152141D02*
X118660658Y-109127951D01*
X118636468Y-109055379D01*
X118636468Y-109006998D01*
X118660658Y-108934427D01*
X118709039Y-108886046D01*
X118757420Y-108861856D01*
X118854182Y-108837665D01*
X118926754Y-108837665D01*
X119023516Y-108861856D01*
X119071897Y-108886046D01*
X119120278Y-108934427D01*
X119144468Y-109006998D01*
X119144468Y-109055379D01*
X119120278Y-109127951D01*
X119096087Y-109152141D01*
X118926754Y-109442427D02*
X118950944Y-109394046D01*
X118975135Y-109369856D01*
X119023516Y-109345665D01*
X119047706Y-109345665D01*
X119096087Y-109369856D01*
X119120278Y-109394046D01*
X119144468Y-109442427D01*
X119144468Y-109539189D01*
X119120278Y-109587570D01*
X119096087Y-109611760D01*
X119047706Y-109635951D01*
X119023516Y-109635951D01*
X118975135Y-109611760D01*
X118950944Y-109587570D01*
X118926754Y-109539189D01*
X118926754Y-109442427D01*
X118902563Y-109394046D01*
X118878373Y-109369856D01*
X118829992Y-109345665D01*
X118733230Y-109345665D01*
X118684849Y-109369856D01*
X118660658Y-109394046D01*
X118636468Y-109442427D01*
X118636468Y-109539189D01*
X118660658Y-109587570D01*
X118684849Y-109611760D01*
X118733230Y-109635951D01*
X118829992Y-109635951D01*
X118878373Y-109611760D01*
X118902563Y-109587570D01*
X118926754Y-109539189D01*
X119144468Y-109950427D02*
X119144468Y-109998808D01*
X119120278Y-110047189D01*
X119096087Y-110071379D01*
X119047706Y-110095570D01*
X118950944Y-110119760D01*
X118829992Y-110119760D01*
X118733230Y-110095570D01*
X118684849Y-110071379D01*
X118660658Y-110047189D01*
X118636468Y-109998808D01*
X118636468Y-109950427D01*
X118660658Y-109902046D01*
X118684849Y-109877856D01*
X118733230Y-109853665D01*
X118829992Y-109829475D01*
X118950944Y-109829475D01*
X119047706Y-109853665D01*
X119096087Y-109877856D01*
X119120278Y-109902046D01*
X119144468Y-109950427D01*
X119144468Y-110289094D02*
X119144468Y-110627760D01*
X118636468Y-110410046D01*
X84171087Y-109019094D02*
X83929182Y-109188427D01*
X84171087Y-109309379D02*
X83663087Y-109309379D01*
X83663087Y-109115856D01*
X83687278Y-109067475D01*
X83711468Y-109043284D01*
X83759849Y-109019094D01*
X83832420Y-109019094D01*
X83880801Y-109043284D01*
X83904992Y-109067475D01*
X83929182Y-109115856D01*
X83929182Y-109309379D01*
X83880801Y-108728808D02*
X83856611Y-108777189D01*
X83832420Y-108801379D01*
X83784039Y-108825570D01*
X83759849Y-108825570D01*
X83711468Y-108801379D01*
X83687278Y-108777189D01*
X83663087Y-108728808D01*
X83663087Y-108632046D01*
X83687278Y-108583665D01*
X83711468Y-108559475D01*
X83759849Y-108535284D01*
X83784039Y-108535284D01*
X83832420Y-108559475D01*
X83856611Y-108583665D01*
X83880801Y-108632046D01*
X83880801Y-108728808D01*
X83904992Y-108777189D01*
X83929182Y-108801379D01*
X83977563Y-108825570D01*
X84074325Y-108825570D01*
X84122706Y-108801379D01*
X84146897Y-108777189D01*
X84171087Y-108728808D01*
X84171087Y-108632046D01*
X84146897Y-108583665D01*
X84122706Y-108559475D01*
X84074325Y-108535284D01*
X83977563Y-108535284D01*
X83929182Y-108559475D01*
X83904992Y-108583665D01*
X83880801Y-108632046D01*
X84171087Y-108051475D02*
X84171087Y-108341760D01*
X84171087Y-108196618D02*
X83663087Y-108196618D01*
X83735658Y-108244998D01*
X83784039Y-108293379D01*
X83808230Y-108341760D01*
X83663087Y-107736998D02*
X83663087Y-107688618D01*
X83687278Y-107640237D01*
X83711468Y-107616046D01*
X83759849Y-107591856D01*
X83856611Y-107567665D01*
X83977563Y-107567665D01*
X84074325Y-107591856D01*
X84122706Y-107616046D01*
X84146897Y-107640237D01*
X84171087Y-107688618D01*
X84171087Y-107736998D01*
X84146897Y-107785379D01*
X84122706Y-107809570D01*
X84074325Y-107833760D01*
X83977563Y-107857951D01*
X83856611Y-107857951D01*
X83759849Y-107833760D01*
X83711468Y-107809570D01*
X83687278Y-107785379D01*
X83663087Y-107736998D01*
X116011801Y-66976046D02*
X115987611Y-67000237D01*
X115915039Y-67024427D01*
X115866658Y-67024427D01*
X115794087Y-67000237D01*
X115745706Y-66951856D01*
X115721516Y-66903475D01*
X115697325Y-66806713D01*
X115697325Y-66734141D01*
X115721516Y-66637379D01*
X115745706Y-66588998D01*
X115794087Y-66540618D01*
X115866658Y-66516427D01*
X115915039Y-66516427D01*
X115987611Y-66540618D01*
X116011801Y-66564808D01*
X116205325Y-66564808D02*
X116229516Y-66540618D01*
X116277897Y-66516427D01*
X116398849Y-66516427D01*
X116447230Y-66540618D01*
X116471420Y-66564808D01*
X116495611Y-66613189D01*
X116495611Y-66661570D01*
X116471420Y-66734141D01*
X116181135Y-67024427D01*
X116495611Y-67024427D01*
X116810087Y-66516427D02*
X116858468Y-66516427D01*
X116906849Y-66540618D01*
X116931039Y-66564808D01*
X116955230Y-66613189D01*
X116979420Y-66709951D01*
X116979420Y-66830903D01*
X116955230Y-66927665D01*
X116931039Y-66976046D01*
X116906849Y-67000237D01*
X116858468Y-67024427D01*
X116810087Y-67024427D01*
X116761706Y-67000237D01*
X116737516Y-66976046D01*
X116713325Y-66927665D01*
X116689135Y-66830903D01*
X116689135Y-66709951D01*
X116713325Y-66613189D01*
X116737516Y-66564808D01*
X116761706Y-66540618D01*
X116810087Y-66516427D01*
X117463230Y-67024427D02*
X117172944Y-67024427D01*
X117318087Y-67024427D02*
X117318087Y-66516427D01*
X117269706Y-66588998D01*
X117221325Y-66637379D01*
X117172944Y-66661570D01*
X84122706Y-113210094D02*
X84146897Y-113234284D01*
X84171087Y-113306856D01*
X84171087Y-113355237D01*
X84146897Y-113427808D01*
X84098516Y-113476189D01*
X84050135Y-113500379D01*
X83953373Y-113524570D01*
X83880801Y-113524570D01*
X83784039Y-113500379D01*
X83735658Y-113476189D01*
X83687278Y-113427808D01*
X83663087Y-113355237D01*
X83663087Y-113306856D01*
X83687278Y-113234284D01*
X83711468Y-113210094D01*
X83880801Y-112919808D02*
X83856611Y-112968189D01*
X83832420Y-112992379D01*
X83784039Y-113016570D01*
X83759849Y-113016570D01*
X83711468Y-112992379D01*
X83687278Y-112968189D01*
X83663087Y-112919808D01*
X83663087Y-112823046D01*
X83687278Y-112774665D01*
X83711468Y-112750475D01*
X83759849Y-112726284D01*
X83784039Y-112726284D01*
X83832420Y-112750475D01*
X83856611Y-112774665D01*
X83880801Y-112823046D01*
X83880801Y-112919808D01*
X83904992Y-112968189D01*
X83929182Y-112992379D01*
X83977563Y-113016570D01*
X84074325Y-113016570D01*
X84122706Y-112992379D01*
X84146897Y-112968189D01*
X84171087Y-112919808D01*
X84171087Y-112823046D01*
X84146897Y-112774665D01*
X84122706Y-112750475D01*
X84074325Y-112726284D01*
X83977563Y-112726284D01*
X83929182Y-112750475D01*
X83904992Y-112774665D01*
X83880801Y-112823046D01*
X83663087Y-112411808D02*
X83663087Y-112363427D01*
X83687278Y-112315046D01*
X83711468Y-112290856D01*
X83759849Y-112266665D01*
X83856611Y-112242475D01*
X83977563Y-112242475D01*
X84074325Y-112266665D01*
X84122706Y-112290856D01*
X84146897Y-112315046D01*
X84171087Y-112363427D01*
X84171087Y-112411808D01*
X84146897Y-112460189D01*
X84122706Y-112484379D01*
X84074325Y-112508570D01*
X83977563Y-112532760D01*
X83856611Y-112532760D01*
X83759849Y-112508570D01*
X83711468Y-112484379D01*
X83687278Y-112460189D01*
X83663087Y-112411808D01*
X83663087Y-112073141D02*
X83663087Y-111758665D01*
X83856611Y-111927998D01*
X83856611Y-111855427D01*
X83880801Y-111807046D01*
X83904992Y-111782856D01*
X83953373Y-111758665D01*
X84074325Y-111758665D01*
X84122706Y-111782856D01*
X84146897Y-111807046D01*
X84171087Y-111855427D01*
X84171087Y-112000570D01*
X84146897Y-112048951D01*
X84122706Y-112073141D01*
X88071801Y-110839427D02*
X87902468Y-110597522D01*
X87781516Y-110839427D02*
X87781516Y-110331427D01*
X87975039Y-110331427D01*
X88023420Y-110355618D01*
X88047611Y-110379808D01*
X88071801Y-110428189D01*
X88071801Y-110500760D01*
X88047611Y-110549141D01*
X88023420Y-110573332D01*
X87975039Y-110597522D01*
X87781516Y-110597522D01*
X88531420Y-110331427D02*
X88289516Y-110331427D01*
X88265325Y-110573332D01*
X88289516Y-110549141D01*
X88337897Y-110524951D01*
X88458849Y-110524951D01*
X88507230Y-110549141D01*
X88531420Y-110573332D01*
X88555611Y-110621713D01*
X88555611Y-110742665D01*
X88531420Y-110791046D01*
X88507230Y-110815237D01*
X88458849Y-110839427D01*
X88337897Y-110839427D01*
X88289516Y-110815237D01*
X88265325Y-110791046D01*
X89039420Y-110839427D02*
X88749135Y-110839427D01*
X88894278Y-110839427D02*
X88894278Y-110331427D01*
X88845897Y-110403998D01*
X88797516Y-110452379D01*
X88749135Y-110476570D01*
X89232944Y-110379808D02*
X89257135Y-110355618D01*
X89305516Y-110331427D01*
X89426468Y-110331427D01*
X89474849Y-110355618D01*
X89499039Y-110379808D01*
X89523230Y-110428189D01*
X89523230Y-110476570D01*
X89499039Y-110549141D01*
X89208754Y-110839427D01*
X89523230Y-110839427D01*
X107502801Y-105759427D02*
X107333468Y-105517522D01*
X107212516Y-105759427D02*
X107212516Y-105251427D01*
X107406039Y-105251427D01*
X107454420Y-105275618D01*
X107478611Y-105299808D01*
X107502801Y-105348189D01*
X107502801Y-105420760D01*
X107478611Y-105469141D01*
X107454420Y-105493332D01*
X107406039Y-105517522D01*
X107212516Y-105517522D01*
X107793087Y-105469141D02*
X107744706Y-105444951D01*
X107720516Y-105420760D01*
X107696325Y-105372379D01*
X107696325Y-105348189D01*
X107720516Y-105299808D01*
X107744706Y-105275618D01*
X107793087Y-105251427D01*
X107889849Y-105251427D01*
X107938230Y-105275618D01*
X107962420Y-105299808D01*
X107986611Y-105348189D01*
X107986611Y-105372379D01*
X107962420Y-105420760D01*
X107938230Y-105444951D01*
X107889849Y-105469141D01*
X107793087Y-105469141D01*
X107744706Y-105493332D01*
X107720516Y-105517522D01*
X107696325Y-105565903D01*
X107696325Y-105662665D01*
X107720516Y-105711046D01*
X107744706Y-105735237D01*
X107793087Y-105759427D01*
X107889849Y-105759427D01*
X107938230Y-105735237D01*
X107962420Y-105711046D01*
X107986611Y-105662665D01*
X107986611Y-105565903D01*
X107962420Y-105517522D01*
X107938230Y-105493332D01*
X107889849Y-105469141D01*
X108470420Y-105759427D02*
X108180135Y-105759427D01*
X108325278Y-105759427D02*
X108325278Y-105251427D01*
X108276897Y-105323998D01*
X108228516Y-105372379D01*
X108180135Y-105396570D01*
X108663944Y-105299808D02*
X108688135Y-105275618D01*
X108736516Y-105251427D01*
X108857468Y-105251427D01*
X108905849Y-105275618D01*
X108930039Y-105299808D01*
X108954230Y-105348189D01*
X108954230Y-105396570D01*
X108930039Y-105469141D01*
X108639754Y-105759427D01*
X108954230Y-105759427D01*
X112238087Y-101592618D02*
X112359039Y-101592618D01*
X112310658Y-101713570D02*
X112359039Y-101592618D01*
X112310658Y-101471665D01*
X112455801Y-101665189D02*
X112359039Y-101592618D01*
X112455801Y-101520046D01*
D15*
X83349168Y-102633492D02*
X83823684Y-102633492D01*
X83349168Y-101588492D02*
X83823684Y-101588492D01*
X81528846Y-70415000D02*
X81731316Y-70415000D01*
X82346376Y-76885000D02*
X83168846Y-76885000D01*
X82346376Y-70415000D02*
X83168846Y-70415000D01*
X81528846Y-70546529D02*
X81528846Y-70415000D01*
X79638846Y-71870000D02*
X79638846Y-76885000D01*
X79638846Y-70350000D02*
X80768846Y-70350000D01*
X79638846Y-71870000D02*
X80205375Y-71870000D01*
X83168846Y-70415000D02*
X83168846Y-76885000D01*
X81076376Y-76885000D02*
X81731316Y-76885000D01*
X79638846Y-76885000D02*
X80461316Y-76885000D01*
X79638846Y-71110000D02*
X79638846Y-70350000D01*
X81332317Y-71870000D02*
X81475375Y-71870000D01*
X81528846Y-71816529D02*
X81528846Y-71673471D01*
X98531778Y-122022876D02*
X98531778Y-121548360D01*
X99576778Y-122022876D02*
X99576778Y-121548360D01*
X86083536Y-75667500D02*
X85609020Y-75667500D01*
X86083536Y-76712500D02*
X85609020Y-76712500D01*
X128916020Y-73130118D02*
X129390536Y-73130118D01*
X128916020Y-74175118D02*
X129390536Y-74175118D01*
X87871026Y-120996618D02*
X88393530Y-120996618D01*
X87871026Y-119526618D02*
X88393530Y-119526618D01*
X97036778Y-121548360D02*
X97036778Y-122022876D01*
X95991778Y-121548360D02*
X95991778Y-122022876D01*
D12*
X77163646Y-104916415D02*
X77824046Y-104916415D01*
X80973646Y-104990933D02*
X80973646Y-102886097D01*
X77824046Y-102960615D02*
X77163646Y-102960615D01*
X80973646Y-104990933D02*
X80973646Y-102886097D01*
X77163646Y-102960615D02*
X77163646Y-104916415D01*
D15*
X88223499Y-121656618D02*
X88549057Y-121656618D01*
X88223499Y-122676618D02*
X88549057Y-122676618D01*
X124331997Y-109169292D02*
X124331997Y-108843734D01*
X125351997Y-109169292D02*
X125351997Y-108843734D01*
X92931278Y-111632870D02*
X92931278Y-111110366D01*
X91461278Y-111632870D02*
X91461278Y-111110366D01*
X125578114Y-70456618D02*
X125362442Y-70456618D01*
X125578114Y-69736618D02*
X125362442Y-69736618D01*
X95085642Y-99209418D02*
X95301314Y-99209418D01*
X95085642Y-98489418D02*
X95301314Y-98489418D01*
X95392278Y-115162454D02*
X95392278Y-114946782D01*
X96112278Y-115162454D02*
X96112278Y-114946782D01*
X123992075Y-97055380D02*
X123517559Y-97055380D01*
X123992075Y-96010380D02*
X123517559Y-96010380D01*
X106676278Y-119936089D02*
X106676278Y-120079147D01*
X107999749Y-120132618D02*
X108131278Y-120132618D01*
X107436278Y-118242618D02*
X108196278Y-118242618D01*
X106676278Y-118242618D02*
X106676278Y-118809147D01*
X106729749Y-120132618D02*
X106872807Y-120132618D01*
X108196278Y-118242618D02*
X108196278Y-119372618D01*
X108131278Y-121772618D02*
X101661278Y-121772618D01*
X106676278Y-118242618D02*
X101661278Y-118242618D01*
X108131278Y-120132618D02*
X108131278Y-120335088D01*
X108131278Y-120950148D02*
X108131278Y-121772618D01*
X101661278Y-119680148D02*
X101661278Y-120335088D01*
X101661278Y-118242618D02*
X101661278Y-119065088D01*
X101661278Y-120950148D02*
X101661278Y-121772618D01*
X126293457Y-81528618D02*
X125967899Y-81528618D01*
X126293457Y-80508618D02*
X125967899Y-80508618D01*
X93574114Y-83029618D02*
X93358442Y-83029618D01*
X93574114Y-82309618D02*
X93358442Y-82309618D01*
X92300546Y-92236808D02*
X91826030Y-92236808D01*
X92300546Y-93281808D02*
X91826030Y-93281808D01*
X99053479Y-92298846D02*
X99527995Y-92298846D01*
X99053479Y-93343846D02*
X99527995Y-93343846D01*
X116597020Y-77477118D02*
X117071536Y-77477118D01*
X116597020Y-76432118D02*
X117071536Y-76432118D01*
D12*
X127137489Y-74430060D02*
X127137489Y-74136513D01*
X124527437Y-71026460D02*
X123733889Y-71026460D01*
X127467689Y-73418759D02*
X127213689Y-73418759D01*
X127213689Y-73037759D02*
X127467689Y-73037759D01*
X123733889Y-74430060D02*
X124527437Y-74430060D01*
X127467689Y-73037759D02*
X127467689Y-73418759D01*
X126343941Y-74430060D02*
X127137489Y-74430060D01*
X123733889Y-74136513D02*
X123733889Y-74430060D01*
X123733889Y-71026460D02*
X123733889Y-71320007D01*
X127213689Y-73418759D02*
X127213689Y-73037759D01*
X127137489Y-71026460D02*
X126343941Y-71026460D01*
X127137489Y-71320007D02*
X127137489Y-71026460D01*
X77163646Y-110252101D02*
X77163646Y-112207901D01*
X80973646Y-112282419D02*
X80973646Y-110177583D01*
X77824046Y-110252101D02*
X77163646Y-110252101D01*
X77163646Y-112207901D02*
X77824046Y-112207901D01*
X80973646Y-112282419D02*
X80973646Y-110177583D01*
D15*
X125972042Y-83055018D02*
X126187714Y-83055018D01*
X125972042Y-82335018D02*
X126187714Y-82335018D01*
X97731478Y-114861797D02*
X97731478Y-114536239D01*
X98751478Y-114861797D02*
X98751478Y-114536239D01*
X95202000Y-72522500D02*
X94002000Y-72522500D01*
D14*
X96452000Y-67672500D02*
X97152000Y-67672500D01*
D15*
X96152000Y-67372500D02*
X96202000Y-68022500D01*
D14*
X97152000Y-67672500D02*
X97177000Y-67672500D01*
D16*
X94777000Y-72872500D02*
X94377000Y-72872500D01*
X94377000Y-72872500D02*
X94552000Y-73547500D01*
D14*
X87127000Y-67672500D02*
X88252000Y-67672500D01*
X88652000Y-67372500D02*
X96152000Y-67372500D01*
D15*
X90802000Y-72522500D02*
X89702000Y-72522500D01*
X88602000Y-70222500D02*
X88602000Y-70722500D01*
X88652000Y-67372500D02*
X88642778Y-68024445D01*
D14*
X88977000Y-67672500D02*
X95802000Y-67672500D01*
D16*
X94552000Y-73547500D02*
X94802000Y-72872500D01*
D15*
X96302000Y-70222500D02*
X96302000Y-70722500D01*
X89258536Y-81766118D02*
X88784020Y-81766118D01*
X89258536Y-82811118D02*
X88784020Y-82811118D01*
X115181278Y-103334839D02*
X115181278Y-103660397D01*
X116201278Y-103334839D02*
X116201278Y-103660397D01*
X129075082Y-111121926D02*
X129075082Y-121121926D01*
X130660042Y-111121926D02*
X130660042Y-121121926D01*
X129075082Y-121121926D02*
X130660042Y-121121926D01*
X128360041Y-113899500D02*
X129060040Y-113899500D01*
X128360041Y-116424501D02*
X129060040Y-116424501D01*
X128360041Y-118974498D02*
X129060040Y-118974498D01*
X128360041Y-118339498D02*
X129060040Y-118339498D01*
X128360041Y-113264500D02*
X129060040Y-113264500D01*
X129075082Y-111121926D02*
X130660042Y-111121926D01*
X128360041Y-115789501D02*
X129060040Y-115789501D01*
X85990020Y-92209118D02*
X86464536Y-92209118D01*
X85990020Y-91164118D02*
X86464536Y-91164118D01*
X93747278Y-111632870D02*
X93747278Y-111110366D01*
X95217278Y-111632870D02*
X95217278Y-111110366D01*
X91180278Y-88531618D02*
X89230278Y-88531618D01*
X91180278Y-83411618D02*
X87730278Y-83411618D01*
X91180278Y-88531618D02*
X93130278Y-88531618D01*
X91180278Y-83411618D02*
X93130278Y-83411618D01*
X117721278Y-113044590D02*
X117721278Y-113325750D01*
X118741278Y-113044590D02*
X118741278Y-113325750D01*
X85609020Y-111005118D02*
X86083536Y-111005118D01*
X85609020Y-109960118D02*
X86083536Y-109960118D01*
X121218318Y-73474818D02*
X121594238Y-73474818D01*
X121218318Y-77640418D02*
X121594238Y-77640418D01*
X122024536Y-69955118D02*
X121550020Y-69955118D01*
X122024536Y-71000118D02*
X121550020Y-71000118D01*
X87585000Y-126425000D02*
X87585000Y-125095000D01*
X120725000Y-126425000D02*
X120725000Y-123765000D01*
X90185000Y-126425000D02*
X90185000Y-123765000D01*
X90185000Y-123765000D02*
X120725000Y-123765000D01*
X90185000Y-126425000D02*
X120725000Y-126425000D01*
X88915000Y-126425000D02*
X87585000Y-126425000D01*
X120548598Y-97035118D02*
X120074082Y-97035118D01*
X120548598Y-95990118D02*
X120074082Y-95990118D01*
X118492530Y-88992618D02*
X117970026Y-88992618D01*
X118492530Y-87522618D02*
X117970026Y-87522618D01*
X81311628Y-99213585D02*
X81786144Y-99213585D01*
X81311628Y-98168585D02*
X81786144Y-98168585D01*
X113956646Y-119567960D02*
X113956646Y-119192040D01*
X109791046Y-119567960D02*
X109791046Y-119192040D01*
X81205026Y-96346583D02*
X81679542Y-96346583D01*
X81205026Y-97391583D02*
X81679542Y-97391583D01*
X116686278Y-116089782D02*
X116686278Y-116305454D01*
X115966278Y-116089782D02*
X115966278Y-116305454D01*
X123499663Y-123053259D02*
X123499663Y-124475763D01*
X126219663Y-123053259D02*
X126219663Y-124475763D01*
X115274278Y-89416618D02*
X111374278Y-89416618D01*
X115274278Y-91416618D02*
X111374278Y-91416618D01*
X115274278Y-91416618D02*
X115274278Y-89416618D01*
X85609020Y-73130118D02*
X86083536Y-73130118D01*
X85609020Y-74175118D02*
X86083536Y-74175118D01*
X127735278Y-77481782D02*
X127735278Y-77697454D01*
X127015278Y-77481782D02*
X127015278Y-77697454D01*
X120647594Y-98612618D02*
X123420098Y-98612618D01*
X120647594Y-102032618D02*
X123420098Y-102032618D01*
X113388536Y-93860118D02*
X112914020Y-93860118D01*
X113388536Y-92815118D02*
X112914020Y-92815118D01*
X81172042Y-91536360D02*
X81646558Y-91536360D01*
X81172042Y-90491360D02*
X81646558Y-90491360D01*
X117994020Y-90021118D02*
X118468536Y-90021118D01*
X117994020Y-91066118D02*
X118468536Y-91066118D01*
X95652278Y-117841366D02*
X95652278Y-118363870D01*
X97122278Y-117841366D02*
X97122278Y-118363870D01*
X92570026Y-117367618D02*
X93092530Y-117367618D01*
X92570026Y-118837618D02*
X93092530Y-118837618D01*
D10*
X92643686Y-97596019D02*
X92643686Y-97596019D01*
X92643686Y-97496019D02*
X92643686Y-97496019D01*
X92643686Y-97496019D02*
G75*
G03*
X92643686Y-97596019I0J-50000D01*
G01*
X92643686Y-97596019D02*
G75*
G03*
X92643686Y-97496019I0J50000D01*
G01*
D15*
X118821714Y-87017418D02*
X118606042Y-87017418D01*
X118821714Y-86297418D02*
X118606042Y-86297418D01*
X89512536Y-118117118D02*
X89038020Y-118117118D01*
X89512536Y-117072118D02*
X89038020Y-117072118D01*
X114521278Y-103236366D02*
X114521278Y-103758870D01*
X113051278Y-103236366D02*
X113051278Y-103758870D01*
X93277278Y-75540618D02*
X91877278Y-75540618D01*
X91877278Y-77860618D02*
X93777278Y-77860618D01*
X115033846Y-108150000D02*
X115033846Y-106860000D01*
X115483846Y-114920000D02*
X115483846Y-115370000D01*
X108263846Y-115370000D02*
X108713846Y-115370000D01*
X108263846Y-108150000D02*
X108713846Y-108150000D01*
X115483846Y-108600000D02*
X115483846Y-108150000D01*
X108263846Y-114920000D02*
X108263846Y-115370000D01*
X115483846Y-108150000D02*
X115033846Y-108150000D01*
X108263846Y-108600000D02*
X108263846Y-108150000D01*
X115483846Y-115370000D02*
X115033846Y-115370000D01*
X128916020Y-75416118D02*
X129390536Y-75416118D01*
X128916020Y-76461118D02*
X129390536Y-76461118D01*
X104065886Y-116382800D02*
X104441806Y-116382800D01*
X104065886Y-112217200D02*
X104441806Y-112217200D01*
X86081114Y-68339618D02*
X85865442Y-68339618D01*
X86081114Y-69059618D02*
X85865442Y-69059618D01*
D13*
X104245000Y-83560000D02*
X109945000Y-83560000D01*
X113115000Y-68610000D02*
X113115000Y-69555000D01*
X98975000Y-69555000D02*
X98975000Y-68610000D01*
X98975000Y-68610000D02*
X113115000Y-68610000D01*
D17*
X102335000Y-67945000D02*
G75*
G03*
X102335000Y-67945000I-100000J0D01*
G01*
D15*
X77266278Y-89162618D02*
X77266278Y-91847618D01*
X79186278Y-91847618D02*
X79186278Y-89162618D01*
X77266278Y-91847618D02*
X79186278Y-91847618D01*
D13*
X130183846Y-101142618D02*
X130183846Y-102002618D01*
X126583846Y-97002618D02*
X126583846Y-95822618D01*
X126583846Y-104822618D02*
X126583846Y-103642618D01*
X130183846Y-98642618D02*
X130183846Y-99502618D01*
X130183846Y-103642618D02*
X130183846Y-104822618D01*
X130183846Y-95822618D02*
X130183846Y-97002618D01*
X130183846Y-104822618D02*
X126583846Y-104822618D01*
X126583846Y-102002618D02*
X126583846Y-101142618D01*
X126583846Y-99502618D02*
X126583846Y-98642618D01*
X126583846Y-95822618D02*
X130183846Y-95822618D01*
D17*
X125983846Y-96822618D02*
G75*
G03*
X125983846Y-96822618I-100000J0D01*
G01*
D15*
X97166020Y-86367118D02*
X97640536Y-86367118D01*
X97166020Y-85322118D02*
X97640536Y-85322118D01*
X89038020Y-115294118D02*
X89512536Y-115294118D01*
X89038020Y-116339118D02*
X89512536Y-116339118D01*
X91554026Y-119526618D02*
X92076530Y-119526618D01*
X91554026Y-120996618D02*
X92076530Y-120996618D01*
X86464536Y-92942118D02*
X85990020Y-92942118D01*
X86464536Y-93987118D02*
X85990020Y-93987118D01*
X92721020Y-101353118D02*
X93195536Y-101353118D01*
X92721020Y-100308118D02*
X93195536Y-100308118D01*
X112624114Y-105677618D02*
X112408442Y-105677618D01*
X112624114Y-106397618D02*
X112408442Y-106397618D01*
X115735942Y-69482618D02*
X115951614Y-69482618D01*
X115735942Y-70202618D02*
X115951614Y-70202618D01*
X99068778Y-96749876D02*
X99068778Y-96275360D01*
X98023778Y-96749876D02*
X98023778Y-96275360D01*
X121778620Y-87201718D02*
X122253136Y-87201718D01*
X121778620Y-88246718D02*
X122253136Y-88246718D01*
X124926278Y-103767618D02*
X121026278Y-103767618D01*
X124926278Y-105767618D02*
X121026278Y-105767618D01*
X124926278Y-105767618D02*
X124926278Y-103767618D01*
X80578132Y-68170618D02*
X80793804Y-68170618D01*
X80578132Y-67450618D02*
X80793804Y-67450618D01*
X122278536Y-89005118D02*
X121804020Y-89005118D01*
X122278536Y-90050118D02*
X121804020Y-90050118D01*
X120036278Y-111491366D02*
X120036278Y-112013870D01*
X121506278Y-111491366D02*
X121506278Y-112013870D01*
X109767937Y-101141561D02*
X110093495Y-101141561D01*
X109767937Y-100121561D02*
X110093495Y-100121561D01*
X77266278Y-96782618D02*
X77266278Y-99467618D01*
X77266278Y-99467618D02*
X79186278Y-99467618D01*
X79186278Y-99467618D02*
X79186278Y-96782618D01*
X116261278Y-94497618D02*
X117661278Y-94497618D01*
X117661278Y-92177618D02*
X115761278Y-92177618D01*
X95836723Y-93374865D02*
X95362207Y-93374865D01*
X95836723Y-92329865D02*
X95362207Y-92329865D01*
X77266278Y-92972618D02*
X77266278Y-95657618D01*
X79186278Y-95657618D02*
X79186278Y-92972618D01*
X77266278Y-95657618D02*
X79186278Y-95657618D01*
X85577778Y-71222876D02*
X85577778Y-70748360D01*
X86622778Y-71222876D02*
X86622778Y-70748360D01*
X127680026Y-110387321D02*
X129102530Y-110387321D01*
X127680026Y-107667321D02*
X129102530Y-107667321D01*
X129751278Y-123106366D02*
X129751278Y-124528870D01*
X127031278Y-123106366D02*
X127031278Y-124528870D01*
X93959778Y-122022876D02*
X93959778Y-121548360D01*
X95004778Y-122022876D02*
X95004778Y-121548360D01*
X128916020Y-72016118D02*
X129390536Y-72016118D01*
X128916020Y-70971118D02*
X129390536Y-70971118D01*
X116597020Y-74527118D02*
X117071536Y-74527118D01*
X116597020Y-75572118D02*
X117071536Y-75572118D01*
X89038020Y-113262118D02*
X89512536Y-113262118D01*
X89038020Y-114307118D02*
X89512536Y-114307118D01*
X91072442Y-122526618D02*
X91288114Y-122526618D01*
X91072442Y-121806618D02*
X91288114Y-121806618D01*
X117455698Y-106547618D02*
X117736858Y-106547618D01*
X117455698Y-105527618D02*
X117736858Y-105527618D01*
X117198536Y-95990118D02*
X116724020Y-95990118D01*
X117198536Y-97035118D02*
X116724020Y-97035118D01*
X81172042Y-95514558D02*
X81646558Y-95514558D01*
X81172042Y-94469558D02*
X81646558Y-94469558D01*
D13*
X124430689Y-78510160D02*
X124830689Y-78510160D01*
X124430689Y-78330160D02*
X124430689Y-78510160D01*
X126490689Y-76450160D02*
X126490689Y-76630160D01*
X124430689Y-76450160D02*
X124830689Y-76450160D01*
X126090689Y-76450160D02*
X126490689Y-76450160D01*
X126490689Y-78330160D02*
X126490689Y-78510160D01*
X124430689Y-76630160D02*
X124430689Y-76450160D01*
X126490689Y-78510160D02*
X126090689Y-78510160D01*
D17*
X125860689Y-75980160D02*
G75*
G03*
X125860689Y-75980160I-100000J0D01*
G01*
D10*
X120391278Y-92512618D02*
X120741278Y-92512618D01*
X123416278Y-92512618D02*
X123366278Y-92512618D01*
X123691278Y-92887618D02*
X123416278Y-92512618D01*
X120616278Y-94162618D02*
X120741278Y-94162618D01*
X123691278Y-93787618D02*
X123691278Y-94162618D01*
X120391278Y-94162618D02*
X120391278Y-93712618D01*
X120691278Y-94162618D02*
X120391278Y-94162618D01*
X123691278Y-93162618D02*
X123691278Y-92887618D01*
X123691278Y-94162618D02*
X123391278Y-94162618D01*
X120391278Y-92987618D02*
X120391278Y-92512618D01*
X123366278Y-92512618D02*
X123366278Y-91737618D01*
D17*
X91485278Y-114581618D02*
X91485278Y-114581618D01*
X91685278Y-114581618D02*
X91685278Y-114581618D01*
X91485278Y-114581618D02*
G75*
G03*
X91685278Y-114581618I100000J0D01*
G01*
X91685278Y-114581618D02*
G75*
G03*
X91485278Y-114581618I-100000J0D01*
G01*
D15*
X118362678Y-110323982D02*
X118362678Y-110539654D01*
X117642678Y-110323982D02*
X117642678Y-110539654D01*
X85582576Y-108130668D02*
X86057092Y-108130668D01*
X85582576Y-109175668D02*
X86057092Y-109175668D01*
X116532526Y-68939584D02*
X117055030Y-68939584D01*
X116532526Y-67469584D02*
X117055030Y-67469584D01*
X85977377Y-112927569D02*
X85696217Y-112927569D01*
X85977377Y-111907569D02*
X85696217Y-111907569D01*
X89512536Y-112402118D02*
X89038020Y-112402118D01*
X89512536Y-111357118D02*
X89038020Y-111357118D01*
X107893478Y-103309658D02*
X107893478Y-103685578D01*
X112059078Y-103309658D02*
X112059078Y-103685578D01*
M02*
