G04 #@! TF.GenerationSoftware,KiCad,Pcbnew,(6.0.7)*
G04 #@! TF.CreationDate,2023-05-03T08:39:23-05:00*
G04 #@! TF.ProjectId,SapphineMinimal,53617070-6869-46e6-954d-696e696d616c,rev?*
G04 #@! TF.SameCoordinates,Original*
G04 #@! TF.FileFunction,Paste,Top*
G04 #@! TF.FilePolarity,Positive*
%FSLAX46Y46*%
G04 Gerber Fmt 4.6, Leading zero omitted, Abs format (unit mm)*
G04 Created by KiCad (PCBNEW (6.0.7)) date 2023-05-03 08:39:23*
%MOMM*%
%LPD*%
G01*
G04 APERTURE LIST*
G04 Aperture macros list*
%AMRoundRect*
0 Rectangle with rounded corners*
0 $1 Rounding radius*
0 $2 $3 $4 $5 $6 $7 $8 $9 X,Y pos of 4 corners*
0 Add a 4 corners polygon primitive as box body*
4,1,4,$2,$3,$4,$5,$6,$7,$8,$9,$2,$3,0*
0 Add four circle primitives for the rounded corners*
1,1,$1+$1,$2,$3*
1,1,$1+$1,$4,$5*
1,1,$1+$1,$6,$7*
1,1,$1+$1,$8,$9*
0 Add four rect primitives between the rounded corners*
20,1,$1+$1,$2,$3,$4,$5,0*
20,1,$1+$1,$4,$5,$6,$7,0*
20,1,$1+$1,$6,$7,$8,$9,0*
20,1,$1+$1,$8,$9,$2,$3,0*%
G04 Aperture macros list end*
%ADD10RoundRect,0.200000X0.200000X0.275000X-0.200000X0.275000X-0.200000X-0.275000X0.200000X-0.275000X0*%
%ADD11RoundRect,0.200000X0.275000X-0.200000X0.275000X0.200000X-0.275000X0.200000X-0.275000X-0.200000X0*%
%ADD12RoundRect,0.200000X-0.200000X-0.275000X0.200000X-0.275000X0.200000X0.275000X-0.200000X0.275000X0*%
%ADD13RoundRect,0.250000X-0.250000X-0.475000X0.250000X-0.475000X0.250000X0.475000X-0.250000X0.475000X0*%
%ADD14RoundRect,0.200000X-0.275000X0.200000X-0.275000X-0.200000X0.275000X-0.200000X0.275000X0.200000X0*%
%ADD15R,1.045700X2.048501*%
%ADD16R,1.041400X2.048501*%
%ADD17R,1.070700X1.923501*%
%ADD18R,1.020700X1.923501*%
%ADD19RoundRect,0.218750X-0.218750X-0.256250X0.218750X-0.256250X0.218750X0.256250X-0.218750X0.256250X0*%
%ADD20RoundRect,0.250000X0.475000X-0.250000X0.475000X0.250000X-0.475000X0.250000X-0.475000X-0.250000X0*%
%ADD21RoundRect,0.140000X0.140000X0.170000X-0.140000X0.170000X-0.140000X-0.170000X0.140000X-0.170000X0*%
%ADD22R,1.397000X5.308600*%
%ADD23RoundRect,0.250000X0.250000X0.475000X-0.250000X0.475000X-0.250000X-0.475000X0.250000X-0.475000X0*%
%ADD24RoundRect,0.140000X0.170000X-0.140000X0.170000X0.140000X-0.170000X0.140000X-0.170000X-0.140000X0*%
%ADD25RoundRect,0.218750X0.218750X0.256250X-0.218750X0.256250X-0.218750X-0.256250X0.218750X-0.256250X0*%
%ADD26RoundRect,0.140000X-0.140000X-0.170000X0.140000X-0.170000X0.140000X0.170000X-0.140000X0.170000X0*%
%ADD27RoundRect,0.218750X0.256250X-0.218750X0.256250X0.218750X-0.256250X0.218750X-0.256250X-0.218750X0*%
%ADD28R,0.400000X1.350000*%
%ADD29R,1.600000X1.400000*%
%ADD30R,1.900000X1.900000*%
%ADD31RoundRect,0.218750X-0.256250X0.218750X-0.256250X-0.218750X0.256250X-0.218750X0.256250X0.218750X0*%
%ADD32RoundRect,0.150000X-0.675000X-0.150000X0.675000X-0.150000X0.675000X0.150000X-0.675000X0.150000X0*%
%ADD33RoundRect,0.225000X-0.250000X0.225000X-0.250000X-0.225000X0.250000X-0.225000X0.250000X0.225000X0*%
%ADD34R,0.711200X0.635000*%
%ADD35R,0.203200X0.635000*%
%ADD36RoundRect,0.140000X-0.170000X0.140000X-0.170000X-0.140000X0.170000X-0.140000X0.170000X0.140000X0*%
%ADD37R,1.200000X0.900000*%
%ADD38RoundRect,0.250000X-0.312500X-1.450000X0.312500X-1.450000X0.312500X1.450000X-0.312500X1.450000X0*%
%ADD39RoundRect,0.250000X-0.475000X0.250000X-0.475000X-0.250000X0.475000X-0.250000X0.475000X0.250000X0*%
%ADD40R,0.650000X0.400000*%
%ADD41RoundRect,0.000000X-0.073800X0.661300X-0.073800X-0.661300X0.073800X-0.661300X0.073800X0.661300X0*%
%ADD42RoundRect,0.000000X-0.661300X0.073800X-0.661300X-0.073800X0.661300X-0.073800X0.661300X0.073800X0*%
%ADD43R,0.635000X0.711200*%
%ADD44R,0.635000X0.203200*%
%ADD45R,0.800000X1.240000*%
%ADD46R,1.160000X1.200000*%
%ADD47R,0.950000X2.500000*%
%ADD48R,1.150000X2.200000*%
%ADD49R,1.500000X1.150000*%
%ADD50R,1.160000X1.250000*%
%ADD51RoundRect,0.243750X0.456250X-0.243750X0.456250X0.243750X-0.456250X0.243750X-0.456250X-0.243750X0*%
%ADD52R,2.325000X0.975000*%
%ADD53R,2.325000X0.925000*%
%ADD54R,2.325000X1.025000*%
%ADD55R,2.300000X1.000000*%
%ADD56R,0.900000X1.200000*%
%ADD57RoundRect,0.243750X-0.456250X0.243750X-0.456250X-0.243750X0.456250X-0.243750X0.456250X0.243750X0*%
%ADD58RoundRect,0.225000X0.250000X-0.225000X0.250000X0.225000X-0.250000X0.225000X-0.250000X-0.225000X0*%
%ADD59RoundRect,0.250000X1.100000X-0.325000X1.100000X0.325000X-1.100000X0.325000X-1.100000X-0.325000X0*%
%ADD60RoundRect,0.150000X-0.875000X-0.150000X0.875000X-0.150000X0.875000X0.150000X-0.875000X0.150000X0*%
%ADD61RoundRect,0.225000X-0.225000X-0.250000X0.225000X-0.250000X0.225000X0.250000X-0.225000X0.250000X0*%
%ADD62RoundRect,0.182500X-0.182500X0.182500X-0.182500X-0.182500X0.182500X-0.182500X0.182500X0.182500X0*%
%ADD63RoundRect,0.062500X-0.062500X0.350000X-0.062500X-0.350000X0.062500X-0.350000X0.062500X0.350000X0*%
%ADD64RoundRect,0.062500X-0.350000X0.062500X-0.350000X-0.062500X0.350000X-0.062500X0.350000X0.062500X0*%
%ADD65R,0.380000X0.350000*%
%ADD66R,0.600000X1.300000*%
%ADD67R,0.800000X0.190000*%
%ADD68R,0.275000X0.250000*%
%ADD69R,0.250000X0.275000*%
%ADD70RoundRect,0.225000X0.225000X0.250000X-0.225000X0.250000X-0.225000X-0.250000X0.225000X-0.250000X0*%
G04 APERTURE END LIST*
D10*
X121596278Y-78097618D03*
X119946278Y-78097618D03*
X84411426Y-102110992D03*
X82761426Y-102110992D03*
D11*
X96869878Y-122585218D03*
X96869878Y-120935218D03*
D10*
X121596278Y-72382618D03*
X119946278Y-72382618D03*
X86671278Y-75557618D03*
X85021278Y-75557618D03*
D12*
X87815278Y-80129618D03*
X89465278Y-80129618D03*
X128328278Y-72382618D03*
X129978278Y-72382618D03*
D13*
X86471078Y-120261618D03*
X88371078Y-120261618D03*
D14*
X95295078Y-120935218D03*
X95295078Y-122585218D03*
D15*
X80121696Y-101812766D03*
D16*
X78673846Y-101812766D03*
D17*
X78659196Y-106001764D03*
D18*
X80134196Y-106001764D03*
D19*
X86430378Y-122166618D03*
X88005378Y-122166618D03*
D10*
X121596278Y-80002618D03*
X119946278Y-80002618D03*
D19*
X121888778Y-125087618D03*
X123463778Y-125087618D03*
D20*
X90807278Y-109727618D03*
X90807278Y-107827618D03*
D21*
X125950278Y-71112618D03*
X124990278Y-71112618D03*
D22*
X124924178Y-114292618D03*
X129318378Y-114292618D03*
D23*
X89336278Y-90797618D03*
X87436278Y-90797618D03*
D24*
X94363278Y-112940618D03*
X94363278Y-111980618D03*
D10*
X129851278Y-107307618D03*
X128201278Y-107307618D03*
D25*
X125547212Y-80637618D03*
X123972212Y-80637618D03*
D21*
X93692278Y-80510618D03*
X92732278Y-80510618D03*
D12*
X116136278Y-76192618D03*
X117786278Y-76192618D03*
D10*
X122231278Y-120007618D03*
X120581278Y-120007618D03*
D26*
X125323603Y-82163914D03*
X126283603Y-82163914D03*
D27*
X96852478Y-112892518D03*
X96852478Y-111317518D03*
D13*
X127441278Y-80370185D03*
X129341278Y-80370185D03*
D28*
X93702000Y-71797500D03*
X93052000Y-71797500D03*
X92402000Y-71797500D03*
X91752000Y-71797500D03*
X91102000Y-71797500D03*
D29*
X95602000Y-71572500D03*
X89202000Y-71572500D03*
D30*
X91202000Y-69122500D03*
X93602000Y-69122500D03*
D10*
X89465278Y-78351618D03*
X87815278Y-78351618D03*
D31*
X114466840Y-102710118D03*
X114466840Y-104285118D03*
D10*
X121596278Y-81907618D03*
X119946278Y-81907618D03*
D12*
X120581278Y-116324618D03*
X122231278Y-116324618D03*
D20*
X93093278Y-109727618D03*
X93093278Y-107827618D03*
D32*
X88301278Y-81907618D03*
X88301278Y-83177618D03*
X88301278Y-84447618D03*
X88301278Y-85717618D03*
X93551278Y-85717618D03*
X93551278Y-84447618D03*
X93551278Y-83177618D03*
X93551278Y-81907618D03*
D33*
X117006840Y-112410170D03*
X117006840Y-113960170D03*
D12*
X87587722Y-99612068D03*
X89237722Y-99612068D03*
X100261278Y-90797618D03*
X101911278Y-90797618D03*
X119946278Y-70477618D03*
X121596278Y-70477618D03*
D10*
X126407801Y-107287356D03*
X124757801Y-107287356D03*
D13*
X94421278Y-75557618D03*
X96321278Y-75557618D03*
D12*
X81211278Y-99052618D03*
X82861278Y-99052618D03*
D34*
X112765040Y-121252218D03*
D35*
X113512562Y-121252218D03*
X114006084Y-121252218D03*
X114499606Y-121252218D03*
X114993128Y-121252218D03*
X115486650Y-121252218D03*
X115980172Y-121252218D03*
D34*
X116727440Y-121252218D03*
X116727440Y-119423418D03*
D35*
X115980172Y-119423418D03*
X115486650Y-119423418D03*
X114993128Y-119423418D03*
X114499606Y-119423418D03*
X114006084Y-119423418D03*
X113512562Y-119423418D03*
D34*
X112765040Y-119423418D03*
D12*
X81211278Y-97147618D03*
X82861278Y-97147618D03*
D36*
X115101840Y-115717618D03*
X115101840Y-116677618D03*
D13*
X125536278Y-125087618D03*
X127436278Y-125087618D03*
D37*
X96006278Y-81017618D03*
X96006278Y-77717618D03*
D12*
X85021278Y-73652618D03*
X86671278Y-73652618D03*
D36*
X127375278Y-77109618D03*
X127375278Y-78069618D03*
D38*
X118626346Y-97147618D03*
X122901346Y-97147618D03*
D10*
X117786278Y-93972618D03*
X116136278Y-93972618D03*
D12*
X81211278Y-91432618D03*
X82861278Y-91432618D03*
X116136278Y-87622618D03*
X117786278Y-87622618D03*
D39*
X94998278Y-114558618D03*
X94998278Y-116458618D03*
D13*
X90492278Y-115508618D03*
X92392278Y-115508618D03*
D26*
X94256278Y-73652618D03*
X95216278Y-73652618D03*
D10*
X88711278Y-115000618D03*
X87061278Y-115000618D03*
D39*
X112561840Y-102547618D03*
X112561840Y-104447618D03*
D40*
X91876278Y-76207618D03*
X91876278Y-75557618D03*
X91876278Y-74907618D03*
X89976278Y-74907618D03*
X89976278Y-75557618D03*
X89976278Y-76207618D03*
D41*
X113399408Y-107597500D03*
X112899408Y-107597500D03*
X112399408Y-107597500D03*
X111899408Y-107597500D03*
X111399408Y-107597500D03*
X110899408Y-107597500D03*
X110399408Y-107597500D03*
X109899408Y-107597500D03*
X109399408Y-107597500D03*
X108899408Y-107597500D03*
X108399408Y-107597500D03*
X107899408Y-107597500D03*
D42*
X106486908Y-109010000D03*
X106486908Y-109510000D03*
X106486908Y-110010000D03*
X106486908Y-110510000D03*
X106486908Y-111010000D03*
X106486908Y-111510000D03*
X106486908Y-112010000D03*
X106486908Y-112510000D03*
X106486908Y-113010000D03*
X106486908Y-113510000D03*
X106486908Y-114010000D03*
X106486908Y-114510000D03*
D41*
X107899408Y-115922500D03*
X108399408Y-115922500D03*
X108899408Y-115922500D03*
X109399408Y-115922500D03*
X109899408Y-115922500D03*
X110399408Y-115922500D03*
X110899408Y-115922500D03*
X111399408Y-115922500D03*
X111899408Y-115922500D03*
X112399408Y-115922500D03*
X112899408Y-115922500D03*
X113399408Y-115922500D03*
D42*
X114811908Y-114510000D03*
X114811908Y-114010000D03*
X114811908Y-113510000D03*
X114811908Y-113010000D03*
X114811908Y-112510000D03*
X114811908Y-112010000D03*
X114811908Y-111510000D03*
X114811908Y-111010000D03*
X114811908Y-110510000D03*
X114811908Y-110010000D03*
X114811908Y-109510000D03*
X114811908Y-109010000D03*
D12*
X128328278Y-74287618D03*
X129978278Y-74287618D03*
D43*
X102115008Y-112318800D03*
D44*
X102115008Y-113066322D03*
X102115008Y-113559844D03*
X102115008Y-114053366D03*
X102115008Y-114546888D03*
X102115008Y-115040410D03*
X102115008Y-115533932D03*
D43*
X102115008Y-116281200D03*
X103943808Y-116281200D03*
D44*
X103943808Y-115533932D03*
X103943808Y-115040410D03*
X103943808Y-114546888D03*
X103943808Y-114053366D03*
X103943808Y-113559844D03*
X103943808Y-113066322D03*
D43*
X103943808Y-112318800D03*
D21*
X86326278Y-67937618D03*
X85366278Y-67937618D03*
D45*
X103145000Y-70480000D03*
X104245000Y-70480000D03*
X105345000Y-70480000D03*
X106445000Y-70480000D03*
X107545000Y-70480000D03*
X108645000Y-70480000D03*
X109745000Y-70480000D03*
X110845000Y-70480000D03*
D46*
X112785000Y-82110000D03*
D47*
X98800000Y-71110000D03*
D48*
X113190000Y-70960000D03*
X98900000Y-82440000D03*
D49*
X103205000Y-83235000D03*
X110985000Y-83235000D03*
D50*
X112785000Y-73110000D03*
D51*
X78226278Y-91100118D03*
X78226278Y-89225118D03*
D52*
X126821346Y-97810118D03*
D53*
X126821346Y-100285118D03*
D54*
X126821346Y-102835118D03*
D52*
X129946346Y-97810118D03*
D53*
X129946346Y-100285118D03*
D55*
X129933846Y-102822618D03*
D14*
X96006278Y-83622618D03*
X96006278Y-85272618D03*
D12*
X87061278Y-113222618D03*
X88711278Y-113222618D03*
D13*
X90077878Y-120261618D03*
X91977878Y-120261618D03*
D12*
X91371278Y-90797618D03*
X93021278Y-90797618D03*
D21*
X111771840Y-106037618D03*
X110811840Y-106037618D03*
D26*
X127911278Y-82163914D03*
X128871278Y-82163914D03*
D11*
X129661278Y-125912618D03*
X129661278Y-124262618D03*
D12*
X119946278Y-87622618D03*
X121596278Y-87622618D03*
D10*
X121596278Y-74287618D03*
X119946278Y-74287618D03*
D56*
X123056278Y-100957618D03*
X119756278Y-100957618D03*
D10*
X121596278Y-89527618D03*
X119946278Y-89527618D03*
D39*
X119546840Y-110802618D03*
X119546840Y-112702618D03*
D19*
X107918778Y-100631561D03*
X109493778Y-100631561D03*
D57*
X78226278Y-96845118D03*
X78226278Y-98720118D03*
D40*
X116011278Y-90147618D03*
X116011278Y-90797618D03*
X116011278Y-91447618D03*
X117911278Y-91447618D03*
X117911278Y-90797618D03*
X117911278Y-90147618D03*
D12*
X96451278Y-90797618D03*
X98101278Y-90797618D03*
D10*
X121596278Y-76192618D03*
X119946278Y-76192618D03*
D12*
X87561278Y-95242618D03*
X89211278Y-95242618D03*
D51*
X78226278Y-94910118D03*
X78226278Y-93035118D03*
D12*
X85021278Y-69842618D03*
X86671278Y-69842618D03*
D58*
X122041278Y-123322618D03*
X122041278Y-121772618D03*
D59*
X129661278Y-122117618D03*
X129661278Y-119167618D03*
D11*
X93720278Y-122585218D03*
X93720278Y-120935218D03*
D12*
X128328278Y-70477618D03*
X129978278Y-70477618D03*
D60*
X91991278Y-93083618D03*
X91991278Y-94353618D03*
X91991278Y-95623618D03*
X91991278Y-96893618D03*
X91991278Y-98163618D03*
X91991278Y-99433618D03*
X91991278Y-100703618D03*
X91991278Y-101973618D03*
X101291278Y-101973618D03*
X101291278Y-100703618D03*
X101291278Y-99433618D03*
X101291278Y-98163618D03*
X101291278Y-96893618D03*
X101291278Y-95623618D03*
X101291278Y-94353618D03*
X101291278Y-93083618D03*
D12*
X116136278Y-74287618D03*
X117786278Y-74287618D03*
X87061278Y-111190618D03*
X88711278Y-111190618D03*
D26*
X90700278Y-122166618D03*
X91660278Y-122166618D03*
D61*
X115596840Y-106037618D03*
X117146840Y-106037618D03*
D10*
X123057739Y-107287356D03*
X121407739Y-107287356D03*
D62*
X124796278Y-121062618D03*
X125636278Y-120222618D03*
X125636278Y-121062618D03*
X124796278Y-120222618D03*
D63*
X125966278Y-119180118D03*
X125466278Y-119180118D03*
X124966278Y-119180118D03*
X124466278Y-119180118D03*
D64*
X123753778Y-119892618D03*
X123753778Y-120392618D03*
X123753778Y-120892618D03*
X123753778Y-121392618D03*
D63*
X124466278Y-122105118D03*
X124966278Y-122105118D03*
X125466278Y-122105118D03*
X125966278Y-122105118D03*
D64*
X126678778Y-121392618D03*
X126678778Y-120892618D03*
X126678778Y-120392618D03*
X126678778Y-119892618D03*
D12*
X81211278Y-94992058D03*
X82861278Y-94992058D03*
D65*
X125466278Y-76697618D03*
X124966278Y-76697618D03*
X124451278Y-76962618D03*
X124451278Y-77462618D03*
X124451278Y-77962618D03*
X124966278Y-78227618D03*
X125466278Y-78227618D03*
X125981278Y-77962618D03*
X125981278Y-77462618D03*
X125981278Y-76962618D03*
D66*
X122356278Y-91652618D03*
X120456278Y-91652618D03*
X121406278Y-93752618D03*
D67*
X91196278Y-111987618D03*
X91196278Y-112387618D03*
X91196278Y-112787618D03*
X91196278Y-113187618D03*
X92196278Y-113187618D03*
X92196278Y-112787618D03*
X92196278Y-112387618D03*
X92196278Y-111987618D03*
D36*
X116778240Y-109951818D03*
X116778240Y-110911818D03*
D68*
X124580778Y-72521617D03*
X124580778Y-73021618D03*
X124580778Y-73521618D03*
X124580778Y-74021619D03*
D69*
X125093278Y-74034118D03*
X125593278Y-74034118D03*
D68*
X126105778Y-74021619D03*
X126105778Y-73521618D03*
X126105778Y-73021618D03*
X126105778Y-72521617D03*
D69*
X125593278Y-72509118D03*
X125093278Y-72509118D03*
D12*
X87561278Y-97782618D03*
X89211278Y-97782618D03*
D15*
X80121696Y-108991869D03*
D16*
X78673846Y-108991869D03*
D17*
X78659196Y-113180867D03*
D18*
X80134196Y-113180867D03*
D21*
X88866278Y-93337618D03*
X87906278Y-93337618D03*
D70*
X89178241Y-101547019D03*
X87628241Y-101547019D03*
D10*
X88711278Y-109285618D03*
X87061278Y-109285618D03*
D34*
X110733040Y-102583218D03*
D35*
X109985518Y-102583218D03*
X109491996Y-102583218D03*
X108998474Y-102583218D03*
X108504952Y-102583218D03*
X108011430Y-102583218D03*
X107517908Y-102583218D03*
D34*
X106770640Y-102583218D03*
X106770640Y-104412018D03*
D35*
X107517908Y-104412018D03*
X108011430Y-104412018D03*
X108504952Y-104412018D03*
X108998474Y-104412018D03*
X109491996Y-104412018D03*
X109985518Y-104412018D03*
D34*
X110733040Y-104412018D03*
D12*
X120581278Y-118102618D03*
X122231278Y-118102618D03*
M02*
