G04 #@! TF.GenerationSoftware,KiCad,Pcbnew,(6.0.7)*
G04 #@! TF.CreationDate,2022-10-28T13:42:32-05:00*
G04 #@! TF.ProjectId,SapphineMinimal,53617070-6869-46e6-954d-696e696d616c,rev?*
G04 #@! TF.SameCoordinates,Original*
G04 #@! TF.FileFunction,Other,User*
%FSLAX46Y46*%
G04 Gerber Fmt 4.6, Leading zero omitted, Abs format (unit mm)*
G04 Created by KiCad (PCBNEW (6.0.7)) date 2022-10-28 13:42:32*
%MOMM*%
%LPD*%
G01*
G04 APERTURE LIST*
%ADD10C,0.050000*%
%ADD11C,0.100000*%
%ADD12C,0.120000*%
G04 APERTURE END LIST*
D10*
X106880278Y-70151818D02*
X105960278Y-70151818D01*
X106880278Y-71971818D02*
X106880278Y-70151818D01*
X105960278Y-70151818D02*
X105960278Y-71971818D01*
X105960278Y-71971818D02*
X106880278Y-71971818D01*
X99784278Y-123265618D02*
X99784278Y-120305618D01*
X98324278Y-120305618D02*
X98324278Y-123265618D01*
X99784278Y-120305618D02*
X98324278Y-120305618D01*
X98324278Y-123265618D02*
X99784278Y-123265618D01*
D11*
X114150000Y-66591000D02*
X114150000Y-85809000D01*
X130960000Y-66591000D02*
X114150000Y-66591000D01*
X130960000Y-85809000D02*
X130960000Y-66591000D01*
X114150000Y-85809000D02*
X130960000Y-85809000D01*
X108491278Y-121057618D02*
X110191278Y-121057618D01*
X110191278Y-118957618D02*
X108491278Y-118957618D01*
X110191278Y-121057618D02*
X110191278Y-118957618D01*
X108491278Y-118957618D02*
X108491278Y-121057618D01*
D10*
X111976278Y-122122618D02*
X111976278Y-119162618D01*
X110516278Y-122122618D02*
X111976278Y-122122618D01*
X110516278Y-119162618D02*
X110516278Y-122122618D01*
X111976278Y-119162618D02*
X110516278Y-119162618D01*
D12*
X122506278Y-116492618D02*
G75*
G03*
X122506278Y-116492618I-3600000J0D01*
G01*
D10*
X108941478Y-69734218D02*
X108941478Y-72694218D01*
X108941478Y-72694218D02*
X110401478Y-72694218D01*
X110401478Y-69734218D02*
X108941478Y-69734218D01*
X110401478Y-72694218D02*
X110401478Y-69734218D01*
X131046278Y-67302618D02*
G75*
G03*
X131046278Y-67302618I-750000J0D01*
G01*
X112179478Y-69734218D02*
X110719478Y-69734218D01*
X112179478Y-72694218D02*
X112179478Y-69734218D01*
X110719478Y-72694218D02*
X112179478Y-72694218D01*
X110719478Y-69734218D02*
X110719478Y-72694218D01*
X108766278Y-108002618D02*
X90866278Y-108002618D01*
X90866278Y-108002618D02*
X90866278Y-90102618D01*
X90866278Y-90102618D02*
X108766278Y-90102618D01*
X108766278Y-90102618D02*
X108766278Y-108002618D01*
X78976278Y-67302618D02*
G75*
G03*
X78976278Y-67302618I-750000J0D01*
G01*
X107027078Y-71971818D02*
X107947078Y-71971818D01*
X107947078Y-71971818D02*
X107947078Y-70151818D01*
X107947078Y-70151818D02*
X107027078Y-70151818D01*
X107027078Y-70151818D02*
X107027078Y-71971818D01*
X101829478Y-69734218D02*
X101829478Y-72694218D01*
X103289478Y-72694218D02*
X103289478Y-69734218D01*
X103289478Y-69734218D02*
X101829478Y-69734218D01*
X101829478Y-72694218D02*
X103289478Y-72694218D01*
X97244278Y-120305618D02*
X95784278Y-120305618D01*
X97244278Y-123265618D02*
X97244278Y-120305618D01*
X95784278Y-120305618D02*
X95784278Y-123265618D01*
X95784278Y-123265618D02*
X97244278Y-123265618D01*
X99546278Y-109482618D02*
X97546278Y-109482618D01*
X99546278Y-109482618D02*
X99546278Y-111482618D01*
X97546278Y-111482618D02*
X99546278Y-111482618D01*
X97546278Y-111482618D02*
X97546278Y-109482618D01*
X95858278Y-88813618D02*
X95858278Y-89733618D01*
X97678278Y-89733618D02*
X97678278Y-88813618D01*
X95858278Y-89733618D02*
X97678278Y-89733618D01*
X97678278Y-88813618D02*
X95858278Y-88813618D01*
X87602278Y-110900618D02*
X87602278Y-118700618D01*
X81042278Y-110900618D02*
X87602278Y-110900618D01*
X87602278Y-118700618D02*
X81042278Y-118700618D01*
X81042278Y-118700618D02*
X81042278Y-110900618D01*
X87602278Y-110572618D02*
X81042278Y-110572618D01*
X87602278Y-102772618D02*
X87602278Y-110572618D01*
X81042278Y-102772618D02*
X87602278Y-102772618D01*
X81042278Y-110572618D02*
X81042278Y-102772618D01*
X93752278Y-123265618D02*
X95212278Y-123265618D01*
X95212278Y-120305618D02*
X93752278Y-120305618D01*
X93752278Y-120305618D02*
X93752278Y-123265618D01*
X95212278Y-123265618D02*
X95212278Y-120305618D01*
X131046278Y-125722618D02*
G75*
G03*
X131046278Y-125722618I-750000J0D01*
G01*
X103556678Y-72694218D02*
X105016678Y-72694218D01*
X105016678Y-72694218D02*
X105016678Y-69734218D01*
X105016678Y-69734218D02*
X103556678Y-69734218D01*
X103556678Y-69734218D02*
X103556678Y-72694218D01*
X112866278Y-107787618D02*
X112866278Y-123337618D01*
X124866278Y-107787618D02*
X112866278Y-107787618D01*
X124866278Y-123337618D02*
X124866278Y-107787618D01*
X112866278Y-123337618D02*
X124866278Y-123337618D01*
X102336278Y-109232618D02*
X99836278Y-109232618D01*
X102336278Y-109232618D02*
X102336278Y-111732618D01*
X99836278Y-111732618D02*
X102336278Y-111732618D01*
X99836278Y-111732618D02*
X99836278Y-109232618D01*
X127133846Y-106192618D02*
X116933846Y-106192618D01*
X116933846Y-96992618D02*
X127133846Y-96992618D01*
X116933846Y-106192618D02*
X116933846Y-96992618D01*
X127133846Y-96992618D02*
X127133846Y-106192618D01*
X78016278Y-89432618D02*
X78016278Y-90892618D01*
X80976278Y-90892618D02*
X80976278Y-89432618D01*
X80976278Y-89432618D02*
X78016278Y-89432618D01*
X78016278Y-90892618D02*
X80976278Y-90892618D01*
X78645378Y-93286818D02*
X78645378Y-97198418D01*
X81058378Y-97909618D02*
X81058378Y-92575618D01*
X78645378Y-97198418D02*
X80347178Y-97198418D01*
X81058378Y-92575618D02*
X77934178Y-92575618D01*
X77934178Y-92575618D02*
X77934178Y-97909618D01*
X77934178Y-97909618D02*
X81058378Y-97909618D01*
X80347178Y-97198418D02*
X80347178Y-93286818D01*
X80347178Y-93286818D02*
X78645378Y-93286818D01*
X100546278Y-71322618D02*
X100546278Y-68362618D01*
X99086278Y-68362618D02*
X99086278Y-71322618D01*
X100546278Y-68362618D02*
X99086278Y-68362618D01*
X99086278Y-71322618D02*
X100546278Y-71322618D01*
M02*
