G04 #@! TF.GenerationSoftware,KiCad,Pcbnew,(6.0.7)*
G04 #@! TF.CreationDate,2022-10-28T13:42:32-05:00*
G04 #@! TF.ProjectId,SapphineMinimal,53617070-6869-46e6-954d-696e696d616c,rev?*
G04 #@! TF.SameCoordinates,Original*
G04 #@! TF.FileFunction,Soldermask,Top*
G04 #@! TF.FilePolarity,Negative*
%FSLAX46Y46*%
G04 Gerber Fmt 4.6, Leading zero omitted, Abs format (unit mm)*
G04 Created by KiCad (PCBNEW (6.0.7)) date 2022-10-28 13:42:32*
%MOMM*%
%LPD*%
G01*
G04 APERTURE LIST*
G04 Aperture macros list*
%AMRoundRect*
0 Rectangle with rounded corners*
0 $1 Rounding radius*
0 $2 $3 $4 $5 $6 $7 $8 $9 X,Y pos of 4 corners*
0 Add a 4 corners polygon primitive as box body*
4,1,4,$2,$3,$4,$5,$6,$7,$8,$9,$2,$3,0*
0 Add four circle primitives for the rounded corners*
1,1,$1+$1,$2,$3*
1,1,$1+$1,$4,$5*
1,1,$1+$1,$6,$7*
1,1,$1+$1,$8,$9*
0 Add four rect primitives between the rounded corners*
20,1,$1+$1,$2,$3,$4,$5,0*
20,1,$1+$1,$4,$5,$6,$7,0*
20,1,$1+$1,$6,$7,$8,$9,0*
20,1,$1+$1,$8,$9,$2,$3,0*%
G04 Aperture macros list end*
%ADD10C,3.200000*%
%ADD11RoundRect,0.200000X-0.200000X-0.275000X0.200000X-0.275000X0.200000X0.275000X-0.200000X0.275000X0*%
%ADD12R,1.000000X1.000000*%
%ADD13O,1.000000X1.000000*%
%ADD14RoundRect,0.200000X0.275000X-0.200000X0.275000X0.200000X-0.275000X0.200000X-0.275000X-0.200000X0*%
%ADD15RoundRect,0.200000X0.200000X0.275000X-0.200000X0.275000X-0.200000X-0.275000X0.200000X-0.275000X0*%
%ADD16RoundRect,0.250000X-0.250000X-0.475000X0.250000X-0.475000X0.250000X0.475000X-0.250000X0.475000X0*%
%ADD17RoundRect,0.200000X-0.275000X0.200000X-0.275000X-0.200000X0.275000X-0.200000X0.275000X0.200000X0*%
%ADD18C,0.889000*%
%ADD19R,1.041400X1.397000*%
%ADD20RoundRect,0.218750X-0.218750X-0.256250X0.218750X-0.256250X0.218750X0.256250X-0.218750X0.256250X0*%
%ADD21RoundRect,0.218750X0.256250X-0.218750X0.256250X0.218750X-0.256250X0.218750X-0.256250X-0.218750X0*%
%ADD22RoundRect,0.250000X0.475000X-0.250000X0.475000X0.250000X-0.475000X0.250000X-0.475000X-0.250000X0*%
%ADD23C,1.000000*%
%ADD24RoundRect,0.140000X0.140000X0.170000X-0.140000X0.170000X-0.140000X-0.170000X0.140000X-0.170000X0*%
%ADD25RoundRect,0.140000X-0.140000X-0.170000X0.140000X-0.170000X0.140000X0.170000X-0.140000X0.170000X0*%
%ADD26RoundRect,0.140000X0.170000X-0.140000X0.170000X0.140000X-0.170000X0.140000X-0.170000X-0.140000X0*%
%ADD27RoundRect,0.218750X0.218750X0.256250X-0.218750X0.256250X-0.218750X-0.256250X0.218750X-0.256250X0*%
%ADD28R,0.355600X0.254000*%
%ADD29R,0.254000X0.355600*%
%ADD30RoundRect,0.100000X0.100000X0.575000X-0.100000X0.575000X-0.100000X-0.575000X0.100000X-0.575000X0*%
%ADD31R,1.800000X1.900000*%
%ADD32R,2.100000X1.600000*%
%ADD33R,1.900000X1.900000*%
%ADD34RoundRect,0.218750X-0.256250X0.218750X-0.256250X-0.218750X0.256250X-0.218750X0.256250X0.218750X0*%
%ADD35R,1.709999X1.709999*%
%ADD36C,1.709999*%
%ADD37RoundRect,0.150000X-0.675000X-0.150000X0.675000X-0.150000X0.675000X0.150000X-0.675000X0.150000X0*%
%ADD38RoundRect,0.225000X-0.250000X0.225000X-0.250000X-0.225000X0.250000X-0.225000X0.250000X0.225000X0*%
%ADD39R,0.787400X0.863600*%
%ADD40R,0.787400X0.355600*%
%ADD41R,1.700000X1.700000*%
%ADD42O,1.700000X1.700000*%
%ADD43RoundRect,0.250000X0.250000X0.475000X-0.250000X0.475000X-0.250000X-0.475000X0.250000X-0.475000X0*%
%ADD44R,0.863600X0.787400*%
%ADD45R,0.355600X0.787400*%
%ADD46RoundRect,0.140000X-0.170000X0.140000X-0.170000X-0.140000X0.170000X-0.140000X0.170000X0.140000X0*%
%ADD47RoundRect,0.250000X-1.100000X0.325000X-1.100000X-0.325000X1.100000X-0.325000X1.100000X0.325000X0*%
%ADD48R,0.900000X1.200000*%
%ADD49RoundRect,0.250000X-0.312500X-1.450000X0.312500X-1.450000X0.312500X1.450000X-0.312500X1.450000X0*%
%ADD50RoundRect,0.250000X-0.475000X0.250000X-0.475000X-0.250000X0.475000X-0.250000X0.475000X0.250000X0*%
%ADD51R,0.500000X0.800000*%
%ADD52R,0.650000X0.400000*%
%ADD53RoundRect,0.075000X-0.075000X0.662500X-0.075000X-0.662500X0.075000X-0.662500X0.075000X0.662500X0*%
%ADD54RoundRect,0.075000X-0.662500X0.075000X-0.662500X-0.075000X0.662500X-0.075000X0.662500X0.075000X0*%
%ADD55R,0.800000X1.240000*%
%ADD56R,1.160000X1.200000*%
%ADD57R,0.950000X2.500000*%
%ADD58R,1.150000X2.200000*%
%ADD59R,1.500000X1.150000*%
%ADD60R,1.160000X1.250000*%
%ADD61RoundRect,0.243750X0.456250X-0.243750X0.456250X0.243750X-0.456250X0.243750X-0.456250X-0.243750X0*%
%ADD62R,1.600000X1.000000*%
%ADD63RoundRect,0.250000X-0.325000X-1.100000X0.325000X-1.100000X0.325000X1.100000X-0.325000X1.100000X0*%
%ADD64RoundRect,0.225000X-0.225000X-0.250000X0.225000X-0.250000X0.225000X0.250000X-0.225000X0.250000X0*%
%ADD65R,0.380000X0.350000*%
%ADD66RoundRect,0.070000X-0.300000X0.650000X-0.300000X-0.650000X0.300000X-0.650000X0.300000X0.650000X0*%
%ADD67R,0.800000X0.190000*%
%ADD68RoundRect,0.225000X0.225000X0.250000X-0.225000X0.250000X-0.225000X-0.250000X0.225000X-0.250000X0*%
%ADD69R,1.217000X1.217000*%
%ADD70C,1.217000*%
G04 APERTURE END LIST*
D10*
X82042000Y-121920000D03*
X82042000Y-83820000D03*
X127762000Y-91440000D03*
D11*
X82761426Y-102110992D03*
X84411426Y-102110992D03*
D12*
X80768846Y-71110000D03*
D13*
X82038846Y-71110000D03*
X80768846Y-72380000D03*
X82038846Y-72380000D03*
X80768846Y-73650000D03*
X82038846Y-73650000D03*
X80768846Y-74920000D03*
X82038846Y-74920000D03*
X80768846Y-76190000D03*
X82038846Y-76190000D03*
D14*
X99054278Y-122610618D03*
X99054278Y-120960618D03*
D15*
X86671278Y-76190000D03*
X85021278Y-76190000D03*
D11*
X128328278Y-73652618D03*
X129978278Y-73652618D03*
D16*
X87182278Y-120261618D03*
X89082278Y-120261618D03*
D17*
X96514278Y-120960618D03*
X96514278Y-122610618D03*
D18*
X80298846Y-103938515D03*
X78498846Y-103938515D03*
D19*
X80123846Y-102138516D03*
X78673846Y-102138516D03*
X78673846Y-105738514D03*
X80123846Y-105738514D03*
D20*
X87598778Y-122166618D03*
X89173778Y-122166618D03*
D21*
X124841997Y-109794013D03*
X124841997Y-108219013D03*
D22*
X92196278Y-112321618D03*
X92196278Y-110421618D03*
D23*
X78226278Y-67302618D03*
D24*
X125950278Y-70096618D03*
X124990278Y-70096618D03*
D25*
X94713478Y-98849418D03*
X95673478Y-98849418D03*
D26*
X95752278Y-115534618D03*
X95752278Y-114574618D03*
D15*
X124579817Y-96532880D03*
X122929817Y-96532880D03*
D12*
X107436278Y-119372618D03*
D13*
X107436278Y-120642618D03*
X106166278Y-119372618D03*
X106166278Y-120642618D03*
X104896278Y-119372618D03*
X104896278Y-120642618D03*
X103626278Y-119372618D03*
X103626278Y-120642618D03*
X102356278Y-119372618D03*
X102356278Y-120642618D03*
D27*
X126918178Y-81018618D03*
X125343178Y-81018618D03*
D24*
X93946278Y-82669618D03*
X92986278Y-82669618D03*
D15*
X92888288Y-92759308D03*
X91238288Y-92759308D03*
D11*
X98465737Y-92821346D03*
X100115737Y-92821346D03*
X116009278Y-76954618D03*
X117659278Y-76954618D03*
D28*
X124089489Y-71728259D03*
X124089489Y-72228261D03*
X124089489Y-72728260D03*
X124089489Y-73228259D03*
X124089489Y-73728261D03*
D29*
X124935690Y-74074460D03*
X125435689Y-74074460D03*
X125935688Y-74074460D03*
D28*
X126781889Y-73728261D03*
X126781889Y-73228259D03*
X126781889Y-72728260D03*
X126781889Y-72228261D03*
X126781889Y-71728259D03*
D29*
X125935688Y-71382060D03*
X125435689Y-71382060D03*
X124935690Y-71382060D03*
D18*
X80298846Y-111230001D03*
X78498846Y-111230001D03*
D19*
X80123846Y-109430002D03*
X78673846Y-109430002D03*
X78673846Y-113030000D03*
X80123846Y-113030000D03*
D25*
X125599878Y-82695018D03*
X126559878Y-82695018D03*
D21*
X98241478Y-115486518D03*
X98241478Y-113911518D03*
D30*
X93702000Y-71997500D03*
X93052000Y-71997500D03*
X92402000Y-71997500D03*
X91752000Y-71997500D03*
X91102000Y-71997500D03*
D31*
X88502000Y-69122500D03*
D32*
X88502000Y-71672500D03*
D31*
X96302000Y-69122500D03*
D32*
X96302000Y-71672500D03*
D33*
X91202000Y-69122500D03*
X93602000Y-69122500D03*
D15*
X89846278Y-82288618D03*
X88196278Y-82288618D03*
D34*
X115691278Y-102710118D03*
X115691278Y-104285118D03*
D35*
X127260041Y-113581926D03*
D36*
X127260041Y-116121926D03*
X127260041Y-118661926D03*
D11*
X85402278Y-91686618D03*
X87052278Y-91686618D03*
D23*
X130296278Y-67302618D03*
D22*
X94482278Y-112321618D03*
X94482278Y-110421618D03*
D37*
X88555278Y-84066618D03*
X88555278Y-85336618D03*
X88555278Y-86606618D03*
X88555278Y-87876618D03*
X93805278Y-87876618D03*
X93805278Y-86606618D03*
X93805278Y-85336618D03*
X93805278Y-84066618D03*
D38*
X118231278Y-112410170D03*
X118231278Y-113960170D03*
D11*
X85021278Y-110482618D03*
X86671278Y-110482618D03*
D39*
X120491878Y-73576418D03*
D40*
X120491878Y-74323940D03*
X120491878Y-74817462D03*
X120491878Y-75310984D03*
X120491878Y-75804506D03*
X120491878Y-76298028D03*
X120491878Y-76791550D03*
D39*
X120491878Y-77538818D03*
X122320678Y-77538818D03*
D40*
X122320678Y-76791550D03*
X122320678Y-76298028D03*
X122320678Y-75804506D03*
X122320678Y-75310984D03*
X122320678Y-74817462D03*
X122320678Y-74323940D03*
D39*
X122320678Y-73576418D03*
D15*
X122612278Y-70477618D03*
X120962278Y-70477618D03*
D41*
X88915000Y-125095000D03*
D42*
X91455000Y-125095000D03*
X93995000Y-125095000D03*
X96535000Y-125095000D03*
X99075000Y-125095000D03*
X101615000Y-125095000D03*
X104155000Y-125095000D03*
X106695000Y-125095000D03*
X109235000Y-125095000D03*
X111775000Y-125095000D03*
X114315000Y-125095000D03*
X116855000Y-125095000D03*
X119395000Y-125095000D03*
D15*
X121136340Y-96512618D03*
X119486340Y-96512618D03*
D43*
X119181278Y-88257618D03*
X117281278Y-88257618D03*
D11*
X80723886Y-98691085D03*
X82373886Y-98691085D03*
D44*
X109892646Y-120294400D03*
D45*
X110640168Y-120294400D03*
X111133690Y-120294400D03*
X111627212Y-120294400D03*
X112120734Y-120294400D03*
X112614256Y-120294400D03*
X113107778Y-120294400D03*
D44*
X113855046Y-120294400D03*
X113855046Y-118465600D03*
D45*
X113107778Y-118465600D03*
X112614256Y-118465600D03*
X112120734Y-118465600D03*
X111627212Y-118465600D03*
X111133690Y-118465600D03*
X110640168Y-118465600D03*
D44*
X109892646Y-118465600D03*
D11*
X80617284Y-96869083D03*
X82267284Y-96869083D03*
D46*
X116326278Y-115717618D03*
X116326278Y-116677618D03*
D23*
X78226278Y-125722618D03*
D47*
X124859663Y-122289511D03*
X124859663Y-125239511D03*
D48*
X114674278Y-90416618D03*
X111374278Y-90416618D03*
D11*
X85021278Y-73652618D03*
X86671278Y-73652618D03*
D46*
X127375278Y-77109618D03*
X127375278Y-78069618D03*
D49*
X119896346Y-100322618D03*
X124171346Y-100322618D03*
D15*
X113976278Y-93337618D03*
X112326278Y-93337618D03*
D11*
X80584300Y-91013860D03*
X82234300Y-91013860D03*
X117406278Y-90543618D03*
X119056278Y-90543618D03*
D50*
X96387278Y-117152618D03*
X96387278Y-119052618D03*
D16*
X91881278Y-118102618D03*
X93781278Y-118102618D03*
D51*
X92693686Y-96796019D03*
X93593686Y-96796019D03*
X94493686Y-96796019D03*
X95393686Y-96796019D03*
X95393686Y-95596019D03*
X94493686Y-95596019D03*
X93593686Y-95596019D03*
X92693686Y-95596019D03*
D24*
X119193878Y-86657418D03*
X118233878Y-86657418D03*
D15*
X90100278Y-117594618D03*
X88450278Y-117594618D03*
D50*
X113786278Y-102547618D03*
X113786278Y-104447618D03*
D52*
X93527278Y-77350618D03*
X93527278Y-76700618D03*
X93527278Y-76050618D03*
X91627278Y-76050618D03*
X91627278Y-76700618D03*
X91627278Y-77350618D03*
D53*
X114623846Y-107597500D03*
X114123846Y-107597500D03*
X113623846Y-107597500D03*
X113123846Y-107597500D03*
X112623846Y-107597500D03*
X112123846Y-107597500D03*
X111623846Y-107597500D03*
X111123846Y-107597500D03*
X110623846Y-107597500D03*
X110123846Y-107597500D03*
X109623846Y-107597500D03*
X109123846Y-107597500D03*
D54*
X107711346Y-109010000D03*
X107711346Y-109510000D03*
X107711346Y-110010000D03*
X107711346Y-110510000D03*
X107711346Y-111010000D03*
X107711346Y-111510000D03*
X107711346Y-112010000D03*
X107711346Y-112510000D03*
X107711346Y-113010000D03*
X107711346Y-113510000D03*
X107711346Y-114010000D03*
X107711346Y-114510000D03*
D53*
X109123846Y-115922500D03*
X109623846Y-115922500D03*
X110123846Y-115922500D03*
X110623846Y-115922500D03*
X111123846Y-115922500D03*
X111623846Y-115922500D03*
X112123846Y-115922500D03*
X112623846Y-115922500D03*
X113123846Y-115922500D03*
X113623846Y-115922500D03*
X114123846Y-115922500D03*
X114623846Y-115922500D03*
D54*
X116036346Y-114510000D03*
X116036346Y-114010000D03*
X116036346Y-113510000D03*
X116036346Y-113010000D03*
X116036346Y-112510000D03*
X116036346Y-112010000D03*
X116036346Y-111510000D03*
X116036346Y-111010000D03*
X116036346Y-110510000D03*
X116036346Y-110010000D03*
X116036346Y-109510000D03*
X116036346Y-109010000D03*
D11*
X128328278Y-75938618D03*
X129978278Y-75938618D03*
D39*
X103339446Y-112318800D03*
D40*
X103339446Y-113066322D03*
X103339446Y-113559844D03*
X103339446Y-114053366D03*
X103339446Y-114546888D03*
X103339446Y-115040410D03*
X103339446Y-115533932D03*
D39*
X103339446Y-116281200D03*
X105168246Y-116281200D03*
D40*
X105168246Y-115533932D03*
X105168246Y-115040410D03*
X105168246Y-114546888D03*
X105168246Y-114053366D03*
X105168246Y-113559844D03*
X105168246Y-113066322D03*
D39*
X105168246Y-112318800D03*
D24*
X86453278Y-68699618D03*
X85493278Y-68699618D03*
D55*
X103145000Y-70480000D03*
X104245000Y-70480000D03*
X105345000Y-70480000D03*
X106445000Y-70480000D03*
X107545000Y-70480000D03*
X108645000Y-70480000D03*
X109745000Y-70480000D03*
X110845000Y-70480000D03*
D56*
X112785000Y-82110000D03*
D57*
X98800000Y-71110000D03*
D58*
X113190000Y-70960000D03*
X98900000Y-82440000D03*
D59*
X103205000Y-83235000D03*
X110985000Y-83235000D03*
D60*
X112785000Y-73110000D03*
D61*
X78226278Y-91100118D03*
X78226278Y-89225118D03*
D62*
X127183846Y-97822618D03*
X127183846Y-100322618D03*
X127183846Y-102822618D03*
X129583846Y-97822618D03*
X129583846Y-100322618D03*
X129583846Y-102822618D03*
D11*
X96578278Y-85844618D03*
X98228278Y-85844618D03*
X88450278Y-115816618D03*
X90100278Y-115816618D03*
D16*
X90865278Y-120261618D03*
X92765278Y-120261618D03*
D15*
X87052278Y-93464618D03*
X85402278Y-93464618D03*
D11*
X92133278Y-100830618D03*
X93783278Y-100830618D03*
D24*
X112996278Y-106037618D03*
X112036278Y-106037618D03*
D25*
X115363778Y-69842618D03*
X116323778Y-69842618D03*
D14*
X98546278Y-97337618D03*
X98546278Y-95687618D03*
D11*
X121190878Y-87724218D03*
X122840878Y-87724218D03*
D48*
X124326278Y-104767618D03*
X121026278Y-104767618D03*
D25*
X80205968Y-67810618D03*
X81165968Y-67810618D03*
D15*
X122866278Y-89527618D03*
X121216278Y-89527618D03*
D50*
X120771278Y-110802618D03*
X120771278Y-112702618D03*
D20*
X109143216Y-100631561D03*
X110718216Y-100631561D03*
D61*
X78226278Y-98720118D03*
X78226278Y-96845118D03*
D52*
X116011278Y-92687618D03*
X116011278Y-93337618D03*
X116011278Y-93987618D03*
X117911278Y-93987618D03*
X117911278Y-93337618D03*
X117911278Y-92687618D03*
D15*
X96424465Y-92852365D03*
X94774465Y-92852365D03*
D61*
X78226278Y-94910118D03*
X78226278Y-93035118D03*
D14*
X86100278Y-71810618D03*
X86100278Y-70160618D03*
D63*
X126916278Y-109027321D03*
X129866278Y-109027321D03*
D47*
X128391278Y-122342618D03*
X128391278Y-125292618D03*
D14*
X94482278Y-122610618D03*
X94482278Y-120960618D03*
D11*
X128328278Y-71493618D03*
X129978278Y-71493618D03*
X116009278Y-75049618D03*
X117659278Y-75049618D03*
X88450278Y-113784618D03*
X90100278Y-113784618D03*
D25*
X90700278Y-122166618D03*
X91660278Y-122166618D03*
D64*
X116821278Y-106037618D03*
X118371278Y-106037618D03*
D15*
X117786278Y-96512618D03*
X116136278Y-96512618D03*
D11*
X80584300Y-94992058D03*
X82234300Y-94992058D03*
D65*
X125710689Y-76715160D03*
X125210689Y-76715160D03*
X124695689Y-76980160D03*
X124695689Y-77480160D03*
X124695689Y-77980160D03*
X125210689Y-78245160D03*
X125710689Y-78245160D03*
X126225689Y-77980160D03*
X126225689Y-77480160D03*
X126225689Y-76980160D03*
D66*
X122991278Y-92287618D03*
X121091278Y-92287618D03*
X122041278Y-94387618D03*
D67*
X92585278Y-114581618D03*
X92585278Y-114981618D03*
X92585278Y-115381618D03*
X92585278Y-115781618D03*
X93585278Y-115781618D03*
X93585278Y-115381618D03*
X93585278Y-114981618D03*
X93585278Y-114581618D03*
D46*
X118002678Y-109951818D03*
X118002678Y-110911818D03*
D11*
X84994834Y-108653168D03*
X86644834Y-108653168D03*
D16*
X115843778Y-68204584D03*
X117743778Y-68204584D03*
D68*
X86611797Y-112417569D03*
X85061797Y-112417569D03*
D15*
X90100278Y-111879618D03*
X88450278Y-111879618D03*
D44*
X111957478Y-102583218D03*
D45*
X111209956Y-102583218D03*
X110716434Y-102583218D03*
X110222912Y-102583218D03*
X109729390Y-102583218D03*
X109235868Y-102583218D03*
X108742346Y-102583218D03*
D44*
X107995078Y-102583218D03*
X107995078Y-104412018D03*
D45*
X108742346Y-104412018D03*
X109235868Y-104412018D03*
X109729390Y-104412018D03*
X110222912Y-104412018D03*
X110716434Y-104412018D03*
X111209956Y-104412018D03*
D44*
X111957478Y-104412018D03*
D69*
X127420000Y-84200000D03*
D70*
X124880000Y-84200000D03*
X122340000Y-84200000D03*
X119800000Y-84200000D03*
X119800000Y-68200000D03*
X122340000Y-68200000D03*
X124880000Y-68200000D03*
X127420000Y-68200000D03*
M02*
