%TF.GenerationSoftware,KiCad,Pcbnew,(5.1.6)-1*%
%TF.CreationDate,2021-06-11T10:25:49-05:00*%
%TF.ProjectId,Sapphire_AnalogMic,53617070-6869-4726-955f-416e616c6f67,rev?*%
%TF.SameCoordinates,Original*%
%TF.FileFunction,Copper,L1,Top*%
%TF.FilePolarity,Positive*%
%FSLAX46Y46*%
G04 Gerber Fmt 4.6, Leading zero omitted, Abs format (unit mm)*
G04 Created by KiCad (PCBNEW (5.1.6)-1) date 2021-06-11 10:25:49*
%MOMM*%
%LPD*%
G01*
G04 APERTURE LIST*
%TA.AperFunction,ComponentPad*%
%ADD10O,1.000000X1.000000*%
%TD*%
%TA.AperFunction,ComponentPad*%
%ADD11R,1.000000X1.000000*%
%TD*%
%TA.AperFunction,SMDPad,CuDef*%
%ADD12R,1.320800X0.406400*%
%TD*%
%TA.AperFunction,SMDPad,CuDef*%
%ADD13R,1.460500X0.533400*%
%TD*%
%TA.AperFunction,SMDPad,CuDef*%
%ADD14R,1.473200X0.558800*%
%TD*%
%TA.AperFunction,SMDPad,CuDef*%
%ADD15R,1.100000X0.250000*%
%TD*%
%TA.AperFunction,ComponentPad*%
%ADD16O,1.700000X1.700000*%
%TD*%
%TA.AperFunction,ComponentPad*%
%ADD17R,1.700000X1.700000*%
%TD*%
%TA.AperFunction,SMDPad,CuDef*%
%ADD18R,1.574800X0.558800*%
%TD*%
%TA.AperFunction,SMDPad,CuDef*%
%ADD19O,0.449999X1.350000*%
%TD*%
%TA.AperFunction,ViaPad*%
%ADD20C,0.800000*%
%TD*%
%TA.AperFunction,Conductor*%
%ADD21C,0.250000*%
%TD*%
%TA.AperFunction,Conductor*%
%ADD22C,0.254000*%
%TD*%
G04 APERTURE END LIST*
D10*
%TO.P,J102,4*%
%TO.N,/MIC_OUT*%
X114427000Y-101600000D03*
%TO.P,J102,3*%
%TO.N,GNDA*%
X113157000Y-101600000D03*
%TO.P,J102,2*%
%TO.N,Net-(J102-Pad2)*%
X111887000Y-101600000D03*
D11*
%TO.P,J102,1*%
%TO.N,+3V0*%
X110617000Y-101600000D03*
%TD*%
D12*
%TO.P,U101,8*%
%TO.N,+3.3VADC*%
X123774200Y-125308360D03*
%TO.P,U101,7*%
%TO.N,N/C*%
X123774200Y-124658120D03*
%TO.P,U101,6*%
%TO.N,/RgA*%
X123774200Y-124007880D03*
%TO.P,U101,5*%
%TO.N,/RgB*%
X123774200Y-123357640D03*
%TO.P,U101,4*%
%TO.N,GNDA*%
X128193800Y-123357640D03*
%TO.P,U101,3*%
%TO.N,/I2C_SDA*%
X128193800Y-124007880D03*
%TO.P,U101,2*%
%TO.N,/I2C_SCL*%
X128193800Y-124658120D03*
%TO.P,U101,1*%
%TO.N,GNDA*%
X128193800Y-125308360D03*
%TD*%
%TO.P,C105,2*%
%TO.N,GNDA*%
%TA.AperFunction,SMDPad,CuDef*%
G36*
G01*
X122049250Y-111918000D02*
X121536750Y-111918000D01*
G75*
G02*
X121318000Y-111699250I0J218750D01*
G01*
X121318000Y-111261750D01*
G75*
G02*
X121536750Y-111043000I218750J0D01*
G01*
X122049250Y-111043000D01*
G75*
G02*
X122268000Y-111261750I0J-218750D01*
G01*
X122268000Y-111699250D01*
G75*
G02*
X122049250Y-111918000I-218750J0D01*
G01*
G37*
%TD.AperFunction*%
%TO.P,C105,1*%
%TO.N,+3.3VADC*%
%TA.AperFunction,SMDPad,CuDef*%
G36*
G01*
X122049250Y-113493000D02*
X121536750Y-113493000D01*
G75*
G02*
X121318000Y-113274250I0J218750D01*
G01*
X121318000Y-112836750D01*
G75*
G02*
X121536750Y-112618000I218750J0D01*
G01*
X122049250Y-112618000D01*
G75*
G02*
X122268000Y-112836750I0J-218750D01*
G01*
X122268000Y-113274250D01*
G75*
G02*
X122049250Y-113493000I-218750J0D01*
G01*
G37*
%TD.AperFunction*%
%TD*%
D13*
%TO.P,U107,8*%
%TO.N,/FILTER_CLOCK*%
X128835150Y-117094000D03*
%TO.P,U107,7*%
%TO.N,+3.3VADC*%
X128835150Y-118364000D03*
%TO.P,U107,6*%
%TO.N,+1V5*%
X128835150Y-119634000D03*
%TO.P,U107,5*%
%TO.N,/FILTER_OUT*%
X128835150Y-120904000D03*
%TO.P,U107,4*%
%TO.N,+3.3VADC*%
X123386850Y-120904000D03*
%TO.P,U107,3*%
%TO.N,GNDA*%
X123386850Y-119634000D03*
%TO.P,U107,2*%
%TO.N,/FILTER_IN*%
X123386850Y-118364000D03*
%TO.P,U107,1*%
%TO.N,+1V5*%
X123386850Y-117094000D03*
%TD*%
%TO.P,C112,2*%
%TO.N,GNDA*%
%TA.AperFunction,SMDPad,CuDef*%
G36*
G01*
X121668250Y-119792000D02*
X121155750Y-119792000D01*
G75*
G02*
X120937000Y-119573250I0J218750D01*
G01*
X120937000Y-119135750D01*
G75*
G02*
X121155750Y-118917000I218750J0D01*
G01*
X121668250Y-118917000D01*
G75*
G02*
X121887000Y-119135750I0J-218750D01*
G01*
X121887000Y-119573250D01*
G75*
G02*
X121668250Y-119792000I-218750J0D01*
G01*
G37*
%TD.AperFunction*%
%TO.P,C112,1*%
%TO.N,+3.3VADC*%
%TA.AperFunction,SMDPad,CuDef*%
G36*
G01*
X121668250Y-121367000D02*
X121155750Y-121367000D01*
G75*
G02*
X120937000Y-121148250I0J218750D01*
G01*
X120937000Y-120710750D01*
G75*
G02*
X121155750Y-120492000I218750J0D01*
G01*
X121668250Y-120492000D01*
G75*
G02*
X121887000Y-120710750I0J-218750D01*
G01*
X121887000Y-121148250D01*
G75*
G02*
X121668250Y-121367000I-218750J0D01*
G01*
G37*
%TD.AperFunction*%
%TD*%
%TO.P,C110,2*%
%TO.N,GNDA*%
%TA.AperFunction,SMDPad,CuDef*%
G36*
G01*
X125826000Y-115445250D02*
X125826000Y-114932750D01*
G75*
G02*
X126044750Y-114714000I218750J0D01*
G01*
X126482250Y-114714000D01*
G75*
G02*
X126701000Y-114932750I0J-218750D01*
G01*
X126701000Y-115445250D01*
G75*
G02*
X126482250Y-115664000I-218750J0D01*
G01*
X126044750Y-115664000D01*
G75*
G02*
X125826000Y-115445250I0J218750D01*
G01*
G37*
%TD.AperFunction*%
%TO.P,C110,1*%
%TO.N,+1V5*%
%TA.AperFunction,SMDPad,CuDef*%
G36*
G01*
X124251000Y-115445250D02*
X124251000Y-114932750D01*
G75*
G02*
X124469750Y-114714000I218750J0D01*
G01*
X124907250Y-114714000D01*
G75*
G02*
X125126000Y-114932750I0J-218750D01*
G01*
X125126000Y-115445250D01*
G75*
G02*
X124907250Y-115664000I-218750J0D01*
G01*
X124469750Y-115664000D01*
G75*
G02*
X124251000Y-115445250I0J218750D01*
G01*
G37*
%TD.AperFunction*%
%TD*%
D14*
%TO.P,U106,6*%
%TO.N,GNDA*%
X113690400Y-110932001D03*
%TO.P,U106,5*%
%TO.N,/I2C_SCL*%
X113690400Y-109982000D03*
%TO.P,U106,4*%
%TO.N,/I2C_SDA*%
X113690400Y-109031999D03*
%TO.P,U106,3*%
%TO.N,+3V0*%
X115925600Y-109031999D03*
%TO.P,U106,2*%
%TO.N,GNDA*%
X115925600Y-109982000D03*
%TO.P,U106,1*%
%TO.N,/MIC_REF*%
X115925600Y-110932001D03*
%TD*%
%TO.P,R106,2*%
%TO.N,/I2C_SDA*%
%TA.AperFunction,SMDPad,CuDef*%
G36*
G01*
X126489750Y-101950000D02*
X127002250Y-101950000D01*
G75*
G02*
X127221000Y-102168750I0J-218750D01*
G01*
X127221000Y-102606250D01*
G75*
G02*
X127002250Y-102825000I-218750J0D01*
G01*
X126489750Y-102825000D01*
G75*
G02*
X126271000Y-102606250I0J218750D01*
G01*
X126271000Y-102168750D01*
G75*
G02*
X126489750Y-101950000I218750J0D01*
G01*
G37*
%TD.AperFunction*%
%TO.P,R106,1*%
%TO.N,+3.3VADC*%
%TA.AperFunction,SMDPad,CuDef*%
G36*
G01*
X126489750Y-100375000D02*
X127002250Y-100375000D01*
G75*
G02*
X127221000Y-100593750I0J-218750D01*
G01*
X127221000Y-101031250D01*
G75*
G02*
X127002250Y-101250000I-218750J0D01*
G01*
X126489750Y-101250000D01*
G75*
G02*
X126271000Y-101031250I0J218750D01*
G01*
X126271000Y-100593750D01*
G75*
G02*
X126489750Y-100375000I218750J0D01*
G01*
G37*
%TD.AperFunction*%
%TD*%
%TO.P,R104,2*%
%TO.N,/I2C_SCL*%
%TA.AperFunction,SMDPad,CuDef*%
G36*
G01*
X122552750Y-101950000D02*
X123065250Y-101950000D01*
G75*
G02*
X123284000Y-102168750I0J-218750D01*
G01*
X123284000Y-102606250D01*
G75*
G02*
X123065250Y-102825000I-218750J0D01*
G01*
X122552750Y-102825000D01*
G75*
G02*
X122334000Y-102606250I0J218750D01*
G01*
X122334000Y-102168750D01*
G75*
G02*
X122552750Y-101950000I218750J0D01*
G01*
G37*
%TD.AperFunction*%
%TO.P,R104,1*%
%TO.N,+3.3VADC*%
%TA.AperFunction,SMDPad,CuDef*%
G36*
G01*
X122552750Y-100375000D02*
X123065250Y-100375000D01*
G75*
G02*
X123284000Y-100593750I0J-218750D01*
G01*
X123284000Y-101031250D01*
G75*
G02*
X123065250Y-101250000I-218750J0D01*
G01*
X122552750Y-101250000D01*
G75*
G02*
X122334000Y-101031250I0J218750D01*
G01*
X122334000Y-100593750D01*
G75*
G02*
X122552750Y-100375000I218750J0D01*
G01*
G37*
%TD.AperFunction*%
%TD*%
D15*
%TO.P,U105,10*%
%TO.N,Net-(R114-Pad2)*%
X128642000Y-104283000D03*
%TO.P,U105,9*%
%TO.N,Net-(R115-Pad2)*%
X128642000Y-104783000D03*
%TO.P,U105,8*%
%TO.N,+3.3VADC*%
X128642000Y-105283000D03*
%TO.P,U105,7*%
%TO.N,/MIC_REF*%
X128642000Y-105783000D03*
%TO.P,U105,6*%
%TO.N,/MIC_OUT*%
X128642000Y-106283000D03*
%TO.P,U105,5*%
%TO.N,Net-(C107-Pad2)*%
X124342000Y-106283000D03*
%TO.P,U105,4*%
%TO.N,Net-(C107-Pad1)*%
X124342000Y-105783000D03*
%TO.P,U105,3*%
%TO.N,GNDA*%
X124342000Y-105283000D03*
%TO.P,U105,2*%
%TO.N,Net-(R112-Pad1)*%
X124342000Y-104783000D03*
%TO.P,U105,1*%
%TO.N,Net-(R113-Pad2)*%
X124342000Y-104283000D03*
%TD*%
%TO.P,C106,2*%
%TO.N,+3V0*%
%TA.AperFunction,SMDPad,CuDef*%
G36*
G01*
X115059750Y-105887000D02*
X115572250Y-105887000D01*
G75*
G02*
X115791000Y-106105750I0J-218750D01*
G01*
X115791000Y-106543250D01*
G75*
G02*
X115572250Y-106762000I-218750J0D01*
G01*
X115059750Y-106762000D01*
G75*
G02*
X114841000Y-106543250I0J218750D01*
G01*
X114841000Y-106105750D01*
G75*
G02*
X115059750Y-105887000I218750J0D01*
G01*
G37*
%TD.AperFunction*%
%TO.P,C106,1*%
%TO.N,GNDA*%
%TA.AperFunction,SMDPad,CuDef*%
G36*
G01*
X115059750Y-104312000D02*
X115572250Y-104312000D01*
G75*
G02*
X115791000Y-104530750I0J-218750D01*
G01*
X115791000Y-104968250D01*
G75*
G02*
X115572250Y-105187000I-218750J0D01*
G01*
X115059750Y-105187000D01*
G75*
G02*
X114841000Y-104968250I0J218750D01*
G01*
X114841000Y-104530750D01*
G75*
G02*
X115059750Y-104312000I218750J0D01*
G01*
G37*
%TD.AperFunction*%
%TD*%
%TO.P,R115,2*%
%TO.N,Net-(R115-Pad2)*%
%TA.AperFunction,SMDPad,CuDef*%
G36*
G01*
X128394750Y-101950000D02*
X128907250Y-101950000D01*
G75*
G02*
X129126000Y-102168750I0J-218750D01*
G01*
X129126000Y-102606250D01*
G75*
G02*
X128907250Y-102825000I-218750J0D01*
G01*
X128394750Y-102825000D01*
G75*
G02*
X128176000Y-102606250I0J218750D01*
G01*
X128176000Y-102168750D01*
G75*
G02*
X128394750Y-101950000I218750J0D01*
G01*
G37*
%TD.AperFunction*%
%TO.P,R115,1*%
%TO.N,/I2C_SDA*%
%TA.AperFunction,SMDPad,CuDef*%
G36*
G01*
X128394750Y-100375000D02*
X128907250Y-100375000D01*
G75*
G02*
X129126000Y-100593750I0J-218750D01*
G01*
X129126000Y-101031250D01*
G75*
G02*
X128907250Y-101250000I-218750J0D01*
G01*
X128394750Y-101250000D01*
G75*
G02*
X128176000Y-101031250I0J218750D01*
G01*
X128176000Y-100593750D01*
G75*
G02*
X128394750Y-100375000I218750J0D01*
G01*
G37*
%TD.AperFunction*%
%TD*%
%TO.P,R114,2*%
%TO.N,Net-(R114-Pad2)*%
%TA.AperFunction,SMDPad,CuDef*%
G36*
G01*
X124584750Y-101950000D02*
X125097250Y-101950000D01*
G75*
G02*
X125316000Y-102168750I0J-218750D01*
G01*
X125316000Y-102606250D01*
G75*
G02*
X125097250Y-102825000I-218750J0D01*
G01*
X124584750Y-102825000D01*
G75*
G02*
X124366000Y-102606250I0J218750D01*
G01*
X124366000Y-102168750D01*
G75*
G02*
X124584750Y-101950000I218750J0D01*
G01*
G37*
%TD.AperFunction*%
%TO.P,R114,1*%
%TO.N,/I2C_SCL*%
%TA.AperFunction,SMDPad,CuDef*%
G36*
G01*
X124584750Y-100375000D02*
X125097250Y-100375000D01*
G75*
G02*
X125316000Y-100593750I0J-218750D01*
G01*
X125316000Y-101031250D01*
G75*
G02*
X125097250Y-101250000I-218750J0D01*
G01*
X124584750Y-101250000D01*
G75*
G02*
X124366000Y-101031250I0J218750D01*
G01*
X124366000Y-100593750D01*
G75*
G02*
X124584750Y-100375000I218750J0D01*
G01*
G37*
%TD.AperFunction*%
%TD*%
%TO.P,R113,2*%
%TO.N,Net-(R113-Pad2)*%
%TA.AperFunction,SMDPad,CuDef*%
G36*
G01*
X119631750Y-101950000D02*
X120144250Y-101950000D01*
G75*
G02*
X120363000Y-102168750I0J-218750D01*
G01*
X120363000Y-102606250D01*
G75*
G02*
X120144250Y-102825000I-218750J0D01*
G01*
X119631750Y-102825000D01*
G75*
G02*
X119413000Y-102606250I0J218750D01*
G01*
X119413000Y-102168750D01*
G75*
G02*
X119631750Y-101950000I218750J0D01*
G01*
G37*
%TD.AperFunction*%
%TO.P,R113,1*%
%TO.N,GNDA*%
%TA.AperFunction,SMDPad,CuDef*%
G36*
G01*
X119631750Y-100375000D02*
X120144250Y-100375000D01*
G75*
G02*
X120363000Y-100593750I0J-218750D01*
G01*
X120363000Y-101031250D01*
G75*
G02*
X120144250Y-101250000I-218750J0D01*
G01*
X119631750Y-101250000D01*
G75*
G02*
X119413000Y-101031250I0J218750D01*
G01*
X119413000Y-100593750D01*
G75*
G02*
X119631750Y-100375000I218750J0D01*
G01*
G37*
%TD.AperFunction*%
%TD*%
%TO.P,R112,2*%
%TO.N,+3.3VADC*%
%TA.AperFunction,SMDPad,CuDef*%
G36*
G01*
X118112250Y-101250000D02*
X117599750Y-101250000D01*
G75*
G02*
X117381000Y-101031250I0J218750D01*
G01*
X117381000Y-100593750D01*
G75*
G02*
X117599750Y-100375000I218750J0D01*
G01*
X118112250Y-100375000D01*
G75*
G02*
X118331000Y-100593750I0J-218750D01*
G01*
X118331000Y-101031250D01*
G75*
G02*
X118112250Y-101250000I-218750J0D01*
G01*
G37*
%TD.AperFunction*%
%TO.P,R112,1*%
%TO.N,Net-(R112-Pad1)*%
%TA.AperFunction,SMDPad,CuDef*%
G36*
G01*
X118112250Y-102825000D02*
X117599750Y-102825000D01*
G75*
G02*
X117381000Y-102606250I0J218750D01*
G01*
X117381000Y-102168750D01*
G75*
G02*
X117599750Y-101950000I218750J0D01*
G01*
X118112250Y-101950000D01*
G75*
G02*
X118331000Y-102168750I0J-218750D01*
G01*
X118331000Y-102606250D01*
G75*
G02*
X118112250Y-102825000I-218750J0D01*
G01*
G37*
%TD.AperFunction*%
%TD*%
%TO.P,R110,2*%
%TO.N,+1V5*%
%TA.AperFunction,SMDPad,CuDef*%
G36*
G01*
X118776000Y-106423750D02*
X118776000Y-106936250D01*
G75*
G02*
X118557250Y-107155000I-218750J0D01*
G01*
X118119750Y-107155000D01*
G75*
G02*
X117901000Y-106936250I0J218750D01*
G01*
X117901000Y-106423750D01*
G75*
G02*
X118119750Y-106205000I218750J0D01*
G01*
X118557250Y-106205000D01*
G75*
G02*
X118776000Y-106423750I0J-218750D01*
G01*
G37*
%TD.AperFunction*%
%TO.P,R110,1*%
%TO.N,Net-(C107-Pad2)*%
%TA.AperFunction,SMDPad,CuDef*%
G36*
G01*
X120351000Y-106423750D02*
X120351000Y-106936250D01*
G75*
G02*
X120132250Y-107155000I-218750J0D01*
G01*
X119694750Y-107155000D01*
G75*
G02*
X119476000Y-106936250I0J218750D01*
G01*
X119476000Y-106423750D01*
G75*
G02*
X119694750Y-106205000I218750J0D01*
G01*
X120132250Y-106205000D01*
G75*
G02*
X120351000Y-106423750I0J-218750D01*
G01*
G37*
%TD.AperFunction*%
%TD*%
%TO.P,R109,2*%
%TO.N,/FILTER_OUT*%
%TA.AperFunction,SMDPad,CuDef*%
G36*
G01*
X118776000Y-104518750D02*
X118776000Y-105031250D01*
G75*
G02*
X118557250Y-105250000I-218750J0D01*
G01*
X118119750Y-105250000D01*
G75*
G02*
X117901000Y-105031250I0J218750D01*
G01*
X117901000Y-104518750D01*
G75*
G02*
X118119750Y-104300000I218750J0D01*
G01*
X118557250Y-104300000D01*
G75*
G02*
X118776000Y-104518750I0J-218750D01*
G01*
G37*
%TD.AperFunction*%
%TO.P,R109,1*%
%TO.N,Net-(C107-Pad1)*%
%TA.AperFunction,SMDPad,CuDef*%
G36*
G01*
X120351000Y-104518750D02*
X120351000Y-105031250D01*
G75*
G02*
X120132250Y-105250000I-218750J0D01*
G01*
X119694750Y-105250000D01*
G75*
G02*
X119476000Y-105031250I0J218750D01*
G01*
X119476000Y-104518750D01*
G75*
G02*
X119694750Y-104300000I218750J0D01*
G01*
X120132250Y-104300000D01*
G75*
G02*
X120351000Y-104518750I0J-218750D01*
G01*
G37*
%TD.AperFunction*%
%TD*%
%TO.P,R105,2*%
%TO.N,/MIC_OUT*%
%TA.AperFunction,SMDPad,CuDef*%
G36*
G01*
X113667250Y-105187000D02*
X113154750Y-105187000D01*
G75*
G02*
X112936000Y-104968250I0J218750D01*
G01*
X112936000Y-104530750D01*
G75*
G02*
X113154750Y-104312000I218750J0D01*
G01*
X113667250Y-104312000D01*
G75*
G02*
X113886000Y-104530750I0J-218750D01*
G01*
X113886000Y-104968250D01*
G75*
G02*
X113667250Y-105187000I-218750J0D01*
G01*
G37*
%TD.AperFunction*%
%TO.P,R105,1*%
%TO.N,Net-(J102-Pad2)*%
%TA.AperFunction,SMDPad,CuDef*%
G36*
G01*
X113667250Y-106762000D02*
X113154750Y-106762000D01*
G75*
G02*
X112936000Y-106543250I0J218750D01*
G01*
X112936000Y-106105750D01*
G75*
G02*
X113154750Y-105887000I218750J0D01*
G01*
X113667250Y-105887000D01*
G75*
G02*
X113886000Y-106105750I0J-218750D01*
G01*
X113886000Y-106543250D01*
G75*
G02*
X113667250Y-106762000I-218750J0D01*
G01*
G37*
%TD.AperFunction*%
%TD*%
%TO.P,R103,2*%
%TO.N,/RgB*%
%TA.AperFunction,SMDPad,CuDef*%
G36*
G01*
X119128250Y-120173000D02*
X118615750Y-120173000D01*
G75*
G02*
X118397000Y-119954250I0J218750D01*
G01*
X118397000Y-119516750D01*
G75*
G02*
X118615750Y-119298000I218750J0D01*
G01*
X119128250Y-119298000D01*
G75*
G02*
X119347000Y-119516750I0J-218750D01*
G01*
X119347000Y-119954250D01*
G75*
G02*
X119128250Y-120173000I-218750J0D01*
G01*
G37*
%TD.AperFunction*%
%TO.P,R103,1*%
%TO.N,/RgA*%
%TA.AperFunction,SMDPad,CuDef*%
G36*
G01*
X119128250Y-121748000D02*
X118615750Y-121748000D01*
G75*
G02*
X118397000Y-121529250I0J218750D01*
G01*
X118397000Y-121091750D01*
G75*
G02*
X118615750Y-120873000I218750J0D01*
G01*
X119128250Y-120873000D01*
G75*
G02*
X119347000Y-121091750I0J-218750D01*
G01*
X119347000Y-121529250D01*
G75*
G02*
X119128250Y-121748000I-218750J0D01*
G01*
G37*
%TD.AperFunction*%
%TD*%
%TO.P,R102,2*%
%TO.N,/MIC_OUT*%
%TA.AperFunction,SMDPad,CuDef*%
G36*
G01*
X117604250Y-113823000D02*
X117091750Y-113823000D01*
G75*
G02*
X116873000Y-113604250I0J218750D01*
G01*
X116873000Y-113166750D01*
G75*
G02*
X117091750Y-112948000I218750J0D01*
G01*
X117604250Y-112948000D01*
G75*
G02*
X117823000Y-113166750I0J-218750D01*
G01*
X117823000Y-113604250D01*
G75*
G02*
X117604250Y-113823000I-218750J0D01*
G01*
G37*
%TD.AperFunction*%
%TO.P,R102,1*%
%TO.N,Net-(C101-Pad2)*%
%TA.AperFunction,SMDPad,CuDef*%
G36*
G01*
X117604250Y-115398000D02*
X117091750Y-115398000D01*
G75*
G02*
X116873000Y-115179250I0J218750D01*
G01*
X116873000Y-114741750D01*
G75*
G02*
X117091750Y-114523000I218750J0D01*
G01*
X117604250Y-114523000D01*
G75*
G02*
X117823000Y-114741750I0J-218750D01*
G01*
X117823000Y-115179250D01*
G75*
G02*
X117604250Y-115398000I-218750J0D01*
G01*
G37*
%TD.AperFunction*%
%TD*%
%TO.P,R101,2*%
%TO.N,/MIC_REF*%
%TA.AperFunction,SMDPad,CuDef*%
G36*
G01*
X115826250Y-113823000D02*
X115313750Y-113823000D01*
G75*
G02*
X115095000Y-113604250I0J218750D01*
G01*
X115095000Y-113166750D01*
G75*
G02*
X115313750Y-112948000I218750J0D01*
G01*
X115826250Y-112948000D01*
G75*
G02*
X116045000Y-113166750I0J-218750D01*
G01*
X116045000Y-113604250D01*
G75*
G02*
X115826250Y-113823000I-218750J0D01*
G01*
G37*
%TD.AperFunction*%
%TO.P,R101,1*%
%TO.N,Net-(C101-Pad1)*%
%TA.AperFunction,SMDPad,CuDef*%
G36*
G01*
X115826250Y-115398000D02*
X115313750Y-115398000D01*
G75*
G02*
X115095000Y-115179250I0J218750D01*
G01*
X115095000Y-114741750D01*
G75*
G02*
X115313750Y-114523000I218750J0D01*
G01*
X115826250Y-114523000D01*
G75*
G02*
X116045000Y-114741750I0J-218750D01*
G01*
X116045000Y-115179250D01*
G75*
G02*
X115826250Y-115398000I-218750J0D01*
G01*
G37*
%TD.AperFunction*%
%TD*%
%TO.P,FB102,2*%
%TO.N,/PGND*%
%TA.AperFunction,SMDPad,CuDef*%
G36*
G01*
X124838750Y-128620000D02*
X125351250Y-128620000D01*
G75*
G02*
X125570000Y-128838750I0J-218750D01*
G01*
X125570000Y-129276250D01*
G75*
G02*
X125351250Y-129495000I-218750J0D01*
G01*
X124838750Y-129495000D01*
G75*
G02*
X124620000Y-129276250I0J218750D01*
G01*
X124620000Y-128838750D01*
G75*
G02*
X124838750Y-128620000I218750J0D01*
G01*
G37*
%TD.AperFunction*%
%TO.P,FB102,1*%
%TO.N,GNDA*%
%TA.AperFunction,SMDPad,CuDef*%
G36*
G01*
X124838750Y-127045000D02*
X125351250Y-127045000D01*
G75*
G02*
X125570000Y-127263750I0J-218750D01*
G01*
X125570000Y-127701250D01*
G75*
G02*
X125351250Y-127920000I-218750J0D01*
G01*
X124838750Y-127920000D01*
G75*
G02*
X124620000Y-127701250I0J218750D01*
G01*
X124620000Y-127263750D01*
G75*
G02*
X124838750Y-127045000I218750J0D01*
G01*
G37*
%TD.AperFunction*%
%TD*%
%TO.P,FB101,2*%
%TO.N,/P3V3*%
%TA.AperFunction,SMDPad,CuDef*%
G36*
G01*
X128013750Y-128620000D02*
X128526250Y-128620000D01*
G75*
G02*
X128745000Y-128838750I0J-218750D01*
G01*
X128745000Y-129276250D01*
G75*
G02*
X128526250Y-129495000I-218750J0D01*
G01*
X128013750Y-129495000D01*
G75*
G02*
X127795000Y-129276250I0J218750D01*
G01*
X127795000Y-128838750D01*
G75*
G02*
X128013750Y-128620000I218750J0D01*
G01*
G37*
%TD.AperFunction*%
%TO.P,FB101,1*%
%TO.N,+3.3VADC*%
%TA.AperFunction,SMDPad,CuDef*%
G36*
G01*
X128013750Y-127045000D02*
X128526250Y-127045000D01*
G75*
G02*
X128745000Y-127263750I0J-218750D01*
G01*
X128745000Y-127701250D01*
G75*
G02*
X128526250Y-127920000I-218750J0D01*
G01*
X128013750Y-127920000D01*
G75*
G02*
X127795000Y-127701250I0J218750D01*
G01*
X127795000Y-127263750D01*
G75*
G02*
X128013750Y-127045000I218750J0D01*
G01*
G37*
%TD.AperFunction*%
%TD*%
%TO.P,C111,2*%
%TO.N,GNDA*%
%TA.AperFunction,SMDPad,CuDef*%
G36*
G01*
X124556000Y-109603250D02*
X124556000Y-109090750D01*
G75*
G02*
X124774750Y-108872000I218750J0D01*
G01*
X125212250Y-108872000D01*
G75*
G02*
X125431000Y-109090750I0J-218750D01*
G01*
X125431000Y-109603250D01*
G75*
G02*
X125212250Y-109822000I-218750J0D01*
G01*
X124774750Y-109822000D01*
G75*
G02*
X124556000Y-109603250I0J218750D01*
G01*
G37*
%TD.AperFunction*%
%TO.P,C111,1*%
%TO.N,+1V5*%
%TA.AperFunction,SMDPad,CuDef*%
G36*
G01*
X122981000Y-109603250D02*
X122981000Y-109090750D01*
G75*
G02*
X123199750Y-108872000I218750J0D01*
G01*
X123637250Y-108872000D01*
G75*
G02*
X123856000Y-109090750I0J-218750D01*
G01*
X123856000Y-109603250D01*
G75*
G02*
X123637250Y-109822000I-218750J0D01*
G01*
X123199750Y-109822000D01*
G75*
G02*
X122981000Y-109603250I0J218750D01*
G01*
G37*
%TD.AperFunction*%
%TD*%
%TO.P,C109,2*%
%TO.N,GNDA*%
%TA.AperFunction,SMDPad,CuDef*%
G36*
G01*
X130812250Y-104679000D02*
X130299750Y-104679000D01*
G75*
G02*
X130081000Y-104460250I0J218750D01*
G01*
X130081000Y-104022750D01*
G75*
G02*
X130299750Y-103804000I218750J0D01*
G01*
X130812250Y-103804000D01*
G75*
G02*
X131031000Y-104022750I0J-218750D01*
G01*
X131031000Y-104460250D01*
G75*
G02*
X130812250Y-104679000I-218750J0D01*
G01*
G37*
%TD.AperFunction*%
%TO.P,C109,1*%
%TO.N,+3.3VADC*%
%TA.AperFunction,SMDPad,CuDef*%
G36*
G01*
X130812250Y-106254000D02*
X130299750Y-106254000D01*
G75*
G02*
X130081000Y-106035250I0J218750D01*
G01*
X130081000Y-105597750D01*
G75*
G02*
X130299750Y-105379000I218750J0D01*
G01*
X130812250Y-105379000D01*
G75*
G02*
X131031000Y-105597750I0J-218750D01*
G01*
X131031000Y-106035250D01*
G75*
G02*
X130812250Y-106254000I-218750J0D01*
G01*
G37*
%TD.AperFunction*%
%TD*%
%TO.P,C108,2*%
%TO.N,GNDA*%
%TA.AperFunction,SMDPad,CuDef*%
G36*
G01*
X128047000Y-108963750D02*
X128047000Y-109476250D01*
G75*
G02*
X127828250Y-109695000I-218750J0D01*
G01*
X127390750Y-109695000D01*
G75*
G02*
X127172000Y-109476250I0J218750D01*
G01*
X127172000Y-108963750D01*
G75*
G02*
X127390750Y-108745000I218750J0D01*
G01*
X127828250Y-108745000D01*
G75*
G02*
X128047000Y-108963750I0J-218750D01*
G01*
G37*
%TD.AperFunction*%
%TO.P,C108,1*%
%TO.N,/FILTER_CLOCK*%
%TA.AperFunction,SMDPad,CuDef*%
G36*
G01*
X129622000Y-108963750D02*
X129622000Y-109476250D01*
G75*
G02*
X129403250Y-109695000I-218750J0D01*
G01*
X128965750Y-109695000D01*
G75*
G02*
X128747000Y-109476250I0J218750D01*
G01*
X128747000Y-108963750D01*
G75*
G02*
X128965750Y-108745000I218750J0D01*
G01*
X129403250Y-108745000D01*
G75*
G02*
X129622000Y-108963750I0J-218750D01*
G01*
G37*
%TD.AperFunction*%
%TD*%
%TO.P,C107,2*%
%TO.N,Net-(C107-Pad2)*%
%TA.AperFunction,SMDPad,CuDef*%
G36*
G01*
X122044750Y-105887000D02*
X122557250Y-105887000D01*
G75*
G02*
X122776000Y-106105750I0J-218750D01*
G01*
X122776000Y-106543250D01*
G75*
G02*
X122557250Y-106762000I-218750J0D01*
G01*
X122044750Y-106762000D01*
G75*
G02*
X121826000Y-106543250I0J218750D01*
G01*
X121826000Y-106105750D01*
G75*
G02*
X122044750Y-105887000I218750J0D01*
G01*
G37*
%TD.AperFunction*%
%TO.P,C107,1*%
%TO.N,Net-(C107-Pad1)*%
%TA.AperFunction,SMDPad,CuDef*%
G36*
G01*
X122044750Y-104312000D02*
X122557250Y-104312000D01*
G75*
G02*
X122776000Y-104530750I0J-218750D01*
G01*
X122776000Y-104968250D01*
G75*
G02*
X122557250Y-105187000I-218750J0D01*
G01*
X122044750Y-105187000D01*
G75*
G02*
X121826000Y-104968250I0J218750D01*
G01*
X121826000Y-104530750D01*
G75*
G02*
X122044750Y-104312000I218750J0D01*
G01*
G37*
%TD.AperFunction*%
%TD*%
%TO.P,C104,2*%
%TO.N,+1V5*%
%TA.AperFunction,SMDPad,CuDef*%
G36*
G01*
X116682000Y-125859250D02*
X116682000Y-125346750D01*
G75*
G02*
X116900750Y-125128000I218750J0D01*
G01*
X117338250Y-125128000D01*
G75*
G02*
X117557000Y-125346750I0J-218750D01*
G01*
X117557000Y-125859250D01*
G75*
G02*
X117338250Y-126078000I-218750J0D01*
G01*
X116900750Y-126078000D01*
G75*
G02*
X116682000Y-125859250I0J218750D01*
G01*
G37*
%TD.AperFunction*%
%TO.P,C104,1*%
%TO.N,GNDA*%
%TA.AperFunction,SMDPad,CuDef*%
G36*
G01*
X115107000Y-125859250D02*
X115107000Y-125346750D01*
G75*
G02*
X115325750Y-125128000I218750J0D01*
G01*
X115763250Y-125128000D01*
G75*
G02*
X115982000Y-125346750I0J-218750D01*
G01*
X115982000Y-125859250D01*
G75*
G02*
X115763250Y-126078000I-218750J0D01*
G01*
X115325750Y-126078000D01*
G75*
G02*
X115107000Y-125859250I0J218750D01*
G01*
G37*
%TD.AperFunction*%
%TD*%
%TO.P,C103,2*%
%TO.N,GNDA*%
%TA.AperFunction,SMDPad,CuDef*%
G36*
G01*
X120238000Y-125859250D02*
X120238000Y-125346750D01*
G75*
G02*
X120456750Y-125128000I218750J0D01*
G01*
X120894250Y-125128000D01*
G75*
G02*
X121113000Y-125346750I0J-218750D01*
G01*
X121113000Y-125859250D01*
G75*
G02*
X120894250Y-126078000I-218750J0D01*
G01*
X120456750Y-126078000D01*
G75*
G02*
X120238000Y-125859250I0J218750D01*
G01*
G37*
%TD.AperFunction*%
%TO.P,C103,1*%
%TO.N,+3V0*%
%TA.AperFunction,SMDPad,CuDef*%
G36*
G01*
X118663000Y-125859250D02*
X118663000Y-125346750D01*
G75*
G02*
X118881750Y-125128000I218750J0D01*
G01*
X119319250Y-125128000D01*
G75*
G02*
X119538000Y-125346750I0J-218750D01*
G01*
X119538000Y-125859250D01*
G75*
G02*
X119319250Y-126078000I-218750J0D01*
G01*
X118881750Y-126078000D01*
G75*
G02*
X118663000Y-125859250I0J218750D01*
G01*
G37*
%TD.AperFunction*%
%TD*%
%TO.P,C102,2*%
%TO.N,GNDA*%
%TA.AperFunction,SMDPad,CuDef*%
G36*
G01*
X122811250Y-127920000D02*
X122298750Y-127920000D01*
G75*
G02*
X122080000Y-127701250I0J218750D01*
G01*
X122080000Y-127263750D01*
G75*
G02*
X122298750Y-127045000I218750J0D01*
G01*
X122811250Y-127045000D01*
G75*
G02*
X123030000Y-127263750I0J-218750D01*
G01*
X123030000Y-127701250D01*
G75*
G02*
X122811250Y-127920000I-218750J0D01*
G01*
G37*
%TD.AperFunction*%
%TO.P,C102,1*%
%TO.N,+3.3VADC*%
%TA.AperFunction,SMDPad,CuDef*%
G36*
G01*
X122811250Y-129495000D02*
X122298750Y-129495000D01*
G75*
G02*
X122080000Y-129276250I0J218750D01*
G01*
X122080000Y-128838750D01*
G75*
G02*
X122298750Y-128620000I218750J0D01*
G01*
X122811250Y-128620000D01*
G75*
G02*
X123030000Y-128838750I0J-218750D01*
G01*
X123030000Y-129276250D01*
G75*
G02*
X122811250Y-129495000I-218750J0D01*
G01*
G37*
%TD.AperFunction*%
%TD*%
%TO.P,C101,2*%
%TO.N,Net-(C101-Pad2)*%
%TA.AperFunction,SMDPad,CuDef*%
G36*
G01*
X116555000Y-116842250D02*
X116555000Y-116329750D01*
G75*
G02*
X116773750Y-116111000I218750J0D01*
G01*
X117211250Y-116111000D01*
G75*
G02*
X117430000Y-116329750I0J-218750D01*
G01*
X117430000Y-116842250D01*
G75*
G02*
X117211250Y-117061000I-218750J0D01*
G01*
X116773750Y-117061000D01*
G75*
G02*
X116555000Y-116842250I0J218750D01*
G01*
G37*
%TD.AperFunction*%
%TO.P,C101,1*%
%TO.N,Net-(C101-Pad1)*%
%TA.AperFunction,SMDPad,CuDef*%
G36*
G01*
X114980000Y-116842250D02*
X114980000Y-116329750D01*
G75*
G02*
X115198750Y-116111000I218750J0D01*
G01*
X115636250Y-116111000D01*
G75*
G02*
X115855000Y-116329750I0J-218750D01*
G01*
X115855000Y-116842250D01*
G75*
G02*
X115636250Y-117061000I-218750J0D01*
G01*
X115198750Y-117061000D01*
G75*
G02*
X114980000Y-116842250I0J218750D01*
G01*
G37*
%TD.AperFunction*%
%TD*%
D16*
%TO.P,J101,5*%
%TO.N,/I2C_SDA*%
X117475000Y-132080000D03*
%TO.P,J101,4*%
%TO.N,/I2C_SCL*%
X120015000Y-132080000D03*
%TO.P,J101,3*%
%TO.N,/PGND*%
X122555000Y-132080000D03*
%TO.P,J101,2*%
%TO.N,/FILTER_CLOCK*%
X125095000Y-132080000D03*
D17*
%TO.P,J101,1*%
%TO.N,/P3V3*%
X127635000Y-132080000D03*
%TD*%
D12*
%TO.P,U104,8*%
%TO.N,/FILTER_CLOCK*%
X128447800Y-111292640D03*
%TO.P,U104,7*%
%TO.N,+3.3VADC*%
X128447800Y-111942880D03*
%TO.P,U104,6*%
%TO.N,+1V5*%
X128447800Y-112593120D03*
%TO.P,U104,5*%
%TO.N,/FILTER_OUT*%
X128447800Y-113243360D03*
%TO.P,U104,4*%
%TO.N,+3.3VADC*%
X124028200Y-113243360D03*
%TO.P,U104,3*%
%TO.N,GNDA*%
X124028200Y-112593120D03*
%TO.P,U104,2*%
%TO.N,/FILTER_IN*%
X124028200Y-111942880D03*
%TO.P,U104,1*%
%TO.N,+1V5*%
X124028200Y-111292640D03*
%TD*%
D18*
%TO.P,U103,5*%
%TO.N,+3V0*%
X120548400Y-127319999D03*
%TO.P,U103,4*%
%TO.N,+3.3VADC*%
X120548400Y-129220001D03*
%TO.P,U103,3*%
X118211600Y-129220001D03*
%TO.P,U103,2*%
%TO.N,GNDA*%
X118211600Y-128270000D03*
%TO.P,U103,1*%
%TO.N,+1V5*%
X118211600Y-127319999D03*
%TD*%
D19*
%TO.P,U102,8*%
%TO.N,/RgA*%
X117179999Y-123129002D03*
%TO.P,U102,7*%
%TO.N,+3V0*%
X116529998Y-123129002D03*
%TO.P,U102,6*%
%TO.N,/FILTER_IN*%
X115879999Y-123129002D03*
%TO.P,U102,5*%
%TO.N,+1V5*%
X115229998Y-123129002D03*
%TO.P,U102,4*%
%TO.N,GNDA*%
X115229998Y-118679001D03*
%TO.P,U102,3*%
%TO.N,Net-(C101-Pad1)*%
X115879999Y-118679001D03*
%TO.P,U102,2*%
%TO.N,Net-(C101-Pad2)*%
X116529998Y-118679001D03*
%TO.P,U102,1*%
%TO.N,/RgB*%
X117179999Y-118679001D03*
%TD*%
D20*
%TO.N,GNDA*%
X126238000Y-127762000D03*
X127508000Y-107950000D03*
X121158000Y-100711000D03*
X116586000Y-104521000D03*
X113353809Y-112268000D03*
X127693840Y-115120840D03*
X125349000Y-112518350D03*
X126619000Y-123317000D03*
X126619000Y-124841000D03*
X123352128Y-126239116D03*
X121183049Y-124333000D03*
X121156554Y-117729000D03*
X114395159Y-125305738D03*
X130175000Y-113411000D03*
X130175000Y-115062000D03*
X125984000Y-108331000D03*
X125730000Y-104892319D03*
X117474996Y-110363000D03*
X120713974Y-111673682D03*
X116586000Y-112013998D03*
X116205000Y-107569000D03*
X118618000Y-123190000D03*
X117221000Y-121666000D03*
X111379000Y-126746000D03*
X116459000Y-101727000D03*
X126238000Y-130302000D03*
X129286000Y-130429000D03*
X126492000Y-121285000D03*
X121285000Y-102362000D03*
X121031000Y-105537000D03*
X125984000Y-118491000D03*
X129623950Y-103128674D03*
X114390010Y-118745000D03*
X110871000Y-107950000D03*
X111252000Y-103632000D03*
X112903000Y-102997000D03*
%TO.N,+3.3VADC*%
X121060557Y-114762152D03*
X119748256Y-116208425D03*
%TO.N,+1V5*%
X121919996Y-115570000D03*
X122329949Y-122516223D03*
X122284905Y-124445433D03*
X119706566Y-117339040D03*
X121355022Y-109983945D03*
X118774671Y-107878151D03*
%TO.N,/FILTER_CLOCK*%
X130739918Y-116205000D03*
X131189969Y-117891367D03*
X130429000Y-109093000D03*
%TO.N,+3V0*%
X114892715Y-124394867D03*
X118110000Y-124333000D03*
%TO.N,/I2C_SDA*%
X132089990Y-127059156D03*
X130289948Y-123974607D03*
X131946418Y-100584000D03*
X130100256Y-100770045D03*
%TO.N,/I2C_SCL*%
X131121474Y-127308144D03*
X130164306Y-125347625D03*
X131605758Y-101648786D03*
X130493560Y-102634910D03*
%TO.N,/FILTER_IN*%
X118508106Y-118469475D03*
X117602000Y-119888000D03*
%TO.N,/FILTER_OUT*%
X119761000Y-112776000D03*
X117602000Y-109220000D03*
%TO.N,/MIC_OUT*%
X119375024Y-110277900D03*
X117834705Y-108219420D03*
%TD*%
D21*
%TO.N,Net-(C101-Pad2)*%
X116529998Y-117048502D02*
X116992500Y-116586000D01*
X116529998Y-118679001D02*
X116529998Y-117048502D01*
X116992500Y-115316000D02*
X117348000Y-114960500D01*
X116992500Y-116586000D02*
X116992500Y-115316000D01*
%TO.N,Net-(C101-Pad1)*%
X115879999Y-117048499D02*
X115417500Y-116586000D01*
X115879999Y-118679001D02*
X115879999Y-117048499D01*
X115417500Y-115062000D02*
X115316000Y-114960500D01*
X115417500Y-116586000D02*
X115417500Y-115062000D01*
%TO.N,GNDA*%
X115544500Y-126304701D02*
X117509799Y-128270000D01*
X117509799Y-128270000D02*
X118211600Y-128270000D01*
X115544500Y-125603000D02*
X115544500Y-126304701D01*
X125095000Y-127482500D02*
X125958500Y-127482500D01*
X125958500Y-127482500D02*
X126238000Y-127762000D01*
X127609500Y-109220000D02*
X127609500Y-108051500D01*
X127609500Y-108051500D02*
X127508000Y-107950000D01*
X119888000Y-100812500D02*
X121056500Y-100812500D01*
X121056500Y-100812500D02*
X121158000Y-100711000D01*
X115316000Y-104749500D02*
X116357500Y-104749500D01*
X116357500Y-104749500D02*
X116586000Y-104521000D01*
X123107350Y-119354500D02*
X123386850Y-119634000D01*
X121412000Y-119354500D02*
X123107350Y-119354500D01*
X113690400Y-111931409D02*
X113353809Y-112268000D01*
X113690400Y-110932001D02*
X113690400Y-111931409D01*
X122905620Y-112593120D02*
X124028200Y-112593120D01*
X121793000Y-111480500D02*
X122905620Y-112593120D01*
X126263500Y-115189000D02*
X127625680Y-115189000D01*
X127625680Y-115189000D02*
X127693840Y-115120840D01*
X125274230Y-112593120D02*
X125349000Y-112518350D01*
X124028200Y-112593120D02*
X125274230Y-112593120D01*
X128193800Y-123357640D02*
X126659640Y-123357640D01*
X126659640Y-123357640D02*
X126619000Y-123317000D01*
X128193800Y-125308360D02*
X127086360Y-125308360D01*
X127086360Y-125308360D02*
X126619000Y-124841000D01*
X122555000Y-127036244D02*
X123352128Y-126239116D01*
X122555000Y-127482500D02*
X122555000Y-127036244D01*
X120675500Y-124840549D02*
X121183049Y-124333000D01*
X120675500Y-125603000D02*
X120675500Y-124840549D01*
X121412000Y-117984446D02*
X121156554Y-117729000D01*
X121412000Y-119354500D02*
X121412000Y-117984446D01*
X114692421Y-125603000D02*
X114395159Y-125305738D01*
X115544500Y-125603000D02*
X114692421Y-125603000D01*
X125882500Y-108331000D02*
X125984000Y-108331000D01*
X124993500Y-109220000D02*
X125882500Y-108331000D01*
X125984000Y-108331000D02*
X125984000Y-107698820D01*
X125984000Y-107698820D02*
X126748820Y-106934000D01*
X126748820Y-106934000D02*
X129286000Y-106934000D01*
X124342000Y-105283000D02*
X125339319Y-105283000D01*
X125339319Y-105283000D02*
X125730000Y-104892319D01*
X120907156Y-111480500D02*
X120713974Y-111673682D01*
X125877957Y-108437043D02*
X121876605Y-108437043D01*
X125984000Y-108331000D02*
X125877957Y-108437043D01*
X120100025Y-110213623D02*
X120100025Y-110625901D01*
X119550035Y-111270202D02*
X118148010Y-112672227D01*
X121793000Y-111480500D02*
X120907156Y-111480500D01*
X117093996Y-109982000D02*
X117474996Y-110363000D01*
X115925600Y-109982000D02*
X117093996Y-109982000D01*
X121876605Y-108437043D02*
X120100025Y-110213623D01*
X119550035Y-111175891D02*
X119550035Y-111270202D01*
X118148010Y-112672227D02*
X118148010Y-116674990D01*
X120100025Y-110625901D02*
X119550035Y-111175891D01*
X118650014Y-109881399D02*
X118650014Y-110897402D01*
X118978523Y-109552890D02*
X118650014Y-109881399D01*
X117533418Y-112013998D02*
X116586000Y-112013998D01*
X121503805Y-107537021D02*
X119487935Y-109552890D01*
X118650014Y-110897402D02*
X117533418Y-112013998D01*
X119487935Y-109552890D02*
X118978523Y-109552890D01*
X124872979Y-107537021D02*
X121503805Y-107537021D01*
X125857000Y-106553000D02*
X124872979Y-107537021D01*
X130683000Y-104241500D02*
X129623950Y-103182450D01*
X129623950Y-103182450D02*
X129623950Y-103128674D01*
X115229998Y-118679001D02*
X114456009Y-118679001D01*
X114456009Y-118679001D02*
X114390010Y-118745000D01*
X114390010Y-113374010D02*
X114390010Y-118179315D01*
X114390010Y-118179315D02*
X114390010Y-118745000D01*
X114173000Y-113157000D02*
X114390010Y-113374010D01*
X116370010Y-112941516D02*
X116205000Y-112776506D01*
X116205000Y-112394998D02*
X116586000Y-112013998D01*
X116370010Y-113829484D02*
X116370010Y-112941516D01*
X116205000Y-113994494D02*
X116370010Y-113829484D01*
X116205000Y-115569494D02*
X116370010Y-115404484D01*
X116205000Y-116459000D02*
X116205000Y-115569494D01*
X116205000Y-114351506D02*
X116205000Y-113994494D01*
X116205000Y-112776506D02*
X116205000Y-112394998D01*
X116370010Y-115404484D02*
X116370010Y-114516516D01*
X116370010Y-114516516D02*
X116205000Y-114351506D01*
%TO.N,+3.3VADC*%
X118211600Y-129220001D02*
X120548400Y-129220001D01*
X122392499Y-129220001D02*
X122555000Y-129057500D01*
X120548400Y-129220001D02*
X122392499Y-129220001D01*
X122046490Y-101575010D02*
X122809000Y-100812500D01*
X118618510Y-101575010D02*
X122046490Y-101575010D01*
X117856000Y-100812500D02*
X118618510Y-101575010D01*
X125983490Y-100049990D02*
X126746000Y-100812500D01*
X123571510Y-100049990D02*
X125983490Y-100049990D01*
X122809000Y-100812500D02*
X123571510Y-100049990D01*
X130149500Y-105283000D02*
X130683000Y-105816500D01*
X128642000Y-105283000D02*
X130149500Y-105283000D01*
X121980860Y-113243360D02*
X124028200Y-113243360D01*
X121793000Y-113055500D02*
X121980860Y-113243360D01*
X123361350Y-120929500D02*
X123386850Y-120904000D01*
X121412000Y-120929500D02*
X123361350Y-120929500D01*
X123302662Y-120929500D02*
X121412000Y-120929500D01*
X129863998Y-118364000D02*
X130084999Y-118585001D01*
X128835150Y-118364000D02*
X129863998Y-118364000D01*
X127795000Y-127482500D02*
X128270000Y-127482500D01*
X125620860Y-125308360D02*
X127795000Y-127482500D01*
X123774200Y-125308360D02*
X125620860Y-125308360D01*
X129246162Y-111942880D02*
X128447800Y-111942880D01*
X131445000Y-110490000D02*
X130699042Y-110490000D01*
X130699042Y-110490000D02*
X129246162Y-111942880D01*
X130429000Y-118241000D02*
X130084999Y-118585001D01*
X131445000Y-106578500D02*
X131445000Y-115385971D01*
X130683000Y-105816500D02*
X131445000Y-106578500D01*
X131445000Y-115385971D02*
X131464968Y-115405939D01*
X131464968Y-115405939D02*
X131464968Y-116543281D01*
X130429000Y-117579249D02*
X130429000Y-118241000D01*
X131464968Y-116543281D02*
X130429000Y-117579249D01*
X131014957Y-119514959D02*
X130084999Y-118585001D01*
X129241504Y-127482500D02*
X128270000Y-127482500D01*
X131014957Y-125709047D02*
X129241504Y-127482500D01*
X131014957Y-119514959D02*
X131014957Y-122251957D01*
X131014957Y-122251957D02*
X131014957Y-125709047D01*
X124077130Y-125611290D02*
X123774200Y-125308360D01*
X122555000Y-129057500D02*
X124077130Y-127535370D01*
X124077130Y-127535370D02*
X124077130Y-125611290D01*
X130937000Y-122174000D02*
X131014957Y-122251957D01*
X121412000Y-120929500D02*
X121887000Y-120929500D01*
X123131500Y-122174000D02*
X130937000Y-122174000D01*
X121887000Y-120929500D02*
X123131500Y-122174000D01*
X121793000Y-114029709D02*
X121060557Y-114762152D01*
X121793000Y-113055500D02*
X121793000Y-114029709D01*
X120431552Y-119618046D02*
X120431552Y-117380998D01*
X121412000Y-120598494D02*
X120431552Y-119618046D01*
X120431568Y-117380982D02*
X120431568Y-116891737D01*
X121412000Y-120929500D02*
X121412000Y-120598494D01*
X120431552Y-117380998D02*
X120431568Y-117380982D01*
X120431568Y-116891737D02*
X119748256Y-116208425D01*
X130880748Y-101949096D02*
X131356010Y-102424358D01*
X131356010Y-105143490D02*
X130683000Y-105816500D01*
X130880748Y-100296266D02*
X130880748Y-101949096D01*
X130629520Y-100045038D02*
X130880748Y-100296266D01*
X131356010Y-102424358D02*
X131356010Y-105143490D01*
X126746000Y-100812500D02*
X127513462Y-100045038D01*
X127513462Y-100045038D02*
X130629520Y-100045038D01*
%TO.N,+1V5*%
X117119500Y-126227899D02*
X118211600Y-127319999D01*
X117119500Y-125603000D02*
X117119500Y-126227899D01*
X127649438Y-112593120D02*
X128447800Y-112593120D01*
X126348958Y-111292640D02*
X127649438Y-112593120D01*
X124028200Y-111292640D02*
X126348958Y-111292640D01*
X128523198Y-119634000D02*
X128835150Y-119634000D01*
X124688500Y-115792350D02*
X123386850Y-117094000D01*
X124688500Y-115189000D02*
X124688500Y-115792350D01*
X124941520Y-115189000D02*
X124688500Y-115189000D01*
X128447800Y-112593120D02*
X127537400Y-112593120D01*
X127537400Y-112593120D02*
X124941520Y-115189000D01*
X123386850Y-117094000D02*
X121919996Y-115627146D01*
X121919996Y-115627146D02*
X121919996Y-115570000D01*
X118896598Y-127319999D02*
X119500999Y-127924400D01*
X121595801Y-127924400D02*
X121660801Y-127859400D01*
X119500999Y-127924400D02*
X121595801Y-127924400D01*
X121660801Y-125635222D02*
X122284905Y-125011118D01*
X121660801Y-127859400D02*
X121660801Y-125635222D01*
X122284905Y-125011118D02*
X122284905Y-124445433D01*
X118211600Y-127319999D02*
X118896598Y-127319999D01*
X115229998Y-123706831D02*
X117119500Y-125596333D01*
X115229998Y-123129002D02*
X115229998Y-123706831D01*
X117119500Y-125596333D02*
X117119500Y-125603000D01*
X119706566Y-119529471D02*
X119706566Y-117339040D01*
X120611990Y-121422086D02*
X120611990Y-120434895D01*
X121706127Y-122516223D02*
X120611990Y-121422086D01*
X122329949Y-122516223D02*
X121706127Y-122516223D01*
X120611990Y-120434895D02*
X119706566Y-119529471D01*
X123418500Y-110682940D02*
X124028200Y-111292640D01*
X123418500Y-109347000D02*
X123418500Y-110682940D01*
X123418500Y-109347000D02*
X121991967Y-109347000D01*
X121991967Y-109347000D02*
X121355022Y-109983945D01*
X118338500Y-107441980D02*
X118774671Y-107878151D01*
X118338500Y-106680000D02*
X118338500Y-107441980D01*
X128397000Y-119634000D02*
X128835150Y-119634000D01*
X128168714Y-119405712D02*
X128397000Y-119634000D01*
X127329888Y-118566888D02*
X127329888Y-119077101D01*
X127658499Y-119405712D02*
X128168714Y-119405712D01*
X127329888Y-119077101D02*
X127658499Y-119405712D01*
X124688500Y-115925500D02*
X127329888Y-118566888D01*
X124688500Y-115189000D02*
X124688500Y-115925500D01*
%TO.N,Net-(C107-Pad2)*%
X124300500Y-106324500D02*
X124342000Y-106283000D01*
X122301000Y-106324500D02*
X124300500Y-106324500D01*
X120269000Y-106324500D02*
X122301000Y-106324500D01*
X119913500Y-106680000D02*
X120269000Y-106324500D01*
%TO.N,Net-(C107-Pad1)*%
X122275500Y-104775000D02*
X122301000Y-104749500D01*
X119913500Y-104775000D02*
X122275500Y-104775000D01*
X123334500Y-105783000D02*
X124342000Y-105783000D01*
X122301000Y-104749500D02*
X123334500Y-105783000D01*
%TO.N,/FILTER_CLOCK*%
X129184500Y-110555940D02*
X128447800Y-111292640D01*
X129184500Y-109220000D02*
X129184500Y-110555940D01*
X129850918Y-117094000D02*
X130739918Y-116205000D01*
X128835150Y-117094000D02*
X129850918Y-117094000D01*
X131189969Y-117891367D02*
X131464968Y-118166366D01*
X130432130Y-132330870D02*
X129507999Y-133255001D01*
X130396472Y-126963944D02*
X130396472Y-127656146D01*
X130396472Y-127656146D02*
X130432130Y-127691804D01*
X126270001Y-133255001D02*
X125095000Y-132080000D01*
X130432130Y-127691804D02*
X130432130Y-132330870D01*
X129507999Y-133255001D02*
X126270001Y-133255001D01*
X131464968Y-125895448D02*
X130396472Y-126963944D01*
X131464968Y-118166366D02*
X131464968Y-125895448D01*
X130302000Y-109093000D02*
X130429000Y-109093000D01*
X130175000Y-109220000D02*
X130302000Y-109093000D01*
X129184500Y-109220000D02*
X130175000Y-109220000D01*
%TO.N,+3V0*%
X119100500Y-125872099D02*
X120548400Y-127319999D01*
X119100500Y-125603000D02*
X119100500Y-125872099D01*
X118426167Y-125603000D02*
X119100500Y-125603000D01*
X116529998Y-123129002D02*
X116529998Y-123706831D01*
X115316000Y-108422399D02*
X115925600Y-109031999D01*
X115316000Y-106324500D02*
X115316000Y-108422399D01*
X118110000Y-125286832D02*
X118204584Y-125381416D01*
X118110000Y-124333000D02*
X118110000Y-125286832D01*
X116529998Y-123706831D02*
X118204584Y-125381416D01*
X118204584Y-125381416D02*
X118426167Y-125603000D01*
X113030000Y-122532152D02*
X114892715Y-124394867D01*
X113030000Y-117348000D02*
X113030000Y-122532152D01*
X113919000Y-114425499D02*
X113919000Y-116459000D01*
X113537295Y-114043794D02*
X113919000Y-114425499D01*
X114939000Y-109031999D02*
X114752001Y-109218998D01*
X115925600Y-109031999D02*
X114939000Y-109031999D01*
X113919000Y-116459000D02*
X113030000Y-117348000D01*
X114752001Y-111941589D02*
X113537295Y-113156295D01*
X113537295Y-113156295D02*
X113537295Y-114043794D01*
X114752001Y-109218998D02*
X114752001Y-111941589D01*
X114553490Y-107087010D02*
X115316000Y-106324500D01*
X112929516Y-107087010D02*
X114553490Y-107087010D01*
X110617000Y-104774494D02*
X112929516Y-107087010D01*
X110526999Y-101690001D02*
X110617000Y-101600000D01*
X110526999Y-103980001D02*
X110526999Y-101690001D01*
X110617000Y-104070002D02*
X110526999Y-103980001D01*
X110617000Y-104774494D02*
X110617000Y-104070002D01*
%TO.N,/P3V3*%
X127635000Y-129692500D02*
X128270000Y-129057500D01*
X127635000Y-132080000D02*
X127635000Y-129692500D01*
%TO.N,/PGND*%
X125095000Y-129540000D02*
X122555000Y-132080000D01*
X125095000Y-129057500D02*
X125095000Y-129540000D01*
%TO.N,/I2C_SDA*%
X128321000Y-100812500D02*
X126746000Y-102387500D01*
X128651000Y-100812500D02*
X128321000Y-100812500D01*
X130256675Y-124007880D02*
X130289948Y-123974607D01*
X128193800Y-124007880D02*
X130256675Y-124007880D01*
X128651000Y-100812500D02*
X130057801Y-100812500D01*
X132364990Y-126395259D02*
X132364990Y-101002572D01*
X130429000Y-134113410D02*
X132043001Y-132499409D01*
X132043001Y-132499409D02*
X132043001Y-126717248D01*
X130057801Y-100812500D02*
X130100256Y-100770045D01*
X132364990Y-101002572D02*
X131946418Y-100584000D01*
X119634000Y-134239000D02*
X130429000Y-134239000D01*
X117475000Y-132080000D02*
X119634000Y-134239000D01*
X132043001Y-126717248D02*
X132364990Y-126395259D01*
X130429000Y-134239000D02*
X130429000Y-134113410D01*
X117475000Y-132080000D02*
X116625001Y-131230001D01*
X116625001Y-131230001D02*
X116625001Y-129453411D01*
X110617000Y-116841411D02*
X110293989Y-116518400D01*
X110617000Y-123445410D02*
X110617000Y-116841411D01*
X110293989Y-111441810D02*
X112703800Y-109031999D01*
X110293989Y-116518400D02*
X110293989Y-111441810D01*
X112703800Y-109031999D02*
X113690400Y-109031999D01*
X116625001Y-129453411D02*
X110617000Y-123445410D01*
%TO.N,/I2C_SCL*%
X124384000Y-100812500D02*
X122809000Y-102387500D01*
X124841000Y-100812500D02*
X124384000Y-100812500D01*
X131121474Y-132784526D02*
X131121474Y-127308144D01*
X120015000Y-132080000D02*
X121723989Y-133788989D01*
X121723989Y-133788989D02*
X130117011Y-133788989D01*
X130117011Y-133788989D02*
X131121474Y-132784526D01*
X128193800Y-124658120D02*
X129474801Y-124658120D01*
X129474801Y-124658120D02*
X130164306Y-125347625D01*
X131121474Y-127002364D02*
X131914979Y-126208859D01*
X131121474Y-127308144D02*
X131121474Y-127002364D01*
X126264516Y-103150010D02*
X127227484Y-103150010D01*
X125641010Y-101612510D02*
X125641010Y-102526504D01*
X131914979Y-101958007D02*
X131605758Y-101648786D01*
X129483640Y-101624990D02*
X130493560Y-102634910D01*
X131914979Y-126208859D02*
X131914979Y-101958007D01*
X127227484Y-103150010D02*
X127546010Y-102831484D01*
X127546010Y-102831484D02*
X127546010Y-102248496D01*
X125641010Y-102526504D02*
X126264516Y-103150010D01*
X127546010Y-102248496D02*
X128169516Y-101624990D01*
X124841000Y-100812500D02*
X125641010Y-101612510D01*
X128169516Y-101624990D02*
X129483640Y-101624990D01*
X119419797Y-132080000D02*
X120015000Y-132080000D01*
X111125000Y-123317000D02*
X117099199Y-129291199D01*
X110744000Y-116332000D02*
X111125000Y-116713000D01*
X110744000Y-112928400D02*
X110744000Y-116332000D01*
X112628799Y-111043601D02*
X110744000Y-112928400D01*
X112628799Y-110392600D02*
X112628799Y-111043601D01*
X113344800Y-110327600D02*
X112693799Y-110327600D01*
X117099199Y-129759402D02*
X119419797Y-132080000D01*
X111125000Y-116713000D02*
X111125000Y-123317000D01*
X117099199Y-129291199D02*
X117099199Y-129759402D01*
X113690400Y-109982000D02*
X113344800Y-110327600D01*
X112693799Y-110327600D02*
X112628799Y-110392600D01*
%TO.N,/RgA*%
X117179999Y-123002501D02*
X118872000Y-121310500D01*
X117179999Y-123129002D02*
X117179999Y-123002501D01*
X118872000Y-121310500D02*
X121042498Y-123480998D01*
X121042498Y-123480998D02*
X121633002Y-123480998D01*
X121633002Y-123480998D02*
X121872436Y-123720432D01*
X122920354Y-124007880D02*
X123774200Y-124007880D01*
X121872436Y-123720432D02*
X122632906Y-123720432D01*
X122632906Y-123720432D02*
X122920354Y-124007880D01*
%TO.N,/RgB*%
X117179999Y-118679001D02*
X117654998Y-118679001D01*
X118711497Y-119735500D02*
X118872000Y-119735500D01*
X117654998Y-118679001D02*
X118711497Y-119735500D01*
X119761000Y-121215002D02*
X121576985Y-123030987D01*
X121576985Y-123030987D02*
X121819402Y-123030987D01*
X121819402Y-123030987D02*
X122058836Y-123270421D01*
X123686981Y-123270421D02*
X123774200Y-123357640D01*
X118872000Y-119735500D02*
X119761000Y-120624500D01*
X119761000Y-120624500D02*
X119761000Y-121215002D01*
X122058836Y-123270421D02*
X123686981Y-123270421D01*
%TO.N,/FILTER_IN*%
X115879999Y-123129002D02*
X115879999Y-121610001D01*
X115879999Y-121610001D02*
X117602000Y-119888000D01*
X118508106Y-117903790D02*
X118508106Y-118469475D01*
X118781998Y-117629898D02*
X118508106Y-117903790D01*
X118831577Y-115483423D02*
X118781998Y-115533002D01*
X121881588Y-117252570D02*
X120112441Y-115483423D01*
X118781998Y-115533002D02*
X118781998Y-117629898D01*
X120112441Y-115483423D02*
X118831577Y-115483423D01*
X122406600Y-118364000D02*
X121881588Y-117838988D01*
X123386850Y-118364000D02*
X122406600Y-118364000D01*
X121881588Y-117838988D02*
X121881588Y-117252570D01*
X120000046Y-111456602D02*
X118781998Y-112674650D01*
X124028200Y-111942880D02*
X123117800Y-111942880D01*
X120000046Y-111362291D02*
X120000046Y-111456602D01*
X122267328Y-110710834D02*
X120651503Y-110710834D01*
X122593010Y-111418090D02*
X122593010Y-111036516D01*
X123117800Y-111942880D02*
X122593010Y-111418090D01*
X122593010Y-111036516D02*
X122267328Y-110710834D01*
X120651503Y-110710834D02*
X120000046Y-111362291D01*
X118781998Y-112674650D02*
X118781998Y-115533002D01*
%TO.N,/FILTER_OUT*%
X129890401Y-120828999D02*
X129890401Y-119107299D01*
X129815400Y-120904000D02*
X129890401Y-120828999D01*
X128835150Y-120904000D02*
X129815400Y-120904000D01*
X128447800Y-115427998D02*
X127779899Y-116095899D01*
X128447800Y-113243360D02*
X128447800Y-115427998D01*
X127779899Y-116095899D02*
X127779899Y-116060101D01*
X117037611Y-106075889D02*
X117037611Y-108655611D01*
X118338500Y-104775000D02*
X117037611Y-106075889D01*
X117037611Y-108655611D02*
X117602000Y-109220000D01*
X122331599Y-117058505D02*
X119761000Y-114487906D01*
X126321701Y-120225701D02*
X124442101Y-118346101D01*
X122396599Y-117685701D02*
X122331599Y-117620701D01*
X129825401Y-120225701D02*
X126321701Y-120225701D01*
X119761000Y-114487906D02*
X119761000Y-112776000D01*
X129890401Y-119107299D02*
X129890401Y-120160701D01*
X124442101Y-118346101D02*
X124442101Y-117837299D01*
X129890401Y-120160701D02*
X129825401Y-120225701D01*
X123868299Y-117772299D02*
X123781701Y-117685701D01*
X124442101Y-117837299D02*
X124377101Y-117772299D01*
X124377101Y-117772299D02*
X123868299Y-117772299D01*
X123781701Y-117685701D02*
X122396599Y-117685701D01*
X122331599Y-117620701D02*
X122331599Y-117058505D01*
X128447800Y-113243360D02*
X128447800Y-115439882D01*
X128447800Y-115439882D02*
X127779899Y-116107783D01*
X127779899Y-118890701D02*
X127844899Y-118955701D01*
X129738803Y-118955701D02*
X127847111Y-118955701D01*
X127779899Y-116107783D02*
X127779899Y-118890701D01*
X127844899Y-118955701D02*
X129738803Y-118955701D01*
X129738803Y-118955701D02*
X129890401Y-119107299D01*
X127847111Y-118955701D02*
X127779899Y-118888489D01*
X127779899Y-118888489D02*
X127779899Y-116095899D01*
%TO.N,/MIC_OUT*%
X121690205Y-107987032D02*
X119100025Y-110577212D01*
X128642000Y-106283000D02*
X126763410Y-106283000D01*
X126763410Y-106283000D02*
X125059379Y-107987032D01*
X119100025Y-110577212D02*
X119100025Y-111083802D01*
X125059379Y-107987032D02*
X121690205Y-107987032D01*
X119100025Y-111083802D02*
X117348000Y-112835827D01*
X117348000Y-112835827D02*
X117348000Y-113385500D01*
X119148585Y-108619419D02*
X118234704Y-108619419D01*
X119499681Y-108268323D02*
X119148585Y-108619419D01*
X119499681Y-107569942D02*
X119499681Y-108268323D01*
X118782484Y-103974990D02*
X119150990Y-104343496D01*
X117575990Y-104293516D02*
X117894516Y-103974990D01*
X119150990Y-104343496D02*
X119150990Y-107221251D01*
X113411000Y-104749500D02*
X114173510Y-105512010D01*
X119150990Y-107221251D02*
X119499681Y-107569942D01*
X116965080Y-105512010D02*
X117575990Y-104901100D01*
X114173510Y-105512010D02*
X116965080Y-105512010D01*
X118234704Y-108619419D02*
X117834705Y-108219420D01*
X117575990Y-104901100D02*
X117575990Y-104293516D01*
X117894516Y-103974990D02*
X118782484Y-103974990D01*
X114300000Y-101727000D02*
X114427000Y-101600000D01*
X113411000Y-104749500D02*
X114300000Y-103860500D01*
X114300000Y-103860500D02*
X114300000Y-101727000D01*
%TO.N,/MIC_REF*%
X115316000Y-111541601D02*
X115925600Y-110932001D01*
X115316000Y-113385500D02*
X115316000Y-111541601D01*
X125987768Y-105783000D02*
X124683758Y-107087010D01*
X118200003Y-109694999D02*
X118200003Y-110711002D01*
X128642000Y-105783000D02*
X125987768Y-105783000D01*
X119301535Y-109102879D02*
X118792123Y-109102879D01*
X118200003Y-110711002D02*
X117823003Y-111088002D01*
X121317404Y-107087010D02*
X119301535Y-109102879D01*
X118792123Y-109102879D02*
X118200003Y-109694999D01*
X116081601Y-111088002D02*
X115925600Y-110932001D01*
X117823003Y-111088002D02*
X116081601Y-111088002D01*
X124683758Y-107087010D02*
X121317404Y-107087010D01*
%TO.N,Net-(R112-Pad1)*%
X124037001Y-104733001D02*
X124087000Y-104783000D01*
X124087000Y-104783000D02*
X124342000Y-104783000D01*
X123531999Y-104733001D02*
X124037001Y-104733001D01*
X119068521Y-103600021D02*
X122904021Y-103600021D01*
X117856000Y-102387500D02*
X119068521Y-103600021D01*
X122904021Y-103600021D02*
X123466999Y-104162999D01*
X123466999Y-104162999D02*
X123466999Y-104668001D01*
X123466999Y-104668001D02*
X123531999Y-104733001D01*
%TO.N,Net-(R113-Pad2)*%
X120650510Y-103150010D02*
X119888000Y-102387500D01*
X124342000Y-104283000D02*
X123209010Y-103150010D01*
X123209010Y-103150010D02*
X120650510Y-103150010D01*
%TO.N,Net-(R114-Pad2)*%
X126736500Y-104283000D02*
X128642000Y-104283000D01*
X124841000Y-102387500D02*
X126736500Y-104283000D01*
%TO.N,Net-(R115-Pad2)*%
X128651000Y-103263358D02*
X129220641Y-103832999D01*
X129442000Y-104783000D02*
X128642000Y-104783000D01*
X129220641Y-103832999D02*
X129452001Y-103832999D01*
X128651000Y-102387500D02*
X128651000Y-103263358D01*
X129452001Y-103832999D02*
X129517001Y-103897999D01*
X129517001Y-104707999D02*
X129442000Y-104783000D01*
X129517001Y-103897999D02*
X129517001Y-104707999D01*
%TO.N,Net-(J102-Pad2)*%
X111887000Y-104800500D02*
X113411000Y-106324500D01*
X111977001Y-103980001D02*
X111977001Y-101690001D01*
X111887000Y-104070002D02*
X111977001Y-103980001D01*
X111977001Y-101690001D02*
X111887000Y-101600000D01*
X111887000Y-104800500D02*
X111887000Y-104070002D01*
%TD*%
D22*
%TO.N,GNDA*%
G36*
X130989801Y-115363612D02*
G01*
X130987599Y-115385971D01*
X130996387Y-115475205D01*
X131004777Y-115502861D01*
X131009768Y-115519314D01*
X131009768Y-115526413D01*
X130952909Y-115502861D01*
X130811836Y-115474800D01*
X130668000Y-115474800D01*
X130526927Y-115502861D01*
X130394039Y-115557905D01*
X130274443Y-115637817D01*
X130172735Y-115739525D01*
X130092823Y-115859121D01*
X130037779Y-115992009D01*
X130009718Y-116133082D01*
X130009718Y-116276918D01*
X130012129Y-116289039D01*
X129749743Y-116551426D01*
X129749737Y-116551421D01*
X129692373Y-116520760D01*
X129667000Y-116513063D01*
X129667000Y-112190098D01*
X129910068Y-111922723D01*
X130887592Y-110945200D01*
X130989800Y-110945200D01*
X130989801Y-115363612D01*
G37*
X130989801Y-115363612D02*
X130987599Y-115385971D01*
X130996387Y-115475205D01*
X131004777Y-115502861D01*
X131009768Y-115519314D01*
X131009768Y-115526413D01*
X130952909Y-115502861D01*
X130811836Y-115474800D01*
X130668000Y-115474800D01*
X130526927Y-115502861D01*
X130394039Y-115557905D01*
X130274443Y-115637817D01*
X130172735Y-115739525D01*
X130092823Y-115859121D01*
X130037779Y-115992009D01*
X130009718Y-116133082D01*
X130009718Y-116276918D01*
X130012129Y-116289039D01*
X129749743Y-116551426D01*
X129749737Y-116551421D01*
X129692373Y-116520760D01*
X129667000Y-116513063D01*
X129667000Y-112190098D01*
X129910068Y-111922723D01*
X130887592Y-110945200D01*
X130989800Y-110945200D01*
X130989801Y-115363612D01*
G36*
X127457316Y-127788566D02*
G01*
X127471568Y-127805932D01*
X127473685Y-127807669D01*
X127473782Y-127808656D01*
X127505111Y-127911935D01*
X127555987Y-128007118D01*
X127624454Y-128090546D01*
X127707882Y-128159013D01*
X127803065Y-128209889D01*
X127906344Y-128241218D01*
X128013750Y-128251797D01*
X128526250Y-128251797D01*
X128633656Y-128241218D01*
X128736935Y-128209889D01*
X128832118Y-128159013D01*
X128915546Y-128090546D01*
X128984013Y-128007118D01*
X129021117Y-127937700D01*
X129219155Y-127937700D01*
X129241504Y-127939901D01*
X129263853Y-127937700D01*
X129263861Y-127937700D01*
X129330739Y-127931113D01*
X129416544Y-127905084D01*
X129495623Y-127862816D01*
X129564936Y-127805932D01*
X129579192Y-127788561D01*
X129941273Y-127426481D01*
X129941273Y-127633787D01*
X129939071Y-127656146D01*
X129947859Y-127745380D01*
X129967603Y-127810464D01*
X129973889Y-127831186D01*
X129976930Y-127836875D01*
X129976931Y-132142319D01*
X129319450Y-132799801D01*
X128816797Y-132799801D01*
X128816797Y-131230000D01*
X128810422Y-131165270D01*
X128791540Y-131103027D01*
X128760879Y-131045663D01*
X128719616Y-130995384D01*
X128669337Y-130954121D01*
X128611973Y-130923460D01*
X128549730Y-130904578D01*
X128485000Y-130898203D01*
X128090200Y-130898203D01*
X128090200Y-129881049D01*
X128144452Y-129826797D01*
X128526250Y-129826797D01*
X128633656Y-129816218D01*
X128736935Y-129784889D01*
X128832118Y-129734013D01*
X128915546Y-129665546D01*
X128984013Y-129582118D01*
X129034889Y-129486935D01*
X129066218Y-129383656D01*
X129076797Y-129276250D01*
X129076797Y-128838750D01*
X129066218Y-128731344D01*
X129034889Y-128628065D01*
X128984013Y-128532882D01*
X128915546Y-128449454D01*
X128832118Y-128380987D01*
X128736935Y-128330111D01*
X128633656Y-128298782D01*
X128526250Y-128288203D01*
X128013750Y-128288203D01*
X127906344Y-128298782D01*
X127803065Y-128330111D01*
X127707882Y-128380987D01*
X127624454Y-128449454D01*
X127555987Y-128532882D01*
X127505111Y-128628065D01*
X127473782Y-128731344D01*
X127463203Y-128838750D01*
X127463203Y-129220548D01*
X127328935Y-129354816D01*
X127311569Y-129369068D01*
X127254685Y-129438381D01*
X127232395Y-129480083D01*
X127212417Y-129517460D01*
X127186387Y-129603266D01*
X127177599Y-129692500D01*
X127179801Y-129714859D01*
X127179800Y-130898203D01*
X126785000Y-130898203D01*
X126720270Y-130904578D01*
X126658027Y-130923460D01*
X126600663Y-130954121D01*
X126550384Y-130995384D01*
X126509121Y-131045663D01*
X126478460Y-131103027D01*
X126459578Y-131165270D01*
X126453203Y-131230000D01*
X126453203Y-132794453D01*
X126186835Y-132528086D01*
X126229845Y-132424252D01*
X126275200Y-132196240D01*
X126275200Y-131963760D01*
X126229845Y-131735748D01*
X126140879Y-131520966D01*
X126011721Y-131327667D01*
X125847333Y-131163279D01*
X125654034Y-131034121D01*
X125439252Y-130945155D01*
X125211240Y-130899800D01*
X124978760Y-130899800D01*
X124750748Y-130945155D01*
X124535966Y-131034121D01*
X124342667Y-131163279D01*
X124178279Y-131327667D01*
X124049121Y-131520966D01*
X123960155Y-131735748D01*
X123914800Y-131963760D01*
X123914800Y-132196240D01*
X123960155Y-132424252D01*
X124049121Y-132639034D01*
X124178279Y-132832333D01*
X124342667Y-132996721D01*
X124535966Y-133125879D01*
X124750748Y-133214845D01*
X124978760Y-133260200D01*
X125211240Y-133260200D01*
X125439252Y-133214845D01*
X125543086Y-133171835D01*
X125705039Y-133333789D01*
X121912539Y-133333789D01*
X121106835Y-132528086D01*
X121149845Y-132424252D01*
X121195200Y-132196240D01*
X121195200Y-131963760D01*
X121149845Y-131735748D01*
X121060879Y-131520966D01*
X120931721Y-131327667D01*
X120767333Y-131163279D01*
X120574034Y-131034121D01*
X120359252Y-130945155D01*
X120131240Y-130899800D01*
X119898760Y-130899800D01*
X119670748Y-130945155D01*
X119455966Y-131034121D01*
X119262667Y-131163279D01*
X119204746Y-131221200D01*
X117814744Y-129831198D01*
X118999000Y-129831198D01*
X119063730Y-129824823D01*
X119125973Y-129805941D01*
X119183337Y-129775280D01*
X119233616Y-129734017D01*
X119274879Y-129683738D01*
X119279442Y-129675201D01*
X119480558Y-129675201D01*
X119485121Y-129683738D01*
X119526384Y-129734017D01*
X119576663Y-129775280D01*
X119634027Y-129805941D01*
X119696270Y-129824823D01*
X119761000Y-129831198D01*
X121335800Y-129831198D01*
X121400530Y-129824823D01*
X121462773Y-129805941D01*
X121520137Y-129775280D01*
X121570416Y-129734017D01*
X121611679Y-129683738D01*
X121616242Y-129675201D01*
X121921219Y-129675201D01*
X121992882Y-129734013D01*
X122088065Y-129784889D01*
X122191344Y-129816218D01*
X122298750Y-129826797D01*
X122811250Y-129826797D01*
X122918656Y-129816218D01*
X123021935Y-129784889D01*
X123117118Y-129734013D01*
X123200546Y-129665546D01*
X123269013Y-129582118D01*
X123319889Y-129486935D01*
X123351218Y-129383656D01*
X123361797Y-129276250D01*
X123361797Y-128894452D01*
X124051945Y-128204304D01*
X124089463Y-128274494D01*
X124168815Y-128371185D01*
X124265506Y-128450537D01*
X124375820Y-128509502D01*
X124395320Y-128515417D01*
X124380987Y-128532882D01*
X124330111Y-128628065D01*
X124298782Y-128731344D01*
X124288203Y-128838750D01*
X124288203Y-129276250D01*
X124298782Y-129383656D01*
X124330111Y-129486935D01*
X124380987Y-129582118D01*
X124393673Y-129597577D01*
X123003086Y-130988165D01*
X122899252Y-130945155D01*
X122671240Y-130899800D01*
X122438760Y-130899800D01*
X122210748Y-130945155D01*
X121995966Y-131034121D01*
X121802667Y-131163279D01*
X121638279Y-131327667D01*
X121509121Y-131520966D01*
X121420155Y-131735748D01*
X121374800Y-131963760D01*
X121374800Y-132196240D01*
X121420155Y-132424252D01*
X121509121Y-132639034D01*
X121638279Y-132832333D01*
X121802667Y-132996721D01*
X121995966Y-133125879D01*
X122210748Y-133214845D01*
X122438760Y-133260200D01*
X122671240Y-133260200D01*
X122899252Y-133214845D01*
X123114034Y-133125879D01*
X123307333Y-132996721D01*
X123471721Y-132832333D01*
X123600879Y-132639034D01*
X123689845Y-132424252D01*
X123735200Y-132196240D01*
X123735200Y-131963760D01*
X123689845Y-131735748D01*
X123646835Y-131631914D01*
X125401066Y-129877684D01*
X125418432Y-129863432D01*
X125457050Y-129816376D01*
X125458656Y-129816218D01*
X125561935Y-129784889D01*
X125657118Y-129734013D01*
X125740546Y-129665546D01*
X125809013Y-129582118D01*
X125859889Y-129486935D01*
X125891218Y-129383656D01*
X125901797Y-129276250D01*
X125901797Y-128838750D01*
X125891218Y-128731344D01*
X125859889Y-128628065D01*
X125809013Y-128532882D01*
X125794680Y-128515417D01*
X125814180Y-128509502D01*
X125924494Y-128450537D01*
X126021185Y-128371185D01*
X126100537Y-128274494D01*
X126159502Y-128164180D01*
X126195812Y-128044482D01*
X126208072Y-127920000D01*
X126205000Y-127768250D01*
X126046250Y-127609500D01*
X125222000Y-127609500D01*
X125222000Y-127629500D01*
X124968000Y-127629500D01*
X124968000Y-127609500D01*
X124948000Y-127609500D01*
X124948000Y-127355500D01*
X124968000Y-127355500D01*
X124968000Y-126568750D01*
X125222000Y-126568750D01*
X125222000Y-127355500D01*
X126046250Y-127355500D01*
X126205000Y-127196750D01*
X126208072Y-127045000D01*
X126195812Y-126920518D01*
X126159502Y-126800820D01*
X126100537Y-126690506D01*
X126021185Y-126593815D01*
X125924494Y-126514463D01*
X125814180Y-126455498D01*
X125694482Y-126419188D01*
X125570000Y-126406928D01*
X125380750Y-126410000D01*
X125222000Y-126568750D01*
X124968000Y-126568750D01*
X124809250Y-126410000D01*
X124620000Y-126406928D01*
X124532330Y-126415562D01*
X124532330Y-125826971D01*
X124561573Y-125818100D01*
X124618937Y-125787439D01*
X124648034Y-125763560D01*
X125432311Y-125763560D01*
X127457316Y-127788566D01*
G37*
X127457316Y-127788566D02*
X127471568Y-127805932D01*
X127473685Y-127807669D01*
X127473782Y-127808656D01*
X127505111Y-127911935D01*
X127555987Y-128007118D01*
X127624454Y-128090546D01*
X127707882Y-128159013D01*
X127803065Y-128209889D01*
X127906344Y-128241218D01*
X128013750Y-128251797D01*
X128526250Y-128251797D01*
X128633656Y-128241218D01*
X128736935Y-128209889D01*
X128832118Y-128159013D01*
X128915546Y-128090546D01*
X128984013Y-128007118D01*
X129021117Y-127937700D01*
X129219155Y-127937700D01*
X129241504Y-127939901D01*
X129263853Y-127937700D01*
X129263861Y-127937700D01*
X129330739Y-127931113D01*
X129416544Y-127905084D01*
X129495623Y-127862816D01*
X129564936Y-127805932D01*
X129579192Y-127788561D01*
X129941273Y-127426481D01*
X129941273Y-127633787D01*
X129939071Y-127656146D01*
X129947859Y-127745380D01*
X129967603Y-127810464D01*
X129973889Y-127831186D01*
X129976930Y-127836875D01*
X129976931Y-132142319D01*
X129319450Y-132799801D01*
X128816797Y-132799801D01*
X128816797Y-131230000D01*
X128810422Y-131165270D01*
X128791540Y-131103027D01*
X128760879Y-131045663D01*
X128719616Y-130995384D01*
X128669337Y-130954121D01*
X128611973Y-130923460D01*
X128549730Y-130904578D01*
X128485000Y-130898203D01*
X128090200Y-130898203D01*
X128090200Y-129881049D01*
X128144452Y-129826797D01*
X128526250Y-129826797D01*
X128633656Y-129816218D01*
X128736935Y-129784889D01*
X128832118Y-129734013D01*
X128915546Y-129665546D01*
X128984013Y-129582118D01*
X129034889Y-129486935D01*
X129066218Y-129383656D01*
X129076797Y-129276250D01*
X129076797Y-128838750D01*
X129066218Y-128731344D01*
X129034889Y-128628065D01*
X128984013Y-128532882D01*
X128915546Y-128449454D01*
X128832118Y-128380987D01*
X128736935Y-128330111D01*
X128633656Y-128298782D01*
X128526250Y-128288203D01*
X128013750Y-128288203D01*
X127906344Y-128298782D01*
X127803065Y-128330111D01*
X127707882Y-128380987D01*
X127624454Y-128449454D01*
X127555987Y-128532882D01*
X127505111Y-128628065D01*
X127473782Y-128731344D01*
X127463203Y-128838750D01*
X127463203Y-129220548D01*
X127328935Y-129354816D01*
X127311569Y-129369068D01*
X127254685Y-129438381D01*
X127232395Y-129480083D01*
X127212417Y-129517460D01*
X127186387Y-129603266D01*
X127177599Y-129692500D01*
X127179801Y-129714859D01*
X127179800Y-130898203D01*
X126785000Y-130898203D01*
X126720270Y-130904578D01*
X126658027Y-130923460D01*
X126600663Y-130954121D01*
X126550384Y-130995384D01*
X126509121Y-131045663D01*
X126478460Y-131103027D01*
X126459578Y-131165270D01*
X126453203Y-131230000D01*
X126453203Y-132794453D01*
X126186835Y-132528086D01*
X126229845Y-132424252D01*
X126275200Y-132196240D01*
X126275200Y-131963760D01*
X126229845Y-131735748D01*
X126140879Y-131520966D01*
X126011721Y-131327667D01*
X125847333Y-131163279D01*
X125654034Y-131034121D01*
X125439252Y-130945155D01*
X125211240Y-130899800D01*
X124978760Y-130899800D01*
X124750748Y-130945155D01*
X124535966Y-131034121D01*
X124342667Y-131163279D01*
X124178279Y-131327667D01*
X124049121Y-131520966D01*
X123960155Y-131735748D01*
X123914800Y-131963760D01*
X123914800Y-132196240D01*
X123960155Y-132424252D01*
X124049121Y-132639034D01*
X124178279Y-132832333D01*
X124342667Y-132996721D01*
X124535966Y-133125879D01*
X124750748Y-133214845D01*
X124978760Y-133260200D01*
X125211240Y-133260200D01*
X125439252Y-133214845D01*
X125543086Y-133171835D01*
X125705039Y-133333789D01*
X121912539Y-133333789D01*
X121106835Y-132528086D01*
X121149845Y-132424252D01*
X121195200Y-132196240D01*
X121195200Y-131963760D01*
X121149845Y-131735748D01*
X121060879Y-131520966D01*
X120931721Y-131327667D01*
X120767333Y-131163279D01*
X120574034Y-131034121D01*
X120359252Y-130945155D01*
X120131240Y-130899800D01*
X119898760Y-130899800D01*
X119670748Y-130945155D01*
X119455966Y-131034121D01*
X119262667Y-131163279D01*
X119204746Y-131221200D01*
X117814744Y-129831198D01*
X118999000Y-129831198D01*
X119063730Y-129824823D01*
X119125973Y-129805941D01*
X119183337Y-129775280D01*
X119233616Y-129734017D01*
X119274879Y-129683738D01*
X119279442Y-129675201D01*
X119480558Y-129675201D01*
X119485121Y-129683738D01*
X119526384Y-129734017D01*
X119576663Y-129775280D01*
X119634027Y-129805941D01*
X119696270Y-129824823D01*
X119761000Y-129831198D01*
X121335800Y-129831198D01*
X121400530Y-129824823D01*
X121462773Y-129805941D01*
X121520137Y-129775280D01*
X121570416Y-129734017D01*
X121611679Y-129683738D01*
X121616242Y-129675201D01*
X121921219Y-129675201D01*
X121992882Y-129734013D01*
X122088065Y-129784889D01*
X122191344Y-129816218D01*
X122298750Y-129826797D01*
X122811250Y-129826797D01*
X122918656Y-129816218D01*
X123021935Y-129784889D01*
X123117118Y-129734013D01*
X123200546Y-129665546D01*
X123269013Y-129582118D01*
X123319889Y-129486935D01*
X123351218Y-129383656D01*
X123361797Y-129276250D01*
X123361797Y-128894452D01*
X124051945Y-128204304D01*
X124089463Y-128274494D01*
X124168815Y-128371185D01*
X124265506Y-128450537D01*
X124375820Y-128509502D01*
X124395320Y-128515417D01*
X124380987Y-128532882D01*
X124330111Y-128628065D01*
X124298782Y-128731344D01*
X124288203Y-128838750D01*
X124288203Y-129276250D01*
X124298782Y-129383656D01*
X124330111Y-129486935D01*
X124380987Y-129582118D01*
X124393673Y-129597577D01*
X123003086Y-130988165D01*
X122899252Y-130945155D01*
X122671240Y-130899800D01*
X122438760Y-130899800D01*
X122210748Y-130945155D01*
X121995966Y-131034121D01*
X121802667Y-131163279D01*
X121638279Y-131327667D01*
X121509121Y-131520966D01*
X121420155Y-131735748D01*
X121374800Y-131963760D01*
X121374800Y-132196240D01*
X121420155Y-132424252D01*
X121509121Y-132639034D01*
X121638279Y-132832333D01*
X121802667Y-132996721D01*
X121995966Y-133125879D01*
X122210748Y-133214845D01*
X122438760Y-133260200D01*
X122671240Y-133260200D01*
X122899252Y-133214845D01*
X123114034Y-133125879D01*
X123307333Y-132996721D01*
X123471721Y-132832333D01*
X123600879Y-132639034D01*
X123689845Y-132424252D01*
X123735200Y-132196240D01*
X123735200Y-131963760D01*
X123689845Y-131735748D01*
X123646835Y-131631914D01*
X125401066Y-129877684D01*
X125418432Y-129863432D01*
X125457050Y-129816376D01*
X125458656Y-129816218D01*
X125561935Y-129784889D01*
X125657118Y-129734013D01*
X125740546Y-129665546D01*
X125809013Y-129582118D01*
X125859889Y-129486935D01*
X125891218Y-129383656D01*
X125901797Y-129276250D01*
X125901797Y-128838750D01*
X125891218Y-128731344D01*
X125859889Y-128628065D01*
X125809013Y-128532882D01*
X125794680Y-128515417D01*
X125814180Y-128509502D01*
X125924494Y-128450537D01*
X126021185Y-128371185D01*
X126100537Y-128274494D01*
X126159502Y-128164180D01*
X126195812Y-128044482D01*
X126208072Y-127920000D01*
X126205000Y-127768250D01*
X126046250Y-127609500D01*
X125222000Y-127609500D01*
X125222000Y-127629500D01*
X124968000Y-127629500D01*
X124968000Y-127609500D01*
X124948000Y-127609500D01*
X124948000Y-127355500D01*
X124968000Y-127355500D01*
X124968000Y-126568750D01*
X125222000Y-126568750D01*
X125222000Y-127355500D01*
X126046250Y-127355500D01*
X126205000Y-127196750D01*
X126208072Y-127045000D01*
X126195812Y-126920518D01*
X126159502Y-126800820D01*
X126100537Y-126690506D01*
X126021185Y-126593815D01*
X125924494Y-126514463D01*
X125814180Y-126455498D01*
X125694482Y-126419188D01*
X125570000Y-126406928D01*
X125380750Y-126410000D01*
X125222000Y-126568750D01*
X124968000Y-126568750D01*
X124809250Y-126410000D01*
X124620000Y-126406928D01*
X124532330Y-126415562D01*
X124532330Y-125826971D01*
X124561573Y-125818100D01*
X124618937Y-125787439D01*
X124648034Y-125763560D01*
X125432311Y-125763560D01*
X127457316Y-127788566D01*
G36*
X113817400Y-110805001D02*
G01*
X113837400Y-110805001D01*
X113837400Y-111059001D01*
X113817400Y-111059001D01*
X113817400Y-111687651D01*
X113976150Y-111846401D01*
X114201895Y-111847944D01*
X113231234Y-112818607D01*
X113213863Y-112832863D01*
X113156979Y-112902177D01*
X113114711Y-112981256D01*
X113088682Y-113067061D01*
X113082095Y-113133939D01*
X113082095Y-113133946D01*
X113079894Y-113156295D01*
X113082095Y-113178645D01*
X113082096Y-114021435D01*
X113079894Y-114043794D01*
X113088682Y-114133028D01*
X113109539Y-114201782D01*
X113114712Y-114218834D01*
X113156980Y-114297913D01*
X113213864Y-114367226D01*
X113231229Y-114381478D01*
X113463800Y-114614049D01*
X113463801Y-116270449D01*
X112723939Y-117010312D01*
X112706568Y-117024568D01*
X112649684Y-117093882D01*
X112607416Y-117172961D01*
X112581387Y-117258766D01*
X112574800Y-117325644D01*
X112574800Y-117325651D01*
X112572599Y-117348000D01*
X112574800Y-117370349D01*
X112574801Y-122509793D01*
X112572599Y-122532152D01*
X112581387Y-122621386D01*
X112602585Y-122691263D01*
X112607417Y-122707192D01*
X112649685Y-122786271D01*
X112706569Y-122855584D01*
X112723935Y-122869836D01*
X114164926Y-124310828D01*
X114162515Y-124322949D01*
X114162515Y-124466785D01*
X114190576Y-124607858D01*
X114245620Y-124740746D01*
X114325532Y-124860342D01*
X114427240Y-124962050D01*
X114482555Y-124999011D01*
X114481188Y-125003518D01*
X114468928Y-125128000D01*
X114472000Y-125317250D01*
X114630750Y-125476000D01*
X115417500Y-125476000D01*
X115417500Y-125456000D01*
X115671500Y-125456000D01*
X115671500Y-125476000D01*
X115691500Y-125476000D01*
X115691500Y-125730000D01*
X115671500Y-125730000D01*
X115671500Y-126554250D01*
X115830250Y-126713000D01*
X115982000Y-126716072D01*
X116106482Y-126703812D01*
X116226180Y-126667502D01*
X116336494Y-126608537D01*
X116433185Y-126529185D01*
X116512537Y-126432494D01*
X116571502Y-126322180D01*
X116577417Y-126302680D01*
X116594882Y-126317013D01*
X116685553Y-126365477D01*
X116694588Y-126395260D01*
X116696917Y-126402939D01*
X116739185Y-126482018D01*
X116796069Y-126551331D01*
X116813435Y-126565583D01*
X117132923Y-126885071D01*
X117117660Y-126913626D01*
X117098778Y-126975869D01*
X117092403Y-127040599D01*
X117092403Y-127447808D01*
X117071232Y-127459046D01*
X116974313Y-127538120D01*
X116894683Y-127634583D01*
X116835402Y-127744727D01*
X116798749Y-127864321D01*
X116789200Y-127984250D01*
X116947950Y-128143000D01*
X118084600Y-128143000D01*
X118084600Y-128123000D01*
X118338600Y-128123000D01*
X118338600Y-128143000D01*
X118358600Y-128143000D01*
X118358600Y-128397000D01*
X118338600Y-128397000D01*
X118338600Y-128417000D01*
X118084600Y-128417000D01*
X118084600Y-128397000D01*
X116947950Y-128397000D01*
X116898350Y-128446600D01*
X115166615Y-126714865D01*
X115258750Y-126713000D01*
X115417500Y-126554250D01*
X115417500Y-125730000D01*
X114630750Y-125730000D01*
X114472000Y-125888750D01*
X114469900Y-126018150D01*
X111580200Y-123128451D01*
X111580200Y-116735348D01*
X111582401Y-116712999D01*
X111580200Y-116690650D01*
X111580200Y-116690643D01*
X111573613Y-116623765D01*
X111569086Y-116608840D01*
X111555842Y-116565184D01*
X111547584Y-116537960D01*
X111505316Y-116458881D01*
X111448432Y-116389568D01*
X111431067Y-116375317D01*
X111199200Y-116143451D01*
X111199200Y-113116949D01*
X112585617Y-111730533D01*
X112600906Y-111743004D01*
X112711397Y-111801635D01*
X112831204Y-111837585D01*
X112955722Y-111849470D01*
X113404650Y-111846401D01*
X113563400Y-111687651D01*
X113563400Y-111059001D01*
X113543400Y-111059001D01*
X113543400Y-110805001D01*
X113563400Y-110805001D01*
X113563400Y-110785001D01*
X113817400Y-110785001D01*
X113817400Y-110805001D01*
G37*
X113817400Y-110805001D02*
X113837400Y-110805001D01*
X113837400Y-111059001D01*
X113817400Y-111059001D01*
X113817400Y-111687651D01*
X113976150Y-111846401D01*
X114201895Y-111847944D01*
X113231234Y-112818607D01*
X113213863Y-112832863D01*
X113156979Y-112902177D01*
X113114711Y-112981256D01*
X113088682Y-113067061D01*
X113082095Y-113133939D01*
X113082095Y-113133946D01*
X113079894Y-113156295D01*
X113082095Y-113178645D01*
X113082096Y-114021435D01*
X113079894Y-114043794D01*
X113088682Y-114133028D01*
X113109539Y-114201782D01*
X113114712Y-114218834D01*
X113156980Y-114297913D01*
X113213864Y-114367226D01*
X113231229Y-114381478D01*
X113463800Y-114614049D01*
X113463801Y-116270449D01*
X112723939Y-117010312D01*
X112706568Y-117024568D01*
X112649684Y-117093882D01*
X112607416Y-117172961D01*
X112581387Y-117258766D01*
X112574800Y-117325644D01*
X112574800Y-117325651D01*
X112572599Y-117348000D01*
X112574800Y-117370349D01*
X112574801Y-122509793D01*
X112572599Y-122532152D01*
X112581387Y-122621386D01*
X112602585Y-122691263D01*
X112607417Y-122707192D01*
X112649685Y-122786271D01*
X112706569Y-122855584D01*
X112723935Y-122869836D01*
X114164926Y-124310828D01*
X114162515Y-124322949D01*
X114162515Y-124466785D01*
X114190576Y-124607858D01*
X114245620Y-124740746D01*
X114325532Y-124860342D01*
X114427240Y-124962050D01*
X114482555Y-124999011D01*
X114481188Y-125003518D01*
X114468928Y-125128000D01*
X114472000Y-125317250D01*
X114630750Y-125476000D01*
X115417500Y-125476000D01*
X115417500Y-125456000D01*
X115671500Y-125456000D01*
X115671500Y-125476000D01*
X115691500Y-125476000D01*
X115691500Y-125730000D01*
X115671500Y-125730000D01*
X115671500Y-126554250D01*
X115830250Y-126713000D01*
X115982000Y-126716072D01*
X116106482Y-126703812D01*
X116226180Y-126667502D01*
X116336494Y-126608537D01*
X116433185Y-126529185D01*
X116512537Y-126432494D01*
X116571502Y-126322180D01*
X116577417Y-126302680D01*
X116594882Y-126317013D01*
X116685553Y-126365477D01*
X116694588Y-126395260D01*
X116696917Y-126402939D01*
X116739185Y-126482018D01*
X116796069Y-126551331D01*
X116813435Y-126565583D01*
X117132923Y-126885071D01*
X117117660Y-126913626D01*
X117098778Y-126975869D01*
X117092403Y-127040599D01*
X117092403Y-127447808D01*
X117071232Y-127459046D01*
X116974313Y-127538120D01*
X116894683Y-127634583D01*
X116835402Y-127744727D01*
X116798749Y-127864321D01*
X116789200Y-127984250D01*
X116947950Y-128143000D01*
X118084600Y-128143000D01*
X118084600Y-128123000D01*
X118338600Y-128123000D01*
X118338600Y-128143000D01*
X118358600Y-128143000D01*
X118358600Y-128397000D01*
X118338600Y-128397000D01*
X118338600Y-128417000D01*
X118084600Y-128417000D01*
X118084600Y-128397000D01*
X116947950Y-128397000D01*
X116898350Y-128446600D01*
X115166615Y-126714865D01*
X115258750Y-126713000D01*
X115417500Y-126554250D01*
X115417500Y-125730000D01*
X114630750Y-125730000D01*
X114472000Y-125888750D01*
X114469900Y-126018150D01*
X111580200Y-123128451D01*
X111580200Y-116735348D01*
X111582401Y-116712999D01*
X111580200Y-116690650D01*
X111580200Y-116690643D01*
X111573613Y-116623765D01*
X111569086Y-116608840D01*
X111555842Y-116565184D01*
X111547584Y-116537960D01*
X111505316Y-116458881D01*
X111448432Y-116389568D01*
X111431067Y-116375317D01*
X111199200Y-116143451D01*
X111199200Y-113116949D01*
X112585617Y-111730533D01*
X112600906Y-111743004D01*
X112711397Y-111801635D01*
X112831204Y-111837585D01*
X112955722Y-111849470D01*
X113404650Y-111846401D01*
X113563400Y-111687651D01*
X113563400Y-111059001D01*
X113543400Y-111059001D01*
X113543400Y-110805001D01*
X113563400Y-110805001D01*
X113563400Y-110785001D01*
X113817400Y-110785001D01*
X113817400Y-110805001D01*
G36*
X109987928Y-116856088D02*
G01*
X110161801Y-117029962D01*
X110161800Y-123423061D01*
X110159599Y-123445410D01*
X110161800Y-123467759D01*
X110161800Y-123467766D01*
X110168387Y-123534644D01*
X110194416Y-123620449D01*
X110236684Y-123699528D01*
X110293568Y-123768842D01*
X110310939Y-123783098D01*
X114456258Y-127928418D01*
X114334661Y-127916495D01*
X114334653Y-127916495D01*
X114317443Y-127914800D01*
X110507375Y-127914800D01*
X110312646Y-127895707D01*
X110142046Y-127844199D01*
X109984700Y-127760537D01*
X109982000Y-127758335D01*
X109982000Y-116851223D01*
X109987928Y-116856088D01*
G37*
X109987928Y-116856088D02*
X110161801Y-117029962D01*
X110161800Y-123423061D01*
X110159599Y-123445410D01*
X110161800Y-123467759D01*
X110161800Y-123467766D01*
X110168387Y-123534644D01*
X110194416Y-123620449D01*
X110236684Y-123699528D01*
X110293568Y-123768842D01*
X110310939Y-123783098D01*
X114456258Y-127928418D01*
X114334661Y-127916495D01*
X114334653Y-127916495D01*
X114317443Y-127914800D01*
X110507375Y-127914800D01*
X110312646Y-127895707D01*
X110142046Y-127844199D01*
X109984700Y-127760537D01*
X109982000Y-127758335D01*
X109982000Y-116851223D01*
X109987928Y-116856088D01*
G36*
X122805727Y-124983240D02*
G01*
X122788378Y-125040430D01*
X122782003Y-125105160D01*
X122782003Y-125511560D01*
X122788378Y-125576290D01*
X122807260Y-125638533D01*
X122837921Y-125695897D01*
X122879184Y-125746176D01*
X122929463Y-125787439D01*
X122986827Y-125818100D01*
X123049070Y-125836982D01*
X123113800Y-125843357D01*
X123621931Y-125843357D01*
X123621930Y-126808825D01*
X123619502Y-126800820D01*
X123560537Y-126690506D01*
X123481185Y-126593815D01*
X123384494Y-126514463D01*
X123274180Y-126455498D01*
X123154482Y-126419188D01*
X123030000Y-126406928D01*
X122840750Y-126410000D01*
X122682000Y-126568750D01*
X122682000Y-127355500D01*
X122702000Y-127355500D01*
X122702000Y-127609500D01*
X122682000Y-127609500D01*
X122682000Y-127629500D01*
X122428000Y-127629500D01*
X122428000Y-127609500D01*
X122408000Y-127609500D01*
X122408000Y-127355500D01*
X122428000Y-127355500D01*
X122428000Y-126568750D01*
X122269250Y-126410000D01*
X122116001Y-126407512D01*
X122116001Y-125823771D01*
X122590972Y-125348801D01*
X122608337Y-125334550D01*
X122665221Y-125265237D01*
X122707489Y-125186158D01*
X122733518Y-125100353D01*
X122740105Y-125033475D01*
X122740105Y-125033468D01*
X122741579Y-125018496D01*
X122750380Y-125012616D01*
X122799682Y-124963314D01*
X122805727Y-124983240D01*
G37*
X122805727Y-124983240D02*
X122788378Y-125040430D01*
X122782003Y-125105160D01*
X122782003Y-125511560D01*
X122788378Y-125576290D01*
X122807260Y-125638533D01*
X122837921Y-125695897D01*
X122879184Y-125746176D01*
X122929463Y-125787439D01*
X122986827Y-125818100D01*
X123049070Y-125836982D01*
X123113800Y-125843357D01*
X123621931Y-125843357D01*
X123621930Y-126808825D01*
X123619502Y-126800820D01*
X123560537Y-126690506D01*
X123481185Y-126593815D01*
X123384494Y-126514463D01*
X123274180Y-126455498D01*
X123154482Y-126419188D01*
X123030000Y-126406928D01*
X122840750Y-126410000D01*
X122682000Y-126568750D01*
X122682000Y-127355500D01*
X122702000Y-127355500D01*
X122702000Y-127609500D01*
X122682000Y-127609500D01*
X122682000Y-127629500D01*
X122428000Y-127629500D01*
X122428000Y-127609500D01*
X122408000Y-127609500D01*
X122408000Y-127355500D01*
X122428000Y-127355500D01*
X122428000Y-126568750D01*
X122269250Y-126410000D01*
X122116001Y-126407512D01*
X122116001Y-125823771D01*
X122590972Y-125348801D01*
X122608337Y-125334550D01*
X122665221Y-125265237D01*
X122707489Y-125186158D01*
X122733518Y-125100353D01*
X122740105Y-125033475D01*
X122740105Y-125033468D01*
X122741579Y-125018496D01*
X122750380Y-125012616D01*
X122799682Y-124963314D01*
X122805727Y-124983240D01*
G36*
X123131500Y-122631402D02*
G01*
X123153857Y-122629200D01*
X127173731Y-122629200D01*
X127089598Y-122695991D01*
X127008686Y-122791381D01*
X126947939Y-122900724D01*
X126909691Y-123019817D01*
X126898400Y-123122690D01*
X127057150Y-123281440D01*
X128066800Y-123281440D01*
X128066800Y-123210640D01*
X128320800Y-123210640D01*
X128320800Y-123281440D01*
X129330450Y-123281440D01*
X129489200Y-123122690D01*
X129477909Y-123019817D01*
X129439661Y-122900724D01*
X129378914Y-122791381D01*
X129298002Y-122695991D01*
X129213869Y-122629200D01*
X130559757Y-122629200D01*
X130559757Y-123296003D01*
X130502939Y-123272468D01*
X130361866Y-123244407D01*
X130218030Y-123244407D01*
X130076957Y-123272468D01*
X129944069Y-123327512D01*
X129824473Y-123407424D01*
X129722765Y-123509132D01*
X129693667Y-123552680D01*
X129449290Y-123552680D01*
X129330450Y-123433840D01*
X128320800Y-123433840D01*
X128320800Y-123472883D01*
X128066800Y-123472883D01*
X128066800Y-123433840D01*
X127057150Y-123433840D01*
X126898400Y-123592590D01*
X126909691Y-123695463D01*
X126947939Y-123814556D01*
X127008686Y-123923899D01*
X127089598Y-124019289D01*
X127187564Y-124097062D01*
X127201603Y-124104275D01*
X127201603Y-124211080D01*
X127207978Y-124275810D01*
X127225327Y-124333000D01*
X127207978Y-124390190D01*
X127201603Y-124454920D01*
X127201603Y-124561725D01*
X127187564Y-124568938D01*
X127089598Y-124646711D01*
X127008686Y-124742101D01*
X126947939Y-124851444D01*
X126909691Y-124970537D01*
X126898400Y-125073410D01*
X127057150Y-125232160D01*
X128066800Y-125232160D01*
X128066800Y-125193117D01*
X128320800Y-125193117D01*
X128320800Y-125232160D01*
X128340800Y-125232160D01*
X128340800Y-125384560D01*
X128320800Y-125384560D01*
X128320800Y-125987810D01*
X128479550Y-126146560D01*
X128843843Y-126149548D01*
X128968507Y-126139310D01*
X129088779Y-126104947D01*
X129200036Y-126047782D01*
X129298002Y-125970009D01*
X129378914Y-125874619D01*
X129439661Y-125765276D01*
X129477909Y-125646183D01*
X129482036Y-125608584D01*
X129517211Y-125693504D01*
X129597123Y-125813100D01*
X129698831Y-125914808D01*
X129818427Y-125994720D01*
X129951315Y-126049764D01*
X130017354Y-126062900D01*
X129052955Y-127027300D01*
X129021117Y-127027300D01*
X128984013Y-126957882D01*
X128915546Y-126874454D01*
X128832118Y-126805987D01*
X128736935Y-126755111D01*
X128633656Y-126723782D01*
X128526250Y-126713203D01*
X128013750Y-126713203D01*
X127906344Y-126723782D01*
X127803065Y-126755111D01*
X127743304Y-126787054D01*
X126499560Y-125543310D01*
X126898400Y-125543310D01*
X126909691Y-125646183D01*
X126947939Y-125765276D01*
X127008686Y-125874619D01*
X127089598Y-125970009D01*
X127187564Y-126047782D01*
X127298821Y-126104947D01*
X127419093Y-126139310D01*
X127543757Y-126149548D01*
X127908050Y-126146560D01*
X128066800Y-125987810D01*
X128066800Y-125384560D01*
X127057150Y-125384560D01*
X126898400Y-125543310D01*
X126499560Y-125543310D01*
X125958548Y-125002299D01*
X125944292Y-124984928D01*
X125874979Y-124928044D01*
X125795900Y-124885776D01*
X125710095Y-124859747D01*
X125643217Y-124853160D01*
X125643209Y-124853160D01*
X125620860Y-124850959D01*
X125598511Y-124853160D01*
X124766397Y-124853160D01*
X124766397Y-124454920D01*
X124760022Y-124390190D01*
X124742673Y-124333000D01*
X124760022Y-124275810D01*
X124766397Y-124211080D01*
X124766397Y-123804680D01*
X124760022Y-123739950D01*
X124742673Y-123682760D01*
X124760022Y-123625570D01*
X124766397Y-123560840D01*
X124766397Y-123154440D01*
X124760022Y-123089710D01*
X124741140Y-123027467D01*
X124710479Y-122970103D01*
X124669216Y-122919824D01*
X124618937Y-122878561D01*
X124561573Y-122847900D01*
X124499330Y-122829018D01*
X124434600Y-122822643D01*
X123778969Y-122822643D01*
X123776216Y-122821808D01*
X123709338Y-122815221D01*
X123709330Y-122815221D01*
X123686981Y-122813020D01*
X123664632Y-122815221D01*
X122996463Y-122815221D01*
X123032088Y-122729214D01*
X123053080Y-122623678D01*
X123131500Y-122631402D01*
G37*
X123131500Y-122631402D02*
X123153857Y-122629200D01*
X127173731Y-122629200D01*
X127089598Y-122695991D01*
X127008686Y-122791381D01*
X126947939Y-122900724D01*
X126909691Y-123019817D01*
X126898400Y-123122690D01*
X127057150Y-123281440D01*
X128066800Y-123281440D01*
X128066800Y-123210640D01*
X128320800Y-123210640D01*
X128320800Y-123281440D01*
X129330450Y-123281440D01*
X129489200Y-123122690D01*
X129477909Y-123019817D01*
X129439661Y-122900724D01*
X129378914Y-122791381D01*
X129298002Y-122695991D01*
X129213869Y-122629200D01*
X130559757Y-122629200D01*
X130559757Y-123296003D01*
X130502939Y-123272468D01*
X130361866Y-123244407D01*
X130218030Y-123244407D01*
X130076957Y-123272468D01*
X129944069Y-123327512D01*
X129824473Y-123407424D01*
X129722765Y-123509132D01*
X129693667Y-123552680D01*
X129449290Y-123552680D01*
X129330450Y-123433840D01*
X128320800Y-123433840D01*
X128320800Y-123472883D01*
X128066800Y-123472883D01*
X128066800Y-123433840D01*
X127057150Y-123433840D01*
X126898400Y-123592590D01*
X126909691Y-123695463D01*
X126947939Y-123814556D01*
X127008686Y-123923899D01*
X127089598Y-124019289D01*
X127187564Y-124097062D01*
X127201603Y-124104275D01*
X127201603Y-124211080D01*
X127207978Y-124275810D01*
X127225327Y-124333000D01*
X127207978Y-124390190D01*
X127201603Y-124454920D01*
X127201603Y-124561725D01*
X127187564Y-124568938D01*
X127089598Y-124646711D01*
X127008686Y-124742101D01*
X126947939Y-124851444D01*
X126909691Y-124970537D01*
X126898400Y-125073410D01*
X127057150Y-125232160D01*
X128066800Y-125232160D01*
X128066800Y-125193117D01*
X128320800Y-125193117D01*
X128320800Y-125232160D01*
X128340800Y-125232160D01*
X128340800Y-125384560D01*
X128320800Y-125384560D01*
X128320800Y-125987810D01*
X128479550Y-126146560D01*
X128843843Y-126149548D01*
X128968507Y-126139310D01*
X129088779Y-126104947D01*
X129200036Y-126047782D01*
X129298002Y-125970009D01*
X129378914Y-125874619D01*
X129439661Y-125765276D01*
X129477909Y-125646183D01*
X129482036Y-125608584D01*
X129517211Y-125693504D01*
X129597123Y-125813100D01*
X129698831Y-125914808D01*
X129818427Y-125994720D01*
X129951315Y-126049764D01*
X130017354Y-126062900D01*
X129052955Y-127027300D01*
X129021117Y-127027300D01*
X128984013Y-126957882D01*
X128915546Y-126874454D01*
X128832118Y-126805987D01*
X128736935Y-126755111D01*
X128633656Y-126723782D01*
X128526250Y-126713203D01*
X128013750Y-126713203D01*
X127906344Y-126723782D01*
X127803065Y-126755111D01*
X127743304Y-126787054D01*
X126499560Y-125543310D01*
X126898400Y-125543310D01*
X126909691Y-125646183D01*
X126947939Y-125765276D01*
X127008686Y-125874619D01*
X127089598Y-125970009D01*
X127187564Y-126047782D01*
X127298821Y-126104947D01*
X127419093Y-126139310D01*
X127543757Y-126149548D01*
X127908050Y-126146560D01*
X128066800Y-125987810D01*
X128066800Y-125384560D01*
X127057150Y-125384560D01*
X126898400Y-125543310D01*
X126499560Y-125543310D01*
X125958548Y-125002299D01*
X125944292Y-124984928D01*
X125874979Y-124928044D01*
X125795900Y-124885776D01*
X125710095Y-124859747D01*
X125643217Y-124853160D01*
X125643209Y-124853160D01*
X125620860Y-124850959D01*
X125598511Y-124853160D01*
X124766397Y-124853160D01*
X124766397Y-124454920D01*
X124760022Y-124390190D01*
X124742673Y-124333000D01*
X124760022Y-124275810D01*
X124766397Y-124211080D01*
X124766397Y-123804680D01*
X124760022Y-123739950D01*
X124742673Y-123682760D01*
X124760022Y-123625570D01*
X124766397Y-123560840D01*
X124766397Y-123154440D01*
X124760022Y-123089710D01*
X124741140Y-123027467D01*
X124710479Y-122970103D01*
X124669216Y-122919824D01*
X124618937Y-122878561D01*
X124561573Y-122847900D01*
X124499330Y-122829018D01*
X124434600Y-122822643D01*
X123778969Y-122822643D01*
X123776216Y-122821808D01*
X123709338Y-122815221D01*
X123709330Y-122815221D01*
X123686981Y-122813020D01*
X123664632Y-122815221D01*
X122996463Y-122815221D01*
X123032088Y-122729214D01*
X123053080Y-122623678D01*
X123131500Y-122631402D01*
G36*
X120704814Y-123787064D02*
G01*
X120719066Y-123804430D01*
X120736431Y-123818681D01*
X120788379Y-123861314D01*
X120867458Y-123903582D01*
X120953263Y-123929611D01*
X121042498Y-123938400D01*
X121064855Y-123936198D01*
X121444453Y-123936198D01*
X121534748Y-124026493D01*
X121549004Y-124043864D01*
X121618317Y-124100748D01*
X121633872Y-124109062D01*
X121582766Y-124232442D01*
X121554705Y-124373515D01*
X121554705Y-124517351D01*
X121582766Y-124658424D01*
X121617082Y-124741271D01*
X121564185Y-124676815D01*
X121467494Y-124597463D01*
X121357180Y-124538498D01*
X121237482Y-124502188D01*
X121113000Y-124489928D01*
X120961250Y-124493000D01*
X120802500Y-124651750D01*
X120802500Y-125476000D01*
X120822500Y-125476000D01*
X120822500Y-125730000D01*
X120802500Y-125730000D01*
X120802500Y-125750000D01*
X120548500Y-125750000D01*
X120548500Y-125730000D01*
X120528500Y-125730000D01*
X120528500Y-125476000D01*
X120548500Y-125476000D01*
X120548500Y-124651750D01*
X120389750Y-124493000D01*
X120238000Y-124489928D01*
X120113518Y-124502188D01*
X119993820Y-124538498D01*
X119883506Y-124597463D01*
X119786815Y-124676815D01*
X119707463Y-124773506D01*
X119648498Y-124883820D01*
X119642583Y-124903320D01*
X119625118Y-124888987D01*
X119529935Y-124838111D01*
X119426656Y-124806782D01*
X119319250Y-124796203D01*
X118881750Y-124796203D01*
X118774344Y-124806782D01*
X118671065Y-124838111D01*
X118599060Y-124876598D01*
X118677183Y-124798475D01*
X118757095Y-124678879D01*
X118812139Y-124545991D01*
X118840200Y-124404918D01*
X118840200Y-124261082D01*
X118812139Y-124120009D01*
X118757095Y-123987121D01*
X118677183Y-123867525D01*
X118575475Y-123765817D01*
X118455879Y-123685905D01*
X118322991Y-123630861D01*
X118181918Y-123602800D01*
X118038082Y-123602800D01*
X117897009Y-123630861D01*
X117764121Y-123685905D01*
X117718506Y-123716384D01*
X117727164Y-123687841D01*
X117735198Y-123606273D01*
X117735198Y-123091051D01*
X118746453Y-122079797D01*
X118997548Y-122079797D01*
X120704814Y-123787064D01*
G37*
X120704814Y-123787064D02*
X120719066Y-123804430D01*
X120736431Y-123818681D01*
X120788379Y-123861314D01*
X120867458Y-123903582D01*
X120953263Y-123929611D01*
X121042498Y-123938400D01*
X121064855Y-123936198D01*
X121444453Y-123936198D01*
X121534748Y-124026493D01*
X121549004Y-124043864D01*
X121618317Y-124100748D01*
X121633872Y-124109062D01*
X121582766Y-124232442D01*
X121554705Y-124373515D01*
X121554705Y-124517351D01*
X121582766Y-124658424D01*
X121617082Y-124741271D01*
X121564185Y-124676815D01*
X121467494Y-124597463D01*
X121357180Y-124538498D01*
X121237482Y-124502188D01*
X121113000Y-124489928D01*
X120961250Y-124493000D01*
X120802500Y-124651750D01*
X120802500Y-125476000D01*
X120822500Y-125476000D01*
X120822500Y-125730000D01*
X120802500Y-125730000D01*
X120802500Y-125750000D01*
X120548500Y-125750000D01*
X120548500Y-125730000D01*
X120528500Y-125730000D01*
X120528500Y-125476000D01*
X120548500Y-125476000D01*
X120548500Y-124651750D01*
X120389750Y-124493000D01*
X120238000Y-124489928D01*
X120113518Y-124502188D01*
X119993820Y-124538498D01*
X119883506Y-124597463D01*
X119786815Y-124676815D01*
X119707463Y-124773506D01*
X119648498Y-124883820D01*
X119642583Y-124903320D01*
X119625118Y-124888987D01*
X119529935Y-124838111D01*
X119426656Y-124806782D01*
X119319250Y-124796203D01*
X118881750Y-124796203D01*
X118774344Y-124806782D01*
X118671065Y-124838111D01*
X118599060Y-124876598D01*
X118677183Y-124798475D01*
X118757095Y-124678879D01*
X118812139Y-124545991D01*
X118840200Y-124404918D01*
X118840200Y-124261082D01*
X118812139Y-124120009D01*
X118757095Y-123987121D01*
X118677183Y-123867525D01*
X118575475Y-123765817D01*
X118455879Y-123685905D01*
X118322991Y-123630861D01*
X118181918Y-123602800D01*
X118038082Y-123602800D01*
X117897009Y-123630861D01*
X117764121Y-123685905D01*
X117718506Y-123716384D01*
X117727164Y-123687841D01*
X117735198Y-123606273D01*
X117735198Y-123091051D01*
X118746453Y-122079797D01*
X118997548Y-122079797D01*
X120704814Y-123787064D01*
G36*
X117041939Y-112498139D02*
G01*
X117024568Y-112512395D01*
X116967684Y-112581709D01*
X116935706Y-112641536D01*
X116881065Y-112658111D01*
X116785882Y-112708987D01*
X116702454Y-112777454D01*
X116633987Y-112860882D01*
X116583111Y-112956065D01*
X116551782Y-113059344D01*
X116541203Y-113166750D01*
X116541203Y-113604250D01*
X116551782Y-113711656D01*
X116583111Y-113814935D01*
X116633987Y-113910118D01*
X116702454Y-113993546D01*
X116785882Y-114062013D01*
X116881065Y-114112889D01*
X116984344Y-114144218D01*
X117091750Y-114154797D01*
X117604250Y-114154797D01*
X117711656Y-114144218D01*
X117814935Y-114112889D01*
X117910118Y-114062013D01*
X117993546Y-113993546D01*
X118062013Y-113910118D01*
X118112889Y-113814935D01*
X118144218Y-113711656D01*
X118154797Y-113604250D01*
X118154797Y-113166750D01*
X118144218Y-113059344D01*
X118112889Y-112956065D01*
X118062013Y-112860882D01*
X118019048Y-112808528D01*
X118395525Y-112432052D01*
X118359414Y-112499611D01*
X118333385Y-112585416D01*
X118326798Y-112652294D01*
X118326798Y-112652301D01*
X118324597Y-112674650D01*
X118326798Y-112696999D01*
X118326799Y-115510636D01*
X118326798Y-115510646D01*
X118326798Y-115510653D01*
X118324597Y-115533002D01*
X118326798Y-115555351D01*
X118326799Y-117441348D01*
X118202045Y-117566102D01*
X118184674Y-117580358D01*
X118127790Y-117649672D01*
X118085522Y-117728751D01*
X118059493Y-117814556D01*
X118052906Y-117881434D01*
X118052906Y-117881441D01*
X118051432Y-117896412D01*
X118042631Y-117902292D01*
X117940923Y-118004000D01*
X117861011Y-118123596D01*
X117808679Y-118249938D01*
X117744233Y-118230388D01*
X117735198Y-118229498D01*
X117735198Y-118201730D01*
X117727164Y-118120162D01*
X117695418Y-118015507D01*
X117643863Y-117919056D01*
X117574483Y-117834516D01*
X117489943Y-117765136D01*
X117393491Y-117713581D01*
X117288836Y-117681835D01*
X117179999Y-117671115D01*
X117071161Y-117681835D01*
X116985198Y-117707911D01*
X116985198Y-117392797D01*
X117211250Y-117392797D01*
X117318656Y-117382218D01*
X117421935Y-117350889D01*
X117517118Y-117300013D01*
X117600546Y-117231546D01*
X117669013Y-117148118D01*
X117719889Y-117052935D01*
X117751218Y-116949656D01*
X117761797Y-116842250D01*
X117761797Y-116329750D01*
X117751218Y-116222344D01*
X117719889Y-116119065D01*
X117669013Y-116023882D01*
X117600546Y-115940454D01*
X117517118Y-115871987D01*
X117447700Y-115834883D01*
X117447700Y-115729797D01*
X117604250Y-115729797D01*
X117711656Y-115719218D01*
X117814935Y-115687889D01*
X117910118Y-115637013D01*
X117993546Y-115568546D01*
X118062013Y-115485118D01*
X118112889Y-115389935D01*
X118144218Y-115286656D01*
X118154797Y-115179250D01*
X118154797Y-114741750D01*
X118144218Y-114634344D01*
X118112889Y-114531065D01*
X118062013Y-114435882D01*
X117993546Y-114352454D01*
X117910118Y-114283987D01*
X117814935Y-114233111D01*
X117711656Y-114201782D01*
X117604250Y-114191203D01*
X117091750Y-114191203D01*
X116984344Y-114201782D01*
X116881065Y-114233111D01*
X116785882Y-114283987D01*
X116702454Y-114352454D01*
X116633987Y-114435882D01*
X116583111Y-114531065D01*
X116551782Y-114634344D01*
X116541203Y-114741750D01*
X116541203Y-115179250D01*
X116545394Y-115221799D01*
X116543887Y-115226766D01*
X116535099Y-115316000D01*
X116537301Y-115338359D01*
X116537301Y-115834882D01*
X116467882Y-115871987D01*
X116384454Y-115940454D01*
X116315987Y-116023882D01*
X116265111Y-116119065D01*
X116233782Y-116222344D01*
X116223203Y-116329750D01*
X116223203Y-116711417D01*
X116206567Y-116725070D01*
X116205000Y-116726979D01*
X116203431Y-116725067D01*
X116186797Y-116711416D01*
X116186797Y-116329750D01*
X116176218Y-116222344D01*
X116144889Y-116119065D01*
X116094013Y-116023882D01*
X116025546Y-115940454D01*
X115942118Y-115871987D01*
X115872700Y-115834883D01*
X115872700Y-115725222D01*
X115933656Y-115719218D01*
X116036935Y-115687889D01*
X116132118Y-115637013D01*
X116215546Y-115568546D01*
X116284013Y-115485118D01*
X116334889Y-115389935D01*
X116366218Y-115286656D01*
X116376797Y-115179250D01*
X116376797Y-114741750D01*
X116366218Y-114634344D01*
X116334889Y-114531065D01*
X116284013Y-114435882D01*
X116215546Y-114352454D01*
X116132118Y-114283987D01*
X116036935Y-114233111D01*
X115933656Y-114201782D01*
X115826250Y-114191203D01*
X115313750Y-114191203D01*
X115206344Y-114201782D01*
X115103065Y-114233111D01*
X115007882Y-114283987D01*
X114924454Y-114352454D01*
X114855987Y-114435882D01*
X114805111Y-114531065D01*
X114773782Y-114634344D01*
X114763203Y-114741750D01*
X114763203Y-115179250D01*
X114773782Y-115286656D01*
X114805111Y-115389935D01*
X114855987Y-115485118D01*
X114924454Y-115568546D01*
X114962301Y-115599606D01*
X114962300Y-115834882D01*
X114892882Y-115871987D01*
X114809454Y-115940454D01*
X114740987Y-116023882D01*
X114690111Y-116119065D01*
X114658782Y-116222344D01*
X114648203Y-116329750D01*
X114648203Y-116842250D01*
X114658782Y-116949656D01*
X114690111Y-117052935D01*
X114740987Y-117148118D01*
X114809454Y-117231546D01*
X114892882Y-117300013D01*
X114988065Y-117350889D01*
X115091344Y-117382218D01*
X115102996Y-117383366D01*
X115102996Y-117505250D01*
X114999548Y-117400452D01*
X114857804Y-117443380D01*
X114711689Y-117531087D01*
X114585492Y-117645614D01*
X114484063Y-117782560D01*
X114411300Y-117936663D01*
X114369999Y-118102000D01*
X114369999Y-118552001D01*
X115131999Y-118552001D01*
X115131999Y-118532001D01*
X115324800Y-118532001D01*
X115324800Y-119156272D01*
X115327997Y-119188727D01*
X115327997Y-119823370D01*
X115460448Y-119957550D01*
X115602192Y-119914622D01*
X115748307Y-119826915D01*
X115874504Y-119712388D01*
X115894445Y-119685464D01*
X115988837Y-119676167D01*
X116093492Y-119644421D01*
X116189943Y-119592866D01*
X116204999Y-119580510D01*
X116220055Y-119592866D01*
X116316506Y-119644421D01*
X116421161Y-119676167D01*
X116529998Y-119686887D01*
X116638836Y-119676167D01*
X116743491Y-119644421D01*
X116839942Y-119592866D01*
X116854999Y-119580509D01*
X116870056Y-119592866D01*
X116922315Y-119620800D01*
X116899861Y-119675009D01*
X116871800Y-119816082D01*
X116871800Y-119959918D01*
X116874211Y-119972039D01*
X115573934Y-121272317D01*
X115556568Y-121286569D01*
X115499684Y-121355882D01*
X115464298Y-121422086D01*
X115457416Y-121434961D01*
X115431386Y-121520767D01*
X115422598Y-121610001D01*
X115424800Y-121632360D01*
X115424800Y-122157912D01*
X115338835Y-122131836D01*
X115229998Y-122121116D01*
X115121160Y-122131836D01*
X115016505Y-122163582D01*
X114920054Y-122215137D01*
X114835514Y-122284517D01*
X114766134Y-122369057D01*
X114714579Y-122465509D01*
X114682833Y-122570164D01*
X114674799Y-122651732D01*
X114674799Y-123533201D01*
X113485200Y-122343603D01*
X113485200Y-118806001D01*
X114369999Y-118806001D01*
X114369999Y-119256002D01*
X114411300Y-119421339D01*
X114484063Y-119575442D01*
X114585492Y-119712388D01*
X114711689Y-119826915D01*
X114857804Y-119914622D01*
X114999548Y-119957550D01*
X115131999Y-119823370D01*
X115131999Y-118806001D01*
X114369999Y-118806001D01*
X113485200Y-118806001D01*
X113485200Y-117536549D01*
X114225066Y-116796684D01*
X114242432Y-116782432D01*
X114299316Y-116713119D01*
X114341584Y-116634040D01*
X114367613Y-116548235D01*
X114374200Y-116481357D01*
X114376402Y-116459000D01*
X114374200Y-116436643D01*
X114374200Y-114447847D01*
X114376401Y-114425498D01*
X114374200Y-114403149D01*
X114374200Y-114403142D01*
X114367613Y-114336264D01*
X114341584Y-114250459D01*
X114299316Y-114171380D01*
X114242432Y-114102067D01*
X114225067Y-114087816D01*
X113992495Y-113855245D01*
X113992495Y-113344844D01*
X114860800Y-112476540D01*
X114860800Y-112855017D01*
X114855987Y-112860882D01*
X114805111Y-112956065D01*
X114773782Y-113059344D01*
X114763203Y-113166750D01*
X114763203Y-113604250D01*
X114773782Y-113711656D01*
X114805111Y-113814935D01*
X114855987Y-113910118D01*
X114924454Y-113993546D01*
X115007882Y-114062013D01*
X115103065Y-114112889D01*
X115206344Y-114144218D01*
X115313750Y-114154797D01*
X115826250Y-114154797D01*
X115933656Y-114144218D01*
X116036935Y-114112889D01*
X116132118Y-114062013D01*
X116215546Y-113993546D01*
X116284013Y-113910118D01*
X116334889Y-113814935D01*
X116366218Y-113711656D01*
X116376797Y-113604250D01*
X116376797Y-113166750D01*
X116366218Y-113059344D01*
X116334889Y-112956065D01*
X116284013Y-112860882D01*
X116215546Y-112777454D01*
X116132118Y-112708987D01*
X116036935Y-112658111D01*
X115933656Y-112626782D01*
X115826250Y-112616203D01*
X115771200Y-112616203D01*
X115771200Y-111730150D01*
X115958153Y-111543198D01*
X116059203Y-111543198D01*
X116081601Y-111545404D01*
X116103958Y-111543202D01*
X117800654Y-111543202D01*
X117823003Y-111545403D01*
X117845352Y-111543202D01*
X117845360Y-111543202D01*
X117912238Y-111536615D01*
X117998043Y-111510586D01*
X118065602Y-111474476D01*
X117041939Y-112498139D01*
G37*
X117041939Y-112498139D02*
X117024568Y-112512395D01*
X116967684Y-112581709D01*
X116935706Y-112641536D01*
X116881065Y-112658111D01*
X116785882Y-112708987D01*
X116702454Y-112777454D01*
X116633987Y-112860882D01*
X116583111Y-112956065D01*
X116551782Y-113059344D01*
X116541203Y-113166750D01*
X116541203Y-113604250D01*
X116551782Y-113711656D01*
X116583111Y-113814935D01*
X116633987Y-113910118D01*
X116702454Y-113993546D01*
X116785882Y-114062013D01*
X116881065Y-114112889D01*
X116984344Y-114144218D01*
X117091750Y-114154797D01*
X117604250Y-114154797D01*
X117711656Y-114144218D01*
X117814935Y-114112889D01*
X117910118Y-114062013D01*
X117993546Y-113993546D01*
X118062013Y-113910118D01*
X118112889Y-113814935D01*
X118144218Y-113711656D01*
X118154797Y-113604250D01*
X118154797Y-113166750D01*
X118144218Y-113059344D01*
X118112889Y-112956065D01*
X118062013Y-112860882D01*
X118019048Y-112808528D01*
X118395525Y-112432052D01*
X118359414Y-112499611D01*
X118333385Y-112585416D01*
X118326798Y-112652294D01*
X118326798Y-112652301D01*
X118324597Y-112674650D01*
X118326798Y-112696999D01*
X118326799Y-115510636D01*
X118326798Y-115510646D01*
X118326798Y-115510653D01*
X118324597Y-115533002D01*
X118326798Y-115555351D01*
X118326799Y-117441348D01*
X118202045Y-117566102D01*
X118184674Y-117580358D01*
X118127790Y-117649672D01*
X118085522Y-117728751D01*
X118059493Y-117814556D01*
X118052906Y-117881434D01*
X118052906Y-117881441D01*
X118051432Y-117896412D01*
X118042631Y-117902292D01*
X117940923Y-118004000D01*
X117861011Y-118123596D01*
X117808679Y-118249938D01*
X117744233Y-118230388D01*
X117735198Y-118229498D01*
X117735198Y-118201730D01*
X117727164Y-118120162D01*
X117695418Y-118015507D01*
X117643863Y-117919056D01*
X117574483Y-117834516D01*
X117489943Y-117765136D01*
X117393491Y-117713581D01*
X117288836Y-117681835D01*
X117179999Y-117671115D01*
X117071161Y-117681835D01*
X116985198Y-117707911D01*
X116985198Y-117392797D01*
X117211250Y-117392797D01*
X117318656Y-117382218D01*
X117421935Y-117350889D01*
X117517118Y-117300013D01*
X117600546Y-117231546D01*
X117669013Y-117148118D01*
X117719889Y-117052935D01*
X117751218Y-116949656D01*
X117761797Y-116842250D01*
X117761797Y-116329750D01*
X117751218Y-116222344D01*
X117719889Y-116119065D01*
X117669013Y-116023882D01*
X117600546Y-115940454D01*
X117517118Y-115871987D01*
X117447700Y-115834883D01*
X117447700Y-115729797D01*
X117604250Y-115729797D01*
X117711656Y-115719218D01*
X117814935Y-115687889D01*
X117910118Y-115637013D01*
X117993546Y-115568546D01*
X118062013Y-115485118D01*
X118112889Y-115389935D01*
X118144218Y-115286656D01*
X118154797Y-115179250D01*
X118154797Y-114741750D01*
X118144218Y-114634344D01*
X118112889Y-114531065D01*
X118062013Y-114435882D01*
X117993546Y-114352454D01*
X117910118Y-114283987D01*
X117814935Y-114233111D01*
X117711656Y-114201782D01*
X117604250Y-114191203D01*
X117091750Y-114191203D01*
X116984344Y-114201782D01*
X116881065Y-114233111D01*
X116785882Y-114283987D01*
X116702454Y-114352454D01*
X116633987Y-114435882D01*
X116583111Y-114531065D01*
X116551782Y-114634344D01*
X116541203Y-114741750D01*
X116541203Y-115179250D01*
X116545394Y-115221799D01*
X116543887Y-115226766D01*
X116535099Y-115316000D01*
X116537301Y-115338359D01*
X116537301Y-115834882D01*
X116467882Y-115871987D01*
X116384454Y-115940454D01*
X116315987Y-116023882D01*
X116265111Y-116119065D01*
X116233782Y-116222344D01*
X116223203Y-116329750D01*
X116223203Y-116711417D01*
X116206567Y-116725070D01*
X116205000Y-116726979D01*
X116203431Y-116725067D01*
X116186797Y-116711416D01*
X116186797Y-116329750D01*
X116176218Y-116222344D01*
X116144889Y-116119065D01*
X116094013Y-116023882D01*
X116025546Y-115940454D01*
X115942118Y-115871987D01*
X115872700Y-115834883D01*
X115872700Y-115725222D01*
X115933656Y-115719218D01*
X116036935Y-115687889D01*
X116132118Y-115637013D01*
X116215546Y-115568546D01*
X116284013Y-115485118D01*
X116334889Y-115389935D01*
X116366218Y-115286656D01*
X116376797Y-115179250D01*
X116376797Y-114741750D01*
X116366218Y-114634344D01*
X116334889Y-114531065D01*
X116284013Y-114435882D01*
X116215546Y-114352454D01*
X116132118Y-114283987D01*
X116036935Y-114233111D01*
X115933656Y-114201782D01*
X115826250Y-114191203D01*
X115313750Y-114191203D01*
X115206344Y-114201782D01*
X115103065Y-114233111D01*
X115007882Y-114283987D01*
X114924454Y-114352454D01*
X114855987Y-114435882D01*
X114805111Y-114531065D01*
X114773782Y-114634344D01*
X114763203Y-114741750D01*
X114763203Y-115179250D01*
X114773782Y-115286656D01*
X114805111Y-115389935D01*
X114855987Y-115485118D01*
X114924454Y-115568546D01*
X114962301Y-115599606D01*
X114962300Y-115834882D01*
X114892882Y-115871987D01*
X114809454Y-115940454D01*
X114740987Y-116023882D01*
X114690111Y-116119065D01*
X114658782Y-116222344D01*
X114648203Y-116329750D01*
X114648203Y-116842250D01*
X114658782Y-116949656D01*
X114690111Y-117052935D01*
X114740987Y-117148118D01*
X114809454Y-117231546D01*
X114892882Y-117300013D01*
X114988065Y-117350889D01*
X115091344Y-117382218D01*
X115102996Y-117383366D01*
X115102996Y-117505250D01*
X114999548Y-117400452D01*
X114857804Y-117443380D01*
X114711689Y-117531087D01*
X114585492Y-117645614D01*
X114484063Y-117782560D01*
X114411300Y-117936663D01*
X114369999Y-118102000D01*
X114369999Y-118552001D01*
X115131999Y-118552001D01*
X115131999Y-118532001D01*
X115324800Y-118532001D01*
X115324800Y-119156272D01*
X115327997Y-119188727D01*
X115327997Y-119823370D01*
X115460448Y-119957550D01*
X115602192Y-119914622D01*
X115748307Y-119826915D01*
X115874504Y-119712388D01*
X115894445Y-119685464D01*
X115988837Y-119676167D01*
X116093492Y-119644421D01*
X116189943Y-119592866D01*
X116204999Y-119580510D01*
X116220055Y-119592866D01*
X116316506Y-119644421D01*
X116421161Y-119676167D01*
X116529998Y-119686887D01*
X116638836Y-119676167D01*
X116743491Y-119644421D01*
X116839942Y-119592866D01*
X116854999Y-119580509D01*
X116870056Y-119592866D01*
X116922315Y-119620800D01*
X116899861Y-119675009D01*
X116871800Y-119816082D01*
X116871800Y-119959918D01*
X116874211Y-119972039D01*
X115573934Y-121272317D01*
X115556568Y-121286569D01*
X115499684Y-121355882D01*
X115464298Y-121422086D01*
X115457416Y-121434961D01*
X115431386Y-121520767D01*
X115422598Y-121610001D01*
X115424800Y-121632360D01*
X115424800Y-122157912D01*
X115338835Y-122131836D01*
X115229998Y-122121116D01*
X115121160Y-122131836D01*
X115016505Y-122163582D01*
X114920054Y-122215137D01*
X114835514Y-122284517D01*
X114766134Y-122369057D01*
X114714579Y-122465509D01*
X114682833Y-122570164D01*
X114674799Y-122651732D01*
X114674799Y-123533201D01*
X113485200Y-122343603D01*
X113485200Y-118806001D01*
X114369999Y-118806001D01*
X114369999Y-119256002D01*
X114411300Y-119421339D01*
X114484063Y-119575442D01*
X114585492Y-119712388D01*
X114711689Y-119826915D01*
X114857804Y-119914622D01*
X114999548Y-119957550D01*
X115131999Y-119823370D01*
X115131999Y-118806001D01*
X114369999Y-118806001D01*
X113485200Y-118806001D01*
X113485200Y-117536549D01*
X114225066Y-116796684D01*
X114242432Y-116782432D01*
X114299316Y-116713119D01*
X114341584Y-116634040D01*
X114367613Y-116548235D01*
X114374200Y-116481357D01*
X114376402Y-116459000D01*
X114374200Y-116436643D01*
X114374200Y-114447847D01*
X114376401Y-114425498D01*
X114374200Y-114403149D01*
X114374200Y-114403142D01*
X114367613Y-114336264D01*
X114341584Y-114250459D01*
X114299316Y-114171380D01*
X114242432Y-114102067D01*
X114225067Y-114087816D01*
X113992495Y-113855245D01*
X113992495Y-113344844D01*
X114860800Y-112476540D01*
X114860800Y-112855017D01*
X114855987Y-112860882D01*
X114805111Y-112956065D01*
X114773782Y-113059344D01*
X114763203Y-113166750D01*
X114763203Y-113604250D01*
X114773782Y-113711656D01*
X114805111Y-113814935D01*
X114855987Y-113910118D01*
X114924454Y-113993546D01*
X115007882Y-114062013D01*
X115103065Y-114112889D01*
X115206344Y-114144218D01*
X115313750Y-114154797D01*
X115826250Y-114154797D01*
X115933656Y-114144218D01*
X116036935Y-114112889D01*
X116132118Y-114062013D01*
X116215546Y-113993546D01*
X116284013Y-113910118D01*
X116334889Y-113814935D01*
X116366218Y-113711656D01*
X116376797Y-113604250D01*
X116376797Y-113166750D01*
X116366218Y-113059344D01*
X116334889Y-112956065D01*
X116284013Y-112860882D01*
X116215546Y-112777454D01*
X116132118Y-112708987D01*
X116036935Y-112658111D01*
X115933656Y-112626782D01*
X115826250Y-112616203D01*
X115771200Y-112616203D01*
X115771200Y-111730150D01*
X115958153Y-111543198D01*
X116059203Y-111543198D01*
X116081601Y-111545404D01*
X116103958Y-111543202D01*
X117800654Y-111543202D01*
X117823003Y-111545403D01*
X117845352Y-111543202D01*
X117845360Y-111543202D01*
X117912238Y-111536615D01*
X117998043Y-111510586D01*
X118065602Y-111474476D01*
X117041939Y-112498139D01*
G36*
X118226454Y-120343546D02*
G01*
X118309882Y-120412013D01*
X118405065Y-120462889D01*
X118508344Y-120494218D01*
X118615750Y-120504797D01*
X118997547Y-120504797D01*
X119033953Y-120541203D01*
X118615750Y-120541203D01*
X118508344Y-120551782D01*
X118405065Y-120583111D01*
X118309882Y-120633987D01*
X118226454Y-120702454D01*
X118157987Y-120785882D01*
X118107111Y-120881065D01*
X118075782Y-120984344D01*
X118065203Y-121091750D01*
X118065203Y-121473547D01*
X117379433Y-122159318D01*
X117288836Y-122131836D01*
X117179999Y-122121116D01*
X117071161Y-122131836D01*
X116966506Y-122163582D01*
X116870055Y-122215137D01*
X116854999Y-122227494D01*
X116839942Y-122215137D01*
X116743490Y-122163582D01*
X116638835Y-122131836D01*
X116529998Y-122121116D01*
X116421160Y-122131836D01*
X116335199Y-122157911D01*
X116335199Y-121798550D01*
X117517961Y-120615789D01*
X117530082Y-120618200D01*
X117673918Y-120618200D01*
X117814991Y-120590139D01*
X117947879Y-120535095D01*
X118067475Y-120455183D01*
X118169183Y-120353475D01*
X118198543Y-120309536D01*
X118226454Y-120343546D01*
G37*
X118226454Y-120343546D02*
X118309882Y-120412013D01*
X118405065Y-120462889D01*
X118508344Y-120494218D01*
X118615750Y-120504797D01*
X118997547Y-120504797D01*
X119033953Y-120541203D01*
X118615750Y-120541203D01*
X118508344Y-120551782D01*
X118405065Y-120583111D01*
X118309882Y-120633987D01*
X118226454Y-120702454D01*
X118157987Y-120785882D01*
X118107111Y-120881065D01*
X118075782Y-120984344D01*
X118065203Y-121091750D01*
X118065203Y-121473547D01*
X117379433Y-122159318D01*
X117288836Y-122131836D01*
X117179999Y-122121116D01*
X117071161Y-122131836D01*
X116966506Y-122163582D01*
X116870055Y-122215137D01*
X116854999Y-122227494D01*
X116839942Y-122215137D01*
X116743490Y-122163582D01*
X116638835Y-122131836D01*
X116529998Y-122121116D01*
X116421160Y-122131836D01*
X116335199Y-122157911D01*
X116335199Y-121798550D01*
X117517961Y-120615789D01*
X117530082Y-120618200D01*
X117673918Y-120618200D01*
X117814991Y-120590139D01*
X117947879Y-120535095D01*
X118067475Y-120455183D01*
X118169183Y-120353475D01*
X118198543Y-120309536D01*
X118226454Y-120343546D01*
G36*
X125984017Y-120531767D02*
G01*
X125998269Y-120549133D01*
X126036574Y-120580569D01*
X126067582Y-120606017D01*
X126146661Y-120648285D01*
X126232466Y-120674314D01*
X126321701Y-120683103D01*
X126344058Y-120680901D01*
X127773103Y-120680901D01*
X127773103Y-121170700D01*
X127779478Y-121235430D01*
X127798360Y-121297673D01*
X127829021Y-121355037D01*
X127870284Y-121405316D01*
X127920563Y-121446579D01*
X127977927Y-121477240D01*
X128040170Y-121496122D01*
X128104900Y-121502497D01*
X129565400Y-121502497D01*
X129630130Y-121496122D01*
X129692373Y-121477240D01*
X129749737Y-121446579D01*
X129800016Y-121405316D01*
X129837872Y-121359189D01*
X129904635Y-121352613D01*
X129990440Y-121326584D01*
X130069519Y-121284316D01*
X130138832Y-121227432D01*
X130153088Y-121210061D01*
X130196463Y-121166686D01*
X130213833Y-121152431D01*
X130270717Y-121083118D01*
X130312985Y-121004039D01*
X130339014Y-120918234D01*
X130345601Y-120851356D01*
X130345601Y-120851347D01*
X130347802Y-120829000D01*
X130345601Y-120806653D01*
X130345601Y-120183058D01*
X130347803Y-120160701D01*
X130345601Y-120138344D01*
X130345601Y-119489353D01*
X130559757Y-119703509D01*
X130559758Y-121718800D01*
X123320050Y-121718800D01*
X123103747Y-121502497D01*
X124117100Y-121502497D01*
X124181830Y-121496122D01*
X124244073Y-121477240D01*
X124301437Y-121446579D01*
X124351716Y-121405316D01*
X124392979Y-121355037D01*
X124423640Y-121297673D01*
X124442522Y-121235430D01*
X124448897Y-121170700D01*
X124448897Y-120637300D01*
X124442522Y-120572570D01*
X124423640Y-120510327D01*
X124401356Y-120468635D01*
X124466756Y-120434438D01*
X124564165Y-120355968D01*
X124644393Y-120260002D01*
X124704358Y-120150228D01*
X124741754Y-120030865D01*
X124752100Y-119919750D01*
X124593350Y-119761000D01*
X123513850Y-119761000D01*
X123513850Y-119781000D01*
X123259850Y-119781000D01*
X123259850Y-119761000D01*
X123239850Y-119761000D01*
X123239850Y-119507000D01*
X123259850Y-119507000D01*
X123259850Y-119487000D01*
X123513850Y-119487000D01*
X123513850Y-119507000D01*
X124593350Y-119507000D01*
X124752100Y-119348250D01*
X124747131Y-119294880D01*
X125984017Y-120531767D01*
G37*
X125984017Y-120531767D02*
X125998269Y-120549133D01*
X126036574Y-120580569D01*
X126067582Y-120606017D01*
X126146661Y-120648285D01*
X126232466Y-120674314D01*
X126321701Y-120683103D01*
X126344058Y-120680901D01*
X127773103Y-120680901D01*
X127773103Y-121170700D01*
X127779478Y-121235430D01*
X127798360Y-121297673D01*
X127829021Y-121355037D01*
X127870284Y-121405316D01*
X127920563Y-121446579D01*
X127977927Y-121477240D01*
X128040170Y-121496122D01*
X128104900Y-121502497D01*
X129565400Y-121502497D01*
X129630130Y-121496122D01*
X129692373Y-121477240D01*
X129749737Y-121446579D01*
X129800016Y-121405316D01*
X129837872Y-121359189D01*
X129904635Y-121352613D01*
X129990440Y-121326584D01*
X130069519Y-121284316D01*
X130138832Y-121227432D01*
X130153088Y-121210061D01*
X130196463Y-121166686D01*
X130213833Y-121152431D01*
X130270717Y-121083118D01*
X130312985Y-121004039D01*
X130339014Y-120918234D01*
X130345601Y-120851356D01*
X130345601Y-120851347D01*
X130347802Y-120829000D01*
X130345601Y-120806653D01*
X130345601Y-120183058D01*
X130347803Y-120160701D01*
X130345601Y-120138344D01*
X130345601Y-119489353D01*
X130559757Y-119703509D01*
X130559758Y-121718800D01*
X123320050Y-121718800D01*
X123103747Y-121502497D01*
X124117100Y-121502497D01*
X124181830Y-121496122D01*
X124244073Y-121477240D01*
X124301437Y-121446579D01*
X124351716Y-121405316D01*
X124392979Y-121355037D01*
X124423640Y-121297673D01*
X124442522Y-121235430D01*
X124448897Y-121170700D01*
X124448897Y-120637300D01*
X124442522Y-120572570D01*
X124423640Y-120510327D01*
X124401356Y-120468635D01*
X124466756Y-120434438D01*
X124564165Y-120355968D01*
X124644393Y-120260002D01*
X124704358Y-120150228D01*
X124741754Y-120030865D01*
X124752100Y-119919750D01*
X124593350Y-119761000D01*
X123513850Y-119761000D01*
X123513850Y-119781000D01*
X123259850Y-119781000D01*
X123259850Y-119761000D01*
X123239850Y-119761000D01*
X123239850Y-119507000D01*
X123259850Y-119507000D01*
X123259850Y-119487000D01*
X123513850Y-119487000D01*
X123513850Y-119507000D01*
X124593350Y-119507000D01*
X124752100Y-119348250D01*
X124747131Y-119294880D01*
X125984017Y-120531767D01*
G36*
X126874688Y-118755438D02*
G01*
X126874689Y-119054743D01*
X126872487Y-119077101D01*
X126881275Y-119166335D01*
X126907305Y-119252141D01*
X126949573Y-119331220D01*
X127006457Y-119400533D01*
X127023822Y-119414784D01*
X127320813Y-119711776D01*
X127335067Y-119729144D01*
X127385460Y-119770501D01*
X126510251Y-119770501D01*
X124897301Y-118157552D01*
X124897301Y-117859656D01*
X124899503Y-117837299D01*
X124893101Y-117772298D01*
X124890714Y-117748064D01*
X124864685Y-117662259D01*
X124822417Y-117583180D01*
X124765533Y-117513867D01*
X124748162Y-117499611D01*
X124714789Y-117466238D01*
X124700533Y-117448867D01*
X124631220Y-117391983D01*
X124552141Y-117349715D01*
X124466336Y-117323686D01*
X124448897Y-117321968D01*
X124448897Y-116827300D01*
X124442522Y-116762570D01*
X124423787Y-116700812D01*
X124621925Y-116502674D01*
X126874688Y-118755438D01*
G37*
X126874688Y-118755438D02*
X126874689Y-119054743D01*
X126872487Y-119077101D01*
X126881275Y-119166335D01*
X126907305Y-119252141D01*
X126949573Y-119331220D01*
X127006457Y-119400533D01*
X127023822Y-119414784D01*
X127320813Y-119711776D01*
X127335067Y-119729144D01*
X127385460Y-119770501D01*
X126510251Y-119770501D01*
X124897301Y-118157552D01*
X124897301Y-117859656D01*
X124899503Y-117837299D01*
X124893101Y-117772298D01*
X124890714Y-117748064D01*
X124864685Y-117662259D01*
X124822417Y-117583180D01*
X124765533Y-117513867D01*
X124748162Y-117499611D01*
X124714789Y-117466238D01*
X124700533Y-117448867D01*
X124631220Y-117391983D01*
X124552141Y-117349715D01*
X124466336Y-117323686D01*
X124448897Y-117321968D01*
X124448897Y-116827300D01*
X124442522Y-116762570D01*
X124423787Y-116700812D01*
X124621925Y-116502674D01*
X126874688Y-118755438D01*
G36*
X121426389Y-117441121D02*
G01*
X121426388Y-117816638D01*
X121424187Y-117838988D01*
X121426388Y-117861337D01*
X121426388Y-117861344D01*
X121432975Y-117928222D01*
X121459004Y-118014027D01*
X121501272Y-118093106D01*
X121558156Y-118162420D01*
X121575527Y-118176676D01*
X121689300Y-118290450D01*
X121539000Y-118440750D01*
X121539000Y-119227500D01*
X121559000Y-119227500D01*
X121559000Y-119481500D01*
X121539000Y-119481500D01*
X121539000Y-119501500D01*
X121285000Y-119501500D01*
X121285000Y-119481500D01*
X121265000Y-119481500D01*
X121265000Y-119227500D01*
X121285000Y-119227500D01*
X121285000Y-118440750D01*
X121126250Y-118282000D01*
X120937000Y-118278928D01*
X120886752Y-118283877D01*
X120886752Y-117403501D01*
X120886768Y-117403339D01*
X120886768Y-117403338D01*
X120888970Y-117380982D01*
X120886768Y-117358625D01*
X120886768Y-116914085D01*
X120887896Y-116902628D01*
X121426389Y-117441121D01*
G37*
X121426389Y-117441121D02*
X121426388Y-117816638D01*
X121424187Y-117838988D01*
X121426388Y-117861337D01*
X121426388Y-117861344D01*
X121432975Y-117928222D01*
X121459004Y-118014027D01*
X121501272Y-118093106D01*
X121558156Y-118162420D01*
X121575527Y-118176676D01*
X121689300Y-118290450D01*
X121539000Y-118440750D01*
X121539000Y-119227500D01*
X121559000Y-119227500D01*
X121559000Y-119481500D01*
X121539000Y-119481500D01*
X121539000Y-119501500D01*
X121285000Y-119501500D01*
X121285000Y-119481500D01*
X121265000Y-119481500D01*
X121265000Y-119227500D01*
X121285000Y-119227500D01*
X121285000Y-118440750D01*
X121126250Y-118282000D01*
X120937000Y-118278928D01*
X120886752Y-118283877D01*
X120886752Y-117403501D01*
X120886768Y-117403339D01*
X120886768Y-117403338D01*
X120888970Y-117380982D01*
X120886768Y-117358625D01*
X120886768Y-116914085D01*
X120887896Y-116902628D01*
X121426389Y-117441121D01*
G36*
X127455603Y-113446560D02*
G01*
X127461978Y-113511290D01*
X127480860Y-113573533D01*
X127511521Y-113630897D01*
X127552784Y-113681176D01*
X127603063Y-113722439D01*
X127660427Y-113753100D01*
X127722670Y-113771982D01*
X127787400Y-113778357D01*
X127992600Y-113778357D01*
X127992601Y-115239447D01*
X127582673Y-115649376D01*
X127525781Y-115679785D01*
X127456467Y-115736669D01*
X127399583Y-115805982D01*
X127357315Y-115885061D01*
X127331286Y-115970866D01*
X127324699Y-116037744D01*
X127324699Y-116073550D01*
X127322498Y-116095899D01*
X127323083Y-116101841D01*
X127322498Y-116107783D01*
X127324699Y-116130132D01*
X127324699Y-117917949D01*
X125694403Y-116287654D01*
X125701518Y-116289812D01*
X125826000Y-116302072D01*
X125977750Y-116299000D01*
X126136500Y-116140250D01*
X126136500Y-115316000D01*
X126390500Y-115316000D01*
X126390500Y-116140250D01*
X126549250Y-116299000D01*
X126701000Y-116302072D01*
X126825482Y-116289812D01*
X126945180Y-116253502D01*
X127055494Y-116194537D01*
X127152185Y-116115185D01*
X127231537Y-116018494D01*
X127290502Y-115908180D01*
X127326812Y-115788482D01*
X127339072Y-115664000D01*
X127336000Y-115474750D01*
X127177250Y-115316000D01*
X126390500Y-115316000D01*
X126136500Y-115316000D01*
X126116500Y-115316000D01*
X126116500Y-115062000D01*
X126136500Y-115062000D01*
X126136500Y-115042000D01*
X126390500Y-115042000D01*
X126390500Y-115062000D01*
X127177250Y-115062000D01*
X127336000Y-114903250D01*
X127339072Y-114714000D01*
X127326812Y-114589518D01*
X127290502Y-114469820D01*
X127231537Y-114359506D01*
X127152185Y-114262815D01*
X127055494Y-114183463D01*
X126945180Y-114124498D01*
X126825482Y-114088188D01*
X126701000Y-114075928D01*
X126698287Y-114075983D01*
X127455603Y-113318668D01*
X127455603Y-113446560D01*
G37*
X127455603Y-113446560D02*
X127461978Y-113511290D01*
X127480860Y-113573533D01*
X127511521Y-113630897D01*
X127552784Y-113681176D01*
X127603063Y-113722439D01*
X127660427Y-113753100D01*
X127722670Y-113771982D01*
X127787400Y-113778357D01*
X127992600Y-113778357D01*
X127992601Y-115239447D01*
X127582673Y-115649376D01*
X127525781Y-115679785D01*
X127456467Y-115736669D01*
X127399583Y-115805982D01*
X127357315Y-115885061D01*
X127331286Y-115970866D01*
X127324699Y-116037744D01*
X127324699Y-116073550D01*
X127322498Y-116095899D01*
X127323083Y-116101841D01*
X127322498Y-116107783D01*
X127324699Y-116130132D01*
X127324699Y-117917949D01*
X125694403Y-116287654D01*
X125701518Y-116289812D01*
X125826000Y-116302072D01*
X125977750Y-116299000D01*
X126136500Y-116140250D01*
X126136500Y-115316000D01*
X126390500Y-115316000D01*
X126390500Y-116140250D01*
X126549250Y-116299000D01*
X126701000Y-116302072D01*
X126825482Y-116289812D01*
X126945180Y-116253502D01*
X127055494Y-116194537D01*
X127152185Y-116115185D01*
X127231537Y-116018494D01*
X127290502Y-115908180D01*
X127326812Y-115788482D01*
X127339072Y-115664000D01*
X127336000Y-115474750D01*
X127177250Y-115316000D01*
X126390500Y-115316000D01*
X126136500Y-115316000D01*
X126116500Y-115316000D01*
X126116500Y-115062000D01*
X126136500Y-115062000D01*
X126136500Y-115042000D01*
X126390500Y-115042000D01*
X126390500Y-115062000D01*
X127177250Y-115062000D01*
X127336000Y-114903250D01*
X127339072Y-114714000D01*
X127326812Y-114589518D01*
X127290502Y-114469820D01*
X127231537Y-114359506D01*
X127152185Y-114262815D01*
X127055494Y-114183463D01*
X126945180Y-114124498D01*
X126825482Y-114088188D01*
X126701000Y-114075928D01*
X126698287Y-114075983D01*
X127455603Y-113318668D01*
X127455603Y-113446560D01*
G36*
X130989801Y-115363612D02*
G01*
X130987599Y-115385971D01*
X130996387Y-115475205D01*
X131009768Y-115519315D01*
X131009768Y-115526413D01*
X130952909Y-115502861D01*
X130811836Y-115474800D01*
X130668000Y-115474800D01*
X130526927Y-115502861D01*
X130394039Y-115557905D01*
X130274443Y-115637817D01*
X130172735Y-115739525D01*
X130092823Y-115859121D01*
X130037779Y-115992009D01*
X130009718Y-116133082D01*
X130009718Y-116276918D01*
X130012129Y-116289039D01*
X129749743Y-116551426D01*
X129749737Y-116551421D01*
X129692373Y-116520760D01*
X129630130Y-116501878D01*
X129565400Y-116495503D01*
X128235099Y-116495503D01*
X128235099Y-116296332D01*
X128753866Y-115777566D01*
X128771232Y-115763314D01*
X128828116Y-115694001D01*
X128870384Y-115614922D01*
X128896413Y-115529117D01*
X128903000Y-115462239D01*
X128905202Y-115439882D01*
X128904617Y-115433940D01*
X128905202Y-115427998D01*
X128903000Y-115405641D01*
X128903000Y-113778357D01*
X129108200Y-113778357D01*
X129172930Y-113771982D01*
X129235173Y-113753100D01*
X129292537Y-113722439D01*
X129342816Y-113681176D01*
X129384079Y-113630897D01*
X129414740Y-113573533D01*
X129433622Y-113511290D01*
X129439997Y-113446560D01*
X129439997Y-113040160D01*
X129433622Y-112975430D01*
X129416273Y-112918240D01*
X129433622Y-112861050D01*
X129439997Y-112796320D01*
X129439997Y-112389920D01*
X129436769Y-112357143D01*
X129500281Y-112323196D01*
X129569594Y-112266312D01*
X129583850Y-112248941D01*
X130887592Y-110945200D01*
X130989800Y-110945200D01*
X130989801Y-115363612D01*
G37*
X130989801Y-115363612D02*
X130987599Y-115385971D01*
X130996387Y-115475205D01*
X131009768Y-115519315D01*
X131009768Y-115526413D01*
X130952909Y-115502861D01*
X130811836Y-115474800D01*
X130668000Y-115474800D01*
X130526927Y-115502861D01*
X130394039Y-115557905D01*
X130274443Y-115637817D01*
X130172735Y-115739525D01*
X130092823Y-115859121D01*
X130037779Y-115992009D01*
X130009718Y-116133082D01*
X130009718Y-116276918D01*
X130012129Y-116289039D01*
X129749743Y-116551426D01*
X129749737Y-116551421D01*
X129692373Y-116520760D01*
X129630130Y-116501878D01*
X129565400Y-116495503D01*
X128235099Y-116495503D01*
X128235099Y-116296332D01*
X128753866Y-115777566D01*
X128771232Y-115763314D01*
X128828116Y-115694001D01*
X128870384Y-115614922D01*
X128896413Y-115529117D01*
X128903000Y-115462239D01*
X128905202Y-115439882D01*
X128904617Y-115433940D01*
X128905202Y-115427998D01*
X128903000Y-115405641D01*
X128903000Y-113778357D01*
X129108200Y-113778357D01*
X129172930Y-113771982D01*
X129235173Y-113753100D01*
X129292537Y-113722439D01*
X129342816Y-113681176D01*
X129384079Y-113630897D01*
X129414740Y-113573533D01*
X129433622Y-113511290D01*
X129439997Y-113446560D01*
X129439997Y-113040160D01*
X129433622Y-112975430D01*
X129416273Y-112918240D01*
X129433622Y-112861050D01*
X129439997Y-112796320D01*
X129439997Y-112389920D01*
X129436769Y-112357143D01*
X129500281Y-112323196D01*
X129569594Y-112266312D01*
X129583850Y-112248941D01*
X130887592Y-110945200D01*
X130989800Y-110945200D01*
X130989801Y-115363612D01*
G36*
X126949669Y-112537100D02*
G01*
X125075525Y-114411246D01*
X125014656Y-114392782D01*
X124907250Y-114382203D01*
X124469750Y-114382203D01*
X124362344Y-114392782D01*
X124259065Y-114424111D01*
X124163882Y-114474987D01*
X124080454Y-114543454D01*
X124011987Y-114626882D01*
X123961111Y-114722065D01*
X123929782Y-114825344D01*
X123919203Y-114932750D01*
X123919203Y-115445250D01*
X123929782Y-115552656D01*
X123961111Y-115655935D01*
X124011987Y-115751118D01*
X124045341Y-115791760D01*
X123386850Y-116450250D01*
X122638304Y-115701705D01*
X122650196Y-115641918D01*
X122650196Y-115498082D01*
X122622135Y-115357009D01*
X122567091Y-115224121D01*
X122487179Y-115104525D01*
X122385471Y-115002817D01*
X122265875Y-114922905D01*
X122132987Y-114867861D01*
X121991914Y-114839800D01*
X121848078Y-114839800D01*
X121787209Y-114851908D01*
X121790757Y-114834070D01*
X121790757Y-114690234D01*
X121788346Y-114678113D01*
X122099066Y-114367393D01*
X122116432Y-114353141D01*
X122173316Y-114283828D01*
X122215584Y-114204749D01*
X122241613Y-114118944D01*
X122248200Y-114052066D01*
X122250402Y-114029709D01*
X122248200Y-114007352D01*
X122248200Y-113786449D01*
X122259935Y-113782889D01*
X122355118Y-113732013D01*
X122395881Y-113698560D01*
X123154366Y-113698560D01*
X123183463Y-113722439D01*
X123240827Y-113753100D01*
X123303070Y-113771982D01*
X123367800Y-113778357D01*
X124688600Y-113778357D01*
X124753330Y-113771982D01*
X124815573Y-113753100D01*
X124872937Y-113722439D01*
X124923216Y-113681176D01*
X124964479Y-113630897D01*
X124995140Y-113573533D01*
X125014022Y-113511290D01*
X125020397Y-113446560D01*
X125020397Y-113339755D01*
X125034436Y-113332542D01*
X125132402Y-113254769D01*
X125213314Y-113159379D01*
X125274061Y-113050036D01*
X125312309Y-112930943D01*
X125323600Y-112828070D01*
X125164850Y-112669320D01*
X124155200Y-112669320D01*
X124155200Y-112708363D01*
X123901200Y-112708363D01*
X123901200Y-112669320D01*
X122891550Y-112669320D01*
X122772710Y-112788160D01*
X122595011Y-112788160D01*
X122589218Y-112729344D01*
X122557889Y-112626065D01*
X122507013Y-112530882D01*
X122492680Y-112513417D01*
X122512180Y-112507502D01*
X122622494Y-112448537D01*
X122719185Y-112369185D01*
X122733506Y-112351734D01*
X122732800Y-112358170D01*
X122891550Y-112516920D01*
X123901200Y-112516920D01*
X123901200Y-112477877D01*
X124155200Y-112477877D01*
X124155200Y-112516920D01*
X125164850Y-112516920D01*
X125323600Y-112358170D01*
X125312309Y-112255297D01*
X125274061Y-112136204D01*
X125213314Y-112026861D01*
X125132402Y-111931471D01*
X125034436Y-111853698D01*
X125020397Y-111846485D01*
X125020397Y-111747840D01*
X126160409Y-111747840D01*
X126949669Y-112537100D01*
G37*
X126949669Y-112537100D02*
X125075525Y-114411246D01*
X125014656Y-114392782D01*
X124907250Y-114382203D01*
X124469750Y-114382203D01*
X124362344Y-114392782D01*
X124259065Y-114424111D01*
X124163882Y-114474987D01*
X124080454Y-114543454D01*
X124011987Y-114626882D01*
X123961111Y-114722065D01*
X123929782Y-114825344D01*
X123919203Y-114932750D01*
X123919203Y-115445250D01*
X123929782Y-115552656D01*
X123961111Y-115655935D01*
X124011987Y-115751118D01*
X124045341Y-115791760D01*
X123386850Y-116450250D01*
X122638304Y-115701705D01*
X122650196Y-115641918D01*
X122650196Y-115498082D01*
X122622135Y-115357009D01*
X122567091Y-115224121D01*
X122487179Y-115104525D01*
X122385471Y-115002817D01*
X122265875Y-114922905D01*
X122132987Y-114867861D01*
X121991914Y-114839800D01*
X121848078Y-114839800D01*
X121787209Y-114851908D01*
X121790757Y-114834070D01*
X121790757Y-114690234D01*
X121788346Y-114678113D01*
X122099066Y-114367393D01*
X122116432Y-114353141D01*
X122173316Y-114283828D01*
X122215584Y-114204749D01*
X122241613Y-114118944D01*
X122248200Y-114052066D01*
X122250402Y-114029709D01*
X122248200Y-114007352D01*
X122248200Y-113786449D01*
X122259935Y-113782889D01*
X122355118Y-113732013D01*
X122395881Y-113698560D01*
X123154366Y-113698560D01*
X123183463Y-113722439D01*
X123240827Y-113753100D01*
X123303070Y-113771982D01*
X123367800Y-113778357D01*
X124688600Y-113778357D01*
X124753330Y-113771982D01*
X124815573Y-113753100D01*
X124872937Y-113722439D01*
X124923216Y-113681176D01*
X124964479Y-113630897D01*
X124995140Y-113573533D01*
X125014022Y-113511290D01*
X125020397Y-113446560D01*
X125020397Y-113339755D01*
X125034436Y-113332542D01*
X125132402Y-113254769D01*
X125213314Y-113159379D01*
X125274061Y-113050036D01*
X125312309Y-112930943D01*
X125323600Y-112828070D01*
X125164850Y-112669320D01*
X124155200Y-112669320D01*
X124155200Y-112708363D01*
X123901200Y-112708363D01*
X123901200Y-112669320D01*
X122891550Y-112669320D01*
X122772710Y-112788160D01*
X122595011Y-112788160D01*
X122589218Y-112729344D01*
X122557889Y-112626065D01*
X122507013Y-112530882D01*
X122492680Y-112513417D01*
X122512180Y-112507502D01*
X122622494Y-112448537D01*
X122719185Y-112369185D01*
X122733506Y-112351734D01*
X122732800Y-112358170D01*
X122891550Y-112516920D01*
X123901200Y-112516920D01*
X123901200Y-112477877D01*
X124155200Y-112477877D01*
X124155200Y-112516920D01*
X125164850Y-112516920D01*
X125323600Y-112358170D01*
X125312309Y-112255297D01*
X125274061Y-112136204D01*
X125213314Y-112026861D01*
X125132402Y-111931471D01*
X125034436Y-111853698D01*
X125020397Y-111846485D01*
X125020397Y-111747840D01*
X126160409Y-111747840D01*
X126949669Y-112537100D01*
G36*
X120841750Y-111353500D02*
G01*
X121666000Y-111353500D01*
X121666000Y-111333500D01*
X121920000Y-111333500D01*
X121920000Y-111353500D01*
X121940000Y-111353500D01*
X121940000Y-111607500D01*
X121920000Y-111607500D01*
X121920000Y-111627500D01*
X121666000Y-111627500D01*
X121666000Y-111607500D01*
X120841750Y-111607500D01*
X120683000Y-111766250D01*
X120679928Y-111918000D01*
X120692188Y-112042482D01*
X120728498Y-112162180D01*
X120787463Y-112272494D01*
X120866815Y-112369185D01*
X120963506Y-112448537D01*
X121073820Y-112507502D01*
X121093320Y-112513417D01*
X121078987Y-112530882D01*
X121028111Y-112626065D01*
X120996782Y-112729344D01*
X120986203Y-112836750D01*
X120986203Y-113274250D01*
X120996782Y-113381656D01*
X121028111Y-113484935D01*
X121078987Y-113580118D01*
X121147454Y-113663546D01*
X121230882Y-113732013D01*
X121326065Y-113782889D01*
X121337801Y-113786449D01*
X121337801Y-113841158D01*
X121144596Y-114034363D01*
X121132475Y-114031952D01*
X120988639Y-114031952D01*
X120847566Y-114060013D01*
X120714678Y-114115057D01*
X120595082Y-114194969D01*
X120493374Y-114296677D01*
X120413462Y-114416273D01*
X120389929Y-114473086D01*
X120216200Y-114299357D01*
X120216200Y-113350049D01*
X120226475Y-113343183D01*
X120328183Y-113241475D01*
X120408095Y-113121879D01*
X120463139Y-112988991D01*
X120491200Y-112847918D01*
X120491200Y-112704082D01*
X120463139Y-112563009D01*
X120408095Y-112430121D01*
X120328183Y-112310525D01*
X120226475Y-112208817D01*
X120106879Y-112128905D01*
X120011146Y-112089251D01*
X120306112Y-111794286D01*
X120323478Y-111780034D01*
X120380362Y-111710721D01*
X120422630Y-111631642D01*
X120443612Y-111562474D01*
X120747168Y-111258918D01*
X120841750Y-111353500D01*
G37*
X120841750Y-111353500D02*
X121666000Y-111353500D01*
X121666000Y-111333500D01*
X121920000Y-111333500D01*
X121920000Y-111353500D01*
X121940000Y-111353500D01*
X121940000Y-111607500D01*
X121920000Y-111607500D01*
X121920000Y-111627500D01*
X121666000Y-111627500D01*
X121666000Y-111607500D01*
X120841750Y-111607500D01*
X120683000Y-111766250D01*
X120679928Y-111918000D01*
X120692188Y-112042482D01*
X120728498Y-112162180D01*
X120787463Y-112272494D01*
X120866815Y-112369185D01*
X120963506Y-112448537D01*
X121073820Y-112507502D01*
X121093320Y-112513417D01*
X121078987Y-112530882D01*
X121028111Y-112626065D01*
X120996782Y-112729344D01*
X120986203Y-112836750D01*
X120986203Y-113274250D01*
X120996782Y-113381656D01*
X121028111Y-113484935D01*
X121078987Y-113580118D01*
X121147454Y-113663546D01*
X121230882Y-113732013D01*
X121326065Y-113782889D01*
X121337801Y-113786449D01*
X121337801Y-113841158D01*
X121144596Y-114034363D01*
X121132475Y-114031952D01*
X120988639Y-114031952D01*
X120847566Y-114060013D01*
X120714678Y-114115057D01*
X120595082Y-114194969D01*
X120493374Y-114296677D01*
X120413462Y-114416273D01*
X120389929Y-114473086D01*
X120216200Y-114299357D01*
X120216200Y-113350049D01*
X120226475Y-113343183D01*
X120328183Y-113241475D01*
X120408095Y-113121879D01*
X120463139Y-112988991D01*
X120491200Y-112847918D01*
X120491200Y-112704082D01*
X120463139Y-112563009D01*
X120408095Y-112430121D01*
X120328183Y-112310525D01*
X120226475Y-112208817D01*
X120106879Y-112128905D01*
X120011146Y-112089251D01*
X120306112Y-111794286D01*
X120323478Y-111780034D01*
X120380362Y-111710721D01*
X120422630Y-111631642D01*
X120443612Y-111562474D01*
X120747168Y-111258918D01*
X120841750Y-111353500D01*
G36*
X129749203Y-106035250D02*
G01*
X129759782Y-106142656D01*
X129791111Y-106245935D01*
X129841987Y-106341118D01*
X129910454Y-106424546D01*
X129993882Y-106493013D01*
X130089065Y-106543889D01*
X130192344Y-106575218D01*
X130299750Y-106585797D01*
X130808547Y-106585797D01*
X130989800Y-106767050D01*
X130989800Y-108621142D01*
X130894475Y-108525817D01*
X130774879Y-108445905D01*
X130641991Y-108390861D01*
X130500918Y-108362800D01*
X130357082Y-108362800D01*
X130216009Y-108390861D01*
X130083121Y-108445905D01*
X129963525Y-108525817D01*
X129861817Y-108627525D01*
X129850275Y-108644798D01*
X129792546Y-108574454D01*
X129709118Y-108505987D01*
X129613935Y-108455111D01*
X129510656Y-108423782D01*
X129403250Y-108413203D01*
X128965750Y-108413203D01*
X128858344Y-108423782D01*
X128755065Y-108455111D01*
X128659882Y-108505987D01*
X128642417Y-108520320D01*
X128636502Y-108500820D01*
X128577537Y-108390506D01*
X128498185Y-108293815D01*
X128401494Y-108214463D01*
X128291180Y-108155498D01*
X128171482Y-108119188D01*
X128047000Y-108106928D01*
X127895250Y-108110000D01*
X127736500Y-108268750D01*
X127736500Y-109093000D01*
X127756500Y-109093000D01*
X127756500Y-109347000D01*
X127736500Y-109347000D01*
X127736500Y-110171250D01*
X127895250Y-110330000D01*
X128047000Y-110333072D01*
X128171482Y-110320812D01*
X128291180Y-110284502D01*
X128401494Y-110225537D01*
X128498185Y-110146185D01*
X128577537Y-110049494D01*
X128636502Y-109939180D01*
X128642417Y-109919680D01*
X128659882Y-109934013D01*
X128729301Y-109971118D01*
X128729301Y-110367389D01*
X128339048Y-110757643D01*
X127787400Y-110757643D01*
X127722670Y-110764018D01*
X127660427Y-110782900D01*
X127603063Y-110813561D01*
X127552784Y-110854824D01*
X127511521Y-110905103D01*
X127480860Y-110962467D01*
X127461978Y-111024710D01*
X127455603Y-111089440D01*
X127455603Y-111495840D01*
X127461978Y-111560570D01*
X127479327Y-111617760D01*
X127461978Y-111674950D01*
X127455603Y-111739680D01*
X127455603Y-111755535D01*
X126686646Y-110986579D01*
X126672390Y-110969208D01*
X126603077Y-110912324D01*
X126523998Y-110870056D01*
X126438193Y-110844027D01*
X126371315Y-110837440D01*
X126371307Y-110837440D01*
X126348958Y-110835239D01*
X126326609Y-110837440D01*
X124902034Y-110837440D01*
X124872937Y-110813561D01*
X124815573Y-110782900D01*
X124753330Y-110764018D01*
X124688600Y-110757643D01*
X124136953Y-110757643D01*
X123873700Y-110494391D01*
X123873700Y-110098117D01*
X123943118Y-110061013D01*
X123960583Y-110046680D01*
X123966498Y-110066180D01*
X124025463Y-110176494D01*
X124104815Y-110273185D01*
X124201506Y-110352537D01*
X124311820Y-110411502D01*
X124431518Y-110447812D01*
X124556000Y-110460072D01*
X124707750Y-110457000D01*
X124866500Y-110298250D01*
X124866500Y-109474000D01*
X125120500Y-109474000D01*
X125120500Y-110298250D01*
X125279250Y-110457000D01*
X125431000Y-110460072D01*
X125555482Y-110447812D01*
X125675180Y-110411502D01*
X125785494Y-110352537D01*
X125882185Y-110273185D01*
X125961537Y-110176494D01*
X126020502Y-110066180D01*
X126056812Y-109946482D01*
X126069072Y-109822000D01*
X126067011Y-109695000D01*
X126533928Y-109695000D01*
X126546188Y-109819482D01*
X126582498Y-109939180D01*
X126641463Y-110049494D01*
X126720815Y-110146185D01*
X126817506Y-110225537D01*
X126927820Y-110284502D01*
X127047518Y-110320812D01*
X127172000Y-110333072D01*
X127323750Y-110330000D01*
X127482500Y-110171250D01*
X127482500Y-109347000D01*
X126695750Y-109347000D01*
X126537000Y-109505750D01*
X126533928Y-109695000D01*
X126067011Y-109695000D01*
X126066000Y-109632750D01*
X125907250Y-109474000D01*
X125120500Y-109474000D01*
X124866500Y-109474000D01*
X124846500Y-109474000D01*
X124846500Y-109220000D01*
X124866500Y-109220000D01*
X124866500Y-109200000D01*
X125120500Y-109200000D01*
X125120500Y-109220000D01*
X125907250Y-109220000D01*
X126066000Y-109061250D01*
X126069072Y-108872000D01*
X126056812Y-108747518D01*
X126056049Y-108745000D01*
X126533928Y-108745000D01*
X126537000Y-108934250D01*
X126695750Y-109093000D01*
X127482500Y-109093000D01*
X127482500Y-108268750D01*
X127323750Y-108110000D01*
X127172000Y-108106928D01*
X127047518Y-108119188D01*
X126927820Y-108155498D01*
X126817506Y-108214463D01*
X126720815Y-108293815D01*
X126641463Y-108390506D01*
X126582498Y-108500820D01*
X126546188Y-108620518D01*
X126533928Y-108745000D01*
X126056049Y-108745000D01*
X126020502Y-108627820D01*
X125961537Y-108517506D01*
X125882185Y-108420815D01*
X125785494Y-108341463D01*
X125675180Y-108282498D01*
X125555482Y-108246188D01*
X125453970Y-108236190D01*
X126951960Y-106738200D01*
X128075785Y-106738200D01*
X128092000Y-106739797D01*
X129192000Y-106739797D01*
X129256730Y-106733422D01*
X129318973Y-106714540D01*
X129376337Y-106683879D01*
X129426616Y-106642616D01*
X129467879Y-106592337D01*
X129498540Y-106534973D01*
X129517422Y-106472730D01*
X129523797Y-106408000D01*
X129523797Y-106158000D01*
X129517422Y-106093270D01*
X129499139Y-106033000D01*
X129517422Y-105972730D01*
X129523797Y-105908000D01*
X129523797Y-105738200D01*
X129749203Y-105738200D01*
X129749203Y-106035250D01*
G37*
X129749203Y-106035250D02*
X129759782Y-106142656D01*
X129791111Y-106245935D01*
X129841987Y-106341118D01*
X129910454Y-106424546D01*
X129993882Y-106493013D01*
X130089065Y-106543889D01*
X130192344Y-106575218D01*
X130299750Y-106585797D01*
X130808547Y-106585797D01*
X130989800Y-106767050D01*
X130989800Y-108621142D01*
X130894475Y-108525817D01*
X130774879Y-108445905D01*
X130641991Y-108390861D01*
X130500918Y-108362800D01*
X130357082Y-108362800D01*
X130216009Y-108390861D01*
X130083121Y-108445905D01*
X129963525Y-108525817D01*
X129861817Y-108627525D01*
X129850275Y-108644798D01*
X129792546Y-108574454D01*
X129709118Y-108505987D01*
X129613935Y-108455111D01*
X129510656Y-108423782D01*
X129403250Y-108413203D01*
X128965750Y-108413203D01*
X128858344Y-108423782D01*
X128755065Y-108455111D01*
X128659882Y-108505987D01*
X128642417Y-108520320D01*
X128636502Y-108500820D01*
X128577537Y-108390506D01*
X128498185Y-108293815D01*
X128401494Y-108214463D01*
X128291180Y-108155498D01*
X128171482Y-108119188D01*
X128047000Y-108106928D01*
X127895250Y-108110000D01*
X127736500Y-108268750D01*
X127736500Y-109093000D01*
X127756500Y-109093000D01*
X127756500Y-109347000D01*
X127736500Y-109347000D01*
X127736500Y-110171250D01*
X127895250Y-110330000D01*
X128047000Y-110333072D01*
X128171482Y-110320812D01*
X128291180Y-110284502D01*
X128401494Y-110225537D01*
X128498185Y-110146185D01*
X128577537Y-110049494D01*
X128636502Y-109939180D01*
X128642417Y-109919680D01*
X128659882Y-109934013D01*
X128729301Y-109971118D01*
X128729301Y-110367389D01*
X128339048Y-110757643D01*
X127787400Y-110757643D01*
X127722670Y-110764018D01*
X127660427Y-110782900D01*
X127603063Y-110813561D01*
X127552784Y-110854824D01*
X127511521Y-110905103D01*
X127480860Y-110962467D01*
X127461978Y-111024710D01*
X127455603Y-111089440D01*
X127455603Y-111495840D01*
X127461978Y-111560570D01*
X127479327Y-111617760D01*
X127461978Y-111674950D01*
X127455603Y-111739680D01*
X127455603Y-111755535D01*
X126686646Y-110986579D01*
X126672390Y-110969208D01*
X126603077Y-110912324D01*
X126523998Y-110870056D01*
X126438193Y-110844027D01*
X126371315Y-110837440D01*
X126371307Y-110837440D01*
X126348958Y-110835239D01*
X126326609Y-110837440D01*
X124902034Y-110837440D01*
X124872937Y-110813561D01*
X124815573Y-110782900D01*
X124753330Y-110764018D01*
X124688600Y-110757643D01*
X124136953Y-110757643D01*
X123873700Y-110494391D01*
X123873700Y-110098117D01*
X123943118Y-110061013D01*
X123960583Y-110046680D01*
X123966498Y-110066180D01*
X124025463Y-110176494D01*
X124104815Y-110273185D01*
X124201506Y-110352537D01*
X124311820Y-110411502D01*
X124431518Y-110447812D01*
X124556000Y-110460072D01*
X124707750Y-110457000D01*
X124866500Y-110298250D01*
X124866500Y-109474000D01*
X125120500Y-109474000D01*
X125120500Y-110298250D01*
X125279250Y-110457000D01*
X125431000Y-110460072D01*
X125555482Y-110447812D01*
X125675180Y-110411502D01*
X125785494Y-110352537D01*
X125882185Y-110273185D01*
X125961537Y-110176494D01*
X126020502Y-110066180D01*
X126056812Y-109946482D01*
X126069072Y-109822000D01*
X126067011Y-109695000D01*
X126533928Y-109695000D01*
X126546188Y-109819482D01*
X126582498Y-109939180D01*
X126641463Y-110049494D01*
X126720815Y-110146185D01*
X126817506Y-110225537D01*
X126927820Y-110284502D01*
X127047518Y-110320812D01*
X127172000Y-110333072D01*
X127323750Y-110330000D01*
X127482500Y-110171250D01*
X127482500Y-109347000D01*
X126695750Y-109347000D01*
X126537000Y-109505750D01*
X126533928Y-109695000D01*
X126067011Y-109695000D01*
X126066000Y-109632750D01*
X125907250Y-109474000D01*
X125120500Y-109474000D01*
X124866500Y-109474000D01*
X124846500Y-109474000D01*
X124846500Y-109220000D01*
X124866500Y-109220000D01*
X124866500Y-109200000D01*
X125120500Y-109200000D01*
X125120500Y-109220000D01*
X125907250Y-109220000D01*
X126066000Y-109061250D01*
X126069072Y-108872000D01*
X126056812Y-108747518D01*
X126056049Y-108745000D01*
X126533928Y-108745000D01*
X126537000Y-108934250D01*
X126695750Y-109093000D01*
X127482500Y-109093000D01*
X127482500Y-108268750D01*
X127323750Y-108110000D01*
X127172000Y-108106928D01*
X127047518Y-108119188D01*
X126927820Y-108155498D01*
X126817506Y-108214463D01*
X126720815Y-108293815D01*
X126641463Y-108390506D01*
X126582498Y-108500820D01*
X126546188Y-108620518D01*
X126533928Y-108745000D01*
X126056049Y-108745000D01*
X126020502Y-108627820D01*
X125961537Y-108517506D01*
X125882185Y-108420815D01*
X125785494Y-108341463D01*
X125675180Y-108282498D01*
X125555482Y-108246188D01*
X125453970Y-108236190D01*
X126951960Y-106738200D01*
X128075785Y-106738200D01*
X128092000Y-106739797D01*
X129192000Y-106739797D01*
X129256730Y-106733422D01*
X129318973Y-106714540D01*
X129376337Y-106683879D01*
X129426616Y-106642616D01*
X129467879Y-106592337D01*
X129498540Y-106534973D01*
X129517422Y-106472730D01*
X129523797Y-106408000D01*
X129523797Y-106158000D01*
X129517422Y-106093270D01*
X129499139Y-106033000D01*
X129517422Y-105972730D01*
X129523797Y-105908000D01*
X129523797Y-105738200D01*
X129749203Y-105738200D01*
X129749203Y-106035250D01*
G36*
X120707927Y-109638066D02*
G01*
X120652883Y-109770954D01*
X120624822Y-109912027D01*
X120624822Y-110055863D01*
X120652883Y-110196936D01*
X120677197Y-110255634D01*
X120673851Y-110255634D01*
X120651502Y-110253433D01*
X120629153Y-110255634D01*
X120629146Y-110255634D01*
X120562268Y-110262221D01*
X120476463Y-110288250D01*
X120397384Y-110330518D01*
X120328071Y-110387402D01*
X120313819Y-110404768D01*
X119693985Y-111024603D01*
X119676614Y-111038859D01*
X119619730Y-111108173D01*
X119577462Y-111187252D01*
X119556481Y-111256418D01*
X119486500Y-111326398D01*
X119522609Y-111258842D01*
X119548638Y-111173037D01*
X119555225Y-111106159D01*
X119557427Y-111083802D01*
X119555225Y-111061445D01*
X119555225Y-110986561D01*
X119588015Y-110980039D01*
X119720903Y-110924995D01*
X119840499Y-110845083D01*
X119942207Y-110743375D01*
X120022119Y-110623779D01*
X120077163Y-110490891D01*
X120105224Y-110349818D01*
X120105224Y-110215762D01*
X120758283Y-109562704D01*
X120707927Y-109638066D01*
G37*
X120707927Y-109638066D02*
X120652883Y-109770954D01*
X120624822Y-109912027D01*
X120624822Y-110055863D01*
X120652883Y-110196936D01*
X120677197Y-110255634D01*
X120673851Y-110255634D01*
X120651502Y-110253433D01*
X120629153Y-110255634D01*
X120629146Y-110255634D01*
X120562268Y-110262221D01*
X120476463Y-110288250D01*
X120397384Y-110330518D01*
X120328071Y-110387402D01*
X120313819Y-110404768D01*
X119693985Y-111024603D01*
X119676614Y-111038859D01*
X119619730Y-111108173D01*
X119577462Y-111187252D01*
X119556481Y-111256418D01*
X119486500Y-111326398D01*
X119522609Y-111258842D01*
X119548638Y-111173037D01*
X119555225Y-111106159D01*
X119557427Y-111083802D01*
X119555225Y-111061445D01*
X119555225Y-110986561D01*
X119588015Y-110980039D01*
X119720903Y-110924995D01*
X119840499Y-110845083D01*
X119942207Y-110743375D01*
X120022119Y-110623779D01*
X120077163Y-110490891D01*
X120105224Y-110349818D01*
X120105224Y-110215762D01*
X120758283Y-109562704D01*
X120707927Y-109638066D01*
G36*
X109990027Y-102406540D02*
G01*
X110052270Y-102425422D01*
X110071800Y-102427345D01*
X110071799Y-103957652D01*
X110069598Y-103980001D01*
X110071799Y-104002350D01*
X110071799Y-104002357D01*
X110078386Y-104069235D01*
X110104415Y-104155040D01*
X110146683Y-104234119D01*
X110161801Y-104252540D01*
X110161800Y-104752144D01*
X110159599Y-104774494D01*
X110161800Y-104796843D01*
X110161800Y-104796850D01*
X110168387Y-104863728D01*
X110194416Y-104949533D01*
X110236684Y-105028612D01*
X110293568Y-105097926D01*
X110310939Y-105112182D01*
X112591832Y-107393076D01*
X112606084Y-107410442D01*
X112675397Y-107467326D01*
X112754476Y-107509594D01*
X112840281Y-107535623D01*
X112907159Y-107542210D01*
X112907168Y-107542210D01*
X112929515Y-107544411D01*
X112951862Y-107542210D01*
X114531141Y-107542210D01*
X114553490Y-107544411D01*
X114575839Y-107542210D01*
X114575847Y-107542210D01*
X114642725Y-107535623D01*
X114728530Y-107509594D01*
X114807609Y-107467326D01*
X114860801Y-107423673D01*
X114860801Y-108400040D01*
X114858599Y-108422399D01*
X114867387Y-108511633D01*
X114886425Y-108574390D01*
X114888011Y-108579619D01*
X114849765Y-108583386D01*
X114763960Y-108609415D01*
X114733553Y-108625668D01*
X114733540Y-108625626D01*
X114702879Y-108568262D01*
X114661616Y-108517983D01*
X114611337Y-108476720D01*
X114553973Y-108446059D01*
X114491730Y-108427177D01*
X114427000Y-108420802D01*
X112953800Y-108420802D01*
X112889070Y-108427177D01*
X112826827Y-108446059D01*
X112769463Y-108476720D01*
X112719184Y-108517983D01*
X112677921Y-108568262D01*
X112672909Y-108577640D01*
X112623326Y-108582523D01*
X112614564Y-108583386D01*
X112588535Y-108591282D01*
X112528760Y-108609415D01*
X112449681Y-108651683D01*
X112380368Y-108708567D01*
X112366116Y-108725933D01*
X109987924Y-111104126D01*
X109982000Y-111108988D01*
X109982000Y-102402250D01*
X109990027Y-102406540D01*
G37*
X109990027Y-102406540D02*
X110052270Y-102425422D01*
X110071800Y-102427345D01*
X110071799Y-103957652D01*
X110069598Y-103980001D01*
X110071799Y-104002350D01*
X110071799Y-104002357D01*
X110078386Y-104069235D01*
X110104415Y-104155040D01*
X110146683Y-104234119D01*
X110161801Y-104252540D01*
X110161800Y-104752144D01*
X110159599Y-104774494D01*
X110161800Y-104796843D01*
X110161800Y-104796850D01*
X110168387Y-104863728D01*
X110194416Y-104949533D01*
X110236684Y-105028612D01*
X110293568Y-105097926D01*
X110310939Y-105112182D01*
X112591832Y-107393076D01*
X112606084Y-107410442D01*
X112675397Y-107467326D01*
X112754476Y-107509594D01*
X112840281Y-107535623D01*
X112907159Y-107542210D01*
X112907168Y-107542210D01*
X112929515Y-107544411D01*
X112951862Y-107542210D01*
X114531141Y-107542210D01*
X114553490Y-107544411D01*
X114575839Y-107542210D01*
X114575847Y-107542210D01*
X114642725Y-107535623D01*
X114728530Y-107509594D01*
X114807609Y-107467326D01*
X114860801Y-107423673D01*
X114860801Y-108400040D01*
X114858599Y-108422399D01*
X114867387Y-108511633D01*
X114886425Y-108574390D01*
X114888011Y-108579619D01*
X114849765Y-108583386D01*
X114763960Y-108609415D01*
X114733553Y-108625668D01*
X114733540Y-108625626D01*
X114702879Y-108568262D01*
X114661616Y-108517983D01*
X114611337Y-108476720D01*
X114553973Y-108446059D01*
X114491730Y-108427177D01*
X114427000Y-108420802D01*
X112953800Y-108420802D01*
X112889070Y-108427177D01*
X112826827Y-108446059D01*
X112769463Y-108476720D01*
X112719184Y-108517983D01*
X112677921Y-108568262D01*
X112672909Y-108577640D01*
X112623326Y-108582523D01*
X112614564Y-108583386D01*
X112588535Y-108591282D01*
X112528760Y-108609415D01*
X112449681Y-108651683D01*
X112380368Y-108708567D01*
X112366116Y-108725933D01*
X109987924Y-111104126D01*
X109982000Y-111108988D01*
X109982000Y-102402250D01*
X109990027Y-102406540D01*
G36*
X118644826Y-110895251D02*
G01*
X118586477Y-110953600D01*
X118622587Y-110886042D01*
X118644825Y-110812733D01*
X118644826Y-110895251D01*
G37*
X118644826Y-110895251D02*
X118586477Y-110953600D01*
X118622587Y-110886042D01*
X118644825Y-110812733D01*
X118644826Y-110895251D01*
G36*
X117256121Y-109867095D02*
G01*
X117389009Y-109922139D01*
X117530082Y-109950200D01*
X117673918Y-109950200D01*
X117744803Y-109936100D01*
X117744804Y-110522452D01*
X117634454Y-110632802D01*
X117179023Y-110632802D01*
X117191667Y-110617490D01*
X117250964Y-110507354D01*
X117287634Y-110387766D01*
X117297200Y-110267750D01*
X117138450Y-110109000D01*
X116052600Y-110109000D01*
X116052600Y-110129000D01*
X115798600Y-110129000D01*
X115798600Y-110109000D01*
X115778600Y-110109000D01*
X115778600Y-109855000D01*
X115798600Y-109855000D01*
X115798600Y-109835000D01*
X116052600Y-109835000D01*
X116052600Y-109855000D01*
X117138450Y-109855000D01*
X117178332Y-109815118D01*
X117256121Y-109867095D01*
G37*
X117256121Y-109867095D02*
X117389009Y-109922139D01*
X117530082Y-109950200D01*
X117673918Y-109950200D01*
X117744803Y-109936100D01*
X117744804Y-110522452D01*
X117634454Y-110632802D01*
X117179023Y-110632802D01*
X117191667Y-110617490D01*
X117250964Y-110507354D01*
X117287634Y-110387766D01*
X117297200Y-110267750D01*
X117138450Y-110109000D01*
X116052600Y-110109000D01*
X116052600Y-110129000D01*
X115798600Y-110129000D01*
X115798600Y-110109000D01*
X115778600Y-110109000D01*
X115778600Y-109855000D01*
X115798600Y-109855000D01*
X115798600Y-109835000D01*
X116052600Y-109835000D01*
X116052600Y-109855000D01*
X117138450Y-109855000D01*
X117178332Y-109815118D01*
X117256121Y-109867095D01*
G36*
X119162033Y-109575761D02*
G01*
X119029145Y-109630805D01*
X118909549Y-109710717D01*
X118807841Y-109812425D01*
X118727929Y-109932021D01*
X118672885Y-110064909D01*
X118655203Y-110153803D01*
X118655203Y-109883548D01*
X118980673Y-109558079D01*
X119250927Y-109558079D01*
X119162033Y-109575761D01*
G37*
X119162033Y-109575761D02*
X119029145Y-109630805D01*
X118909549Y-109710717D01*
X118807841Y-109812425D01*
X118727929Y-109932021D01*
X118672885Y-110064909D01*
X118655203Y-110153803D01*
X118655203Y-109883548D01*
X118980673Y-109558079D01*
X119250927Y-109558079D01*
X119162033Y-109575761D01*
G36*
X119479343Y-109554145D02*
G01*
X119446942Y-109547700D01*
X119403270Y-109547700D01*
X119476575Y-109525463D01*
X119544137Y-109489351D01*
X119479343Y-109554145D01*
G37*
X119479343Y-109554145D02*
X119446942Y-109547700D01*
X119403270Y-109547700D01*
X119476575Y-109525463D01*
X119544137Y-109489351D01*
X119479343Y-109554145D01*
G36*
X124025463Y-108517506D02*
G01*
X123966498Y-108627820D01*
X123960583Y-108647320D01*
X123943118Y-108632987D01*
X123847935Y-108582111D01*
X123744656Y-108550782D01*
X123637250Y-108540203D01*
X123199750Y-108540203D01*
X123092344Y-108550782D01*
X122989065Y-108582111D01*
X122893882Y-108632987D01*
X122810454Y-108701454D01*
X122741987Y-108784882D01*
X122691111Y-108880065D01*
X122687551Y-108891800D01*
X122014315Y-108891800D01*
X121991966Y-108889599D01*
X121969617Y-108891800D01*
X121969610Y-108891800D01*
X121902732Y-108898387D01*
X121816927Y-108924416D01*
X121737848Y-108966684D01*
X121668535Y-109023568D01*
X121654283Y-109040934D01*
X121439061Y-109256156D01*
X121426940Y-109253745D01*
X121283104Y-109253745D01*
X121142031Y-109281806D01*
X121009143Y-109336850D01*
X120933781Y-109387206D01*
X121878755Y-108442232D01*
X124087239Y-108442232D01*
X124025463Y-108517506D01*
G37*
X124025463Y-108517506D02*
X123966498Y-108627820D01*
X123960583Y-108647320D01*
X123943118Y-108632987D01*
X123847935Y-108582111D01*
X123744656Y-108550782D01*
X123637250Y-108540203D01*
X123199750Y-108540203D01*
X123092344Y-108550782D01*
X122989065Y-108582111D01*
X122893882Y-108632987D01*
X122810454Y-108701454D01*
X122741987Y-108784882D01*
X122691111Y-108880065D01*
X122687551Y-108891800D01*
X122014315Y-108891800D01*
X121991966Y-108889599D01*
X121969617Y-108891800D01*
X121969610Y-108891800D01*
X121902732Y-108898387D01*
X121816927Y-108924416D01*
X121737848Y-108966684D01*
X121668535Y-109023568D01*
X121654283Y-109040934D01*
X121439061Y-109256156D01*
X121426940Y-109253745D01*
X121283104Y-109253745D01*
X121142031Y-109281806D01*
X121009143Y-109336850D01*
X120933781Y-109387206D01*
X121878755Y-108442232D01*
X124087239Y-108442232D01*
X124025463Y-108517506D01*
G36*
X116588998Y-105986655D02*
G01*
X116582411Y-106053533D01*
X116582411Y-106053540D01*
X116580210Y-106075889D01*
X116582411Y-106098238D01*
X116582412Y-108420802D01*
X115958153Y-108420802D01*
X115771200Y-108233850D01*
X115771200Y-107055449D01*
X115782935Y-107051889D01*
X115878118Y-107001013D01*
X115961546Y-106932546D01*
X116030013Y-106849118D01*
X116080889Y-106753935D01*
X116112218Y-106650656D01*
X116122797Y-106543250D01*
X116122797Y-106105750D01*
X116112218Y-105998344D01*
X116102774Y-105967210D01*
X116594897Y-105967210D01*
X116588998Y-105986655D01*
G37*
X116588998Y-105986655D02*
X116582411Y-106053533D01*
X116582411Y-106053540D01*
X116580210Y-106075889D01*
X116582411Y-106098238D01*
X116582412Y-108420802D01*
X115958153Y-108420802D01*
X115771200Y-108233850D01*
X115771200Y-107055449D01*
X115782935Y-107051889D01*
X115878118Y-107001013D01*
X115961546Y-106932546D01*
X116030013Y-106849118D01*
X116080889Y-106753935D01*
X116112218Y-106650656D01*
X116122797Y-106543250D01*
X116122797Y-106105750D01*
X116112218Y-105998344D01*
X116102774Y-105967210D01*
X116594897Y-105967210D01*
X116588998Y-105986655D01*
G36*
X121515165Y-107564448D02*
G01*
X121447605Y-107600559D01*
X121505954Y-107542210D01*
X121588473Y-107542210D01*
X121515165Y-107564448D01*
G37*
X121515165Y-107564448D02*
X121447605Y-107600559D01*
X121505954Y-107542210D01*
X121588473Y-107542210D01*
X121515165Y-107564448D01*
G36*
X124870830Y-107531832D02*
G01*
X124785490Y-107531832D01*
X124858798Y-107509594D01*
X124932418Y-107470244D01*
X124870830Y-107531832D01*
G37*
X124870830Y-107531832D02*
X124785490Y-107531832D01*
X124858798Y-107509594D01*
X124932418Y-107470244D01*
X124870830Y-107531832D01*
G36*
X121586987Y-105274118D02*
G01*
X121655454Y-105357546D01*
X121738882Y-105426013D01*
X121834065Y-105476889D01*
X121937344Y-105508218D01*
X122044750Y-105518797D01*
X122426548Y-105518797D01*
X122462954Y-105555203D01*
X122044750Y-105555203D01*
X121937344Y-105565782D01*
X121834065Y-105597111D01*
X121738882Y-105647987D01*
X121655454Y-105716454D01*
X121586987Y-105799882D01*
X121549883Y-105869300D01*
X120291349Y-105869300D01*
X120269000Y-105867099D01*
X120246651Y-105869300D01*
X120246643Y-105869300D01*
X120179765Y-105875887D01*
X120174798Y-105877394D01*
X120132250Y-105873203D01*
X119694750Y-105873203D01*
X119606190Y-105881926D01*
X119606190Y-105573074D01*
X119694750Y-105581797D01*
X120132250Y-105581797D01*
X120239656Y-105571218D01*
X120342935Y-105539889D01*
X120438118Y-105489013D01*
X120521546Y-105420546D01*
X120590013Y-105337118D01*
X120640889Y-105241935D01*
X120644449Y-105230200D01*
X121563513Y-105230200D01*
X121586987Y-105274118D01*
G37*
X121586987Y-105274118D02*
X121655454Y-105357546D01*
X121738882Y-105426013D01*
X121834065Y-105476889D01*
X121937344Y-105508218D01*
X122044750Y-105518797D01*
X122426548Y-105518797D01*
X122462954Y-105555203D01*
X122044750Y-105555203D01*
X121937344Y-105565782D01*
X121834065Y-105597111D01*
X121738882Y-105647987D01*
X121655454Y-105716454D01*
X121586987Y-105799882D01*
X121549883Y-105869300D01*
X120291349Y-105869300D01*
X120269000Y-105867099D01*
X120246651Y-105869300D01*
X120246643Y-105869300D01*
X120179765Y-105875887D01*
X120174798Y-105877394D01*
X120132250Y-105873203D01*
X119694750Y-105873203D01*
X119606190Y-105881926D01*
X119606190Y-105573074D01*
X119694750Y-105581797D01*
X120132250Y-105581797D01*
X120239656Y-105571218D01*
X120342935Y-105539889D01*
X120438118Y-105489013D01*
X120521546Y-105420546D01*
X120590013Y-105337118D01*
X120640889Y-105241935D01*
X120644449Y-105230200D01*
X121563513Y-105230200D01*
X121586987Y-105274118D01*
G36*
X124374065Y-101539889D02*
G01*
X124477344Y-101571218D01*
X124584750Y-101581797D01*
X124966547Y-101581797D01*
X125002953Y-101618203D01*
X124584750Y-101618203D01*
X124477344Y-101628782D01*
X124374065Y-101660111D01*
X124278882Y-101710987D01*
X124195454Y-101779454D01*
X124126987Y-101862882D01*
X124076111Y-101958065D01*
X124044782Y-102061344D01*
X124034203Y-102168750D01*
X124034203Y-102606250D01*
X124044782Y-102713656D01*
X124076111Y-102816935D01*
X124126987Y-102912118D01*
X124195454Y-102995546D01*
X124278882Y-103064013D01*
X124374065Y-103114889D01*
X124477344Y-103146218D01*
X124584750Y-103156797D01*
X124966548Y-103156797D01*
X126398816Y-104589066D01*
X126413068Y-104606432D01*
X126430433Y-104620683D01*
X126482381Y-104663316D01*
X126561460Y-104705584D01*
X126647265Y-104731613D01*
X126736500Y-104740402D01*
X126758857Y-104738200D01*
X127760203Y-104738200D01*
X127760203Y-104908000D01*
X127766578Y-104972730D01*
X127784861Y-105033000D01*
X127766578Y-105093270D01*
X127760203Y-105158000D01*
X127760203Y-105327800D01*
X126010125Y-105327800D01*
X125987768Y-105325598D01*
X125965411Y-105327800D01*
X125898533Y-105334387D01*
X125812728Y-105360416D01*
X125733649Y-105402684D01*
X125664336Y-105459568D01*
X125650085Y-105476933D01*
X125482998Y-105644020D01*
X125515272Y-105544629D01*
X125527000Y-105441750D01*
X125368250Y-105283000D01*
X125527000Y-105124250D01*
X125515272Y-105021371D01*
X125476641Y-104902402D01*
X125415543Y-104793255D01*
X125334325Y-104698125D01*
X125236108Y-104620668D01*
X125219275Y-104612087D01*
X125217422Y-104593270D01*
X125199139Y-104533000D01*
X125217422Y-104472730D01*
X125223797Y-104408000D01*
X125223797Y-104158000D01*
X125217422Y-104093270D01*
X125198540Y-104031027D01*
X125167879Y-103973663D01*
X125126616Y-103923384D01*
X125076337Y-103882121D01*
X125018973Y-103851460D01*
X124956730Y-103832578D01*
X124892000Y-103826203D01*
X124528953Y-103826203D01*
X123555008Y-102852259D01*
X123573889Y-102816935D01*
X123605218Y-102713656D01*
X123615797Y-102606250D01*
X123615797Y-102224452D01*
X124326034Y-101514216D01*
X124374065Y-101539889D01*
G37*
X124374065Y-101539889D02*
X124477344Y-101571218D01*
X124584750Y-101581797D01*
X124966547Y-101581797D01*
X125002953Y-101618203D01*
X124584750Y-101618203D01*
X124477344Y-101628782D01*
X124374065Y-101660111D01*
X124278882Y-101710987D01*
X124195454Y-101779454D01*
X124126987Y-101862882D01*
X124076111Y-101958065D01*
X124044782Y-102061344D01*
X124034203Y-102168750D01*
X124034203Y-102606250D01*
X124044782Y-102713656D01*
X124076111Y-102816935D01*
X124126987Y-102912118D01*
X124195454Y-102995546D01*
X124278882Y-103064013D01*
X124374065Y-103114889D01*
X124477344Y-103146218D01*
X124584750Y-103156797D01*
X124966548Y-103156797D01*
X126398816Y-104589066D01*
X126413068Y-104606432D01*
X126430433Y-104620683D01*
X126482381Y-104663316D01*
X126561460Y-104705584D01*
X126647265Y-104731613D01*
X126736500Y-104740402D01*
X126758857Y-104738200D01*
X127760203Y-104738200D01*
X127760203Y-104908000D01*
X127766578Y-104972730D01*
X127784861Y-105033000D01*
X127766578Y-105093270D01*
X127760203Y-105158000D01*
X127760203Y-105327800D01*
X126010125Y-105327800D01*
X125987768Y-105325598D01*
X125965411Y-105327800D01*
X125898533Y-105334387D01*
X125812728Y-105360416D01*
X125733649Y-105402684D01*
X125664336Y-105459568D01*
X125650085Y-105476933D01*
X125482998Y-105644020D01*
X125515272Y-105544629D01*
X125527000Y-105441750D01*
X125368250Y-105283000D01*
X125527000Y-105124250D01*
X125515272Y-105021371D01*
X125476641Y-104902402D01*
X125415543Y-104793255D01*
X125334325Y-104698125D01*
X125236108Y-104620668D01*
X125219275Y-104612087D01*
X125217422Y-104593270D01*
X125199139Y-104533000D01*
X125217422Y-104472730D01*
X125223797Y-104408000D01*
X125223797Y-104158000D01*
X125217422Y-104093270D01*
X125198540Y-104031027D01*
X125167879Y-103973663D01*
X125126616Y-103923384D01*
X125076337Y-103882121D01*
X125018973Y-103851460D01*
X124956730Y-103832578D01*
X124892000Y-103826203D01*
X124528953Y-103826203D01*
X123555008Y-102852259D01*
X123573889Y-102816935D01*
X123605218Y-102713656D01*
X123615797Y-102606250D01*
X123615797Y-102224452D01*
X124326034Y-101514216D01*
X124374065Y-101539889D01*
G36*
X124469000Y-105326203D02*
G01*
X124215000Y-105326203D01*
X124215000Y-105239797D01*
X124469000Y-105239797D01*
X124469000Y-105326203D01*
G37*
X124469000Y-105326203D02*
X124215000Y-105326203D01*
X124215000Y-105239797D01*
X124469000Y-105239797D01*
X124469000Y-105326203D01*
G36*
X117059782Y-100486344D02*
G01*
X117049203Y-100593750D01*
X117049203Y-101031250D01*
X117059782Y-101138656D01*
X117091111Y-101241935D01*
X117141987Y-101337118D01*
X117210454Y-101420546D01*
X117293882Y-101489013D01*
X117389065Y-101539889D01*
X117492344Y-101571218D01*
X117599750Y-101581797D01*
X117981547Y-101581797D01*
X118017953Y-101618203D01*
X117599750Y-101618203D01*
X117492344Y-101628782D01*
X117389065Y-101660111D01*
X117293882Y-101710987D01*
X117210454Y-101779454D01*
X117141987Y-101862882D01*
X117091111Y-101958065D01*
X117059782Y-102061344D01*
X117049203Y-102168750D01*
X117049203Y-102606250D01*
X117059782Y-102713656D01*
X117091111Y-102816935D01*
X117141987Y-102912118D01*
X117210454Y-102995546D01*
X117293882Y-103064013D01*
X117389065Y-103114889D01*
X117492344Y-103146218D01*
X117599750Y-103156797D01*
X117981548Y-103156797D01*
X118344540Y-103519790D01*
X117916873Y-103519790D01*
X117894516Y-103517588D01*
X117872159Y-103519790D01*
X117805281Y-103526377D01*
X117719476Y-103552406D01*
X117640397Y-103594674D01*
X117571084Y-103651558D01*
X117556832Y-103668924D01*
X117269924Y-103955833D01*
X117252559Y-103970084D01*
X117195675Y-104039397D01*
X117170168Y-104087118D01*
X117153407Y-104118476D01*
X117127377Y-104204282D01*
X117118589Y-104293516D01*
X117120791Y-104315875D01*
X117120790Y-104712550D01*
X116776531Y-105056810D01*
X116426436Y-105056810D01*
X116426000Y-105035250D01*
X116267250Y-104876500D01*
X115443000Y-104876500D01*
X115443000Y-104896500D01*
X115189000Y-104896500D01*
X115189000Y-104876500D01*
X115169000Y-104876500D01*
X115169000Y-104622500D01*
X115189000Y-104622500D01*
X115189000Y-103835750D01*
X115443000Y-103835750D01*
X115443000Y-104622500D01*
X116267250Y-104622500D01*
X116426000Y-104463750D01*
X116429072Y-104312000D01*
X116416812Y-104187518D01*
X116380502Y-104067820D01*
X116321537Y-103957506D01*
X116242185Y-103860815D01*
X116145494Y-103781463D01*
X116035180Y-103722498D01*
X115915482Y-103686188D01*
X115791000Y-103673928D01*
X115601750Y-103677000D01*
X115443000Y-103835750D01*
X115189000Y-103835750D01*
X115030250Y-103677000D01*
X114841000Y-103673928D01*
X114755200Y-103682378D01*
X114755200Y-102362657D01*
X114820247Y-102335714D01*
X114956222Y-102244858D01*
X115071858Y-102129222D01*
X115162714Y-101993247D01*
X115225296Y-101842160D01*
X115257200Y-101681768D01*
X115257200Y-101518232D01*
X115225296Y-101357840D01*
X115162714Y-101206753D01*
X115071858Y-101070778D01*
X114956222Y-100955142D01*
X114820247Y-100864286D01*
X114669160Y-100801704D01*
X114508768Y-100769800D01*
X114345232Y-100769800D01*
X114184840Y-100801704D01*
X114033753Y-100864286D01*
X114022950Y-100871505D01*
X113899020Y-100741135D01*
X113717206Y-100612877D01*
X113513864Y-100522554D01*
X113458874Y-100505881D01*
X113284000Y-100632046D01*
X113284000Y-101473000D01*
X113304000Y-101473000D01*
X113304000Y-101727000D01*
X113284000Y-101727000D01*
X113284000Y-102567954D01*
X113458874Y-102694119D01*
X113513864Y-102677446D01*
X113717206Y-102587123D01*
X113844801Y-102497113D01*
X113844800Y-103671950D01*
X113536547Y-103980203D01*
X113154750Y-103980203D01*
X113047344Y-103990782D01*
X112944065Y-104022111D01*
X112848882Y-104072987D01*
X112765454Y-104141454D01*
X112696987Y-104224882D01*
X112646111Y-104320065D01*
X112614782Y-104423344D01*
X112604203Y-104530750D01*
X112604203Y-104873954D01*
X112342200Y-104611951D01*
X112342200Y-104252540D01*
X112357317Y-104234120D01*
X112399585Y-104155041D01*
X112425614Y-104069236D01*
X112432201Y-104002358D01*
X112432201Y-104002357D01*
X112434403Y-103980001D01*
X112432201Y-103957644D01*
X112432201Y-102471013D01*
X112596794Y-102587123D01*
X112800136Y-102677446D01*
X112855126Y-102694119D01*
X113030000Y-102567954D01*
X113030000Y-101727000D01*
X113010000Y-101727000D01*
X113010000Y-101473000D01*
X113030000Y-101473000D01*
X113030000Y-100632046D01*
X112855126Y-100505881D01*
X112800136Y-100522554D01*
X112596794Y-100612877D01*
X112414980Y-100741135D01*
X112291050Y-100871505D01*
X112280247Y-100864286D01*
X112129160Y-100801704D01*
X111968768Y-100769800D01*
X111805232Y-100769800D01*
X111644840Y-100801704D01*
X111493753Y-100864286D01*
X111399190Y-100927471D01*
X111392879Y-100915663D01*
X111351616Y-100865384D01*
X111301337Y-100824121D01*
X111243973Y-100793460D01*
X111181730Y-100774578D01*
X111117000Y-100768203D01*
X110117000Y-100768203D01*
X110052270Y-100774578D01*
X109990027Y-100793460D01*
X109982000Y-100797750D01*
X109982000Y-100509606D01*
X110034904Y-100456702D01*
X117080918Y-100416668D01*
X117059782Y-100486344D01*
G37*
X117059782Y-100486344D02*
X117049203Y-100593750D01*
X117049203Y-101031250D01*
X117059782Y-101138656D01*
X117091111Y-101241935D01*
X117141987Y-101337118D01*
X117210454Y-101420546D01*
X117293882Y-101489013D01*
X117389065Y-101539889D01*
X117492344Y-101571218D01*
X117599750Y-101581797D01*
X117981547Y-101581797D01*
X118017953Y-101618203D01*
X117599750Y-101618203D01*
X117492344Y-101628782D01*
X117389065Y-101660111D01*
X117293882Y-101710987D01*
X117210454Y-101779454D01*
X117141987Y-101862882D01*
X117091111Y-101958065D01*
X117059782Y-102061344D01*
X117049203Y-102168750D01*
X117049203Y-102606250D01*
X117059782Y-102713656D01*
X117091111Y-102816935D01*
X117141987Y-102912118D01*
X117210454Y-102995546D01*
X117293882Y-103064013D01*
X117389065Y-103114889D01*
X117492344Y-103146218D01*
X117599750Y-103156797D01*
X117981548Y-103156797D01*
X118344540Y-103519790D01*
X117916873Y-103519790D01*
X117894516Y-103517588D01*
X117872159Y-103519790D01*
X117805281Y-103526377D01*
X117719476Y-103552406D01*
X117640397Y-103594674D01*
X117571084Y-103651558D01*
X117556832Y-103668924D01*
X117269924Y-103955833D01*
X117252559Y-103970084D01*
X117195675Y-104039397D01*
X117170168Y-104087118D01*
X117153407Y-104118476D01*
X117127377Y-104204282D01*
X117118589Y-104293516D01*
X117120791Y-104315875D01*
X117120790Y-104712550D01*
X116776531Y-105056810D01*
X116426436Y-105056810D01*
X116426000Y-105035250D01*
X116267250Y-104876500D01*
X115443000Y-104876500D01*
X115443000Y-104896500D01*
X115189000Y-104896500D01*
X115189000Y-104876500D01*
X115169000Y-104876500D01*
X115169000Y-104622500D01*
X115189000Y-104622500D01*
X115189000Y-103835750D01*
X115443000Y-103835750D01*
X115443000Y-104622500D01*
X116267250Y-104622500D01*
X116426000Y-104463750D01*
X116429072Y-104312000D01*
X116416812Y-104187518D01*
X116380502Y-104067820D01*
X116321537Y-103957506D01*
X116242185Y-103860815D01*
X116145494Y-103781463D01*
X116035180Y-103722498D01*
X115915482Y-103686188D01*
X115791000Y-103673928D01*
X115601750Y-103677000D01*
X115443000Y-103835750D01*
X115189000Y-103835750D01*
X115030250Y-103677000D01*
X114841000Y-103673928D01*
X114755200Y-103682378D01*
X114755200Y-102362657D01*
X114820247Y-102335714D01*
X114956222Y-102244858D01*
X115071858Y-102129222D01*
X115162714Y-101993247D01*
X115225296Y-101842160D01*
X115257200Y-101681768D01*
X115257200Y-101518232D01*
X115225296Y-101357840D01*
X115162714Y-101206753D01*
X115071858Y-101070778D01*
X114956222Y-100955142D01*
X114820247Y-100864286D01*
X114669160Y-100801704D01*
X114508768Y-100769800D01*
X114345232Y-100769800D01*
X114184840Y-100801704D01*
X114033753Y-100864286D01*
X114022950Y-100871505D01*
X113899020Y-100741135D01*
X113717206Y-100612877D01*
X113513864Y-100522554D01*
X113458874Y-100505881D01*
X113284000Y-100632046D01*
X113284000Y-101473000D01*
X113304000Y-101473000D01*
X113304000Y-101727000D01*
X113284000Y-101727000D01*
X113284000Y-102567954D01*
X113458874Y-102694119D01*
X113513864Y-102677446D01*
X113717206Y-102587123D01*
X113844801Y-102497113D01*
X113844800Y-103671950D01*
X113536547Y-103980203D01*
X113154750Y-103980203D01*
X113047344Y-103990782D01*
X112944065Y-104022111D01*
X112848882Y-104072987D01*
X112765454Y-104141454D01*
X112696987Y-104224882D01*
X112646111Y-104320065D01*
X112614782Y-104423344D01*
X112604203Y-104530750D01*
X112604203Y-104873954D01*
X112342200Y-104611951D01*
X112342200Y-104252540D01*
X112357317Y-104234120D01*
X112399585Y-104155041D01*
X112425614Y-104069236D01*
X112432201Y-104002358D01*
X112432201Y-104002357D01*
X112434403Y-103980001D01*
X112432201Y-103957644D01*
X112432201Y-102471013D01*
X112596794Y-102587123D01*
X112800136Y-102677446D01*
X112855126Y-102694119D01*
X113030000Y-102567954D01*
X113030000Y-101727000D01*
X113010000Y-101727000D01*
X113010000Y-101473000D01*
X113030000Y-101473000D01*
X113030000Y-100632046D01*
X112855126Y-100505881D01*
X112800136Y-100522554D01*
X112596794Y-100612877D01*
X112414980Y-100741135D01*
X112291050Y-100871505D01*
X112280247Y-100864286D01*
X112129160Y-100801704D01*
X111968768Y-100769800D01*
X111805232Y-100769800D01*
X111644840Y-100801704D01*
X111493753Y-100864286D01*
X111399190Y-100927471D01*
X111392879Y-100915663D01*
X111351616Y-100865384D01*
X111301337Y-100824121D01*
X111243973Y-100793460D01*
X111181730Y-100774578D01*
X111117000Y-100768203D01*
X110117000Y-100768203D01*
X110052270Y-100774578D01*
X109990027Y-100793460D01*
X109982000Y-100797750D01*
X109982000Y-100509606D01*
X110034904Y-100456702D01*
X117080918Y-100416668D01*
X117059782Y-100486344D01*
G36*
X111493753Y-102335714D02*
G01*
X111521802Y-102347332D01*
X111521801Y-103797464D01*
X111506685Y-103815883D01*
X111494026Y-103839567D01*
X111464417Y-103894962D01*
X111438387Y-103980768D01*
X111429599Y-104070002D01*
X111431801Y-104092361D01*
X111431800Y-104778150D01*
X111429599Y-104800500D01*
X111431800Y-104822849D01*
X111431800Y-104822856D01*
X111438387Y-104889734D01*
X111464416Y-104975539D01*
X111467426Y-104981171D01*
X111072200Y-104585945D01*
X111072200Y-104092359D01*
X111074402Y-104070002D01*
X111065613Y-103980767D01*
X111047857Y-103922234D01*
X111039584Y-103894962D01*
X110997316Y-103815883D01*
X110982199Y-103797463D01*
X110982199Y-102431797D01*
X111117000Y-102431797D01*
X111181730Y-102425422D01*
X111243973Y-102406540D01*
X111301337Y-102375879D01*
X111351616Y-102334616D01*
X111392879Y-102284337D01*
X111399190Y-102272529D01*
X111493753Y-102335714D01*
G37*
X111493753Y-102335714D02*
X111521802Y-102347332D01*
X111521801Y-103797464D01*
X111506685Y-103815883D01*
X111494026Y-103839567D01*
X111464417Y-103894962D01*
X111438387Y-103980768D01*
X111429599Y-104070002D01*
X111431801Y-104092361D01*
X111431800Y-104778150D01*
X111429599Y-104800500D01*
X111431800Y-104822849D01*
X111431800Y-104822856D01*
X111438387Y-104889734D01*
X111464416Y-104975539D01*
X111467426Y-104981171D01*
X111072200Y-104585945D01*
X111072200Y-104092359D01*
X111074402Y-104070002D01*
X111065613Y-103980767D01*
X111047857Y-103922234D01*
X111039584Y-103894962D01*
X110997316Y-103815883D01*
X110982199Y-103797463D01*
X110982199Y-102431797D01*
X111117000Y-102431797D01*
X111181730Y-102425422D01*
X111243973Y-102406540D01*
X111301337Y-102375879D01*
X111351616Y-102334616D01*
X111392879Y-102284337D01*
X111399190Y-102272529D01*
X111493753Y-102335714D01*
G36*
X130683000Y-104114500D02*
G01*
X130703000Y-104114500D01*
X130703000Y-104368500D01*
X130683000Y-104368500D01*
X130683000Y-104388500D01*
X130429000Y-104388500D01*
X130429000Y-104368500D01*
X130409000Y-104368500D01*
X130409000Y-104114500D01*
X130429000Y-104114500D01*
X130429000Y-104094500D01*
X130683000Y-104094500D01*
X130683000Y-104114500D01*
G37*
X130683000Y-104114500D02*
X130703000Y-104114500D01*
X130703000Y-104368500D01*
X130683000Y-104368500D01*
X130683000Y-104388500D01*
X130429000Y-104388500D01*
X130429000Y-104368500D01*
X130409000Y-104368500D01*
X130409000Y-104114500D01*
X130429000Y-104114500D01*
X130429000Y-104094500D01*
X130683000Y-104094500D01*
X130683000Y-104114500D01*
G36*
X129765771Y-102550871D02*
G01*
X129763360Y-102562992D01*
X129763360Y-102706828D01*
X129791421Y-102847901D01*
X129846465Y-102980789D01*
X129926377Y-103100385D01*
X129999907Y-103173915D01*
X129956518Y-103178188D01*
X129836820Y-103214498D01*
X129726506Y-103273463D01*
X129629815Y-103352815D01*
X129591414Y-103399607D01*
X129541236Y-103384386D01*
X129474358Y-103377799D01*
X129474350Y-103377799D01*
X129452001Y-103375598D01*
X129429652Y-103377799D01*
X129409191Y-103377799D01*
X129136407Y-103105016D01*
X129213118Y-103064013D01*
X129296546Y-102995546D01*
X129365013Y-102912118D01*
X129415889Y-102816935D01*
X129447218Y-102713656D01*
X129457797Y-102606250D01*
X129457797Y-102242896D01*
X129765771Y-102550871D01*
G37*
X129765771Y-102550871D02*
X129763360Y-102562992D01*
X129763360Y-102706828D01*
X129791421Y-102847901D01*
X129846465Y-102980789D01*
X129926377Y-103100385D01*
X129999907Y-103173915D01*
X129956518Y-103178188D01*
X129836820Y-103214498D01*
X129726506Y-103273463D01*
X129629815Y-103352815D01*
X129591414Y-103399607D01*
X129541236Y-103384386D01*
X129474358Y-103377799D01*
X129474350Y-103377799D01*
X129452001Y-103375598D01*
X129429652Y-103377799D01*
X129409191Y-103377799D01*
X129136407Y-103105016D01*
X129213118Y-103064013D01*
X129296546Y-102995546D01*
X129365013Y-102912118D01*
X129415889Y-102816935D01*
X129447218Y-102713656D01*
X129457797Y-102606250D01*
X129457797Y-102242896D01*
X129765771Y-102550871D01*
G36*
X122012782Y-102061344D02*
G01*
X122002203Y-102168750D01*
X122002203Y-102606250D01*
X122010926Y-102694810D01*
X120839060Y-102694810D01*
X120694797Y-102550547D01*
X120694797Y-102168750D01*
X120684218Y-102061344D01*
X120674774Y-102030210D01*
X122022226Y-102030210D01*
X122012782Y-102061344D01*
G37*
X122012782Y-102061344D02*
X122002203Y-102168750D01*
X122002203Y-102606250D01*
X122010926Y-102694810D01*
X120839060Y-102694810D01*
X120694797Y-102550547D01*
X120694797Y-102168750D01*
X120684218Y-102061344D01*
X120674774Y-102030210D01*
X122022226Y-102030210D01*
X122012782Y-102061344D01*
G36*
X122012782Y-100486344D02*
G01*
X122002203Y-100593750D01*
X122002203Y-100975548D01*
X121857941Y-101119810D01*
X120998436Y-101119810D01*
X120998000Y-101098250D01*
X120839250Y-100939500D01*
X120015000Y-100939500D01*
X120015000Y-100959500D01*
X119761000Y-100959500D01*
X119761000Y-100939500D01*
X118936750Y-100939500D01*
X118781750Y-101094500D01*
X118662797Y-100975547D01*
X118662797Y-100593750D01*
X118652218Y-100486344D01*
X118628415Y-100407875D01*
X118775577Y-100407039D01*
X118778000Y-100526750D01*
X118936750Y-100685500D01*
X119761000Y-100685500D01*
X119761000Y-100665500D01*
X120015000Y-100665500D01*
X120015000Y-100685500D01*
X120839250Y-100685500D01*
X120998000Y-100526750D01*
X121000679Y-100394396D01*
X122042469Y-100388477D01*
X122012782Y-100486344D01*
G37*
X122012782Y-100486344D02*
X122002203Y-100593750D01*
X122002203Y-100975548D01*
X121857941Y-101119810D01*
X120998436Y-101119810D01*
X120998000Y-101098250D01*
X120839250Y-100939500D01*
X120015000Y-100939500D01*
X120015000Y-100959500D01*
X119761000Y-100959500D01*
X119761000Y-100939500D01*
X118936750Y-100939500D01*
X118781750Y-101094500D01*
X118662797Y-100975547D01*
X118662797Y-100593750D01*
X118652218Y-100486344D01*
X118628415Y-100407875D01*
X118775577Y-100407039D01*
X118778000Y-100526750D01*
X118936750Y-100685500D01*
X119761000Y-100685500D01*
X119761000Y-100665500D01*
X120015000Y-100665500D01*
X120015000Y-100685500D01*
X120839250Y-100685500D01*
X120998000Y-100526750D01*
X121000679Y-100394396D01*
X122042469Y-100388477D01*
X122012782Y-100486344D01*
%TD*%
M02*
